<svg xmlns="http://www.w3.org/2000/svg" viewBox="0 0 1920 673" xml:space="preserve"><style>.st1{fill:#36434f}.st2{fill:#ad403b}.st3{opacity:.15;fill:#444;enable-background:new}.st4{fill:#122a3a}.st5{fill:#cc584c}</style><path fill="#f4dbb8" d="M0 0h1920v673H0z"/><path class="st1" d="M0 509.1h1920v8H0zm1479.4-19h-15.5c-.6 0-1-.4-1-1v-1.5c0-.6.4-1 1-1h15.5c.6 0 1 .4 1 1v1.5c0 .5-.4 1-1 1zm0-17.5h-15.5c-.6 0-1-.4-1-1v-1.5c0-.6.4-1 1-1h15.5c.6 0 1 .4 1 1v1.5c0 .5-.4 1-1 1zm0-17.5h-15.5c-.6 0-1-.4-1-1v-1.5c0-.6.4-1 1-1h15.5c.6 0 1 .4 1 1v1.5c0 .5-.4 1-1 1z"/><path class="st1" d="M1464.7 448.3h2v40h-2v-40zm12 0h2v40h-2v-40zm-493.3 11h7v2h-7v-2z"/><path class="st1" d="M983.4 468.3h-1c-.6 0-1-.4-1-1v-14c0-.6.4-1 1-1h1c.6 0 1 .4 1 1v14c0 .6-.4 1-1 1zm33.9-14 43-40 2 2.2-43 40-2-2.2z"/><path class="st2" d="M1483.4 440.1v10.2h-22.5v24h-8.2c-4.2 0-8.4.4-12.6 1.2l-24 4.8c-2.8.6-4.8 3-4.8 5.9v4.1c0 2.2-1.8 4-4 4h-5.9c1.7-4 2.6-8.3 2.6-12.9 0-18.5-15.1-33.6-33.6-33.6-13.9 0-25.9 8.5-31 20.7-5.1-12.1-17.1-20.7-31-20.7s-25.9 8.5-31 20.7c-5.1-12.1-17.1-20.7-31-20.7-18.5 0-33.6 15.1-33.6 33.6 0 4.6.9 8.9 2.6 12.9h-14c1.7-4 2.6-8.3 2.6-12.9 0-18.5-15.1-33.6-33.6-33.6s-33.6 15.1-33.6 33.6c0 4.6.9 8.9 2.6 12.9h-1c-2.2 0-4-1.8-4-4v-8h-61.6c-3.1-10.5-12.9-18.3-24.4-18.3-6 0-11.6 2.1-15.9 5.6v-2.3h-27.4c-1.8 0-3.6-.3-5.3-.9l-11.7-4.1c-.4-.2-.7-.5-.7-1v-2c0-.4.3-.8.7-.9l11.8-4.1c1.7-.6 3.5-.9 5.3-.9h27.2v-16c0-2.2 1.8-4 4-4h32.8v-14h265.2v19h126.5v1.8h22.5v-.1z"/><path class="st3" d="M1460.9 440.1v-1.8h-126.5v-19h-265.2v14h-32.8c-2.2 0-4 1.8-4 4v16h-27.3c-1.8 0-3.6.3-5.3.9l-11.7 4.1c-.4.2-.7.5-.7 1v2.1c0 .4.3.8.7.9l11.8 4.1c1.7.6 3.5.9 5.3.9h30.7c3.7-2.1 7.9-3.3 12.4-3.3s8.7 1.2 12.4 3.3h79.2c5.3-11.5 17-19.5 30.5-19.5s25.1 8 30.5 19.5h15c5.3-11.5 17-19.5 30.5-19.5s25.1 8 30.5 19.5h1.1c5.3-11.5 17-19.5 30.5-19.5s25.1 8 30.5 19.5h1.1c5.3-11.5 17-19.5 30.5-19.5s25.1 8 30.5 19.5h60v-17h22.3V440l-22.5.1z"/><path class="st1" d="M1064.9 400.3h-26c-1.1 0-2-.9-2-2v-1c0-1.1.9-2 2-2h26v5zm-45.5 46h-11c-2.2 0-4-1.8-4-4v-8c0-2.2 1.8-4 4-4h11c2.2 0 4 1.8 4 4v8c0 2.2-1.8 4-4 4z"/><path class="st1" d="M1009.4 445.3h9v9h-9v-9z"/><path class="st4" d="M1386.2 327.7h4.5v9.7h-4.5v-9.7z"/><path class="st4" d="M1390.7 328.2h-4.5c-.3 0-.5-.2-.5-.5s.2-.5.5-.5h4.5c.3 0 .5.2.5.5s-.2.5-.5.5zm-50.5 19.9h-10.5v-14.8c0-1.1.9-2 2-2h6.5c1.1 0 2 .9 2 2v14.8zm-199.5-.8h-6.3v-6.5c0-1.1.9-2 2-2h2.3c1.1 0 2 .9 2 2v6.5z"/><path class="st1" d="M1102.1 307.6h-12l2.3 38.2h17.3l2.4-38.2h-10z"/><path class="st4" d="M1111.4 324.7h-20.8c-.6 0-1-.4-1-1s.4-1 1-1h20.8c.6 0 1 .4 1 1s-.4 1-1 1zm.9-16.1h-22.5c-.6 0-1-.4-1-1s.4-1 1-1h22.5c.6 0 1 .4 1 1s-.4 1-1 1zm93.6 46.5h-57.5v-25c0-1.1.9-2 2-2h53.5c1.1 0 2 .9 2 2v25z"/><circle class="st5" cx="1370.5" cy="481.4" r="8.7"/><path class="st5" d="M1370.5 453.8c-15.2 0-27.6 12.3-27.6 27.6s12.3 27.6 27.6 27.6 27.6-12.3 27.6-27.6-12.4-27.6-27.6-27.6zm0 48.6c-11.6 0-21-9.4-21-21s9.4-21 21-21 21 9.4 21 21-9.4 21-21 21z"/><path class="st5" d="M1369.4 455.2h2.2v22.1h-2.2v-22.1zm0 30.3h2.2v22.1h-2.2v-22.1zm-13-26.2 1.9-1.1 11 19.1-1.9 1.1-11-19.1zm15.2 26.2 1.9-1.1 11 19.1-1.9 1.1-11-19.1zm-24.3-16.2 1.1-1.9 19.1 11-1.1 1.9-19.1-11zm26.2 15.1 1.1-1.9 19.1 11-1.1 1.9-19.1-11zm-29.2-4.1h22.1v2.2h-22.1v-2.2zm30.2 0h22.1v2.2h-22.1v-2.2zm-27.2 13.2 19.1-11 1.1 1.9-19.1 11-1.1-1.9zm26.2-15.1 19.1-11 1.1 1.9-19.1 11-1.1-1.9z"/><path class="st5" d="m1356.4 503.5 11-19.1 1.9 1.1-11 19.1-1.9-1.1zm15.2-26.2 11-19.1 1.9 1.1-11 19.1-1.9-1.1z"/><circle class="st5" cx="1308.5" cy="481.4" r="8.7"/><path class="st5" d="M1308.5 453.8c-15.2 0-27.6 12.3-27.6 27.6s12.3 27.6 27.6 27.6 27.6-12.3 27.6-27.6-12.4-27.6-27.6-27.6zm0 48.6c-11.6 0-21-9.4-21-21s9.4-21 21-21 21 9.4 21 21-9.4 21-21 21z"/><path class="st5" d="M1307.4 455.2h2.2v22.1h-2.2v-22.1zm0 30.3h2.2v22.1h-2.2v-22.1zm-13-26.2 1.9-1.1 11 19.1-1.9 1.1-11-19.1zm15.2 26.2 1.9-1.1 11 19.1-1.9 1.1-11-19.1zm-24.3-16.2 1.1-1.9 19.1 11-1.1 1.9-19.1-11zm26.2 15.1 1.1-1.9 19.1 11-1.1 1.9-19.1-11zm-29.2-4.1h22.1v2.2h-22.1v-2.2zm30.2 0h22.1v2.2h-22.1v-2.2zm-27.2 13.2 19.1-11 1.1 1.9-19.1 11-1.1-1.9zm26.2-15.1 19.1-11 1.1 1.9-19.1 11-1.1-1.9z"/><path class="st5" d="m1294.4 503.5 11-19.1 1.9 1.1-11 19.1-1.9-1.1zm15.2-26.2 11-19.1 1.9 1.1-11 19.1-1.9-1.1z"/><circle class="st5" cx="1246.5" cy="481.4" r="8.7"/><path class="st5" d="M1246.5 453.8c-15.2 0-27.6 12.3-27.6 27.6s12.3 27.6 27.6 27.6c15.2 0 27.6-12.3 27.6-27.6s-12.4-27.6-27.6-27.6zm0 48.6c-11.6 0-21-9.4-21-21s9.4-21 21-21 21 9.4 21 21-9.4 21-21 21z"/><path class="st5" d="M1245.4 455.2h2.2v22.1h-2.2v-22.1zm0 30.3h2.2v22.1h-2.2v-22.1zm-13-26.2 1.9-1.1 11 19.1-1.9 1.1-11-19.1zm15.2 26.2 1.9-1.1 11 19.1-1.9 1.1-11-19.1zm-24.3-16.2 1.1-1.9 19.1 11-1.1 1.9-19.1-11zm26.2 15.1 1.1-1.9 19.1 11-1.1 1.9-19.1-11zm-29.2-4.1h22.1v2.2h-22.1v-2.2zm30.2 0h22.1v2.2h-22.1v-2.2zm-27.2 13.2 19.1-11 1.1 1.9-19.1 11-1.1-1.9zm26.2-15.1 19.1-11 1.1 1.9-19.1 11-1.1-1.9z"/><path class="st5" d="m1232.4 503.5 11-19.1 1.9 1.1-11 19.1-1.9-1.1zm15.2-26.2 11-19.1 1.9 1.1-11 19.1-1.9-1.1z"/><circle class="st5" cx="1170.5" cy="481.4" r="8.7"/><path class="st5" d="M1170.5 453.8c-15.2 0-27.6 12.3-27.6 27.6s12.3 27.6 27.6 27.6c15.2 0 27.6-12.3 27.6-27.6s-12.4-27.6-27.6-27.6zm0 48.6c-11.6 0-21-9.4-21-21s9.4-21 21-21 21 9.4 21 21-9.4 21-21 21z"/><path class="st5" d="M1169.4 455.2h2.2v22.1h-2.2v-22.1zm0 30.3h2.2v22.1h-2.2v-22.1zm-13-26.2 1.9-1.1 11 19.1-1.9 1.1-11-19.1zm15.2 26.2 1.9-1.1 11 19.1-1.9 1.1-11-19.1zm-24.3-16.2 1.1-1.9 19.1 11-1.1 1.9-19.1-11z"/><path class="st5" d="m1173.5 484.4 1.1-1.9 19.1 11-1.1 1.9-19.1-11zm-29.2-4.1h22.1v2.2h-22.1v-2.2zm30.2 0h22.1v2.2h-22.1v-2.2zm-27.2 13.2 19.1-11 1.1 1.9-19.1 11-1.1-1.9zm26.2-15.1 19.1-11 1.1 1.9-19.1 11-1.1-1.9z"/><path class="st5" d="m1156.4 503.5 11-19.1 1.9 1.1-11 19.1-1.9-1.1zm15.2-26.2 11-19.1 1.9 1.1-11 19.1-1.9-1.1z"/><circle class="st5" cx="1048.3" cy="489.5" r="6.1"/><path class="st5" d="M1048.3 470.1c-10.7 0-19.5 8.7-19.5 19.5 0 10.7 8.7 19.5 19.5 19.5s19.5-8.7 19.5-19.5-8.7-19.5-19.5-19.5zm0 34.2c-8.2 0-14.8-6.6-14.8-14.8s6.6-14.8 14.8-14.8c8.2 0 14.8 6.6 14.8 14.8s-6.6 14.8-14.8 14.8z"/><path class="st5" d="M1047.6 471.1h1.5v15.6h-1.5v-15.6zm0 21.3h1.5V508h-1.5v-15.6zm-9.2-18.5 1.3-.8 7.8 13.5-1.3.8-7.8-13.5zm10.7 18.5 1.3-.8 7.8 13.5-1.3.8-7.8-13.5zM1032 481l.8-1.3 13.5 7.8-.8 1.3-13.5-7.8z"/><path class="st5" d="m1050.4 491.6.8-1.3 13.5 7.8-.8 1.3-13.5-7.8zm-20.5-2.9h15.6v1.5h-15.6v-1.5zm21.3 0h15.6v1.5h-15.6v-1.5zm-19.2 9.4 13.5-7.8.8 1.3-13.5 7.8-.8-1.3zm18.4-10.7 13.5-7.8.8 1.3-13.5 7.8-.8-1.3z"/><path class="st5" d="m1038.4 505.1 7.8-13.5 1.3.8-7.8 13.5-1.3-.8zm10.7-18.5 7.8-13.5 1.3.8-7.8 13.5-1.3-.8z"/><path class="st1" d="M1434.4 354.3h26.5v-9.5h32.5v-5.5c0-4.4-3.6-8-8-8h-103.5c-4.4 0-8 3.6-8 8v5.5h-308.5c-8.8 0-16 17.5-16 39s7.2 39 16 39h3.8v18.5c0 2.2 1.8 4 4 4h37.2c2.2 0 4-1.8 4-4v-18.5h207.5v19.3c0 2.2 1.8 4 4 4h51.5c2.2 0 4-1.8 4-4v-2h79.5v-17.3h32.5v-35.5h-32.5v-7h-26.5c-2.2 0-4-1.8-4-4v-18c0-2.2 1.8-4 4-4zm-14 22c0 2.2-1.8 4-4 4h-18c-2.2 0-4-1.8-4-4v-18c0-2.2 1.8-4 4-4h18c2.2 0 4 1.8 4 4v18zM439.6 489.1v-1.5c0-.6.4-1 1-1h15.5c.6 0 1 .4 1 1v1.5c0 .6-.4 1-1 1h-15.5c-.6 0-1-.5-1-1zm0-17.5v-1.5c0-.6.4-1 1-1h15.5c.6 0 1 .4 1 1v1.5c0 .6-.4 1-1 1h-15.5c-.6 0-1-.5-1-1zm0-17.5v-1.5c0-.6.4-1 1-1h15.5c.6 0 1 .4 1 1v1.5c0 .6-.4 1-1 1h-15.5c-.6 0-1-.5-1-1z"/><path class="st1" d="M455.3 488.3h-2v-40h2v40zm-12 0h-2v-40h2v40zm493.3-27h-7v-2h7v2z"/><path class="st1" d="M935.6 467.3v-14c0-.6.4-1 1-1h1c.6 0 1 .4 1 1v14c0 .6-.4 1-1 1h-1c-.6 0-1-.4-1-1zm-35-10.8-43-40 2-2.2 43 40-2 2.2z"/><path class="st2" d="M436.6 440.2h22.5v-1.8h126.5v-19h265.2v14h32.8c2.2 0 4 1.8 4 4v16h27.2c1.8 0 3.6.3 5.3.9l11.8 4.1c.4.1.7.5.7.9v2c0 .5-.3.8-.7 1l-11.7 4.1c-1.7.6-3.5.9-5.3.9h-27.4v2.3c-4.3-3.5-9.9-5.6-15.9-5.6-11.5 0-21.3 7.8-24.4 18.3h-61.6v8c0 2.2-1.8 4-4 4h-1c1.7-4 2.6-8.3 2.6-12.9 0-18.5-15.1-33.6-33.6-33.6S716 462.9 716 481.4c0 4.6.9 8.9 2.6 12.9h-14c1.7-4 2.6-8.3 2.6-12.9 0-18.5-15.1-33.6-33.6-33.6-13.9 0-25.9 8.6-31 20.7-5.1-12.2-17.1-20.7-31-20.7-13.9 0-25.9 8.6-31 20.7-5.1-12.2-17.1-20.7-31-20.7-18.5 0-33.6 15.1-33.6 33.6 0 4.6.9 8.9 2.6 12.9h-5.9c-2.2 0-4-1.8-4-4v-4.1c0-2.9-2-5.3-4.8-5.9l-24-4.8c-4.2-.8-8.4-1.2-12.6-1.2h-8.2v-24h-22.5v-10.2.1z"/><path class="st3" d="M459.1 440h-22.5v10.3h22.3v17h60c5.4-11.5 17-19.5 30.5-19.5s25.2 8 30.5 19.5h1.1c5.4-11.5 17-19.5 30.5-19.5s25.2 8 30.5 19.5h1.1c5.4-11.5 17-19.5 30.5-19.5s25.2 8 30.5 19.5h15c5.4-11.5 17-19.5 30.5-19.5s25.2 8 30.5 19.5h79.2c3.7-2.1 7.9-3.3 12.4-3.3s8.7 1.2 12.4 3.3h30.7c1.8 0 3.6-.3 5.3-.9l11.8-4.1c.4-.1.7-.5.7-.9v-2.1c0-.5-.3-.8-.7-1l-11.7-4.1c-1.7-.6-3.5-.9-5.3-.9h-27.3v-16c0-2.2-1.8-4-4-4h-32.8v-14H585.6v19H459.1v1.7z"/><path class="st1" d="M855.1 395.3h26c1.1 0 2 .9 2 2v1c0 1.1-.9 2-2 2h-26v-5zm41.5 47v-8c0-2.2 1.8-4 4-4h11c2.2 0 4 1.8 4 4v8c0 2.2-1.8 4-4 4h-11c-2.2 0-4-1.8-4-4z"/><path class="st1" d="M910.6 454.3h-9v-9h9v9z"/><path class="st4" d="M533.8 337.4h-4.5v-9.7h4.5v9.7z"/><path class="st4" d="M528.8 327.7c0-.3.2-.5.5-.5h4.5c.3 0 .5.2.5.5s-.2.5-.5.5h-4.5c-.3 0-.5-.2-.5-.5zm51 20.4v-14.8c0-1.1.9-2 2-2h6.5c1.1 0 2 .9 2 2v14.8h-10.5zm199.5-.8v-6.5c0-1.1.9-2 2-2h2.3c1.1 0 2 .9 2 2v6.5h-6.3z"/><path class="st1" d="m807.9 307.6 2.4 38.2h17.3l2.3-38.2h-22z"/><path class="st4" d="M807.6 323.7c0-.6.4-1 1-1h20.8c.6 0 1 .4 1 1s-.4 1-1 1h-20.8c-.6 0-1-.4-1-1zm-.9-16.1c0-.6.4-1 1-1h22.5c.6 0 1 .4 1 1s-.4 1-1 1h-22.5c-.6 0-1-.4-1-1zm-92.6 22.5c0-1.1.9-2 2-2h53.5c1.1 0 2 .9 2 2v25h-57.5v-25z"/><circle class="st5" cx="549.5" cy="481.4" r="8.7"/><path class="st5" d="M521.9 481.4c0 15.3 12.3 27.6 27.6 27.6s27.6-12.3 27.6-27.6-12.4-27.6-27.6-27.6-27.6 12.3-27.6 27.6zm6.6 0c0-11.6 9.4-21 21-21s21 9.4 21 21-9.4 21-21 21-21-9.4-21-21z"/><path class="st5" d="M550.6 477.3h-2.2v-22.1h2.2v22.1zm0 30.3h-2.2v-22.1h2.2v22.1zm2-29.2-1.9-1.1 11-19.1 1.9 1.1-11 19.1zm-15.2 26.2-1.9-1.1 11-19.1 1.9 1.1-11 19.1zm16.2-24.3-1.1-1.9 19.1-11 1.1 1.9-19.1 11zm-26.2 15.1-1.1-1.9 19.1-11 1.1 1.9-19.1 11zm48.3-12.9h-22.1v-2.2h22.1v2.2zm-30.2 0h-22.1v-2.2h22.1v2.2zm26.1 12.9-19.1-11 1.1-1.9 19.1 11-1.1 1.9zm-26.2-15.1-19.1-11 1.1-1.9 19.1 11-1.1 1.9z"/><path class="st5" d="m561.7 504.6-11-19.1 1.9-1.1 11 19.1-1.9 1.1zm-15.2-26.2-11-19.1 1.9-1.1 11 19.1-1.9 1.1z"/><circle class="st5" cx="611.5" cy="481.4" r="8.7"/><path class="st5" d="M583.9 481.4c0 15.3 12.3 27.6 27.6 27.6s27.6-12.3 27.6-27.6-12.4-27.6-27.6-27.6-27.6 12.3-27.6 27.6zm6.6 0c0-11.6 9.4-21 21-21s21 9.4 21 21-9.4 21-21 21-21-9.4-21-21z"/><path class="st5" d="M612.6 477.3h-2.2v-22.1h2.2v22.1zm0 30.3h-2.2v-22.1h2.2v22.1zm2-29.2-1.9-1.1 11-19.1 1.9 1.1-11 19.1zm-15.2 26.2-1.9-1.1 11-19.1 1.9 1.1-11 19.1zm16.2-24.3-1.1-1.9 19.1-11 1.1 1.9-19.1 11zm-26.2 15.1-1.1-1.9 19.1-11 1.1 1.9-19.1 11zm48.3-12.9h-22.1v-2.2h22.1v2.2zm-30.2 0h-22.1v-2.2h22.1v2.2zm26.1 12.9-19.1-11 1.1-1.9 19.1 11-1.1 1.9zm-26.2-15.1-19.1-11 1.1-1.9 19.1 11-1.1 1.9z"/><path class="st5" d="m623.7 504.6-11-19.1 1.9-1.1 11 19.1-1.9 1.1zm-15.2-26.2-11-19.1 1.9-1.1 11 19.1-1.9 1.1z"/><circle class="st5" cx="673.5" cy="481.4" r="8.7"/><path class="st5" d="M645.9 481.4c0 15.3 12.4 27.6 27.6 27.6 15.3 0 27.6-12.3 27.6-27.6s-12.4-27.6-27.6-27.6-27.6 12.3-27.6 27.6zm6.6 0c0-11.6 9.4-21 21-21s21 9.4 21 21-9.4 21-21 21-21-9.4-21-21z"/><path class="st5" d="M674.6 477.3h-2.2v-22.1h2.2v22.1zm0 30.3h-2.2v-22.1h2.2v22.1zm2-29.2-1.9-1.1 11-19.1 1.9 1.1-11 19.1zm-15.2 26.2-1.9-1.1 11-19.1 1.9 1.1-11 19.1zm16.2-24.3-1.1-1.9 19.1-11 1.1 1.9-19.1 11zm-26.2 15.1-1.1-1.9 19.1-11 1.1 1.9-19.1 11zm48.3-15.1v2.2h-22.1v-2.2h22.1zm-30.2 2.2h-22.1v-2.2h22.1v2.2zm27.2 11-1.1 1.9-19.1-11 1.1-1.9 19.1 11zm-27.3-13.2-19.1-11 1.1-1.9 19.1 11-1.1 1.9z"/><path class="st5" d="m685.7 504.6-11-19.1 1.9-1.1 11 19.1-1.9 1.1zm-15.2-26.2-11-19.1 1.9-1.1 11 19.1-1.9 1.1z"/><circle class="st5" cx="749.5" cy="481.4" r="8.7"/><path class="st5" d="M721.9 481.4c0 15.3 12.4 27.6 27.6 27.6 15.3 0 27.6-12.3 27.6-27.6s-12.4-27.6-27.6-27.6-27.6 12.3-27.6 27.6zm6.6 0c0-11.6 9.4-21 21-21s21 9.4 21 21-9.4 21-21 21-21-9.4-21-21z"/><path class="st5" d="M750.6 477.3h-2.2v-22.1h2.2v22.1zm0 30.3h-2.2v-22.1h2.2v22.1zm2-29.2-1.9-1.1 11-19.1 1.9 1.1-11 19.1zm-15.2 26.2-1.9-1.1 11-19.1 1.9 1.1-11 19.1zm16.2-24.3-1.1-1.9 19.1-11 1.1 1.9-19.1 11z"/><path class="st5" d="m727.4 495.4-1.1-1.9 19.1-11 1.1 1.9-19.1 11zm48.3-15.1v2.2h-22.1v-2.2h22.1zm-30.2 2.2h-22.1v-2.2h22.1v2.2zm26.1 12.9-19.1-11 1.1-1.9 19.1 11-1.1 1.9zm-26.2-15.1-19.1-11 1.1-1.9 19.1 11-1.1 1.9z"/><path class="st5" d="m761.7 504.6-11-19.1 1.9-1.1 11 19.1-1.9 1.1zm-15.2-26.2-11-19.1 1.9-1.1 11 19.1-1.9 1.1z"/><circle class="st5" cx="871.7" cy="489.5" r="6.1"/><path class="st5" d="M852.2 489.6c0 10.8 8.7 19.5 19.5 19.5s19.5-8.8 19.5-19.5c0-10.8-8.8-19.5-19.5-19.5-10.8 0-19.5 8.7-19.5 19.5zm4.7-.1c0-8.2 6.6-14.8 14.8-14.8s14.8 6.6 14.8 14.8-6.6 14.8-14.8 14.8c-8.2 0-14.8-6.6-14.8-14.8z"/><path class="st5" d="M872.4 486.7h-1.5v-15.6h1.5v15.6zm0 21.3h-1.5v-15.6h1.5V508zm1.4-20.6-1.3-.8 7.8-13.5 1.3.8-7.8 13.5zm-10.7 18.5-1.3-.8 7.8-13.5 1.3.8-7.8 13.5zm11.4-17.1-.8-1.3 13.5-7.8.8 1.3-13.5 7.8z"/><path class="st5" d="m856.1 499.4-.8-1.3 13.5-7.8.8 1.3-13.5 7.8zm34-9.2h-15.6v-1.5h15.6v1.5zm-21.3 0h-15.6v-1.5h15.6v1.5zm18.4 9.2-13.5-7.8.8-1.3 13.5 7.8-.8 1.3zm-18.4-10.7-13.5-7.8.8-1.3 13.5 7.8-.8 1.3z"/><path class="st5" d="m880.3 505.9-7.8-13.5 1.3-.8 7.8 13.5-1.3.8zm-10.7-18.5-7.8-13.5 1.3-.8 7.8 13.5-1.3.8z"/><path class="st1" d="M489.6 358.3v18c0 2.2-1.8 4-4 4h-26.5v7h-32.5v35.5h32.5v17.3h79.5v2c0 2.2 1.8 4 4 4h51.5c2.2 0 4-1.8 4-4v-19.3h207.5v18.5c0 2.2 1.8 4 4 4h37.2c2.2 0 4-1.8 4-4v-18.5h3.8c8.8 0 16-17.5 16-39s-7.2-39-16-39H546.1v-5.5c0-4.4-3.6-8-8-8H434.6c-4.4 0-8 3.6-8 8v5.5h32.5v9.5h26.5c2.2 0 4 1.8 4 4zm10 0c0-2.2 1.8-4 4-4h18c2.2 0 4 1.8 4 4v18c0 2.2-1.8 4-4 4h-18c-2.2 0-4-1.8-4-4v-18z"/></svg>