<svg xmlns="http://www.w3.org/2000/svg" viewBox="0 0 1920 673" xml:space="preserve"><path fill="#038387" d="M0 0h1920v673H0z"/><path d="M598.5 277.1h-82.3v154.1h-45.6V241.8h128v35.3zm148 0h-82.3v154.1h-45.6V241.8h128v35.3zm147.9 0h-82.3v154.1h-45.6V241.8h128v35.3zm200.5 154.1v-66.4h-26.3l-32 66.4h-49.5l38.9-81.9c-16.9-11-25.4-27.2-25.4-48.5 0-18.7 6.2-33.2 18.5-43.5 12.3-10.3 30-15.4 53.2-15.4h68.4v189.3h-45.8zm-48.7-126.5c0 9.6 2 16.6 5.9 21 3.9 4.3 10.4 6.5 19.6 6.5h23.3v-55.3h-23c-9.1 0-15.7 2.4-19.7 7.1-4.1 4.8-6.1 11.7-6.1 20.7zm222.3 126.5v-66.4h-26.3l-32 66.4h-49.5l38.9-81.9c-16.9-11-25.4-27.2-25.4-48.5 0-18.7 6.2-33.2 18.5-43.5 12.3-10.3 30-15.4 53.2-15.4h68.4v189.3h-45.8zm-48.7-126.5c0 9.6 2 16.6 5.9 21 3.9 4.3 10.4 6.5 19.6 6.5h23.3v-55.3h-23c-9.1 0-15.7 2.4-19.7 7.1-4.1 4.8-6.1 11.7-6.1 20.7zm222.3 126.5v-66.4h-26.3l-32 66.4h-49.5l38.9-81.9c-16.9-11-25.4-27.2-25.4-48.5 0-18.7 6.2-33.2 18.5-43.5 12.3-10.3 30-15.4 53.2-15.4h68.4v189.3h-45.8zm-48.8-126.5c0 9.6 2 16.6 5.9 21 3.9 4.3 10.4 6.5 19.6 6.5h23.3v-55.3h-23c-9.1 0-15.7 2.4-19.7 7.1-4.1 4.8-6.1 11.7-6.1 20.7z" fill="#f4f4f4"/></svg>