<svg version="1.1" xmlns="http://www.w3.org/2000/svg" x="0" y="0" viewBox="0 0 512 512" xml:space="preserve"><style type="text/css">.st0{fill:none}.st1{fill:#ddd}.st5{fill:#36434f}</style><path class="st0" d="M64-.5v512"/><path class="st1" d="M62-.5h4v512h-4z"/><path class="st0" d="M128-.5v512"/><path class="st1" d="M126-.5h4v512h-4z"/><path class="st0" d="M192-.5v512"/><path class="st1" d="M190-.5h4v512h-4z"/><path class="st0" d="M256-.5v512"/><path class="st1" d="M254-.5h4v512h-4z"/><path class="st0" d="M320-.5v512"/><path class="st1" d="M318-.5h4v512h-4z"/><path class="st0" d="M384-.5v512"/><path class="st1" d="M382-.5h4v512h-4z"/><path class="st0" d="M448-.5v512"/><path class="st1" d="M446-.5h4v512h-4z"/><path class="st0" d="M0 448h512"/><path class="st1" d="M0 446h512v4H0z"/><path class="st0" d="M0 384h512"/><path class="st1" d="M0 382h512v4H0z"/><path class="st0" d="M0 320h512"/><path class="st1" d="M0 318h512v4H0z"/><path class="st0" d="M0 256h512"/><path class="st1" d="M0 254h512v4H0z"/><path class="st0" d="M0 192h512"/><path class="st1" d="M0 190h512v4H0z"/><path class="st0" d="M0 128h512"/><path class="st1" d="M0 126h512v4H0z"/><path class="st0" d="M0 64h512"/><path class="st1" d="M0 62h512v4H0z"/><path d="M127.9 258.8L61.1 192l66.8-66.8 66.8 66.8-66.8 66.8zM66.8 192l61.2 61.2 61.2-61.2-61.2-61.2L66.8 192zm316.7 130.3L252.7 191.5l66-66h65.7l65.2 65.2v65.7l-66.1 65.9zM258.3 191.5l125.2 125.2 62-62v-62.3l-62.8-62.8h-62.3l-62.1 61.9z" fill="#79b1d1"/><circle class="st5" cx="128" cy="128" r="15"/><path class="st5" d="M144 180.8l-4.8-4.8-11.2 11.2-11.2-11.2-4.8 4.8 11.2 11.2-11.2 11.2 4.8 4.8 11.2-11.2 11.2 11.2 4.8-4.8-11.2-11.2z"/><circle class="st5" cx="64" cy="192" r="15"/><circle class="st5" cx="128" cy="256" r="15"/><circle class="st5" cx="192" cy="192" r="15"/><circle class="st5" cx="384" cy="192" r="15"/><circle class="st5" cx="384" cy="256" r="15"/><path class="st5" d="M400 116.8l-4.8-4.8-11.2 11.2-11.2-11.2-4.8 4.8 11.2 11.2-11.2 11.2 4.8 4.8 11.2-11.2 11.2 11.2 4.8-4.8-11.2-11.2zm-63 0l-4.8-4.8-11.2 11.2-11.2-11.2-4.8 4.8 11.2 11.2-11.2 11.2 4.8 4.8 11.2-11.2 11.2 11.2 4.8-4.8-11.2-11.2zm-65 64l-4.8-4.8-11.2 11.2-11.2-11.2-4.8 4.8 11.2 11.2-11.2 11.2 4.8 4.8 11.2-11.2 11.2 11.2 4.8-4.8-11.2-11.2zm192 0l-4.8-4.8-11.2 11.2-11.2-11.2-4.8 4.8 11.2 11.2-11.2 11.2 4.8 4.8 11.2-11.2 11.2 11.2 4.8-4.8-11.2-11.2zm0 64l-4.8-4.8-11.2 11.2-11.2-11.2-4.8 4.8 11.2 11.2-11.2 11.2 4.8 4.8 11.2-11.2 11.2 11.2 4.8-4.8-11.2-11.2zm-63 65l-4.8-4.8-11.2 11.2-11.2-11.2-4.8 4.8 11.2 11.2-11.2 11.2 4.8 4.8 11.2-11.2 11.2 11.2 4.8-4.8-11.2-11.2zm-65-65l-4.8-4.8-11.2 11.2-11.2-11.2-4.8 4.8 11.2 11.2-11.2 11.2 4.8 4.8 11.2-11.2 11.2 11.2 4.8-4.8-11.2-11.2zm-64 192l-4.8-4.8-11.2 11.2-11.2-11.2-4.8 4.8 11.2 11.2-11.2 11.2 4.8 4.8 11.2-11.2 11.2 11.2 4.8-4.8-11.2-11.2z"/><circle class="st5" cx="255" cy="320" r="15"/><circle class="st5" cx="128" cy="384" r="15"/></svg>