<svg version="1.1" xmlns="http://www.w3.org/2000/svg" x="0" y="0" viewBox="0 0 423 240" xml:space="preserve"><style type="text/css">.st1{fill:#36434f}.st3{opacity:.15;fill:#444;enable-background:new}</style><path d="M29 29L8 97M84 8l32 59m-27 80l76-24m114-94l60 118m-81-50l108-30" fill="none" stroke="#79b1d1" stroke-width="4" stroke-miterlimit="10"/><circle class="st1" cx="29" cy="29" r="8"/><circle class="st1" cx="8" cy="97" r="8"/><circle class="st1" cx="165" cy="123" r="8"/><circle class="st1" cx="13" cy="169" r="8"/><circle class="st1" cx="116" cy="67" r="8"/><circle class="st1" cx="145" cy="16" r="8"/><circle class="st1" cx="89" cy="147" r="8"/><circle class="st1" cx="84" cy="8" r="8"/><circle class="st1" cx="279" cy="29" r="8"/><circle class="st1" cx="258" cy="97" r="8"/><circle class="st1" cx="415" cy="123" r="8"/><circle class="st1" cx="263" cy="169" r="8"/><circle class="st1" cx="366" cy="67" r="8"/><circle class="st1" cx="395" cy="16" r="8"/><circle class="st1" cx="339" cy="147" r="8"/><circle class="st1" cx="334" cy="8" r="8"/><path d="M105.9 214.9L99 208l-18.3 18.3-6.9-6.9-6.9 6.9 8.7 8.7 5 5 25.3-25.1z" fill="#35965f"/><path class="st3" d="M80.8 240v-13.7l-6.9-6.9-6.9 6.9 8.7 8.7 5.1 5z"/><path d="M352.5 234.4L342.2 224l10.3-10.3-5.7-5.7-10.3 10.3-10.3-10.3-5.7 5.7 10.3 10.3-10.4 10.3 5.7 5.7 10.4-10.3 10.3 10.3 5.7-5.6z" fill="#cc584c"/><path class="st3" d="M336.5 218.4L326.2 208l-5.6 5.6 10.3 10.3-10.3 10.3 5.6 5.6 10.3-10.3v-11.1z"/><path fill="#36434f" stroke="#ddd" stroke-width="2" stroke-miterlimit="10" d="M213 0v240"/></svg>