<svg xmlns="http://www.w3.org/2000/svg" viewBox="0 0 1920 673" xml:space="preserve"><style>.st2{fill:#cc584c}.st4{fill:#36434f}</style><path fill="#f4f4f4" stroke="#f4f4f4" stroke-miterlimit="10" d="M0 0h1920v673H0z"/><path d="M1204.6 12H635.8v649h648.7V12h-79.9zm-10.1 10.1v69.7h-69.7V22.1h69.7zM954.9 341.6v69.7h-69.7v-69.7h69.7zm-69.7-10.2v-69.7h69.7v69.7h-69.7zm79.9 10.2h69.7v69.7h-69.7v-69.7zm0-10.2v-69.7h69.7v69.7h-69.7zm0-79.8v-69.7h69.7v69.7h-69.7zm-10.2 0h-69.7v-69.7h69.7v69.7zm-79.8 0h-69.7v-69.7h69.7v69.7zm0 10.1v69.7h-69.7v-69.7h69.7zm0 79.9v69.7h-69.7v-69.7h69.7zm0 79.8v69.7h-69.7v-69.7h69.7zm10.1 0h69.7v69.7h-69.7v-69.7zm79.9 0h69.7v69.7h-69.7v-69.7zm79.8 0h69.7v69.7h-69.7v-69.7zm0-10.1v-69.7h69.7v69.7h-69.7zm0-79.9v-69.7h69.7v69.7h-69.7zm0-79.8v-69.7h69.7v69.7h-69.7zm0-79.9V102h69.7v69.7h-69.7zm-10.1 0h-69.7V102h69.7v69.7zm-79.9 0h-69.7V102h69.7v69.7zm-79.8 0h-69.7V102h69.7v69.7zm-79.9 0h-69.7V102h69.7v69.7zm0 10.2v69.7h-69.7v-69.7h69.7zm0 79.8v69.7h-69.7v-69.7h69.7zm0 79.9v69.7h-69.7v-69.7h69.7zm0 79.8v69.7h-69.7v-69.7h69.7zm0 79.9V571h-69.7v-69.7h69.7zm10.2 0h69.7V571h-69.7v-69.7zm79.8 0h69.7V571h-69.7v-69.7zm79.9 0h69.7V571h-69.7v-69.7zm79.8 0h69.7V571h-69.7v-69.7zm79.9 0h69.7V571h-69.7v-69.7zm0-10.2v-69.7h69.7v69.7h-69.7zm0-79.8v-69.7h69.7v69.7h-69.7zm0-79.9v-69.7h69.7v69.7h-69.7zm0-79.8v-69.7h69.7v69.7h-69.7zm0-79.9V102h69.7v69.7h-69.7zm-10.2-149.6v69.7h-69.7V22.1h69.7zm-79.8 0v69.7h-69.7V22.1h69.7zm-79.9 0v69.7h-69.7V22.1h69.7zm-79.8 0v69.7h-69.7V22.1h69.7zm-79.9 0v69.7h-69.7V22.1h69.7zm-149.6 0h69.7v69.7h-69.7V22.1zm0 79.9h69.7v69.7h-69.7V102zm0 79.9h69.7v69.7h-69.7v-69.7zm0 79.8h69.7v69.7h-69.7v-69.7zm0 79.9h69.7v69.7h-69.7v-69.7zm0 79.8h69.7v69.7h-69.7v-69.7zm0 79.9h69.7V571h-69.7v-69.7zm0 149.6v-69.7h69.7v69.7h-69.7zm79.9 0v-69.7h69.7v69.7h-69.7zm79.9 0v-69.7h69.7v69.7h-69.7zm79.8 0v-69.7h69.7v69.7h-69.7zm79.9 0v-69.7h69.7v69.7h-69.7zm79.8 0v-69.7h69.7v69.7h-69.7zm79.9 0v-69.7h69.7v69.7h-69.7zm149.6 0h-69.7v-69.7h69.7v69.7zm0-79.9h-69.7v-69.7h69.7V571zm0-79.9h-69.7v-69.7h69.7v69.7zm0-79.8h-69.7v-69.7h69.7v69.7zm0-79.9h-69.7v-69.7h69.7v69.7zm0-79.8h-69.7v-69.7h69.7v69.7zm0-79.9h-69.7V102h69.7v69.7zm-69.8-79.8V22.1h69.7v69.7h-69.7z" fill="#ddd"/><path class="st2" d="M999.9 121.6c8.4 0 15.2 6.8 15.2 15.2s-6.8 15.2-15.2 15.2-15.2-6.8-15.2-15.2 6.8-15.2 15.2-15.2m0-10.1c-14 0-25.4 11.4-25.4 25.4s11.4 25.4 25.4 25.4 25.4-11.4 25.4-25.4-11.4-25.4-25.4-25.4zm159.7-69.7c8.4 0 15.2 6.8 15.2 15.2s-6.8 15.2-15.2 15.2-15.2-6.8-15.2-15.2 6.9-15.2 15.2-15.2m0-10.2c-14 0-25.4 11.4-25.4 25.4s11.4 25.4 25.4 25.4c14 0 25.4-11.4 25.4-25.4s-11.4-25.4-25.4-25.4zm-479.1 90c8.4 0 15.2 6.8 15.2 15.2s-6.8 15.2-15.2 15.2-15.2-6.8-15.2-15.2 6.8-15.2 15.2-15.2m0-10.1c-14 0-25.4 11.4-25.4 25.4s11.4 25.4 25.4 25.4 25.4-11.4 25.4-25.4-11.4-25.4-25.4-25.4zm159.7 10.1c8.4 0 15.2 6.8 15.2 15.2s-6.8 15.2-15.2 15.2-15.2-6.8-15.2-15.2 6.8-15.2 15.2-15.2m0-10.1c-14 0-25.4 11.4-25.4 25.4s11.4 25.4 25.4 25.4 25.4-11.4 25.4-25.4-11.4-25.4-25.4-25.4zm-79.8-69.7c8.4 0 15.2 6.8 15.2 15.2s-6.8 15.2-15.2 15.2-15.2-6.8-15.2-15.2 6.8-15.2 15.2-15.2m0-10.2C746.4 31.6 735 43 735 57s11.4 25.4 25.4 25.4S785.7 71 785.7 57s-11.3-25.4-25.3-25.4zm239.5 10.2c8.4 0 15.2 6.8 15.2 15.2s-6.8 15.2-15.2 15.2-15.2-6.8-15.2-15.2 6.8-15.2 15.2-15.2m0-10.2c-14 0-25.4 11.4-25.4 25.4s11.4 25.4 25.4 25.4 25.4-11.4 25.4-25.4-11.4-25.4-25.4-25.4zm-79.8 10.2c8.4 0 15.2 6.8 15.2 15.2s-6.8 15.2-15.2 15.2-15.2-6.8-15.2-15.2 6.8-15.2 15.2-15.2m0-10.2c-14 0-25.4 11.4-25.4 25.4s11.4 25.4 25.4 25.4S945.4 71 945.4 57s-11.3-25.4-25.3-25.4zm159.7 90c8.4 0 15.2 6.8 15.2 15.2s-6.8 15.2-15.2 15.2-15.2-6.8-15.2-15.2 6.8-15.2 15.2-15.2m0-10.1c-14 0-25.4 11.4-25.4 25.4s11.4 25.4 25.4 25.4c14 0 25.4-11.4 25.4-25.4s-11.4-25.4-25.4-25.4z"/><path d="m934.4 115.3-14.3 14.4-14.4-14.4-7.2 7.2 14.4 14.4-14.4 14.3 7.2 7.2 14.4-14.4 14.3 14.4 7.2-7.2-14.3-14.3 14.3-14.4-7.2-7.2zM694.9 35.5l-14.4 14.3-14.4-14.3-7.1 7.1L673.3 57 659 71.4l7.1 7.1 14.4-14.3 14.4 14.3 7.1-7.1L687.7 57 702 42.6l-7.1-7.1zm159.7 0-14.4 14.3-14.4-14.3-7.1 7.1L833 57l-14.3 14.4 7.1 7.1 14.4-14.3 14.4 14.3 7.2-7.1L847.4 57l14.4-14.4-7.2-7.1zm399.3 0-14.4 14.3-14.4-14.3-7.1 7.1 14.3 14.4-14.3 14.4 7.1 7.1 14.4-14.3 14.4 14.3 7.1-7.1-14.3-14.4 14.3-14.4-7.1-7.1zm-159.7 0-14.4 14.3-14.4-14.3-7.2 7.1 14.4 14.4-14.4 14.4 7.2 7.1 14.4-14.3 14.4 14.3 7.1-7.1L1087 57l14.3-14.4-7.1-7.1zM854.6 434.7l-14.4 14.4-14.4-14.4-7.1 7.2 14.3 14.4-14.3 14.4 7.1 7.1 14.4-14.3 14.4 14.3 7.2-7.1-14.4-14.4 14.4-14.4-7.2-7.2zM1174 115.3l-14.4 14.4-14.3-14.4-7.2 7.2 14.4 14.4-14.4 14.3 7.2 7.2 14.3-14.4 14.4 14.4 7.2-7.2-14.4-14.3 14.4-14.4-7.2-7.2zM934.4 514.6 920.1 529l-14.4-14.4-7.2 7.2 14.4 14.3-14.4 14.4 7.2 7.2 14.4-14.4 14.3 14.4 7.2-7.2-14.3-14.4 14.3-14.3-7.2-7.2zM774.7 354.9l-14.3 14.3-14.4-14.3-7.2 7.2 14.4 14.3-14.4 14.4 7.2 7.2 14.4-14.4 14.3 14.4 7.2-7.2-14.4-14.4 14.4-14.3-7.2-7.2zm79.9 0-14.4 14.3-14.4-14.3-7.1 7.2 14.3 14.3-14.3 14.4 7.1 7.2 14.4-14.4 14.4 14.4 7.2-7.2-14.4-14.4 14.4-14.3-7.2-7.2zm159.7-159.7-14.4 14.3-14.3-14.3-7.2 7.1 14.3 14.4-14.3 14.4 7.2 7.2 14.3-14.4 14.4 14.4 7.2-7.2-14.4-14.4 14.4-14.4-7.2-7.1zm159.7 0-14.4 14.3-14.3-14.3-7.2 7.1 14.4 14.4-14.4 14.4 7.2 7.2 14.3-14.4 14.4 14.4 7.2-7.2-14.4-14.4 14.4-14.4-7.2-7.1zM1014.3 275l-14.4 14.4-14.3-14.4-7.2 7.2 14.3 14.4-14.3 14.3 7.2 7.2 14.3-14.3 14.4 14.3 7.2-7.2-14.4-14.3 14.4-14.4-7.2-7.2zm79.9 79.9-14.4 14.3-14.4-14.3-7.2 7.2 14.4 14.3-14.4 14.4 7.2 7.2 14.4-14.4 14.4 14.4 7.1-7.2-14.3-14.4 14.3-14.3-7.1-7.2zm159.7-79.9-14.4 14.4-14.4-14.4-7.1 7.2 14.3 14.4-14.3 14.3 7.1 7.2 14.4-14.3 14.4 14.3 7.1-7.2-14.3-14.3 14.3-14.4-7.1-7.2zm-399.3 0-14.4 14.4-14.4-14.4-7.1 7.2 14.3 14.4-14.3 14.3 7.1 7.2 14.4-14.3 14.4 14.3 7.2-7.2-14.4-14.3 14.4-14.4-7.2-7.2zm-159.7 0-14.4 14.4-14.4-14.4-7.1 7.2 14.3 14.4-14.3 14.3 7.1 7.2 14.4-14.3 14.4 14.3 7.1-7.2-14.3-14.3 14.3-14.4-7.1-7.2zm479.1 0-14.4 14.4-14.3-14.4-7.2 7.2 14.4 14.4-14.4 14.3 7.2 7.2 14.3-14.3 14.4 14.3 7.2-7.2-14.4-14.3 14.4-14.4-7.2-7.2zm0 79.9-14.4 14.3-14.3-14.3-7.2 7.2 14.4 14.3-14.4 14.4 7.2 7.2 14.3-14.4L1174 398l7.2-7.2-14.4-14.4 14.4-14.3-7.2-7.2zm-399.3 79.8-14.3 14.4-14.4-14.4-7.2 7.2 14.4 14.4-14.4 14.4 7.2 7.1 14.4-14.3 14.3 14.3 7.2-7.1-14.4-14.4 14.4-14.4-7.2-7.2zm319.5 0-14.4 14.4-14.4-14.4-7.2 7.2 14.4 14.4-14.4 14.4 7.2 7.1 14.4-14.3 14.4 14.3 7.1-7.1-14.3-14.4 14.3-14.4-7.1-7.2zm159.7 79.9-14.4 14.4-14.4-14.4-7.1 7.2 14.3 14.3-14.3 14.4 7.1 7.2 14.4-14.4 14.4 14.4 7.1-7.2-14.3-14.4 14.3-14.3-7.1-7.2zm-559 79.9-14.4 14.3-14.4-14.3-7.1 7.1 14.3 14.4-14.3 14.4 7.1 7.1 14.4-14.3 14.4 14.3 7.1-7.1-14.3-14.4 14.3-14.4-7.1-7.1zm159.7-79.9L840.2 529l-14.4-14.4-7.1 7.2 14.3 14.3-14.3 14.4 7.1 7.2 14.4-14.4 14.4 14.4 7.2-7.2-14.4-14.4 14.4-14.3-7.2-7.2zm159.7 0L999.9 529l-14.3-14.4-7.2 7.2 14.3 14.3-14.3 14.4 7.2 7.2 14.3-14.4 14.4 14.4 7.2-7.2-14.4-14.4 14.4-14.3-7.2-7.2zm0 79.9-14.4 14.3-14.3-14.3-7.2 7.1 14.3 14.4-14.3 14.4 7.2 7.1 14.3-14.3 14.4 14.3 7.2-7.1-14.4-14.4 14.4-14.4-7.2-7.1zm-239.6 0-14.3 14.3-14.4-14.3-7.2 7.1 14.4 14.4-14.4 14.4 7.2 7.1 14.4-14.3 14.3 14.3 7.2-7.1-14.4-14.4 14.4-14.4-7.2-7.1zm319.5 0-14.4 14.3-14.4-14.3-7.2 7.1 14.4 14.4-14.4 14.4 7.2 7.1 14.4-14.3 14.4 14.3 7.1-7.1L1087 616l14.3-14.4-7.1-7.1zm79.8 0-14.4 14.3-14.3-14.3-7.2 7.1 14.4 14.4-14.4 14.4 7.2 7.1 14.3-14.3 14.4 14.3 7.2-7.1-14.4-14.4 14.4-14.4-7.2-7.1zm79.9-399.3-14.4 14.3-14.4-14.3-7.1 7.1 14.3 14.4-14.3 14.4 7.1 7.2 14.4-14.4 14.4 14.4 7.1-7.2-14.3-14.4 14.3-14.4-7.1-7.1zM934.4 594.5l-14.3 14.3-14.4-14.3-7.2 7.1 14.4 14.4-14.4 14.4 7.2 7.1 14.4-14.3 14.3 14.3 7.2-7.1-14.3-14.4 14.3-14.4-7.2-7.1zm0-159.8-14.3 14.4-14.4-14.4-7.2 7.2 14.4 14.4-14.4 14.4 7.2 7.1 14.4-14.3 14.3 14.3 7.2-7.1-14.3-14.4 14.3-14.4-7.2-7.2z" fill="#2e86b7"/><path class="st2" d="M840.2 201.5c8.4 0 15.2 6.8 15.2 15.2s-6.8 15.2-15.2 15.2-15.2-6.8-15.2-15.2 6.8-15.2 15.2-15.2m0-10.1c-14 0-25.4 11.4-25.4 25.4s11.4 25.4 25.4 25.4 25.4-11.4 25.4-25.4-11.4-25.4-25.4-25.4zm239.6 10.1c8.4 0 15.2 6.8 15.2 15.2s-6.8 15.2-15.2 15.2-15.2-6.8-15.2-15.2 6.8-15.2 15.2-15.2m0-10.1c-14 0-25.4 11.4-25.4 25.4s11.4 25.4 25.4 25.4c14 0 25.4-11.4 25.4-25.4s-11.4-25.4-25.4-25.4zm-399.3 10.1c8.4 0 15.2 6.8 15.2 15.2s-6.8 15.2-15.2 15.2-15.2-6.8-15.2-15.2 6.8-15.2 15.2-15.2m0-10.1c-14 0-25.4 11.4-25.4 25.4s11.4 25.4 25.4 25.4 25.4-11.4 25.4-25.4-11.4-25.4-25.4-25.4zm0 169.8c8.4 0 15.2 6.8 15.2 15.2s-6.8 15.2-15.2 15.2-15.2-6.8-15.2-15.2 6.8-15.2 15.2-15.2m0-10.1c-14 0-25.4 11.4-25.4 25.4s11.4 25.4 25.4 25.4 25.4-11.4 25.4-25.4-11.4-25.4-25.4-25.4zm79.9-149.6c8.4 0 15.2 6.8 15.2 15.2s-6.8 15.2-15.2 15.2-15.2-6.8-15.2-15.2 6.8-15.2 15.2-15.2m0-10.1c-14 0-25.4 11.4-25.4 25.4s11.4 25.4 25.4 25.4 25.4-11.4 25.4-25.4-11.4-25.4-25.4-25.4zm0-69.8c8.4 0 15.2 6.8 15.2 15.2s-6.8 15.2-15.2 15.2-15.2-6.8-15.2-15.2 6.8-15.2 15.2-15.2m0-10.1c-14 0-25.4 11.4-25.4 25.4s11.4 25.4 25.4 25.4 25.4-11.4 25.4-25.4-11.4-25.4-25.4-25.4zm159.7 90c8.4 0 15.2 6.8 15.2 15.2s-6.8 15.2-15.2 15.2-15.2-6.8-15.2-15.2 6.8-15.2 15.2-15.2m0-10.1c-14 0-25.4 11.4-25.4 25.4s11.4 25.4 25.4 25.4 25.4-11.4 25.4-25.4-11.4-25.4-25.4-25.4zm319.4-69.8c8.4 0 15.2 6.8 15.2 15.2s-6.8 15.2-15.2 15.2-15.2-6.8-15.2-15.2 6.8-15.2 15.2-15.2m0-10.1c-14 0-25.4 11.4-25.4 25.4s11.4 25.4 25.4 25.4c14 0 25.4-11.4 25.4-25.4s-11.4-25.4-25.4-25.4zM999.9 361.2c8.4 0 15.2 6.8 15.2 15.2s-6.8 15.2-15.2 15.2-15.2-6.8-15.2-15.2 6.8-15.2 15.2-15.2m0-10.1c-14 0-25.4 11.4-25.4 25.4s11.4 25.4 25.4 25.4 25.4-11.4 25.4-25.4-11.4-25.4-25.4-25.4zm239.6 90c8.4 0 15.2 6.8 15.2 15.2s-6.8 15.2-15.2 15.2-15.2-6.8-15.2-15.2 6.8-15.2 15.2-15.2m0-10.2c-14 0-25.4 11.4-25.4 25.4s11.4 25.4 25.4 25.4c14 0 25.4-11.4 25.4-25.4s-11.4-25.4-25.4-25.4zm-319.4-69.7c8.4 0 15.2 6.8 15.2 15.2s-6.8 15.2-15.2 15.2-15.2-6.8-15.2-15.2 6.8-15.2 15.2-15.2m0-10.1c-14 0-25.4 11.4-25.4 25.4s11.4 25.4 25.4 25.4 25.4-11.4 25.4-25.4-11.4-25.4-25.4-25.4zm79.8 90c8.4 0 15.2 6.8 15.2 15.2s-6.8 15.2-15.2 15.2-15.2-6.8-15.2-15.2 6.8-15.2 15.2-15.2m0-10.2c-14 0-25.4 11.4-25.4 25.4s11.4 25.4 25.4 25.4 25.4-11.4 25.4-25.4-11.4-25.4-25.4-25.4zM760.4 281.4c8.4 0 15.2 6.8 15.2 15.2s-6.8 15.2-15.2 15.2-15.2-6.8-15.2-15.2 6.8-15.2 15.2-15.2m0-10.2c-14 0-25.4 11.4-25.4 25.4s11.4 25.4 25.4 25.4 25.4-11.4 25.4-25.4-11.4-25.4-25.4-25.4zm159.7 10.2c8.4 0 15.2 6.8 15.2 15.2s-6.8 15.2-15.2 15.2-15.2-6.8-15.2-15.2 6.8-15.2 15.2-15.2m0-10.2c-14 0-25.4 11.4-25.4 25.4s11.4 25.4 25.4 25.4 25.4-11.4 25.4-25.4-11.4-25.4-25.4-25.4zm159.7 10.2c8.4 0 15.2 6.8 15.2 15.2s-6.8 15.2-15.2 15.2-15.2-6.8-15.2-15.2 6.8-15.2 15.2-15.2m0-10.2c-14 0-25.4 11.4-25.4 25.4s11.4 25.4 25.4 25.4c14 0 25.4-11.4 25.4-25.4s-11.4-25.4-25.4-25.4zm159.7 90c8.4 0 15.2 6.8 15.2 15.2s-6.8 15.2-15.2 15.2-15.2-6.8-15.2-15.2 6.8-15.2 15.2-15.2m0-10.1c-14 0-25.4 11.4-25.4 25.4s11.4 25.4 25.4 25.4c14 0 25.4-11.4 25.4-25.4s-11.4-25.4-25.4-25.4zm0 249.7c8.4 0 15.2 6.8 15.2 15.2s-6.8 15.2-15.2 15.2-15.2-6.8-15.2-15.2 6.8-15.2 15.2-15.2m0-10.2c-14 0-25.4 11.4-25.4 25.4s11.4 25.4 25.4 25.4c14 0 25.4-11.4 25.4-25.4s-11.4-25.4-25.4-25.4zm-79.9-69.7c8.4 0 15.2 6.8 15.2 15.2s-6.8 15.2-15.2 15.2-15.2-6.8-15.2-15.2 6.9-15.2 15.2-15.2m0-10.1c-14 0-25.4 11.4-25.4 25.4s11.4 25.4 25.4 25.4c14 0 25.4-11.4 25.4-25.4s-11.4-25.4-25.4-25.4zm-479.1 10.1c8.4 0 15.2 6.8 15.2 15.2s-6.8 15.2-15.2 15.2-15.2-6.8-15.2-15.2 6.8-15.2 15.2-15.2m0-10.1c-14 0-25.4 11.4-25.4 25.4s11.4 25.4 25.4 25.4 25.4-11.4 25.4-25.4-11.4-25.4-25.4-25.4zm159.7 90c8.4 0 15.2 6.8 15.2 15.2s-6.8 15.2-15.2 15.2S825 624.4 825 616s6.8-15.2 15.2-15.2m0-10.2c-14 0-25.4 11.4-25.4 25.4s11.4 25.4 25.4 25.4 25.4-11.4 25.4-25.4-11.4-25.4-25.4-25.4zm-79.8-69.7c8.4 0 15.2 6.8 15.2 15.2s-6.8 15.2-15.2 15.2-15.2-6.8-15.2-15.2 6.8-15.2 15.2-15.2m0-10.1c-14 0-25.4 11.4-25.4 25.4s11.4 25.4 25.4 25.4 25.4-11.4 25.4-25.4-11.4-25.4-25.4-25.4zm319.4 10.1c8.4 0 15.2 6.8 15.2 15.2s-6.8 15.2-15.2 15.2-15.2-6.8-15.2-15.2 6.8-15.2 15.2-15.2m0-10.1c-14 0-25.4 11.4-25.4 25.4s11.4 25.4 25.4 25.4c14 0 25.4-11.4 25.4-25.4s-11.4-25.4-25.4-25.4zm-399.3-69.7c8.4 0 15.2 6.8 15.2 15.2s-6.8 15.2-15.2 15.2-15.2-6.8-15.2-15.2 6.8-15.2 15.2-15.2m0-10.2c-14 0-25.4 11.4-25.4 25.4s11.4 25.4 25.4 25.4 25.4-11.4 25.4-25.4-11.4-25.4-25.4-25.4zm479.1 10.2c8.4 0 15.2 6.8 15.2 15.2s-6.8 15.2-15.2 15.2-15.2-6.8-15.2-15.2 6.9-15.2 15.2-15.2m0-10.2c-14 0-25.4 11.4-25.4 25.4s11.4 25.4 25.4 25.4c14 0 25.4-11.4 25.4-25.4s-11.4-25.4-25.4-25.4z"/><path class="st4" d="M680.5 141.9c-1.3 0-2.6-.5-3.6-1.5-2-2-2-5.2 0-7.2l79.9-79.9c2-2 5.2-2 7.2 0s2 5.2 0 7.2l-79.9 79.9c-1 1-2.3 1.5-3.6 1.5zm159.7 479.2c-1.3 0-2.6-.5-3.6-1.5L676.9 459.9c-2-2-2-5.2 0-7.2s5.2-2 7.2 0l159.7 159.7c2 2 2 5.2 0 7.2-1 1-2.3 1.5-3.6 1.5zm399.3-479.2c-1.3 0-2.6-.5-3.6-1.5L1156 60.5c-2-2-2-5.2 0-7.2s5.2-2 7.2 0l79.9 79.9c2 2 2 5.2 0 7.2-1 1-2.3 1.5-3.6 1.5zm0 79.9c-1.3 0-2.6-.5-3.6-1.5L1076.2 60.6c-2-2-2-5.2 0-7.2s5.2-2 7.2 0l159.7 159.7c2 2 2 5.2 0 7.2-1 1-2.3 1.5-3.6 1.5zm-79.9 399.3c-1.3 0-2.6-.5-3.6-1.5-2-2-2-5.2 0-7.2l79.9-79.9c2-2 5.2-2 7.2 0s2 5.2 0 7.2l-79.9 79.9c-1 1-2.3 1.5-3.6 1.5zm-239.5 0c-1.3 0-2.6-.5-3.6-1.5-2-2-2-5.2 0-7.2L1235.9 293c2-2 5.2-2 7.2 0s2 5.2 0 7.2L923.7 619.6c-1 1-2.3 1.5-3.6 1.5z"/><path class="st4" d="M999.9 621.1c-1.3 0-2.6-.5-3.6-1.5L676.9 300.2c-2-2-2-5.2 0-7.2s5.2-2 7.2 0l319.4 319.4c2 2 2 5.2 0 7.2-1 1-2.3 1.5-3.6 1.5z"/></svg>