<svg xmlns="http://www.w3.org/2000/svg" viewBox="0 0 1920 673" xml:space="preserve"><style>.st3{fill:#36434f}</style><path fill="#f4f4f4" d="M0 0h1920v673H0z"/><path d="M1879.4 0v673M1771.2 0v673M1663.1 0v673M1554.9 0v673M1446.7 0v673M1338.6 0v673M1230.4 0v673M1122.3 0v673M1014.1 0v673M905.9 0v673M797.7 0v673M689.6 0v673M581.4 0v673M473.3 0v673M365.1 0v673M256.9 0v673M148.8 0v673M40.6 0v673" fill="none" stroke="#ddd" stroke-width="8.575" stroke-miterlimit="10"/><path d="M948.3 66.1H1920M948.3 174.3H1920M948.3 282.4H1920M948.3 390.6H1920M948.3 498.7H1920M948.3 606.9H1920M0 66.1h971.7M0 174.3h971.7M0 282.4h971.7M0 390.6h971.7M0 498.7h971.7M0 606.9h971.7" stroke-width="10.303" fill="none" stroke="#ddd" stroke-miterlimit="10"/><path class="st3" d="M618 359v-44.8h16.2c5.7 0 10.2 1.2 13.2 3.3s4.5 5.1 4.5 9.3c0 2.4-.6 4.2-1.5 6-.9 1.8-2.7 3-4.8 3.6 2.4.6 4.2 1.8 5.4 3.3 1.2 1.5 1.8 3.6 1.8 6.3 0 4.5-1.5 7.8-4.2 9.9-2.7 2.1-6.9 3.3-12.3 3.3H618v-.2zm10.8-26.1h5.7c2.4 0 3.9-.6 5.1-1.2.9-.9 1.5-2.1 1.5-3.6 0-1.8-.6-3.3-1.5-4.2-.9-.9-2.7-1.2-5.4-1.2h-5.4v10.2zm0 6.9v10.8h7.2c1.8 0 3.3-.3 4.5-1.2.9-.9 1.5-2.1 1.5-3.9 0-3.6-1.8-5.7-5.7-5.7h-7.5zm134.3-2.4c0 4.5-.9 8.1-2.4 11.7-1.5 3.6-3.9 6-6.9 7.8s-6.3 2.7-10.2 2.7-7.2-.9-10.2-2.7-5.4-4.2-6.9-7.5c-1.8-3.3-2.4-6.9-2.7-11.1v-2.4c0-4.5.9-8.4 2.4-11.7 1.5-3.3 3.9-6 6.9-7.8s6.3-2.7 10.2-2.7 7.2.9 10.2 2.7 5.4 4.5 6.9 7.8 2.4 7.2 2.4 11.4v1.8h.3zm-10.8-1.8c0-4.5-.6-7.8-2.1-10.2-1.5-2.4-3.6-3.6-6.3-3.6-5.4 0-8.4 4.2-8.7 12.3v3.3c0 4.5.6 7.8 2.1 10.2 1.5 2.4 3.6 3.6 6.6 3.6 2.7 0 4.8-1.2 6.3-3.6 1.5-2.4 2.1-5.7 2.1-9.9v-2.1zm92.5 8.1V359H834v-44.8h18c3.3 0 6.6.6 9 1.8 2.7 1.2 4.8 3 6 5.4 1.5 2.4 2.1 5.1 2.1 7.8 0 4.5-1.5 7.8-4.8 10.5-3 2.7-7.5 3.9-12.9 3.9h-6.6zm0-8.4h7.2c2.1 0 3.6-.6 4.8-1.5 1.2-.9 1.5-2.4 1.5-4.5s-.6-3.9-1.8-5.1c-1.2-1.2-2.7-1.8-4.5-1.8h-7.2v12.9zm134.6 2.1c0 4.5-.9 8.1-2.4 11.7-1.5 3.6-3.9 6-6.9 7.8-3 1.8-6.3 2.7-10.2 2.7-3.9 0-7.2-.9-10.2-2.7s-5.4-4.2-6.9-7.5c-1.8-3.3-2.4-6.9-2.7-11.1v-2.4c0-4.5.9-8.4 2.4-11.7 1.5-3.3 3.9-6 6.9-7.8s6.3-2.7 10.2-2.7c3.9 0 7.2.9 10.2 2.7 3 1.8 5.4 4.5 6.9 7.8s2.4 7.2 2.4 11.4v1.8h.3zm-10.8-1.8c0-4.5-.6-7.8-2.1-10.2-1.5-2.4-3.6-3.6-6.3-3.6-5.4 0-8.4 4.2-8.7 12.3v3.3c0 4.5.6 7.8 2.1 10.2 1.5 2.4 3.6 3.6 6.6 3.6 2.7 0 4.8-1.2 6.3-3.6 1.5-2.4 2.1-5.7 2.1-9.9v-2.1zm118.1-13.2h-13.5V359h-10.8v-36.7h-13.2V314h37.6v8.4zm108.2 36.6h-10.8v-18.6h-15.9V359h-10.8v-44.8h10.8V332h15.9v-17.7h10.8V359zm97.6-45h10.8v44.8h-10.8v-28.2l-16.2 28.2h-10.8V314h10.8v28.2l16.2-28.2zm96.8 27.3h-5.1V359h-10.8v-44.8h10.8v17.4h4.2l8.7-17.4h13.2L1398 335l13.8 24h-12.9l-9.6-17.7zm-444.4 80.8h30v8.4h-19.5v36.7h-10.5m130.7-8.4h-14.7l-2.7 8.4h-11.4l16.5-44.8h10.2l16.5 44.8h-11.7l-2.7-8.4zm-12.3-8.4h9.6l-4.8-15.6-4.8 15.6z"/><path class="st3" d="M1001.4 412.2V296.5H851.8v6h143.6v109.7l-4.5-2.7 7.5 20.7 7.5-20.7-4.5 2.7z"/></svg>