<svg xmlns="http://www.w3.org/2000/svg" viewBox="0 0 1920 673" xml:space="preserve"><path fill="#686d72" d="M0 0h1920v673H0z"/><path d="M586.6 419.2H471.2v-25l53.1-55.9c13.1-14.9 19.6-26.8 19.6-35.5 0-7.1-1.6-12.5-4.7-16.2-3.1-3.7-7.6-5.6-13.5-5.6-5.8 0-10.6 2.5-14.2 7.4-3.6 5-5.5 11.1-5.5 18.6h-38.4c0-10.1 2.5-19.5 7.6-28.1 5.1-8.6 12.1-15.3 21.1-20.2 9-4.8 19.1-7.3 30.2-7.3 17.9 0 31.6 4.1 41.3 12.4 9.7 8.3 14.5 20.1 14.5 35.5 0 6.5-1.2 12.9-3.6 19-2.4 6.2-6.2 12.6-11.3 19.4-5.1 6.8-13.3 15.8-24.7 27.2l-21.3 24.6h65.1v29.7zm54.3-98.7H659c14.3 0 21.5-7 21.5-21 0-5.5-1.7-9.9-5.1-13.3-3.4-3.4-8.2-5.2-14.4-5.2-5.1 0-9.5 1.5-13.2 4.4-3.7 3-5.6 6.6-5.6 11h-38.3c0-8.7 2.4-16.5 7.3-23.3 4.8-6.8 11.6-12.1 20.2-16 8.6-3.8 18-5.7 28.3-5.7 18.4 0 32.9 4.2 43.4 12.6 10.5 8.4 15.8 20 15.8 34.6 0 7.1-2.2 13.8-6.5 20.2-4.4 6.3-10.7 11.5-19 15.4 8.8 3.2 15.7 8 20.7 14.5s7.5 14.5 7.5 24c0 14.8-5.7 26.6-17 35.4-11.4 8.9-26.3 13.3-44.7 13.3-10.8 0-20.9-2.1-30.1-6.2-9.3-4.1-16.3-9.8-21.1-17.1-4.8-7.3-7.2-15.6-7.2-24.9H640c0 5.1 2 9.5 6.1 13.2 4.1 3.7 9.1 5.6 15.1 5.6 6.7 0 12.1-1.9 16.1-5.6 4-3.7 6-8.5 6-14.4 0-8.3-2.1-14.2-6.2-17.7-4.2-3.5-9.9-5.2-17.3-5.2h-18.6v-28.6zm227.2 4.9h38.7v32.8h-38.7v44.4h-35.8v-44.4h-38.8v-32.8h38.8v-43.2h35.8v43.2zm227.9 93.8H980.7v-25l53.1-55.9c13.1-14.9 19.6-26.8 19.6-35.5 0-7.1-1.6-12.5-4.7-16.2-3.1-3.7-7.6-5.6-13.5-5.6-5.8 0-10.6 2.5-14.2 7.4-3.6 5-5.5 11.1-5.5 18.6h-38.4c0-10.1 2.5-19.5 7.6-28.1 5.1-8.6 12.1-15.3 21.1-20.2 9-4.8 19.1-7.3 30.2-7.3 17.9 0 31.6 4.1 41.3 12.4 9.7 8.3 14.5 20.1 14.5 35.5 0 6.5-1.2 12.9-3.6 19-2.4 6.2-6.2 12.6-11.3 19.4-5.1 6.8-13.3 15.8-24.7 27.2l-21.3 24.6h65.1v29.7zm186.9-82h-105.2v-29.5h105.2v29.5zm0 49.9h-105.2v-29.5h105.2v29.5zm169.3 32.1h-38.4V297l-37.7 11v-29l72.6-25.1h3.5v165.3z" fill="#f4f4f4"/></svg>