<svg xmlns="http://www.w3.org/2000/svg" viewBox="0 0 1920 673" xml:space="preserve"><style>.st3{fill:#eec646}.st4{fill:#ffa000}.st5{opacity:.15;fill:#444;enable-background:new}</style><path fill="#36434f" d="M0 0h1920v673H0z"/><path d="M1212.3 229.9c-13.8-32.7-33.5-61.9-58.6-87s-54.4-44.8-87-58.6C1032.8 70 996.9 62.7 960 62.7c-36.9 0-72.8 7.3-106.6 21.5-32.7 13.8-61.9 33.5-87 58.6s-44.8 54.4-58.6 87c-14.2 33.8-21.5 69.7-21.5 106.6 0 36.9 7.3 72.8 21.5 106.6 13.8 32.7 33.5 61.9 58.6 87s54.4 44.8 87 58.6c33.8 14.2 69.7 21.5 106.6 21.5 36.9 0 72.8-7.3 106.6-21.5 32.7-13.8 61.9-33.5 87-58.6s44.8-54.4 58.6-87c14.2-33.8 21.5-69.7 21.5-106.6.1-36.8-7.2-72.7-21.4-106.5zm-485.4 53.3c4.6-3.1 10.9-1.8 13.9 2.8 3.1 4.6 1.8 10.9-2.8 13.9-4.6 3.1-10.9 1.8-13.9-2.8s-1.8-10.8 2.8-13.9zm-6.3 46.2c3.9-3.9 10.3-3.9 14.2 0s3.9 10.3 0 14.2-10.3 3.9-14.2 0c-3.9-3.9-3.9-10.2 0-14.2zm1.5 52.4c0-5.5 4.5-10 10-10s10 4.5 10 10-4.5 10-10 10c-5.5.1-10-4.4-10-10zm31.1 50c-3.5 4.3-9.9 4.9-14.1 1.4-4.3-3.5-4.9-9.9-1.4-14.1s9.9-4.9 14.1-1.4c4.3 3.5 4.9 9.8 1.4 14.1zM745.6 258c-5.5 0-10-4.5-10-10s4.5-10 10-10 10 4.5 10 10-4.4 10-10 10zm31.2 209.5c-1.1 5.4-6.4 9-11.8 7.9s-9-6.4-7.9-11.8c1.1-5.4 6.4-9 11.8-7.9s9 6.4 7.9 11.8zm-3.4-251.7c-4.3 3.5-10.7 2.7-14.1-1.6-3.5-4.3-2.7-10.7 1.6-14.1 4.3-3.5 10.7-2.7 14.1 1.6s2.7 10.6-1.6 14.1zm22.6 295c-5.5 0-10-4.5-10-10s4.5-10 10-10 10 4.5 10 10-4.5 10-10 10zm0-328c-5.5 0-10-4.5-10-10s4.5-10 10-10 10 4.5 10 10-4.5 10-10 10zm34.9-49.5c5.5 0 10 4.5 10 10s-4.5 10-10 10-10-4.5-10-10 4.4-10 10-10zm8.7 401.9c-3 4.6-9.3 5.9-13.9 2.8-4.6-3-5.9-9.3-2.8-13.9 3-4.6 9.3-5.9 13.9-2.8 4.5 3.1 5.8 9.4 2.8 13.9zM1045 113.1c5.1-2.1 11 .3 13.1 5.4 2.1 5.1-.3 11-5.4 13.1-5.1 2.1-11-.3-13.1-5.4-2.2-5.1.2-11 5.4-13.1zm-49.6-5.8c1-5.4 6.3-9 11.8-7.9 5.4 1 9 6.3 7.9 11.8-1 5.4-6.3 9-11.8 7.9-5.4-1.1-9-6.4-7.9-11.8zM960 94.1c5.5 0 10 4.5 10 10s-4.5 10-10 10-10-4.5-10-10 4.5-10 10-10zm-45.3 4.5c5.5 0 10 4.5 10 10s-4.5 10-10 10-10-4.5-10-10 4.4-10 10-10zm-47.4 14c5.1-2.1 11.1.4 13.2 5.5 2.1 5.1-.4 11.1-5.5 13.2-5.1 2-11.1-.4-13.2-5.5-2.1-5.2.4-11.1 5.5-13.2zm7.8 447.8c-5.1 2.1-11-.3-13.1-5.4-2.1-5.1.3-11 5.4-13.1 5.1-2.1 11 .3 13.1 5.4 2.1 5.1-.3 11-5.4 13.1zm49.6 5.8c-1 5.4-6.3 9-11.8 7.9-5.4-1-9-6.3-7.9-11.8 1-5.4 6.3-9 11.8-7.9 5.4 1.1 8.9 6.4 7.9 11.8zm35.3 12.7c-5.5 0-10-4.5-10-10s4.5-10 10-10 10 4.5 10 10-4.5 10-10 10zm45.3-4.5c-5.5 0-10-4.5-10-10s4.5-10 10-10 10 4.5 10 10c.1 5.5-4.4 10-10 10zM959 482.6c-26.4 0-49-7.3-67.8-21.7s-28-34.3-27.3-59.7l.4-1 55.4-2.8c0 12.8 3.6 22.7 10.9 30 7.3 7.2 16.7 10.8 28.5 10.8 13.4 0 23.4-4.8 29.9-14.4 6.4-9.7 9.7-22.1 9.7-37.4 0-16.6-3.4-29.9-10.3-39.9s-17.1-15.1-30.6-15.1c-10.9 0-19.3 2-25.2 6.2-5.9 4.1-10 9.7-12.6 16.6l-51.1-3.4 16.6-160.5h165.8V256h-35.5v.1l-5.1-19.3h-77.6l-8.2 66.4c5.4-4 11.9-7.3 19.3-9.8 7.4-2.5 15.8-3.9 25-4 27.8-.4 49.1 8 64.3 25.1 15.2 17.2 22.7 41.1 22.7 71.6 0 27.8-8.3 50.7-25 69.1-16.8 18.2-40.8 27.4-72.2 27.4zm97.9 74.6c-3.4 4.4-9.7 5.2-14.1 1.9-4.4-3.4-5.2-9.7-1.9-14.1 3.4-4.4 9.7-5.2 14.1-1.9 4.4 3.4 5.3 9.7 1.9 14.1zm136.5-274.4c4.6 3.1 5.9 9.3 2.8 13.9-3.1 4.6-9.3 5.9-13.9 2.8s-5.9-9.3-2.8-13.9c3.1-4.6 9.3-5.9 13.9-2.8zm-26.6-41.6c3.5-4.3 9.9-4.9 14.1-1.4 4.3 3.5 4.9 9.9 1.4 14.1-3.5 4.3-9.9 4.9-14.1 1.4-4.3-3.5-4.9-9.8-1.4-14.1zM1080.2 139c2.7-4.9 8.8-6.6 13.7-3.9 4.9 2.7 6.6 8.8 3.9 13.7-2.7 4.9-8.8 6.6-13.7 3.9-4.8-2.8-6.6-8.9-3.9-13.7zm8.9 400.7c-5.5 0-10-4.5-10-10s4.5-10 10-10 10 4.5 10 10-4.4 10-10 10zm40.2-30.3c-4.7 2.9-10.9 1.5-13.8-3.3-2.9-4.7-1.5-10.9 3.3-13.8 4.7-2.9 10.9-1.5 13.8 3.3 2.9 4.7 1.4 10.9-3.3 13.8zm-5.3-326.6c-5.5 0-10-4.5-10-10s4.5-10 10-10 10 4.5 10 10c.1 5.5-4.4 10-10 10zm32.1 292.3c-5.3 1.7-10.9-1.2-12.7-6.4s1.2-10.9 6.4-12.7c5.3-1.7 10.9 1.2 12.7 6.4 1.8 5.3-1.1 11-6.4 12.7zm6.8-265.7c-1.1 5.4-6.4 9-11.8 7.9s-9-6.4-7.9-11.8c1.1-5.4 6.4-9 11.8-7.9s9 6.3 7.9 11.8zm14.1 225.8c-5.4 1.5-10.9-1.7-12.3-7-1.5-5.4 1.7-10.9 7-12.3 5.4-1.5 10.9 1.7 12.3 7 1.5 5.3-1.6 10.9-7 12.3zm16.2-44.9c-4.6 3.1-10.9 1.8-13.9-2.8-3.1-4.6-1.8-10.9 2.8-13.9s10.9-1.8 13.9 2.8 1.8 10.9-2.8 13.9zm6.2-46.7c-3.9 3.9-10.3 3.9-14.2 0s-3.9-10.3 0-14.2 10.3-3.9 14.2 0 3.9 10.2 0 14.2zM960 15c-177.6 0-321.5 143.9-321.5 321.5S782.4 658 960 658s321.5-143.9 321.5-321.5S1137.6 15 960 15zm0 615.4c-162.3 0-293.9-131.6-293.9-293.9S797.7 42.6 960 42.6s293.9 131.6 293.9 293.9S1122.3 630.4 960 630.4z" opacity=".05" fill="#eec646"/><path d="M837.6 174.2h-4.2v34.1l-64.7 179.8 4 1.3 61.1-170v167.7h3.3V219.5l61.1 170 4-1.3-64.7-179.8v-34.2zm313.7 213.9-64.7-179.8v-34.1h-4.2v34.1l-64.7 179.8 4 1.3 61.1-170v167.7h3.3V219.5l61.1 170 4.1-1.4z" fill="#a18267"/><path class="st3" d="M957.1 147.2h5.8v12.5h-5.8v-12.5z"/><path class="st3" d="M970 513.3h-20v-352c0-3.7 3-6.6 6.6-6.6h6.6c3.7 0 6.6 3 6.6 6.6v352z"/><circle class="st3" cx="960" cy="139.4" r="15.4"/><path class="st3" d="M991.3 491.7h-7.9l-5.2-11.6h-36.5l-5.2 11.6h-7.9c-7.8 22-24.6 39.8-45.9 48.9v8.4H1037v-8.4c-21.1-9.1-37.9-26.9-45.7-48.9zM960 151.4l-32 18.3 32 18.3 32-18.3-32-18.3z"/><path class="st3" d="M907.7 165.1h29.9v9.1h-29.9v-9.1zm-43.2 1.2h25.7v6.6h-25.7v-6.6zm-29 0c1.8 0 3.3 1.5 3.3 3.3s-1.5 3.3-3.3 3.3-3.3-1.5-3.3-3.3 1.5-3.3 3.3-3.3m0-3.3c-3.7 0-6.6 3-6.6 6.6s3 6.6 6.6 6.6 6.6-3 6.6-6.6-3-6.6-6.6-6.6z"/><path class="st3" d="M858.3 165.1c2.5 0 4.6 2.1 4.6 4.6s-2.1 4.6-4.6 4.6-4.6-2.1-4.6-4.6 2.1-4.6 4.6-4.6m0-3.3c-4.3 0-7.9 3.6-7.9 7.9s3.6 7.9 7.9 7.9 7.9-3.6 7.9-7.9-3.6-7.9-7.9-7.9z"/><path class="st3" d="M841.3 167.6h10v4.2h-10v-4.2z"/><path class="st4" d="M900.6 390.5c2.3 0 4.2 1.8 4.2 4.2s-1.8 4.2-4.2 4.2-4.2-1.8-4.2-4.2 1.9-4.2 4.2-4.2m0-3.4c-4.2 0-7.5 3.3-7.5 7.5s3.3 7.5 7.5 7.5 7.5-3.3 7.5-7.5-3.3-7.5-7.5-7.5zm-130.3 3.4c2.3 0 4.2 1.8 4.2 4.2s-1.8 4.2-4.2 4.2-4.2-1.8-4.2-4.2 1.9-4.2 4.2-4.2m0-3.4c-4.2 0-7.5 3.3-7.5 7.5s3.3 7.5 7.5 7.5 7.5-3.3 7.5-7.5-3.3-7.5-7.5-7.5zm65.2 3.4c2.3 0 4.2 1.8 4.2 4.2s-1.8 4.2-4.2 4.2-4.2-1.8-4.2-4.2 1.9-4.2 4.2-4.2m0-3.4c-4.2 0-7.5 3.3-7.5 7.5s3.3 7.5 7.5 7.5 7.5-3.3 7.5-7.5-3.4-7.5-7.5-7.5z"/><path class="st3" d="M898.6 162.6c3.9 0 7.1 3.2 7.1 7.1s-3.2 7.1-7.1 7.1-7.1-3.2-7.1-7.1 3.2-7.1 7.1-7.1m0-3.3c-5.7 0-10.4 4.6-10.4 10.4s4.6 10.4 10.4 10.4 10.4-4.6 10.4-10.4-4.7-10.4-10.4-10.4z"/><path class="st4" d="M835.5 402.1h67.2l-1.9 6.6c-3.3 11.4-13.7 19.2-25.5 19.2h-79.7c-11.8 0-22.2-7.8-25.5-19.2l-1.9-6.6h67.3zm249 0h-67.2l1.9 6.6c3.3 11.4 13.7 19.2 25.5 19.2h79.7c11.8 0 22.2-7.8 25.5-19.2l1.9-6.6h-67.3z"/><path class="st3" d="M1012.3 174.2h-29.9v-9.1h29.9v9.1zm43.2-1.2h-25.7v-6.6h25.7v6.6zm29-6.7c1.8 0 3.3 1.5 3.3 3.3s-1.5 3.3-3.3 3.3-3.3-1.5-3.3-3.3 1.5-3.3 3.3-3.3m0-3.3c-3.7 0-6.6 3-6.6 6.6s3 6.6 6.6 6.6 6.6-3 6.6-6.6-2.9-6.6-6.6-6.6z"/><path class="st3" d="M1061.7 165.1c2.5 0 4.6 2.1 4.6 4.6s-2.1 4.6-4.6 4.6-4.6-2.1-4.6-4.6 2.1-4.6 4.6-4.6m0-3.3c-4.3 0-7.9 3.6-7.9 7.9s3.6 7.9 7.9 7.9 7.9-3.6 7.9-7.9-3.6-7.9-7.9-7.9z"/><path class="st3" d="M1078.7 171.7h-10v-4.2h10v4.2z"/><path class="st4" d="M1019.4 390.5c2.3 0 4.2 1.8 4.2 4.2s-1.8 4.2-4.2 4.2-4.2-1.8-4.2-4.2 1.8-4.2 4.2-4.2m0-3.4c-4.2 0-7.5 3.3-7.5 7.5s3.3 7.5 7.5 7.5 7.5-3.3 7.5-7.5-3.4-7.5-7.5-7.5zm130.3 3.4c2.3 0 4.2 1.8 4.2 4.2s-1.8 4.2-4.2 4.2-4.2-1.8-4.2-4.2 1.8-4.2 4.2-4.2m0-3.4c-4.2 0-7.5 3.3-7.5 7.5s3.3 7.5 7.5 7.5 7.5-3.3 7.5-7.5-3.4-7.5-7.5-7.5zm-65.2 3.4c2.3 0 4.2 1.8 4.2 4.2s-1.8 4.2-4.2 4.2-4.2-1.8-4.2-4.2 1.9-4.2 4.2-4.2m0-3.4c-4.2 0-7.5 3.3-7.5 7.5s3.3 7.5 7.5 7.5 7.5-3.3 7.5-7.5-3.3-7.5-7.5-7.5z"/><path class="st3" d="M1021.4 162.6c3.9 0 7.1 3.2 7.1 7.1s-3.2 7.1-7.1 7.1-7.1-3.2-7.1-7.1 3.2-7.1 7.1-7.1m0-3.3c-5.7 0-10.4 4.6-10.4 10.4s4.6 10.4 10.4 10.4 10.4-4.6 10.4-10.4-4.6-10.4-10.4-10.4z"/><path class="st5" d="M882.8 540.6h154.4v8.4H882.8v-8.4z"/><path class="st5" d="M991.3 491.7h-62.7c-7.8 22-24.6 39.8-45.9 48.9v8.4h154.4v-8.4c-21.2-9.1-38-26.9-45.8-48.9zM894 420.1H777c4.9 4.8 11.5 7.7 18.8 7.7h79.7c7 0 13.7-2.9 18.5-7.7zm132 0c4.9 4.8 11.5 7.7 18.8 7.7h79.7c7.2 0 13.9-2.9 18.8-7.7H1026z"/><path class="st5" d="M944.6 139.4c0 6.9 4.6 12.7 10.8 14.7l-19.3 11H908c-1.7-3.4-5.2-5.8-9.3-5.8-4.6 0-8.5 3-9.8 7.1h-23.3c-1.2-2.7-4-4.6-7.1-4.6-3.7 0-6.7 2.5-7.6 5.8H842c-.9-2.7-3.4-4.6-6.3-4.6-3.7 0-6.6 3-6.6 6.6 0 2.9 1.9 5.4 4.6 6.3v32.4l-64.4 178.9c-3.6.6-6.2 3.7-6.2 7.4 0 4.2 3.3 7.5 7.5 7.5s7.5-3.3 7.5-7.5c0-3.1-1.8-5.7-4.5-6.8l60.5-168.3v167.7h3.3V219.5l60.5 168.3c-2.7 1.2-4.5 3.8-4.5 6.8 0 4.2 3.3 7.5 7.5 7.5s7.5-3.3 7.5-7.5c0-3.7-2.7-6.8-6.2-7.4l-64.3-179v-32.4c2-.7 3.6-2.2 4.2-4.2h8.9c.9 3.3 4 5.8 7.6 5.8 3.2 0 5.9-1.9 7.1-4.6H889c1.4 4.1 5.2 7.1 9.8 7.1 4.1 0 7.6-2.4 9.3-5.8H936l14 8v298h-8.3l-5.2 11.6h-7.9c-7.8 22-24.6 39.8-45.9 48.9v8.4h77.2V124c-8.4 0-15.3 6.9-15.3 15.4zM774.5 394.6c0 2.3-1.8 4.2-4.2 4.2s-4.2-1.8-4.2-4.2 1.8-4.2 4.2-4.2 4.2 1.9 4.2 4.2zm126.1-4.1c2.3 0 4.2 1.8 4.2 4.2s-1.8 4.2-4.2 4.2-4.2-1.8-4.2-4.2 1.9-4.2 4.2-4.2zM835.5 173c-1.8 0-3.3-1.5-3.3-3.3s1.5-3.3 3.3-3.3 3.3 1.5 3.3 3.3-1.5 3.3-3.3 3.3zm22.8 1.2c-2.5 0-4.6-2.1-4.6-4.6s2.1-4.6 4.6-4.6 4.6 2.1 4.6 4.6-2.1 4.6-4.6 4.6zm40.3 2.5c-3.9 0-7.1-3.2-7.1-7.1s3.2-7.1 7.1-7.1 7.1 3.2 7.1 7.1-3.2 7.1-7.1 7.1zM828 394.6c0 4.2 3.3 7.5 7.5 7.5s7.5-3.3 7.5-7.5-3.3-7.5-7.5-7.5-7.5 3.4-7.5 7.5zm7.5-4.1c2.3 0 4.2 1.8 4.2 4.2s-1.8 4.2-4.2 4.2-4.2-1.8-4.2-4.2 1.9-4.2 4.2-4.2zm0 11.6h67.2l-1.9 6.6c-1.2 4.4-3.7 8.3-6.8 11.4-.6.6-1.2 1.1-1.7 1.6-.2.1-.2.2-.4.3-.5.4-.9.7-1.4 1.1-.2.1-.3.2-.5.3-.2.2-.6.3-.8.6-.2.2-.6.3-.8.5-.3.2-.7.4-1.1.6s-.6.3-.9.4c-.2.1-.4.2-.7.3l-1.5.6c-.2.1-.4.2-.6.2-.5.2-1.1.3-1.7.5-.1 0-.2.1-.3.1-.5.2-1.1.2-1.6.3-.2 0-.2.1-.4.1-.6.1-1.2.2-1.8.2h-.4c-.7.1-1.3.1-2 .1h-79.7c-.7 0-1.3 0-2-.1h-.4c-.6-.1-1.2-.2-1.8-.2-.2 0-.2-.1-.4-.1-.5-.1-1.1-.2-1.6-.3-.1 0-.2-.1-.3-.1-.6-.2-1.1-.3-1.7-.5-.2-.1-.4-.2-.6-.2-.5-.2-1-.3-1.5-.6-.2-.1-.5-.2-.7-.3-.3-.2-.6-.2-.9-.4s-.7-.4-1.1-.6c-.2-.2-.6-.3-.8-.5-.2-.2-.6-.3-.8-.6-.2-.1-.3-.2-.5-.3-.5-.3-1-.7-1.4-1.1-.2-.1-.2-.2-.4-.3-.6-.5-1.2-1-1.7-1.6-3.2-3.1-5.5-7-6.8-11.4l-1.9-6.6h67.1z"/></svg>