<svg xmlns="http://www.w3.org/2000/svg" viewBox="0 0 1920 673" xml:space="preserve"><path fill="#307cb5" d="M0 0h1920v673H0z"/><path d="M408.9 251.5V187h23.2c8.3 0 14.6 1.5 19 4.6 4.3 3 6.5 7.5 6.5 13.3 0 3.3-.8 6.2-2.3 8.6-1.5 2.4-3.8 4.1-6.8 5.2 3.4.9 6 2.5 7.8 5 1.8 2.4 2.7 5.4 2.7 8.9 0 6.3-2 11.1-6 14.3-4 3.2-9.9 4.8-17.8 4.9h-26.3zm15.5-37.6h8.1c3.4 0 5.8-.7 7.3-1.9 1.4-1.2 2.2-3 2.2-5.4 0-2.7-.8-4.7-2.4-5.9-1.6-1.2-4.1-1.8-7.6-1.8h-7.6v15zm0 10.2v15.5h10.2c2.8 0 5-.6 6.5-1.9 1.5-1.3 2.3-3.1 2.3-5.4 0-5.4-2.7-8.1-8-8.1h-11zm97.7-3.5c0 6.3-1.2 11.9-3.5 16.7-2.3 4.8-5.7 8.6-10 11.2-4.3 2.6-9.2 3.9-14.7 3.9s-10.4-1.3-14.6-3.8c-4.3-2.5-7.6-6.1-10-10.8-2.4-4.7-3.6-10.1-3.7-16.2V218c0-6.3 1.2-11.9 3.5-16.7 2.3-4.8 5.6-8.6 10-11.2 4.3-2.6 9.3-3.9 14.8-3.9s10.3 1.3 14.6 3.9c4.3 2.6 7.6 6.3 10 11.1 2.4 4.8 3.6 10.3 3.6 16.5v2.9zm-15.8-2.7c0-6.4-1.1-11.3-3.2-14.6-2.1-3.3-5.2-5-9.2-5-7.8 0-11.9 5.9-12.4 17.6v4.7c0 6.3 1 11.2 3.1 14.6 2.1 3.4 5.2 5.1 9.4 5.1 3.9 0 7-1.7 9.1-5 2.1-3.3 3.2-8.1 3.2-14.4v-3zm82.8 49.5h-14v-15.9H540v15.8h-14.4l-1.1-27.8h4.6c2.4-1.6 4.3-4.3 5.8-8.2 1.5-3.9 2.5-9.5 3.1-16.7l2-27.6h44v52.6h6.9l-1.8 27.8zm-42.5-27.8h21.7V199h-13.8l-1.2 16.1c-.8 10.5-3 18.6-6.7 24.5zm86.9-.1h-21.3l-3.7 12.1h-16.6l23.7-64.6h14.6l23.9 64.6h-16.7l-3.9-12.1zm-17.6-12.1h13.9l-7-22.4-6.9 22.4zm-207 133.1V296h23.2c8.3 0 14.6 1.5 19 4.6 4.3 3 6.5 7.5 6.5 13.3 0 3.3-.8 6.2-2.3 8.6-1.5 2.4-3.8 4.1-6.8 5.2 3.4.9 6 2.5 7.8 5 1.8 2.4 2.7 5.4 2.7 8.9 0 6.3-2 11.1-6 14.3-4 3.2-9.9 4.8-17.8 4.9h-26.3zm15.5-37.6h8.1c3.4 0 5.8-.7 7.3-1.9 1.4-1.2 2.2-3 2.2-5.4 0-2.7-.8-4.7-2.4-5.9-1.6-1.2-4.1-1.8-7.6-1.8h-7.6v15zm0 10.2v15.5h10.2c2.8 0 5-.6 6.5-1.9 1.5-1.3 2.3-3.1 2.3-5.4 0-5.4-2.7-8.1-8-8.1h-11zm97.7-3.5c0 6.3-1.2 11.9-3.5 16.7-2.3 4.8-5.7 8.6-10 11.2-4.3 2.6-9.2 3.9-14.7 3.9s-10.4-1.3-14.6-3.8c-4.3-2.5-7.6-6.1-10-10.8-2.4-4.7-3.6-10.1-3.7-16.2V327c0-6.3 1.2-11.9 3.5-16.7 2.3-4.8 5.6-8.6 10-11.2 4.3-2.6 9.3-3.9 14.8-3.9s10.3 1.3 14.6 3.9c4.3 2.6 7.6 6.3 10 11.1 2.4 4.8 3.6 10.3 3.6 16.5v2.9zm-15.8-2.7c0-6.4-1.1-11.3-3.2-14.6-2.1-3.3-5.2-5-9.2-5-7.8 0-11.9 5.9-12.4 17.6v4.7c0 6.3 1 11.2 3.1 14.6 2.1 3.4 5.2 5.1 9.4 5.1 3.9 0 7-1.7 9.1-5 2.1-3.3 3.2-8.1 3.2-14.4v-3zm82.8 49.5h-14v-15.9H540v15.8h-14.4l-1.1-27.8h4.6c2.4-1.6 4.3-4.3 5.8-8.2 1.5-3.9 2.5-9.5 3.1-16.7l2-27.6h44v52.6h6.9l-1.8 27.8zm-42.5-27.8h21.7V308h-13.8l-1.2 16.1c-.8 10.5-3 18.6-6.7 24.5zm86.9-.1h-21.3l-3.7 12.1h-16.6l23.7-64.6h14.6l23.9 64.6h-16.7l-3.9-12.1zm-17.6-12h13.9l-7-22.4-6.9 22.4zm47.4 41.4-7.5-3.5 1.5-3c2.1-3.8 3.1-7.5 3.2-11v-11.1h12v9.6c0 3.4-.9 6.9-2.6 10.4-1.8 3.5-4 6.4-6.6 8.6zm96.8-17.4h-15.6V308h-23.2v52.6h-15.6V296H760v64.5zm46.3-12h-21.3l-3.7 12.1h-16.6l23.7-64.6H803l23.9 64.6h-16.7l-3.8-12.1zm-17.6-12h13.9l-7-22.4-6.9 22.4zm94.1 2.2c-.2 4.5-1.4 8.5-3.6 11.9-2.2 3.4-5.3 6.1-9.3 8-4 1.9-8.6 2.8-13.7 2.8-8.5 0-15.2-2.8-20-8.3-4.9-5.5-7.3-13.3-7.3-23.4v-3.2c0-6.3 1.1-11.9 3.3-16.6 2.2-4.7 5.4-8.4 9.5-11 4.1-2.6 8.9-3.9 14.4-3.9 7.8 0 14.1 2.1 18.9 6.2 4.8 4.1 7.5 9.8 8.1 17.1h-15.5c-.1-3.9-1.1-6.8-3-8.5-1.9-1.7-4.7-2.6-8.5-2.6-3.9 0-6.7 1.4-8.5 4.3-1.8 2.9-2.8 7.5-2.8 13.9v4.6c0 6.9.9 11.8 2.6 14.8 1.7 3 4.7 4.4 8.9 4.4 3.6 0 6.3-.8 8.2-2.5 1.9-1.7 2.9-4.4 3-8h15.3zm59.6 0c-.2 4.5-1.4 8.5-3.6 11.9-2.2 3.4-5.3 6.1-9.3 8-4 1.9-8.6 2.8-13.7 2.8-8.5 0-15.2-2.8-20-8.3-4.9-5.5-7.3-13.3-7.3-23.4v-3.2c0-6.3 1.1-11.9 3.3-16.6 2.2-4.7 5.4-8.4 9.5-11 4.1-2.6 8.9-3.9 14.4-3.9 7.8 0 14.1 2.1 18.9 6.2 4.8 4.1 7.5 9.8 8.1 17.1h-15.5c-.1-3.9-1.1-6.8-3-8.5-1.9-1.7-4.7-2.6-8.5-2.6-3.9 0-6.7 1.4-8.5 4.3-1.8 2.9-2.8 7.5-2.8 13.9v4.6c0 6.9.9 11.8 2.6 14.8 1.7 3 4.7 4.4 8.9 4.4 3.6 0 6.3-.8 8.2-2.5 1.9-1.7 2.9-4.4 3-8h15.3zm44.1 9.8h-21.3l-3.7 12.1H945l23.7-64.6h14.6l23.9 64.6h-16.7l-3.9-12.1zm-17.6-12h13.9l-7-22.4-6.9 22.4zm88.2-28.5h-19.4v52.6h-15.6V308h-19v-12h54v12zm44.4-12h15.6v64.6h-15.6v-40.7l-23.2 40.7h-15.6V296h15.6v40.8l23.2-40.8zm84.6 39.3h-7.9v25.2h-15.5v-25.2h-8l-12.4 25.2H1123l19.5-35.3-18.9-29.3h19.6l13.2 25.3h6.3V296h15.5v25.3h6.3l12.6-25.3h19.6l-18.4 29.2 19.1 35.4H1198l-11.8-25.3zM1260 296h15.6v64.6H1260v-40.7l-23.2 40.7h-15.6V296h15.6v40.8L1260 296zM408.9 469.5V405h23.2c8.3 0 14.6 1.5 19 4.6 4.3 3 6.5 7.5 6.5 13.3 0 3.3-.8 6.2-2.3 8.6-1.5 2.4-3.8 4.1-6.8 5.2 3.4.9 6 2.5 7.8 5 1.8 2.4 2.7 5.4 2.7 8.9 0 6.3-2 11.1-6 14.3s-9.9 4.8-17.8 4.9h-26.3zm15.5-37.6h8.1c3.4 0 5.8-.7 7.3-1.9 1.4-1.2 2.2-3 2.2-5.4 0-2.7-.8-4.7-2.4-5.9-1.6-1.2-4.1-1.8-7.6-1.8h-7.6v15zm0 10.2v15.5h10.2c2.8 0 5-.6 6.5-1.9 1.5-1.3 2.3-3.1 2.3-5.4 0-5.4-2.7-8.1-8-8.1h-11zm97.7-3.5c0 6.3-1.2 11.9-3.5 16.7-2.3 4.9-5.7 8.6-10 11.2-4.3 2.6-9.2 3.9-14.7 3.9s-10.4-1.3-14.6-3.8c-4.3-2.5-7.6-6.1-10-10.8-2.4-4.7-3.6-10.1-3.7-16.2V436c0-6.3 1.2-11.9 3.5-16.7 2.3-4.8 5.6-8.6 10-11.2 4.3-2.6 9.3-3.9 14.8-3.9s10.3 1.3 14.6 3.9c4.3 2.6 7.6 6.3 10 11.1 2.4 4.8 3.6 10.3 3.6 16.5v2.9zm-15.8-2.7c0-6.4-1.1-11.3-3.2-14.6-2.1-3.3-5.2-5-9.2-5-7.8 0-11.9 5.9-12.4 17.6v4.7c0 6.3 1 11.2 3.1 14.6 2.1 3.4 5.2 5.1 9.4 5.1 3.9 0 7-1.7 9.1-5 2.1-3.3 3.2-8.1 3.2-14.4v-3zm82.8 49.5h-14v-15.9H540v15.8h-14.4l-1.1-27.8h4.6c2.4-1.6 4.3-4.3 5.8-8.2 1.5-3.9 2.5-9.5 3.1-16.7l2-27.6h44v52.6h6.9l-1.8 27.8zm-42.5-27.8h21.7V417h-13.8l-1.2 16.1c-.8 10.5-3 18.6-6.7 24.5zm86.9-.1h-21.3l-3.7 12.1h-16.6l23.7-64.6h14.6l23.9 64.6h-16.7l-3.9-12.1zm-17.6-12h13.9l-7-22.4-6.9 22.4zm47.4 41.4-7.5-3.5 1.5-3c2.1-3.8 3.1-7.5 3.2-11v-11.1h12v9.6c0 3.4-.9 6.9-2.6 10.4-1.8 3.5-4 6.4-6.6 8.6zm96.8-17.4h-15.6V417h-23.2v52.6h-15.6V405H760v64.5zm46.3-12h-21.3l-3.7 12.1h-16.6l23.7-64.6H803l23.9 64.6h-16.7l-3.8-12.1zm-17.6-12h13.9l-7-22.4-6.9 22.4zm94.1 2.2c-.2 4.5-1.4 8.5-3.6 11.9-2.2 3.4-5.3 6.1-9.3 8-4 1.9-8.6 2.8-13.7 2.8-8.5 0-15.2-2.8-20-8.3-4.9-5.5-7.3-13.3-7.3-23.4v-3.2c0-6.3 1.1-11.9 3.3-16.6 2.2-4.7 5.4-8.4 9.5-11 4.1-2.6 8.9-3.9 14.4-3.9 7.8 0 14.1 2.1 18.9 6.2 4.8 4.1 7.5 9.8 8.1 17.1h-15.5c-.1-3.9-1.1-6.8-3-8.5-1.9-1.7-4.7-2.6-8.5-2.6-3.9 0-6.7 1.4-8.5 4.3-1.8 2.9-2.8 7.5-2.8 13.9v4.6c0 6.9.9 11.8 2.6 14.8 1.7 3 4.7 4.4 8.9 4.4 3.6 0 6.3-.8 8.2-2.5 1.9-1.7 2.9-4.4 3-8h15.3zm59.6 0c-.2 4.5-1.4 8.5-3.6 11.9-2.2 3.4-5.3 6.1-9.3 8-4 1.9-8.6 2.8-13.7 2.8-8.5 0-15.2-2.8-20-8.3-4.9-5.5-7.3-13.3-7.3-23.4v-3.2c0-6.3 1.1-11.9 3.3-16.6 2.2-4.7 5.4-8.4 9.5-11 4.1-2.6 8.9-3.9 14.4-3.9 7.8 0 14.1 2.1 18.9 6.2 4.8 4.1 7.5 9.8 8.1 17.1h-15.5c-.1-3.9-1.1-6.8-3-8.5-1.9-1.7-4.7-2.6-8.5-2.6-3.9 0-6.7 1.4-8.5 4.3-1.8 2.9-2.8 7.5-2.8 13.9v4.6c0 6.9.9 11.8 2.6 14.8 1.7 3 4.7 4.4 8.9 4.4 3.6 0 6.3-.8 8.2-2.5 1.9-1.7 2.9-4.4 3-8h15.3zm44.1 9.8h-21.3l-3.7 12.1H945l23.7-64.6h14.6l23.9 64.6h-16.7l-3.9-12.1zm-17.6-12h13.9l-7-22.4-6.9 22.4zm88.2-28.5h-19.4v52.6h-15.6V417h-19v-12h54v12zm44.4-12h15.6v64.6h-15.6v-40.7l-23.2 40.7h-15.6V405h15.6v40.8l23.2-40.8zm84.6 39.3h-7.9v25.2h-15.5v-25.2h-8l-12.4 25.2H1123l19.5-35.3-18.9-29.3h19.6l13.2 25.3h6.3V405h15.5v25.3h6.3l12.6-25.3h19.6l-18.4 29.2 19.1 35.4H1198l-11.8-25.3zM1260 405h15.6v64.6H1260v-40.7l-23.2 40.7h-15.6V405h15.6v40.8L1260 405zm29.7 81.9-7.5-3.5 1.5-3c2.1-3.8 3.1-7.5 3.2-11v-11.1h12v9.6c0 3.4-.9 6.9-2.6 10.4-1.8 3.5-4 6.4-6.6 8.6zm96.5-17.4h-15.5v-27h-22.9v27h-15.6V405h15.6v25.6h22.9V405h15.5v64.5zm64.5-30.9c0 6.3-1.2 11.9-3.5 16.7-2.3 4.9-5.7 8.6-10 11.2-4.3 2.6-9.2 3.9-14.7 3.9s-10.4-1.3-14.6-3.8c-4.3-2.5-7.6-6.1-10-10.8-2.4-4.7-3.6-10.1-3.7-16.2V436c0-6.3 1.2-11.9 3.5-16.7 2.3-4.8 5.6-8.6 10-11.2 4.3-2.6 9.3-3.9 14.8-3.9s10.3 1.3 14.6 3.9c4.3 2.6 7.6 6.3 10 11.1 2.4 4.8 3.6 10.3 3.6 16.5v2.9zm-15.8-2.7c0-6.4-1.1-11.3-3.2-14.6-2.1-3.3-5.2-5-9.2-5-7.8 0-11.9 5.9-12.4 17.6v4.7c0 6.3 1 11.2 3.1 14.6 2.1 3.4 5.2 5.1 9.4 5.1 3.9 0 7-1.7 9.1-5 2.1-3.3 3.2-8.1 3.2-14.4v-3zm76.1 11.8c-.2 4.5-1.4 8.5-3.6 11.9-2.2 3.4-5.3 6.1-9.3 8s-8.6 2.8-13.7 2.8c-8.5 0-15.2-2.8-20-8.3s-7.3-13.3-7.3-23.4v-3.2c0-6.3 1.1-11.9 3.3-16.6 2.2-4.7 5.4-8.4 9.5-11 4.1-2.6 8.9-3.9 14.4-3.9 7.8 0 14.1 2.1 18.9 6.2 4.8 4.1 7.5 9.8 8.1 17.1h-15.5c-.1-3.9-1.1-6.8-3-8.5-1.9-1.7-4.7-2.6-8.5-2.6-3.9 0-6.7 1.4-8.5 4.3-1.8 2.9-2.8 7.5-2.8 13.9v4.6c0 6.9.9 11.8 2.6 14.8 1.7 3 4.7 4.4 8.9 4.4 3.6 0 6.3-.8 8.2-2.5 1.9-1.7 2.9-4.4 3-8h15.3z" fill="#fff"/></svg>