<svg version="1.1" xmlns="http://www.w3.org/2000/svg" x="0" y="0" viewBox="0 0 512 100" xml:space="preserve"><style type="text/css">.st0{fill:#f4f4f4}.st1{fill:#36434f}</style><path class="st0" d="M345 1h98v98h-98z"/><path class="st1" d="M436 8v84h-84V8h84m8-8H344v100h100V0z"/><path class="st1" d="M360.6 1h2v98h-2zm32 0h2v98h-2zM382 1h2v98h-2zm-10.7 0h2v98h-2zm32 0h2v98h-2zm10.6 0h2v98h-2zm10.6 0h2v98h-2z"/><path class="st0" d="M1 1h98v98H1z"/><path class="st1" d="M62.8 1h-2.9L1 59.9v2.9zM47.7 1h-2.8L1 44.9v2.8zm30.1 0H75L1 75v2.8zM32.6 1h-2.8L1 29.8v2.8zm-15 0h-2.9L1 14.7v2.9zm75.3 0h-2.8L1 90.1v2.8zM1 2.5L2.5 1H1zm98 82.8v-2.9L82.4 99h2.9zm0 12.2L97.5 99H99zm0-27.3v-2.8L67.4 99h2.8zm0-60.3V7.1L7.1 99h2.8zm0 45.2v-2.8L52.3 99h2.8zM99 25v-2.8L22.2 99H25zm0 15.1v-2.9L37.2 99h2.9z"/><path class="st1" d="M92 8v84H8V8h84m8-8H0v100h100V0z"/><path class="st0" d="M120 8h84v84h-84z"/><path class="st1" d="M156.2 92h2.9L204 47.1v-2.9zm-15 0h2.8l60-60v-2.8zm-15.1 0h2.8L204 16.9v-2.8zm77.9-2.6l-2.6 2.6h2.6zM171.3 92h2.8L204 62.1v-2.8zm15.1 0h2.8L204 77.2v-2.8zM152.7 8h-2.8L120 37.9v2.8zm45.2 0h-2.8L120 83.1v2.8zm-15.1 0H180l-60 60v2.8zm-15 0h-2.9L120 52.9v2.9zM120 10.6l2.6-2.6H120zM137.6 8h-2.8L120 22.8v2.8z"/><circle class="st0" cx="274" cy="50" r="49"/><path class="st1" d="M285.4 2.3c-.8-.2-1.5-.3-2.3-.5L225.9 59c.1.8.3 1.6.5 2.3l59-59zm11 4.1c-.6-.3-1.3-.6-1.9-.9l-65 65c.3.6.6 1.3.9 1.9l66-66zm-45.6.4c-3.5 1.9-6.7 4.1-9.6 6.7l-3.7 3.7c-2.6 2.9-4.9 6.1-6.7 9.6l20-20zm54.7 5.6c-.5-.4-1-.8-1.6-1.3l-68.7 68.7c.4.5.8 1.1 1.3 1.6l69-69zM271.6 1.1c-1 0-2.1.1-3.1.2l-43.3 43.3c-.1 1-.2 2-.2 3.1l46.6-46.6zm51.1 54.3c.1-1 .2-2 .2-3.1l-46.6 46.6c1 0 2.1-.1 3.1-.2l43.3-43.3zm-12.3 27.3c2.6-2.9 4.9-6.1 6.7-9.6l-20 20c3.5-1.9 6.7-4.1 9.6-6.7l3.7-3.7zm2.4-62.6c-.4-.5-.8-1.1-1.3-1.6l-69 69c.5.4 1 .8 1.6 1.3l68.7-68.7zm9.3 20.8c-.1-.8-.3-1.6-.5-2.3l-59.1 59.1c.8.2 1.5.3 2.3.5l57.3-57.3zm-3.6-11.4c-.3-.6-.6-1.3-.9-1.9l-66 66c.6.3 1.3.6 1.9.9l65-65z"/><path class="st1" d="M274 8c23.2 0 42 18.8 42 42s-18.8 42-42 42-42-18.8-42-42 18.8-42 42-42m0-8c-27.6 0-50 22.4-50 50s22.4 50 50 50 50-22.4 50-50-22.4-50-50-50z"/><path class="st0" d="M465 27h46v46h-46z"/><path class="st1" d="M504.9 27h-2.8L465 64.1v2.8zm-15.1 0H487l-22 22v2.8zm-15 0h-2.9l-6.9 6.9v2.9zM511 66.1v-2.9l-9.8 9.8h2.9zm0-30.2v-2.8L471.1 73h2.8zm0 15.1v-2.8L486.2 73h2.8z"/><path class="st1" d="M504 34v32h-32V34h32m8-8h-48v48h48V26z"/></svg>