<svg xmlns="http://www.w3.org/2000/svg" viewBox="0 0 1920 673" xml:space="preserve"><style>.st1{fill:#ffcc80}.st2{opacity:.15;fill:#444;enable-background:new}.st3{fill:#826049}</style><path fill="#3aaf9d" d="M0 0h1920v673H0z"/><path class="st1" d="M738.4 264.4c-2.9 4.4-5.1 9.2-7.8 13.7-5.7 9.7-11.3 19.4-17.3 28.9-1.5 2.4-3.2 6.2-7.3 5.1s-5.1-3.9-4.2-9.4c1-6.2 1.6-12.4 2.2-18.7 1-10.6 2.1-21.3 2.9-31.9.6-7.4 1.2-14.9 1-22.4-.1-4.4-5.1-7-10.5-6.6-3.4.3-6.6 4.2-7 8.1-1.1 9-2.3 18-3.7 27-1.9 11.7-4.1 23.3-6.2 34.9-.2 1-.6 1.9-.9 2.9-1-1.1-2.8-2.3-2.8-3.4-.3-9.3-.3-18.7-.4-28-.1-7.3-.5-14.7-.2-22 .4-9.7 1.4-19.5 2.1-29.2.4-6.5-8.8-10.1-13.7-7.2-4.5 2.6-6.4 8.9-6.8 13.7-1 9.7-2.1 19.4-3.2 29.1-.8 7.3-2.2 14.6-2.4 21.9-.2 7.6 1 15.2 1.4 22.9.1 1.1-1.1 2.3-1.7 3.4-1.3-.9-3.5-1.6-3.9-2.9-2.2-6.6-4.3-13.1-5.6-19.9-2.3-11.8-3.9-23.8-5.8-35.8-.9-5.3-1.8-10.6-3-15.8-.7-3.3-6.9-5.9-10.8-4.9-5.3 1.5-8.4 5.2-8.1 10.8.6 12.8 1.2 25.5 2.3 38.3.8 10.3 2.2 20.6 3.5 30.8.8 6.2 2.6 12.3 3.1 18.5.7 9-2.1 17.4-5.9 25.5-3.7 7.9-10.9 10-18.1 11.4-2.6.5-5.9-2.1-8.7-3.7-8.8-5.4-16.6-12.5-25.7-17.7-1.4-.8-2.9-1.6-4.5-2.2-6.3-2.1-15.2-1.9-21.7-1.3-3.9.3-6.9 3.1-7.9 7.2v3.6c1 5 11.3 8.2 15.3 10.9 5.7 4.1 11.1 8.6 16.2 13.5 6 5.8 11.5 12.2 17.2 18.3 14.1 15.3 29.2 29.7 44.1 44.3 1.7 1.7 4.5 2.5 5.9 4.5 1.6 2.2 1.7 5.4 2.2 8 1.4 7.6 2.4 15.4 2.8 23.2.1 1.8.9 5.8.9 5.8s59.4-.1 78.6-.1c-.7-13.1-1.6-26.2-1.8-39.3-.1-9.7 3.6-18.5 6.1-27.7 2.5-9.4 4.4-19 5.7-28.7 1.1-7.5 1.8-15.1 2.2-22.7.3-6.1-.8-13.5 1.2-19.4 2.2-6.6 5.5-12.8 8.4-19.1 4.3-9.4 8.8-18.7 13-28.1 1.6-3.6 2.9-7.4 4.3-11.2v-5c-3.4-7.2-11.6-7.1-15-1.9z"/><path class="st2" d="M643.2 371.6c15.5 8.7 22.6 28.5 22.7 28.6.3.8 1.1 1.4 1.9 1.4.2 0 .5-.1.7-.1 1.1-.4 1.6-1.5 1.3-2.6-.3-.9-7.6-21.3-24.5-30.9-11.2-6.3-28.6-12.8-39-16.4-2.2.7-4.4 1.2-6.7 1.7-.3.1-.6.1-.9.1 7.3 2.5 31 10.6 44.5 18.2zm0-46.7c2.3 1.1 5 2.7 7.9 4.4 5.6 3.3 12 7 18.1 9.1 5.9 2.1 13.7 3 21.3 3.9 3.9.5 7.6.9 10.8 1.5.1 0 .3.1.4.1 1 0 1.8-.7 2-1.7.2-1.1-.6-2.2-1.6-2.4-3.3-.6-7.1-1-11-1.5-7.3-.9-14.9-1.8-20.4-3.7-5.7-2-12-5.6-17.4-8.8-3-1.7-5.7-3.3-8.2-4.5-1-.5-2.3-.1-2.8.9-.6 1.1-.2 2.3.9 2.7z"/><path class="st1" d="M1181.6 264.4c-3.4-5.2-11.6-5.3-14.9 2.2v5c1.4 3.7 2.6 7.5 4.3 11.2 4.2 9.4 8.7 18.7 13 28.1 2.9 6.3 6.2 12.5 8.4 19.1 2 5.8.9 13.3 1.2 19.4.4 7.6 1.1 15.1 2.2 22.7 1.3 9.7 3.3 19.3 5.7 28.7 2.4 9.2 6.2 18 6.1 27.7-.2 13.1-1.1 26.2-1.8 39.3 19.2 0 78.6.1 78.6.1s.8-4.1.9-5.8c.5-7.8 1.4-15.5 2.8-23.2.5-2.6.6-5.8 2.2-8 1.4-1.9 4.2-2.8 5.9-4.5 14.8-14.6 30-29 44.1-44.3 5.7-6.2 11.2-12.5 17.2-18.3 5.1-4.9 10.5-9.5 16.2-13.5 3.9-2.8 14.3-5.9 15.3-10.9v-3.6c-1.1-4.2-4.1-6.9-7.9-7.2-6.5-.6-15.5-.8-21.7 1.3-1.6.6-3 1.3-4.5 2.2-9.1 5.2-16.9 12.3-25.7 17.7-2.7 1.6-6.1 4.2-8.7 3.7-7.2-1.4-14.4-3.5-18.1-11.4-3.8-8.2-6.6-16.5-5.9-25.5.5-6.2 2.3-12.3 3.1-18.5 1.3-10.3 2.7-20.5 3.5-30.8 1-12.8 1.6-25.5 2.3-38.3.3-5.6-2.8-9.3-8.1-10.8-3.8-1.1-10.1 1.6-10.8 4.9-1.2 5.2-2.2 10.6-3 15.8-1.9 12-3.6 24-5.8 35.8-1.3 6.8-3.4 13.3-5.6 19.9-.4 1.2-2.6 1.9-3.9 2.9-.6-1.1-1.7-2.3-1.7-3.4.4-7.6 1.5-15.3 1.4-22.9-.2-7.3-1.5-14.6-2.4-21.9-1.1-9.7-2.2-19.4-3.2-29.1-.5-4.8-2.3-11.1-6.8-13.7-5-2.9-14.2.8-13.7 7.2.7 9.7 1.7 19.5 2.1 29.2.3 7.3-.1 14.6-.2 22-.1 9.3-.1 18.7-.4 28 0 1.2-1.8 2.3-2.8 3.4-.3-1-.8-1.9-.9-2.9-2.1-11.6-4.3-23.2-6.2-34.9-1.4-9-2.6-18-3.7-27-.4-3.8-3.5-7.7-7-8.1-5.4-.5-10.4 2.2-10.5 6.6-.2 7.4.5 14.9 1 22.4.8 10.6 1.9 21.3 2.9 31.9.6 6.3 1.2 12.5 2.2 18.7.9 5.5 0 8.4-4.2 9.4s-5.8-2.7-7.3-5.1c-6-9.5-11.6-19.2-17.3-28.9-2.7-4.8-5-9.6-7.9-14z"/><path class="st2" d="M1276.8 371.6c13.5-7.6 37.1-15.7 44.5-18.2-.3 0-.6 0-.9-.1-2.3-.5-4.5-1-6.7-1.7-10.4 3.6-27.8 10.1-39 16.4-16.9 9.5-24.2 30-24.5 30.9-.4 1.1.2 2.3 1.3 2.6.2.1.5.1.7.1.9 0 1.6-.6 1.9-1.4.1-.1 7.2-19.9 22.7-28.6zm0-46.7c1-.5 1.4-1.7 1-2.8-.5-1-1.7-1.4-2.8-.9-2.4 1.2-5.2 2.8-8.2 4.5-5.4 3.2-11.6 6.8-17.4 8.8-5.5 1.9-13.1 2.8-20.4 3.7-3.9.5-7.7.9-11 1.5-1.1.2-1.8 1.2-1.6 2.4.2 1 1 1.7 2 1.7.1 0 .3-.1.4-.1 3.2-.6 6.9-1 10.8-1.5 7.5-.9 15.4-1.8 21.3-3.9 6.1-2.1 12.5-5.8 18.1-9.1 2.8-1.5 5.6-3.1 7.8-4.3z"/><path class="st3" d="M834 80.5h252v512H834v-512z"/><path d="M849 95.5h222v497H849v-497z" fill="#e0ac7e"/><path class="st3" d="M1041.5 569h-163V430h163v139zm-153-10h143V440h-143v119zm153-155h-163V132h5c9.9 0 20.7-2.8 32.2-5.7C929 122.9 944 119 960 119c16.1 0 31.1 3.9 44.3 7.3 11.4 2.9 22.3 5.7 32.2 5.7h5v272zm-153-10h143V141.8c-9.6-.7-19.4-3.2-29.7-5.9-13.3-3.4-27.1-7-41.8-7-14.7 0-28.5 3.5-41.8 7-10.3 2.6-20.1 5.2-29.7 5.9V394z"/><path d="M866 378.5h-4c-1.7 0-3-1.3-3-3v-29c0-1.7 1.3-3 3-3h4c1.7 0 3 1.3 3 3v29c0 1.7-1.3 3-3 3z" fill="#36434f"/><path class="st2" d="M834 80.5h126v512H834v-512z"/></svg>