<svg xmlns="http://www.w3.org/2000/svg" viewBox="0 0 1920 673" xml:space="preserve"><path fill="#36434f" d="M0 0h1920v673H0z"/><path d="M556.5 324.2c0 12.7-2.4 24.1-7.1 33.8-4.7 9.9-11.5 17.4-20.2 22.7-8.7 5.3-18.6 7.9-29.7 7.9s-21-2.4-29.7-7.5-15.4-12.5-20.2-22.1c-4.9-9.5-7.3-20.4-7.5-32.8v-7.3c0-12.7 2.4-24.1 7.1-34s11.3-17.4 20.2-22.7c8.9-5.3 18.8-8.1 29.9-8.1s21 2.6 29.7 8.1 15.4 12.7 20.2 22.5c4.9 9.7 7.3 20.8 7.3 33.4v6.1zm-32.1-5.5c0-13-2.2-22.9-6.5-29.5S507.4 279 499.3 279c-15.8 0-24.3 11.9-25.1 35.6v9.7c0 12.7 2.2 22.7 6.5 29.5 4.2 6.9 10.5 10.3 19 10.3 7.9 0 14.2-3.4 18.4-10.1s6.5-16.6 6.5-29.1v-6.3h-.2zm167.9 100.4H664v-32.2h-71.2v32.2h-29.3l-2.2-56.5h9.3c4.9-3.2 8.7-8.7 11.7-16.6 3-7.9 5.1-19.2 6.3-34l4-56h89v106.6h14l-3.3 56.5zm-86.2-56.5h44.1v-82.2h-27.9l-2.4 32.8c-1.9 21.1-6.3 37.7-13.8 49.4zm200.3-82.1h-39.3v106.4h-31.6V280.5H697v-24.3h109.5v24.3zM928.6 256v130.9h-31.4v-48.4l-9.3 1.2-11.5.8c-17.6 0-31.2-3.8-40.5-11.5s-14.2-18.4-14.2-32.4v-40.5h31.6v40.1c0 7.1 1.8 12.3 5.3 15.4s9.5 4.7 18 4.7h2.6c7.3-.4 13.4-1 18.2-1.6V256h31.2zm129.7 130.9h-31.6V280.5h-46.9v106.4h-31.6V256h110.1v130.9zm50.4-130.9v106.6h32.6V256h31.6v106.6h32.2V256h31.4v130.9h-159.2V256h31.4zm253 86.6c-.4 9.1-2.8 17.2-7.3 24.1-4.5 7.1-10.7 12.3-19 16.2-8.1 3.8-17.4 5.7-27.9 5.7-17.2 0-30.8-5.7-40.7-16.8-9.9-11.1-14.8-27.1-14.8-47.6v-6.5c0-12.7 2.2-24.1 6.7-33.6 4.5-9.7 10.9-17 19.2-22.3 8.3-5.3 18-7.9 29.1-7.9 15.8 0 28.7 4.2 38.2 12.5 9.5 8.3 15.2 19.8 16.4 34.6H1330c-.2-7.9-2.2-13.8-6.1-17.2-3.8-3.4-9.5-5.3-17.2-5.3-7.9 0-13.6 3-17.2 8.9-3.6 5.9-5.7 15.2-5.7 28.1v9.3c0 14 1.8 23.9 5.3 29.9 3.4 6.1 9.5 8.9 18.2 8.9 7.3 0 12.7-1.6 16.6-5.1 3.8-3.4 5.9-8.9 6.1-16.2h31.7zm14.9 44.3V256h46.9c16.8 0 29.7 3 38.4 9.3 8.7 6.3 13.2 15.2 13.2 26.9 0 6.7-1.6 12.5-4.7 17.4-3 4.9-7.7 8.3-13.8 10.5 6.9 1.8 12.1 5.1 15.8 10.1 3.6 4.9 5.5 10.9 5.5 18 0 12.7-4 22.5-12.1 28.9s-20.2 9.7-36 9.9h-53.2v-.1zm31.6-76.3h16.4c6.9 0 11.7-1.4 14.8-3.8s4.5-6.1 4.5-10.9c0-5.5-1.6-9.5-4.9-11.9-3.2-2.4-8.3-3.6-15.4-3.6h-15.4v30.2zm0 20.6v31.4h20.6c5.7 0 10.1-1.2 13.2-3.8 3-2.6 4.7-6.3 4.7-10.9 0-10.9-5.5-16.4-16.2-16.4h-22.3v-.3z" fill="#fff" opacity=".5"/></svg>