<svg xmlns="http://www.w3.org/2000/svg" viewBox="0 0 1920 673" xml:space="preserve"><style>.st1{fill-rule:evenodd;clip-rule:evenodd;fill:none;stroke:#36434f;stroke-width:4;stroke-miterlimit:10}.st2{fill:#36434f}</style><path fill="#ddd" d="M0 0h1920v673H0z"/><path class="st1" d="M445.6 76.7h485.2v485.2H445.6z"/><path class="st2" d="M416.1 547.5h-4.6V533l-4.5 1.3v-3.5l8.6-3h.4v19.7zm19.5-8.1c0 2.7-.6 4.7-1.8 6.1-1.2 1.4-2.9 2.2-5 2.2-2.2 0-3.9-.7-5.1-2.2-1.2-1.5-1.8-3.5-1.8-6.1v-3.6c0-2.7.6-4.7 1.8-6.1 1.2-1.4 2.9-2.2 5.1-2.2s3.9.7 5.1 2.2c1.2 1.5 1.8 3.5 1.8 6.1v3.6zm-4.5-4.1c0-1.4-.2-2.5-.6-3.2-.4-.7-1-1-1.8-1s-1.4.3-1.7 1c-.4.6-.5 1.6-.6 2.9v5c0 1.5.2 2.5.6 3.2.4.7 1 1 1.8 1s1.3-.3 1.7-1c.4-.7.6-1.7.6-3.1v-4.8zM426 111.1h-4.7v-15l-4.6 1.3v-3.6l8.9-3.1h.4v20.4zm2.5 48.5h-13.9v-3l6.4-6.7c1.6-1.8 2.4-3.2 2.4-4.3 0-.9-.2-1.5-.6-2-.4-.4-.9-.7-1.6-.7-.7 0-1.3.3-1.7.9-.4.6-.7 1.3-.7 2.2h-4.6c0-1.2.3-2.4.9-3.4.6-1 1.5-1.8 2.5-2.4 1.1-.6 2.3-.9 3.6-.9 2.2 0 3.8.5 5 1.5 1.2 1 1.7 2.4 1.7 4.3 0 .8-.1 1.5-.4 2.3-.3.7-.7 1.5-1.4 2.3-.6.8-1.6 1.9-3 3.3l-2.6 3h7.8v3.6zm-9.6 36.5h2.1c1.7 0 2.6-.8 2.6-2.5 0-.6-.2-1.2-.6-1.6-.4-.4-1-.6-1.7-.6-.6 0-1.1.2-1.6.5-.4.4-.7.8-.7 1.3h-4.6c0-1 .3-2 .9-2.8.6-.8 1.4-1.4 2.4-1.9s2.1-.7 3.4-.7c2.2 0 3.9.5 5.2 1.5 1.3 1 1.9 2.4 1.9 4.1 0 .8-.3 1.6-.8 2.4-.5.8-1.3 1.4-2.3 1.8 1 .4 1.9 1 2.5 1.7.6.8.9 1.7.9 2.9 0 1.8-.7 3.2-2 4.2-1.4 1.1-3.1 1.6-5.3 1.6-1.3 0-2.5-.2-3.6-.7-1.1-.5-1.9-1.2-2.5-2-.6-.9-.9-1.9-.9-3h4.6c0 .6.2 1.1.7 1.6.5.4 1.1.7 1.8.7.8 0 1.4-.2 1.9-.7.5-.4.7-1 .7-1.7 0-1-.2-1.7-.7-2.1-.5-.4-1.2-.6-2.1-.6h-2.2v-3.4zm7.8 52.6h2.1v3.6h-2.1v4.3H422v-4.3h-7.8l-.3-2.9 8.1-13h4.7v12.3zm-8.3 0h3.6v-6.2l-.3.5-3.3 5.7zm-3.7 46.4 1.2-10.2h11.7v3.6h-7.9l-.5 4c.3-.2.8-.4 1.3-.5.5-.1 1.1-.2 1.6-.2 2 0 3.5.6 4.6 1.8 1.1 1.2 1.6 2.8 1.6 4.9 0 1.3-.3 2.4-.9 3.5-.6 1-1.4 1.8-2.4 2.4-1 .6-2.3.8-3.7.8-1.3 0-2.4-.3-3.5-.8s-2-1.2-2.6-2.1c-.6-.9-.9-1.9-.9-3h4.6c0 .7.3 1.3.7 1.7.4.4 1 .6 1.7.6 1.6 0 2.3-1.1 2.3-3.4 0-2.1-.9-3.2-2.8-3.2-1.1 0-1.9.3-2.4 1l-3.7-.9zm10.6 38.4v3.6h-.2c-1.7 0-3.1.4-4.2 1.2-1.1.8-1.8 1.9-2 3.4 1-1 2.3-1.5 3.9-1.5 1.7 0 3.1.6 4.1 1.9s1.5 2.9 1.5 4.9c0 1.3-.3 2.4-.9 3.4-.6 1-1.4 1.9-2.5 2.5-1.1.6-2.2.9-3.5.9-1.4 0-2.6-.3-3.7-1-1.1-.6-2-1.5-2.6-2.7-.6-1.2-.9-2.5-.9-4.1v-1.8c0-2 .4-3.8 1.3-5.5.9-1.6 2.1-2.9 3.7-3.8 1.6-.9 3.4-1.4 5.4-1.4h.6zm-4.1 10.1c-.6 0-1.1.1-1.5.4-.4.3-.7.6-.9 1v1.4c0 2.5.9 3.7 2.6 3.7.7 0 1.3-.3 1.7-.9.5-.6.7-1.4.7-2.3 0-1-.2-1.7-.7-2.4-.5-.6-1.1-.9-1.9-.9zm7.4 40.9-7.6 17.7h-4.9l7.6-16.6H414V382h14.6v2.5zm-.8 51.5c0 1-.2 1.8-.7 2.5-.5.7-1.1 1.3-2 1.8.9.5 1.7 1.1 2.2 1.9.5.8.8 1.7.8 2.8 0 1.8-.6 3.1-1.8 4.2-1.2 1-2.9 1.5-5 1.5s-3.8-.5-5.1-1.5c-1.2-1-1.9-2.4-1.9-4.2 0-1.1.3-2 .8-2.8.5-.8 1.3-1.4 2.3-1.9-.8-.4-1.5-1-2-1.8-.5-.7-.7-1.6-.7-2.5 0-1.7.6-3.1 1.7-4.1 1.2-1 2.7-1.5 4.7-1.5s3.6.5 4.7 1.5c1.4 1.1 2 2.4 2 4.1zm-4.2 8.7c0-.8-.2-1.4-.6-1.9-.4-.4-1-.7-1.7-.7s-1.2.2-1.7.7c-.4.4-.6 1.1-.6 1.9 0 .8.2 1.4.6 1.9.4.5 1 .7 1.7.7s1.2-.2 1.6-.7.7-1.1.7-1.9zm-2.3-10.7c-.6 0-1.1.2-1.4.6-.3.4-.5 1-.5 1.7s.2 1.3.5 1.7.8.6 1.4.6c.6 0 1.1-.2 1.4-.6.3-.4.5-1 .5-1.7s-.2-1.3-.5-1.7c-.3-.4-.7-.6-1.4-.6zm2.3 57.4c-1 .9-2.1 1.3-3.3 1.3-1.8 0-3.2-.6-4.2-1.8-1-1.2-1.6-2.8-1.6-4.8 0-1.3.3-2.4.9-3.5.6-1.1 1.4-1.9 2.5-2.6 1.1-.6 2.2-.9 3.5-.9 1.3 0 2.5.3 3.5 1s1.9 1.6 2.5 2.8c.6 1.2.9 2.6.9 4.1v1.7c0 2.2-.4 4.1-1.3 5.6-.9 1.6-2.1 2.8-3.6 3.7-1.6.9-3.4 1.3-5.5 1.3h-.3v-3.6h.9c3-.3 4.7-1.7 5.1-4.3zm-2.1-2c1 0 1.7-.4 2.1-1.3v-1.9c0-1.3-.2-2.2-.6-2.8s-1-.9-1.7-.9c-.6 0-1.2.3-1.6 1-.4.7-.6 1.5-.6 2.5s.2 1.8.7 2.5c.3.6.9.9 1.7.9zm51.7 103.1h-6.7l-1.2 3.8h-5.2l7.4-20.2h4.6l7.5 20.2h-5.2l-1.2-3.8zm-5.6-3.8h4.3l-2.2-7-2.1 7zm56.7-8.9h-8.8v3.2h2.5c1.6 0 3 .3 4.2.8 1.2.5 2.2 1.3 2.8 2.3.7 1 1 2.1 1 3.4 0 2-.7 3.6-2.2 4.8-1.5 1.2-3.5 1.9-5.9 1.9h-7.3V576h13.7v3.8zm-8.8 7v5.8h2.5c1 0 1.8-.3 2.4-.8.6-.6.9-1.3.9-2.2 0-.8-.3-1.5-.9-2-.6-.5-1.4-.8-2.4-.8h-2.5zm43.6 9.5v-20.2h7.3c2.6 0 4.6.5 5.9 1.4 1.4 1 2 2.3 2 4.2 0 1-.2 1.9-.7 2.7-.5.7-1.2 1.3-2.1 1.6 1.1.3 1.9.8 2.4 1.6.6.8.8 1.7.8 2.8 0 2-.6 3.5-1.9 4.5-1.3 1-3.1 1.5-5.6 1.5h-8.1zm4.8-11.8h2.5c1.1 0 1.8-.2 2.3-.6.5-.4.7-.9.7-1.7 0-.9-.2-1.5-.7-1.8-.5-.4-1.3-.6-2.4-.6h-2.4v4.7zm0 3.2v4.8h3.2c.9 0 1.6-.2 2-.6.5-.4.7-1 .7-1.7 0-1.7-.8-2.5-2.5-2.5h-3.4zm58.3-7.9h-8.8v16.5h-4.9v-20.2h13.7v3.7zm49.6 16.5h-3.5v-4h-8.8v4h-3.6l-.3-7h1.1c.6-.4 1.1-1.1 1.5-2.1.4-1 .6-2.4.8-4.2l.5-6.9h11v13.2h1.7l-.4 7zm-10.6-7h5.5v-10.2h-3.5l-.3 4.1c-.3 2.6-.8 4.6-1.7 6.1zm56.8-1.6h-7.7v4.8h9.1v3.7h-13.9V576h14v3.8h-9.1v4.3h7.7v3.6zm47.9.7h-2.5v7.9h-4.8v-7.9h-2.5l-3.9 7.9h-6.1l6.1-11-5.9-9.2h6.2l4.1 7.9h2v-7.9h4.8v7.9h2l4-7.9h6.1l-5.8 9.2 6 11.1h-6.1l-3.7-8zm46.2-6.6c0-.6-.2-1.1-.7-1.5-.5-.4-1.1-.6-2-.6-.8 0-1.4.2-1.8.5-.5.4-.7.8-.7 1.4h-4.7c0-1.1.3-2.1.9-2.9.6-.9 1.5-1.5 2.6-2s2.4-.7 3.7-.7c2.3 0 4.2.5 5.5 1.5 1.3 1 2 2.4 2 4.1 0 .9-.3 1.7-.8 2.5-.5.7-1.3 1.3-2.2 1.8 1.1.4 1.9 1 2.4 1.7.6.8.8 1.7.8 2.9 0 1.8-.7 3.2-2.1 4.2-1.4 1-3.3 1.6-5.6 1.6-2.2 0-4-.5-5.4-1.5-1.4-1-2.2-2.4-2.2-4.2h4.8c0 .6.3 1.1.8 1.5.5.4 1.2.6 2 .6.9 0 1.6-.2 2.2-.6.6-.4.8-1 .8-1.6 0-1-.2-1.7-.7-2.1-.5-.4-1.2-.6-2.1-.6h-2.5v-3.5h2.7c1.5-.1 2.3-.9 2.3-2.5zm49.5-5.7h4.9v20.2h-4.9v-12.7l-7.3 12.7h-4.9v-20.2h4.9v12.8l7.3-12.8zm43.5 12.2h-2.3v8h-4.9v-20.2h4.9v7.8h1.9l3.9-7.8h5.9l-5.6 9.3 6.2 10.9h-5.8l-4.2-8z"/><path class="st1" d="M1027.8 76.7H1513v485.2h-485.2z"/><path class="st2" d="M998.3 547.5h-4.6V533l-4.5 1.3v-3.5l8.6-3h.4v19.7zm19.6-8.1c0 2.7-.6 4.7-1.8 6.1-1.2 1.4-2.9 2.2-5 2.2-2.2 0-3.9-.7-5.1-2.2-1.2-1.5-1.8-3.5-1.8-6.1v-3.6c0-2.7.6-4.7 1.8-6.1 1.2-1.4 2.9-2.2 5.1-2.2s3.9.7 5.1 2.2c1.2 1.5 1.8 3.5 1.8 6.1v3.6zm-4.6-4.1c0-1.4-.2-2.5-.6-3.2-.4-.7-1-1-1.8-1s-1.4.3-1.7 1c-.4.6-.5 1.6-.6 2.9v5c0 1.5.2 2.5.6 3.2.4.7 1 1 1.8 1s1.3-.3 1.7-1c.4-.7.6-1.7.6-3.1v-4.8zm-5.1-424.2h-4.7v-15l-4.6 1.3v-3.6l8.9-3.1h.4v20.4zm2.5 48.5h-13.9v-3l6.4-6.7c1.6-1.8 2.4-3.2 2.4-4.3 0-.9-.2-1.5-.6-2-.4-.4-.9-.7-1.6-.7-.7 0-1.3.3-1.7.9-.4.6-.7 1.3-.7 2.2h-4.6c0-1.2.3-2.4.9-3.4.6-1 1.5-1.8 2.5-2.4s2.3-.9 3.6-.9c2.2 0 3.8.5 5 1.5 1.2 1 1.7 2.4 1.7 4.3 0 .8-.1 1.5-.4 2.3-.3.7-.7 1.5-1.4 2.3-.6.8-1.6 1.9-3 3.3l-2.6 3h7.8v3.6zm-9.6 36.5h2.1c1.7 0 2.6-.8 2.6-2.5 0-.6-.2-1.2-.6-1.6-.4-.4-1-.6-1.7-.6-.6 0-1.1.2-1.6.5-.4.4-.7.8-.7 1.3h-4.6c0-1 .3-2 .9-2.8.6-.8 1.4-1.4 2.4-1.9s2.1-.7 3.4-.7c2.2 0 3.9.5 5.2 1.5 1.3 1 1.9 2.4 1.9 4.1 0 .8-.3 1.6-.8 2.4-.5.8-1.3 1.4-2.3 1.8 1 .4 1.9 1 2.5 1.7.6.8.9 1.7.9 2.9 0 1.8-.7 3.2-2 4.2-1.4 1.1-3.1 1.6-5.3 1.6-1.3 0-2.5-.2-3.6-.7-1.1-.5-1.9-1.2-2.5-2-.6-.9-.9-1.9-.9-3h4.6c0 .6.2 1.1.7 1.6.5.4 1.1.7 1.8.7.8 0 1.4-.2 1.9-.7.5-.4.7-1 .7-1.7 0-1-.2-1.7-.7-2.1-.5-.4-1.2-.6-2.1-.6h-2.2v-3.4zm7.8 52.6h2.1v3.6h-2.1v4.3h-4.7v-4.3h-7.8l-.3-2.9 8.1-13h4.7v12.3zm-8.3 0h3.6v-6.2l-.3.5-3.3 5.7zm-3.6 46.4 1.2-10.2h11.7v3.6h-7.9l-.5 4c.3-.2.8-.4 1.3-.5.5-.1 1.1-.2 1.6-.2 2 0 3.5.6 4.6 1.8 1.1 1.2 1.6 2.8 1.6 4.9 0 1.3-.3 2.4-.9 3.5-.6 1-1.4 1.8-2.4 2.4-1 .6-2.3.8-3.7.8-1.3 0-2.4-.3-3.5-.8s-2-1.2-2.6-2.1c-.6-.9-.9-1.9-.9-3h4.6c0 .7.3 1.3.7 1.7.4.4 1 .6 1.7.6 1.6 0 2.3-1.1 2.3-3.4 0-2.1-.9-3.2-2.8-3.2-1.1 0-1.9.3-2.4 1l-3.7-.9zm10.6 38.4v3.6h-.2c-1.7 0-3.1.4-4.2 1.2-1.1.8-1.8 1.9-2 3.4 1-1 2.3-1.5 3.9-1.5 1.7 0 3.1.6 4.1 1.9s1.5 2.9 1.5 4.9c0 1.3-.3 2.4-.9 3.4-.6 1-1.4 1.9-2.5 2.5-1.1.6-2.2.9-3.5.9-1.4 0-2.6-.3-3.7-1-1.1-.6-2-1.5-2.6-2.7-.6-1.2-.9-2.5-.9-4.1v-1.8c0-2 .4-3.8 1.3-5.5.9-1.6 2.1-2.9 3.7-3.8 1.6-.9 3.4-1.4 5.4-1.4h.6zm-4.1 10.1c-.6 0-1.1.1-1.5.4s-.7.6-.9 1v1.4c0 2.5.9 3.7 2.6 3.7.7 0 1.3-.3 1.7-.9.5-.6.7-1.4.7-2.3 0-1-.2-1.7-.7-2.4-.5-.6-1.2-.9-1.9-.9zm7.3 40.9-7.6 17.7h-4.9l7.6-16.6h-9.6V382h14.6v2.5zm-.8 51.5c0 1-.2 1.8-.7 2.5-.5.7-1.1 1.3-2 1.8.9.5 1.7 1.1 2.2 1.9.5.8.8 1.7.8 2.8 0 1.8-.6 3.1-1.8 4.2-1.2 1-2.9 1.5-5 1.5s-3.8-.5-5.1-1.5c-1.2-1-1.9-2.4-1.9-4.2 0-1.1.3-2 .8-2.8.5-.8 1.3-1.4 2.3-1.9-.8-.4-1.5-1-2-1.8-.5-.7-.7-1.6-.7-2.5 0-1.7.6-3.1 1.7-4.1 1.2-1 2.7-1.5 4.7-1.5s3.6.5 4.7 1.5c1.4 1.1 2 2.4 2 4.1zm-4.2 8.7c0-.8-.2-1.4-.6-1.9-.4-.4-1-.7-1.7-.7s-1.2.2-1.7.7c-.4.4-.6 1.1-.6 1.9 0 .8.2 1.4.6 1.9.4.5 1 .7 1.7.7s1.2-.2 1.6-.7c.5-.5.7-1.1.7-1.9zm-2.2-10.7c-.6 0-1.1.2-1.4.6-.3.4-.5 1-.5 1.7s.2 1.3.5 1.7.8.6 1.4.6c.6 0 1.1-.2 1.4-.6.3-.4.5-1 .5-1.7s-.2-1.3-.5-1.7c-.3-.4-.8-.6-1.4-.6zm2.2 57.4c-1 .9-2.1 1.3-3.3 1.3-1.8 0-3.2-.6-4.2-1.8-1-1.2-1.6-2.8-1.6-4.8 0-1.3.3-2.4.9-3.5.6-1.1 1.4-1.9 2.5-2.6 1.1-.6 2.2-.9 3.5-.9 1.3 0 2.5.3 3.5 1s1.9 1.6 2.5 2.8c.6 1.2.9 2.6.9 4.1v1.7c0 2.2-.4 4.1-1.3 5.6-.9 1.6-2.1 2.8-3.6 3.7-1.6.9-3.4 1.3-5.5 1.3h-.3v-3.6h.9c3-.3 4.7-1.7 5.1-4.3zm-2.1-2c1 0 1.7-.4 2.1-1.3v-1.9c0-1.3-.2-2.2-.6-2.8s-1-.9-1.7-.9c-.6 0-1.2.3-1.6 1-.4.7-.6 1.5-.6 2.5s.2 1.8.7 2.5c.4.6 1 .9 1.7.9zm51.7 103.1h-6.7l-1.2 3.8h-5.2l7.4-20.2h4.6l7.5 20.2h-5.2l-1.2-3.8zm-5.5-3.8h4.3l-2.2-7-2.1 7zm56.6-8.9h-8.8v3.2h2.5c1.6 0 3 .3 4.2.8 1.2.5 2.2 1.3 2.8 2.3.7 1 1 2.1 1 3.4 0 2-.7 3.6-2.2 4.8-1.5 1.2-3.5 1.9-5.9 1.9h-7.3V576h13.7v3.8zm-8.8 7v5.8h2.5c1 0 1.8-.3 2.4-.8.6-.6.9-1.3.9-2.2 0-.8-.3-1.5-.9-2-.6-.5-1.4-.8-2.4-.8h-2.5zm43.6 9.5v-20.2h7.3c2.6 0 4.6.5 5.9 1.4 1.4 1 2 2.3 2 4.2 0 1-.2 1.9-.7 2.7-.5.7-1.2 1.3-2.1 1.6 1.1.3 1.9.8 2.4 1.6.6.8.8 1.7.8 2.8 0 2-.6 3.5-1.9 4.5-1.3 1-3.1 1.5-5.6 1.5h-8.1zm4.9-11.8h2.5c1.1 0 1.8-.2 2.3-.6.5-.4.7-.9.7-1.7 0-.9-.2-1.5-.7-1.8-.5-.4-1.3-.6-2.4-.6h-2.4v4.7zm0 3.2v4.8h3.2c.9 0 1.6-.2 2-.6.5-.4.7-1 .7-1.7 0-1.7-.8-2.5-2.5-2.5h-3.4zm58.3-7.9h-8.8v16.5h-4.9v-20.2h13.7v3.7zm49.6 16.5h-3.5v-4h-8.8v4h-3.6l-.3-7h1.1c.6-.4 1.1-1.1 1.5-2.1.4-1 .6-2.4.8-4.2l.5-6.9h11v13.2h1.7l-.4 7zm-10.7-7h5.5v-10.2h-3.5l-.3 4.1c-.2 2.6-.8 4.6-1.7 6.1zm56.8-1.6h-7.7v4.8h9.1v3.7h-13.9V576h14v3.8h-9.1v4.3h7.7v3.6zm48 .7h-2.5v7.9h-4.8v-7.9h-2.5l-3.9 7.9h-6.1l6.1-11-5.9-9.2h6.2l4.1 7.9h2v-7.9h4.8v7.9h2l4-7.9h6.1l-5.8 9.2 6 11.1h-6.1l-3.7-8zm46.1-6.6c0-.6-.2-1.1-.7-1.5-.5-.4-1.1-.6-2-.6-.8 0-1.4.2-1.8.5-.5.4-.7.8-.7 1.4h-4.7c0-1.1.3-2.1.9-2.9.6-.9 1.5-1.5 2.6-2s2.4-.7 3.7-.7c2.3 0 4.2.5 5.5 1.5 1.3 1 2 2.4 2 4.1 0 .9-.3 1.7-.8 2.5-.5.7-1.3 1.3-2.2 1.8 1.1.4 1.9 1 2.4 1.7.6.8.8 1.7.8 2.9 0 1.8-.7 3.2-2.1 4.2-1.4 1-3.3 1.6-5.6 1.6-2.2 0-4-.5-5.4-1.5-1.4-1-2.2-2.4-2.2-4.2h4.8c0 .6.3 1.1.8 1.5.5.4 1.2.6 2 .6.9 0 1.6-.2 2.2-.6.6-.4.8-1 .8-1.6 0-1-.2-1.7-.7-2.1-.5-.4-1.2-.6-2.1-.6h-2.5v-3.5h2.7c1.5-.1 2.3-.9 2.3-2.5zm49.6-5.7h4.9v20.2h-4.9v-12.7l-7.3 12.7h-4.9v-20.2h4.9v12.8l7.3-12.8zm43.4 12.2h-2.3v8h-4.9v-20.2h4.9v7.8h1.9l3.9-7.8h5.9l-5.6 9.3 6.2 10.9h-5.8l-4.2-8z"/><path d="M882.3 76.7h48.5v97h-48.5zm0 242.6h48.5v48.5h-48.5zm-97.1-97h48.5v194.1h-48.5zm-48.5 291.1h145.6v48.5H736.7zm-194.1-97h145.6v48.5H542.6zm145.6-97.1h48.5v48.5h-48.5zm-97.1-48.5h48.5v48.5h-48.5zm-97-97h97v48.5h-97zm145.6-48.6h48.5v48.5h-48.5z" fill="none" stroke="#36434f" stroke-width="4" stroke-miterlimit="10"/><circle class="st2" cx="1100.6" cy="198" r="5.4"/><path class="st2" d="m819 281.7-9.5 9.5-9.6-9.5-3.8 3.8 9.6 9.6-9.6 9.5 3.8 3.8 9.6-9.5 9.5 9.5 3.8-3.8-9.5-9.5 9.5-9.6z"/><circle class="st2" cx="761" cy="295.1" r="5.4"/></svg>