<svg version="1.1" xmlns="http://www.w3.org/2000/svg" x="0" y="0" viewBox="0 0 351 440" xml:space="preserve"><path d="M81 360h36v8H81v28h36v44H73v-8h36v-28H73v-44h8zm28-54H81v-36h-8v44h36v36h8v-80h-8v36zM73 90v8h36v28H73v44h44v-8H81v-28h36V90H73zm0 90v8h36v28H73v8h36v28H73v8h44v-80H73zM109 0L73 36v11.3l36-36V80h8V0h-8zM43 360v44H7v28h36v8H-1v-44h36v-28H-1v-8h44zM7 270h-8v80h8v-36h36v-44h-8v36H7v-36zM7 90h-8v44h36v28H-1v8h44v-44H7V98h36v-8H7zm0 90h-8v80h44v-8H7v-28h36v-8H7v-28h36v-8H7zM-1 0v80h8V11.3l36 36V36L7 0h-8zm312 180h-40v80h80v-80h-40zm32 72h-64v-28h64v28zm0-36h-64v-28h64v28zm0 90h-28v-36h-8v36h-28v-36h-8v80h8v-36h64v36h8v-80h-8zm-32 54h-40v8h36v28h-36v44h80v-44h-36v-28h36v-8h-40zm32 44v28h-64v-28h64zm0-404l-32 32-32-32h-8v80h8V11.3l32 32 32-32V80h8V0zm-32 90h-40v44h36v28h-36v8h80v-8h-36v-28h36V90h-40zm32 36h-64V98h64v28zm-102 94l-34-14.5 8 10.5h-68v8h68l-8 10.5z" fill="#36434f"/></svg>