<svg xmlns="http://www.w3.org/2000/svg" viewBox="0 0 1920 673" xml:space="preserve"><style>.st2{fill:#ddd}.st3{fill:#bbb}.st4{opacity:.15;fill:#444;enable-background:new}</style><path fill="#46559e" d="M0 0h1920v673H0z"/><path d="M1449 172.2v328.5c0 33.8-27.3 61.1-61.1 61.1H532.1c-33.8 0-61.1-27.3-61.1-61.1V172.2c0-33.8 27.3-61.1 61.1-61.1h855.8c33.8 0 61.1 27.3 61.1 61.1z" fill="#f4f4f4"/><circle class="st2" cx="604.7" cy="448.2" r="62.1"/><path class="st3" d="M547.4 448.2c0-7.6 1.5-15.3 4.4-22.3 2.9-6.9 7.1-13 12.2-18.1s11.5-9.4 18.1-12.2c7.1-3.1 14.5-4.4 22.3-4.4s15.3 1.5 22.3 4.4c6.9 2.9 13 7.1 18.1 12.2s9.4 11.5 12.2 18.1c3.1 7.1 4.4 14.5 4.4 22.3 0 7.8-1.5 15.3-4.4 22.3-2.9 6.9-7.1 13-12.2 18.1-5.2 5.2-11.5 9.4-18.1 12.2-7.1 3.1-14.5 4.4-22.3 4.4s-15.3-1.5-22.3-4.4c-6.9-2.9-13-7.1-18.1-12.2-5.2-5.2-9.4-11.5-12.2-18.1-2.9-7-4.4-14.6-4.4-22.3m-4.8 0c0 34.4 27.7 62.1 62.1 62.1s62.1-27.7 62.1-62.1-27.7-62.1-62.1-62.1-62.1 27.8-62.1 62.1z"/><path class="st4" d="M604.7 510.3c34.4 0 62.1-27.7 62.1-62.1H542.6c0 34.4 27.7 62.1 62.1 62.1z"/><circle class="st2" cx="782.4" cy="448.2" r="62.1"/><path class="st3" d="M725.1 448.2c0-7.6 1.5-15.3 4.4-22.3 2.9-6.9 7.1-13 12.2-18.1s11.5-9.4 18.1-12.2c7.1-3.1 14.5-4.4 22.3-4.4s15.3 1.5 22.3 4.4c6.9 2.9 13 7.1 18.1 12.2s9.4 11.5 12.2 18.1c3.1 7.1 4.4 14.5 4.4 22.3 0 7.8-1.5 15.3-4.4 22.3-2.9 6.9-7.1 13-12.2 18.1-5.2 5.2-11.5 9.4-18.1 12.2-7.1 3.1-14.5 4.4-22.3 4.4s-15.3-1.5-22.3-4.4c-6.9-2.9-13-7.1-18.1-12.2-5.2-5.2-9.4-11.5-12.2-18.1-2.9-7-4.4-14.6-4.4-22.3m-4.8 0c0 34.4 27.7 62.1 62.1 62.1s62.1-27.7 62.1-62.1-27.7-62.1-62.1-62.1-62.1 27.8-62.1 62.1z"/><path class="st4" d="M782.4 510.3c34.4 0 62.1-27.7 62.1-62.1H720.3c0 34.4 27.7 62.1 62.1 62.1z"/><circle class="st2" cx="960" cy="448.2" r="62.1"/><path class="st3" d="M902.7 448.2c0-7.6 1.5-15.3 4.4-22.3 2.9-6.9 7.1-13 12.2-18.1s11.5-9.4 18.1-12.2c7.1-3.1 14.5-4.4 22.3-4.4 7.8 0 15.3 1.5 22.3 4.4 6.9 2.9 13 7.1 18.1 12.2 5.2 5.2 9.4 11.5 12.2 18.1 3.1 7.1 4.4 14.5 4.4 22.3 0 7.8-1.5 15.3-4.4 22.3-2.9 6.9-7.1 13-12.2 18.1-5.2 5.2-11.5 9.4-18.1 12.2-7.1 3.1-14.5 4.4-22.3 4.4-7.8 0-15.3-1.5-22.3-4.4-6.9-2.9-13-7.1-18.1-12.2-5.2-5.2-9.4-11.5-12.2-18.1-2.9-7-4.4-14.6-4.4-22.3m-4.8 0c0 34.4 27.7 62.1 62.1 62.1s62.1-27.7 62.1-62.1-27.7-62.1-62.1-62.1-62.1 27.8-62.1 62.1z"/><path class="st4" d="M960 510.3c34.4 0 62.1-27.7 62.1-62.1H897.9c0 34.4 27.7 62.1 62.1 62.1z"/><circle class="st2" cx="1137.6" cy="448.2" r="62.1"/><path class="st3" d="M1080.3 448.2c0-7.6 1.5-15.3 4.4-22.3 2.9-6.9 7.1-13 12.2-18.1 5.2-5.2 11.5-9.4 18.1-12.2 7.1-3.1 14.5-4.4 22.3-4.4s15.3 1.5 22.3 4.4c6.9 2.9 13 7.1 18.1 12.2s9.4 11.5 12.2 18.1c3.1 7.1 4.4 14.5 4.4 22.3 0 7.8-1.5 15.3-4.4 22.3-2.9 6.9-7.1 13-12.2 18.1-5.2 5.2-11.5 9.4-18.1 12.2-7.1 3.1-14.5 4.4-22.3 4.4s-15.3-1.5-22.3-4.4c-6.9-2.9-13-7.1-18.1-12.2-5.2-5.2-9.4-11.5-12.2-18.1-2.8-7-4.4-14.6-4.4-22.3m-4.7 0c0 34.4 27.7 62.1 62.1 62.1s62.1-27.7 62.1-62.1-27.7-62.1-62.1-62.1-62.1 27.8-62.1 62.1z"/><path class="st4" d="M1137.6 510.3c34.4 0 62.1-27.7 62.1-62.1h-124.2c.1 34.4 27.8 62.1 62.1 62.1z"/><circle class="st2" cx="1315.3" cy="448.2" r="62.1"/><path class="st3" d="M1258 448.2c0-7.6 1.5-15.3 4.4-22.3 2.9-6.9 7.1-13 12.2-18.1 5.2-5.2 11.5-9.4 18.1-12.2 7.1-3.1 14.5-4.4 22.3-4.4s15.3 1.5 22.3 4.4c6.9 2.9 13 7.1 18.1 12.2s9.4 11.5 12.2 18.1c3.1 7.1 4.4 14.5 4.4 22.3 0 7.8-1.5 15.3-4.4 22.3-2.9 6.9-7.1 13-12.2 18.1-5.2 5.2-11.5 9.4-18.1 12.2-7.1 3.1-14.5 4.4-22.3 4.4s-15.3-1.5-22.3-4.4c-6.9-2.9-13-7.1-18.1-12.2-5.2-5.2-9.4-11.5-12.2-18.1-2.9-7-4.4-14.6-4.4-22.3m-4.8 0c0 34.4 27.7 62.1 62.1 62.1s62.1-27.7 62.1-62.1-27.7-62.1-62.1-62.1-62.1 27.8-62.1 62.1z"/><path class="st4" d="M1315.3 510.3c34.4 0 62.1-27.7 62.1-62.1h-124.2c0 34.4 27.7 62.1 62.1 62.1z"/><circle class="st2" cx="604.7" cy="224.8" r="62.1"/><path class="st3" d="M547.4 224.8c0-7.6 1.5-15.3 4.4-22.3 2.9-6.9 7.1-13 12.2-18.1s11.5-9.4 18.1-12.2c7.1-3.1 14.5-4.4 22.3-4.4s15.3 1.5 22.3 4.4c6.9 2.9 13 7.1 18.1 12.2 5.2 5.2 9.4 11.5 12.2 18.1 3.1 7.1 4.4 14.5 4.4 22.3 0 7.8-1.5 15.3-4.4 22.3-2.9 6.9-7.1 13-12.2 18.1-5.2 5.2-11.5 9.4-18.1 12.2-7.1 3.1-14.5 4.4-22.3 4.4s-15.3-1.5-22.3-4.4c-6.9-2.9-13-7.1-18.1-12.2s-9.4-11.5-12.2-18.1c-2.9-7.1-4.4-14.7-4.4-22.3m-4.8 0c0 34.4 27.7 62.1 62.1 62.1s62.1-27.7 62.1-62.1-27.7-62.1-62.1-62.1-62.1 27.7-62.1 62.1z"/><path class="st4" d="M604.7 286.8c34.4 0 62.1-27.7 62.1-62.1H542.6c0 34.4 27.7 62.1 62.1 62.1z"/><circle class="st2" cx="782.4" cy="224.8" r="62.1"/><path class="st3" d="M725.1 224.8c0-7.6 1.5-15.3 4.4-22.3 2.9-6.9 7.1-13 12.2-18.1s11.5-9.4 18.1-12.2c7.1-3.1 14.5-4.4 22.3-4.4s15.3 1.5 22.3 4.4c6.9 2.9 13 7.1 18.1 12.2 5.2 5.2 9.4 11.5 12.2 18.1 3.1 7.1 4.4 14.5 4.4 22.3 0 7.8-1.5 15.3-4.4 22.3-2.9 6.9-7.1 13-12.2 18.1s-11.5 9.4-18.1 12.2c-7.1 3.1-14.5 4.4-22.3 4.4s-15.3-1.5-22.3-4.4c-6.9-2.9-13-7.1-18.1-12.2s-9.4-11.5-12.2-18.1c-2.9-7.1-4.4-14.7-4.4-22.3m-4.8 0c0 34.4 27.7 62.1 62.1 62.1s62.1-27.7 62.1-62.1-27.7-62.1-62.1-62.1-62.1 27.7-62.1 62.1z"/><path class="st4" d="M782.4 286.8c34.4 0 62.1-27.7 62.1-62.1H720.3c0 34.4 27.7 62.1 62.1 62.1z"/><circle class="st2" cx="960" cy="224.8" r="62.1"/><path class="st3" d="M902.7 224.8c0-7.6 1.5-15.3 4.4-22.3 2.9-6.9 7.1-13 12.2-18.1s11.5-9.4 18.1-12.2c7.1-3.1 14.5-4.4 22.3-4.4 7.8 0 15.3 1.5 22.3 4.4 6.9 2.9 13 7.1 18.1 12.2 5.2 5.2 9.4 11.5 12.2 18.1 3.1 7.1 4.4 14.5 4.4 22.3 0 7.8-1.5 15.3-4.4 22.3-2.9 6.9-7.1 13-12.2 18.1-5.2 5.2-11.5 9.4-18.1 12.2-7.1 3.1-14.5 4.4-22.3 4.4-7.8 0-15.3-1.5-22.3-4.4-6.9-2.9-13-7.1-18.1-12.2-5.2-5.2-9.4-11.5-12.2-18.1-2.9-7.1-4.4-14.7-4.4-22.3m-4.8 0c0 34.4 27.7 62.1 62.1 62.1s62.1-27.7 62.1-62.1-27.7-62.1-62.1-62.1-62.1 27.7-62.1 62.1z"/><path class="st4" d="M960 286.8c34.4 0 62.1-27.7 62.1-62.1H897.9c0 34.4 27.7 62.1 62.1 62.1z"/><circle class="st2" cx="1137.6" cy="224.8" r="62.1"/><path class="st3" d="M1080.3 224.8c0-7.6 1.5-15.3 4.4-22.3 2.9-6.9 7.1-13 12.2-18.1 5.2-5.2 11.5-9.4 18.1-12.2 7.1-3.1 14.5-4.4 22.3-4.4s15.3 1.5 22.3 4.4c6.9 2.9 13 7.1 18.1 12.2 5.2 5.2 9.4 11.5 12.2 18.1 3.1 7.1 4.4 14.5 4.4 22.3 0 7.8-1.5 15.3-4.4 22.3-2.9 6.9-7.1 13-12.2 18.1s-11.5 9.4-18.1 12.2c-7.1 3.1-14.5 4.4-22.3 4.4s-15.3-1.5-22.3-4.4c-6.9-2.9-13-7.1-18.1-12.2-5.2-5.2-9.4-11.5-12.2-18.1-2.8-7.1-4.4-14.7-4.4-22.3m-4.7 0c0 34.4 27.7 62.1 62.1 62.1s62.1-27.7 62.1-62.1-27.7-62.1-62.1-62.1-62.1 27.7-62.1 62.1z"/><path class="st4" d="M1137.6 286.8c34.4 0 62.1-27.7 62.1-62.1h-124.2c.1 34.4 27.8 62.1 62.1 62.1z"/><circle class="st2" cx="1315.3" cy="224.8" r="62.1"/><path class="st3" d="M1258 224.8c0-7.6 1.5-15.3 4.4-22.3 2.9-6.9 7.1-13 12.2-18.1 5.2-5.2 11.5-9.4 18.1-12.2 7.1-3.1 14.5-4.4 22.3-4.4s15.3 1.5 22.3 4.4c6.9 2.9 13 7.1 18.1 12.2 5.2 5.2 9.4 11.5 12.2 18.1 3.1 7.1 4.4 14.5 4.4 22.3 0 7.8-1.5 15.3-4.4 22.3-2.9 6.9-7.1 13-12.2 18.1s-11.5 9.4-18.1 12.2c-7.1 3.1-14.5 4.4-22.3 4.4s-15.3-1.5-22.3-4.4c-6.9-2.9-13-7.1-18.1-12.2-5.2-5.2-9.4-11.5-12.2-18.1-2.9-7.1-4.4-14.7-4.4-22.3m-4.8 0c0 34.4 27.7 62.1 62.1 62.1s62.1-27.7 62.1-62.1-27.7-62.1-62.1-62.1-62.1 27.7-62.1 62.1z"/><path class="st4" d="M1315.3 286.8c34.4 0 62.1-27.7 62.1-62.1h-124.2c0 34.4 27.7 62.1 62.1 62.1zm66.8 42.1v15.3c0 6.3-5.2 11.5-11.5 11.5H560.8c-6.3 0-11.5-5.2-11.5-11.5v-15.3c0-6.3 5.2-11.5 11.5-11.5h809.9c6.3 0 11.4 5.2 11.4 11.5z"/><path class="st4" d="M471 500.8c0 33.8 27.3 61.1 61.1 61.1h855.8c33.8 0 61.1-27.3 61.1-61.1V336.5H471v164.3z"/></svg>