<svg xmlns="http://www.w3.org/2000/svg" viewBox="0 0 1920 673" xml:space="preserve"><style>.st1{fill:#b58f6e}.st2{fill:#e0ac7e}.st3{opacity:.15;fill:#444;enable-background:new}.st4{fill:#ddd}.st5{fill:#a18267}.st6{fill:#bbb}</style><path fill="#e9e9e9" d="M0 0h1920v673H0z"/><path class="st1" d="M1133.5 554.5h-15v-205h15c4.4 0 8 3.6 8 8v189c0 4.4-3.6 8-8 8zm-347 0h15v-205h-15c-4.4 0-8 3.6-8 8v189c0 4.4 3.6 8 8 8z"/><path class="st2" d="M1067 592.5H853c-35.3 0-64-28.7-64-64v-384c0-35.3 28.7-64 64-64h214c35.3 0 64 28.7 64 64v384c0 35.3-28.7 64-64 64z"/><path class="st3" d="M1080 538.5H840c-17.7 0-32-14.3-32-32v-180c0-35.3 28.7-64 64-64h176c35.3 0 64 28.7 64 64v180c0 17.7-14.3 32-32 32z"/><path class="st3" d="M1048 262.5H872c-19.9 0-37.8 9.1-49.5 23.4v66.6c0 26.5 21.5 48 48 48h179c26.5 0 48-21.5 48-48v-66.6c-12.2-14.8-30.3-23.4-49.5-23.4zm19-182H853c-12.9 0-24.9 3.8-35 10.4v41.6c0 26.5 21.5 48 48 48h188c26.5 0 48-21.5 48-48V90.9c-10.1-6.6-22.1-10.4-35-10.4z"/><path class="st4" d="M898.5 449.5h-37c-1.1 0-2-.9-2-2v-2c0-1.1.9-2 2-2h37c1.1 0 2 .9 2 2v2c0 1.1-.9 2-2 2z"/><path class="st5" d="M903.5 367c0-13.5-11.3-24.3-25-23.5-11.8.7-21.4 10.4-22 22.2-.2 4.7.9 9 3 12.8 5.3 9.4 8.5 19.8 8.5 30.6v83.4c0 4.4 3.6 8 8 8h8c4.4 0 8-3.6 8-8v-81.1c0-11.4 2.6-22.7 8.3-32.6 2-3.5 3.2-7.5 3.2-11.8z"/><circle class="st4" cx="880" cy="367" r="8.5"/><path class="st4" d="M892 426.5v40h-24v-40h24m0-6h-24c-3.3 0-6 2.7-6 6v40c0 3.3 2.7 6 6 6h24c3.3 0 6-2.7 6-6v-40c0-3.3-2.7-6-6-6z"/><path class="st4" d="M883 431.5V421c0-1.1-.9-2-2-2h-2c-1.1 0-2 .9-2 2v10.5h6zm175.5 18h-37c-1.1 0-2-.9-2-2v-2c0-1.1.9-2 2-2h37c1.1 0 2 .9 2 2v2c0 1.1-.9 2-2 2z"/><path class="st5" d="M1063.5 367c0-13.5-11.3-24.3-25-23.5-11.8.7-21.4 10.4-22 22.2-.2 4.7.9 9 3 12.8 5.3 9.4 8.5 19.8 8.5 30.6v83.4c0 4.4 3.6 8 8 8h8c4.4 0 8-3.6 8-8v-81.1c0-11.4 2.6-22.7 8.3-32.6 2-3.5 3.2-7.5 3.2-11.8z"/><circle class="st4" cx="1040" cy="367" r="8.5"/><path class="st4" d="M1052 426.5v40h-24v-40h24m0-6h-24c-3.3 0-6 2.7-6 6v40c0 3.3 2.7 6 6 6h24c3.3 0 6-2.7 6-6v-40c0-3.3-2.7-6-6-6z"/><path class="st4" d="M1043 431.5V421c0-1.1-.9-2-2-2h-2c-1.1 0-2 .9-2 2v10.5h6zM904.5 216.7h-32.8c-1.1 0-2-.9-2-2v-1.4c0-1.1.9-2 2-2h32.8c1.1 0 2 .9 2 2v1.4c0 1.1-.9 2-2 2z"/><path class="st5" d="M909.2 142.6c0-12.1-10.2-21.8-22.5-21.1-10.6.7-19.2 9.3-19.7 19.9-.2 4.2.8 8.1 2.7 11.5 4.8 8.4 7.6 17.8 7.6 27.5v64.8c0 4 3.2 7.2 7.2 7.2h7.2c4 0 7.2-3.2 7.2-7.2v-62.9c0-10.2 2.3-20.4 7.5-29.2 1.8-3 2.8-6.6 2.8-10.5z"/><circle class="st4" cx="888.1" cy="142.6" r="7.6"/><path class="st4" d="M898.9 196v35.9h-21.6V196h21.6m0-5.3h-21.6c-3 0-5.4 2.4-5.4 5.4V232c0 3 2.4 5.4 5.4 5.4h21.6c3 0 5.4-2.4 5.4-5.4v-35.9c0-3-2.4-5.4-5.4-5.4z"/><path class="st4" d="M890.8 200.5v-9.4c0-1-.8-1.8-1.8-1.8h-1.8c-1 0-1.8.8-1.8 1.8v9.4h5.4zm157.5 16.2h-32.8c-1.1 0-2-.9-2-2v-1.4c0-1.1.9-2 2-2h32.8c1.1 0 2 .9 2 2v1.4c0 1.1-.9 2-2 2z"/><path class="st5" d="M1053 142.6c0-12.1-10.2-21.8-22.5-21.1-10.6.7-19.2 9.3-19.7 19.9-.2 4.2.8 8.1 2.7 11.5 4.8 8.4 7.6 17.8 7.6 27.5v64.8c0 4 3.2 7.2 7.2 7.2h7.2c4 0 7.2-3.2 7.2-7.2v-62.9c0-10.2 2.3-20.4 7.5-29.2 1.8-3 2.8-6.6 2.8-10.5z"/><circle class="st4" cx="1031.9" cy="142.6" r="7.6"/><path class="st4" d="M1042.7 196v35.9h-21.6V196h21.6m0-5.3h-21.6c-3 0-5.4 2.4-5.4 5.4V232c0 3 2.4 5.4 5.4 5.4h21.6c3 0 5.4-2.4 5.4-5.4v-35.9c0-3-2.5-5.4-5.4-5.4z"/><path class="st4" d="M1034.6 200.5v-9.4c0-1-.8-1.8-1.8-1.8h-1.8c-1 0-1.8.8-1.8 1.8v9.4h5.4z"/><path class="st5" d="m968.5 204.5-8.5 8-8.5-8v-24h17v24z"/><path class="st6" d="M1048 265.5h-9c-1.1 0-2-.9-2-2v-2c0-1.1.9-2 2-2h9c1.1 0 2 .9 2 2v2c0 1.1-.9 2-2 2z"/><path class="st4" d="m1052.5 280.1-3.2-15c-.2-.9-1-1.6-2-1.6h-2.8c-.9 0-1.8.7-2 1.6l-3.2 15c-.3 1.2.7 2.4 2 2.4h9.1c1.4 0 2.4-1.2 2.1-2.4zm-11 .4 1.7-8h5.7l1.7 8h-9.1z"/><path class="st6" d="M792 196v9c0 1.1-.9 2-2 2h-2c-1.1 0-2-.9-2-2v-9c0-1.1.9-2 2-2h2c1.1 0 2 .9 2 2z"/><path class="st4" d="m795.5 218.1-3.2-15c-.2-.9-1-1.6-2-1.6h-2.8c-.9 0-1.8.7-2 1.6l-3.2 15c-.3 1.2.7 2.4 2 2.4h9.1c1.4 0 2.4-1.2 2.1-2.4zm-11 .4 1.7-8h5.7l1.7 8h-9.1z"/><path class="st3" d="M853 80.5c-1 0-2 0-2.9.1h-.9c-.7 0-1.4.1-2.2.2-.3 0-.6 0-.9.1-.9.1-1.8.2-2.8.4-.3 0-.5.1-.8.1-.7.1-1.3.2-2 .4-.4.1-.8.2-1.1.2-.6.1-1.1.2-1.6.4-.4.1-.8.2-1.1.3-.8.2-1.6.4-2.3.7-.5.1-.9.3-1.4.5-.4.1-.7.2-1.1.4l-1.5.6c-.3.1-.5.2-.8.3-1.2.5-2.4 1-3.5 1.5h-.1l-1.8.9c-.2.1-.3.2-.5.2-20.6 10.5-34.7 31.9-34.7 56.7V194h-1c-1.1 0-2 .9-2 2v6.3c-.2.2-.3.5-.3.7l-3.2 15c-.3 1.2.7 2.4 2 2.4h4.5v129h-2.5c-4.4 0-8 3.6-8 8v189c0 4.4 3.6 8 8 8h8c10 22.4 32.4 38 58.5 38h107V80.5H853zm-64 138h-4.5l1.7-8h2.8v8z"/><path class="st4" d="M573.5 369H487l26.5 223.5h120L660 369h-86.5z"/><path class="st2" d="M502.7 535.5h141.6l15-127H487.7l15 127z"/><path class="st1" d="M658.5 340c-.3-2-2-3.5-4-3.5h-162c-2 0-3.7 1.5-3.9 3.5l-4.1 29h178l-4-29z"/><path d="M484.5 369h178l-2.2-16H486.7l-2.2 16z" fill="#937962"/><path class="st1" d="m669.9 377.1-3.3-8 1.3-8.5c.1-.6-.4-1.1-1-1.1H480.2c-.6 0-1.1.5-1 1.1l1.3 8.5-3.3 8c-.3.6.3 1.4.9 1.4h191c.6 0 1.1-.7.8-1.4z"/><path d="m480.5 369.1-1.3 3.1h188.7l-1.3-3.1.5-3.4H480l.5 3.4z" opacity=".5" fill="#937962"/><path class="st3" d="M492.5 336.5c-2 0-3.7 1.5-3.9 3.5l-2.8 19.5h-5.7c-.6 0-1.1.5-1 1.1l1.3 8.5-3.3 8c-.3.6.3 1.4.9 1.4h10.1l3.5 30h-4l15 127h4.1l6.8 57h60v-256h-81z"/><path class="st2" d="M1257 345.5h144.5v40H1257v-40z"/><path class="st2" d="m1281.5 341.5-17 251h-22v-251h39zm109 0 17 251h22v-251h-39z"/><path class="st2" d="M1253 467h168v17.5h-168V467z"/><path class="st3" d="M1429.5 361v-19.5h-39l.3 4h-109.5l.3-4h-39V361h186.9z"/><path class="st5" d="M1439 347.5h-207.5c-2.2 0-4-1.8-4-4v-3c0-2.2 1.8-4 4-4H1439c2.2 0 4 1.8 4 4v3c0 2.2-1.8 4-4 4z"/><path class="st3" d="M1340.5 484.5V467H1273l5.5-81.5h62v-49h-109c-2.2 0-4 1.8-4 4v3c0 2.2 1.8 4 4 4h11v245h22l7.3-108h68.7z"/></svg>