<svg xmlns="http://www.w3.org/2000/svg" viewBox="0 0 1920 673" xml:space="preserve"><path fill="#649e3f" d="M0 0h1920v673H0z"/><path d="M481.5 389.5h-21v-81.1l-25.1 7.8v-17.1l43.9-15.7h2.3v106.1zm144.2 0H553v-14.4l34.3-36.5c4.7-5.1 8.2-9.6 10.4-13.5 2.3-3.8 3.4-7.5 3.4-10.9 0-4.7-1.2-8.4-3.6-11.1-2.4-2.7-5.8-4-10.2-4-4.8 0-8.5 1.6-11.2 4.9-2.7 3.3-4.1 7.6-4.1 12.9h-21.1c0-6.5 1.5-12.4 4.6-17.7 3.1-5.3 7.4-9.5 13.1-12.6 5.6-3 12-4.5 19.1-4.5 10.9 0 19.4 2.6 25.4 7.9 6 5.2 9.1 12.6 9.1 22.2 0 5.2-1.4 10.6-4.1 16-2.7 5.4-7.4 11.8-14 19L580 372.6h45.6v16.9zm71.4-62.3h11.2c5.3 0 9.3-1.3 11.9-4 2.6-2.7 3.9-6.2 3.9-10.6 0-4.3-1.3-7.6-3.8-10-2.5-2.4-6.1-3.6-10.5-3.6-4 0-7.4 1.1-10.1 3.3-2.7 2.2-4.1 5.1-4.1 8.6h-21c0-5.5 1.5-10.5 4.5-14.9s7.2-7.8 12.5-10.3c5.4-2.5 11.3-3.7 17.7-3.7 11.2 0 20 2.7 26.4 8 6.4 5.4 9.5 12.8 9.5 22.2 0 4.9-1.5 9.3-4.4 13.4-3 4.1-6.8 7.2-11.6 9.4 6 2.1 10.4 5.3 13.4 9.6 2.9 4.3 4.4 9.3 4.4 15.1 0 9.4-3.4 17-10.3 22.6-6.9 5.7-16 8.5-27.3 8.5-10.6 0-19.2-2.8-26-8.4-6.7-5.6-10.1-13-10.1-22.1h21c0 4 1.5 7.2 4.5 9.8s6.7 3.8 11 3.8c5 0 8.9-1.3 11.8-4 2.8-2.6 4.3-6.2 4.3-10.5 0-10.6-5.8-15.9-17.5-15.9h-11.1v-16.3zm163.5 22.4h12v17h-12v22.9h-21v-22.9h-43.5l-.9-13.2 44.2-69.8h21.3v66zm-44.5 0h23.4v-37.4l-1.4 2.4-22 35zm108-12.2 6.1-53.9h59.4V301h-42.1l-2.6 22.8c5-2.7 10.3-4 15.9-4 10.1 0 18 3.1 23.7 9.4 5.7 6.3 8.6 15 8.6 26.3 0 6.8-1.4 13-4.3 18.4-2.9 5.4-7 9.6-12.4 12.6s-11.7 4.5-19.1 4.5c-6.4 0-12.4-1.3-17.8-3.9-5.5-2.6-9.8-6.2-13-11-3.2-4.7-4.9-10.1-5.1-16.1h20.8c.4 4.4 2 7.9 4.6 10.3 2.6 2.5 6.1 3.7 10.4 3.7 4.8 0 8.4-1.7 11-5.1 2.6-3.4 3.9-8.3 3.9-14.5 0-6-1.5-10.6-4.4-13.8s-7.2-4.8-12.6-4.8c-5 0-9.1 1.3-12.2 3.9l-2 1.9-16.8-4.2zm176.6-55v17.3h-2c-9.5.1-17.2 2.6-23 7.4-5.8 4.8-9.3 11.5-10.4 20 5.6-5.7 12.7-8.6 21.3-8.6 9.2 0 16.5 3.3 22 9.9 5.4 6.6 8.2 15.3 8.2 26.1 0 6.9-1.5 13.1-4.5 18.7s-7.2 9.9-12.7 13c-5.5 3.1-11.6 4.7-18.5 4.7-11.2 0-20.2-3.9-27-11.6-6.9-7.8-10.3-18.1-10.3-31.1v-7.6c0-11.5 2.2-21.7 6.5-30.5s10.6-15.6 18.7-20.5c8.1-4.8 17.6-7.3 28.3-7.3h3.4zm-20.5 53.2c-3.4 0-6.5.9-9.2 2.7-2.8 1.8-4.8 4.1-6.1 7v6.4c0 7 1.4 12.5 4.1 16.5 2.8 3.9 6.6 5.9 11.6 5.9 4.5 0 8.2-1.8 11-5.3 2.8-3.6 4.2-8.2 4.2-13.8 0-5.8-1.4-10.4-4.2-14-2.8-3.7-6.6-5.4-11.4-5.4zm88.6 43.6c0-3.3 1.1-6.1 3.4-8.2s5.1-3.1 8.5-3.1c3.4 0 6.3 1 8.6 3.1s3.4 4.8 3.4 8.2c0 3.3-1.1 6-3.3 8-2.2 2.1-5.1 3.1-8.6 3.1-3.4 0-6.3-1-8.5-3.1-2.4-2.1-3.5-4.7-3.5-8zm34.4 0c0-3.3 1.1-6.1 3.4-8.2s5.1-3.1 8.5-3.1c3.4 0 6.3 1 8.6 3.1s3.4 4.8 3.4 8.2c0 3.3-1.1 6-3.3 8-2.2 2.1-5.1 3.1-8.6 3.1-3.4 0-6.3-1-8.5-3.1-2.3-2.1-3.5-4.7-3.5-8zm33.8 0c0-3.3 1.1-6.1 3.4-8.2s5.1-3.1 8.5-3.1c3.4 0 6.3 1 8.6 3.1s3.4 4.8 3.4 8.2c0 3.3-1.1 6-3.3 8-2.2 2.1-5.1 3.1-8.6 3.1-3.4 0-6.3-1-8.5-3.1-2.4-2.1-3.5-4.7-3.5-8zm98.2-52h11.2c5.3 0 9.3-1.3 11.9-4 2.6-2.7 3.9-6.2 3.9-10.6 0-4.3-1.3-7.6-3.8-10-2.5-2.4-6.1-3.6-10.5-3.6-4 0-7.4 1.1-10.1 3.3-2.7 2.2-4.1 5.1-4.1 8.6h-21c0-5.5 1.5-10.5 4.5-14.9s7.2-7.8 12.5-10.3c5.4-2.5 11.3-3.7 17.7-3.7 11.2 0 20 2.7 26.4 8 6.4 5.4 9.5 12.8 9.5 22.2 0 4.9-1.5 9.3-4.4 13.4-3 4.1-6.8 7.2-11.6 9.4 6 2.1 10.4 5.3 13.4 9.6 2.9 4.3 4.4 9.3 4.4 15.1 0 9.4-3.4 17-10.3 22.6-6.9 5.7-16 8.5-27.3 8.5-10.6 0-19.2-2.8-26-8.4-6.7-5.6-10.1-13-10.1-22.1h21c0 4 1.5 7.2 4.5 9.8s6.7 3.8 11 3.8c5 0 8.9-1.3 11.8-4 2.8-2.6 4.3-6.2 4.3-10.5 0-10.6-5.8-15.9-17.5-15.9h-11.1v-16.3zm135.4 18.5c0 14.7-3 25.9-9.1 33.6-6.1 7.8-14.9 11.6-26.6 11.6-11.6 0-20.4-3.8-26.5-11.4-6.1-7.6-9.2-18.5-9.4-32.8v-19.5c0-14.8 3.1-26 9.2-33.7 6.1-7.7 15-11.5 26.5-11.5s20.4 3.8 26.5 11.4c6.1 7.6 9.2 18.5 9.4 32.7v19.6zm-21-21.5c0-8.8-1.2-15.2-3.6-19.2-2.4-4-6.2-6-11.2-6-5 0-8.6 1.9-11 5.7-2.4 3.8-3.6 9.8-3.7 17.9v25.8c0 8.6 1.2 15.1 3.5 19.3 2.4 4.2 6.1 6.3 11.3 6.3 5.1 0 8.9-2 11.1-6 2.3-4 3.5-10.2 3.6-18.5v-25.3zm-589-156.6h12v17h-12v22.9h-21v-22.9h-43.5l-.9-13.2 44.2-69.8h21.3v66zm-44.5 0h23.4v-37.4l-1.4 2.4-22 35zm284.6-67.2v17.3h-2c-9.5.1-17.2 2.6-23 7.4-5.8 4.8-9.3 11.5-10.4 20 5.6-5.7 12.7-8.6 21.3-8.6 9.2 0 16.5 3.3 22 9.9 5.4 6.6 8.2 15.3 8.2 26.1 0 6.9-1.5 13.1-4.5 18.7s-7.2 9.9-12.7 13c-5.5 3.1-11.6 4.7-18.5 4.7-11.2 0-20.2-3.9-27-11.6-6.9-7.8-10.3-18.1-10.3-31.1v-7.6c0-11.5 2.2-21.7 6.5-30.5s10.6-15.6 18.7-20.5c8.1-4.8 17.6-7.3 28.3-7.3h3.4zm-20.5 53.1c-3.4 0-6.5.9-9.2 2.7-2.8 1.8-4.8 4.1-6.1 7v6.4c0 7 1.4 12.5 4.1 16.5 2.8 3.9 6.6 5.9 11.6 5.9 4.5 0 8.2-1.8 11-5.3 2.8-3.6 4.2-8.2 4.2-13.8 0-5.8-1.4-10.4-4.2-14-2.8-3.6-6.6-5.4-11.4-5.4zM860.6 531.7h12v17h-12v22.9h-21v-22.9h-43.5l-.9-13.2 44.2-69.8h21.3v66zm-44.5 0h23.4v-37.4l-1.4 2.4-22 35zm284.6-67.2v17.3h-2c-9.5.1-17.2 2.6-23 7.4-5.8 4.8-9.3 11.5-10.4 20 5.6-5.7 12.7-8.6 21.3-8.6 9.2 0 16.5 3.3 22 9.9 5.4 6.6 8.2 15.3 8.2 26.1 0 6.9-1.5 13.1-4.5 18.7s-7.2 9.9-12.7 13c-5.5 3.1-11.6 4.7-18.5 4.7-11.2 0-20.2-3.9-27-11.6-6.9-7.8-10.3-18.1-10.3-31.1v-7.6c0-11.5 2.2-21.7 6.5-30.5s10.6-15.6 18.7-20.5c8.1-4.8 17.6-7.3 28.3-7.3h3.4zm-20.5 53.1c-3.4 0-6.5.9-9.2 2.7-2.8 1.8-4.8 4.1-6.1 7v6.4c0 7 1.4 12.5 4.1 16.5 2.8 3.9 6.6 5.9 11.6 5.9 4.5 0 8.2-1.8 11-5.3 2.8-3.6 4.2-8.2 4.2-13.8 0-5.8-1.4-10.4-4.2-14-2.8-3.6-6.6-5.4-11.4-5.4z" fill="#122a3a"/></svg>