<svg xmlns="http://www.w3.org/2000/svg" viewBox="0 0 1920 673" xml:space="preserve"><style>.st1{fill:#bbb}.st3{fill:#ddd}.st4{fill:#36434f}.st5{fill:#2e86b7}.st6{opacity:.15;fill:#444;enable-background:new}.st7{fill:#4caf50}.st8{fill:#cc584c}.st10{fill:#bb9f45}</style><path fill="#e0ac7e" d="M0 0h1920v673H0z"/><path class="st1" d="M960 551.5h-7.4l4.6 27.8c.4 2 5.2 2 5.6 0l4.6-27.8H960z"/><path d="M960 464.8h-22.1v21.3c0 5.4.7 10.8 2 16.1l12.8 51.1h14.8l12.8-51.1c1.3-5.3 2-10.7 2-16.1v-21.3H960z" fill="#7193ad"/><path class="st3" d="M983.7 466.7h-47.3c-2.2 0-4-1.8-4-4V127h55.3v335.7c0 2.2-1.8 4-4 4z"/><path class="st4" d="M951.7 182h16.6v284.7h-16.6V182z"/><path class="st5" d="M930.5 286.5h59v147h-59v-147z"/><path class="st1" d="M951.7 81.6h16.6V183h-16.6V81.6z"/><path class="st5" d="M987.7 129.9h-55.3V77c0-4.4 3.6-8 8-8h39.3c4.4 0 8 3.6 8 8v52.9z"/><circle class="st4" cx="960" cy="577" r="4"/><path class="st6" d="M940.3 69c-4.4 0-8 3.6-8 8v209.5h-1.8v147h1.8v29.2c0 2.2 1.8 4 4 4h1.5v19.5c0 5.4.7 10.8 2 16.1l12.8 51.1h.3l3.6 21.8c-.3.6-.5 1.2-.5 1.9 0 2.2 1.8 4 4 4V69h-19.7z"/><path class="st7" d="M1264.5 475h-40c-5.5 0-10-4.5-10-10V182.5h60V465c0 5.5-4.5 10-10 10z"/><path class="st6" d="M1232 182.5V475h-7.5c-5.5 0-10-4.5-10-10V182.5h17.5zm25 0V475h7.5c5.5 0 10-4.5 10-10V182.5H1257z"/><path class="st7" d="M1253.3 127.5c2.3 0 4.3-.3 6.5-.7L1244.5 70l-13.3 49.5c6 5 13.8 8 22.1 8z"/><path class="st8" d="M1255.8 582h-22.5c-8.8 0-16-7.2-16-16v-22.5h54.5V566c0 8.8-7.2 16-16 16z"/><path d="M1274.5 434.5h-60v110c0 1.1.9 2 2 2h56c1.1 0 2-.9 2-2v-110z" fill="#eec646"/><path class="st6" d="M1214.5 454.5h60v3h-60v-3zm0 6h60v3h-60v-3zm0 6h60v3h-60v-3zm0 47h60v3h-60v-3zm0 6h60v3h-60v-3zm0 6h60v3h-60v-3zm0-44.5h3v23h-3v-23zm6.3 0h3v23h-3v-23zm6.4 0h3v23h-3v-23zm6.3 0h3v23h-3v-23zm6.3 0h3v23h-3v-23zm6.4 0h3v23h-3v-23zm6.3 0h3v23h-3v-23zm6.3 0h3v23h-3v-23zm6.4 0h3v23h-3v-23zm6.3 0h3v23h-3v-23z"/><path class="st3" d="M1274.4 183c0-.2.1-.3.1-.5l-15-56.3c-2 .3-4 .5-6.3.5-8.2 0-16-3-21.8-8l-17 63.8c0 .2 0 .3.1.5h59.9z"/><circle class="st10" cx="1228" cy="524" r="3.5"/><circle class="st10" cx="1258" cy="524" r="3.5"/><path class="st6" d="m1231.3 119.5-16.8 63v362c0 1.1.9 2 2 2h.8V566c0 8.8 7.2 16 16 16h11.2V70l-13.2 49.5z"/><path class="st8" d="M673.7 533.6c-.5 4.1-.7 8.3-.7 12.5 0 10 1.3 19.8 3.8 29 2.1 7.8 13.3 7.8 15.4 0 2.5-9.3 3.8-19 3.8-29 0-4.2-.2-8.4-.7-12.5h-21.6zM718 90h-67V77c0-4.4 3.6-8 8-8h51c4.4 0 8 3.6 8 8v13z"/><path class="st3" d="M684.5 452h-31v50.2c0 3 1.6 5.7 4.3 7.1l12.7 6.7v34h28v-34l12.7-6.7c2.6-1.4 4.3-4.1 4.3-7.1V452h-31z"/><path class="st6" d="M715.5 466v-14h-62v14h62z"/><path class="st3" d="M719.5 457h-70c-2.2 0-4-1.8-4-4V91c0-2.2 1.8-4 4-4h70c2.2 0 4 1.8 4 4v362c0 2.2-1.8 4-4 4z"/><path class="st8" d="M645.5 438h78v8h-78v-8zm65-261v-75c0-2.2-1.8-4-4-4h-44c-2.2 0-4 1.8-4 4v75c0 2.2 1.8 4 4 4h2c2.2 0 4 1.8 4 4v14c0 2.2-1.8 4-4 4h-2c-2.2 0-4 1.8-4 4v210c0 2.2 1.8 4 4 4h44c2.2 0 4-1.8 4-4V207c0-2.2-1.8-4-4-4h-2c-2.2 0-4-1.8-4-4v-14c0-2.2 1.8-4 4-4h2c2.2 0 4-1.8 4-4z"/><path class="st6" d="M659 69c-4.4 0-8 3.6-8 8v10h-1.5c-2.2 0-4 1.8-4 4v362c0 2.2 1.8 4 4 4h4v45.2c0 3 1.6 5.7 4.3 7.1l12.7 6.7v34h2.6c.3 8.7 1.6 17.1 3.7 25.1 1 3.9 4.4 5.9 7.7 5.9V69H659z"/></svg>