<svg xmlns="http://www.w3.org/2000/svg" viewBox="0 0 1920 673" xml:space="preserve"><style>.st1{fill:#36434f}.st2{fill:#ffcc80}.st3{fill:#f4f4f4}.st4{fill:#e3b877}.st5{opacity:.15;fill:#444;enable-background:new}</style><path fill="#3aaf9d" d="M0 0h1920v673H0z"/><path class="st1" d="M1125.7 540.5h223.6c12.6 0 25-3.7 35.5-10.7 19.4-12.9 41.4-27.7 60-40.2 21.1-14.3 31.8-39.7 27.1-64.8l-19-101.8c-22.5-138.9-110.4-242.5-215.4-242.5S1044.6 184.1 1022.1 323l-19 101.8c-4.7 25.1 6 50.5 27.1 64.8 18.6 12.5 40.6 27.3 60 40.2 10.5 7 22.9 10.7 35.5 10.7z"/><path class="st2" d="M1383.5 283.5c0-72.4-65.4-131-146-131s-146 58.7-146 131l17.3 183c3.2 34.1 20.8 65.7 49.1 88.6l25.4 20.5c13.4 10.9 30.9 16.9 49 16.9h10.6c18.1 0 35.5-6 49-16.9l25.4-20.5c28.3-22.9 45.8-54.6 49.1-88.6l17.1-183z"/><circle class="st1" cx="1176.2" cy="367.3" r="26.4"/><ellipse class="st3" cx="1190.8" cy="362.4" rx="7.5" ry="8.5"/><circle class="st1" cx="1298.8" cy="367.3" r="26.4"/><ellipse class="st3" cx="1313.4" cy="362.4" rx="7.5" ry="8.5"/><path class="st4" d="M1239.1 460.8h-3.2c-8.8 0-16-7.2-16-16v-16.4c0-8.8 7.2-16 16-16h3.2c8.8 0 16 7.2 16 16v16.4c0 8.8-7.1 16-16 16zm39.1 44.1c0 7.9-6.4 14.4-14.4 14.4h-52.7c-7.9 0-14.4-6.4-14.4-14.4 0-7.9 6.4-14.4 14.4-14.4h52.7c8 0 14.4 6.4 14.4 14.4z"/><path class="st1" d="M1442 274.3c-33.1-113.7-112.2-193.8-204.5-193.8-96.1 0-177.9 86.7-208.3 207.9 24.7 14.7 53.5 23.1 84.3 23.1 65.9 0 122.7-38.6 149.2-94.4 30.2 39.1 77.5 64.4 130.8 64.4 16.9 0 33.1-2.5 48.5-7.2z"/><path class="st5" d="M1232.8 80.6c-.5 0-1 0-1.6.1-1 0-2.1.1-3.1.1-.6 0-1.2.1-1.8.1-.9.1-1.9.1-2.8.2-.7.1-1.3.1-2 .2l-2.7.3c-.7.1-1.3.2-2 .3-.9.1-1.7.2-2.6.4-.7.1-1.4.2-2 .3-.9.1-1.7.3-2.6.4-.7.1-1.4.2-2 .4-.9.2-1.7.3-2.6.5-.7.1-1.3.3-2 .4-.9.2-1.7.4-2.6.6-.6.2-1.3.3-1.9.5-.9.2-1.8.5-2.6.7-.6.2-1.2.3-1.8.5-1 .3-1.9.6-2.9.8-.5.2-1.1.3-1.6.5-1.5.5-2.9.9-4.3 1.4-.4.2-.9.3-1.3.5-1 .4-2 .7-3.1 1.1-.6.2-1.2.5-1.9.7-.8.3-1.7.6-2.5 1-.7.3-1.3.6-2 .8-.8.3-1.5.6-2.3 1l-2.1.9c-.7.3-1.5.7-2.2 1-.7.3-1.4.7-2.1 1-.7.3-1.4.7-2.1 1-.7.4-1.4.7-2.1 1.1-.7.4-1.4.7-2 1.1l-2.1 1.2c-.7.4-1.3.7-2 1.1-.7.4-1.4.8-2.2 1.2-.6.4-1.3.8-1.9 1.1-.7.4-1.5.9-2.2 1.3-.6.4-1.2.8-1.8 1.1-.8.5-1.5.9-2.2 1.4-.5.3-1 .7-1.5 1-3 2-6 4.1-8.9 6.3-.4.3-.8.6-1.1.8-.8.6-1.7 1.3-2.5 1.9-.5.4-.9.7-1.4 1.1-.8.6-1.6 1.3-2.4 1.9-.5.4-.9.8-1.4 1.1-.8.7-1.6 1.3-2.4 2-.5.4-.9.8-1.4 1.2l-2.4 2.1c-.4.4-.9.8-1.3 1.2-.8.7-1.6 1.4-2.4 2.2l-1.2 1.2c-.8.8-1.6 1.5-2.4 2.3l-1.1 1.1-2.5 2.5-.9.9c-.9.9-1.7 1.8-2.6 2.7-.2.2-.3.4-.5.5-5.4 5.7-10.5 11.7-15.5 18.1-.1.1-.2.2-.2.3-.9 1.2-1.8 2.3-2.7 3.5-.2.2-.3.4-.5.6-.9 1.1-1.7 2.3-2.5 3.4-.2.2-.4.5-.5.7-.8 1.2-1.7 2.3-2.5 3.5-.2.2-.3.5-.5.7-.8 1.2-1.7 2.4-2.5 3.6-.1.2-.3.4-.4.7-.8 1.3-1.7 2.5-2.5 3.8-.1.1-.2.3-.3.4-8.4 13-16 26.9-22.7 41.7 0 0 0 .1-.1.1-.7 1.6-1.5 3.3-2.2 4.9 0 .1 0 .1-.1.2-.7 1.7-1.4 3.3-2.1 5-11.4 27.2-19.9 57-25 88.6l-19 101.8c-4.7 25.1 6 50.5 27.1 64.8 18.6 12.5 40.6 27.3 60 40.2 10.5 7 22.9 10.7 35.5 10.7h16.6c4.7 5.2 9.9 10.1 15.5 14.6l25.4 20.5c13.4 10.9 30.9 16.9 49 16.9h5.3V80.5c-1.6 0-3.1 0-4.7.1z"/><path class="st2" d="M851.1 348.2c-5.5-1.3-11.4 1.2-17 6.4l11.7-114.5c0-85.8-73.1-155.3-163.3-155.3s-163.3 69.5-163.3 155.3l11.7 114.5c-5.6-5.1-11.5-7.5-16.9-6.3-13.9 3.3-19.8 29.2-13 57.9 6.7 28.7 23.5 49.4 37.4 46.1.8-.2 1.7-.5 2.4-.8L542 463c4.1 40.6 27.1 77.3 62.6 100.2l27 17.4c11.9 7.7 26 11.8 40.4 11.8h21c14.4 0 28.5-4.1 40.4-11.8l27-17.4c35.5-22.9 58.5-59.6 62.6-100.2l1.2-11.7c.8.4 1.7.7 2.5.9 13.9 3.3 30.7-17.4 37.4-46.1s.9-54.5-13-57.9z"/><path class="st1" d="M859.3 213.3c-.6-73.5-79.5-132.9-176.8-132.9s-176.2 59.4-176.8 132.9l27.9 168.6 8.2-166.5c36 16.1 85.7 26.1 140.7 26.1s104.7-10 140.7-26.1l8.2 166.5 27.9-168.6z"/><path class="st4" d="M684.1 448.7h-3.2c-8.8 0-16-7.2-16-16v-16.4c0-8.8 7.2-16 16-16h3.2c8.8 0 16 7.2 16 16v16.4c0 8.8-7.1 16-16 16zm39.1 51.2v3.2c0 8.8-7.2 16-16 16h-49.5c-8.8 0-16-7.2-16-16v-3.2c0-8.8 7.2-16 16-16h49.5c8.9 0 16 7.2 16 16z"/><circle class="st1" cx="615.2" cy="356.2" r="26.4"/><ellipse class="st3" cx="629.8" cy="351.3" rx="7.5" ry="8.5"/><circle class="st1" cx="749.8" cy="356.2" r="26.4"/><ellipse class="st3" cx="764.4" cy="351.3" rx="7.5" ry="8.5"/><path class="st5" d="m505.7 213.3 23.1 139.5c-4.9-3.9-10-5.6-14.8-4.5-13.9 3.3-19.7 29.2-13 57.9 6.7 28.7 23.5 49.4 37.4 46.1.8-.2 1.6-.5 2.4-.8l1.2 11.6c4.1 40.6 27.1 77.3 62.6 100.2l27 17.4c11.9 7.7 26 11.8 40.4 11.8h10.5V80.4c-97.3 0-176.2 59.4-176.8 132.9z"/></svg>