<svg xmlns="http://www.w3.org/2000/svg" viewBox="0 0 1920 673" xml:space="preserve"><style>.st2{fill:#36434f}.st4{fill:#f4f4f4}</style><path fill="#2e86b7" d="M0 0h1920v673H0z"/><path d="M1088.1 368.4c-4.2-1-8.6.8-12.9 4.8l8.9-86.8c0-65-55.5-117.6-124-117.6s-124 52.6-124 117.6l8.9 86.8c-4.3-3.9-8.7-5.8-12.9-4.8-10.5 2.5-15 22.1-9.9 43.9 5.1 21.8 17.8 37.4 28.3 35 .7-.2 1.3-.3 1.9-.7l.9 8.8c0 .1 8.4 8.6 8.4 8.7 3.3 30.6 12.3 50 39.1 67.2l20.5 13.2c9 5.8 19.7 8.9 30.7 8.9h16c11 0 21.7-3.1 30.7-8.9l20.5-13.2c26.9-17.3 36-36.7 39.1-67.3 0-.1 8.4-8.5 8.4-8.6l.9-8.8c.6.3 1.3.5 1.9.7 10.5 2.5 23.2-13.2 28.3-35 5.3-21.8.8-41.5-9.7-43.9z" fill="#ffcc80"/><path class="st2" d="M1094.3 266.1c-.5-55.7-60.5-100.7-134.3-100.7s-133.8 45-134.3 100.7L847 393.8l6.2-126.1c27.3 12.2 65.1 19.8 106.8 19.8s79.5-7.6 106.9-19.8l6.2 126.1 21.2-127.7zM1011 464.7l-11.4-3.8c-11-3.8-22.7-5.7-34.4-5.7h-10.4c-11.7 0-23.2 1.9-34.4 5.7l-11.4 3.8c-13 4.3-27 3.7-39.5-2l-16.4-7.5 11.9 75.2c3.4 21.8 16.6 40.9 35.8 51.9 11.5 6.6 24.6 10.1 38 10.1h42.4c13.3 0 26.4-3.5 38-10.1 19.1-11 32.4-30.1 35.8-51.9l11.9-75.2-16.4 7.5c-12.4 5.7-26.5 6.4-39.5 2z"/><path d="M960 444.5c-7.4 0-13.4-6-13.4-13.3v-10c0-7.3 6-13.3 13.4-13.3s13.4 6 13.4 13.3v10c.1 7.2-5.9 13.3-13.4 13.3zm31 40c0 7.3-6 13.3-13.4 13.3h-35.1c-7.4 0-13.4-6-13.4-13.3s6-13.3 13.4-13.3h35.1c7.4 0 13.4 6 13.4 13.3z" fill="#e3b877"/><ellipse class="st2" cx="909" cy="352.7" rx="20.1" ry="20"/><ellipse class="st4" cx="920" cy="348.9" rx="5.7" ry="6.4"/><ellipse class="st2" cx="1011.2" cy="352.7" rx="20.1" ry="20"/><ellipse class="st4" cx="1022.3" cy="348.9" rx="5.7" ry="6.4"/><path class="st2" d="m848 400.2 170.5-113.9-8.9-13.3-162 108.2-.6 12.6 1 6.4z"/><circle class="st2" cx="904.8" cy="352.7" r="40.1"/><path d="M1104.4 294.4H815.8c-7.1 0-12.9-5.8-12.9-12.9v-13.7h314.5v13.7c-.1 7.1-5.8 12.9-13 12.9z" fill="#cc584c"/><path d="M1162.3 198.2c-.7 0-1.5.1-2.1.2-2.6.3-5.2.5-7.7.5-7.1 0-14-1.2-20.6-3.5-13.4-4.7-24.4-14.7-31.2-28.2-12.8-25.7-32.5-47.3-56.9-62.6-25-15.8-54-24.1-83.7-24.1s-58.6 8.2-83.7 24c-24.4 15.3-44 36.9-56.9 62.6-6.8 13.4-17.8 23.5-31.2 28.2-6.6 2.3-13.5 3.5-20.6 3.5-2.6 0-5.2-.2-7.7-.5-.7-.1-1.4-.2-2.1-.2h-.1c-2.3 0-4.3 2-4.3 4.3v17.1h412.9v-17c.2-2.3-1.7-4.3-4.1-4.3z" fill="#eec646"/><path class="st2" d="M1166.3 214.7c-.2-2.3-2.3-3.9-4.5-3.6-3.1.4-6.1.6-9.3.6-8.7 0-17.1-1.4-24.8-4.2-16.9-6-30.5-18.6-38.5-34.6-23.8-47.2-72.7-79.7-129.2-79.7s-105.3 32.5-129 79.6c-8 16-21.6 28.6-38.5 34.6-7.7 2.7-16.1 4.2-24.8 4.2-3.1 0-6.3-.2-9.3-.6-2.3-.2-4.4 1.4-4.5 3.6-.2 1.6-.2 3.2-.2 4.9 0 27.1 22 49.1 49.2 49.1h314.4c27.2 0 49.2-22 49.2-49.1.1-1.6-.1-3.2-.2-4.8z"/><path class="st4" d="M989 182.9c3.3-1.9 5.6-5.1 6.6-8.7.5-1.7 1.6-3.1 3.4-3.9 2.6-1.1 5.6-.2 7.3 2 1.3 1.8 1.5 3.9.6 5.8 1.9.2 3.8 1.4 4.8 3.5 1.2 2.6.4 5.6-1.9 7.2-1.5 1.1-3.4 1.4-5.1 1-3.7-.9-7.6-.5-10.8 1.4l-1.8 1-20.3 11.7-9.8-5.6 25.2-14.5 1.8-.9zm-61 35.2-1.8 1c-3.3 1.9-7.2 2.3-10.8 1.4-1.7-.4-3.5-.2-5.1 1-2.3 1.7-3.1 4.7-1.9 7.2.9 2 2.7 3.2 4.8 3.5-.8 1.9-.6 4 .6 5.8 1.6 2.3 4.7 3.1 7.3 2 1.8-.7 2.9-2.3 3.4-3.9 1-3.6 3.3-6.8 6.6-8.7l1.8-1 25.2-14.5-9.7-5.6-20.4 11.8zm81.8 3.3c-1.5-1.1-3.4-1.4-5.1-1-3.7.9-7.6.5-10.9-1.4l-1.8-1-59.3-34.1-1.8-1c-3.2-1.9-5.6-5.1-6.6-8.7-.5-1.7-1.6-3.1-3.4-3.9-2.6-1.1-5.6-.2-7.3 2-1.3 1.8-1.4 3.9-.6 5.8-2 .2-3.8 1.4-4.8 3.5-1.1 2.6-.3 5.6 1.9 7.2 1.5 1.1 3.4 1.4 5.1 1 3.7-.9 7.6-.5 10.8 1.4l1.8 1 59.3 34.1 1.8 1c3.2 1.9 5.6 5.1 6.6 8.7.5 1.7 1.6 3.1 3.4 3.9 2.6 1.1 5.6.2 7.3-2 1.3-1.8 1.4-3.9.6-5.8 2-.2 3.8-1.4 4.8-3.5 1.2-2.4.5-5.5-1.8-7.2zm-78.3-61.9-2-20c0-16.2 13.7-29.3 30.6-29.3 12.3 0 22.8 6.8 27.7 16.8 1.9 3.8 2.9 8 2.9 12.5l-2 20c-.5 4.8-4 8.8-8.8 9.7l-1.3.2c-1.5.3-2.4 1.7-2.3 3.1l.8 6c.6 4.5-2.6 8.6-7.1 9.1l-3.9.4c-4 .5-8.1.5-12.2 0l-3.9-.4c-4.5-.5-7.7-4.6-7.1-9.1l.8-6c.2-1.4-.7-2.8-2.3-3.1l-1.3-.2c-4.5-1-8-4.9-8.6-9.7zm33.3-.9c0 .1 0 .2.1.2.6 2.1 2.3 3.8 4.4 4.5l4.4 1.4c3.3 1.1 6.7-1.5 6.4-5.1l-.2-3.6c-.2-2.6-2.5-4.4-5.1-4.1l-5.3.7c-3 .5-5.2 3.2-4.7 6zm-8.5 14.3c0 1.7 1.8 3.1 3.9 3.1 2.2 0 3.9-1.4 3.9-3.1 0-1.7-3.3-7.8-3.9-7.8-.7 0-3.9 6.1-3.9 7.8zm-9.6-8.1 4.4-1.4c2.2-.7 3.8-2.4 4.4-4.5 0-.1 0-.2.1-.2.3-2.8-1.7-5.5-4.6-5.8l-5.3-.7c-2.6-.3-4.8 1.5-5.1 4.1l-.2 3.6c-.4 3.4 2.9 6 6.3 4.9z"/><path d="M960 80.5c-29.7 0-58.6 8.3-83.7 24.1-24.4 15.3-44 36.9-56.9 62.6-6.8 13.4-17.8 23.5-31.2 28.2-6.6 2.3-13.5 3.5-20.6 3.5-2.6 0-5.2-.2-7.7-.5-.7-.1-1.4-.2-2.1-.2h-.1c-2.3 0-4.3 2-4.3 4.3v17.1h.2c0 27.1 22 49 49.1 49.1v12.8c0 7.1 5.8 12.9 12.9 12.9h14.8l12.9 77.4c-3.8-3-7.6-4.3-11.3-3.4-10.5 2.5-15 22.1-9.9 43.9 5.1 21.8 17.8 37.4 28.3 35 .7-.2 1.3-.3 1.9-.7l.9 8.7h-.1l11.9 75.2c3.4 21.8 16.6 40.9 35.8 51.9 11.5 6.6 24.6 10.1 38 10.1H960v-512z" opacity=".15" fill="#444"/></svg>