<svg xmlns="http://www.w3.org/2000/svg" viewBox="0 0 1920 673" xml:space="preserve"><style>.st2{fill:#e2e2e2}.st3{fill:#adadad}.st4{fill:#052a3a}</style><path fill="#0a3d59" d="M0 0h1920v673H0z"/><g opacity=".1"><circle class="st2" cx="1207" cy="173" r="154"/><path class="st3" d="m1057.8 209.6 3.8 5.6c-.2 2.3 1.7 4.2 3.1 6 2.1 2.5 3.7 6 2.3 9 1.5-1.4 2.3-3.5 2.2-5.6 1.5 1.1 2.1 2.9 2.5 4.8s.5 3.7 1.6 5.2c1.4 2.2 6.3.9 5.8 2.6v.1l-.5 1.7c1.4.4 3.4-1.9 3.8-2.9.4-1.1 3 .2 3.7.9.7.7 2.9.1 3.5-.4.5-.4 1 1.2 1 1.7s.4.8.5.8c.1 0 .2-.6.2-1.4l-.1-.7-.4-2.2c1.3-1.1 2.3-2.2 2.3-2.5 0-.4-.4-.9-.5-.7-.1.2-.6-.6-.7-.9-.1-.2-.4-.5-.4-.5s-.2 1.1-.2 1.6c-.1.4-.4.8-.4.8-.1 0-.7-1.9-1-2.6-.2-.8.7-1.5 1.1-1.5.5-.1.9-3.2.9-4.3 0-1.2-.6-2.6-.8-3.6 2.1.4 2.9 2.3 3.5 4.2l1.6 5.2c.3 1 .6 2 .2 3-.4 1-1.8 1.4-2.5.7-1 .7.1 2.3 1.3 2.5 1.2.3 2.6.3 3.2 1.4.7 1.3-1 2.8-2.5 2.9-1.5.1-3.1-.4-4.5.1s-2.3 1.7-2.9 3.1c-.8 2-1.1 4.3-.8 6.4 1.1 6.5 7.5 10.7 10.5 16.5.7 1.3 1.2 2.6 2.4 3.4 1.2.8 3.2.3 3.4-1.1 4.3 2.5 8.4 5.5 12.2 8.7-1.1-1-.9-5.4-.5-6.6.4-1.5 3.1-3.5 3.1-4.8 0-.4-.2-.8-.4-1.3-.3-.9.1-2 .8-2.6 1.3.3 1.4 2.8 2.7 2.5.4-.1.6-.4 1-.5 1.3-.4 2.5 2 3.4 1.1-1.2-2.3-2.4-4.5-3.6-6.8 1.1.7 2.6.4 3.8 1 1.4.7 1.8 2.5 1.8 4 0 .8-.1 1.7-.3 2.5 1.2-.1 2.9.4 2.7 1.6-1.6-1.3-4.1-.9-5.2.7-.7.9-.9 2-1.5 2.9-.6 1-1.9 1.7-2.8 1 .4 2.2.7 4.6 2.2 6.3 3.1 3.4 9 2.5 12.3 5.7-.7-2.6-2.8-4.8-5.4-5.5.7-.1 1.4-.2 2.2-.4l-1.6-1.1c1.3-1.1 3.4-1 4.6.1-2.6 2.9 3.2 2 4.4 1.3.7-.4 1-2.7 1.7-3.1.7-.4-1.1-1.6-1.9-1.9-.7-.2-1.5.5-1.6 1-.1.4-.9-.3-1.1-.6-.2-.3-.8-.2-.8-.1-.1.1-1.2-.2-2.4-.5l-1-.3-1.1-.4c-1.1-.4-1.9-2-1.7-2.5.1-.4.7-.7 1-.5.3.1.6-.7.6-1 0-.2 1.3.2 1.7.4.5.2 1.2.1 1.3.1.1-.1-.5-1.4-.7-1.9s1.1-.2 1.7.1c.5.4 2.6 1.5 3.3 1.7.7.2 1.3.3 1.4.2s-.7-.8-1-1.1.7-4.2-.4-5.2-3.5-4.9-4.8-5.3c-1.3-.4-2-2.8-1.9-3.4.1-.7.4-1.3.5-1.4.1-.1 2.4 3.8 3.4 5.2 1 1.4 2.2 3.4 2.5 3.7 3.1 3.1 6 6.4 9.5 8.9-.7-1.9-1.4-3.7-2-5.5 1 .9 1.6 2.1 2.5 3.1.9 1 2.3 1.6 3.5 1 .8-.4 1.2-1.2 1.9-1.6.5-.4 1.2-.4 1.9-.5 3.1-.4 6.2-.9 9.3-1.3 1.6-.2 3.8 0 4 1.6.5-1.5 1.8-3.4 3.3-2.8.4.1.7.4 1 .6 1 .4 2.2-.5 2.5-1.6.6-2.3-.1-6.6-.4-9-.1-.5-.6-1.2-1-1.3-.4-.1-.9 1.4-.9 1.9 0 .4-3.8-.4-3.4-2.9.6-3.7 1.4-7.4 2.5-11.1.5-1.9 1.3-4 2.9-5.1-2.2.4-4.5.7-6.4-.2-1.9-1-3.1-3.8-1.6-5.4 1-1.1 2.8-1.1 4.3-.7 2 .6 3.7 1.7 5.1 3.3 4.6-7.2-6.1-5.3-9.6-6.7 1.7-7.1-2.9-14-7.2-19.9-.7-1-1.5-2-2.7-2.4-1.2-.4-2.8.2-2.8 1.5-.7-.8-.7-2.2.2-3-.5-.8-1.5-1.3-2.5-1.1.6 2 .2 4.3-1 6 1.6 1 2.9 2.6 3.4 4.5-1 .5-2 1.1-3.1 1.6 2.2 3.1 4.5 6.3 4.9 10 .5 3.7-1.4 8.1-5 9-.1-4.2-2.2-8.4-5.5-10.9-.7-.5-1.6-1.1-1.9-1.9-.2-.6-.2-1.3-.4-2-.4-1.1-1.4-1.9-2.2-2.7-2.4-2.3-3.8-5.6-4-8.9-2.6.8-4.3 3.7-3.8 6.3-2-3.7-1.7-8.5.8-12-.1 2 3 2.8 4.3 1.3s.7-4-.8-5.3c.9.4 1.9.6 2.9.5-1.6-2.9-3.6-5.6-6-7.8-.5 1.8-1 3.5-1.6 5.4-.9-2-4-2.7-5.7-1.2-1.1-2.3-1.6-5.1-1.3-7.6-1.3.2-2.5 1.3-2.6 2.7-2.6-2.9-1.4-7-3.4-9.6-.5-.7-1.5-.8-2.3-1-3.8-.7-8.1-3.1-8.1-6.9l11.4-1.4c-2.2-2.9-6-4.5-9.5-4.2 2.3-.7 4.7-1.3 7-1.9-3.1-.6-5.7-3.2-6.3-6.3-.7-3.1.7-6.4 3.3-8.2-1.8-1.2-3.1-3.1-3.6-5.2 3.8.1 7.5-1.4 10.2-4 .6-.6 1.2-1.3 2-1.6 3.6-1.4 5.7 5.1 9.5 5.4 1.3.1 2.5-.6 3.8-1 2.3-.7 4.8-.4 7.1-1.1s4.3-3.5 2.9-5.5c1.6.8 2.1 3.1 1.2 4.6l4.5-1.3c-.3 2.1 2.5 3.5 4.5 2.8 2-.7 3.3-2.6 4.6-4.3 1.3-1.7 2.9-3.4 5.1-3.5-1.7 1.3-2.2 4.9-.5 6.5 3.3 3.2 3.2-2 3.9-2 4.4-.2 6.9-2 9.7-4.8l.2-.2c.7.2 2-1.7 2.2-2.5.2-.8-.3-1.7-1.2-2.1l-.4-.4c-.1-.1.3-.9.5-1.4l.2-.5c.3-.5 0-1.1-.7-1.4l-.6.1-.9.1c-1 .3-3.8.2-4.6-.1-.3-.1-3.1-2.9-3.4-3.4-1.9-2-4.3-4-3.8-7.1.5-3.6 4.8-5.2 8.4-5.9-.8-3.4 2.1-7.1 5.5-7 1.1 0 2.1.3 3.2.4 1.1 0 2.3-.4 2.8-1.3.5-1-.4-2.4-1.4-2.2-.7.6-1.4 1.1-2.2 1.7.3-3.6.5-7.2.8-10.8.1-.8.1-1.7-.5-2.3-.5-.5-1.2-.5-1.7-1-1.3-1.2-.1-4.1-1.7-4.8 2.3.5 4.7-.7 6.3-2.4 1.5-1.6 2.5-3.6 3.4-5.6 0-.1.1-.3.2-.4-.1.1-.1.3-.2.4-.1.8 1.3 1.6 2 1 .9-.7.7-2.2.1-3.2s-1.6-1.7-2.2-2.7c-2-3.4-2.1-5.1-6.2-7-3.3-1.6-6.9-2.3-10.3-3.6-3.3-1.3-5.8-3.8-9.1-4.9-2-.7-4.5-.4-5.8 1.3-.2.4-.5.8-.9.9-.4.1-1-.3-.8-.7-.8 1.5-6.4 3.4-8 4.6-2.1 1.6-4 4.4-6.1 5.5-.5-1.7-.4-3.5-.8-5.2-.4-1.9-2.3-3.9-4.2-3.1-.2.1-.5.3-.7.5-.4.7.1 1.7.8 2 .7.4 1.6.4 2.4.3-3.4 3.5-10 1.1-13.5 4.4-1.9 1.8-2.2 4.6-2.9 7.2-.7 2.5-2.6 5.2-5.2 5.1-.1-4.2.8-8.2 2.5-12-1.1 1-2.9.8-3.8-.2-.2 1.4-.6 2.7-1.2 4-.2.4-.5.9-1 1.1-.8.3-1.6-.5-2.2-1.1-.7-.6-1.9-.8-2.2.1-.4-1.1.1-2.3 1-3-.8-.6-1.7-1.3-2-2.3-.3-1 .5-2.3 1.6-2.2l-1.1 1.3c3.6.5 7.5-.7 10.2-3.1 2.7-2.5 4.3-6.2 4.2-9.9 1.2-.1 2.2 1.1 2.2 2.2.1 1.2-.4 2.3-1 3.3 5.3-2.6 10.9-4.3 16.1-6.6 1.2-.5 2.3-1.6 2.3-2.9.1-1.3-1.4-2.6-2.6-2-.1-.4-.2-.8-.4-1.2-2.3 0-4.6 0-6.9.3-1.9.2-3.7-.2-3.8-.7-.1-.4-5.8 3-8 2.6-.4-.1-.7-.1-1-.1-42.3 27.5-70.1 75-70.1 129 0 11.8 1.3 23.3 3.8 34.3.1.1.2.1.3.2 1.1.4 1.6 1.5 1 2zm65.6 24.3c.3.1.6 0 .8-.2.5-.5.2-1.3 0-2s-.4-1.6.3-1.9c.3-.1.6 0 .9.1 1.4.3 7.3-3.1 7.2-.2 0 .4-.2.7-.2 1.1-.1.4.1.8.1 1.3.4 2.2.2 4.3-.1 6.6-.1.4-.1.8-.5 1-.2.1-.5 0-.8.1-.5.1-.8.7-1.2 1-.4.4-1.2.4-1.3-.1-.8.1-1 1.2-.8 2 .3 1.7.7 3.6.1 5.2-.7 1.6-3.1 2.6-4.2 1.2-.8-1-.5-2.4-1.1-3.4-.6-1-2.2-1.4-3.2-.7.1 1.1.1 2.2 0 3.3 0 .5-.1 1-.5 1.3-.7.5-1.6-.3-2-1 .4.8.1 1.7-.5 2.3-.7.5-1.7.5-2.3-.1-.2-1.4-.9-2.8-1.9-3.9.3-.2.7-.2 1-.1l-1.8-3.9c1.1.5 2.3.5 3.4-.1.4-.2.8-.5 1.2-.4.8.1 1.2 1 2 1.1.5 0 1-.5 1.1-1 .1-.5-.1-1.1-.3-1.6 1.8-.1 3.6.4 5.2 1.2-.2.7-.2 1.5 0 2.2.9-1.2 1.7-3 .7-4-.3-.3-.8-.5-1.1-.8-.4-.5-.3-1.2-.2-1.8.1-1.6-.3-3.1-1-4.5.1.2.6.6 1 .7zm-12-21.8c.1-1 .4-1.9.9-2.7.7-1.2 1.8-2.3 1.7-3.7-.1-.4-.2-.7-.2-1.1 0-.4.3-.8.7-.8-.1 1.1-.1 2.1-.1 3.2 0 .2 0 .5.1.7.2.2.5.2.7.2.7.1 1.4.5 1.9 1.1.4-1.1.8-2.3 1.7-3.1.9-.8 2.5-1 3.2-.1-.7.1-1.3.8-1.2 1.6-.5.1-1 .1-1.5.2-.4.6.7 1 1 1.6.1.2 0 .5-.1.8-.4 1.4-1.9 11.3-4.9 7.6-.5-.7-.8-1.6-1.4-2.3-.6-.7-1.7-1-2.3-.3-.2-.9-.3-1.9-.2-2.9zm-23-46.4c.4-2.3 2.3-4.1 2.9-6.4.2-.7.2-1.4.5-2 1-2 2.9-.8 3 1 0 .5 1.1.4 1.5.2.4-.2.5 1 .4 1.6 0 .1 3.8-.8 2.9-3.2 1.1 2.9 2.2 5.8 2 8.9-.1.6-.1 1.2.2 1.7.3.5 1 .8 1.4.4.4.8.2 1.8-.4 2.4s-1.6.8-2.4.4c-1 3.2-2.1 6.4-3.1 9.6-.2.7-.5 1.5-1.1 2-.6.5-1.7.4-2-.3.7-.7 1.4-1.3 2.1-2-1.4-1.9-2.1-4.4-1.8-6.7-.8.2-1.6-.5-2.2-1.1s-1.6-1.2-2.3-.8c-.8-1.5-1.7-3.1-1.7-4.8.1-.5.1-.7.1-.9z"/><path class="st3" d="M1191.4 74.3c.1-.1.1-.3.2-.4-.1.2-.2.3-.2.4zm81.4 56.4c-.1.1-.2.3-.2.4 0 0 .2-.1.2-.4zm4-39-.4.4c.1-.1.3-.2.4-.4zm-71.1 10.6c-.1 1.1.1 2.2.4 3.2.7-1 .5-2.4-.4-3.2zm141.3 46.2c-.1-.1-.1-.1-.2-.1 0 .2 0 .4-.1.6.2-.2.3-.4.3-.5zm-10.9 58.1c.1-.1.1-.1.1-.2-.1 0-.1.1-.1.2zm11-69.7c.1.1.1.2.1.4 0-.2 0-.3-.1-.4z"/><path class="st3" d="M1355.1 151c.6 1.2-.7 3.2-1.5 2.2.8-1 1-2.3.6-3.4-2.8 0-5.7 1.2-7.6 3.2-1.3-1.2-1.9-3.1-1.7-4.9.6-.1 1.3 0 1.9.3.1-.8.1-1.5.2-2.3-.9.7-2.5-.3-2.2-1.4.1-2.3.3-4.5.4-6.8.4.8 1.9.2 1.9-.6-.1-.1-.1-.2-.1-.4.1.1.1.2.1.4.4 1.6.9 3.2 1.3 4.8 1.4-4.6 1-9.6-1.2-13.9-.5-1-1.1-2.2-.8-3.2.4-1.3 1.9-2.5 1.3-3.7.5 1.1 1 2.2 1.4 3.4.1-1.4.1-2.9-1-3.8-1-1-3.2-.3-2.9 1-.2-1.2-1.4-2.1-2.6-2.2 1.6-1.6 1.6-4.5 0-6.1.4.8-.5 1.9-1.3 1.6-.2-2-.2-4 0-6-.8.7-1.7 1.3-2.6 2-.7-1-1.3-2-1.9-3 .5 2.6.1 5.5-1.4 7.8-1.1-1.9-2.1-3.8-3.2-5.8.6.8 2 .5 2.6-.4.5-.8.5-1.9.4-2.9-1.9.1-3.8-.1-5.7-.5.6.8 1.1 1.6 1.7 2.4-1.4 1.1-3.6 1.2-5.2.2-.6 1.7-.7 3.7-.3 5.5-.9-.7-1.9-1.4-2.8-2.2 1.3 2.6-1.5 6.2-4.4 5.6-3.4 3.2-2.9 9.6.9 12.3-1 .5-1 2-.4 3s1.6 1.7 2.1 2.7c.6 1.2.5 2.6.5 4 .2 5.7 4.4 11.1 9.9 12.8 1.8.5 4.2.5 5-1.2.5 1 .2 2.3-.5 3.2 2-1.2 3.5-3.1 4.5-5.2 2.1 2.7 2.3 6.7.7 9.7l2.7-.5c.4 1 .7 2 1 3.1 1-1.7 1.3-3.7 1.1-5.7 1.4-.3 2.9-.5 4.3-.8-3 1.9-3.6 6-3.3 9.6.3 3.5 1.1 7.3-.2 10.6-1.2-1.7-1.5-4-.8-6-3.7 1.6-7.6 2.4-11.6 2.5-7.9-5.2-15.2-11.2-21.7-18-1.3-1.3-3.5-2.8-4.8-1.4.7-1.1-.5-2.5-1.7-2.8s-2.5.1-3.8-.2c-2.9-.5-4.3-3.8-5.2-6.7-1.1-3.5-1.7-8.1 1.4-9.9-3-1-6-2-9-3.1 1-1.9 1.4-5-.7-5.4-1.4-.3-2.6 1.3-2.8 2.8-.2 1.5 0 3.1-.8 4.4l-2.7-1.4c-1.5 1.7-1.8 4.3-.7 6.3-1.6.7-2.5 2.7-1.8 4.3-1.8-.8-2.3-3.5-.9-4.9-1.7.2-3.4 1.4-4.1 3-1.6-2.2-3.8-3.9-6.4-4.9 1.4-.4 2.7-1.3 3.5-2.5-.5.1-1.4-1-1.4-1.9.3-2.5.5-5 .8-7.5-1.9.7-3.5-1.9-3.3-3.8.2-2 1.4-3.8 1.5-5.8.4-7-10.5-9-13-15.5 1.3-1.1 2.5-2.2 3.7-3.2-.5-1-1-1.9-1.4-2.8 1-1.7 3.1-2.7 5-2.5-.2 2 0 4 .4 6 1-.5 2.1-1 3.1-1.4 1 1.4 2 2.9 2.9 4.4l5.4-4.8c-.7.2-1.7-.7-1.4-1.5.3-1 1.5-1.5 2.6-1.8 1.3 1.3 3 2.3 4.8 2.6.4-.8.4-1.9-.1-2.6-2.3.1-4.6-1.3-5.7-3.4-.5-1.1-.8-2.4-1.3-3.5-1.7-4.1-7.4-5.8-11.1-3.4 1.4.7 2 2.6 1.2 4-.8 1.3-2.8 1.7-4 .9.2 1.2-.2 2.6-1.2 3.4-.7-1.9-2.2-3.4-4.1-4 1.6-1.1 1.4-4-.3-4.8-1.3 1.1-2.8 1.9-4.4 2.3-.9-2.6-2.8-5-5.2-6.4-1 .9-2.1 1.6-3.4 2 .2.8 1 1.5 1.8 1.7-1 .8-2 1.7-2.9 2.6 1.6-.1.8 2.6 1.2 4.2.4 1.5 2 2.1 3.4 2.7 1.4.7 2.8 2.1 2.2 3.4-3.1 3-9 2.3-11.4-1.3-3.2-2-6.9-3.3-10.6-3.1-3.7.2-7.5 2.2-9.2 5.5 1.5 5.1-3.6 9.5-8.1 12.4-1 .6-1.9 1.2-2.8 1.8.5 1.6 1.4 3.2 2.2 4.8 1.5 3.5 2.1 7.3 1.7 11.1-.4.8-1.4 1.3-2.3 1.2.6.5 1.1 1 1.7 1.6-.8-.4-1.8.5-1.6 1.3-.5 3-.9 6-1.4 9-1.1.7-7.2 3.5-3.6 4.8 1.1.4 2.4-.5 2.9-1.6 2 0 3.4 2.6 2.3 4.3-3.1.8-6.5.8-9.6-.1.1-1.7-.8-3.5-2.2-4.6-1.2.7-.5 2.5.1 3.7s1 3.2-.4 3.5c-.2-.5-.4-1.1-.7-1.6-4.9.8-8 7-5.8 11.4-1.6-1.8-3.4-3.6-5.6-4.5-2.2-.9-5.2-.6-6.6 1.4-2.9-4.9-10-6.9-15.1-4.1.5 1.6 1 3.1 1.6 4.6 2-1 4.9.7 4.9 2.9 0 .8-.3 1.7-.5 2.5-.5 1.5-1.1 2.9-1.6 4.5-.7 1.7-2.2 3.9-3.8 3.1 2.1 1.2 1.6 4.6-.3 6.1-1.9 1.4-4.5 1.5-7 1.5.6.9 1.3 1.7 1.9 2.6-2.8-1-5.7-2.1-8.4-3.4-1.4-.5-3.2.3-3.9 1.7s-.1 3.2 1.2 4.1c-1.1-.2-2.2-.4-3.3-.5-1.3.6-.7 2.5.1 3.7 2.8 4.7 4.8 9.8 5.8 15.2 1.6-1.2 3.9-1.3 5.5-.2-1 .8-1.3 2.3-.8 3.5 1.5-3 6-3.9 8.5-1.7.8-2-1-4.8-3.2-4.6 1-.4 2-.7 3-1.1 0 1.4 1.5 2.5 2.9 2.2 1.4-.3 2.2-2 1.6-3.2 1.1-.1 2.2-.1 3.3-.2 1.5-1.8 3.1-3.6 4.6-5.4.5 1.7 2.3 2.6 4.1 2.6 1.7-.1 3.3-.9 4.8-1.9-.2-3.2-2.1-5.9-3.5-8.8-1.4-2.9-2.2-6.4-.5-9.1-.8-.5-1.7-.9-2.6-1.4 5.3-.5 9.3-5.7 14.6-6.3 5.1-.6 9.6 3 13.4 6.4-.6-1.1 1.4-1.7 2.6-1.4l12.1 2.7c.2-1.8.7-3.5 1.4-5.2 1.4 0 2.5.1 3.6-.5-.1-.7-.4-1.1-.8-1.7-.4-.5-.3-1.7-.1-2.2.2-.4 1.1-.7 1.6-.7.4.1 1.3-1.3 1.6-1.9.2-.6 1.1.7 1.3 1.1.2.5 1-.6 1.3-1 .2-.4 1.5 1 1.8 1.6.4.5.1-2-1.3-2.4-1.3-.4-2.1-2.7-1.9-3.5.1-.8 2.4-.7 2.5-1.6 0-.9.5-1.7 1.2-1.7l.5-.1.2-.7c.2-.8-.8-4.2-1.4-5.2-.5-1-2-2.3-3.1-3.1l-1.3.5c-1 .4-1.9 1-2.9 1.1-1.3.1-1.9.7-2.3 1.9v.1c-.2.1-.8-.5-1-.7-.2-.2.4-.8 1.3-1.3l.7-.4.7-.4c.8-.4 1.3-2 1.2-2.6-.1-.5.1-1.2.2-1.3.1-.1 2.9 1.5 4 2.1 1 .6 4 2 4.9 2.2s5.1.1 6.2.8c1.1.7 4.3 1.7 5.1 1.5.8-.2 4.3-1.1 4.9-.7.5.4-.1 3.1-.5 3.9-.4.8-1 1.4-1.1 1.3-.1-.1.2-.6.4-.8.2-.2-1.9-.5-2.6-.6s-1.3-.2-1.3-.2c0-.1.8-.2 1.1-.2.3-.1-1.6-1.7-2.2-1.1s-1.2 1.5-1.2 1.7c0 .1 1.4.7 1.9.8 2.9.8-1.9 2.4-3.1 2.3.5 1.8-.9 4-2.8 4.2 1.1 4.9 2.3 9.9 3.5 14.8.3 1.3-.1 3.4-1.3 3.1 1.1.5 1.7 2 1.1 3.2.8.4 1.7.8 2.6 1.3-.8 1.1-1.7 2.1-2.5 3.2.5.8 1.2 1.7 2.1 2 1 .3 2.3-.4 2.1-1.4 3.4 1.6 2.7 7.8-1 8.7 6.4 1.3 12.7 2.6 19.1 4 0 1.9.7 3.9 1.9 5.3.2-.9.4-1.8.5-2.8 1.7 2.4 1.4 6-.7 8.1-1.6.4-2.6 2.2-2 3.7 1.6.1 3.2-1.1 3.4-2.8 2.4 1 4.8-1.3 6.4-3.3 4-5.4 7.5-11.4 10-17.6.2-.7.6-1.3 1.2-1.6 1.6-.7 4.3 1.2 4.8-.5 1.2.5 1.9 2 1.7 3.2 4 0 7.9.5 11.8 1.4.7-1.5 2.3-2.5 3.9-2.5-.3 3.2-1.3 6.3-2.9 9 3.1 1.8 5.2 5.1 5.6 8.7-.9-1.3-2.8-1.7-4.1-1-1.4.7-2 2.5-1.6 3.9 2.2 0 4 2.6 3.1 4.7 3.8.1 7.6 2.1 9.8 5.2-2.1 1.7-5.4 2-7.8.7 1.6 1.8 3.3 3.7 4.9 5.5.7-2.5 4.3-2.5 6.7-1.3 2.3 1.1 4.8 3 7.3 2.2l-3.6 10.5c-1-.4-1.4-1.9-.7-2.6-2.2 1.4-4.3 2.9-5.5 5.2-1.3 2.5-1 5.7.7 7.9 5.8.1 11-6 10-11.7 1.6.2 2.9 1.5 3.2 3.1.8.5 2.1-.1 2.5-1.1.4-1 .3-2 .4-3.1.1-3.2 1.6-6.3 3-9.3.2-.4.5-1 1-1 .3-.1.7.2.7.5 1.8-4.1 1-9.2-2-12.5-.1-.2-.4-.2-.6-.2-.1.1-.1.1-.1.2 0-.1 0-.1.1-.2 1.3-2.5 2.7-5.1 5-6.8 2.3-1.7 5.8-2.3 8.1-.5.8-1.6 1.7-3.3 2.5-4.9.2.8.5 1.6.7 2.5.1-1.2 1.3-2.2 2.5-1.9.2-3.2-.7-6.5-2.5-9.2.2 1.9-1.3 3.7-3.2 3.9-.5-1.7-1.1-3.4-1.7-5.2.5.8 1.7.5 2.3-.1.5-.7.6-1.7.6-2.6 1.1.9 2.1 1.9 3.2 2.8-.1-2.9.1-5.8.6-8.6.8 1.6 1 3.4.6 5.2 1.3.5 2.9.5 4.2-.1l.4-.2c-6.6-5.8-6.9-17.3-.8-23.5 1.4 3.5 1.1 7.7-.7 11-.3-1.4-.5-2.9-.8-4.4-.2 2.3-.4 4.7-.5 7.1-.2-1.4-.5-2.8-.8-4.3-.4 2.2-.4 4.4 0 6.6l1.4-2c1.3 3.1 2.5 6.3 3.3 9.5.1-1.6.1-3.1.2-4.8-.2-1.1-.5-2.2-.8-3.4.3-.1.6-.2.8-.3 0-4.2-.2-8.3-.5-12.4-1.3-4.3-3.2-8.5-5.7-12.3-1.2.1-.3 1.8.3 3zm-132.9-6.7c.4-.2 2.8 0 3.3.8s0 1.1-1 .7l-.6.2c-.7.3-1.3 1.2-1.7 2-.2.5 0 1.4.4 1.9l.8.9c1.2.9.1 2.3-.4 2.5-.5.2-5.7-2.5-7.5-3.5-1.8-1-2.7-2.6-2-3.4.7-.8 2.7-3 2.8-2.8l.3.2c.7.5 1.3 1 2 1.2l.7.2c1-.1 2.5-.6 2.9-.9z"/><path class="st3" d="m1338.7 219.1-.2.4c.2-.1.3-.2.2-.4zm-132.6-113.4c.1-.1.1-.1.2-.1 0-.1 0-.1-.1-.1 0 .1 0 .2-.1.2zm154.4 79.8c.1-1.1.2-2.2.2-3.4-1.1.2-2.2.5-3.3.7.4 1.4 1.7 2.5 3.1 2.7zm-128.8-36.9zM1214.8 46c.1.2.2.5.2.8.3.7.9 1.3 1.3 2 .1.1.1.2.1.3-.1.1-.1.2-.2.2-.4.2-.7.5-1 .7l3 .9c.4.1.7.2.9.5s.3.7.1 1c-.4.4-1.1-.2-1.7-.3-.5-.1-1.1.5-1.1 1 .2 2 8.4-.8 10-.5 1.4.2 2.8 1 4 .5.4-.1.7-.4 1.1-.5.7-.2 1.4.1 2.2.4.1.1.3.1.4 0 .1-.1.1-.2.2-.4.1-.5.6-.8 1.1-.8 1.7-.3 2 1.7.7 1.7-.8.1-1.7 1-1.9 2l1.4.4c.2.1.4.9.3 1.3l-.1.7c-.3.8.6 1.5.8 1.6.2.1 1.1-1.3 1.3-1.8.2-.4.5-2.6.6-2.7.1-.1 3 1.8 4 2.5s2-.2 2-.8c.1-.6 2.6-1.6 3.7-1.7 1.7-.3 4.4-1.9 2.2 1.1-.5.7-1 1.4-1.6 2-.1.2-.3.4-.4.6-.2.8.8 1.5 1 2.3.1.5-.2 1.1-.5 1.6-.1.1-.2.2-.4.3-.4.1-.8-.5-1.3-.4-.3.1-.3.6-.1.8.2.2.5.3.9.4.5.1 1.1.2 1.7.3.5.1 1 .2 1.3.4.5.3.8.9.8 1.5.5-.5 1.1-1 1.7-1.5.2-.1.3-.3.4-.5.1-.2.1-.5 0-.7-.4-2.5.7-4.8 1.6-7l.8-1.9c-1-.5-.6-3.4-.1-4.4.5-1 .5-2.5.4-2.8-.2-.3-1.1-.8-2-1.2l-.8-.4c-2.3-1.3-4.4-2.3-6.9-3.3-2-.8-4.7-1.5-6.2.1-.8-.2-1.1-1.6-1.9-1.6-.4 0-.7.2-1 .4-.9.4-1.9-.1-2.8-.5-.9-.4-2-.7-2.8-.1.7.4 1.3 1 1.7 1.6-1.7 1.1-3.8-.5-5.8-.7-1.3-.1-2.6.5-3.5 1.4-1.3 1.4-1.1 1.8-3.1 2l-.9-.4c-.7-.3-1.1-1.6-1.8-2l-1.9-.9c-2.2-.7-4.2-1-4.3-.9-.2.4 1.3 2.4 1.6 2.8.2.8.3 1.6.6 2.6zm-19.4-1.4c.8-1.6 1-3.7.7-5.5-.1-.5-.3-1.1-.8-1.5-.4-.2-.8-.3-1.3-.4-2.5-.3-5.1-.6-7.3.6-1.1.6-2.5 1.4-3.4.6-.5-.5-.6-1.3-1.2-1.5-.5-.1-1 .2-1.4-.1-.3-.2-.4-.6-.5-1-.4-1.1-1.6-1.6-2.8-1.5-1.1.1-2.1.7-3.1 1.3.5-.9.9-1.9 1.2-2.8-.5-.2-1.1.1-1.5.5-.4.4-.6 1-1.1 1.3-1.6 1.4-4.6-.4-6.3 1-.3.2-.5.5-.8.7-.5.2-1.1-.1-1.7-.2-1.5-.5-3.2-.3-4.6.5-.5.4-1.1.8-1.7.8-.7 0-1.3-.6-2-.7-1.3-.3-2.5.9-3.1 2.1-.5 1.2-.8 2.6-1.9 3.5.7.1.8 1 .5 1.6-.3.6-.9 1-1.3 1.6-.2.4.8 3.7 1.2 3.9.6.2.6.6.4.8-.2.1 0 .7.2.8.1.2.6-.5.7-.7.1-.2 1.1-.4 1.3-.4.3 0 1.9-2.3 2.7-2 .8.2 2.1-.3 2.2-.5s2.8-1 3.7-1.3c1-.2 1.8-.1 1.8.1.1.2-2.5.8-3.4.8s-1.6 1.1-1.4 2.5l-1.5.7c-.9.4-2.3.8-2.4 1.4-.4 1.4-1.8 2-3.2 2.3v1.5c2.7-.3 5.2-1.6 7.1-3.6.4.8 1.1 1.4 2 1.6-.5-.8-.8-1.8-1-2.8-.1-.3-.1-.6.1-.9.2-.3.5-.4.8-.5 2.2-.7 4.6-.5 6.9-.9 5.2-.8 10-4.3 15.2-3.4 1.7.3 3.2 1.1 4.9 1.6s3.5.8 5.1 0c.8-.4 1.5-1.1 2-1.9zm100.9 196.7c.2-2.8.2-5.7.1-8.5-.1-1.1-.4-2.5-1.6-2.7-1.2-.2-2.4 1.3-3.4.7-.5-.4-.7-1.1-1.2-1.4-.4-.2-.8-.2-1.3-.1.1-2.1.9-4.2 2.2-5.8.1.9.2 1.7.4 2.6.1.4.1.7.5.8.5.2.8-.7.7-1.2-.2-1.3-.5-2.6-1.1-3.8-.6-1.1-1.6-2.1-1.8-3.4.8.5 1.7.9 2.7 1-1.3-2.2-4.3-3-6.6-1.8-.5.3-1.1.7-1.7.7-.1 0-.2-.1-.4 0-.3.1-.3.5-.1.8.2.2.5.4.7.7.7.7.4 2-.2 2.8-.6.8-1.5 1.4-1.9 2.4-.5 1.1-.4 2.6-1.3 3.5-.2.2-.4.4-.5.7-.1.3.2.6.4.8.9 1 1.9 1.8 2.9 2.5-.9.9-1.9 1.7-2.8 2.6-.3.3-.6.6-.7 1-.1.5.3 1.1.8 1.4.5.2 1.1.3 1.7.4-.2.8-.6 1.5-1.1 2 1.3.1 2.7.2 3.8 1l1.1.7c1.1.6 2.5.5 3.5-.2.2-.2.4-.4.7-.4.4-.1.8.2 1.2.4 1.3.7 2.9 1 4.4.6-.1-.3-.1-.6-.1-.8z"/><path class="st3" d="M1197.8 46.4c1.1-.1 2.7 2.3 2.5 2.9-.2.7-.8 1.2-1.6 1.1l-.4.2-.6.3c-.6.5-.7 1.6-.2 2.3l.5.2c1 .3 2.7.5 3 .1l.9-1.4c.4-1.9.8-4 1-4.2.2-.2.5-.4.6-.4.1 0 .6 1.4.7 1.9.2.5 1.3 1 1.5.9.2-.1-.1-1.4-.3-2-.2-.5-.1-1.1 0-1.2.1-.1 1.4.4 1.9.7.5.2.7-2.4 0-3.1-.7-.7-2.2 0-2.5.6-.4.5-2-.2-2.6-.7-.5-.5-.9-1-.9-1.1 0-.1 1 .1 1.3.2.3.1 1-1 1.2-1.4.2-.4-3-1.7-4.4-2.2-1.3-.4-2.3 1.3-2.3 2 .1.7-.5 1.3-.8 1.3-.2 0-.4 0-.4-.1.2.1.8 3.3 1.9 3.1zm88.7 11.5c2 .7 4 1.4 6 2l.4.1c.3.3 2.7 2.1 3.5 2.6.8.6.4 1.5 0 1.1-.4-.4-1.6-.8-2.6-.9l-.7-.5-.8-.5c-.7-1-2-1.3-2.4-1.2-.4.2.7 2 1.2 2.7.5.7 1.1.8 1.1.7.1-.1.6 0 1.1.3l.5.1 1.9.2c2.1.1 3.8.2 3.8.2l1.1-3.4c-2.3-1.5-4.9-3.2-5.8-3.7l-.9-.3-.8-.3c-1-.1-3.7-2.8-5.1-3.3-1.4-.4-2.6.3-2.6 1.6l.2 1.2c.1.6.5 1.2.9 1.3zm58.2 162.2c-.4.1.2-1.5.5-2.1s.3-1.2.2-1.3-1.3 1.6-1.7 2.3c-.4.7-2.1-1.3-1.4-2.2.1-.1.1-.1.1-.2-.7.8-1.7 2.2-1.7 3.4 0 1.2-1 2.9-1.4 3.2-.4.3-1-.4-1.1-.7-.1-.3-.8.1-1.6.8-.8.8.8 3.3.7 3.5l-.1.2c-.4 1.3.2 2.1 1.3 2.3l.7.1c.9-.5 2.8-2 3.2-2.6.4-.6.7-1 .8-.9.1 0-.4 1.7-.6 2.3-.2.6-.9 1.1-1.2 1s.5.9.8 1.1c.3.2 1.2-1.4 1.4-2 .2-.7.5-.2.6 0 .1.3 1.1.4 1.5.3.4-.1-.9-2.3-.7-3 .2-.7.1-1.8-.4-2.5l-.1-.5c-.1-.5.1-1.1.4-1.4l.4-.4c.6-.3.9-.8.8-.9 0 0-1 .1-1.4.2zm-153.8-30.9c.1 0-.2-2.6-.4-3.7s-1.2-.2-1.4.2c-.2.4-1.4.5-1.7.4-.3-.1-.7-2.8-.8-3.8-.1-1.1-.2-1.9-.4-2-.1 0-.5.4-.5.9l-.1.5-.1 1c-.2 1-1 3.2-1.7 4.7l-.4 1.4c-.2.5.4 1.4.7 2l.4.6c.6.5 1 1.1.9 1.2-.1.1-1.1-.4-1.4-.5-.4-.2-.4.8-.2 1.1.2.3 2.3.4 2.6 1s3.1-.1 4-.5c1-.4 2-2.8 1.3-3.4-.6-.5-.9-1.1-.8-1.1zm.2-68.5.9.7.5.4c.8.2 1.3-.2 1.2-.9l-.2-.5c-.1-.3-.8-.4-.8-.6l-.4-1c0-1.1 1-.2 1.4.5.4.7 1.1 1 1.5.7.4-.3 1.4-.2 1.4 0s3.9.5 4.4-.8.4-3.5.2-3.9c-.2-.4-1.6-.1-2-.3s-1.2-.5-1.7-.8l-.5-.1-1.8-.4c-2.2-.5-3.4.1-3.1.5.3.4-.9 2.5-1.6 3.3-.6.6-.4 2.1.6 3.2zm-79.6 159.2c-.1-.1-2.8.2-3.4-.5s-1.4-1.3-1.5-1.4h-.1c-1 .2-1.9.2-2-1.2l-.1-.5c-.4-.5-1-.8-1-.7s-.1 1.6 0 2.2c0 .6 1 1.4 1.5 1.5.5.1-.6.2-1.1.2-.5 0-.6.2-.4.5.2.3 3.7 1.8 4.6 2.6.8.8 3.2 2.8 3.8 3.1.6.4 2.3.1 2.6-.1.4-.2-1.9-2.5-2.1-3.6-.3-1-.7-2-.8-2.1zm216.8-188.5c-.4.1-.8-.2-.8-.5v-.5c0-.4.2-1 0-1.3l-.8-1c-1.1-1-2.6-1.6-2.9-1.5-.3.1.5 1.1.9 1.5.4.4-1.9 1-1.7 1.7.2.7-.4 1.6-.6 1.7-.2.1-.2.7.1 1.4s2.6 3.9 3.4 3.5c.8-.4 0-1.2-.5-1.4-.5-.2-1-1.5-1-2s2.7.5 3.8 1.1c1.1.5 1.7-1 1.6-1.6 0-.8-1-1.2-1.5-1.1zm-148.7-38.7c-1.6-.1-3.4-.1-4.8.5-.8.4-1.5 2-1.4 3l.2 1.1c1.6.5 4 .6 5.5.1l1.1-.8c.7-.5 1.1-1.6 1.1-2.3 0-.6-1-1.6-1.7-1.6zm147.1 30.7c-.1 0-.1 0 0 0-.1 0-.1 0 0 0zm-7.8-6.5c1.4.6 1.6 1.3.7 2.4.3.1.6.2.9.2l3.4.7c-.4 1.9-.8 3.5-.7 3.5.1 0 1.1-.1 2.3-.2l1.1-.1-1.3-1c.2-1.5-.3-3.7-1.1-4.9l-.8-1.1s-3.2.1-3.8-1c-.7-1-1.2-.8-1.2-.5 0 .4-.3.7-.4.7-.1 0-.4-.5-.4-.6l-.1-.4c-.8 1.6.6 1.9 1.4 2.3zm33.7 144.8c-.1-.1.2-1.5.3-2 .1-.5-.1-1.1-.1-1.1-.1 0-1.3 2.9-1.6 4-.4 1.1-1.3 1.6-1.5 1.5-.2-.1-.8.2-1.3.7v.4c.1 1.3.4 2.6.7 3.8l.1.2c.4 0 .8.4 1.1.7 1.1-2.9 2.2-5.8 3.2-8.7-.5.4-.9.6-.9.5zm-46.2-155.9c.1-.1.7-.1 1.4.1l.4.4 1.2 1.3c1.1-.8 2.2-1.4 2.3-1.4.2 0 .5.5.7.8.1.3.3.4.4.2.1-.1-.2-1.3-.4-1.6-.2-.3-3.4-.2-4-1.1-.6-.9.4-2.2.8-2.4.4-.2-1.7-1.3-2.5-1.6-.8-.3-1.7 1-1.7 1.4-.1.5.4 2.5.7 3.1.3.6.7.9.7.8zm17.3 9.6c-.1.6-.2 1-.2 1s1.7.7 2.3 1c.7.3 1.1.5 1.1.5l.4-.1c.2-.1.4-.2.6-.4-.7-.8-1.3-1.6-1.9-2.4-.3-.3-.6-.7-.8-.8-.6-.4-1.4.7-1.5 1.2zm-159.9 193.3c-.1-.2-2.1-.7-2.9-.8-.8-.1-.7.8-.5 1.1.2.2-1.2.9-1.6 1-.4.1-.4.7.1 1.1.5.5 2 1.1 2 1 .1-.1 1.3.6 1.7.9.4.3 1.7-.8 2-1.3.3-.5 1-.8 1.1-.7.1.1-.8-.5-1.2-.8-.4-.2-.6-1.3-.7-1.5zm194.8-73.4c-.1-.3.5-4.5 0-5.7s-.8-2.6-.8-3.1v-1c-.1-.4-1.4-.6-1.7-.5-.4.1-.7-1.2-.8-1.6s-.1 1.6.3 2c.4.4 1.1 1.6 1.6 2.6l.1 1 .1 2.2c-.1 2.4.1 4.4.1 4.4s.2-2.7.3-3.7.3-1.9.4-1.9.1 3.2.1 4.4c0 1.1.7 2.2 1 2.2.1-.5.2-1.1.2-1.7-.1.1-.2.3-.3.4-.2.3-.4.3-.6 0zm-125.3-44.6c.4.5 2.6.4 3.4.2.8-.2.7-1.8.2-2.3-.5-.5-2.9-.6-3.7-.4-.8.2-1.4.4-1.4.4s1.1 1.6 1.5 2.1zm45.9-103.8c1 .6 1.9-.9 1.6-1.4-.2-.6-1.7-3.7-2.8-3.2-1 .5-1.3 1.6-1 1.9s-.4.4-.6.4c-.3-.1-.5 0-.6.1 0-.1 2.4 1.6 3.4 2.2zm22.6 17.8c-1.3.2-2.2.3-2.2.3s.4.8.8 1.9l.8.5.8.5c1.1.2 1.9.6 1.8.8s.2.5.3.5c.1.1.5-1.1.5-1.6s-.4-1.5-1.1-2.4l-.8-.2-.9-.3zm10.1 6.6 2 .9.9.4c.8.7.2 3.1-.1 3.7s.7 1.5 1.1 1.6c.4.1-.1-2.5.5-2.8.7-.3 1.2-.5 1.2-.5s-.1 0-.1-.1v-.1c0-2.5-.2-2.6-2.2-2.8-.4-.1-.8-.2-1.1-.4l-1-1.1c-1.1-.9-1.6-.4-1.2 1.2zm17.6 34.9zm.2-18.8c.1-.1-.2-1.6-.4-2.2-.2-.5-1.2-1.6-1.7-1.7s-1-.1-1-.1 1.3 2 1.7 2.8c.5.8 1.3 1.3 1.4 1.2z"/><path class="st3" d="M1321 83c-1-.5-.4-1.6-.1-1.6.2-.1-.4-1.2-.7-1.6-.3-.4-.5-.6-.5-.6s-.5.2-.7.2c-.1.1.6 3.9 1.6 4.9.9 1.1 1.4-.7.4-1.3zm5.9-4.9s0-.1 0 0c0-.1 0 0 0 0zm-23.6-24c-1.4-1.3-2.7-2.6-4-3.9 0 2.8 2.2 4.7 4 3.9z"/></g><path class="st2" d="M1202.6 19.1c-1.1 0-2.2.1-3.2.1-.4 0-.8 0-1.1.1-.7 0-1.4.1-2.1.1-.5 0-1.1.1-1.6.1-.8.1-1.7.1-2.5.2-.7.1-1.5.2-2.2.2-.2 0-.3 0-.5.1-6.3.7-12.4 1.8-18.4 3.3l-1.2.3c-.5.1-1 .2-1.5.4 81.8 7.7 145.9 76.6 145.9 160.5 0 60.3-33.1 112.9-82.2 140.6.8-.1 1.5-.2 2.3-.4h.2c1.2-.2 2.4-.4 3.6-.7h.1c3.7-.8 7.3-1.6 10.9-2.6.5-.1.9-.3 1.4-.4.7-.2 1.3-.4 2-.6l1.8-.6c.5-.2 1-.3 1.5-.5.7-.2 1.4-.5 2-.7.4-.1.8-.3 1.2-.4.7-.3 1.5-.5 2.2-.8.3-.1.7-.2 1-.4l2.4-.9c.2-.1.4-.2.7-.3.9-.4 1.8-.7 2.7-1.1.1 0 .1 0 .2-.1 37-16 66.6-46.1 81.8-83.6.1-.1.1-.3.2-.4.3-.9.7-1.7 1-2.6.1-.2.2-.5.3-.7.3-.8.6-1.6.9-2.5l.3-.9c.3-.8.5-1.6.8-2.4.1-.3.2-.7.3-1 .3-.8.5-1.6.7-2.3.1-.4.2-.7.3-1.1.2-.8.5-1.6.7-2.3.1-.3.2-.7.3-1l.6-2.4c0-.1.1-.3.1-.4l1.2-5.1c.1-.4.2-.9.3-1.3.1-.6.2-1.3.4-1.9.1-.6.2-1.1.3-1.7l.3-1.8.3-1.8.3-1.8c.1-.6.2-1.3.3-1.9.1-.6.1-1.2.2-1.7.1-.7.2-1.3.2-2 .1-.6.1-1.1.2-1.7.1-.7.1-1.4.2-2.1 0-.5.1-1.1.1-1.6.1-.7.1-1.5.1-2.2 0-.5.1-1 .1-1.5 0-.8.1-1.7.1-2.5v-5.1c0-85.1-68.9-154-154-154h-3.5c-.4-.2-.7-.2-1-.2z"/><path class="st3" d="M1299.6 65s.4.8.8 1.9l.8.5.8.5c1.1.2 1.9.6 1.8.8s.2.5.3.5c.1.1.5-1.1.5-1.6.1-.4-.4-1.5-1.1-2.4l-.8-.2-1-.2c-1.2 0-2.1.2-2.1.2zm3.7-10.9c-1.4-1.3-2.7-2.6-4-3.9 0 2.8 2.2 4.7 4 3.9zm-26.8-9.6c-.3-.1-.5 0-.6.1-.1.1 2.3 1.7 3.4 2.3s1.9-.9 1.6-1.4c-.2-.6-1.7-3.7-2.8-3.2-1 .5-1.3 1.6-1 1.9s-.4.4-.6.3zm53.3 48c-.1-.8-1.1-1.1-1.5-1.1-.4.1-.8-.2-.8-.5v-.5c0-.4.2-1 0-1.3l-.8-1c-1.1-1-2.6-1.6-2.9-1.5-.3.1.5 1.1.9 1.5.4.4-1.9 1-1.7 1.7.2.7-.4 1.6-.6 1.7s-.2.7.1 1.4c.3.7 2.6 3.8 3.4 3.5.8-.4 0-1.2-.5-1.4-.5-.2-1-1.5-1-2s2.7.5 3.8 1.1c1.1.5 1.8-1 1.6-1.6zm-5.9-12.3c-.4 1.9-.8 3.5-.7 3.5.1 0 1.1-.1 2.3-.2l1.1-.1-1.3-1c.2-1.5-.3-3.7-1.1-4.9l-.8-1.1s-3.2.1-3.8-1c-.7-1-1.2-.8-1.2-.5 0 .4-.3.7-.4.7-.1 0-.4-.5-.4-.6l-.1-.4c-.8 1.5.6 1.8 1.4 2.2 1.4.6 1.6 1.3.7 2.4s-.5.2-.7.2c-.1.1.6 3.9 1.6 4.9 1 1.1 1.4-.7.4-1.3-1-.5-.4-1.6-.1-1.6.2-.1-.4-1.2-.7-1.6l-.5-.5c.3.1.5.2.8.2l3.5.7zm4.4 6.1c.5.7 1.3 1.2 1.4 1.1.1-.1-.2-1.6-.4-2.2-.2-.5-1.2-1.6-1.7-1.7-.5-.1-1-.1-1-.1s1.3 2.1 1.7 2.9z"/><path class="st3" d="m1314 71.3-1-1.1c-1-1.1-1.4-.6-1.1 1.1l2 .9.9.4c.8.7.2 3.1-.1 3.7s.7 1.5 1.1 1.6c.4.1-.1-2.5.5-2.8.7-.3 1.2-.5 1.2-.5s-.1 0-.1-.1v-.1c0-2.5-.2-2.6-2.2-2.8-.5.1-.9 0-1.2-.3zm11.1 3c-.5-.5-1.3.5-1.4 1.1-.1.6-.2 1-.2 1s1.7.7 2.3 1c.7.3 1.1.5 1.1.5l.4-.1c.2-.1.4-.2.6-.4-.7-.9-1.4-1.8-2.1-2.6-.3-.1-.5-.3-.7-.5zm-76.5-19.6c1.7-.4 3.7-1.5 1.7 1.2 1.3 1 2.7 2.1 4 3.1.3-1 .8-2 1.2-3l.8-1.9c-1-.5-.6-3.4-.1-4.4.5-1 .5-2.5.4-2.8-.2-.3-1.1-.8-2-1.2l-.8-.4c-2.3-1.3-4.4-2.3-6.9-3.3-2-.8-4.7-1.5-6.2.1-.8-.2-1.1-1.6-1.9-1.6-.4 0-.7.2-1 .4-.9.4-1.9-.1-2.8-.5s-2-.7-2.8-.1c.7.4 1.3 1 1.7 1.6-1.7 1.1-3.8-.5-5.8-.7h-.8c7.4 4.1 14.6 8.5 21.3 13.5zm96.8 166.2c.6-.3.9-.8.8-.9-.1-.1-1.1 0-1.5.1-.4.1.2-1.5.5-2.1s.3-1.2.2-1.3c-.1-.1-1.3 1.6-1.7 2.3-.4.7-2.1-1.3-1.4-2.2.1-.1.1-.1.1-.2-.7.8-1.7 2.2-1.7 3.4 0 1.2-1 2.9-1.4 3.2-.4.3-1-.4-1.1-.7-.1-.3-.8.1-1.6.8-.8.8.8 3.3.7 3.5l-.1.2c-.4 1.3.2 2.1 1.3 2.3l.7.1c.9-.5 2.8-2 3.2-2.6.4-.6.7-1 .8-.9.1 0-.4 1.7-.6 2.3-.2.6-.9 1.1-1.2 1-.3-.1.5.9.8 1.1.3.2 1.2-1.4 1.4-2 .2-.7.5-.2.6 0 .1.3 1.1.4 1.5.3.4-.1-.9-2.3-.7-3 .2-.7.1-1.8-.4-2.5l-.1-.5c-.1-.5.1-1.1.4-1.4l.5-.3zm13.8-25.5c-.2.2-.4.2-.6-.1-.1-.3.5-4.5 0-5.7-.5-1.3-.8-2.6-.8-3.1v-1c-.1-.4-1.4-.6-1.7-.5-.4.1-.7-1.2-.8-1.6s-.1 1.6.3 2c.4.4 1.1 1.6 1.6 2.6l.1 1 .1 2.2c-.1 2.4.1 4.4.1 4.4s.2-2.7.3-3.7.3-1.9.4-1.9.1 3.2.1 4.4c0 1.1.6 2 .9 2.2.1-.5.2-1 .2-1.6-.1.2-.2.3-.2.4zm-6.6 26.3c-.1-.1.2-1.5.3-2 .1-.5-.1-1.1-.1-1.1-.1 0-1.3 2.9-1.6 4-.4 1.1-1.3 1.6-1.5 1.5-.2-.1-.8.2-1.3.7v.4c.1 1.3.4 2.6.7 3.9l.1.2c.4 0 .8.3 1 .6 1.1-2.8 2.2-5.7 3.1-8.6-.4.3-.7.5-.7.4zm4.9-38.9c.3 1.4 1.6 2.5 3 2.6.1-1.1.2-2.2.2-3.4-1 .3-2.2.6-3.2.8z"/><path class="st3" d="M1320.1 219c2.3 1.1 4.8 3 7.3 2.2l-3.6 10.5c-1-.4-1.4-1.9-.7-2.6-2.2 1.4-4.3 2.9-5.5 5.2-1.3 2.5-1 5.7.7 7.9 5.8.1 11-6 10-11.7 1.6.2 2.9 1.5 3.2 3.1.8.5 2.1-.1 2.5-1.1.4-1 .3-2 .4-3.1.1-3.2 1.6-6.3 3-9.3.2-.4.5-1 1-1 .2 0 .3 0 .5.2l-.2.3c.1 0 .2-.2.2-.3.1.1.2.2.2.3 1.8-4.1 1-9.2-2-12.5-.1-.2-.4-.2-.6-.2-.1.1-.1.1-.1.2 0-.1 0-.1.1-.2 1.3-2.5 2.7-5.1 5-6.8 2.3-1.7 5.8-2.3 8.1-.5.8-1.6 1.7-3.3 2.5-4.9.2.8.5 1.6.7 2.5.1-1.2 1.3-2.2 2.5-1.9.2-3.2-.7-6.5-2.5-9.2.2 1.9-1.3 3.7-3.2 3.9-.5-1.7-1.1-3.4-1.7-5.2.5.8 1.7.5 2.3-.1.5-.7.6-1.7.6-2.6 1.1.9 2.1 1.9 3.2 2.8-.1-2.9.1-5.8.6-8.6.8 1.6 1 3.4.6 5.2 1.3.5 2.9.5 4.2-.1l.4-.2c-6.6-5.8-6.9-17.3-.8-23.5 1.4 3.5 1.1 7.7-.7 11-.3-1.4-.5-2.9-.8-4.4-.2 2.3-.4 4.7-.5 7.1-.2-1.4-.5-2.8-.8-4.3-.4 2.2-.4 4.4 0 6.6l1.4-2c1.3 3.1 2.5 6.3 3.3 9.5.1-1.6.1-3.1.2-4.8-.2-1.1-.5-2.2-.8-3.4.3-.1.6-.2.8-.3 0-4.2-.2-8.3-.5-12.4-1.3-4.3-3.2-8.5-5.7-12.3-1.1.1-.2 1.8.4 3 .6 1.2-.7 3.2-1.5 2.2.8-1 1-2.3.6-3.4-2.8 0-5.7 1.2-7.6 3.2-1.3-1.2-1.9-3.1-1.7-4.9.6-.1 1.3 0 1.9.3.1-.8.1-1.5.2-2.3-.9.7-2.5-.3-2.2-1.4.1-2.3.3-4.5.4-6.8.4.8 1.9.2 1.9-.6-.1-.1-.1-.2-.1-.4.1.1.1.2.1.4.4 1.6.9 3.2 1.3 4.8 1.4-4.6 1-9.6-1.2-13.9-.5-1-1.1-2.2-.8-3.2.3-1.2 1.7-2.3 1.4-3.4.4 1.1.9 2.1 1.3 3.1.1-1.4.1-2.9-1-3.8-1-1-3.2-.3-2.9 1-.2-1.2-1.4-2.1-2.6-2.2 1.6-1.6 1.6-4.5 0-6.1.4.8-.5 1.9-1.3 1.6-.2-2-.2-4 0-6-.8.7-1.7 1.3-2.6 2-.7-1-1.3-2-1.9-3 .5 2.6.1 5.5-1.4 7.8-1.1-1.9-2.1-3.9-3.2-5.8.6.8 2 .5 2.6-.4.5-.8.5-1.9.4-2.9-1.9.1-3.8-.1-5.7-.5.6.8 1.1 1.6 1.7 2.4-1.4 1.1-3.6 1.2-5.2.2-.6 1.7-.7 3.7-.3 5.5-.9-.7-1.9-1.4-2.8-2.2 1.3 2.6-1.5 6.2-4.4 5.6-3.4 3.2-2.9 9.6.9 12.3-1 .5-1 2-.4 3s1.6 1.7 2.1 2.7c.6 1.2.5 2.6.5 4 .2 5.7 4.4 11.1 9.9 12.8 1.8.5 4.2.5 5-1.2.5 1 .2 2.3-.5 3.2 2-1.2 3.5-3.1 4.5-5.2 2.1 2.7 2.3 6.7.7 9.7l2.7-.5c.4 1 .7 2 1 3.1 1-1.7 1.3-3.7 1.1-5.7 1.4-.3 2.9-.5 4.3-.8-3 1.9-3.6 6-3.3 9.6.3 3.5 1.1 7.3-.2 10.6-1.2-1.7-1.5-4-.8-6-3.7 1.6-7.6 2.4-11.6 2.5-7.9-5.2-15.2-11.2-21.7-18-.5-.6-1.2-1.1-2-1.5 2.1 10.4 3.2 21.1 3.2 32.1 0 8.9-.7 17.6-2.1 26 1.7.9 3.2 2.2 4.3 3.7-1.4 1.2-3.4 1.7-5.2 1.5-.1.6-.2 1.1-.3 1.7l2.7 3c.6-2.7 4.2-2.7 6.6-1.5z"/><path class="st3" d="M1346.8 148.9c.1-.2.2-.3.2-.5-.1-.1-.1-.1-.2-.1.1.2.1.4 0 .6zm-34.3-81.8c.1.3.3.4.4.2.1-.1-.2-1.3-.4-1.6-.2-.3-3.4-.2-4-1.1-.6-.9.4-2.2.8-2.4.4-.2-1.7-1.3-2.5-1.6-.8-.3-1.7 1-1.7 1.4-.1.5.4 2.5.7 3.1.3.5.7.7.7.7.1-.1.7-.1 1.4.1l.4.4 1.2 1.3c1.1-.8 2.2-1.4 2.3-1.4.2 0 .5.6.7.9zm-18.5-9.6-.8-.3c-1-.1-3.7-2.8-5.1-3.3-1.4-.4-2.6.3-2.6 1.6l.2 1.2c.1.5.4 1.1.8 1.2 2 .7 4 1.4 6 2l.4.1c.3.3 2.7 2.1 3.5 2.6.8.6.4 1.5 0 1.1-.4-.4-1.6-.8-2.6-.9l-.7-.5-.8-.5c-.7-1-2-1.3-2.4-1.2-.4.2.7 2 1.2 2.7.5.7 1.1.8 1.1.7.1-.1.6 0 1.1.3l.5.1 1.9.2c2.1.1 3.8.2 3.8.2l1.1-3.4c-2.3-1.5-4.9-3.2-5.8-3.7l-.8-.2z"/><path class="st4" d="M330.8 600.6c16.1-4.8 31.2-14.1 43.8-28.1 9.7-10.7 16.9-23 21.7-36.2-20.5 9.1-43.2 10.3-64.3 3.6 8.8-4.8 17.1-11.2 24.5-19.3 8.9-9.8 15.6-21.2 20-33.4-21.5 9.6-45.6 9.7-67.2.4 9-4.4 17.5-10.7 24.9-18.9 8.2-9 14.3-19.5 18.4-30.6-19.9 8.9-42.4 8.9-62.3 0 7.8-4 15-9.5 21.4-16.6 7.4-8.2 13-17.7 16.7-27.8-17.5 7.8-37.2 8-54.9.8 7.3-3.6 14.2-8.8 20.3-15.4 6.7-7.4 11.7-15.9 15-25-15.2 6.7-32.1 7.2-47.5 1.4 6.9-3.2 13.3-7.9 18.9-14.1 5.9-6.5 10.4-14.1 13.3-22.2-13.4 5.9-28.3 6.4-41.9 1.4 5.8-2.8 11.3-6.9 16.1-12.2 5.2-5.7 9.1-12.3 11.6-19.4-11.5 5.1-24.4 5.6-36.2 1.4 4.9-2.4 9.4-5.8 13.4-10.2 4.4-4.9 7.8-10.6 10-16.6-9.7 4.3-20.4 4.8-30.3 1.4 3.9-2 7.6-4.8 10.8-8.3 3.7-4.1 6.5-8.8 8.3-13.8-7.7 3.4-16.3 3.9-24.3 1.4 3-1.6 5.8-3.7 8.3-6.5 2.9-3.2 5.1-7 6.6-11-5.8 2.6-12.1 3-18.1 1.5 2.1-1.2 4.1-2.7 5.8-4.6 2.2-2.4 3.8-5.2 4.9-8.2h-.1c-5.7 2.5-12.5.5-16.2-4.5-.5-.6-.9-1.3-1.4-2-4.1-6.6-6.1-16-6.1-16s-2 9.4-6.3 16.1c-.5.7-.9 1.4-1.4 2-3.7 5-10.4 7-16.2 4.5h-.1c1.1 3 2.7 5.8 4.9 8.2 1.7 1.9 3.7 3.4 5.8 4.6-6 1.5-12.3 1-18.1-1.5 1.5 4 3.7 7.8 6.6 11 2.5 2.7 5.3 4.9 8.3 6.5-8 2.5-16.5 2-24.3-1.4 1.8 5 4.6 9.7 8.3 13.8 3.2 3.6 6.9 6.3 10.8 8.3-9.9 3.4-20.6 2.9-30.3-1.4 2.2 6 5.5 11.7 10 16.6 4 4.4 8.6 7.8 13.4 10.2-11.8 4.2-24.6 3.8-36.2-1.4 2.6 7.1 6.5 13.7 11.6 19.4 4.8 5.3 10.3 9.3 16.1 12.2-13.6 5-28.5 4.6-41.9-1.4 3 8.1 7.4 15.6 13.3 22.2 5.6 6.2 12.1 10.9 18.9 14.1-15.4 5.8-32.3 5.3-47.5-1.4 3.3 9.1 8.3 17.6 15 25 6 6.6 12.9 11.8 20.3 15.4-17.7 7.3-37.3 7-54.9-.8 3.7 10.1 9.3 19.6 16.7 27.8 6.4 7.1 13.7 12.6 21.4 16.6-19.9 8.8-42.4 8.8-62.3 0 4.1 11.1 10.2 21.6 18.4 30.6 7.4 8.2 15.8 14.4 24.9 18.9-21.6 9.3-45.7 9.2-67.2-.4 4.4 12.1 11.1 23.5 20 33.4 7.3 8.1 15.6 14.5 24.5 19.3-21.1 6.7-43.8 5.5-64.3-3.6 4.8 13.2 12.1 25.5 21.7 36.2 12.6 13.9 27.8 23.3 43.8 28.1-24.9 10.3-52.5 10-77.2-1 5.2 14.2 13 27.5 23.4 39 20.9 23.1 48.4 34.5 75.8 34.3h188c27.4.2 54.9-11.2 75.8-34.3 10.4-11.5 18.2-24.8 23.4-39-24.3 10.9-51.9 11.2-76.8.9z"/><path class="st4" d="M517.2 600.6c16.1-4.8 31.2-14.1 43.8-28.1 9.7-10.7 16.9-23 21.7-36.2-20.5 9.1-43.2 10.3-64.3 3.6 8.8-4.8 17.1-11.2 24.5-19.3 8.9-9.8 15.6-21.2 20-33.4-21.5 9.6-45.6 9.7-67.2.4 9-4.4 17.5-10.7 24.9-18.9 8.2-9 14.3-19.5 18.4-30.6-19.9 8.9-42.4 8.9-62.3 0 7.8-4 15-9.5 21.4-16.6 7.4-8.2 13-17.7 16.7-27.8-17.5 7.8-37.2 8-54.9.8 7.3-3.6 14.2-8.8 20.3-15.4 6.7-7.4 11.7-15.9 15-25-15.2 6.7-32.1 7.2-47.5 1.4 6.9-3.2 13.3-7.9 18.9-14.1 5.9-6.5 10.4-14.1 13.3-22.2-13.4 5.9-28.3 6.4-41.9 1.4 5.8-2.8 11.3-6.9 16.1-12.2 5.2-5.7 9.1-12.3 11.6-19.4-11.5 5.1-24.4 5.6-36.2 1.4 4.9-2.4 9.4-5.8 13.4-10.2 4.4-4.9 7.8-10.6 10-16.6-9.7 4.3-20.4 4.8-30.3 1.4 3.9-2 7.6-4.8 10.8-8.3 3.7-4.1 6.5-8.8 8.3-13.8-7.7 3.4-16.3 3.9-24.3 1.4 3-1.6 5.8-3.7 8.3-6.5 2.9-3.2 5.1-7 6.6-11-5.8 2.6-12.1 3-18.1 1.5 2.1-1.2 4.1-2.7 5.8-4.6 2.2-2.4 3.8-5.2 4.9-8.2h-.1c-5.7 2.5-12.5.5-16.2-4.5-.5-.6-.9-1.3-1.4-2-4.1-6.6-6.1-16-6.1-16s-2 9.4-6.3 16.1c-.5.7-.9 1.4-1.4 2-3.7 5-10.4 7-16.2 4.5h-.1c1.1 3 2.7 5.8 4.9 8.2 1.7 1.9 3.7 3.4 5.8 4.6-6 1.5-12.3 1-18.1-1.5 1.5 4 3.7 7.8 6.6 11 2.5 2.7 5.3 4.9 8.3 6.5-8 2.5-16.5 2-24.3-1.4 1.8 5 4.6 9.7 8.3 13.8 3.2 3.6 6.9 6.3 10.8 8.3-9.9 3.4-20.6 2.9-30.3-1.4 2.2 6 5.5 11.7 10 16.6 4 4.4 8.6 7.8 13.4 10.2-11.8 4.2-24.6 3.8-36.2-1.4 2.6 7.1 6.5 13.7 11.6 19.4 4.8 5.3 10.3 9.3 16.1 12.2-13.6 5-28.5 4.6-41.9-1.4 3 8.1 7.4 15.6 13.3 22.2 5.6 6.2 12.1 10.9 18.9 14.1-15.4 5.8-32.3 5.3-47.5-1.4 3.3 9.1 8.3 17.6 15 25 6 6.6 12.9 11.8 20.3 15.4-17.7 7.3-37.3 7-54.9-.8 3.7 10.1 9.3 19.6 16.7 27.8 6.4 7.1 13.7 12.6 21.4 16.6-19.9 8.8-42.4 8.8-62.3 0 4.1 11.1 10.2 21.6 18.4 30.6 7.4 8.2 15.8 14.4 24.9 18.9-21.6 9.3-45.7 9.2-67.2-.4 4.4 12.1 11.1 23.5 20 33.4 7.3 8.1 15.6 14.5 24.5 19.3-21.1 6.7-43.8 5.5-64.3-3.6 4.8 13.2 12.1 25.5 21.7 36.2 12.6 13.9 27.8 23.3 43.8 28.1-24.9 10.3-52.5 10-77.2-1 5.2 14.2 13 27.5 23.4 39 20.9 23.1 48.4 34.5 75.8 34.3h188c27.4.2 54.9-11.2 75.8-34.3 10.4-11.5 18.2-24.8 23.4-39-24.3 10.9-51.9 11.2-76.8.9z"/><path class="st4" d="M890 600.6c16.1-4.8 31.2-14.1 43.8-28.1 9.7-10.7 16.9-23 21.7-36.2-20.5 9.1-43.2 10.3-64.3 3.6 8.8-4.8 17.1-11.2 24.5-19.3 8.9-9.8 15.6-21.2 20-33.4-21.5 9.6-45.6 9.7-67.2.4 9-4.4 17.5-10.7 24.9-18.9 8.2-9 14.3-19.5 18.4-30.6-19.9 8.9-42.4 8.9-62.3 0 7.8-4 15-9.5 21.4-16.6 7.4-8.2 13-17.7 16.7-27.8-17.5 7.8-37.2 8-54.9.8 7.3-3.6 14.2-8.8 20.3-15.4 6.7-7.4 11.7-15.9 15-25-15.2 6.7-32.1 7.2-47.5 1.4 6.9-3.2 13.3-7.9 18.9-14.1 5.9-6.5 10.4-14.1 13.3-22.2-13.4 5.9-28.3 6.4-41.9 1.4 5.8-2.8 11.3-6.9 16.1-12.2 5.2-5.7 9.1-12.3 11.6-19.4-11.5 5.1-24.4 5.6-36.2 1.4 4.9-2.4 9.4-5.8 13.4-10.2 4.4-4.9 7.8-10.6 10-16.6-9.7 4.3-20.4 4.8-30.3 1.4 3.9-2 7.6-4.8 10.8-8.3 3.7-4.1 6.5-8.8 8.3-13.8-7.7 3.4-16.3 3.9-24.3 1.4 3-1.6 5.8-3.7 8.3-6.5 2.9-3.2 5.1-7 6.6-11-5.8 2.6-12.1 3-18.1 1.5 2.1-1.2 4.1-2.7 5.8-4.6 2.2-2.4 3.8-5.2 4.9-8.2h-.1c-5.7 2.5-12.5.5-16.2-4.5-.5-.6-.9-1.3-1.4-2-4.1-6.6-6.1-16-6.1-16s-2 9.4-6.3 16.1c-.5.7-.9 1.4-1.4 2-3.7 5-10.4 7-16.2 4.5h-.1c1.1 3 2.7 5.8 4.9 8.2 1.7 1.9 3.7 3.4 5.8 4.6-6 1.5-12.3 1-18.1-1.5 1.5 4 3.7 7.8 6.6 11 2.5 2.7 5.3 4.9 8.3 6.5-8 2.5-16.5 2-24.3-1.4 1.8 5 4.6 9.7 8.3 13.8 3.2 3.6 6.9 6.3 10.8 8.3-9.9 3.4-20.6 2.9-30.3-1.4 2.2 6 5.5 11.7 10 16.6 4 4.4 8.6 7.8 13.4 10.2-11.8 4.2-24.6 3.8-36.2-1.4 2.6 7.1 6.5 13.7 11.6 19.4 4.8 5.3 10.3 9.3 16.1 12.2-13.6 5-28.5 4.6-41.9-1.4 3 8.1 7.4 15.6 13.3 22.2 5.6 6.2 12.1 10.9 18.9 14.1-15.4 5.8-32.3 5.3-47.5-1.4 3.3 9.1 8.3 17.6 15 25 6 6.6 12.9 11.8 20.3 15.4-17.7 7.3-37.3 7-54.9-.8 3.7 10.1 9.3 19.6 16.7 27.8 6.4 7.1 13.7 12.6 21.4 16.6-19.9 8.8-42.4 8.8-62.3 0 4.1 11.1 10.2 21.6 18.4 30.6 7.4 8.2 15.8 14.4 24.9 18.9-21.6 9.3-45.7 9.2-67.2-.4 4.4 12.1 11.1 23.5 20 33.4 7.3 8.1 15.6 14.5 24.5 19.3-21.1 6.7-43.8 5.5-64.3-3.6 4.8 13.2 12.1 25.5 21.7 36.2 12.6 13.9 27.8 23.3 43.8 28.1-24.9 10.3-52.5 10-77.2-1 5.2 14.2 13 27.5 23.4 39 20.9 23.1 48.4 34.5 75.8 34.3h188c27.4.2 54.9-11.2 75.8-34.3 10.4-11.5 18.2-24.8 23.4-39-24.3 10.9-51.9 11.2-76.8.9zm559.2 0c16.1-4.8 31.2-14.1 43.8-28.1 9.7-10.7 16.9-23 21.7-36.2-20.5 9.1-43.2 10.3-64.3 3.6 8.8-4.8 17.1-11.2 24.5-19.3 8.9-9.8 15.6-21.2 20-33.4-21.5 9.6-45.6 9.7-67.2.4 9-4.4 17.5-10.7 24.9-18.9 8.2-9 14.3-19.5 18.4-30.6-19.9 8.9-42.4 8.9-62.3 0 7.8-4 15-9.5 21.4-16.6 7.4-8.2 13-17.7 16.7-27.8-17.5 7.8-37.2 8-54.9.8 7.3-3.6 14.2-8.8 20.3-15.4 6.7-7.4 11.7-15.9 15-25-15.2 6.7-32.1 7.2-47.5 1.4 6.9-3.2 13.3-7.9 18.9-14.1 5.9-6.5 10.4-14.1 13.3-22.2-13.4 5.9-28.3 6.4-41.9 1.4 5.8-2.8 11.3-6.9 16.1-12.2 5.2-5.7 9.1-12.3 11.6-19.4-11.5 5.1-24.4 5.6-36.2 1.4 4.9-2.4 9.4-5.8 13.4-10.2 4.4-4.9 7.8-10.6 10-16.6-9.7 4.3-20.4 4.8-30.3 1.4 3.9-2 7.6-4.8 10.8-8.3 3.7-4.1 6.5-8.8 8.3-13.8-7.7 3.4-16.3 3.9-24.3 1.4 3-1.6 5.8-3.7 8.3-6.5 2.9-3.2 5.1-7 6.6-11-5.8 2.6-12.1 3-18.1 1.5 2.1-1.2 4.1-2.7 5.8-4.6 2.2-2.4 3.8-5.2 4.9-8.2h-.1c-5.7 2.5-12.5.5-16.2-4.5-.5-.6-.9-1.3-1.4-2-4.1-6.6-6.1-16-6.1-16s-2 9.4-6.3 16.1c-.5.7-.9 1.4-1.4 2-3.7 5-10.4 7-16.2 4.5h-.1c1.1 3 2.7 5.8 4.9 8.2 1.7 1.9 3.7 3.4 5.8 4.6-6 1.5-12.3 1-18.1-1.5 1.5 4 3.7 7.8 6.6 11 2.5 2.7 5.3 4.9 8.3 6.5-8 2.5-16.5 2-24.3-1.4 1.8 5 4.6 9.7 8.3 13.8 3.2 3.6 6.9 6.3 10.8 8.3-9.9 3.4-20.6 2.9-30.3-1.4 2.2 6 5.5 11.7 10 16.6 4 4.4 8.6 7.8 13.4 10.2-11.8 4.2-24.6 3.8-36.2-1.4 2.6 7.1 6.5 13.7 11.6 19.4 4.8 5.3 10.3 9.3 16.1 12.2-13.6 5-28.5 4.6-41.9-1.4 3 8.1 7.4 15.6 13.3 22.2 5.6 6.2 12.1 10.9 18.9 14.1-15.4 5.8-32.3 5.3-47.5-1.4 3.3 9.1 8.3 17.6 15 25 6 6.6 12.9 11.8 20.3 15.4-17.7 7.3-37.3 7-54.9-.8 3.7 10.1 9.3 19.6 16.7 27.8 6.4 7.1 13.7 12.6 21.4 16.6-19.9 8.8-42.4 8.8-62.3 0 4.1 11.1 10.2 21.6 18.4 30.6 7.4 8.2 15.8 14.4 24.9 18.9-21.6 9.3-45.7 9.2-67.2-.4 4.4 12.1 11.1 23.5 20 33.4 7.3 8.1 15.6 14.5 24.5 19.3-21.1 6.7-43.8 5.5-64.3-3.6 4.8 13.2 12.1 25.5 21.7 36.2 12.6 13.9 27.8 23.3 43.8 28.1-24.9 10.3-52.5 10-77.2-1 5.2 14.2 13 27.5 23.4 39 20.9 23.1 48.4 34.5 75.8 34.3h188c27.4.2 54.9-11.2 75.8-34.3 10.4-11.5 18.2-24.8 23.4-39-24.3 10.9-51.9 11.2-76.8.9z"/><path class="st4" d="M1822 600.6c16.1-4.8 31.2-14.1 43.8-28.1 9.7-10.7 16.9-23 21.7-36.2-20.5 9.1-43.2 10.3-64.3 3.6 8.8-4.8 17.1-11.2 24.5-19.3 8.9-9.8 15.6-21.2 20-33.4-21.5 9.6-45.6 9.7-67.2.4 9-4.4 17.5-10.7 24.9-18.9 8.2-9 14.3-19.5 18.4-30.6-19.9 8.9-42.4 8.9-62.3 0 7.8-4 15-9.5 21.4-16.6 7.4-8.2 13-17.7 16.7-27.8-17.5 7.8-37.2 8-54.9.8 7.3-3.6 14.2-8.8 20.3-15.4 6.7-7.4 11.7-15.9 15-25-15.2 6.7-32.1 7.2-47.5 1.4 6.9-3.2 13.3-7.9 18.9-14.1 5.9-6.5 10.4-14.1 13.3-22.2-13.4 5.9-28.3 6.4-41.9 1.4 5.8-2.8 11.3-6.9 16.1-12.2 5.2-5.7 9.1-12.3 11.6-19.4-11.5 5.1-24.4 5.6-36.2 1.4 4.9-2.4 9.4-5.8 13.4-10.2 4.4-4.9 7.8-10.6 10-16.6-9.7 4.3-20.4 4.8-30.3 1.4 3.9-2 7.6-4.8 10.8-8.3 3.7-4.1 6.5-8.8 8.3-13.8-7.7 3.4-16.3 3.9-24.3 1.4 3-1.6 5.8-3.7 8.3-6.5 2.9-3.2 5.1-7 6.6-11-5.8 2.6-12.1 3-18.1 1.5 2.1-1.2 4.1-2.7 5.8-4.6 2.2-2.4 3.8-5.2 4.9-8.2h-.1c-5.7 2.5-12.5.5-16.2-4.5-.5-.6-.9-1.3-1.4-2-4.1-6.6-6.1-16-6.1-16s-2 9.4-6.3 16.1c-.5.7-.9 1.4-1.4 2-3.7 5-10.4 7-16.2 4.5h-.1c1.1 3 2.7 5.8 4.9 8.2 1.7 1.9 3.7 3.4 5.8 4.6-6 1.5-12.3 1-18.1-1.5 1.5 4 3.7 7.8 6.6 11 2.5 2.7 5.3 4.9 8.3 6.5-8 2.5-16.5 2-24.3-1.4 1.8 5 4.6 9.7 8.3 13.8 3.2 3.6 6.9 6.3 10.8 8.3-9.9 3.4-20.6 2.9-30.3-1.4 2.2 6 5.5 11.7 10 16.6 4 4.4 8.6 7.8 13.4 10.2-11.8 4.2-24.6 3.8-36.2-1.4 2.6 7.1 6.5 13.7 11.6 19.4 4.8 5.3 10.3 9.3 16.1 12.2-13.6 5-28.5 4.6-41.9-1.4 3 8.1 7.4 15.6 13.3 22.2 5.6 6.2 12.1 10.9 18.9 14.1-15.4 5.8-32.3 5.3-47.5-1.4 3.3 9.1 8.3 17.6 15 25 6 6.6 12.9 11.8 20.3 15.4-17.7 7.3-37.3 7-54.9-.8 3.7 10.1 9.3 19.6 16.7 27.8 6.4 7.1 13.7 12.6 21.4 16.6-19.9 8.8-42.4 8.8-62.3 0 4.1 11.1 10.2 21.6 18.4 30.6 7.4 8.2 15.8 14.4 24.9 18.9-21.6 9.3-45.7 9.2-67.2-.4 4.4 12.1 11.1 23.5 20 33.4 7.3 8.1 15.6 14.5 24.5 19.3-21.1 6.7-43.8 5.5-64.3-3.6 4.8 13.2 12.1 25.5 21.7 36.2 12.6 13.9 27.8 23.3 43.8 28.1-24.9 10.3-52.5 10-77.2-1 5.2 14.2 13 27.5 23.4 39 20.9 23.1 48.4 34.5 75.8 34.3h188c27.4.2 54.9-11.2 75.8-34.3 10.4-11.5 18.2-24.8 23.4-39-24.3 10.9-51.9 11.2-76.8.9zm-1118.4 0c16.1-4.8 31.2-14.1 43.8-28.1 9.7-10.7 16.9-23 21.7-36.2-20.5 9.1-43.2 10.3-64.3 3.6 8.8-4.8 17.1-11.2 24.5-19.3 8.9-9.8 15.6-21.2 20-33.4-21.5 9.6-45.6 9.7-67.2.4 9-4.4 17.5-10.7 24.9-18.9 8.2-9 14.3-19.5 18.4-30.6-19.9 8.9-42.4 8.9-62.3 0 7.8-4 15-9.5 21.4-16.6 7.4-8.2 13-17.7 16.7-27.8-17.5 7.8-37.2 8-54.9.8 7.3-3.6 14.2-8.8 20.3-15.4 6.7-7.4 11.7-15.9 15-25-15.2 6.7-32.1 7.2-47.5 1.4 6.9-3.2 13.3-7.9 18.9-14.1 5.9-6.5 10.4-14.1 13.3-22.2-13.4 5.9-28.3 6.4-41.9 1.4 5.8-2.8 11.3-6.9 16.1-12.2 5.2-5.7 9.1-12.3 11.6-19.4-11.5 5.1-24.4 5.6-36.2 1.4 4.9-2.4 9.4-5.8 13.4-10.2 4.4-4.9 7.8-10.6 10-16.6-9.7 4.3-20.4 4.8-30.3 1.4 3.9-2 7.6-4.8 10.8-8.3 3.7-4.1 6.5-8.8 8.3-13.8-7.7 3.4-16.3 3.9-24.3 1.4 3-1.6 5.8-3.7 8.3-6.5 2.9-3.2 5.1-7 6.6-11-5.8 2.6-12.1 3-18.1 1.5 2.1-1.2 4.1-2.7 5.8-4.6 2.2-2.4 3.8-5.2 4.9-8.2h-.1c-5.7 2.5-12.5.5-16.2-4.5-.5-.6-.9-1.3-1.4-2-4.1-6.6-6.1-16-6.1-16s-2 9.4-6.3 16.1c-.5.7-.9 1.4-1.4 2-3.7 5-10.4 7-16.2 4.5h-.1c1.1 3 2.7 5.8 4.9 8.2 1.7 1.9 3.7 3.4 5.8 4.6-6 1.5-12.3 1-18.1-1.5 1.5 4 3.7 7.8 6.6 11 2.5 2.7 5.3 4.9 8.3 6.5-8 2.5-16.5 2-24.3-1.4 1.8 5 4.6 9.7 8.3 13.8 3.2 3.6 6.9 6.3 10.8 8.3-9.9 3.4-20.6 2.9-30.3-1.4 2.2 6 5.5 11.7 10 16.6 4 4.4 8.6 7.8 13.4 10.2-11.8 4.2-24.6 3.8-36.2-1.4 2.6 7.1 6.5 13.7 11.6 19.4 4.8 5.3 10.3 9.3 16.1 12.2-13.6 5-28.5 4.6-41.9-1.4 3 8.1 7.4 15.6 13.3 22.2 5.6 6.2 12.1 10.9 18.9 14.1-15.4 5.8-32.3 5.3-47.5-1.4 3.3 9.1 8.3 17.6 15 25 6 6.6 12.9 11.8 20.3 15.4-17.7 7.3-37.3 7-54.9-.8 3.7 10.1 9.3 19.6 16.7 27.8 6.4 7.1 13.7 12.6 21.4 16.6-19.9 8.8-42.4 8.8-62.3 0 4.1 11.1 10.2 21.6 18.4 30.6 7.4 8.2 15.8 14.4 24.9 18.9-21.6 9.3-45.7 9.2-67.2-.4 4.4 12.1 11.1 23.5 20 33.4 7.3 8.1 15.6 14.5 24.5 19.3-21.1 6.7-43.8 5.5-64.3-3.6 4.8 13.2 12.1 25.5 21.7 36.2 12.6 13.9 27.8 23.3 43.8 28.1-24.9 10.3-52.5 10-77.2-1 5.2 14.2 13 27.5 23.4 39 20.9 23.1 48.4 34.5 75.8 34.3h188c27.4.2 54.9-11.2 75.8-34.3 10.4-11.5 18.2-24.8 23.4-39-24.3 10.9-51.9 11.2-76.8.9z"/><path class="st4" d="M1076.4 600.6c16.1-4.8 31.2-14.1 43.8-28.1 9.7-10.7 16.9-23 21.7-36.2-20.5 9.1-43.2 10.3-64.3 3.6 8.8-4.8 17.1-11.2 24.5-19.3 8.9-9.8 15.6-21.2 20-33.4-21.5 9.6-45.6 9.7-67.2.4 9-4.4 17.5-10.7 24.9-18.9 8.2-9 14.3-19.5 18.4-30.6-19.9 8.9-42.4 8.9-62.3 0 7.8-4 15-9.5 21.4-16.6 7.4-8.2 13-17.7 16.7-27.8-17.5 7.8-37.2 8-54.9.8 7.3-3.6 14.2-8.8 20.3-15.4 6.7-7.4 11.7-15.9 15-25-15.2 6.7-32.1 7.2-47.5 1.4 6.9-3.2 13.3-7.9 18.9-14.1 5.9-6.5 10.4-14.1 13.3-22.2-13.4 5.9-28.3 6.4-41.9 1.4 5.8-2.8 11.3-6.9 16.1-12.2 5.2-5.7 9.1-12.3 11.6-19.4-11.5 5.1-24.4 5.6-36.2 1.4 4.9-2.4 9.4-5.8 13.4-10.2 4.4-4.9 7.8-10.6 10-16.6-9.7 4.3-20.4 4.8-30.3 1.4 3.9-2 7.6-4.8 10.8-8.3 3.7-4.1 6.5-8.8 8.3-13.8-7.7 3.4-16.3 3.9-24.3 1.4 3-1.6 5.8-3.7 8.3-6.5 2.9-3.2 5.1-7 6.6-11-5.8 2.6-12.1 3-18.1 1.5 2.1-1.2 4.1-2.7 5.8-4.6 2.2-2.4 3.8-5.2 4.9-8.2h-.1c-5.7 2.5-12.5.5-16.2-4.5-.5-.6-.9-1.3-1.4-2-4.1-6.6-6.1-16-6.1-16s-2 9.4-6.3 16.1c-.5.7-.9 1.4-1.4 2-3.7 5-10.4 7-16.2 4.5h-.1c1.1 3 2.7 5.8 4.9 8.2 1.7 1.9 3.7 3.4 5.8 4.6-6 1.5-12.3 1-18.1-1.5 1.5 4 3.7 7.8 6.6 11 2.5 2.7 5.3 4.9 8.3 6.5-8 2.5-16.5 2-24.3-1.4 1.8 5 4.6 9.7 8.3 13.8 3.2 3.6 6.9 6.3 10.8 8.3-9.9 3.4-20.6 2.9-30.3-1.4 2.2 6 5.5 11.7 10 16.6 4 4.4 8.6 7.8 13.4 10.2-11.8 4.2-24.6 3.8-36.2-1.4 2.6 7.1 6.5 13.7 11.6 19.4 4.8 5.3 10.3 9.3 16.1 12.2-13.6 5-28.5 4.6-41.9-1.4 3 8.1 7.4 15.6 13.3 22.2 5.6 6.2 12.1 10.9 18.9 14.1-15.4 5.8-32.3 5.3-47.5-1.4 3.3 9.1 8.3 17.6 15 25 6 6.6 12.9 11.8 20.3 15.4-17.7 7.3-37.3 7-54.9-.8 3.7 10.1 9.3 19.6 16.7 27.8 6.4 7.1 13.7 12.6 21.4 16.6-19.9 8.8-42.4 8.8-62.3 0 4.1 11.1 10.2 21.6 18.4 30.6 7.4 8.2 15.8 14.4 24.9 18.9-21.6 9.3-45.7 9.2-67.2-.4 4.4 12.1 11.1 23.5 20 33.4 7.3 8.1 15.6 14.5 24.5 19.3-21.1 6.7-43.8 5.5-64.3-3.6 4.8 13.2 12.1 25.5 21.7 36.2 12.6 13.9 27.8 23.3 43.8 28.1-24.9 10.3-52.5 10-77.2-1 5.2 14.2 13 27.5 23.4 39 20.9 23.1 48.4 34.5 75.8 34.3h188c27.4.2 54.9-11.2 75.8-34.3 10.4-11.5 18.2-24.8 23.4-39-24.3 10.9-51.9 11.2-76.8.9z"/><path class="st4" d="M1262.8 600.6c16.1-4.8 31.2-14.1 43.8-28.1 9.7-10.7 16.9-23 21.7-36.2-20.5 9.1-43.2 10.3-64.3 3.6 8.8-4.8 17.1-11.2 24.5-19.3 8.9-9.8 15.6-21.2 20-33.4-21.5 9.6-45.6 9.7-67.2.4 9-4.4 17.5-10.7 24.9-18.9 8.2-9 14.3-19.5 18.4-30.6-19.9 8.9-42.4 8.9-62.3 0 7.8-4 15-9.5 21.4-16.6 7.4-8.2 13-17.7 16.7-27.8-17.5 7.8-37.2 8-54.9.8 7.3-3.6 14.2-8.8 20.3-15.4 6.7-7.4 11.7-15.9 15-25-15.2 6.7-32.1 7.2-47.5 1.4 6.9-3.2 13.3-7.9 18.9-14.1 5.9-6.5 10.4-14.1 13.3-22.2-13.4 5.9-28.3 6.4-41.9 1.4 5.8-2.8 11.3-6.9 16.1-12.2 5.2-5.7 9.1-12.3 11.6-19.4-11.5 5.1-24.4 5.6-36.2 1.4 4.9-2.4 9.4-5.8 13.4-10.2 4.4-4.9 7.8-10.6 10-16.6-9.7 4.3-20.4 4.8-30.3 1.4 3.9-2 7.6-4.8 10.8-8.3 3.7-4.1 6.5-8.8 8.3-13.8-7.7 3.4-16.3 3.9-24.3 1.4 3-1.6 5.8-3.7 8.3-6.5 2.9-3.2 5.1-7 6.6-11-5.8 2.6-12.1 3-18.1 1.5 2.1-1.2 4.1-2.7 5.8-4.6 2.2-2.4 3.8-5.2 4.9-8.2h-.1c-5.7 2.5-12.5.5-16.2-4.5-.5-.6-.9-1.3-1.4-2-4.1-6.6-6.1-16-6.1-16s-2 9.4-6.3 16.1c-.5.7-.9 1.4-1.4 2-3.7 5-10.4 7-16.2 4.5h-.1c1.1 3 2.7 5.8 4.9 8.2 1.7 1.9 3.7 3.4 5.8 4.6-6 1.5-12.3 1-18.1-1.5 1.5 4 3.7 7.8 6.6 11 2.5 2.7 5.3 4.9 8.3 6.5-8 2.5-16.5 2-24.3-1.4 1.8 5 4.6 9.7 8.3 13.8 3.2 3.6 6.9 6.3 10.8 8.3-9.9 3.4-20.6 2.9-30.3-1.4 2.2 6 5.5 11.7 10 16.6 4 4.4 8.6 7.8 13.4 10.2-11.8 4.2-24.6 3.8-36.2-1.4 2.6 7.1 6.5 13.7 11.6 19.4 4.8 5.3 10.3 9.3 16.1 12.2-13.6 5-28.5 4.6-41.9-1.4 3 8.1 7.4 15.6 13.3 22.2 5.6 6.2 12.1 10.9 18.9 14.1-15.4 5.8-32.3 5.3-47.5-1.4 3.3 9.1 8.3 17.6 15 25 6 6.6 12.9 11.8 20.3 15.4-17.7 7.3-37.3 7-54.9-.8 3.7 10.1 9.3 19.6 16.7 27.8 6.4 7.1 13.7 12.6 21.4 16.6-19.9 8.8-42.4 8.8-62.3 0 4.1 11.1 10.2 21.6 18.4 30.6 7.4 8.2 15.8 14.4 24.9 18.9-21.6 9.3-45.7 9.2-67.2-.4 4.4 12.1 11.1 23.5 20 33.4 7.3 8.1 15.6 14.5 24.5 19.3-21.1 6.7-43.8 5.5-64.3-3.6 4.8 13.2 12.1 25.5 21.7 36.2 12.6 13.9 27.8 23.3 43.8 28.1-24.9 10.3-52.5 10-77.2-1 5.2 14.2 13 27.5 23.4 39 20.9 23.1 48.4 34.5 75.8 34.3h188c27.4.2 54.9-11.2 75.8-34.3 10.4-11.5 18.2-24.8 23.4-39-24.3 10.9-51.9 11.2-76.8.9z"/><path class="st4" d="M1635.6 600.6c16.1-4.8 31.2-14.1 43.8-28.1 9.7-10.7 16.9-23 21.7-36.2-20.5 9.1-43.2 10.3-64.3 3.6 8.8-4.8 17.1-11.2 24.5-19.3 8.9-9.8 15.6-21.2 20-33.4-21.5 9.6-45.6 9.7-67.2.4 9-4.4 17.5-10.7 24.9-18.9 8.2-9 14.3-19.5 18.4-30.6-19.9 8.9-42.4 8.9-62.3 0 7.8-4 15-9.5 21.4-16.6 7.4-8.2 13-17.7 16.7-27.8-17.5 7.8-37.2 8-54.9.8 7.3-3.6 14.2-8.8 20.3-15.4 6.7-7.4 11.7-15.9 15-25-15.2 6.7-32.1 7.2-47.5 1.4 6.9-3.2 13.3-7.9 18.9-14.1 5.9-6.5 10.4-14.1 13.3-22.2-13.4 5.9-28.3 6.4-41.9 1.4 5.8-2.8 11.3-6.9 16.1-12.2 5.2-5.7 9.1-12.3 11.6-19.4-11.5 5.1-24.4 5.6-36.2 1.4 4.9-2.4 9.4-5.8 13.4-10.2 4.4-4.9 7.8-10.6 10-16.6-9.7 4.3-20.4 4.8-30.3 1.4 3.9-2 7.6-4.8 10.8-8.3 3.7-4.1 6.5-8.8 8.3-13.8-7.7 3.4-16.3 3.9-24.3 1.4 3-1.6 5.8-3.7 8.3-6.5 2.9-3.2 5.1-7 6.6-11-5.8 2.6-12.1 3-18.1 1.5 2.1-1.2 4.1-2.7 5.8-4.6 2.2-2.4 3.8-5.2 4.9-8.2h-.1c-5.7 2.5-12.5.5-16.2-4.5-.5-.6-.9-1.3-1.4-2-4.1-6.6-6.1-16-6.1-16s-2 9.4-6.3 16.1c-.5.7-.9 1.4-1.4 2-3.7 5-10.4 7-16.2 4.5h-.1c1.1 3 2.7 5.8 4.9 8.2 1.7 1.9 3.7 3.4 5.8 4.6-6 1.5-12.3 1-18.1-1.5 1.5 4 3.7 7.8 6.6 11 2.5 2.7 5.3 4.9 8.3 6.5-8 2.5-16.5 2-24.3-1.4 1.8 5 4.6 9.7 8.3 13.8 3.2 3.6 6.9 6.3 10.8 8.3-9.9 3.4-20.6 2.9-30.3-1.4 2.2 6 5.5 11.7 10 16.6 4 4.4 8.6 7.8 13.4 10.2-11.8 4.2-24.6 3.8-36.2-1.4 2.6 7.1 6.5 13.7 11.6 19.4 4.8 5.3 10.3 9.3 16.1 12.2-13.6 5-28.5 4.6-41.9-1.4 3 8.1 7.4 15.6 13.3 22.2 5.6 6.2 12.1 10.9 18.9 14.1-15.4 5.8-32.3 5.3-47.5-1.4 3.3 9.1 8.3 17.6 15 25 6 6.6 12.9 11.8 20.3 15.4-17.7 7.3-37.3 7-54.9-.8 3.7 10.1 9.3 19.6 16.7 27.8 6.4 7.1 13.7 12.6 21.4 16.6-19.9 8.8-42.4 8.8-62.3 0 4.1 11.1 10.2 21.6 18.4 30.6 7.4 8.2 15.8 14.4 24.9 18.9-21.6 9.3-45.7 9.2-67.2-.4 4.4 12.1 11.1 23.5 20 33.4 7.3 8.1 15.6 14.5 24.5 19.3-21.1 6.7-43.8 5.5-64.3-3.6 4.8 13.2 12.1 25.5 21.7 36.2 12.6 13.9 27.8 23.3 43.8 28.1-24.9 10.3-52.5 10-77.2-1 5.2 14.2 13 27.5 23.4 39 20.9 23.1 48.4 34.5 75.8 34.3h188c27.4.2 54.9-11.2 75.8-34.3 10.4-11.5 18.2-24.8 23.4-39-24.3 10.9-51.9 11.2-76.8.9z"/></svg>