<svg xmlns="http://www.w3.org/2000/svg" viewBox="0 0 1920 673" xml:space="preserve"><style>.st1{fill:#2e86b7}.st4{fill:#038387}.st5{fill:#eec646}.st6{fill:#cc584c}</style><path fill="#ddd" d="M0 0h1920v673H0z"/><path class="st1" d="M678.4 336.2c.6-2.7.2-5.8-1-9.2-1.7-4.7-4.6-7.7-8.8-9.1-4.2-1.4-9.2-1-14.9 1.1l-19.1 7 17.7 48.6 11.7-4.3-6.3-17.2 6.3-2.3 14.8 14.1 12.6-4.6-.2-.5-17.3-15.8c2.4-2.5 3.9-5 4.5-7.8zm-12.2 1.7c-.7 1.6-2.2 2.8-4.4 3.6l-7.4 2.7-4.9-13.4 7.4-2.7c2.2-.8 4.1-.8 5.7 0 1.6.8 2.7 2.2 3.5 4.3.7 2.1.8 3.9.1 5.5zm39.4-37.7 11.7-4.3 11.6 31.8c1.3 3.6 1.7 7 1.1 10.2-.6 3.2-2 6-4.4 8.4-2.4 2.4-5.5 4.4-9.4 5.8-5.9 2.2-11.2 2.3-15.7.5-4.5-1.8-7.8-5.4-9.8-10.7l-11.7-32 11.8-4.3 11.8 32.3c2.1 5.3 5.5 7 10.3 5.3 2.4-.9 4-2.2 4.8-4 .8-1.8.6-4.2-.5-7.2l-11.6-31.8zm-116.7 42.5 40.7-14.8 3.3 9.1-14.6 5.3 14.4 39.6-11.7 4.3-14.4-39.6-14.3 5.2-3.4-9.1zm206-50.4c-.1-.3-.2-.6-.4-.9-.3-.6-.5-1.3-.8-1.9-.2-.4-.3-.7-.5-1.1-.3-.6-.5-1.2-.8-1.7-.2-.4-.4-.8-.5-1.1-.3-.5-.5-1.1-.8-1.6l-.6-1.2c-.3-.5-.5-1-.8-1.5-.2-.4-.4-.8-.7-1.3-.2-.5-.5-.9-.7-1.4-.2-.4-.5-.9-.8-1.3-.2-.4-.5-.9-.7-1.3l-.9-1.5c-.2-.4-.4-.7-.6-1.1-.3-.6-.7-1.1-1.1-1.7-.2-.3-.3-.5-.5-.8-.4-.7-.9-1.3-1.3-2-.1-.1-.2-.3-.3-.5C751.7 223.8 694 203.7 641 223c-62.7 22.8-95 92.2-72.2 154.8.4 1 .7 1.9 1.1 2.9.1.3.2.6.4.9.3.6.5 1.3.8 1.9.2.4.3.7.5 1.1.3.6.5 1.2.8 1.7.2.4.4.8.5 1.1.3.5.5 1.1.8 1.6l.6 1.2c.3.5.5 1 .8 1.5.2.4.4.8.7 1.3.2.5.5.9.7 1.4.2.4.5.9.8 1.3.2.4.5.9.7 1.3l.9 1.5c.2.4.4.7.6 1.1.3.6.7 1.1 1.1 1.7.2.3.3.5.5.8.4.7.9 1.3 1.3 2 .1.1.2.3.3.5 30.4 44.6 88.1 64.7 141.1 45.4 62.7-22.8 95-92.2 72.2-154.8-.3-1-.7-2-1.1-2.9zm-3.3 7.4.3.9c.2.6.4 1.1.6 1.7.1.4.2.7.3 1.1.1.5.3 1 .4 1.5.1.4.2.9.4 1.3.1.4.2.8.3 1.3.1.5.3 1 .4 1.5.1.3.2.7.2 1 .1.6.3 1.2.4 1.8 0 .2.1.4.1.6.2.7.3 1.5.5 2.2v.1c1.5 7.6 2.2 15.4 2.1 23.2l-202.3 73.6c-3.9-4.5-7.3-9.2-10.4-14.2-.1-.2-.3-.4-.4-.6-.3-.5-.6-.9-.8-1.4-.2-.3-.4-.7-.6-1-.2-.4-.4-.8-.7-1.2-.2-.4-.5-.9-.7-1.3-.2-.3-.4-.7-.6-1-.3-.5-.5-1-.8-1.5-.2-.3-.3-.6-.5-.9-.3-.5-.5-1-.8-1.6-.1-.3-.3-.6-.4-.9-.3-.5-.5-1.1-.8-1.6-.1-.3-.3-.6-.4-.9-.3-.6-.5-1.1-.7-1.7-.1-.3-.2-.6-.4-.8-.3-.6-.5-1.2-.7-1.8-.1-.2-.2-.5-.3-.7-.3-.9-.7-1.7-1-2.6-.3-.9-.6-1.7-.9-2.6l-.3-.9c-.2-.6-.4-1.1-.6-1.7-.1-.4-.2-.7-.3-1.1-.1-.5-.3-1-.4-1.5-.1-.4-.2-.9-.4-1.3-.1-.4-.2-.8-.3-1.3-.1-.5-.3-1-.4-1.5-.1-.3-.2-.7-.2-1-.1-.6-.3-1.2-.4-1.8 0-.2-.1-.4-.1-.6-.2-.7-.3-1.5-.5-2.2v-.1c-1.5-7.6-2.2-15.4-2.1-23.2l202.3-73.6c3.9 4.5 7.3 9.2 10.4 14.2.1.2.3.4.4.6.3.5.6.9.8 1.4.2.3.4.7.6 1 .2.4.4.8.7 1.2.2.4.5.9.7 1.3.2.3.4.7.6 1 .3.5.5 1 .8 1.5.2.3.3.6.5.9.3.5.5 1 .8 1.6.1.3.3.6.4.9.3.5.5 1.1.8 1.6.1.3.3.6.4.9.3.6.5 1.1.7 1.7.1.3.2.6.4.8.3.6.5 1.2.7 1.8.1.2.2.5.3.7.3.9.7 1.7 1 2.6.3.9.6 1.8.9 2.6zm-17.5 59.2c-.2.9-1.6 1.9-3.7 2.7-1.9.7-4.4 1.2-7.2 1.6-1.5-1.5-3.3-3.1-5.1-4.7l12.9-4.7c2.6 2.5 3.4 4.2 3.1 5.1zm-8 18.8c-2.1.8-5.4 1-9.7.7-2.4-3.5-5.6-7.6-9.4-11.8 5.8.2 10.8 0 15.1-.4 5.5 5.7 6.5 9 5.9 10.2-.3.6-1.2 1.1-1.9 1.3zm-7.5 14.6c-.2.3-.5.5-1 .7-1 .4-3.9.9-10.8-.9-1.7-4-4-8.5-6.9-13.4 5.6 1.3 10.6 2.2 14.9 2.6 4.2 6.5 4.6 9.9 3.8 11zm-132.8 14.3 12.9-4.7c-.4 2.5-.7 4.8-.9 6.9-2.4 1.6-4.6 2.7-6.5 3.4-2.1.8-3.8.9-4.6.4-.7-.6-1.3-2.4-.9-6zm42.1-4.2c2.1-2.9 4.3-6.1 6.5-9.4 1.2 3.9 2.4 7.6 3.5 11-2.6 5.7-5 10-7.1 13.4-1-3.5-1.9-7.8-2.7-13.2-.1-.7-.1-1.2-.2-1.8zm-26-1.7 10.7-3.9v.1c-4.1 3.9-8.1 7.1-11.6 9.7.1-1.7.5-3.7.9-5.9zm-1.3 9.7c3.5-2.4 7.6-5.6 11.8-9.4-.2 5.8-.1 10.8.4 15.1-3.1 3-5.8 5-7.9 5.8-.7.2-1.6.5-2.3.2-1.2-.7-2.6-3.9-2-11.7zm15.2 6.8c3-3.1 6.3-6.9 9.7-11.5 1 5.6 2.1 10.6 3.4 14.7-4 5.8-6.6 7.3-7.6 7.6-.5.2-.9.3-1.2.1-1.4-.2-3.4-3.1-4.3-10.9zm-.4-3.8c-.3-3.6-.3-8-.1-13.3 0-.5 0-1.2.1-1.7 1.4-1.3 2.8-2.6 4.2-4l4.3-1.6c.3 3.1.7 6.1 1.1 9-3.5 4.6-6.7 8.5-9.6 11.6zm16.7 7.4c2.3-3.6 4.8-8 7.3-13.2 2 5.4 4.1 10.1 6.2 13.8-2.5 5.9-4.8 8.7-6.5 9.3-.2.1-.4.1-.7.1-1.3-.1-3.8-2.6-6.3-10zm-5.1-22.5c-.3-2.1-.5-4.2-.7-6.4l6.6-2.4c-2 3.1-4 6.1-5.9 8.8zm39.8-21.2.7-.3c2 1.2 3.9 2.3 5.9 3.3.8 3.7 1.6 7.2 2.1 10.6-2.7-2.1-5.5-4.4-8.4-6.8-.1-2.1-.2-4.4-.3-6.8zm4.2-1.5 1.1-.4.3 1.2c-.5-.3-.9-.6-1.4-.8zm-9.8 3.5 2.6-.9c0 1.1.1 2.2.1 3.3l-2.7-2.4zm3.1 6.3c.1 3.8.1 7.3 0 10.9-2.2-2.6-4.6-5.4-7-8.3.5-2.5.9-5 1.2-7.5 1.9 1.7 3.8 3.3 5.8 4.9zm-9.6-.5c-.7-.9-1.4-1.7-2-2.6l2.6-.9c-.2 1.1-.4 2.3-.6 3.5zm-.5 3.8c-.6 3.7-1.3 7.2-2.1 10.6-1.7-3-3.5-6.2-5.2-9.5.8-2 1.6-4.2 2.4-6.3l.7-.2c1.4 1.8 2.8 3.7 4.2 5.4zm-9.3-2.3c-.2-.4-.4-.7-.5-1.1l1.1-.4-.6 1.5zm-3-.3c.6 1.3 1.3 2.6 1.9 3.9-1.4 3.5-2.8 6.9-4.1 10-1.1-3.2-2.2-6.7-3.2-10.4.4-.6.8-1.3 1.2-2l4.2-1.5zm-.8 17.8c1.5-3.3 3-6.9 4.5-10.6 1.9 3.6 3.8 6.9 5.6 10-1.4 5.9-2.9 10.7-4.3 14.5-1.6-3.2-3.4-7.2-5.2-12.3l-.6-1.6zm12.2 3c3.1 4.9 5.9 9 8.7 12.3-1.5 7.1-3.6 10-4.9 10.5l-.3.1c-1.3.2-4.3-1.7-8.1-8.5 1.6-4 3.2-8.9 4.6-14.4zm1.9-2.5-.9-1.5c.9-3.5 1.6-7.3 2.4-11.3 2.6 3.2 5.1 6.1 7.5 8.8v.4c-.3 6-.7 10.8-1.4 14.6-2.3-2.8-4.8-6.4-7.6-11zm11.7-1c4 4.2 7.6 7.7 10.9 10.4-.1 7.9-1.7 10.9-3 11.4s-4.5-.8-9.6-6.8c.8-4.3 1.4-9.3 1.7-15zm.4-3.7c-.1-.1-.1-.2-.3-.3.1-3.6.2-7.5.1-11.5 3.1 2.6 6.2 5 9.1 7.1.1.6.2 1.1.3 1.7.8 5.3 1.2 9.7 1.3 13.3-3-2.6-6.5-5.9-10.5-10.3zm12.2-2.3c4.6 3.3 9 6 12.7 8.1 1.4 7.7.4 11-.7 11.8l-.3.1c-1.3.5-4.7-.4-10.5-4.8 0-4.5-.4-9.5-1.2-15.2zm-.7-4c-.6-3.6-1.3-7.4-2.1-11.3 3.6 1.9 7 3.7 10.3 5.2l.6 1.6c1.8 5 3.1 9.2 3.9 12.8-3.6-2-7.8-4.7-12.7-8.3zm2.4-20c1.5 3.5 2.9 6.8 4.2 10-3.1-1.5-6.3-3.2-9.6-5-.3-1.4-.6-2.8-1-4.2l4.2-1.5c.8.2 1.5.4 2.2.7zm33.7-13.8c1.7 1.4 3.2 2.7 4.5 3.9-4.4.3-9.5.3-15.1 0l-.1-.1 10.7-3.8zm-18 19.6c2.7 4.6 4.8 8.5 6.4 11.8-3.7-1.2-8.3-3.1-14-5.7-1.2-3.4-2.7-7-4.3-10.7 3.9 1.1 7.6 2.1 11.1 3 .2.6.5 1.1.8 1.6zm-6.7-10.6c1.2 1.8 2.4 3.7 3.6 5.4-3.2-.8-6.6-1.8-10.2-3l6.6-2.4zm.4 20.5c5.3 2.3 10 4.2 14.1 5.4 2.9 7.2 2.5 10.7 1.6 11.6-.2.1-.3.3-.6.4-1.7.6-5.3 0-10.9-2.9-.9-4.3-2.3-9.2-4.2-14.5zm2.3-21.5 4.2-1.5c2 .2 3.9.3 5.8.4.4.4.8.9 1.1 1.3 3.6 4 6.4 7.4 8.5 10.3-4.2-.5-9.2-1.5-14.8-2.9-1.4-2.5-3-5-4.8-7.6zm-142-53.5c.2-.9 1.6-1.9 3.7-2.7 1.9-.7 4.4-1.2 7.2-1.6 1.5 1.5 3.3 3.1 5.1 4.7l-12.9 4.7c-2.6-2.5-3.4-4.2-3.1-5.1zm105.2-61.5c4-5.8 6.6-7.3 7.6-7.6.5-.2.9-.3 1.2-.1 1.3.3 3.3 3.2 4.2 11-3 3.1-6.3 6.9-9.7 11.5-.9-5.7-2.1-10.7-3.3-14.8zm16.1 4.3c3.1-3 5.8-5 7.9-5.8.7-.2 1.6-.5 2.3-.2 1.2.6 2.6 3.8 2 11.6-3.5 2.4-7.6 5.6-11.8 9.4.2-5.7.1-10.7-.4-15zm27.3 9.4-12.9 4.7c.4-2.5.7-4.8.9-6.9 2.4-1.6 4.6-2.7 6.5-3.4 2.1-.8 3.8-.9 4.6-.4.8.5 1.3 2.4.9 6zm-42.4 4.3c-2.1 2.9-4.3 6.1-6.5 9.4-1.2-3.9-2.4-7.6-3.5-11 2.6-5.7 5-10 7.1-13.4 1 3.5 1.9 7.8 2.7 13.2.1.7.1 1.2.2 1.8zm26.4 1.5-10.7 3.9v-.1c4.1-3.9 8.1-7.1 11.6-9.7-.2 1.8-.5 3.8-.9 5.9zm-13.9-12.5c.3 3.6.3 8 .1 13.3 0 .5 0 1.2-.1 1.7-1.4 1.3-2.8 2.6-4.2 4l-4.3 1.6c-.3-3.1-.7-6.1-1.1-9 3.5-4.6 6.7-8.5 9.6-11.6zm-16.7-7.4c-2.3 3.6-4.8 8-7.3 13.2-2-5.4-4.1-10.1-6.2-13.8 2.5-5.9 4.8-8.7 6.5-9.3.2-.1.4-.1.7-.1 1.3.1 3.8 2.6 6.3 10zm5.1 22.5c.3 2.1.5 4.2.7 6.4l-6.6 2.4c2-3.1 4-6.1 5.9-8.8zm-39.8 21.2-.7.3c-2-1.2-3.9-2.3-5.9-3.3-.8-3.7-1.6-7.2-2.1-10.6 2.7 2.1 5.5 4.4 8.4 6.8.1 2.1.2 4.4.3 6.8zm-4.2 1.5-1.1.4-.3-1.2c.5.3.9.6 1.4.8zm9.8-3.5-2.6.9c0-1.1-.1-2.2-.1-3.3l2.7 2.4zm-3.1-6.3c-.1-3.8-.1-7.3 0-10.9 2.2 2.6 4.6 5.4 7 8.3-.5 2.5-.9 5-1.2 7.5-1.9-1.7-3.8-3.3-5.8-4.9zm9.6.5c.7.9 1.4 1.7 2 2.6l-2.6.9c.2-1.1.4-2.3.6-3.5zm.5-3.8c.6-3.7 1.3-7.2 2.1-10.6 1.7 3 3.5 6.2 5.2 9.5-.8 2-1.6 4.2-2.4 6.3l-.7.2c-1.4-1.8-2.8-3.7-4.2-5.4zm9.3 2.3c.2.4.4.7.5 1.1l-1.1.4.6-1.5zm3 .3c-.6-1.3-1.3-2.6-1.9-3.9 1.4-3.5 2.8-6.9 4.1-10 1.1 3.2 2.2 6.7 3.2 10.4-.4.6-.8 1.3-1.2 2l-4.2 1.5zm.8-17.8c-1.5 3.3-3 6.9-4.5 10.6-1.9-3.6-3.8-6.9-5.6-10 1.4-5.9 2.9-10.7 4.3-14.5 1.6 3.2 3.4 7.2 5.2 12.3l.6 1.6zm-12.2-3c-3.1-4.9-5.9-9-8.7-12.3 1.5-7.1 3.6-10 4.9-10.5l.3-.1c1.3-.2 4.3 1.7 8.1 8.5-1.6 4-3.2 8.9-4.6 14.4zm-1.9 2.5.9 1.5c-.9 3.5-1.6 7.3-2.4 11.3-2.6-3.2-5.1-6.1-7.5-8.8v-.4c.3-6 .7-10.8 1.4-14.6 2.3 2.8 4.8 6.4 7.6 11zm-11.7 1c-4-4.2-7.6-7.7-10.9-10.4.1-7.9 1.7-10.9 3-11.4s4.5.8 9.6 6.8c-.8 4.3-1.4 9.3-1.7 15zm-.4 3.7c.1.1.1.2.3.3-.1 3.6-.2 7.5-.1 11.5-3.1-2.6-6.2-5-9.1-7.1-.1-.6-.2-1.1-.3-1.7-.8-5.3-1.2-9.7-1.3-13.3 3 2.6 6.5 5.9 10.5 10.3zm-12.2 2.3c-4.6-3.3-9-6-12.7-8.1-1.4-7.7-.4-11 .7-11.8l.3-.1c1.3-.5 4.7.4 10.5 4.8 0 4.5.4 9.5 1.2 15.2zm.7 4c.6 3.6 1.3 7.4 2.1 11.3-3.6-1.9-7-3.7-10.3-5.2l-.6-1.6c-1.8-5-3.1-9.2-3.9-12.8 3.6 2 7.8 4.7 12.7 8.3zm-2.4 20c-1.5-3.5-2.9-6.8-4.2-10 3.1 1.5 6.3 3.2 9.6 5 .3 1.4.6 2.8 1 4.2l-4.2 1.5c-.8-.2-1.5-.4-2.2-.7zM610 313.4c-1.7-1.4-3.2-2.7-4.5-3.9 4.4-.3 9.5-.3 15.1 0l.1.1-10.7 3.8zm18.1-19.6c-2.7-4.6-4.8-8.5-6.4-11.8 3.7 1.2 8.3 3.1 14 5.7 1.2 3.4 2.7 7 4.3 10.7-3.9-1.1-7.6-2.1-11.1-3-.2-.6-.5-1.1-.8-1.6zm6.7 10.6c-1.2-1.8-2.4-3.7-3.6-5.4 3.2.8 6.6 1.8 10.2 3l-6.6 2.4zm-.4-20.5c-5.3-2.3-10-4.2-14.1-5.4-2.9-7.2-2.5-10.7-1.6-11.6.2-.1.3-.3.6-.4 1.7-.6 5.3 0 10.9 2.9.9 4.3 2.3 9.2 4.2 14.5zm-2.3 21.5-4.2 1.5c-2-.2-3.9-.3-5.8-.4-.4-.4-.8-.9-1.1-1.3-3.6-4-6.4-7.4-8.5-10.3 4.2.5 9.2 1.5 14.8 2.9 1.4 2.5 3 5 4.8 7.6zm-21.8-13.6c-4.4-6.6-4.7-10-3.9-11.1.2-.3.5-.5 1-.7 1-.4 3.9-.9 10.8.9 1.7 4 4 8.5 6.9 13.4-5.5-1.2-10.5-2.1-14.8-2.5zm7.7 14.6c-5.8-.2-10.8 0-15.1.4-5.5-5.7-6.5-9-5.9-10.2.3-.6 1.2-1.1 1.9-1.4 2.1-.8 5.4-1 9.7-.7 2.4 3.7 5.6 7.7 9.4 11.9zm-20.8 15.4c0 .1 0 .1 0 0zm-19-33.9c13.1-27.9 36-49 64.9-59.5 28.9-10.5 60.1-9.2 88 3.9 13.1 6.1 24.7 14.5 34.5 24.6l-23.1 8.4c.2-3.5-.5-6-2.2-7.3-1.7-1.2-4.1-1.2-7.2 0-1.6.6-3.4 1.5-5.4 2.6.2-6.6-1-11-3.8-12.3-1.3-.6-2.8-.5-4.5.1-2.1.8-4.7 2.5-7.4 4.9-1.1-6.6-3.1-10.6-6.1-11.3-.9-.2-1.9-.2-2.9.2-2.4.9-5 3.3-7.8 7-2.3-6.2-5.2-9.8-8.3-9.9-.5 0-1.1 0-1.7.3-2.5.9-5 4-7.3 8.9-3.5-5.6-6.9-8.6-10-8.2-.3 0-.6.1-.8.2-2.7 1-4.8 4.7-6.3 10.5-4.6-4.9-8.5-7-11.4-6-2.9 1.1-4.5 5.3-4.9 11.9-4.9-3.5-8.9-5-11.6-4.1-.3.1-.5.2-.8.4-2.6 1.6-3.4 6-2.4 12.7-4.9-2.2-8.8-3-11.3-2.1-.6.2-1.1.5-1.5.9-2.3 2.1-2.1 6.6.1 12.9-4.6-1.1-8.1-1.2-10.5-.4-1 .4-1.8 1-2.4 1.7-1.8 2.5-.8 6.9 2.6 12.6-3.7-.1-6.6.2-8.8 1-1.7.6-2.9 1.6-3.5 2.8-1.3 2.8.6 6.9 5 11.9-2.2.4-4.2.8-5.8 1.4-3.2 1.1-5 2.7-5.5 4.7-.5 2.1.6 4.4 3.1 7l-23.6 8.6c.9-14 4.5-27.9 10.6-41zm208.6 97.2c-13.1 27.9-36 49-64.9 59.5-28.9 10.5-60.1 9.2-88-3.9-13.1-6.1-24.7-14.5-34.5-24.6l23.5-8.5c-.2 3.5.5 6 2.2 7.3 1.7 1.2 4.1 1.2 7.2 0 1.6-.6 3.4-1.5 5.4-2.6-.2 6.6 1 11 3.8 12.3 1.3.6 2.8.5 4.5-.1 2.1-.8 4.7-2.5 7.4-4.9 1.1 6.6 3.1 10.6 6.1 11.3.9.2 1.9.2 2.9-.2 2.4-.9 5-3.3 7.8-7 2.3 6.2 5.2 9.8 8.3 9.9.5 0 1.1 0 1.7-.3 2.5-.9 5-4 7.3-8.9 3.5 5.6 6.9 8.6 10 8.2.3 0 .6-.1.8-.2 2.7-1 4.8-4.7 6.3-10.6 4.6 4.9 8.5 7 11.4 6 2.9-1.1 4.5-5.3 4.9-11.9 4.9 3.5 8.9 5 11.6 4 .3-.1.5-.2.8-.4 2.6-1.6 3.4-6 2.4-12.7 4.9 2.2 8.8 3 11.3 2.1.6-.2 1.1-.5 1.5-.9 2.3-2.1 2.1-6.6-.1-12.9 4.6 1.1 8.1 1.2 10.5.4 1-.4 1.8-1 2.4-1.7 1.8-2.5.8-6.9-2.6-12.6 3.7.1 6.6-.2 8.8-1 1.7-.6 2.9-1.6 3.5-2.8 1.3-2.8-.6-6.9-5-11.9 2.2-.4 4.2-.8 5.8-1.4 3.2-1.1 5-2.7 5.5-4.7s-.6-4.4-3-6.9l23.2-8.5c-1 14.1-4.6 28-10.7 41.1zm-186.5 53.6c1.4 3.7-.6 7.8-4.3 9.2-3.7 1.4-7.8-.6-9.2-4.3-1.4-3.7.6-7.8 4.3-9.2s7.8.6 9.2 4.3zM627.7 186c-83.1 30.2-125.9 122.1-95.7 205.2 30.2 83.1 122.1 125.9 205.2 95.7s126-122.1 95.8-205.2c-30.3-83.1-122.2-125.9-205.3-95.7zm194.8 215.8c-8.5 18.1-20.2 34.3-34.8 47.9-15.1 14.1-32.7 24.8-52.3 32s-40 10.2-60.6 9.1c-19.9-1-39.3-5.9-57.5-14.3-18.1-8.5-34.3-20.2-47.9-34.8-14.1-15.1-24.8-32.7-32-52.3-7.1-19.6-10.2-40-9.1-60.6 1-19.9 5.9-39.3 14.3-57.5 8.5-18.1 20.2-34.3 34.8-47.9 15.1-14.1 32.7-24.8 52.3-32s40-10.2 60.6-9.1c19.9 1 39.3 5.9 57.5 14.3 18.1 8.5 34.3 20.2 47.9 34.8 14.1 15.1 24.8 32.7 32 52.3 7.1 19.6 10.2 40 9.1 60.6-1 20-5.8 39.3-14.3 57.5zm-97.9-108.5 33.6-12.2 3.3 9.1-21.9 8 3.7 10.3 18.4-6.7 3.2 8.7-18.4 6.7 4.2 11.6 21.8-7.9 3.3 9-33.5 12.2-17.7-48.8zm100 63.7c1.4 3.7-.6 7.8-4.3 9.2-3.7 1.4-7.8-.6-9.2-4.3-1.4-3.7.6-7.8 4.3-9.2 3.8-1.3 7.9.6 9.2 4.3zM619.9 164.5c-95 34.6-143.9 139.6-109.4 234.6S650.1 543 745.1 508.5 889 368.9 854.5 273.9 714.9 130 619.9 164.5zM838 409c-9.4 20.2-22.4 38.1-38.7 53.2-16.8 15.6-36.4 27.6-58.1 35.5-21.8 7.9-44.4 11.4-67.4 10.1-22.2-1.1-43.6-6.5-63.8-15.9-20.2-9.4-38.1-22.4-53.2-38.7-15.7-16.8-27.6-36.4-35.5-58.1-7.9-21.8-11.4-44.4-10.1-67.4 1.1-22.2 6.5-43.6 15.9-63.8 9.4-20.2 22.4-38.1 38.7-53.2 16.8-15.7 36.4-27.6 58.1-35.5 21.8-7.9 44.4-11.4 67.4-10.1 22.2 1.1 43.6 6.5 63.8 15.9 20.2 9.4 38.1 22.4 53.2 38.7 15.6 16.8 27.6 36.4 35.5 58.1 7.9 21.8 11.4 44.4 10.1 67.4-1.2 22.2-6.5 43.6-15.9 63.8z"/><path d="m1440 411.4-221.2-178.1 15.1-18.7L1455 392.7c2.6 2.1 3 5.9.9 8.4l-7.5 9.3c-2.1 2.6-5.9 3-8.4 1z" fill="#36434f"/><path d="m1192.3 211.9 27.5 22.1 15-18.7-27.5-22.1c-2.6-2.1-6.4-1.7-8.4.9l-7.5 9.3c-2.1 2.7-1.7 6.5.9 8.5z" fill="#bbb"/><path class="st4" d="m1139.8 172.4-2.4-1.2.2-2.8-2.1 1.9-2.4-1.2.9 2.9-2.1 1.9 3.1-.2 1.6 2.6.2-2.8 3-1.1z"/><path class="st1" d="m1042.4 191.7-3.3 1.3-2.6-2.7v3.8l-3.3 1.3 3.7 1.5v3.8l2.5-3.3 4.1.6-2.6-2.7 1.5-3.6zm79.5-25.3-6.8.2-3-6.7-2.5 6.9-6.8.2 5.7 5.3-2.5 6.9 6.7-4.3 7 3.9-3-6.7 5.2-5.7z"/><path class="st4" d="m1092 165.7-3.1.8-2-2.7-.4 3.4-3.1.8 3.1 1.8-.4 3.4 2.5-2.7 3.5 1-2-2.7 1.9-3.1z"/><path class="st5" d="m1060.5 245.5-4.8 1.1-3.1-4.3-.8 5.3-4.8 1.1 4.8 2.9-.8 5.3 4.1-4 5.5 1.7-3.1-4.3 3-4.8z"/><path class="st4" d="m1164.7 177.6-7.9 1.8-4.9-7.2-1.4 8.6-7.9 1.8 7.7 4.9-1.4 8.6 6.8-6.5 8.9 3-4.9-7.2 5-7.8z"/><path class="st1" d="m1116.7 186.8-2.3-.4-.5-2.5-1.4 2.1-2.3-.4 1.5 2.2-1.4 2.1 2.6-.9 2 1.8-.5-2.5 2.3-1.5zm-35.8-8.9-7.9 3.3-6.4-6.5.1 9.2-7.9 3.3 8.9 3.7.1 9.2 5.9-8 9.8 1.4-6.4-6.6 3.8-9z"/><path class="st5" d="m1045.6 229.8-7.8-4.6 1.5-9.7-7.7 6-7.8-4.6 2.6 9.9-7.7 6 10.6-.1 5 9.3 1.5-9.7 9.8-2.5z"/><path class="st6" d="m1080.7 222.3-3.5-.4-1-3.6-1.8 3.3-3.5-.4 2.5 3.1-1.8 3.3 3.7-1.7 3.2 2.5-1-3.6 3.2-2.5z"/><path class="st5" d="m1042.7 268.3-4.2-1.4-.3-4.8-3.1 3.7-4.2-1.4 2.3 4.5-3.1 3.7 5-1.2 3.4 3.9-.3-4.8 4.5-2.2z"/><path class="st4" d="m1125 267.7-6.1-1.6-.8-6.8-4.1 5.5-6.1-1.6 3.6 6.2-4.1 5.5 7.1-2 5.1 5.3-.8-6.8 6.2-3.7z"/><path class="st1" d="m1081.1 266.4-3.5.4-1.8-3.4-1 3.7-3.5.4 3.2 2.5-1 3.7 3.3-2.6 3.8 1.7-2-3.3 2.5-3.1z"/><path class="st4" d="m1051.9 307.5-5.3-2.4.3-6.3-4.5 4.3-5.3-2.4 2.3 6.2-4.5 4.3 6.7-.7 3.8 5.6.3-6.3 6.2-2.3z"/><path class="st1" d="m1204.8 302.5-5.5 2.2-4.4-4.6v6.4l-5.5 2.2 6.1 2.6v6.4l4.2-5.5 6.8 1.1-4.4-4.6 2.7-6.2z"/><path class="st6" d="m1159.8 296.4-8.1 5.5-8.7-5.9 2.2 10.3-8.1 5.5 10.9 2.1 2.2 10.3 4.8-10.3 11.4-.6-8.7-5.9 2.1-11zm-36.9 6.2-5.4 2.5-4.7-4.4.3 6.4-5.4 2.5 6.3 2.4.3 6.4 3.9-5.8 6.9.8-4.7-4.4 2.5-6.4z"/><path class="st1" d="M1082.8 300.4h-3l-1.2-3-1.2 3h-3l2.4 2.4-1.2 3 3-1.8 3 1.8-1.2-3 2.4-2.4zm231.7 40.8-8.2.3-3.6-8.1-3 8.4-8.2.3 6.8 6.3-3 8.4 8-5.3 8.4 4.6-3.6-8.1 6.4-6.8z"/><path class="st5" d="m1284.2 345.3-6.5-.9-1.7-6.8-3.5 6.1-6.5-.9 4.4 5.9-3.5 6.1 7-3 5.9 4.8-1.7-6.8 6.1-4.5z"/><path class="st1" d="m1242.7 343.4-4 2.7-4.3-2.9 1.1 5.1-4 2.7 5.4 1 1.1 5.1 2.4-5.1 5.6-.3-4.3-2.9 1-5.4z"/><path class="st6" d="m1200.5 339.9-2.5.1-1.1-2.5-.9 2.6-2.5.1 2.1 1.9-.9 2.6 2.5-1.6 2.6 1.4-1.1-2.5 1.8-2.1z"/><path class="st4" d="m1167.7 340.7-6.9 1.5-4.3-6.3-1.3 7.5-6.9 1.5 6.7 4.3-1.3 7.5 6-5.6 7.8 2.6-4.3-6.3 4.5-6.7z"/><path class="st1" d="m1123 346.2-7.7-.8-2.3-8-3.9 7.3-7.7-.8 5.5 6.8-3.9 7.3 8.1-3.8 7.2 5.4-2.3-8 7-5.4zm-39.9 1.8-6.7-4.6 1.9-8.5-7.3 4.9-6.7-4.6 1.7 9-7.3 4.9 9.4.6 4 8.6 1.9-8.5 9.1-1.8z"/><path class="st5" d="m1285.2 377.8-10.9 2.4-6.7-9.9-2 11.8-10.9 2.4 10.6 6.8-2 11.8 9.5-8.9 12.3 4.1-6.7-9.9 6.8-10.6zm-36.9 5.5-7.4-3.3.3-8.7-6.2 6.1-7.4-3.3 3.3 8.6-6.2 6.1 9.4-1.2 5.5 7.7.3-8.7 8.4-3.3z"/><path class="st1" d="m1195.3 380-3.6 1.4-2.9-3v4.1l-3.6 1.4 4 1.7v4.1l2.7-3.6 4.4.7-2.9-3 1.9-3.8z"/><path class="st4" d="m1169 371.3-9.2 5.7-9.3-6.9 2 11.4-9.2 5.7 11.9 2.8 2 11.4 5.8-11.2 12.6-.2-9.3-6.9 2.7-11.8z"/><path class="st1" d="m1119 381.2-2.5-.3-.7-2.7-1.3 2.4-2.5-.3 1.8 2.3-1.3 2.4 2.7-1.2 2.4 1.8-.7-2.7 2.1-1.7z"/><path class="st5" d="m1105.3 371.7-9.1 1.7-5.4-8.5-1.9 9.8-9.1 1.7 8.7 5.9-1.9 9.8 8.1-7.2 10.2 3.8-5.4-8.5 5.8-8.5z"/><path class="st4" d="m1222.5 355.5-8.1.7-4-7.8-2.5 8.4-8.1.7 7 5.9-2.5 8.4 7.6-5.6 8.5 4.1-4-7.8 6.1-7zm62.4 66.9-7.8-3.2v-9.1l-6.3 6.6-7.8-3.2 3.7 8.8-6.3 6.6 9.7-1.5 5.9 7.9v-9.1l8.9-3.8z"/><path class="st6" d="m1247.9 423.1-6.3.2-2.7-6.2-2.3 6.4-6.3.2 5.2 4.9-2.3 6.4 6.2-4 6.4 3.5-2.7-6.2 4.8-5.2zm-37-8-9.6 2.9-6.8-8.5-.9 10.8-9.6 2.9 10.1 5.4-.9 10.8 7.9-8.7 11.4 2.8-6.8-8.5 5.2-9.9zm-48 2.4-7.1.4-3.3-7-2.4 7.3-7.1.4 6 5.4-2.4 7.3 6.9-4.7 7.4 3.9-3.3-7 5.3-6z"/><path class="st1" d="m1123 418.4-4 1-2.6-3.6-.6 4.4-4 1 4 2.4-.6 4.4 3.4-3.4 4.6 1.4-2.6-3.6 2.4-4zm56.1 28.7-4.1.7-2.3-3.8-1 4.3-4.1.7 3.8 2.7-1 4.3 3.7-3.1 4.5 1.8-2.3-3.8 2.8-3.8z"/><path class="st5" d="m1269.4 470-6.4-.3-2.2-6.5-2.9 6.3-6.4-.3 4.9 5.4-2.9 6.3 6.6-3.5 6.2 4.1-2.2-6.5 5.3-5z"/><path class="st6" d="m1240.4 457.4-7.8 1.6-4.7-7.2-1.5 8.4-7.8 1.6 7.5 5-1.5 8.4 6.8-6.3 8.8 3.1-4.7-7.2 4.9-7.4z"/><path class="st4" d="m1193.1 466.6-2.5.5-1.5-2.3-.5 2.7-2.5.5 2.4 1.6-.5 2.7 2.2-2 2.8 1-1.5-2.3 1.6-2.4z"/><path class="st5" d="m1159.8 462.2-4.5-1.4-.4-5-3.2 3.9-4.5-1.4 2.5 4.7-3.2 3.9 5.3-1.3 3.7 4.1-.4-5 4.7-2.5zm80.3 38.7h-6.8l-2.7-6.8-2.7 6.8h-6.8l5.4 5.4-2.7 6.8 6.8-4.1 6.8 4.1-2.7-6.8 5.4-5.4z"/><path class="st6" d="m1217.7 486.1-10.2-.1-4-10.3-4.2 10.2-10.2-.1 8.1 8.2-4.2 10.2 10.3-6.1 10.2 6.2-4-10.3 8.2-7.9zm32.7-165.2-2.3.9-1.9-2v2.7l-2.3.9 2.6 1.1v2.7l1.8-2.3 2.9.5-1.9-2 1.1-2.5z"/><path class="st1" d="m1182.7 179.7-2 1.1-1.9-1.6.3 2.5-2 1.1 2.5.7.3 2.5 1.4-2.4 2.7.1-1.9-1.6.6-2.4z"/></svg>