<svg xmlns="http://www.w3.org/2000/svg" viewBox="0 0 1920 673" xml:space="preserve"><style>.st3{fill:#fff}.st4{fill:#36434f}</style><path fill="#2e86b7" d="M0 0h1920v673H0z"/><path d="M76.7 0v673M160.8 0v673M244.9 0v673M329.1 0v673M413.2 0v673M497.3 0v673M581.4 0v673M665.6 0v673M749.7 0v673M833.8 0v673M917.9 0v673m84.2-673v673m84.1-673v673m84.1-673v673m84.1-673v673m84.2-673v673m84.1-673v673m84.1-673v673m84.1-673v673m84.2-673v673m84.1-673v673m84.1-673v673M0 630.9h1920M0 546.8h1920M0 462.7h1920M0 378.6h1920M0 294.4h1920M0 210.3h1920M0 126.2h1920M0 42.1h1920" fill="none" stroke="#fff" stroke-width="4" stroke-miterlimit="10" opacity=".25"/><path class="st3" d="m833 298.1-87.8-87.8 87.8-87.8 87.8 87.8-87.8 87.8zm-80.3-87.8 80.4 80.4 80.4-80.4-80.4-80.4-80.4 80.4zM1169 381.6 997.1 209.7l86.8-86.8h86.4l85.7 85.7V295l-87 86.6zm-164.6-171.9L1169 374.2l81.5-81.5v-81.9l-82.5-82.5h-81.9l-81.7 81.4z"/><circle class="st3" cx="833.2" cy="126.2" r="19.7"/><path class="st4" d="M833.2 106.5c10.9 0 19.7 8.8 19.7 19.7s-8.8 19.7-19.7 19.7-19.7-8.8-19.7-19.7 8.8-19.7 19.7-19.7m0-4c-13.1 0-23.7 10.6-23.7 23.7s10.6 23.7 23.7 23.7 23.7-10.6 23.7-23.7-10.7-23.7-23.7-23.7z"/><path class="st3" d="m854.2 195.6-6.3-6.3-14.7 14.7-14.8-14.7-6.3 6.3 14.7 14.7-14.7 14.7 6.3 6.3 14.8-14.7 14.7 14.7 6.3-6.3-14.7-14.7z"/><path class="st4" d="m847.9 189.3 6.3 6.3-14.7 14.7 14.7 14.7-6.3 6.3-14.7-14.7-14.7 14.7-6.3-6.3 14.7-14.7-14.7-14.7 6.3-6.3 14.7 14.7 14.7-14.7m0-5.7-2.8 2.8-11.9 11.9-11.9-11.9-2.8-2.8-2.8 2.8-6.3 6.3-2.8 2.8 2.8 2.8 11.9 11.9-11.9 11.9-2.8 2.8 2.8 2.8 6.3 6.3 2.8 2.8 2.8-2.8 11.9-11.9 11.9 11.9 2.8 2.8 2.8-2.8 6.3-6.3 2.8-2.8-2.8-2.8-11.9-11.9 11.9-11.9 2.8-2.8-2.8-2.8-6.3-6.3-2.8-2.8z"/><circle class="st3" cx="749" cy="210.3" r="19.7"/><path class="st4" d="M749 190.6c10.9 0 19.7 8.8 19.7 19.7S759.9 230 749 230s-19.7-8.8-19.7-19.7 8.8-19.7 19.7-19.7m0-4c-13.1 0-23.7 10.6-23.7 23.7S736 234 749 234s23.7-10.6 23.7-23.7-10.6-23.7-23.7-23.7z"/><circle class="st3" cx="833.2" cy="294.4" r="19.7"/><path class="st4" d="M833.2 274.7c10.9 0 19.7 8.8 19.7 19.7s-8.8 19.7-19.7 19.7-19.7-8.8-19.7-19.7 8.8-19.7 19.7-19.7m0-4c-13.1 0-23.7 10.6-23.7 23.7s10.6 23.7 23.7 23.7 23.7-10.6 23.7-23.7-10.7-23.7-23.7-23.7z"/><circle class="st3" cx="917.3" cy="210.3" r="19.7"/><path class="st4" d="M917.3 190.6c10.9 0 19.7 8.8 19.7 19.7s-8.8 19.7-19.7 19.7-19.7-8.8-19.7-19.7 8.8-19.7 19.7-19.7m0-4c-13.1 0-23.7 10.6-23.7 23.7s10.6 23.7 23.7 23.7 23.7-10.6 23.7-23.7-10.6-23.7-23.7-23.7z"/><circle class="st3" cx="1169.7" cy="210.3" r="19.7"/><path class="st4" d="M1169.7 190.6c10.9 0 19.7 8.8 19.7 19.7s-8.8 19.7-19.7 19.7-19.7-8.8-19.7-19.7 8.8-19.7 19.7-19.7m0-4c-13.1 0-23.7 10.6-23.7 23.7s10.6 23.7 23.7 23.7 23.7-10.6 23.7-23.7-10.7-23.7-23.7-23.7z"/><circle class="st3" cx="1169.7" cy="294.4" r="19.7"/><path class="st4" d="M1169.7 274.7c10.9 0 19.7 8.8 19.7 19.7s-8.8 19.7-19.7 19.7-19.7-8.8-19.7-19.7 8.8-19.7 19.7-19.7m0-4c-13.1 0-23.7 10.6-23.7 23.7s10.6 23.7 23.7 23.7 23.7-10.6 23.7-23.7-10.7-23.7-23.7-23.7z"/><path class="st3" d="m1190.7 111.5-6.3-6.3-14.7 14.7-14.8-14.7-6.3 6.3 14.7 14.7-14.7 14.7 6.3 6.3 14.8-14.7 14.7 14.7 6.3-6.3-14.7-14.7z"/><path class="st4" d="m1184.4 105.2 6.3 6.3-14.7 14.7 14.7 14.7-6.3 6.3-14.7-14.7-14.7 14.7-6.3-6.3 14.7-14.7-14.7-14.7 6.3-6.3 14.7 14.7 14.7-14.7m0-5.7-2.8 2.8-11.9 11.9-11.9-11.9-2.8-2.8-2.8 2.8-6.3 6.3-2.8 2.8 2.8 2.8 11.9 11.9-11.9 11.9-2.8 2.8 2.8 2.8 6.3 6.3 2.8 2.8 2.8-2.8 11.9-11.9 11.9 11.9 2.8 2.8 2.8-2.8 6.3-6.3 2.8-2.8-2.8-2.8-11.9-11.9 11.9-11.9 2.8-2.8-2.8-2.8-6.3-6.3-2.8-2.8z"/><path class="st3" d="m1107.9 111.5-6.3-6.3-14.8 14.7-14.7-14.7-6.3 6.3 14.7 14.7-14.7 14.7 6.3 6.3 14.7-14.7 14.8 14.7 6.3-6.3-14.7-14.7z"/><path class="st4" d="m1101.6 105.2 6.3 6.3-14.7 14.7 14.7 14.7-6.3 6.3-14.7-14.7-14.7 14.7-6.3-6.3 14.7-14.7-14.7-14.7 6.3-6.3 14.7 14.7 14.7-14.7m0-5.7-2.8 2.8-11.9 11.9-11.9-11.9-2.8-2.8-2.8 2.8-6.3 6.3-2.8 2.8 2.8 2.8 11.9 11.9-11.9 11.9-2.8 2.8 2.8 2.8 6.3 6.3 2.8 2.8 2.8-2.8 11.9-11.9 11.9 11.9 2.8 2.8 2.8-2.8 6.3-6.3 2.8-2.8-2.8-2.8-11.9-11.9 11.9-11.9 2.8-2.8-2.8-2.8-6.3-6.3-2.8-2.8z"/><path class="st3" d="m1022.4 195.6-6.3-6.3-14.7 14.7-14.7-14.7-6.3 6.3 14.7 14.7-14.7 14.7 6.3 6.3 14.7-14.7 14.7 14.7 6.3-6.3-14.7-14.7z"/><path class="st4" d="m1016.1 189.3 6.3 6.3-14.7 14.7 14.7 14.7-6.3 6.3-14.7-14.7-14.7 14.7-6.3-6.3 14.7-14.7-14.7-14.7 6.3-6.3 14.7 14.7 14.7-14.7m0-5.7-2.8 2.8-11.9 11.9-11.9-11.9-2.8-2.8-2.8 2.8-6.3 6.3-2.8 2.8 2.8 2.8 11.9 11.9-11.9 11.9-2.8 2.8 2.8 2.8 6.3 6.3 2.8 2.8 2.8-2.8 11.9-11.9 11.9 11.9 2.8 2.8 2.8-2.8 6.3-6.3 2.8-2.8-2.8-2.8-11.9-11.9 11.9-11.9 2.8-2.8-2.8-2.8-6.3-6.3-2.8-2.8z"/><path class="st3" d="m1274.8 195.6-6.3-6.3-14.7 14.7-14.7-14.7-6.4 6.3 14.8 14.7-14.8 14.7 6.4 6.3 14.7-14.7 14.7 14.7 6.3-6.3-14.7-14.7z"/><path class="st4" d="m1268.5 189.3 6.3 6.3-14.7 14.7 14.7 14.7-6.3 6.3-14.7-14.7-14.7 14.7-6.3-6.3 14.7-14.7-14.7-14.7 6.3-6.3 14.7 14.7 14.7-14.7m0-5.7-2.8 2.8-11.9 11.9-11.9-11.9-2.8-2.8-2.8 2.8-6.3 6.3-2.8 2.8 2.8 2.8 11.9 11.9-11.9 11.9-2.8 2.8 2.8 2.8 6.3 6.3 2.8 2.8 2.8-2.8 11.9-11.9 11.9 11.9 2.8 2.8 2.8-2.8 6.3-6.3 2.8-2.8-2.8-2.8-11.9-11.9 11.9-11.9 2.8-2.8-2.8-2.8-6.3-6.3-2.8-2.8z"/><path class="st3" d="m1274.8 279.7-6.3-6.3-14.7 14.7-14.7-14.7-6.4 6.3 14.8 14.7-14.8 14.8 6.4 6.3 14.7-14.8 14.7 14.8 6.3-6.3-14.7-14.8z"/><path class="st4" d="m1268.5 273.4 6.3 6.3-14.7 14.7 14.7 14.7-6.3 6.3-14.7-14.7-14.7 14.7-6.3-6.3 14.7-14.7-14.7-14.7 6.3-6.3 14.7 14.7 14.7-14.7m0-5.7-2.8 2.8-11.9 11.9-11.9-11.9-2.8-2.8-2.8 2.8-6.3 6.3-2.8 2.8 2.8 2.8 11.9 11.9-11.9 11.9-2.8 2.8 2.8 2.8 6.3 6.3 2.8 2.8 2.8-2.8 11.9-11.9 11.9 11.9 2.8 2.8 2.8-2.8 6.3-6.3 2.8-2.8-2.8-2.8-11.9-11.9 11.9-11.9 2.8-2.8-2.8-2.8-6.3-6.3-2.8-2.8z"/><path class="st3" d="m1192 365.2-6.3-6.4-14.7 14.8-14.8-14.8-6.3 6.4 14.8 14.7-14.8 14.7 6.3 6.3 14.8-14.7 14.7 14.7 6.3-6.3-14.7-14.7z"/><path class="st4" d="m1185.7 358.8 6.3 6.3-14.7 14.7 14.7 14.7-6.3 6.3-14.7-14.7-14.7 14.7-6.3-6.3 14.7-14.7-14.7-14.7 6.3-6.3 14.7 14.7 14.7-14.7m0-5.6-2.8 2.8-11.9 11.9-11.9-11.9-2.8-2.8-2.8 2.8-6.3 6.3-2.8 2.8 2.8 2.8 11.9 11.9-11.9 11.9-2.8 2.8 2.8 2.8 6.3 6.3 2.8 2.8 2.8-2.8 11.9-11.9 11.9 11.9 2.8 2.8 2.8-2.8 6.3-6.3 2.8-2.8-2.8-2.8-11.9-11.9 11.9-11.9 2.8-2.8-2.8-2.8-6.3-6.3-2.8-2.8z"/><path class="st3" d="m1106.6 279.7-6.3-6.3-14.8 14.7-14.7-14.7-6.3 6.3 14.7 14.7-14.7 14.8 6.3 6.3 14.7-14.8 14.8 14.8 6.3-6.3-14.8-14.8z"/><path class="st4" d="m1100.3 273.4 6.3 6.3-14.7 14.7 14.7 14.7-6.3 6.3-14.7-14.7-14.7 14.7-6.3-6.3 14.7-14.7-14.7-14.7 6.3-6.3 14.7 14.7 14.7-14.7m0-5.7-2.8 2.8-11.9 11.9-11.9-11.9-2.8-2.8-2.8 2.8-6.3 6.3-2.8 2.8 2.8 2.8 11.9 11.9-11.9 11.9-2.8 2.8 2.8 2.8 6.3 6.3 2.8 2.8 2.8-2.8 11.9-11.9 11.9 11.9 2.8 2.8 2.8-2.8 6.3-6.3 2.8-2.8-2.8-2.8-11.9-11.9 11.9-11.9 2.8-2.8-2.8-2.8-6.3-6.3-2.8-2.8z"/><path class="st3" d="m1022.4 532.1-6.3-6.3-14.7 14.7-14.7-14.7-6.3 6.3 14.7 14.7-14.7 14.7 6.3 6.3 14.7-14.7 14.7 14.7 6.3-6.3-14.7-14.7z"/><path class="st4" d="m1016.1 525.8 6.3 6.3-14.7 14.7 14.7 14.7-6.3 6.3-14.7-14.7-14.7 14.7-6.3-6.3 14.7-14.7-14.7-14.7 6.3-6.3 14.7 14.7 14.7-14.7m0-5.7-2.8 2.8-11.9 11.9-11.9-11.8-2.8-2.8-2.8 2.8-6.3 6.3-2.8 2.8 2.8 2.8 11.9 11.9-11.9 11.9-2.8 2.8 2.8 2.8 6.3 6.3 2.8 2.8 2.8-2.8 11.9-11.9 11.9 11.9 2.8 2.8 2.8-2.8 6.3-6.3 2.8-2.8-2.8-2.8-11.9-11.9 11.9-11.9 2.8-2.8-2.8-2.8-6.3-6.3-2.8-2.9z"/><circle class="st3" cx="1000.1" cy="378.6" r="19.7"/><path class="st4" d="M1000.1 358.8c10.9 0 19.7 8.8 19.7 19.7s-8.8 19.7-19.7 19.7-19.7-8.8-19.7-19.7 8.8-19.7 19.7-19.7m0-4c-13.1 0-23.7 10.6-23.7 23.7s10.6 23.7 23.7 23.7 23.7-10.6 23.7-23.7-10.6-23.7-23.7-23.7z"/><circle class="st3" cx="833.2" cy="462.7" r="19.7"/><path class="st4" d="M833.2 443c10.9 0 19.7 8.8 19.7 19.7s-8.8 19.7-19.7 19.7-19.7-8.8-19.7-19.7 8.8-19.7 19.7-19.7m0-4c-13.1 0-23.7 10.6-23.7 23.7s10.6 23.7 23.7 23.7 23.7-10.6 23.7-23.7-10.7-23.7-23.7-23.7z"/></svg>