<svg xmlns="http://www.w3.org/2000/svg" viewBox="0 0 1920 673" xml:space="preserve"><style>.st1{fill:#f4f4f4}.st2{fill:#36434f}</style><path fill="#eec646" d="M0 0h1920v673H0z"/><path class="st1" d="M1148.4 232.8h207.5v207.5h-207.5z"/><path class="st2" d="M1341.1 247.6v177.8h-177.8V247.6h177.8m16.9-17h-211.7v211.7H1358V230.6z"/><path class="st2" d="M1181.5 232.8h4.2v207.5h-4.2zm67.7 0h4.2v207.5h-4.2zm-22.4 0h4.2v207.5h-4.2zm-22.7 0h4.2v207.5h-4.2zm67.8 0h4.2v207.5h-4.2zm22.4 0h4.2v207.5h-4.2zm22.4 0h4.2v207.5h-4.2z"/><path class="st1" d="M420.1 232.8h207.5v207.5H420.1z"/><path class="st2" d="M551 232.8h-6.2L420.1 357.5v6.1zm-32 0h-5.9l-93 92.9v5.9zm63.7 0h-5.9L420.1 389.4v6zm-95.7 0h-5.9l-61 60.9v6zm-31.7 0h-6.2l-29 29v6.1zm159.4 0h-5.9L420.1 421.4v5.9zm-194.6 3.1 3.2-3.1h-3.2zm207.5 175.3v-6.1l-35.1 35.1h6.1zm0 25.9-3.2 3.1h3.2zm0-57.8v-6l-66.9 66.9h5.9zm0-127.7v-5.9L433 440.2h6zm0 95.7v-5.9l-98.9 98.8h6zm0-63.7v-6L465 440.2h5.9zm0 31.9v-6.1L496.8 440.2h6.1z"/><path class="st2" d="M612.8 247.6v177.8H434.9V247.6h177.9m16.9-17H418v211.7h211.7V230.6z"/><path class="st1" d="M672.1 247.6h177.8v177.8H672.1z"/><path class="st2" d="M748.7 425.4h6.1l95.1-95v-6.2zm-31.8 0h6l127-127v-5.9zm-31.9 0h5.9l159-159v-5.9zm164.9-5.5-5.5 5.5h5.5zm-69.2 5.5h5.9l63.3-63.3v-5.9zm31.9 0h6l31.3-31.3v-5.9zm-71.3-177.8h-5.9l-63.3 63.3v5.9zm95.7 0h-5.9l-159 159v5.9zm-32 0h-5.9l-127 127v5.9zm-31.7 0h-6.2l-95 95v6.2zm-101.2 5.5 5.5-5.5h-5.5zm37.2-5.5h-5.9l-31.3 31.3v5.9z"/><circle class="st1" cx="998.1" cy="336.5" r="103.7"/><path class="st2" d="M1022.2 235.5c-1.7-.4-3.2-.6-4.9-1.1l-121 121.2c.2 1.7.6 3.4 1.1 4.9l124.8-125zm23.3 8.7c-1.3-.6-2.8-1.3-4-1.9L903.9 379.9c.6 1.3 1.3 2.8 1.9 4l139.7-139.7zm-96.5.8c-7.4 4-14.2 8.7-20.3 14.2l-7.8 7.8c-5.5 6.1-10.4 12.9-14.2 20.3L949 245zm115.8 11.9c-1.1-.8-2.1-1.7-3.4-2.8L916 399.6c.8 1.1 1.7 2.3 2.8 3.4l146-146.1zM993 233c-2.1 0-4.4.2-6.6.4l-91.7 91.7c-.2 2.1-.4 4.2-.4 6.6L993 233zm108.2 114.9c.2-2.1.4-4.2.4-6.6L1003 440c2.1 0 4.4-.2 6.6-.4l91.6-91.7zm-26 57.8c5.5-6.1 10.4-12.9 14.2-20.3l-42.3 42.3c7.4-4 14.2-8.7 20.3-14.2l7.8-7.8zm5.1-132.5c-.8-1.1-1.7-2.3-2.8-3.4L931.4 415.9c1.1.8 2.1 1.7 3.4 2.8l145.5-145.5zm19.6 44c-.2-1.7-.6-3.4-1.1-4.9l-125 125.2c1.7.4 3.2.6 4.9 1.1l121.2-121.4zm-7.6-24.1c-.6-1.3-1.3-2.8-1.9-4L950.7 428.8c1.3.6 2.8 1.3 4 1.9l137.6-137.6z"/><path class="st2" d="M998.1 247.6c49.1 0 88.9 39.8 88.9 88.9s-39.8 88.9-88.9 88.9-88.9-39.8-88.9-88.9 39.8-88.9 88.9-88.9m0-17c-58.4 0-105.9 47.4-105.9 105.9s47.4 105.9 105.9 105.9c58.4 0 105.9-47.4 105.9-105.9s-47.5-105.9-105.9-105.9z"/><path class="st1" d="M1402.5 287.8h97.4v97.4h-97.4z"/><path class="st2" d="M1487 287.8h-6l-78.5 78.6v5.9zm-32 0h-5.9l-46.6 46.6v5.9zm-31.8 0h-6.1l-14.6 14.6v6.2zm76.7 82.8v-6.2l-20.8 20.8h6.2zm0-64v-5.9l-84.5 84.5h5.9zm0 32v-5.9l-52.5 52.5h5.9z"/><path class="st2" d="M1485.1 302.6v67.8h-67.8v-67.8h67.8m16.9-16.9h-101.6v101.6H1502V285.7z"/></svg>