<svg version="1.1" xmlns="http://www.w3.org/2000/svg" x="0" y="0" viewBox="0 0 520 626" xml:space="preserve"><style type="text/css">.st0{fill:#36434f}</style><path class="st0" d="M423 114H38.5v496H0v16h247v-16H54.5V215.5L140 130h175v100h8V130h100v-16zM54.5 192.9V130h62.9l-62.9 62.9z"/><path d="M4 4h64v64H4zm64 0h64v64H68zm64 0h64v64h-64zm256 0h64v64h-64zm-64 0h64v64h-64zm-64 0h64v64h-64zm-64 0h64v64h-64zm256 0h64v64h-64z" fill="none" stroke="#36434f" stroke-width="8" stroke-miterlimit="10"/><path class="st0" d="M433.3 21.1V51h-7.2V26.6h-6.7l-.5 10c-.2 3.5-.7 6.2-1.4 8.3s-1.8 3.6-3.2 4.5-3.3 1.4-5.7 1.5h-1.9v-5.5l1-.1c1.4-.2 2.5-1.1 3.1-2.6s1.1-4.2 1.3-7.8l.5-13.7h20.7zm64 0V51h-7.2V26.6h-6.7l-.5 10c-.2 3.5-.7 6.2-1.4 8.3s-1.8 3.6-3.2 4.5-3.3 1.4-5.7 1.5h-1.9v-5.5l1-.1c1.4-.2 2.5-1.1 3.1-2.6s1.1-4.2 1.3-7.8l.5-13.7h20.7z"/></svg>