<svg version="1.1" xmlns="http://www.w3.org/2000/svg" x="0" y="0" viewBox="0 0 1309 1064" xml:space="preserve"><style type="text/css">.st0{fill:#36434f}</style><path class="st0" d="M319 122.7c14.9 0 27.1 12.1 27.1 27.1S334 176.9 319 176.9s-27.1-12.1-27.1-27.1 12.2-27.1 27.1-27.1m0-6.7c-18.6 0-33.8 15.1-33.8 33.8s15.1 33.8 33.8 33.8 33.8-15.1 33.8-33.8S337.6 116 319 116z"/><path class="st0" d="M423 0H38.5v496H0v16h247v-16H54.5V101.5L140 16h175v100h8V16h100V0zM54.5 78.9V16h62.9L54.5 78.9zM762 122.7c14.9 0 27.1 12.1 27.1 27.1S777 176.9 762 176.9s-27.1-12.1-27.1-27.1 12.2-27.1 27.1-27.1m0-6.7c-18.6 0-33.8 15.1-33.8 33.8s15.1 33.8 33.8 33.8 33.8-15.1 33.8-33.8S780.6 116 762 116z"/><path class="st0" d="M762 191.5c5.7 0 11.8 5.6 16.7 15.4 5.8 11.7 9 27.3 9 44.2s-3.2 32.5-9 44.2c-4.9 9.8-11 15.4-16.7 15.4s-11.8-5.6-16.7-15.4c-5.8-11.7-9-27.3-9-44.2s3.2-32.5 9-44.2c4.9-9.8 11-15.4 16.7-15.4m0-8c-18.6 0-33.8 30.2-33.8 67.5s15.1 67.5 33.8 67.5 33.8-30.2 33.8-67.5-15.2-67.5-33.8-67.5z"/><path class="st0" d="M866 0H481.5v496H443v16h247v-16H497.5V101.5L583 16h175v100h8V16h100V0zM497.5 78.9V16h62.9l-62.9 62.9zm707.5 43.8c14.9 0 27.1 12.1 27.1 27.1s-12.1 27.1-27.1 27.1-27.1-12.1-27.1-27.1 12.2-27.1 27.1-27.1m0-6.7c-18.6 0-33.8 15.1-33.8 33.8s15.1 33.8 33.8 33.8 33.8-15.1 33.8-33.8-15.2-33.8-33.8-33.8z"/><path class="st0" d="M1205 191.5c5.7 0 11.8 5.6 16.7 15.4 5.8 11.7 9 27.3 9 44.2s-3.2 32.5-9 44.2c-4.9 9.8-11 15.4-16.7 15.4s-11.8-5.6-16.7-15.4c-5.8-11.7-9-27.3-9-44.2s3.2-32.5 9-44.2c4.9-9.8 11-15.4 16.7-15.4m0-8c-18.6 0-33.8 30.2-33.8 67.5s15.1 67.5 33.8 67.5 33.8-30.2 33.8-67.5-15.2-67.5-33.8-67.5z"/><path class="st0" d="M1202.58 186.744l4.877-6.34 76.962 59.201-4.878 6.341z"/><path class="st0" d="M1309 0H924.5v496H886v16h247v-16H940.5V101.5L1026 16h175v100h8V16h100V0zM940.5 78.9V16h62.9l-62.9 62.9zM319 674.7c14.9 0 27.1 12.1 27.1 27.1S334 728.9 319 728.9s-27.1-12.1-27.1-27.1 12.2-27.1 27.1-27.1m0-6.7c-18.6 0-33.8 15.1-33.8 33.8 0 18.6 15.1 33.8 33.8 33.8s33.8-15.1 33.8-33.8c0-18.7-15.2-33.8-33.8-33.8z"/><path class="st0" d="M319 743.5c5.7 0 11.8 5.6 16.7 15.4 5.8 11.7 9 27.3 9 44.2s-3.2 32.5-9 44.2c-4.9 9.8-11 15.4-16.7 15.4s-11.8-5.6-16.7-15.4c-5.8-11.7-9-27.3-9-44.2s3.2-32.5 9-44.2c4.9-9.8 11-15.4 16.7-15.4m0-8c-18.6 0-33.8 30.2-33.8 67.5s15.1 67.5 33.8 67.5 33.8-30.2 33.8-67.5-15.2-67.5-33.8-67.5z"/><path class="st0" d="M239.49 791.58l76.961-59.202 4.878 6.34-76.961 59.202z"/><path class="st0" d="M316.57 738.716l4.878-6.34 76.961 59.201-4.878 6.341z"/><path class="st0" d="M423 552H38.5v496H0v16h247v-16H54.5V653.5L140 568h175v100h8V568h100v-16zM54.5 630.9V568h62.9l-62.9 62.9zM762 674.7c14.9 0 27.1 12.1 27.1 27.1S777 728.9 762 728.9s-27.1-12.1-27.1-27.1 12.2-27.1 27.1-27.1m0-6.7c-18.6 0-33.8 15.1-33.8 33.8 0 18.6 15.1 33.8 33.8 33.8s33.8-15.1 33.8-33.8c0-18.7-15.2-33.8-33.8-33.8z"/><path class="st0" d="M762 743.5c5.7 0 11.8 5.6 16.7 15.4 5.8 11.7 9 27.3 9 44.2s-3.2 32.5-9 44.2c-4.9 9.8-11 15.4-16.7 15.4s-11.8-5.6-16.7-15.4c-5.8-11.7-9-27.3-9-44.2s3.2-32.5 9-44.2c4.9-9.8 11-15.4 16.7-15.4m0-8c-18.6 0-33.8 30.2-33.8 67.5s15.1 67.5 33.8 67.5 33.8-30.2 33.8-67.5-15.2-67.5-33.8-67.5z"/><path class="st0" d="M682.49 791.597l76.96-59.202 4.878 6.341-76.961 59.202z"/><path class="st0" d="M759.567 738.729l4.878-6.341 76.961 59.202-4.877 6.34zm12.866 121.402l7.525-2.717 30.802 85.313-7.525 2.716z"/><path class="st0" d="M866 552H481.5v496H443v16h247v-16H497.5V653.5L583 568h175v100h8V568h100v-16zm-368.5 78.9V568h62.9l-62.9 62.9zm707.5 43.8c14.9 0 27.1 12.1 27.1 27.1s-12.1 27.1-27.1 27.1-27.1-12.1-27.1-27.1 12.2-27.1 27.1-27.1m0-6.7c-18.6 0-33.8 15.1-33.8 33.8 0 18.6 15.1 33.8 33.8 33.8s33.8-15.1 33.8-33.8c0-18.7-15.2-33.8-33.8-33.8z"/><path class="st0" d="M1205 743.5c5.7 0 11.8 5.6 16.7 15.4 5.8 11.7 9 27.3 9 44.2s-3.2 32.5-9 44.2c-4.9 9.8-11 15.4-16.7 15.4s-11.8-5.6-16.7-15.4c-5.8-11.7-9-27.3-9-44.2s3.2-32.5 9-44.2c4.9-9.8 11-15.4 16.7-15.4m0-8c-18.6 0-33.8 30.2-33.8 67.5s15.1 67.5 33.8 67.5 33.8-30.2 33.8-67.5-15.2-67.5-33.8-67.5z"/><path class="st0" d="M1125.489 791.615l76.961-59.202 4.878 6.341-76.962 59.202z"/><path class="st0" d="M1202.564 738.74l4.878-6.34 76.961 59.202-4.877 6.34zm-46.257 203.972l30.802-85.312 7.525 2.717-30.802 85.312zm59.146-82.562l7.525-2.717 30.802 85.312-7.525 2.717z"/><path class="st0" d="M1309 552H924.5v496H886v16h247v-16H940.5V653.5L1026 568h175v100h8V568h100v-16zm-368.5 78.9V568h62.9l-62.9 62.9z"/></svg>