<svg version="1.1" xmlns="http://www.w3.org/2000/svg" x="0" y="0" viewBox="0 0 520 626" xml:space="preserve"><style type="text/css">.st0{fill:#36434f}</style><path class="st0" d="M319 236.7c14.9 0 27.1 12.1 27.1 27.1 0 14.9-12.1 27.1-27.1 27.1s-27.1-12.1-27.1-27.1c0-15 12.2-27.1 27.1-27.1m0-6.7c-18.6 0-33.8 15.1-33.8 33.8 0 18.6 15.1 33.8 33.8 33.8s33.8-15.1 33.8-33.8c0-18.7-15.2-33.8-33.8-33.8z"/><path class="st0" d="M423 114H38.5v496H0v16h247v-16H54.5V215.5L140 130h175v100h8V130h100v-16zM54.5 192.9V130h62.9l-62.9 62.9z"/><path d="M4 4h64v64H4zm64 0h64v64H68zm64 0h64v64h-64zm256 0h64v64h-64zm-64 0h64v64h-64zm-64 0h64v64h-64zm-64 0h64v64h-64zm256 0h64v64h-64z" fill="none" stroke="#36434f" stroke-width="8" stroke-miterlimit="10"/><path class="st0" d="M33.9 39.1h-3.4v11.8h-7.2V21.1h7.2v11.5h2.8L39 21.1h8.7l-8.2 13.8L48.7 51h-8.5l-6.3-11.9zm61.5 1.7v10.1h-7.2V21.1h11.9c2.3 0 4.3.4 6.1 1.3s3.1 2 4.1 3.6 1.4 3.3 1.4 5.3c0 2.9-1 5.2-3.1 7s-4.9 2.6-8.6 2.6h-4.6zm0-5.6h4.7c1.4 0 2.5-.3 3.2-1s1.1-1.7 1.1-3c0-1.4-.4-2.5-1.1-3.3s-1.8-1.3-3.1-1.3h-4.8v8.6zm74-14.1h7.2V51h-7.2V32.1l-10.7 18.8h-7.2V21.1h7.2v18.8l10.7-18.8zm71.1 19.7c-.1 2.1-.7 3.9-1.7 5.5s-2.5 2.8-4.3 3.7-4 1.3-6.3 1.3c-3.9 0-7-1.3-9.3-3.8s-3.4-6.2-3.4-10.8v-1.5c0-2.9.5-5.5 1.5-7.7s2.5-3.9 4.4-5.1 4.1-1.8 6.6-1.8c3.6 0 6.5 1 8.7 2.9s3.5 4.5 3.8 7.9h-7.2c-.1-1.8-.5-3.1-1.4-3.9s-2.2-1.2-3.9-1.2c-1.8 0-3.1.7-3.9 2s-1.3 3.5-1.3 6.4v2.1c0 3.2.4 5.5 1.2 6.8s2.2 2.1 4.1 2.1c1.7 0 2.9-.4 3.8-1.2s1.3-2 1.4-3.7h7.2zm64-14.2h-9v24.3h-7.2V26.6h-8.8V21h25v5.6zm56.4 18.8H351l-1.7 5.6h-7.7l11-29.9h6.8l11 29.9h-7.7l-1.8-5.6zm-8.1-5.6h6.4L356 29.4l-3.2 10.4zm80.5-18.7V51h-7.2V26.6h-6.7l-.5 10c-.2 3.5-.7 6.2-1.4 8.3s-1.8 3.6-3.2 4.5-3.3 1.4-5.7 1.5h-1.9v-5.5l1-.1c1.4-.2 2.5-1.1 3.1-2.6s1.1-4.2 1.3-7.8l.5-13.7h20.7zm64 0V51h-7.2V26.6h-6.7l-.5 10c-.2 3.5-.7 6.2-1.4 8.3s-1.8 3.6-3.2 4.5-3.3 1.4-5.7 1.5h-1.9v-5.5l1-.1c1.4-.2 2.5-1.1 3.1-2.6s1.1-4.2 1.3-7.8l.5-13.7h20.7z"/></svg>