<svg xmlns="http://www.w3.org/2000/svg" viewBox="0 0 1920 673" xml:space="preserve"><path fill="#0f2438" d="M0 0h1920v673H0z"/><circle cx="960" cy="336.5" r="297.4" fill="#e3ca29"/><path d="M1105.7 156.8c-1.4.6-3.1 1.3-4.3 2.2-.1.2-.2.5-.2.7-.2.6-.4 1.2-.7 1.8-2.6 6.3-6.9 12.1-12.8 16.2-.6-1.1-1.6-2-2.6-2.6l-1.3-2.8-1.3 2.1c-1-.1-2.1.1-3.1.5s-1.8 1.1-2.5 1.9l-2.4-.4 1.3 2.8c-.3 1.2-.3 2.5.2 3.7-6.9 1.6-14.1 1.1-20.6-1.2-.6-.2-1.1-.4-1.6-.6-.3-.1-.5-.2-.8-.3-1.4.4-3.1 1.2-4.5 1.8-8.6 3.9-14.3 12.3-15.2 21.1 2.8-1 5.9-.4 8.3 1.1 1.6-1.4 3.4-2.9 5.4-3.8 5.8-2.6 11.7-2 17 .4 1.1-2.1 3.2-4.2 5.5-5.2 4.8-2.2 10.3-.4 13.1 3.8 0 .1.1.1.1.2 0 0 .1.1.1.2.1.1.1.2.2.3.1.1.1.2.2.3.1 0 .3-.1.4-.1 2.9-1 4.4-.2 7.5.3 1.6-2.6 2.1-4.2 4.8-5.8.1-.1.3-.1.4-.2-.1-.1-.1-.2-.1-.4 0-.1-.1-.2-.1-.3 0-.1 0-.1-.1-.2 0-.1 0-.1-.1-.2-1.3-4.9 1-10.1 5.9-12.3 2.3-1 5.3-1.2 7.6-.6 1.7-5.6 5.2-10.4 11-13 2.1-.9 4.4-1.3 6.5-1.5.5-2.8 2.1-5.5 4.7-7-7.2-5.3-17.3-6.8-25.9-2.9zm-20.8 302.7c-.9-.1-2-.2-2.9-.2l-.3.3c-.3.2-.6.5-.9.7-3.2 2.5-7.2 4.1-11.4 4.5 0-.8-.2-1.5-.6-2.1l.2-1.8-1.3.7c-.5-.3-1.1-.6-1.7-.6-.6-.1-1.3 0-1.8.3l-1.1-.9-.2 1.8c-.5.5-.9 1.2-1 2-4.1-1.2-7.6-3.6-10.2-6.7-.2-.3-.4-.5-.7-.8-.1-.1-.2-.3-.3-.4-.8-.2-2-.3-2.8-.4-5.6-.6-11 2.1-14.1 6.3 1.7.4 3.2 1.5 4 3 1.2-.3 2.6-.5 3.9-.3 3.7.4 6.6 2.5 8.6 5.3 1.2-.8 2.9-1.2 4.4-1.1 3.1.3 5.4 2.8 5.6 5.8v.6c.1 0 .2 0 .3.1 1.8.4 2.4 1.2 3.8 2.4 1.6-.9 2.3-1.6 4.2-1.6h.3v-.6c.8-2.9 3.5-4.9 6.7-4.6 1.5.2 3.1.9 4.1 1.9 2.5-2.4 5.8-3.8 9.5-3.4 1.3.1 2.6.6 3.8 1.1 1.1-1.3 2.7-2.2 4.5-2.2-2.3-4.8-7-8.5-12.6-9.1zm-292.1-85.2c-1.6-.7-3.6-1.5-5.3-1.9-.3.1-.5.2-.8.4-.7.3-1.3.6-2 .8-7.4 2.9-15.6 3.9-23.7 2.4.4-1.4.4-2.9 0-4.3l1.3-3.3-2.8.6c-.8-.9-1.8-1.6-2.9-2.1-1.2-.5-2.4-.6-3.6-.5l-1.6-2.4-1.3 3.3c-1.2.7-2.3 1.8-2.9 3.1-7-4.5-12.2-10.9-15.5-18.1-.3-.6-.6-1.2-.8-1.8-.1-.3-.2-.6-.4-1-1.5-.9-3.5-1.7-5.1-2.3-10.2-4.1-21.8-2-29.8 4.3 3.1 1.6 5.1 4.6 5.8 7.8 2.5.2 5.1.5 7.6 1.5 6.8 2.7 11.1 8.1 13.3 14.5 2.6-.8 6.1-.7 8.8.4 5.7 2.3 8.6 8.2 7.4 14 0 .1 0 .1-.1.2 0 .1 0 .2-.1.2 0 .1-.1.2-.1.3 0 .1-.1.3-.1.4.1.1.3.1.5.2 3.2 1.7 3.8 3.5 5.8 6.5 3.5-.7 5.2-1.7 8.6-.7.2 0 .3.1.5.1.1-.1.1-.3.2-.4 0-.1.1-.2.2-.3 0-.1.1-.1.1-.2s.1-.1.1-.2c3.1-5 9.3-7.3 15-5 2.7 1.1 5.3 3.4 6.6 5.8 6-3.1 12.9-4 19.7-1.3 2.4 1 4.6 2.6 6.5 4.2 2.7-1.9 6.3-2.6 9.6-1.7-1.6-9.9-8.6-19.5-18.7-23.5zm28.8-214.2c-.7.6-1.5 1.3-2.1 2v.4c0 .4-.1.7-.1 1.1-.4 4.1-1.9 8.1-4.5 11.4-.6-.5-1.2-.9-1.9-1l-1.2-1.4-.4 1.4c-.6.1-1.2.4-1.7.8s-.8 1-1.1 1.5l-1.4.2 1.2 1.4c0 .7.3 1.4.7 2.1-3.7 2.1-7.8 3-11.9 2.8-.4 0-.7 0-1-.1-.2 0-.3 0-.5-.1-.8.5-1.6 1.2-2.3 1.8-4.3 3.7-6 9.5-5 14.6 1.5-1 3.3-1.3 4.9-.8.7-1.1 1.4-2.2 2.4-3.1 2.8-2.5 6.3-3.2 9.8-2.7.2-1.4 1.1-2.9 2.2-3.9 2.4-2.1 5.8-2 8.1-.1 0 0 .1 0 .1.1l.1.1c.1 0 .1.1.1.1.1 0 .1.1.2.2.1 0 .1-.1.2-.2 1.5-1.1 2.5-.9 4.3-1.1.5-1.8.5-2.8 1.7-4.1l.2-.2c0-.1-.1-.1-.1-.2l-.1-.1s0-.1-.1-.1c0 0 0-.1-.1-.1-1.6-2.6-1.1-5.9 1.2-8 1.1-1 2.8-1.6 4.2-1.7 0-3.5 1.2-6.8 4-9.3 1-.9 2.3-1.5 3.4-2-.2-1.7.3-3.5 1.5-4.8-4.7-1.5-10.7-.6-15 3.1zm140.2 91.3c-1.9.1-4.3.2-6.1.7-.2.3-.4.5-.6.7-.5.6-1.1 1.2-1.6 1.8-5.9 6.4-13.7 11.3-22.5 13.6-.2-1.7-.9-3.1-2-4.3l-.2-3.9-2.5 1.9c-1.2-.5-2.5-.8-3.9-.7-1.4.1-2.7.5-3.8 1.2l-2.7-1.6.2 3.9c-.9 1.3-1.4 2.8-1.4 4.5-9-1.2-17.3-5-24-10.6-.6-.5-1.1-.9-1.7-1.5l-.8-.8c-1.9-.2-4.2 0-6.2.1-12 .8-22.6 8.3-27.6 18.4 3.8.1 7.3 2.2 9.5 5 2.5-1 5.3-1.9 8.2-2.1 8-.5 14.9 2.9 20.1 8.1 2.2-2 5.7-3.6 8.9-3.8 6.7-.4 12.4 4.1 13.9 10.4v.5c0 .1 0 .2.1.4 0 .2 0 .3.1.5h.6c3.9.2 5.4 1.7 8.8 3.7 3.1-2.4 4.4-4.1 8.3-4.8.2 0 .4-.1.6-.1v-1.4c.7-6.5 5.8-11.6 12.5-12 3.2-.2 6.9.9 9.3 2.6 4.5-5.9 10.9-10.1 19-10.6 2.9-.2 5.8.4 8.4 1.1 1.8-3.2 5-5.6 8.7-6.2-6.1-9.2-17.5-15.4-29.6-14.7zM846.9 522.1c-.3-.6-.7-1.3-1.1-1.8-.1 0-.2-.1-.3-.1-.3-.1-.5-.1-.8-.2-2.8-.9-5.4-2.5-7.4-4.9.5-.3.8-.7 1-1.2l1.2-.6-.9-.5c0-.4-.1-.9-.3-1.3-.2-.4-.5-.7-.9-1l.1-1-1.2.6c-.5-.1-1.1 0-1.6.2-1-2.9-1-6-.3-8.8.1-.2.1-.5.2-.7 0-.1.1-.2.1-.4-.2-.6-.6-1.3-.9-1.9-2-3.5-5.8-5.6-9.6-5.7.5 1.2.4 2.5-.2 3.6.7.6 1.4 1.3 1.8 2.2 1.3 2.4 1.3 4.9.4 7.3.9.4 1.9 1.2 2.4 2.2 1.1 2 .6 4.4-1.1 5.7h-.1s-.1 0-.1.1c0 0-.1 0-.1.1l-.1.1c0 .1.1.1.1.2.5 1.2.3 1.9.2 3.2 1.2.6 1.9.7 2.6 1.8 0 .1.1.1.1.2 0 0 .1 0 .2-.1h.3c2.1-.7 4.4.1 5.5 2.1.5.9.7 2.2.5 3.2 2.5.5 4.6 1.9 6 4.2.5.8.7 1.8.9 2.7 1.2.1 2.4.7 3.1 1.8 2.1-3.4 2.3-7.8.3-11.3zm85.5-57.6c-.6-.1-1.4-.3-2-.4-.1.1-.2.1-.3.2-.2.2-.5.3-.7.4-2.5 1.5-5.5 2.3-8.6 2.2.1-.6 0-1.1-.2-1.6l.3-1.3-1 .4c-.3-.3-.7-.5-1.2-.6-.5-.1-.9-.1-1.3 0l-.7-.8-.3 1.3c-.4.3-.7.8-.9 1.3-2.8-1.2-5.1-3.3-6.7-5.7-.1-.2-.3-.4-.4-.6-.1-.1-.1-.2-.2-.3-.6-.2-1.4-.4-2-.6-4-.9-8.1.5-10.7 3.3 1.2.4 2.1 1.4 2.6 2.5.9-.1 1.9-.1 2.8.1 2.6.6 4.5 2.4 5.7 4.6.9-.4 2.2-.6 3.2-.4 2.2.5 3.6 2.5 3.5 4.7v.5c.1 0 .1 0 .2.1 1.3.4 1.6 1.1 2.5 2 1.2-.5 1.8-.9 3.1-.7h.2c0-.1 0-.1.1-.2v-.3c.8-2 3-3.2 5.2-2.7 1.1.2 2.1 1 2.7 1.8 2-1.5 4.5-2.2 7.1-1.6.9.2 1.8.7 2.6 1.2.9-.8 2.1-1.3 3.4-1.1-1-3.7-4.1-6.8-8-7.7zm69.7-68.9c-.5.7-1.2 1.6-1.6 2.4 0 .1.1.3.1.4.1.4.1.7.2 1.1.5 4-.1 8.3-2 12.1-.7-.4-1.4-.6-2.1-.6l-1.5-1.1-.1 1.5c-.6.3-1 .7-1.4 1.2-.4.5-.6 1.1-.7 1.7l-1.4.5 1.5 1.1c.2.7.6 1.4 1.2 1.9-3.1 2.9-7 4.6-11 5.3-.3.1-.7.1-1 .2-.2 0-.3 0-.5.1-.6.6-1.3 1.5-1.8 2.2-3.4 4.5-3.9 10.5-1.8 15.4 1.2-1.3 3-1.9 4.6-1.8.4-1.2.9-2.5 1.7-3.6 2.2-3 5.5-4.4 9-4.7 0-1.4.4-3.1 1.3-4.3 1.9-2.5 5.2-3.2 7.9-1.8 0 0 .1 0 .1.1 0 0 .1 0 .1.1.1 0 .1.1.2.1s.1.1.2.1l.2-.2c1.2-1.4 2.2-1.4 4-2 .1-1.8-.1-2.8.8-4.4 0-.1.1-.1.1-.2-.1 0-.1-.1-.2-.2-.1 0-.1-.1-.1-.1l-.1-.1-.1-.1c-2.1-2.2-2.4-5.6-.5-8.1.9-1.2 2.4-2.2 3.7-2.5-.7-3.4-.3-6.9 2-9.9.8-1.1 1.9-1.9 2.9-2.7-.6-1.6-.5-3.5.4-5-5.3-.8-11 1.4-14.3 5.9zm-66.9-41.3c-.7-.2-1.6-.5-2.3-.6-.1.1-.2.1-.3.2-.3.2-.5.3-.8.4-3 1.6-6.5 2.3-10 2 .1-.6.1-1.3-.2-1.8l.4-1.5-1.1.4c-.4-.4-.8-.6-1.3-.8-.5-.1-1-.2-1.5-.1l-.8-.9-.4 1.5c-.5.4-.9.8-1.1 1.5-3.1-1.6-5.6-4.1-7.4-7-.2-.2-.3-.5-.4-.7-.1-.1-.1-.3-.2-.4-.7-.3-1.5-.6-2.3-.8-4.5-1.3-9.3.1-12.5 3.1 1.4.5 2.4 1.7 2.8 3.1 1 0 2.2 0 3.3.3 3 .9 5.1 3 6.3 5.6 1.1-.4 2.5-.6 3.7-.2 2.5.7 4 3.1 3.7 5.6v.5c.1 0 .1.1.2.1 1.4.6 1.7 1.3 2.7 2.5 1.5-.5 2.1-.9 3.6-.7h.2c0-.1 0-.1.1-.2 0 0 0-.1.1-.1v-.2c1.1-2.3 3.6-3.5 6.1-2.8 1.2.3 2.4 1.2 3 2.2 2.4-1.6 5.3-2.3 8.3-1.4 1.1.3 2.1.9 2.9 1.5 1.1-.9 2.5-1.4 4-1.1-1-4.2-4.3-7.9-8.8-9.2z" fill="#111"/></svg>