<svg xmlns="http://www.w3.org/2000/svg" viewBox="0 0 1920 673" xml:space="preserve"><style>.st2{fill:#66442b}.st3{fill:#122a3a}.st4{opacity:.15;fill:#444;enable-background:new}.st5{fill:#ad6534}</style><path fill="#7193ad" d="M0 0h1920v673H0z"/><path d="M704 80.5h512v512H704v-512z" fill="#e5bc85"/><path class="st2" d="M1174 511.6h-44c-2.2 0-4-1.8-4-4v-32c0-2.2 1.8-4 4-4h44c2.2 0 4 1.8 4 4v32c0 2.2-1.7 4-4 4z"/><path class="st2" d="M987 487.6h172v8H987v-8z"/><path class="st2" d="M1064.8 500.1h-41.5c-2.2 0-4-1.8-4-4v-8c0-2.2 1.8-4 4-4h41.5c2.2 0 4 1.8 4 4v8c0 2.2-1.9 4-4 4zM746 511.3h44c2.2 0 4-1.8 4-4v-32c0-2.2-1.8-4-4-4h-44c-2.2 0-4 1.8-4 4v32c0 2.3 1.8 4 4 4z"/><path class="st2" d="M761 487.3h172v8H761v-8z"/><path class="st2" d="M855.3 499.8h41.5c2.2 0 4-1.8 4-4v-8c0-2.2-1.8-4-4-4h-41.5c-2.2 0-4 1.8-4 4v8c0 2.3 1.8 4 4 4zM960 541.2c-1.4 0-2.7-.7-3.4-2l-27.1-45.9c-.7-1.3-.7-2.8 0-4.1l27.1-45.9c.7-1.2 2-2 3.4-2s2.7.7 3.4 2l27.1 45.9c.7 1.3.7 2.8 0 4.1l-27.1 45.9c-.6 1.3-2 2-3.4 2zm-22.3-49.9 22.4 38 22.4-38-22.4-38-22.4 38zM1174 161.6h-44c-2.2 0-4 1.8-4 4v32c0 2.2 1.8 4 4 4h44c2.2 0 4-1.8 4-4v-32c0-2.2-1.7-4-4-4z"/><path class="st2" d="M987 177.6h172v8H987v-8z"/><path class="st2" d="M1064.8 173.1h-41.5c-2.2 0-4 1.8-4 4v8c0 2.2 1.8 4 4 4h41.5c2.2 0 4-1.8 4-4v-8c0-2.2-1.9-4-4-4zM746 161.9h44c2.2 0 4 1.8 4 4v32c0 2.2-1.8 4-4 4h-44c-2.2 0-4-1.8-4-4v-32c0-2.3 1.8-4 4-4z"/><path class="st2" d="M761 177.9h172v8H761v-8z"/><path class="st2" d="M855.3 173.4h41.5c2.2 0 4 1.8 4 4v8c0 2.2-1.8 4-4 4h-41.5c-2.2 0-4-1.8-4-4v-8c0-2.3 1.8-4 4-4zM960 231.7c-1.4 0-2.7-.7-3.4-2l-27.1-45.9c-.7-1.3-.7-2.8 0-4.1l27.1-45.9c.7-1.2 2-2 3.4-2s2.7.7 3.4 2l27.1 45.9c.7 1.3.7 2.8 0 4.1l-27.1 45.9c-.6 1.3-2 2-3.4 2zm-22.3-49.8 22.4 38 22.4-38-22.4-38-22.4 38z"/><path class="st2" d="M1206 584.5H714v-492h492v492zm-484-8h476v-476H722v476z"/><path class="st2" d="M960 452.5c-2.2 0-4-1.8-4-4v-112c0-2.2 1.8-4 4-4s4 1.8 4 4v112c0 2.2-1.8 4-4 4z"/><ellipse class="st3" cx="933.5" cy="491.2" rx="3.5" ry="3.6"/><ellipse class="st3" cx="986.5" cy="491.2" rx="3.5" ry="3.6"/><ellipse class="st3" cx="960" cy="448.2" rx="3.5" ry="3.6"/><ellipse class="st3" cx="960" cy="534.2" rx="3.5" ry="3.6"/><path class="st2" d="M960 340.5c-2.2 0-4-1.8-4-4v-112c0-2.2 1.8-4 4-4s4 1.8 4 4v112c0 2.2-1.8 4-4 4z"/><ellipse class="st3" cx="1132.5" cy="478.7" rx="3.5" ry="3.6"/><ellipse class="st3" cx="1171.5" cy="478.7" rx="3.5" ry="3.6"/><ellipse class="st3" cx="1132.5" cy="504.3" rx="3.5" ry="3.6"/><ellipse class="st3" cx="1171.5" cy="504.3" rx="3.5" ry="3.6"/><ellipse class="st3" cx="787.4" cy="478.4" rx="3.5" ry="3.6"/><ellipse class="st3" cx="748.5" cy="478.4" rx="3.5" ry="3.6"/><ellipse class="st3" cx="787.4" cy="504.1" rx="3.5" ry="3.6"/><ellipse class="st3" cx="748.5" cy="504.1" rx="3.5" ry="3.6"/><ellipse class="st3" cx="1132.5" cy="194.3" rx="3.5" ry="3.6"/><ellipse class="st3" cx="1171.5" cy="194.3" rx="3.5" ry="3.6"/><ellipse class="st3" cx="1132.5" cy="168.7" rx="3.5" ry="3.6"/><ellipse class="st3" cx="1171.5" cy="168.7" rx="3.5" ry="3.6"/><ellipse class="st3" cx="787.4" cy="194.6" rx="3.5" ry="3.6"/><ellipse class="st3" cx="748.5" cy="194.6" rx="3.5" ry="3.6"/><ellipse class="st3" cx="787.4" cy="168.9" rx="3.5" ry="3.6"/><ellipse class="st3" cx="748.5" cy="168.9" rx="3.5" ry="3.6"/><ellipse class="st3" cx="933.5" cy="181.8" rx="3.5" ry="3.6"/><ellipse class="st3" cx="986.5" cy="181.8" rx="3.5" ry="3.6"/><ellipse class="st3" cx="960" cy="224.8" rx="3.5" ry="3.6"/><ellipse class="st3" cx="960" cy="138.8" rx="3.5" ry="3.6"/><circle class="st4" cx="960" cy="336.5" r="27"/><path class="st5" d="M1057.6 238.9c3.2 3.2 3.2 8.4 0 11.7l-85.9 85.9 85.9 85.9c3.2 3.2 3.2 8.4 0 11.7-3.2 3.2-8.4 3.2-11.7 0L960 348.2l-85.9 85.9c-3.2 3.2-8.4 3.2-11.7 0-3.2-3.2-3.2-8.4 0-11.7l85.9-85.9-85.9-85.9c-3.2-3.2-3.2-8.4 0-11.7 3.2-3.2 8.4-3.2 11.7 0l85.9 85.9 85.9-85.9c3.3-3.2 8.5-3.2 11.7 0z"/><path class="st5" d="M960 428.2c-50.5 0-91.7-41.1-91.7-91.7 0-50.5 41.1-91.7 91.7-91.7s91.7 41.1 91.7 91.7c0 50.5-41.2 91.7-91.7 91.7zm0-166.9c-41.5 0-75.2 33.7-75.2 75.2s33.7 75.2 75.2 75.2 75.2-33.7 75.2-75.2-33.7-75.2-75.2-75.2z"/><path class="st2" d="M1178 342.5h-52c-2.2 0-4-1.8-4-4s1.8-4 4-4h52c2.2 0 4 1.8 4 4s-1.8 4-4 4zm-384 0h-52c-2.2 0-4-1.8-4-4s1.8-4 4-4h52c2.2 0 4 1.8 4 4s-1.8 4-4 4z"/><ellipse class="st3" cx="738" cy="114.5" rx="3.5" ry="3.6"/><ellipse class="st3" cx="738" cy="558.5" rx="3.5" ry="3.6"/><ellipse class="st3" cx="1182" cy="558.5" rx="3.5" ry="3.6"/><ellipse class="st3" cx="1182" cy="114.5" rx="3.5" ry="3.6"/><path class="st4" d="M0 0h960v673H0V0z"/></svg>