<svg xmlns="http://www.w3.org/2000/svg" viewBox="0 0 1920 673" xml:space="preserve"><style>.st1{fill:#ddd}.st2{fill:#bbb}.st3{fill:#36434f}.st4{fill:#5e6972}.st5{fill:#868e95}.st6,.st7{opacity:.15;fill:#444;enable-background:new}.st7{opacity:.1}</style><path fill="#a18267" d="M0 0h1920v673H0z"/><path class="st1" d="M1120 489c0 4.1-3.4 7.5-7.5 7.5h-305c-4.1 0-7.5-3.4-7.5-7.5V184c0-4.1 3.4-7.5 7.5-7.5h305c4.1 0 7.5 3.4 7.5 7.5v305z"/><path class="st2" d="M936.6 258.7c-1.4 0-2.5 1.1-2.5 2.5v150.7c0 1.4 1.1 2.5 2.5 2.5h46.9c1.4 0 2.5-1.1 2.5-2.5V261.2c0-1.4-1.1-2.5-2.5-2.5h-46.9z"/><path class="st3" d="M937.8 315.3h44.4v95.3h-44.4v-95.3z"/><path class="st4" d="M937.8 262.4h44.4v43.4h-44.4v-43.4z"/><path class="st5" d="M937.8 305.6h44.4v10h-44.4v-10z"/><circle class="st3" cx="960" cy="227.1" r="9.4"/><circle class="st3" cx="960" cy="445.9" r="9.4"/><path class="st6" d="M807.5 176.5c-4.1 0-7.5 3.4-7.5 7.5v305c0 4.1 3.4 7.5 7.5 7.5H960v-320H807.5z"/><path class="st7" d="m938.1 410.3-36.3-106.2c-2.6-7.4.1-15.7 6.4-20.3l29.9-21.6v148.1z"/><path class="st1" d="M1470 489c0 4.1-3.4 7.5-7.5 7.5h-305c-4.1 0-7.5-3.4-7.5-7.5V184c0-4.1 3.4-7.5 7.5-7.5h305c4.1 0 7.5 3.4 7.5 7.5v305z"/><path class="st2" d="M1286.6 258.7c-1.4 0-2.5 1.1-2.5 2.5v150.7c0 1.4 1.1 2.5 2.5 2.5h46.9c1.4 0 2.5-1.1 2.5-2.5V261.2c0-1.4-1.1-2.5-2.5-2.5h-46.9z"/><path class="st3" d="M1287.8 315.3h44.4v95.3h-44.4v-95.3z"/><path class="st4" d="M1287.8 262.4h44.4v43.4h-44.4v-43.4z"/><path class="st5" d="M1287.8 305.6h44.4v10h-44.4v-10z"/><circle class="st3" cx="1310" cy="227.1" r="9.4"/><circle class="st3" cx="1310" cy="445.9" r="9.4"/><path class="st6" d="M1157.5 176.5c-4.1 0-7.5 3.4-7.5 7.5v305c0 4.1 3.4 7.5 7.5 7.5H1310v-320h-152.5z"/><path class="st7" d="m1288.1 410.3-36.3-106.2c-2.6-7.4.1-15.7 6.4-20.3l29.9-21.6v148.1z"/><path class="st1" d="M770 489c0 4.1-3.4 7.5-7.5 7.5h-305c-4.1 0-7.5-3.4-7.5-7.5V184c0-4.1 3.4-7.5 7.5-7.5h305c4.1 0 7.5 3.4 7.5 7.5v305z"/><path class="st2" d="M586.6 258.7c-1.4 0-2.5 1.1-2.5 2.5v150.7c0 1.4 1.1 2.5 2.5 2.5h46.9c1.4 0 2.5-1.1 2.5-2.5V261.2c0-1.4-1.1-2.5-2.5-2.5h-46.9z"/><path class="st3" d="M587.8 315.3h44.4v95.3h-44.4v-95.3z"/><path class="st4" d="M587.8 262.4h44.4v43.4h-44.4v-43.4z"/><path class="st5" d="M587.8 305.6h44.4v10h-44.4v-10z"/><circle class="st3" cx="610" cy="227.1" r="9.4"/><circle class="st3" cx="610" cy="445.9" r="9.4"/><path class="st6" d="M457.5 176.5c-4.1 0-7.5 3.4-7.5 7.5v305c0 4.1 3.4 7.5 7.5 7.5H610v-320H457.5z"/><path class="st7" d="m588.1 410.3-36.3-106.2c-2.6-7.4.1-15.7 6.4-20.3l29.9-21.6v148.1z"/></svg>