<svg version="1.1" xmlns="http://www.w3.org/2000/svg" x="0" y="0" viewBox="0 0 512 512" xml:space="preserve"><style type="text/css">.st0{fill:#36434f}</style><circle class="st0" cx="340.4" cy="116" r="16"/><circle class="st0" cx="340.4" cy="66" r="16"/><circle class="st0" cx="340.4" cy="16" r="16"/><circle class="st0" cx="340.4" cy="406" r="16"/><circle class="st0" cx="340.4" cy="356" r="16"/><circle class="st0" cx="220.4" cy="236" r="16"/><circle class="st0" cx="170.4" cy="236" r="16"/><circle class="st0" cx="120.4" cy="236" r="16"/><circle class="st0" cx="460.4" cy="236" r="16"/><circle class="st0" cx="255.6" cy="151.1" r="16"/><circle class="st0" cx="220.2" cy="115.8" r="16"/><circle class="st0" cx="496" cy="391.6" r="16"/><circle class="st0" cx="460.6" cy="356.2" r="16"/><circle class="st0" cx="425.3" cy="320.9" r="16"/><circle class="st0" cx="425.3" cy="151.1" r="16"/><circle class="st0" cx="460.6" cy="115.8" r="16"/><circle class="st0" cx="496" cy="80.4" r="16"/><circle class="st0" cx="220.2" cy="356.2" r="16"/><circle class="st0" cx="255.6" cy="320.9" r="16"/><circle cx="256" cy="496" r="16" fill="#2e86b7"/><circle cx="16" cy="355" r="16" fill="#cc584c"/><path class="st0" d="M318.8 466.2l-36.9 1.4 11.7 6.1-16 7.6 3.4 7.2 16-7.6-2.7 12.9zm21.6-22.2c6.6 0 12 5.4 12 12s-5.4 12-12 12-12-5.4-12-12 5.4-12 12-12m0-4c-8.8 0-16 7.2-16 16s7.2 16 16 16 16-7.2 16-16-7.2-16-16-16z"/></svg>