<svg version="1.1" xmlns="http://www.w3.org/2000/svg" x="0" y="0" viewBox="0 0 418 472" xml:space="preserve"><style type="text/css">.st0{fill:#36434f}</style><circle class="st0" cx="246.4" cy="116" r="16"/><circle class="st0" cx="246.4" cy="66" r="16"/><circle class="st0" cx="246.4" cy="16" r="16"/><circle class="st0" cx="246.4" cy="406" r="16"/><circle cx="246.4" cy="356" r="16" fill="#2e86b7"/><circle class="st0" cx="126.4" cy="236" r="16"/><circle class="st0" cx="76.4" cy="236" r="16"/><circle class="st0" cx="26.4" cy="236" r="16"/><circle class="st0" cx="366.4" cy="236" r="16"/><circle class="st0" cx="161.6" cy="151.1" r="16"/><circle class="st0" cx="126.2" cy="115.8" r="16"/><circle class="st0" cx="402" cy="391.6" r="16"/><circle class="st0" cx="366.6" cy="356.2" r="16"/><circle class="st0" cx="331.3" cy="320.9" r="16"/><circle class="st0" cx="331.3" cy="151.1" r="16"/><circle class="st0" cx="366.6" cy="115.8" r="16"/><circle class="st0" cx="402" cy="80.4" r="16"/><circle class="st0" cx="126.2" cy="356.2" r="16"/><circle class="st0" cx="161.6" cy="320.9" r="16"/><circle cx="16" cy="412" r="16" fill="#cc584c"/><circle class="st0" cx="246.4" cy="456" r="16"/><path class="st0" d="M220 456l-34-14.5 8 10.5h-68v8h68l-8 10.5 34-14.5zm26.4-122.5l14.5-34-10.5 8v-68h-8v68l-10.5-8 14.5 34z"/></svg>