<svg version="1.1" xmlns="http://www.w3.org/2000/svg" x="0" y="0" viewBox="0 0 407.6 472" xml:space="preserve"><style type="text/css">.st0{fill:#36434f}</style><circle class="st0" cx="236" cy="116" r="16"/><circle class="st0" cx="236" cy="66" r="16"/><circle class="st0" cx="236" cy="16" r="16"/><circle class="st0" cx="236" cy="406" r="16"/><circle cx="211" cy="229" r="16" fill="#2e86b7"/><circle class="st0" cx="116" cy="236" r="16"/><circle class="st0" cx="66" cy="236" r="16"/><circle class="st0" cx="16" cy="236" r="16"/><circle class="st0" cx="356" cy="236" r="16"/><circle class="st0" cx="151.2" cy="151.1" r="16"/><circle class="st0" cx="115.8" cy="115.8" r="16"/><circle class="st0" cx="391.6" cy="391.6" r="16"/><circle class="st0" cx="356.2" cy="356.2" r="16"/><circle class="st0" cx="320.9" cy="320.9" r="16"/><circle class="st0" cx="320.9" cy="151.1" r="16"/><circle class="st0" cx="356.2" cy="115.8" r="16"/><circle class="st0" cx="391.6" cy="80.4" r="16"/><circle class="st0" cx="115.8" cy="356.2" r="16"/><circle class="st0" cx="151.2" cy="320.9" r="16"/><circle cx="127.6" cy="398.9" r="16" fill="#cc584c"/><circle class="st0" cx="236" cy="456" r="16"/><path class="st0" d="M236 330l-14.5 33.9L232 356v17.7h8V356l10.5 8z"/></svg>