<svg xmlns="http://www.w3.org/2000/svg" viewBox="0 0 1920 673" xml:space="preserve"><style>.st2{fill:#36434f}.st4{fill:#f4f4f4}</style><path fill="#35965f" d="M0 0h1920v673H0z"/><path d="M1160.5 350.5c-6.5-1.5-13.6 1.4-20.2 7.6l13.9-136.2c0-102-86.9-184.7-194.2-184.7s-194.2 82.7-194.2 184.7l13.9 136.2c-6.7-6.1-13.7-8.9-20.1-7.5-16.5 3.9-23.5 34.7-15.5 68.9 8 34.1 27.9 58.8 44.5 54.8 1-.2 2-.6 2.9-1l1.4 13.7c4.9 48.3 32.2 91.9 74.5 119.2l32.1 20.7c14.2 9.2 30.9 14 48 14h25c17.1 0 33.9-4.9 48-14l32.1-20.7c42.2-27.2 69.6-70.9 74.5-119.2l1.4-13.9c1 .5 2 .8 3 1.1 16.5 3.9 36.5-20.7 44.5-54.8 7.9-34.2 1-65-15.5-68.9z" fill="#ffcc80"/><path class="st2" d="M1170.2 190c-.7-87.4-94.5-158-210.2-158s-209.6 70.6-210.3 158l33.2 200.5 9.8-198c42.8 19.1 101.9 31 167.3 31s124.5-11.9 167.3-31l9.8 198 33.1-200.5z"/><path d="M961.9 470h-3.8c-10.5 0-19-8.6-19-19v-19.5c0-10.5 8.6-19 19-19h3.8c10.5 0 19 8.6 19 19V451c0 10.4-8.4 19-19 19zm46.5 60.9v3.8c0 10.5-8.6 19-19 19h-58.9c-10.5 0-19-8.6-19-19v-3.8c0-10.5 8.6-19 19-19h58.9c10.5 0 19 8.5 19 19z" fill="#e3b877"/><circle class="st2" cx="879.9" cy="360" r="31.4"/><ellipse class="st4" cx="897.3" cy="354.2" rx="8.9" ry="10.1"/><circle class="st2" cx="1040" cy="360" r="31.4"/><ellipse class="st4" cx="1057.4" cy="354.2" rx="8.9" ry="10.1"/><path fill="#ddd" d="M865.4 239.6h189.2v71.9H865.4z"/><path class="st2" d="M897.8 281.2v12.4H889V257h14.6c2.8 0 5.3.5 7.4 1.5 2.2 1 3.8 2.5 5 4.4 1.2 1.9 1.8 4.1 1.8 6.5 0 3.6-1.3 6.4-3.8 8.6-2.6 2.1-6.1 3.2-10.5 3.2h-5.7zm0-6.8h5.8c1.7 0 3-.4 3.9-1.3.9-.9 1.3-2.1 1.3-3.6 0-1.7-.5-3.1-1.4-4.1-.9-1-2.2-1.5-3.8-1.6h-5.9v10.6zm23 5.4c0-2.7.5-5.1 1.6-7.3 1.1-2.1 2.6-3.8 4.6-4.9 2-1.1 4.3-1.7 7-1.7 4.1 0 7.3 1.3 9.6 3.8s3.5 6 3.5 10.3v.3c0 4.2-1.2 7.6-3.5 10.1-2.4 2.5-5.6 3.7-9.6 3.7-3.9 0-7-1.2-9.3-3.5s-3.6-5.5-3.8-9.5l-.1-1.3zm8.5.5c0 2.5.4 4.4 1.2 5.5.8 1.2 2 1.8 3.5 1.8 3 0 4.6-2.3 4.6-7v-.9c0-4.9-1.6-7.3-4.7-7.3-2.8 0-4.4 2.1-4.6 6.3v1.6zm31.4-20.7v6.8h4.5v5.9h-4.5v12.5c0 1 .2 1.7.6 2.1.4.4 1.1.6 2.2.6.8 0 1.5-.1 2.1-.2v6.1c-1.5.5-3.1.7-4.8.7-2.9 0-5.1-.7-6.5-2.1-1.4-1.4-2.1-3.5-2.1-6.3v-13.5h-3.5v-5.9h3.5v-6.8h8.5zm17.7 0v6.8h4.5v5.9h-4.5v12.5c0 1 .2 1.7.6 2.1.4.4 1.1.6 2.2.6.8 0 1.5-.1 2.1-.2v6.1c-1.5.5-3.1.7-4.8.7-2.9 0-5.1-.7-6.5-2.1-1.4-1.4-2.1-3.5-2.1-6.3v-13.5h-3.5v-5.9h3.5v-6.8h8.5zm21.1 34.6c-4.2 0-7.6-1.2-10.2-3.7-2.6-2.5-3.9-5.7-3.9-9.7v-.8c0-2.8.5-5.2 1.5-7.4 1-2.1 2.5-3.8 4.5-5 2-1.2 4.3-1.8 7.1-1.8 3.8 0 6.9 1.2 9.1 3.6s3.3 5.7 3.3 9.9v3.3H994c.3 1.5 1 2.7 2 3.6 1 .9 2.4 1.3 4 1.3 2.7 0 4.8-.9 6.3-2.8l3.9 4.6c-1.1 1.5-2.6 2.6-4.5 3.5-1.9.9-4 1.4-6.2 1.4zm-1-21.8c-2.5 0-4 1.6-4.4 4.9h8.6v-.7c0-1.4-.3-2.4-1-3.2-.8-.6-1.9-1-3.2-1zm32.3 1.7-2.8-.2c-2.7 0-4.4.8-5.1 2.5v17.3h-8.5v-27.3h8l.3 3.5c1.4-2.7 3.4-4 6-4 .9 0 1.7.1 2.4.3l-.3 7.9z"/><path d="m749.7 190 27.5 165.9c-5.8-4.6-11.9-6.7-17.6-5.4-16.5 3.9-23.4 34.7-15.5 68.9 8 34.1 27.9 58.8 44.5 54.8 1-.2 1.9-.6 2.9-1l1.4 13.8c4.9 48.3 32.2 91.9 74.5 119.2l32.1 20.7c14.2 9.2 30.9 14 48 14H960V32c-115.8 0-209.6 70.6-210.3 158z" opacity=".15" fill="#444"/></svg>