<svg xmlns="http://www.w3.org/2000/svg" viewBox="0 0 1920 673" xml:space="preserve"><style>.st2{fill:#ddd}.st6,.st7{fill:#cc584c}.st7{opacity:.5;enable-background:new}</style><path fill="#f4f4f4" d="M0 0h1920v673H0z"/><path d="M0 132.8h1920v5.3H0v-5.3zm0 134.4h1920v5.3H0v-5.3zm0 134.4h1920v5.3H0v-5.3zM0 536h1920v5.3H0V536z" opacity=".2" fill="#444"/><path class="st2" d="M756.6 1h406.9v672H756.6V1z"/><path d="M822.2 123.1h280.9V673H822.2V123.1z" fill="#bbb"/><path d="M957.4 123.1h5.3V673h-5.3V123.1z" opacity=".5" fill="#444"/><path d="M889.8 50.6h145.7V92H889.8V50.6z" fill="#36434f"/><path class="st6" d="M995.2 56.5 983.4 86l11.8-7.9L1007 86l-11.8-29.5z"/><path class="st7" d="m930.2 86.1-11.8-29.5 11.8 7.9 11.8-7.9-11.8 29.5z"/><path d="M1262 373.2h-34.5c-2.2 0-3.9-1.7-3.9-3.9v-65c0-2.2 1.7-3.9 3.9-3.9h34.5c2.2 0 3.9 1.7 3.9 3.9v65c.1 2.2-1.8 3.9-3.9 3.9z" fill="#999"/><circle class="st2" cx="1244.8" cy="356.6" r="9.8"/><path class="st6" d="M1244.8 362.5c-.5 0-1-.1-1.4-.5l-5.9-5.9c-.8-.8-.8-2 0-2.8s2-.8 2.8 0l4.5 4.5 4.5-4.5c.8-.8 2-.8 2.8 0s.8 2 0 2.8l-5.9 5.9c-.4.3-1 .5-1.4.5z"/><circle class="st2" cx="1244.8" cy="317.2" r="9.8"/><path class="st7" d="M1250.7 321.1c-.5 0-1-.1-1.4-.5l-4.5-4.5-4.5 4.5c-.8.8-2 .8-2.8 0-.8-.8-.8-2 0-2.8l5.9-5.9c.8-.8 2-.8 2.8 0l5.9 5.9c.8.8.8 2 0 2.8-.4.4-1 .5-1.4.5z"/></svg>