<svg version="1.1" xmlns="http://www.w3.org/2000/svg" x="0" y="0" viewBox="0 0 512 47" xml:space="preserve"><style type="text/css">.st0{fill:#cc584c}.st1{fill:#2e86b7}</style><path class="st0" d="M41 7.3H18C7.6 7.8-.4 16.5 0 26.9c.4 10.3 9.2 18.4 19.5 18 1.1 0 2.2-.2 3.2-.4L35.5 42c2.7-.5 5.4-.9 8.1-1.1-3-5.2-4.9-11.3-5.2-17.9-.2-5.6.7-10.9 2.6-15.7zM10.2 37c-.2-.3-.5-.5-.8-.8l.7-.8-2.3-2.1L9.9 31l-2.3-2 2.1-2.3-2.3-2.1 2.1-2.3-2.3-2.1 2.1-2.3-.9-.8.9-.9.9.8.9.9L9 20.2l1.4 1.2.9.9-2.1 2.3 1.4 1.2.9.9L9.4 29l1.4 1.2.9.9-2.1 2.3 1.4 1.2.9.9-1.7 1.5zm6.7 2.7c-.4 0-.9-.1-1.5-.2l-2.1-2 2.1-2.3-2.4-2.1 2.1-2.3-2.3-2.1 2.1-2.3-2.3-2.1 2.1-2.3-2.2-2 2.1-2.3-2.3-2.1 2.1-2.3-.2-.2c.5-.2 1-.3 1.5-.4l.5.5-2.2 2.3 1.4 1.2.9.9-2.1 2.3 1.4 1.2.9.9-2.1 2.3 1.4 1.2.9.9-2.1 2.3 1.4 1.2.9.9-2.2 2.2 1.4 1.2.9.9-2.1 2.3 1.4 1.2.9.9-.3.2zm5.4-.3l-.8.2c-.4.1-.9.2-1.3.2l.4-.4-2.3-2.1 2.1-2.3-2.3-2.1 2.1-2.3-2.3-2.1 2.1-2.3-2.3-2.1 2.1-2.3-2.3-2.1 2.1-2.3-2.3-2.1 2.1-2.3-.5-.7h1.9l.6.6-2.1 2.3 1.4 1.2.9.9-2.1 2.3 1.4 1.2.9.9-2.2 2.3 1.4 1.2.9.9-2.1 2.3 1.4 1.2.9.9-2.1 2.3 1.4 1.2.9.9-2.1 2.3 1.4 1.2.9.9-.2.1zm4.4-1.2l.3.3-1 .1v-.1l-.6.1-1.8-1.6 2.1-2.3-2.3-2.1 2.1-2.3-2.3-2.1 2.1-2.3-2.3-2.1 2.1-2.3-2.3-2.1 2.1-2.3-2.3-2.1 2.1-2.3-.3-.4h1.9l.4.4-2.1 2.3 1.4 1.2.9.9-2.1 2.3 1.4 1.2.9.9-2.1 2.3 1.4 1.2.9.9-2.3 2.3 1.4 1.2.9.9-2.1 2.3 1.4 1.2.9.9-2.1 2.3 1.3 1.2zm4.9-.6l-1.5.3-1.2-1.1 2.1-2.3-2.3-2.1 2.1-2.3-2.4-2.1 2.1-2.3-2.3-2.1 2.1-2.3-2.3-2.1 2.1-2.3-2.3-2.1 2.1-2.3-.1-.3h1.9l.2.2-2.1 2.3 1.4 1.2.9.9-2.1 2.4 1.4 1.2.9.9-2.1 2.3 1.4 1.2.9.9-2.2 2.3 1.4 1.2.9.9-2.1 2.3 1.4 1.2.9.9-2.1 2.3.9.8zM128 25.5c-.1-2-.4-3.9-.9-5.7-.7-2.6-2.4-4.7-4.6-6.2-7.8-5-16.4-8.8-25.6-11C89.1.7 80.9-.2 72.4.2 64.9.4 59.6 3 52.8 5c-2.4.7-5 1.3-7.5 1.7l-.7 1.9c-1.6 4.5-2.4 9.2-2.2 14.1.3 5.7 1.8 11.3 4.6 16.1l1 1.8c3.9-.1 7.8.1 11.7.7l1.2.2c3.9.5 7.8 1.4 11.6 2.5 5.5 1.7 11.2 2.7 17.2 2.9 1.8.1 3.5 0 5.3 0 9.4-.4 18.3-2.7 26.3-6.6 2.7-1.3 4.7-3.7 5.6-6.6.9-2.6 1.2-5.4 1.1-8.2zm-75.5.5c-1.5 0-2.8-1.1-2.9-2.6-.1-1.5 1.1-2.8 2.6-2.9 1.5-.1 2.8 1.1 2.9 2.6.1 1.5-1.1 2.8-2.6 2.9zm16.4 10.4l.7.6c-.8-.2-1.7-.4-2.5-.6l-1.2-1.1c0-.1 0-.1-.1-.2l2-2.2-2.3-2.1 2.1-2.3-2.3-2.1 2.1-2.3-2.3-2.1 2.1-2.3-2.2-2 2.1-2.3-2.2-2c0-.1 0-.1.1-.2l2-2.1-.8-.8c.2-.4.3-.8.5-1.2l1.2 1.1.9.9-2.1 2.3 1.4 1.2.9.9-2.1 2.3 1.4 1.2.9.9-2.1 2.1 1.4 1.2.9.9-2.1 2.3 1.4 1.2.9.9-2.1 2.3 1.4 1.2.9.9-2.1 2.3 1.2 1.2zm5.1 1.8c-.5-.1-.9-.3-1.4-.4l.7-.7L71 35l2.1-2.3-2.3-2.1 2.1-2.3-2.3-2.1 2.1-2.3-2.3-2.1 2.1-2.3-2.3-2.1 2.1-2.3-2.3-2 2.1-2.3-2.3-2.1 2.3-2.3-.4-.3h1.8l.3.3-2.1 2.3 1.4 1.2.9.9-2 2.3 1.4 1.2.9.9-2.1 2.3 1.4 1.2.9.9-2.1 2.3 1.4 1.2.9.9-2.1 2.3 1.4 1.2.9.9-2.1 2.3 1.4 1.2.9.9-2.1 2.3 1.4 1.2.9.9-1.3 1zm4.6 1.2c-.7-.1-1.3-.3-2-.5l1.9-2.1-2.3-2.1 2.1-2.3-2.3-2 2.1-2.3-2.3-2.1 2.1-2.3-2.3-2.1 2.1-2.3-2.3-2.1 2.1-2.3-2.3-2.1 2.1-2.3-2.3-2 2.1-2.3V6h2l.1.1L77 8.4l1.4 1.2.9.9-2.1 2.3 1.4 1.2.9.9-2.1 2.3 1.4 1.2.9.9-2.1 2.3 1.4 1.2.9.9-2.1 2.3 1.4 1.2.8.8-2.1 2.3 1.4 1.2.9.9-2.2 2.3 1.4 1.2.9.9-2.1 2.3.4.3zm6.2.7l.5.4c-.7-.1-1.5-.2-2.2-.3l-1.5-1.3 2.2-2.2-2.3-2.1 2.1-2.3-2.3-2.1 2.1-2.3-2.3-2.1 2.1-2.3-2.2-2.1 2.1-2.3-2.3-2.1 2.1-2.3-2.3-2.1 2.1-2.3-2.3-2.1 1.9-2c.6 0 1.1.1 1.7.1l-1.7 1.8 1.4 1.2.9.9-2.1 2.3 1.4 1.2.9.9-2.2 2.4 1.4 1.2.9.9-2.1 2.3 1.4 1.2.9.9-2.1 2.2 1.4 1.2.9.9-2.1 2.3 1.4 1.2.9.9-2.1 2.3 1.4 1.2.9.9-2.1 2.3 1.2 1.2zm6 .8h-1.7v-.1l-2.3-2.1 2.1-2.3-2.3-2.1 2.1-2.3-2.2-2 2.1-2.3-2.3-2.1 2.1-2.3-2.3-2.1 2.1-2.3-2.3-2.1 2.1-2.3-2.3-2.1 2.1-2.3L85.5 8l1.2-1.3c.8.1 1.3.2 1.8.3l-.9 1L89 9.3l.9.9-2.1 2.3 1.4 1.2.9.9-2.1 2.3 1.4 1.2.9.9-2.3 2.1 1.4 1.2.9.9-2.1 2.3 1.4 1.2.9.9-2.1 2.3 1.4 1.2.9.9-2.1 2.3 1.4 1.2.9.9-2.1 2.3 1.4 1.2.9.9-.3.1zm5.1-.1c-.4 0-.8.1-1.2.1h-.6l.3-.3-2.3-2.1 2.1-2.3-2.3-2.1 2.1-2.3-2.3-2.1 2.1-2.3-2.3-2.1 2.1-2.3-2.3-2.1 2.1-2.3-2.3-2.1 2.1-2.3-2.3-2.1L93 9.9l-2.3-2.1.4-.4c.7.2 1.2.3 1.7.4L94.1 9l.9.9-2.1 2.3 1.4 1.2.9.9-2.1 2.3 1.4 1.2.9.9-2.1 2.3 1.4 1.2.9.9-2.1 2.3 1.4 1.2.9.9-2.1 2.3 1.4 1.2.9.9-2.2 2.1 1.4 1.2.9.9-2.1 2.3 1.4 1.2.9.9-.4.3zm3.7-.4l.1-.1-2.3-2.1 2.1-2.3-2.3-2.1 2.1-2.3-2.3-2 2.1-2.3-2.3-2.1 2.1-2.3-2.3-2.1 2.1-2.3-2.3-2.1 2.1-2.3-2.3-2.1 2.1-2.3-.8-.8c1.1.3 1.9.6 2.8.8l-2 2.2 1.4 1.2.9.9-2.1 2.3 1.4 1.2.9.9-2.1 2.3 1.4 1.2.9.9-2.3 2.3 1.4 1.2.9.9-2.1 2.3 1.4 1.2.9.9-2.2 2.3 1.4 1.2.9.9-2.1 2.3 1.4 1.2.9.8c-.6.1-1.3.2-1.9.2zm6.2-1.2l.2.2c-.5.1-1 .2-1.5.4l-1.8-1.7 2.1-2.3-2.3-2.1 2.1-2.3-2.3-2.1 2.1-2.3-2.3-2.1 2.1-2.3-2.3-2.1 2.1-2.3-2.3-2.1 2.1-2.3-2.3-2.1 1.3-1.2c.4.2.9.3 1.3.5l-.6.7 1.4 1.2.9.9-2.1 2.3 1.4 1.2.9.9-2.1 2.3 1.4 1.2.9.9-2.1 2.3 1.4 1.2.9.9-2.1 2.3 1.4 1.2.9.9-2.1 2.3 1.4 1.2.9.9-2.1 2.3 1.1 1.1zm4.4-1c-.5.1-1 .3-1.4.4l-.9-.8 2.1-2.3-2.3-2.1 2.1-2.3-2.3-2.1 2.1-2.3-2.3-2.1 2.1-2.3-2.3-2.1 2.1-2.3-2.3-2.1 2.1-2.3-1.1-1c1.1.4 1.9.8 2.8 1.2l-1.9 2 1.4 1.2.9.9-2.1 2.3 1.4 1.2.9.9-2.1 2.3 1.4 1.2.9.9-2.1 2.3 1.4 1.2.9.9-2.1 2.3 1.4 1.2.9.9-2.1 2.3.4.5zm6.2-2.2c-.9.4-1.8.8-2.7 1.1l1.6-1.8-2.3-2.1 2.1-2.3-2.3-2.1 2.1-2.3-2.3-2.1 2.1-2.3-2.3-2.1 2.1-2.3-2.3-2.1.7-.7c.5.3.9.4 1.3.7l1.3 1.3.9.9-2.1 2.3 1.4 1.2.9.9-2.1 2.3 1.4 1.2.9.9-2.1 2.3L116 30l.9.9-2.1 2.3 1.4 1.2.9.9-.7.7zm5.7-9.8l-2.1 2.3 1.4 1.2.4.4c-.1.5-.2.9-.3 1.4l-1.3 1.4.5.5c-.3.3-.5.7-.9.9l-1.5-1.3 2.1-2.3-2.3-2.1 2.1-2.3-2.3-2.1 2.1-2.3-2.3-2.1 1.3-1.4c.1.1.2.1.3.2.3.2.5.4.8.6l-.5.6L121 21l.4.4c.1.3.1.5.2.8l-1.8 2 1.4 1.2.9.8z"/><path class="st0" d="M166.4 24c.3-6.6 2.1-12.7 5.2-17.9-2.7-.2-5.4-.6-8.1-1.1l-12.7-2.5c-1-.2-2.1-.4-3.2-.4-10.3-.4-19.1 7.6-19.5 18-.4 10.3 7.6 19.1 17.9 19.5h.7l22.1.1h.1c-1.8-4.8-2.7-10.1-2.5-15.7zm-26.7-12.4l-.9.9-1.4 1.2 2.1 2.3-.9.9-1.4 1.2 2.1 2.3-.9.9-1.4 1.2 2.1 2.3-.9.9-1.4 1.2 2.1 2.3-.9.9-.9.8-.9-.9.9-.8-2.1-2.3 2.3-2.1-2.1-2.3 2.3-2.1-2.1-2.3 2.3-2.1-2.1-2.3 2.3-2.1-.7-.8.8-.8 1.7 1.6zm5.4-4.1l-.9.9-1.4 1.2 2.1 2.3-.9.9-1.4 1.2 2.1 2.3-.9.9-1.4 1.2 2.1 2.3-.9.9-1.4 1.2 2.1 2.3-.9.9-1.4 1.2 2.1 2.3-.9.9-1.4 1.2 2.1 2.3-.5.5c-.5-.1-1-.3-1.5-.4l.2-.2-2.1-2.3 2.3-2.1-2.1-2.3 2.3-2.1-2.1-2.3 2.3-2.1-2.1-2.3 2.3-2.1-2.1-2.3 2.3-2.1-2.1-2.3 2.1-2c.5-.2 1.1-.2 1.5-.2l.5.2zm5.3.2l-.9.9-1.4 1.2 2.1 2.3-.9.9-1.4 1.2 2.1 2.3-.9.9-1.4 1.2 2.1 2.3-.9.9-1.4 1.2 2.1 2.3-.9.9-1.4 1.2 2.1 2.3-.9.9-1.4 1.2 2.1 2.3-.6.6h-1.9l.5-.7-2.1-2.3 2.3-2.1-2.1-2.3 2.3-2.1-2.1-2.3 2.3-2.1-2.1-2.3 2.3-2.1-2.1-2.3 2.3-2.1-2.1-2.3 2.3-2.1-.4-.4c.5.1.9.1 1.3.2l.8.2.3.1zm3 2.3l2.1 2.3-.9.9-1.4 1.2 2.1 2.3-.9.9-1.4 1.2 2.1 2.3-.9.9-1.4 1.2 2.1 2.3-.9.9-1.4 1.2 2.1 2.3-.9.9-1.4 1.2 2.1 2.3-.4.4h-1.9l.3-.4-2.1-2.3 2.3-2.1-2.1-2.3 2.3-2.1-2.1-2.3 2.3-2.1-2.1-2.3 2.3-2.1-2.1-2.3 2.3-2.1-2.1-2.3 1.8-1.7.6.1v-.1l1.1.2-.3.3-1.2 1.2zm5.2.2l2.1 2.3-.9.9-1.4 1.2 2.1 2.3-.9.9-1.4 1.2 2.1 2.3-.9.9-1.4 1.2 2.1 2.3-.9.9-1.4 1.2 2.1 2.3-.9.9-1.4 1.2 2.1 2.3-.2.2h-1.9l.1-.3-2.1-2.3 2.3-2.1-2.1-2.3 2.3-2.1-2.1-2.3 2.3-2.1-2.1-2.3 2.3-2.1-2.1-2.3 2.3-2.1-2.1-2.3 1.2-1.1 1.5.3-.7.9zm96.4 3c-.8-2.9-2.9-5.3-5.6-6.6-8-3.8-16.9-6.2-26.3-6.6-1.8-.1-3.6-.1-5.3 0-6 .2-11.7 1.2-17.2 2.9-3.8 1.2-7.7 2-11.6 2.5l-1.2.2c-3.9.5-7.8.7-11.7.7l-1 1.8c-2.8 4.8-4.4 10.4-4.6 16.1-.2 4.9.6 9.6 2.2 14.1l.7 1.9c2.5.4 5 1 7.5 1.7 6.8 2 12.1 4.6 19.5 5 8.4.4 16.7-.5 24.5-2.4 9.2-2.3 17.8-6.1 25.6-11 2.2-1.4 3.9-3.6 4.6-6.2.5-1.8.8-3.7.9-5.7.1-3-.2-5.8-1-8.4zm-71.8 10.6c-.1 1.5-1.3 2.7-2.9 2.6-1.5-.1-2.7-1.3-2.6-2.9.1-1.5 1.4-2.7 2.9-2.6 1.4.1 2.6 1.4 2.6 2.9zm12.4-12l2.1 2.3-.9.9-1.4 1.2 2.1 2.3-.9.9-1.4 1.2 2.1 2.3-.9.9L195 25l2.1 2.3-.9.9-1.4 1.2 2.1 2.3-.9.9-1.4 1.2 2.1 2.3-.9.9-1.2 1.1c-.2-.4-.4-.8-.5-1.2l.8-.8-2-2.1c0-.1-.1-.2-.1-.2l2.2-2-2.1-2.3 2.3-2.1-2.1-2.3 2.3-2.1-2.1-2.3 2.3-2.1-2.1-2.3 2.3-2.1-2-2.2c.1-.1.1-.1.1-.2l1.2-1.1c.8-.2 1.7-.3 2.5-.6l-.7.7-1.3 1zm7.5-1.8l-.9.9-1.4 1.2 2.1 2.3-.9.9-1.4 1.2 2.1 2.3-.9.9-1.4 1.2 2.1 2.3-.9.9-1.4 1.2 2.1 2.3-.9.9-1.4 1.2 2.1 2.3-.9.9-1.4 1.2 2.1 2.3-.9.9-1.4 1.2 2.1 2.3-.3.3h-1.8l.4-.3-2.3-2.3 2.3-2.1-2.1-2.3 2.3-2.1-2.1-2.3 2.3-2.1-2.1-2.3 2.3-2.1-2.1-2.3 2.3-2.1-2.1-2.3 2.3-2.1-2-2.4 2.3-2.1-.7-.7c.5-.1.9-.2 1.4-.4l1.1 1.2zm3.1-2.1l2.1 2.3-.9.9-1.4 1.2 2.1 2.3-.9.9-1.4 1.2L208 19l-.9.9-1.4 1.2 2.1 2.3-.9.9-1.4 1.2 2.1 2.3-.9.9-1.4 1.2 2.1 2.3-.9.9-1.4 1.2 2.1 2.3-.9.9-1.4 1.2L207 41l-.1.1h-2v-.2l-2.1-2.3 2.3-2.1-2.1-2.3 2.3-2.1-2.1-2.3 2.3-2.1-2.1-2.3 2.3-2.1-2.1-2.3 2.3-2.1-2.1-2.3 2.3-2.1-2.1-2.3 2.3-2.1-1.7-2.1c.6-.2 1.3-.4 2-.5l-.4.4zm5.2.2l2.1 2.3-.9.9-1.4 1.2 2.1 2.3-.9.9-1.4 1.2 2.1 2.3-.9.9-1.4 1.2 2.1 2.3-.9.9-1.4 1.2 2.1 2.3-.9.9-1.4 1.2 2.1 2.3-.9.9-1.4 1.2 2.1 2.3-.9.9-1.4 1.2 1.7 1.8c-.5.1-1 .1-1.7.1l-1.9-2 2.3-2.1-2.1-2.3 2.3-2.1-2.1-2.3 2.3-2.1-2.1-2.3 2.3-2.1-2.1-2.3 2.3-2.1-2.1-2.3 2.3-2.1-2.1-2.3 2.3-2.1-1.9-2.3 1.5-1.3c.7-.1 1.5-.2 2.2-.3l-.5.5-1.5 1.2zm7.6-1.8l-.9.9-1.4 1.2 2.1 2.3-.9.9-1.4 1.2 2.1 2.3-.9.9-1.4 1.2 2.1 2.3-.9.9-1.4 1.2 2.1 2.3-.9.9-1.4 1.2 2.1 2.3-.9.9-1.4 1.2 2.1 2.3-.9.9-1.4 1.2 2.1 2.3-.9.9-1.4 1.3.9 1c-.5.1-1 .1-1.8.2l-1.2-1.3 2.3-2.1-2.1-2.3 2.3-2.1-2.1-2.3 2.3-2.1-2.1-2.3 2.3-2.1-2.1-2.3 2.3-2.1-2.1-2.3 2.3-2.1-2.1-2.3 2.3-2.1-2.1-2.3 2.3-2.1v-.1h1.7l.4.1zm5.2.2l-.9.9-1.4 1.2 2.1 2.3-.9.9-1.4 1.2 2.1 2.3-.9.9-1.4 1.2 2.1 2.3-.9.9-1.4 1.2 2.1 2.3-.9.9-1.4 1.2 2.1 2.3-.9.9-1.4 1.2 2.1 2.3-.9.9-1.4 1.2 2.1 2.3-.9.9-1.3 1.3c-.5.1-1 .2-1.7.4l-.4-.4 2.3-2.1-2.1-2.3L221 33l-2.1-2.3 2.3-2.1-2.1-2.3 2.3-2.1-2.1-2.3 2.3-2.1-2.1-2.3 2.3-2.1-2.1-2.3L222 11l-2.1-2.3 2.3-2.1-.3-.3h.6c.4 0 .8 0 1.2.1l.5.1zm5.3.3l-.9.8-1.4 1.2 2.1 2.3-.9.9-1.4 1.2 2.1 2.3-.9.9-1.4 1.2 2.1 2.3-.9.9-1.4 1.2 2.1 2.3-.9.9-1.4 1.2 2.1 2.3-.9.9-1.4 1.2 2.1 2.3-.9.9-1.4 1.2 2 2.2c-.9.3-1.7.5-2.8.8l.8-.8-2.1-2.3 2.3-2.1-2.1-2.3 2.3-2.1-2.1-2.3 2.3-2.1-2.1-2.3 2.3-2.1-2.1-2.3 2.3-2.1-2.1-2.3 2.3-2.1-2.1-2.3 2.3-2.1-.1-.1c.9.1 1.6.2 2.2.3zm3 2.2l2.1 2.3-.9.9-1.4 1.2 2.1 2.3-.9.9-1.4 1.2 2.1 2.3-.9.9-1.4 1.2 2.1 2.3-.9.9-1.4 1.2 2.1 2.3-.9.9-1.4 1.2 2.1 2.3-.9.9-1.4 1.2.6.7c-.5.2-.9.3-1.3.5l-1.3-1.2 2.3-2.1-2.1-2.3 2.3-2.1-2.1-2.3 2.3-2.1-2.1-2.3 2.3-2.1-2.1-2.3 2.3-2.1-2.1-2.3 2.3-2.1-2.1-2.3 1.8-1.7c.5.1 1 .2 1.5.4l-.2.2-1.1 1.1zm5.2.2l2.1 2.3-.9.9-1.4 1.2 2.1 2.3-.9.9-1.4 1.2 2.1 2.3-.9.9-1.4 1.2 2.1 2.3-.9.9-1.4 1.2 2.1 2.3-.9.9-1.4 1.2 1.9 2c-.9.4-1.7.8-2.8 1.2l1.1-1-2.1-2.3 2.3-2.1-2.1-2.3 2.3-2.1-2.1-2.3 2.3-2.1-2.1-2.3 2.3-2.1-2.1-2.3 2.3-2.1-2.1-2.3.9-.8c.5.1.9.3 1.4.4l-.4.5zm7.4 2.5l-.9.9-1.4 1.2 2.1 2.3-.9.9-1.4 1.2 2.1 2.3-.9.9-1.4 1.2 2.1 2.3-.9.9-1.4 1.2 2.1 2.3-.9.9-1.3 1.3c-.4.2-.8.4-1.3.7l-.7-.7 2.3-2.1-2.1-2.3 2.3-2.1-2.1-2.3 2.3-2.1-2.1-2.3 2.3-2.1-2.1-2.3 2.3-2.1-1.6-1.8c.9.3 1.8.7 2.7 1.1l.8.6zm5 9.1l-.9.8-1.4 1.2 1.8 2c-.1.3-.1.5-.2.8l-.4.4-1.4 1.2.5.6c-.3.2-.5.4-.8.6-.1 0-.2.1-.3.2l-1.3-1.4L248 25l-2.1-2.3 2.3-2.1-2.1-2.3 2.3-2.1-2.1-2.3 1.5-1.3.9.9-.5.5 1.3 1.4c.1.5.2.9.3 1.4l-.4.4-1.4 1.2 2.1 2.4z"/><path class="st1" d="M473.6 22.9c-.3 6.6-2.1 12.7-5.2 17.9 2.7.2 5.4.6 8.1 1.1l12.7 2.5c1 .2 2.1.4 3.2.4 10.3.4 19.1-7.6 19.5-18 .4-10.3-7.6-19.1-17.9-19.5h-.7l-22.1-.1h-.1c1.8 4.9 2.7 10.2 2.5 15.7zm26.7 12.4l.9-.9 1.4-1.2-2.1-2.3.9-.9 1.4-1.2-2.1-2.3.9-.9 1.4-1.2-2.1-2.3.9-.9 1.4-1.2-2.1-2.3.9-.9.9-.8.9.9-.9.8L505 20l-2.3 2.1 2.1 2.3-2.3 2.1 2.1 2.3-2.3 2.1 2.1 2.3-2.3 2.1.7.8-.8.8-1.7-1.6zm-5.4 4.1l.9-.9 1.4-1.2-2.1-2.3.9-.9 1.4-1.2-2.1-2.3.9-.9 1.4-1.2-2.1-2.3.9-.9 1.4-1.2-2.1-2.3.9-.9 1.4-1.2-2.1-2.3.9-.9 1.4-1.2-2.1-2.3.5-.5c.5.1 1 .3 1.5.4l-.2.2 2.1 2.3-2.3 2.1 2.1 2.3-2.3 2.1 2.1 2.3-2.3 2.1 2.1 2.3-2.3 2.1 2.1 2.3-2.3 2.1 2.1 2.3-2.1 2c-.5.2-1.1.2-1.5.2l-.5-.2zm-5.3-.2l.9-.9 1.4-1.2-2.1-2.3.9-.9 1.4-1.2-2.1-2.3.9-.9 1.4-1.2-2.1-2.3.9-.9 1.4-1.2-2.1-2.3.9-.9 1.4-1.2-2.1-2.3.9-.9 1.4-1.2-2.1-2.3.6-.6h1.9l-.5.7 2.1 2.3-2.3 2.1 2.1 2.3-2.3 2.1 2.1 2.3-2.3 2.1 2.1 2.3-2.3 2.1 2.1 2.3-2.3 2.1 2.1 2.3-2.3 2.1.4.4c-.5-.1-.9-.1-1.3-.2l-.8-.2-.3-.1zm-3-2.3l-2.1-2.3.9-.9 1.4-1.2-2.1-2.3.9-.9 1.4-1.2-2.1-2.3.9-.9 1.4-1.2-2.1-2.3.9-.9 1.4-1.2-2.1-2.3.9-.9 1.4-1.2-2.1-2.3.4-.4h1.9l-.3.4 2.1 2.3-2.3 2.1 2.1 2.3-2.3 2.1 2.1 2.3-2.3 2.1 2.1 2.3-2.3 2.1 2.1 2.3-2.3 2.1 2.1 2.3-1.8 1.7-.6-.1v.1l-1.1-.2.3-.3 1.2-1.2zm-5.2-.2l-2.1-2.3.9-.9 1.4-1.2-2.1-2.3.9-.9 1.4-1.2-2.1-2.3.9-.9 1.4-1.2-2.1-2.3.9-.9 1.4-1.2-2.1-2.3.9-.9 1.4-1.2-2.1-2.3.2-.2h1.9l-.1.3 2.1 2.3-2.3 2.1 2.1 2.3-2.3 2.1 2.1 2.3-2.3 2.1 2.1 2.3-2.3 2.1 2.1 2.3-2.3 2.1 2.1 2.3-1.2 1.1-1.5-.3.7-.9zm-96.4-3c.8 2.9 2.9 5.3 5.6 6.6 8 3.8 16.9 6.2 26.3 6.6 1.8.1 3.6.1 5.3 0 6-.2 11.7-1.2 17.2-2.9 3.8-1.2 7.7-2 11.6-2.5l1.2-.2c3.9-.5 7.8-.7 11.7-.7l1-1.8c2.8-4.8 4.4-10.4 4.6-16.1.2-4.9-.6-9.6-2.2-14.1l-.7-1.9c-2.5-.4-5-1-7.5-1.7-6.8-2-12.1-4.6-19.5-5-8.4-.4-16.7.5-24.5 2.4-9.2 2.3-17.8 6.1-25.6 11-2.2 1.4-3.9 3.6-4.6 6.2-.5 1.8-.8 3.7-.9 5.7-.1 3 .2 5.8 1 8.4zm71.8-10.6c.1-1.5 1.3-2.7 2.9-2.6 1.5.1 2.7 1.3 2.6 2.9-.1 1.5-1.4 2.7-2.9 2.6-1.4-.1-2.6-1.4-2.6-2.9zm-12.4 12l-2.1-2.3.9-.9 1.4-1.2-2.1-2.3.9-.9 1.4-1.2-2.1-2.3.9-.9 1.4-1.2-2.1-2.3.9-.9 1.4-1.2-2.1-2.3.9-.9 1.4-1.2-2.1-2.3.9-.9 1.2-1.1c.2.4.4.8.5 1.2l-.9 1 2 2.1c0 .1.1.2.1.2l-2.2 2 2.1 2.3-2.3 2.1 2.1 2.3-2.3 2.1 2.1 2.3-2.3 2.1 2.1 2.3-2.3 2.1 2 2.2c-.1.1-.1.1-.1.2l-1.2 1.1c-.8.2-1.7.3-2.5.6l.7-.7 1.4-1.2zm-7.5 1.9l.9-.9 1.4-1.2-2.1-2.3.9-.9 1.4-1.2-2.1-2.3.9-.9 1.4-1.2-2.1-2.3.9-.9 1.4-1.2-2.1-2.3.9-.9 1.4-1.2-2.1-2.3.9-.9 1.4-1.2-2.1-2.3.9-.9 1.4-1.2-2.1-2.3.3-.3h1.8l-.4.3 2.3 2.3-2.3 2.1 2.1 2.3-2.3 2.1 2.1 2.3-2.3 2.1 2.1 2.3-2.3 2.1 2.1 2.3-2.3 2.1 2.1 2.3-2.3 2.1 2 2.4-2.3 2.1.7.7c-.5.1-.9.2-1.4.4l-1.1-1.2zm-3.1 2.1l-2.1-2.3.9-.9 1.4-1.2-2.1-2.3.9-.9 1.4-1.2L432 28l.9-.9 1.4-1.2-2.1-2.3.9-.9 1.4-1.2-2.1-2.3.9-.9 1.4-1.2-2.1-2.3.9-.9 1.4-1.2-2.1-2.3.9-.9 1.4-1.2L433 6l.1-.1h2v.2l2.1 2.3-2.3 2.1 2.1 2.3-2.3 2.1 2.1 2.3-2.3 2.1 2.1 2.3-2.3 2.1 2.1 2.3-2.3 2.1 2.1 2.3-2.3 2.1 2.1 2.3-2.3 2.1 1.9 2.1c-.6.2-1.3.4-2 .5l.2-.4zm-5.2-.2l-2.1-2.3.9-.9 1.4-1.2-2.1-2.3.9-.9 1.4-1.2-2.1-2.3.9-.9 1.4-1.2-2.1-2.3.9-.9 1.4-1.2-2.1-2.3.9-.9 1.4-1.2-2.1-2.3.9-.9 1.4-1.2-2.1-2.3.9-.9 1.4-1.2-2-1.7c.5-.1 1-.1 1.7-.1l1.9 2-2.3 2.1 2.1 2.3-2.3 2.1 2.1 2.3-2.3 2.1 2.1 2.3-2.3 2.1 2.1 2.3-2.3 2.1 2.1 2.3-2.3 2.1 2.1 2.3-2.3 2.1 2.2 2.2-1.5 1.3c-.7.1-1.5.2-2.2.3l.5-.5 1.5-1.2zm-7.6 1.8l.9-.9 1.4-1.2-2.1-2.3.9-.9 1.4-1.2-2.1-2.3.9-.9 1.4-1.2-2.1-2.3.9-.9 1.4-1.2-2.1-2.3.9-.9 1.4-1.2-2.1-2.3.9-.9 1.4-1.2-2.1-2.3.9-.9 1.4-1.2-2.1-2.3.9-.9 1.4-1.3-.9-1c.5-.1 1-.1 1.8-.2l1.2 1.3-2.3 2.1 2.1 2.3-2.3 2.1 2.1 2.3-2.3 2.1 2.1 2.3-2.3 2.1 2.1 2.3-2.3 2.1 2.1 2.3-2.3 2.1 2.1 2.3-2.3 2.1 2.1 2.3-2.3 2.1v.1h-1.7l-.4-.1zm-5.2-.2l.9-.9 1.4-1.2-2.1-2.3.9-.9 1.4-1.2-2.1-2.3.9-.9 1.4-1.2-2.1-2.3.9-.9 1.4-1.2-2.1-2.3.9-.9 1.4-1.2-2.1-2.3.9-.9 1.4-1.2-2.1-2.3.9-.9 1.4-1.2-2.1-2.3.9-.9 1.3-1.3c.5-.1 1-.2 1.7-.4l.4.4-2.5 2.4 2.1 2.3-2.3 2.1 2.1 2.3-2.3 2.1 2.1 2.3-2.3 2.1 2.1 2.3-2.3 2.1 2.1 2.3-2.3 2.1 2.1 2.3-2.3 2.1 2.1 2.3-2.3 2.1.3.3h-.6c-.4 0-.8 0-1.2-.1l-.3-.4zm-5.3-.3l.9-.8 1.4-1.2-2.1-2.3.9-.9 1.4-1.2-2.1-2.3.9-.9 1.4-1.2-2.1-2.3.9-.9 1.4-1.2-2.1-2.3.9-.9 1.4-1.2-2.1-2.3.9-.9 1.4-1.2-2.1-2.3.9-.9 1.4-1.2-2-2.2c.9-.3 1.7-.5 2.8-.8l-.8.8 2.1 2.3-2.3 2.1 2.1 2.3-2.3 2.1 2.1 2.3-2.3 2.1 2.1 2.3-2.3 2.1 2.1 2.3-2.3 2.1 2.1 2.3-2.3 2.1 2.1 2.3-2.3 2.1.1.1c-.9-.1-1.6-.2-2.2-.3zm-3-2.3l-2.1-2.3.9-.9 1.4-1.2-2.1-2.3.9-.9 1.4-1.2-2.1-2.3.9-.9 1.4-1.2-2.1-2.3.9-.9 1.4-1.2-2.1-2.3.9-.9 1.4-1.2-2.1-2.3.9-.9 1.4-1.2-.6-.7c.5-.2.9-.3 1.3-.5l1.3 1.2-2.3 2.1 2.1 2.3-2.3 2.1 2.1 2.3-2.3 2.1 2.1 2.3-2.3 2.1 2.1 2.3-2.3 2.1 2.1 2.3-2.3 2.1 2.1 2.3-1.8 1.7c-.5-.1-1-.2-1.5-.4l.2-.2 1.1-1.1zm-5.2-.2l-2.1-2.3.9-.9 1.4-1.2-2.1-2.3.9-.9 1.4-1.2-2.1-2.3.9-.9 1.4-1.2-2.1-2.3.9-.9 1.4-1.2-2.1-2.3.9-.9 1.4-1.2-1.9-2c.9-.4 1.7-.8 2.8-1.2l-1.1 1 2.1 2.3-2.3 2.1 2.1 2.3-2.3 2.1 2.1 2.3-2.3 2.1 2.1 2.3-2.3 2.1 2.1 2.3-2.3 2.1 2.1 2.3-.9.8c-.5-.1-.9-.3-1.4-.4l.4-.5zm-7.4-2.5l.9-.9 1.4-1.2-2.1-2.3.9-.8 1.4-1.2-2.1-2.3.9-.9 1.4-1.2-2.1-2.3.9-.9 1.4-1.2-2.1-2.3.9-.9 1.3-1.3c.4-.2.8-.4 1.3-.7l.7.7-2.3 2.1 2.1 2.3-2.3 2.1 2.1 2.3-2.3 2.1 2.1 2.3-2.3 2.1 2.1 2.3-2.3 2.1 1.6 1.8c-.9-.3-1.8-.7-2.7-1.1l-.8-.7zm-5-9l.9-.8 1.4-1.2-1.8-2c.1-.3.1-.5.2-.8l.4-.4 1.4-1.2-.5-.6c.3-.2.5-.4.8-.6.1 0 .2-.1.3-.2l1.3 1.4-2.3 2.1 2.1 2.3-2.3 2.1 2.1 2.3-2.3 2.1 2.1 2.3-1.5 1.3-.9-.9.5-.5-1.3-1.4c-.1-.5-.2-.9-.3-1.4l.4-.4 1.4-1.2-2.1-2.3z"/><path class="st1" d="M343 39.7h.1l22.1-.1h.7c10.3-.4 18.4-9.2 17.9-19.5-.4-10.3-9.2-18.4-19.5-18-1.1 0-2.2.2-3.2.4L348.5 5c-2.7.5-5.4.9-8.1 1.1 3 5.2 4.9 11.3 5.2 17.9.2 5.6-.7 10.9-2.6 15.7zM373.8 10c.2.3.5.5.8.8l-.7.8 2.3 2.1-2.1 2.3 2.3 2.1-2.1 2.3 2.3 2.1-2.1 2.3 2.3 2.1-2.1 2.3.9.8-.9.9-.9-.8-.9-.9 2.1-2.3-1.4-1.2-.9-.9 2.1-2.3-1.4-1.2-.9-.9 2.1-2.3-1.4-1.2-.9-.9 2.1-2.3-1.4-1.2-.9-.9 1.7-1.6zm-6.7-2.8c.4 0 .9.1 1.5.2l2.1 2-2.1 2.3 2.3 2.1-2.1 2.3 2.3 2.1-2.1 2.3 2.3 2.1-2.1 2.3 2.3 2.1-2.1 2.3 2.3 2.1-2.1 2.3.2.2c-.5.2-1 .3-1.5.4l-.5-.5 2.1-2.3-1.4-1.2-.9-.9 2.1-2.3-1.4-1.2-.9-.9 2.1-2.3-1.4-1.2-.9-.9 2.1-2.3-1.4-1.2-.9-.9 2.1-2.3-1.4-1.2-.9-.9 2.1-2.3-1.4-1.2-.9-.9.5-.2zm-5.4.4l.8-.2c.4-.1.9-.2 1.3-.2l-.4.4 2.3 2.1-2.1 2.3 2.3 2.1-2.1 2.3 2.3 2.1-2.1 2.3 2.3 2.1-2.1 2.3 2.3 2.1-2.1 2.3 2.3 2.1-2.1 2.3.5.7h-1.9l-.6-.6 2.1-2.3-1.4-1.2-.9-.9 2.1-2.3-1.4-1.2-.9-.9 2.1-2.3-1.4-1.2-.9-.9 2.1-2.3-1.4-1.2-.9-.9 2.1-2.3-1.4-1.2-.9-.9 2.1-2.3-1.4-1.2-.9-.9.3-.1zm-4.4 1.2l-.3-.3 1.1-.2v.1l.6-.1 1.8 1.7-2.1 2.3 2.3 2.1-2.1 2.3 2.3 2.1-2.1 2.3 2.3 2.1-2.1 2.3 2.3 2.1-2.1 2.3 2.3 2.1-2.1 2.3.3.4h-1.9l-.4-.4 2.1-2.3-1.4-1.2-.9-.9 2.1-2.3-1.4-1.2-.9-.9 2.1-2.3-1.4-1.2-.9-.9 2.1-2.3-1.4-1.2-.9-.9 2.1-2.3-1.4-1.2-.9-.9 2.1-2.3-1.2-1.2zm-4.9.5l1.5-.3 1.2 1.1-2.1 2.3 2.3 2.1-2.1 2.3 2.3 2.1-2.1 2.3 2.3 2.1-2.1 2.3 2.3 2.1-2.1 2.3 2.3 2.1-2.1 2.3.1.3h-1.9l-.2-.2 2.1-2.3-1.4-1.2-.9-.9 2.1-2.3-1.4-1.2-.9-.9 2.1-2.3-1.4-1.2-.9-.9 2.1-2.3-1.4-1.2-.9-.9 2.1-2.3-1.4-1.2-.9-.9 2.1-2.3-.7-.9zM256 21.5c.1 2 .4 3.9.9 5.7.7 2.6 2.4 4.7 4.6 6.2 7.8 5 16.4 8.8 25.6 11 7.8 1.9 16 2.8 24.5 2.4 7.4-.3 12.7-2.9 19.5-5 2.4-.7 5-1.3 7.5-1.7l.7-1.9c1.6-4.5 2.4-9.2 2.2-14.1-.3-5.7-1.8-11.3-4.6-16.1l-1-1.8c-3.9.1-7.8-.1-11.7-.7l-1.2-.1c-3.9-.5-7.8-1.4-11.6-2.5-5.5-1.7-11.2-2.7-17.2-2.9-1.8-.1-3.5 0-5.3 0-9.4.4-18.3 2.7-26.3 6.6-2.7 1.3-4.7 3.7-5.6 6.6-.8 2.6-1.1 5.4-1 8.3zm75.5-.5c1.5 0 2.8 1.1 2.9 2.6.1 1.5-1.1 2.8-2.6 2.9-1.5.1-2.8-1.1-2.9-2.6-.1-1.6 1.1-2.9 2.6-2.9zm-16.4-10.4l-.7-.6c.8.2 1.7.4 2.5.6l1.2 1.1c0 .1 0 .1.1.2l-2 2.2 2.3 2.1-2.1 2.3 2.3 2.1-2.1 2.3 2.3 2.1-2.1 2.3 2.3 2.1-2.1 2.3 2.2 2c0 .1 0 .1-.1.2l-2 2.1.8.8c-.2.4-.3.8-.5 1.2l-1.2-1.1-.9-.9 2.1-2.3-1.4-1.2-.9-.9 2.1-2.3-1.4-1.2-.9-.9 2.1-2.3-1.4-1.2-.9-.9 2.1-2.3-1.4-1.2-.9-.9 2.1-2.3-1.4-1.2-.9-.9 2.1-2.3-1.3-1.1zM310 8.8c.5.1.9.3 1.4.4l-.7.7L313 12l-2.1 2.3 2.3 2.1-2.1 2.3 2.3 2.1-2.1 2.3 2.3 2.1-2.1 2.3 2.3 2.1-2.1 2.3L314 34l-2.1 2.3 2.3 2.1-2.3 2.3.4.3h-1.8l-.3-.3 2.1-2.3-1.4-1.2-.9-.9 2.1-2.3-1.4-1.2-.9-.9 2.1-2.3-1.4-1.2-.9-.9 2.1-2.3-1.4-1.2-.9-.9 2.1-2.3-1.4-1.2-.9-.9 2.1-2.3-1.4-1.2-.9-.9 2.1-2.3-1.4-1.2-.9-.9 1.2-1.1zm-4.6-1.3c.7.1 1.3.3 2 .5l-1.9 2.1 2.3 2.1-2.1 2.3 2.3 2.1-2.1 2.3 2.3 2.1-2.1 2.3 2.3 2.1-2.1 2.3 2.3 2.1-2.1 2.3 2.3 2.1-2.1 2.3 2.3 2.1-2.1 2.3v.2h-2l-.1-.1 2.1-2.3-1.4-1.2-.9-.9 2.1-2.3-1.4-1.2-.9-.9 2.1-2.3-1.4-1.2-.9-.9 2.1-2.3-1.4-1.2-.9-.9 2.1-2.3-1.4-1.2-.7-.9 2.1-2.3-1.4-1.2-.9-.9 2.1-2.3-1.4-1.2-.9-.9 2.1-2.3-.3-.4zm-6.2-.6l-.5-.4c.7.1 1.5.2 2.2.3l1.5 1.3-2.2 2.2 2.3 2.1-2.1 2.3 2.3 2.1-2.1 2.3 2.3 2.1-2.1 2.3 2.3 2.1-2.1 2.3 2.3 2.1-2.1 2.3 2.3 2.1-2.1 2.3 2.3 2.1-1.9 2c-.6 0-1.1-.1-1.7-.1l1.7-1.8-1.4-1.2-.9-.9 2.1-2.3-1.4-1.2-.9-.9 2.1-2.3-1.4-1.2-.9-.9 2.1-2.3-1.4-1.2-.9-.9 2.1-2.3-1.4-1.2-.9-.9 2.1-2.3-1.4-1.2-.9-.9 2.1-2.3-1.4-1.2-.9-.9 2.1-2.3-1.2-1.2zm-6-.9h1.7v.1l2.3 2.1-2.1 2.3 2.3 2.1-2.1 2.3 2.3 2.1-2.1 2.3 2.3 2.1-2.1 2.3 2.3 2.1-2.1 2.3 2.3 2.1-2.1 2.3 2.3 2.1-2.1 2.3 2.3 2.1-1.2 1.3c-.8-.1-1.3-.1-1.8-.2l.9-1-1.4-1.3-.9-.9 2.1-2.3-1.4-1.2-.9-.9 2.1-2.3-1.4-1.2-.9-.9 2.1-2.3-1.4-1.2-.9-.9 2.1-2.3-1.4-1.2-.9-.9 2.1-2.3-1.4-1.2-.9-.9 2.1-2.3-1.4-1.2-.9-.9 2.1-2.3-1.4-1.2-.7-.7.2-.3zm-5.1.2c.4 0 .8-.1 1.2-.1h.6l-.3.3 2.3 2.1-2.1 2.3 2.3 2.1-2.1 2.3 2.3 2.1-2.1 2.3 2.3 2.1-2.1 2.3 2.3 2.1-2.1 2.3 2.3 2.1-2.1 2.3 2.3 2.1-2.1 2.3 2.3 2.1-.4.4c-.7-.2-1.2-.3-1.7-.4l-1.3-1.3-.9-.9 2.1-2.3-1.4-1.2-.9-.9 2.1-2.3-1.4-1.2-.9-.9 2.1-2.3-1.4-1.2-.9-.9 2.1-2.3-1.4-1.2-.9-.9 2.1-2.3-1.4-1.2-.9-.9 2.1-2.3-1.4-1.2-.9-.9 2.1-2.3-1.4-1.2-.9-.9.5-.1zm-3.7.3l-.1.1 2.3 2.1-2.1 2.3 2.3 2.1-2.1 2.3 2.3 2.1-2.1 2.3 2.3 2.1-2.1 2.3 2.3 2.1-2.1 2.3 2.3 2.1-2.1 2.3 2.3 2.1-2.1 2.3.8.8c-1.1-.3-1.9-.6-2.8-.8l2-2.2-1.4-1.2-.9-.9 2.1-2.3-1.4-1.2-.9-.9 2.1-2.3-1.4-1.2-.9-.9 2.1-2.3-1.4-1.2-.9-.9 2.1-2.3-1.4-1.2-.9-.9 2.1-2.3-1.4-1.2-.9-.9 2.1-2.3-1.4-1.2-.9-.8c.9-.1 1.6-.2 2.2-.3zm-6.2 1.3l-.2-.2c.5-.1 1-.2 1.5-.4l1.8 1.7-2.1 2.3 2.3 2.1-2.1 2.3 2.3 2.1-2.1 2.3 2.3 2.1-2.1 2.3 2.3 2.1-2.1 2.3 2.3 2.1-2.1 2.3 2.3 2.1-1.3 1.2c-.4-.2-.9-.3-1.3-.5l.6-.7-1.4-1.2-.9-.9 2.1-2.3-1.4-1.2-.9-.9 2.1-2.3-1.4-1.2-.9-.9 2.1-2.3-1.4-1.2-.9-.9 2.1-2.3-1.4-1.2-.9-.9 2.1-2.3-1.4-1.2-.9-.9 2.1-2.3-1.1-1.1zm-4.4.9c.5-.1 1-.3 1.4-.4l.9.8-2.1 2.3 2.3 2.1-2.1 2.3 2.3 2.1-2.1 2.3 2.3 2.1-2.1 2.3 2.3 2.1-2.1 2.3 2.3 2.1-2.1 2.3 1.1 1c-1.1-.4-1.9-.8-2.8-1.2l1.9-2-1.4-1.2-.9-.9 2.1-2.3-1.4-1.2-.9-.9 2.1-2.3-1.4-1.2-.9-.9 2.1-2.3-1.4-1.2-.9-.9 2.1-2.3-1.4-1.2-.9-.9 2.1-2.3-.4-.5zm-6.2 2.3c.9-.4 1.8-.8 2.7-1.1l-1.6 1.8 2.3 2.1-2.1 2.3 2.3 2.1-2.1 2.3 2.3 2.1-2.1 2.3 2.3 2.1-2.1 2.3 2.3 2.1-.7.7c-.5-.3-.9-.4-1.3-.7l-1.3-1.3-.9-.9 2.1-2.3-1.4-1.2-.9-.9 2.1-2.3-1.4-1.2-.9-.9 2.1-2.3-1.4-1.2-.9-.9 2.1-2.3-1.4-1.2-.9-.9.8-.6zm-5.7 9.7l2.1-2.3-1.4-1.2-.4-.4c.1-.5.2-.9.3-1.4l1.3-1.4-.5-.5c.3-.3.5-.7.9-.9l1.5 1.3-2.1 2.3 2.3 2.1-2.1 2.3 2.3 2.1L264 25l2.3 2.1-1.3 1.4c-.1-.1-.2-.1-.3-.2-.3-.2-.5-.4-.8-.6l.5-.6-1.4-1.2-.4-.4c-.1-.3-.1-.5-.2-.8l1.8-2-1.4-1.2-.9-.8z"/></svg>