<svg version="1.1" xmlns="http://www.w3.org/2000/svg" x="0" y="0" viewBox="0 0 512 512" xml:space="preserve"><style type="text/css">.st1{fill:#cc584c}.st3{fill:#36434f}</style><path d="M449 0H0v512h512V0h-63zm-8 8v55h-55V8h55zM252 260v55h-55v-55h55zm-55-8v-55h55v55h-55zm63 8h55v55h-55v-55zm0-8v-55h55v55h-55zm0-63v-55h55v55h-55zm-8 0h-55v-55h55v55zm-63 0h-55v-55h55v55zm0 8v55h-55v-55h55zm0 63v55h-55v-55h55zm0 63v55h-55v-55h55zm8 0h55v55h-55v-55zm63 0h55v55h-55v-55zm63 0h55v55h-55v-55zm0-8v-55h55v55h-55zm0-63v-55h55v55h-55zm0-63v-55h55v55h-55zm0-63V71h55v55h-55zm-8 0h-55V71h55v55zm-63 0h-55V71h55v55zm-63 0h-55V71h55v55zm-63 0H71V71h55v55zm0 8v55H71v-55h55zm0 63v55H71v-55h55zm0 63v55H71v-55h55zm0 63v55H71v-55h55zm0 63v55H71v-55h55zm8 0h55v55h-55v-55zm63 0h55v55h-55v-55zm63 0h55v55h-55v-55zm63 0h55v55h-55v-55zm63 0h55v55h-55v-55zm0-8v-55h55v55h-55zm0-63v-55h55v55h-55zm0-63v-55h55v55h-55zm0-63v-55h55v55h-55zm0-63V71h55v55h-55zM378 8v55h-55V8h55zm-63 0v55h-55V8h55zm-63 0v55h-55V8h55zm-63 0v55h-55V8h55zm-63 0v55H71V8h55zM8 8h55v55H8V8zm0 63h55v55H8V71zm0 63h55v55H8v-55zm0 63h55v55H8v-55zm0 63h55v55H8v-55zm0 63h55v55H8v-55zm0 63h55v55H8v-55zm0 118v-55h55v55H8zm63 0v-55h55v55H71zm63 0v-55h55v55h-55zm63 0v-55h55v55h-55zm63 0v-55h55v55h-55zm63 0v-55h55v55h-55zm63 0v-55h55v55h-55zm118 0h-55v-55h55v55zm0-63h-55v-55h55v55zm0-63h-55v-55h55v55zm0-63h-55v-55h55v55zm0-63h-55v-55h55v55zm0-63h-55v-55h55v55zm0-63h-55V71h55v55zm-55-63V8h55v55h-55z" fill="#ddd"/><path class="st1" d="M287.5 86.5c6.6 0 12 5.4 12 12s-5.4 12-12 12-12-5.4-12-12 5.4-12 12-12m0-8c-11 0-20 9-20 20s9 20 20 20 20-9 20-20-9-20-20-20zm126 8c6.6 0 12 5.4 12 12s-5.4 12-12 12-12-5.4-12-12 5.4-12 12-12m0-8c-11 0-20 9-20 20s9 20 20 20 20-9 20-20-9-20-20-20zm-378 8c6.6 0 12 5.4 12 12s-5.4 12-12 12-12-5.4-12-12 5.4-12 12-12m0-8c-11 0-20 9-20 20s9 20 20 20 20-9 20-20-9-20-20-20zm126 8c6.6 0 12 5.4 12 12s-5.4 12-12 12-12-5.4-12-12 5.4-12 12-12m0-8c-11 0-20 9-20 20s9 20 20 20 20-9 20-20-9-20-20-20zm-63-55c6.6 0 12 5.4 12 12s-5.4 12-12 12-12-5.4-12-12 5.4-12 12-12m0-8c-11 0-20 9-20 20s9 20 20 20 20-9 20-20-9-20-20-20zm252 8c6.6 0 12 5.4 12 12s-5.4 12-12 12-12-5.4-12-12 5.4-12 12-12m0-8c-11 0-20 9-20 20s9 20 20 20 20-9 20-20-9-20-20-20zm-126 8c6.6 0 12 5.4 12 12s-5.4 12-12 12-12-5.4-12-12 5.4-12 12-12m0-8c-11 0-20 9-20 20s9 20 20 20 20-9 20-20-9-20-20-20zm252 8c6.6 0 12 5.4 12 12s-5.4 12-12 12-12-5.4-12-12 5.4-12 12-12m0-8c-11 0-20 9-20 20s9 20 20 20 20-9 20-20-9-20-20-20z"/><path d="M235.8 81.5l-11.3 11.3-11.3-11.3-5.7 5.7 11.3 11.3-11.3 11.3 5.7 5.7 11.3-11.3 11.3 11.3 5.7-5.7-11.3-11.3 11.3-11.3-5.7-5.7zm-189-63L35.5 29.8 24.2 18.5l-5.7 5.7 11.3 11.3-11.3 11.3 5.7 5.7 11.3-11.3 11.3 11.3 5.7-5.7-11.3-11.3 11.3-11.3-5.7-5.7zm126 0l-11.3 11.3-11.3-11.3-5.7 5.7 11.3 11.3-11.3 11.3 5.7 5.7 11.3-11.3 11.3 11.3 5.7-5.7-11.3-11.3 11.3-11.3-5.7-5.7zm126 0l-11.3 11.3-11.3-11.3-5.7 5.7 11.3 11.3-11.3 11.3 5.7 5.7 11.3-11.3 11.3 11.3 5.7-5.7-11.3-11.3 11.3-11.3-5.7-5.7zm126 0l-11.3 11.3-11.3-11.3-5.7 5.7 11.3 11.3-11.3 11.3 5.7 5.7 11.3-11.3 11.3 11.3 5.7-5.7-11.3-11.3 11.3-11.3-5.7-5.7zm-315 63L98.5 92.8 87.2 81.5l-5.7 5.7 11.3 11.3-11.3 11.3 5.7 5.7 11.3-11.3 11.3 11.3 5.7-5.7-11.3-11.3 11.3-11.3-5.7-5.7zm252 0l-11.3 11.3-11.3-11.3-5.7 5.7 11.3 11.3-11.3 11.3 5.7 5.7 11.3-11.3 11.3 11.3 5.7-5.7-11.3-11.3 11.3-11.3-5.7-5.7zm126 0l-11.3 11.3-11.3-11.3-5.7 5.7 11.3 11.3-11.3 11.3 5.7 5.7 11.3-11.3 11.3 11.3 5.7-5.7-11.3-11.3 11.3-11.3-5.7-5.7zm-441 63l-11.3 11.3-11.3-11.3-5.7 5.7 11.3 11.3-11.3 11.3 5.7 5.7 11.3-11.3 11.3 11.3 5.7-5.7-11.3-11.3 11.3-11.3-5.7-5.7zm126 0l-11.3 11.3-11.3-11.3-5.7 5.7 11.3 11.3-11.3 11.3 5.7 5.7 11.3-11.3 11.3 11.3 5.7-5.7-11.3-11.3 11.3-11.3-5.7-5.7zm126 0l-11.3 11.3-11.3-11.3-5.7 5.7 11.3 11.3-11.3 11.3 5.7 5.7 11.3-11.3 11.3 11.3 5.7-5.7-11.3-11.3 11.3-11.3-5.7-5.7zm126 0l-11.3 11.3-11.3-11.3-5.7 5.7 11.3 11.3-11.3 11.3 5.7 5.7 11.3-11.3 11.3 11.3 5.7-5.7-11.3-11.3 11.3-11.3-5.7-5.7zm-315 63l-11.3 11.3-11.3-11.3-5.7 5.7 11.3 11.3-11.3 11.3 5.7 5.7 11.3-11.3 11.3 11.3 5.7-5.7-11.3-11.3 11.3-11.3-5.7-5.7zm252 0l-11.3 11.3-11.3-11.3-5.7 5.7 11.3 11.3-11.3 11.3 5.7 5.7 11.3-11.3 11.3 11.3 5.7-5.7-11.3-11.3 11.3-11.3-5.7-5.7zm126 0l-11.3 11.3-11.3-11.3-5.7 5.7 11.3 11.3-11.3 11.3 5.7 5.7 11.3-11.3 11.3 11.3 5.7-5.7-11.3-11.3 11.3-11.3-5.7-5.7zm-441 63l-11.3 11.3-11.3-11.3-5.7 5.7 11.3 11.3-11.3 11.3 5.7 5.7 11.3-11.3 11.3 11.3 5.7-5.7-11.3-11.3 11.3-11.3-5.7-5.7zm126 0l-11.3 11.3-11.3-11.3-5.7 5.7 11.3 11.3-11.3 11.3 5.7 5.7 11.3-11.3 11.3 11.3 5.7-5.7-11.3-11.3 11.3-11.3-5.7-5.7zm126 0l-11.3 11.3-11.3-11.3-5.7 5.7 11.3 11.3-11.3 11.3 5.7 5.7 11.3-11.3 11.3 11.3 5.7-5.7-11.3-11.3 11.3-11.3-5.7-5.7zm126 0l-11.3 11.3-11.3-11.3-5.7 5.7 11.3 11.3-11.3 11.3 5.7 5.7 11.3-11.3 11.3 11.3 5.7-5.7-11.3-11.3 11.3-11.3-5.7-5.7zm-315 63l-11.3 11.3-11.3-11.3-5.7 5.7 11.3 11.3-11.3 11.3 5.7 5.7 11.3-11.3 11.3 11.3 5.7-5.7-11.3-11.3 11.3-11.3-5.7-5.7zm252 0l-11.3 11.3-11.3-11.3-5.7 5.7 11.3 11.3-11.3 11.3 5.7 5.7 11.3-11.3 11.3 11.3 5.7-5.7-11.3-11.3 11.3-11.3-5.7-5.7zm126 0l-11.3 11.3-11.3-11.3-5.7 5.7 11.3 11.3-11.3 11.3 5.7 5.7 11.3-11.3 11.3 11.3 5.7-5.7-11.3-11.3 11.3-11.3-5.7-5.7zm-441 63l-11.3 11.3-11.3-11.3-5.7 5.7 11.3 11.3-11.3 11.3 5.7 5.7 11.3-11.3 11.3 11.3 5.7-5.7-11.3-11.3 11.3-11.3-5.7-5.7zm126 0l-11.3 11.3-11.3-11.3-5.7 5.7 11.3 11.3-11.3 11.3 5.7 5.7 11.3-11.3 11.3 11.3 5.7-5.7-11.3-11.3 11.3-11.3-5.7-5.7zm126 0l-11.3 11.3-11.3-11.3-5.7 5.7 11.3 11.3-11.3 11.3 5.7 5.7 11.3-11.3 11.3 11.3 5.7-5.7-11.3-11.3 11.3-11.3-5.7-5.7zm126 0l-11.3 11.3-11.3-11.3-5.7 5.7 11.3 11.3-11.3 11.3 5.7 5.7 11.3-11.3 11.3 11.3 5.7-5.7-11.3-11.3 11.3-11.3-5.7-5.7zm-315 63l-11.3 11.3-11.3-11.3-5.7 5.7 11.3 11.3-11.3 11.3 5.7 5.7 11.3-11.3 11.3 11.3 5.7-5.7-11.3-11.3 11.3-11.3-5.7-5.7zm252 0l-11.3 11.3-11.3-11.3-5.7 5.7 11.3 11.3-11.3 11.3 5.7 5.7 11.3-11.3 11.3 11.3 5.7-5.7-11.3-11.3 11.3-11.3-5.7-5.7zm126 0l-11.3 11.3-11.3-11.3-5.7 5.7 11.3 11.3-11.3 11.3 5.7 5.7 11.3-11.3 11.3 11.3 5.7-5.7-11.3-11.3 11.3-11.3-5.7-5.7zm-252-252l-11.3 11.3-11.3-11.3-5.7 5.7 11.3 11.3-11.3 11.3 5.7 5.7 11.3-11.3 11.3 11.3 5.7-5.7-11.3-11.3 11.3-11.3-5.7-5.7zm0 252l-11.3 11.3-11.3-11.3-5.7 5.7 11.3 11.3-11.3 11.3 5.7 5.7 11.3-11.3 11.3 11.3 5.7-5.7-11.3-11.3 11.3-11.3-5.7-5.7zm0-126l-11.3 11.3-11.3-11.3-5.7 5.7 11.3 11.3-11.3 11.3 5.7 5.7 11.3-11.3 11.3 11.3 5.7-5.7-11.3-11.3 11.3-11.3-5.7-5.7z" fill="#2e86b7"/><path class="st1" d="M287.5 212.5c6.6 0 12 5.4 12 12s-5.4 12-12 12-12-5.4-12-12 5.4-12 12-12m0-8c-11 0-20 9-20 20s9 20 20 20 20-9 20-20-9-20-20-20zm126 8c6.6 0 12 5.4 12 12s-5.4 12-12 12-12-5.4-12-12 5.4-12 12-12m0-8c-11 0-20 9-20 20s9 20 20 20 20-9 20-20-9-20-20-20zm-378 8c6.6 0 12 5.4 12 12s-5.4 12-12 12-12-5.4-12-12 5.4-12 12-12m0-8c-11 0-20 9-20 20s9 20 20 20 20-9 20-20-9-20-20-20zm126 8c6.6 0 12 5.4 12 12s-5.4 12-12 12-12-5.4-12-12 5.4-12 12-12m0-8c-11 0-20 9-20 20s9 20 20 20 20-9 20-20-9-20-20-20zm-63-55c6.6 0 12 5.4 12 12s-5.4 12-12 12-12-5.4-12-12 5.4-12 12-12m0-8c-11 0-20 9-20 20s9 20 20 20 20-9 20-20-9-20-20-20zm252 8c6.6 0 12 5.4 12 12s-5.4 12-12 12-12-5.4-12-12 5.4-12 12-12m0-8c-11 0-20 9-20 20s9 20 20 20 20-9 20-20-9-20-20-20zm-126 8c6.6 0 12 5.4 12 12s-5.4 12-12 12-12-5.4-12-12 5.4-12 12-12m0-8c-11 0-20 9-20 20s9 20 20 20 20-9 20-20-9-20-20-20zm252 8c6.6 0 12 5.4 12 12s-5.4 12-12 12-12-5.4-12-12 5.4-12 12-12m0-8c-11 0-20 9-20 20s9 20 20 20 20-9 20-20-9-20-20-20zm-189 197c6.6 0 12 5.4 12 12s-5.4 12-12 12-12-5.4-12-12 5.4-12 12-12m0-8c-11 0-20 9-20 20s9 20 20 20 20-9 20-20-9-20-20-20zm126 8c6.6 0 12 5.4 12 12s-5.4 12-12 12-12-5.4-12-12 5.4-12 12-12m0-8c-11 0-20 9-20 20s9 20 20 20 20-9 20-20-9-20-20-20zm-378 8c6.6 0 12 5.4 12 12s-5.4 12-12 12-12-5.4-12-12 5.4-12 12-12m0-8c-11 0-20 9-20 20s9 20 20 20 20-9 20-20-9-20-20-20zm126 8c6.6 0 12 5.4 12 12s-5.4 12-12 12-12-5.4-12-12 5.4-12 12-12m0-8c-11 0-20 9-20 20s9 20 20 20 20-9 20-20-9-20-20-20zm-63-55c6.6 0 12 5.4 12 12s-5.4 12-12 12-12-5.4-12-12 5.4-12 12-12m0-8c-11 0-20 9-20 20s9 20 20 20 20-9 20-20-9-20-20-20zm252 8c6.6 0 12 5.4 12 12s-5.4 12-12 12-12-5.4-12-12 5.4-12 12-12m0-8c-11 0-20 9-20 20s9 20 20 20 20-9 20-20-9-20-20-20zm-126 8c6.6 0 12 5.4 12 12s-5.4 12-12 12-12-5.4-12-12 5.4-12 12-12m0-8c-11 0-20 9-20 20s9 20 20 20 20-9 20-20-9-20-20-20zm252 8c6.6 0 12 5.4 12 12s-5.4 12-12 12-12-5.4-12-12 5.4-12 12-12m0-8c-11 0-20 9-20 20s9 20 20 20 20-9 20-20-9-20-20-20zm-189 197c6.6 0 12 5.4 12 12s-5.4 12-12 12-12-5.4-12-12 5.4-12 12-12m0-8c-11 0-20 9-20 20s9 20 20 20 20-9 20-20-9-20-20-20zm126 8c6.6 0 12 5.4 12 12s-5.4 12-12 12-12-5.4-12-12 5.4-12 12-12m0-8c-11 0-20 9-20 20s9 20 20 20 20-9 20-20-9-20-20-20zm-378 8c6.6 0 12 5.4 12 12s-5.4 12-12 12-12-5.4-12-12 5.4-12 12-12m0-8c-11 0-20 9-20 20s9 20 20 20 20-9 20-20-9-20-20-20zm126 8c6.6 0 12 5.4 12 12s-5.4 12-12 12-12-5.4-12-12 5.4-12 12-12m0-8c-11 0-20 9-20 20s9 20 20 20 20-9 20-20-9-20-20-20zm-63-55c6.6 0 12 5.4 12 12s-5.4 12-12 12-12-5.4-12-12 5.4-12 12-12m0-8c-11 0-20 9-20 20s9 20 20 20 20-9 20-20-9-20-20-20zm252 8c6.6 0 12 5.4 12 12s-5.4 12-12 12-12-5.4-12-12 5.4-12 12-12m0-8c-11 0-20 9-20 20s9 20 20 20 20-9 20-20-9-20-20-20zm-126 8c6.6 0 12 5.4 12 12s-5.4 12-12 12-12-5.4-12-12 5.4-12 12-12m0-8c-11 0-20 9-20 20s9 20 20 20 20-9 20-20-9-20-20-20zm252 8c6.6 0 12 5.4 12 12s-5.4 12-12 12-12-5.4-12-12 5.4-12 12-12m0-8c-11 0-20 9-20 20s9 20 20 20 20-9 20-20-9-20-20-20z"/><path class="st3" d="M476.5 165.5c1 0 2-.4 2.8-1.2 1.6-1.6 1.6-4.1 0-5.7l-126-126c-1.6-1.6-4.1-1.6-5.7 0-1.6 1.6-1.6 4.1 0 5.7l126 126c.9.8 1.9 1.2 2.9 1.2zm0 126c1 0 2-.4 2.8-1.2 1.6-1.6 1.6-4.1 0-5.7l-252-252c-1.6-1.6-4.1-1.6-5.7 0-1.6 1.6-1.6 4.1 0 5.7l252 252c.9.8 1.9 1.2 2.9 1.2zm0 126c1 0 2-.4 2.8-1.2 1.6-1.6 1.6-4.1 0-5.7l-378-378c-1.6-1.6-4.1-1.6-5.7 0-1.6 1.6-1.6 4.1 0 5.7l378 378c.9.8 1.9 1.2 2.9 1.2zm-63 63c1 0 2-.4 2.8-1.2 1.6-1.6 1.6-4.1 0-5.7l-378-378c-1.6-1.6-4.1-1.6-5.7 0-1.6 1.6-1.6 4.1 0 5.7l378 378c.9.8 1.9 1.2 2.9 1.2zm-126 0c1 0 2-.4 2.8-1.2 1.6-1.6 1.6-4.1 0-5.7l-252-252c-1.6-1.6-4.1-1.6-5.7 0-1.6 1.6-1.6 4.1 0 5.7l252 252c.9.8 1.9 1.2 2.9 1.2zm-126 0c1 0 2-.4 2.8-1.2 1.6-1.6 1.6-4.1 0-5.7l-126-126c-1.6-1.6-4.1-1.6-5.7 0-1.6 1.6-1.6 4.1 0 5.7l126 126c.9.8 1.9 1.2 2.9 1.2z"/><path class="st3" d="M413.5 480.5c1 0 2-.4 2.8-1.2l63-63c1.6-1.6 1.6-4.1 0-5.7-1.6-1.6-4.1-1.6-5.7 0l-63 63c-1.6 1.6-1.6 4.1 0 5.7.9.8 1.9 1.2 2.9 1.2zm-126 0c1 0 2-.4 2.8-1.2l189-189c1.6-1.6 1.6-4.1 0-5.7-1.6-1.6-4.1-1.6-5.7 0l-189 189c-1.6 1.6-1.6 4.1 0 5.7.9.8 1.9 1.2 2.9 1.2zm-126 0c1 0 2-.4 2.8-1.2l315-315c1.6-1.6 1.6-4.1 0-5.7-1.6-1.6-4.1-1.6-5.7 0l-315 315c-1.6 1.6-1.6 4.1 0 5.7.9.8 1.9 1.2 2.9 1.2zM35.5 357c1 0 2.1-.4 2.8-1.2l315-317.5c1.6-1.6 1.5-4.1 0-5.7-1.6-1.6-4.1-1.5-5.7 0l-315 317.5c-1.6 1.6-1.5 4.1 0 5.7.9.8 1.9 1.2 2.9 1.2zm0-128.5c1 0 2-.4 2.8-1.2l189-189c1.6-1.6 1.6-4.1 0-5.7-1.6-1.6-4.1-1.6-5.7 0l-189 189c-1.6 1.6-1.6 4.1 0 5.7.9.8 1.9 1.2 2.9 1.2zm0-126c1 0 2-.4 2.8-1.2l63-63c1.6-1.6 1.6-4.1 0-5.7-1.6-1.6-4.1-1.6-5.7 0l-63 63c-1.6 1.6-1.6 4.1 0 5.7.9.8 1.9 1.2 2.9 1.2zm0 378c1 0 2-.4 2.8-1.2l441-441c1.6-1.6 1.6-4.1 0-5.7-1.6-1.6-4.1-1.6-5.7 0l-441 441c-1.6 1.6-1.6 4.1 0 5.7.9.8 1.9 1.2 2.9 1.2z"/></svg>