<svg xmlns="http://www.w3.org/2000/svg" viewBox="0 0 1920 673" xml:space="preserve"><path fill="#038387" d="M0 0h1920v673H0z"/><path d="M644.4 138.8h-48v-10.4l22.1-23.2c5.4-6.2 8.2-11.1 8.2-14.8 0-3-.6-5.2-1.9-6.8-1.3-1.5-3.2-2.3-5.6-2.3-2.4 0-4.4 1-5.9 3.1S611 89 611 92.1h-16c0-4.2 1.1-8.1 3.2-11.7 2.1-3.6 5-6.4 8.8-8.4 3.7-2 7.9-3 12.6-3 7.4 0 13.1 1.7 17.2 5.1 4 3.4 6 8.4 6 14.8 0 2.7-.5 5.3-1.5 7.9-1 2.6-2.6 5.3-4.7 8.1s-5.5 6.6-10.3 11.3l-8.9 10.2h27.1v12.4zm55.7-28c0 9.3-2.1 16.4-6.3 21.5-4.2 5-10 7.6-17.6 7.6-7.6 0-13.6-2.5-17.8-7.6-4.2-5.1-6.3-12.2-6.3-21.4V98.2c0-9.3 2.1-16.4 6.3-21.5 4.2-5 10.1-7.6 17.7-7.6s13.5 2.5 17.7 7.6c4.2 5.1 6.3 12.2 6.3 21.5v12.6zm-15.9-14.6c0-4.9-.6-8.6-1.9-11.1-1.3-2.4-3.3-3.7-6.1-3.7-2.7 0-4.7 1.1-6 3.4-1.2 2.3-1.9 5.7-2 10.3v17.6c0 5.1.6 8.9 1.9 11.3 1.3 2.4 3.3 3.6 6.1 3.6 2.7 0 4.7-1.2 6-3.5 1.3-2.3 2-5.9 2-10.9v-17zm79.6 19.1h-28.4V103h28.4v12.3zm84.2 23.5h-48v-10.4l22.1-23.2c5.4-6.2 8.2-11.1 8.2-14.8 0-3-.6-5.2-1.9-6.8-1.3-1.5-3.2-2.3-5.6-2.3-2.4 0-4.4 1-5.9 3.1s-2.3 4.6-2.3 7.7h-16c0-4.2 1.1-8.1 3.2-11.7 2.1-3.6 5-6.4 8.8-8.4 3.7-2 7.9-3 12.6-3 7.4 0 13.1 1.7 17.2 5.1 4 3.4 6 8.4 6 14.8 0 2.7-.5 5.3-1.5 7.9-1 2.6-2.6 5.3-4.7 8.1s-5.5 6.6-10.3 11.3l-8.9 10.2h27v12.4zm55.7-28c0 9.3-2.1 16.4-6.3 21.5-4.2 5-10 7.6-17.6 7.6-7.6 0-13.6-2.5-17.8-7.6-4.2-5.1-6.3-12.2-6.3-21.4V98.2c0-9.3 2.1-16.4 6.3-21.5 4.2-5 10.1-7.6 17.7-7.6s13.5 2.5 17.7 7.6c4.2 5.1 6.3 12.2 6.3 21.5v12.6zm-15.9-14.6c0-4.9-.6-8.6-1.9-11.1-1.3-2.4-3.3-3.7-6.1-3.7-2.7 0-4.7 1.1-6 3.4-1.2 2.3-1.9 5.7-2 10.3v17.6c0 5.1.6 8.9 1.9 11.3 1.3 2.4 3.3 3.6 6.1 3.6 2.7 0 4.7-1.2 6-3.5 1.3-2.3 2-5.9 2-10.9v-17zm93.8 8.6h-43.7V92.5h43.7v12.3zm0 20.7h-43.7v-12.3h43.7v12.3zm83.1 13.3h-48v-10.4l22.1-23.2c5.4-6.2 8.2-11.1 8.2-14.8 0-3-.6-5.2-1.9-6.8-1.3-1.5-3.2-2.3-5.6-2.3-2.4 0-4.4 1-5.9 3.1s-2.3 4.6-2.3 7.7h-16c0-4.2 1.1-8.1 3.2-11.7 2.1-3.6 5-6.4 8.8-8.4 3.7-2 7.9-3 12.6-3 7.4 0 13.1 1.7 17.2 5.1 4 3.4 6 8.4 6 14.8 0 2.7-.5 5.3-1.5 7.9-1 2.6-2.6 5.3-4.7 8.1s-5.5 6.6-10.3 11.3l-8.9 10.2h27.1v12.4zm9-33.5 4.2-35.2h40.2v12.4h-27.2l-1.6 13.7c1.1-.7 2.6-1.2 4.5-1.8 1.8-.5 3.6-.8 5.4-.8 6.8 0 12.1 2 15.7 6.1 3.7 4 5.5 9.7 5.5 17 0 4.4-1 8.4-3 12-2 3.6-4.7 6.3-8.3 8.2-3.6 1.9-7.8 2.9-12.6 2.9-4.3 0-8.4-.9-12.1-2.7-3.8-1.8-6.7-4.2-8.9-7.3-2.1-3.1-3.2-6.6-3.2-10.5h16c.2 2.5 1 4.5 2.4 6s3.4 2.2 5.7 2.2c5.4 0 8-4 8-11.9 0-7.3-3.3-11-9.8-11-3.7 0-6.5 1.2-8.3 3.6l-12.6-2.9zm110.5 10h-28.4V103h28.4v12.3zm84.1 23.5h-48v-10.4l22.1-23.2c5.4-6.2 8.2-11.1 8.2-14.8 0-3-.6-5.2-1.9-6.8-1.3-1.5-3.2-2.3-5.6-2.3-2.4 0-4.4 1-5.9 3.1s-2.3 4.6-2.3 7.7h-16c0-4.2 1.1-8.1 3.2-11.7 2.1-3.6 5-6.4 8.8-8.4 3.7-2 7.9-3 12.6-3 7.4 0 13.1 1.7 17.2 5.1 4 3.4 6 8.4 6 14.8 0 2.7-.5 5.3-1.5 7.9-1 2.6-2.6 5.3-4.7 8.1s-5.5 6.6-10.3 11.3l-8.9 10.2h27.1v12.4zm9-33.5 4.2-35.2h40.2v12.4h-27.2l-1.6 13.7c1.1-.7 2.6-1.2 4.5-1.8 1.8-.5 3.6-.8 5.4-.8 6.8 0 12.1 2 15.7 6.1 3.7 4 5.5 9.7 5.5 17 0 4.4-1 8.4-3 12-2 3.6-4.7 6.3-8.3 8.2-3.6 1.9-7.8 2.9-12.6 2.9-4.3 0-8.4-.9-12.1-2.7-3.8-1.8-6.7-4.2-8.9-7.3-2.1-3.1-3.2-6.6-3.2-10.5h16c.2 2.5 1 4.5 2.4 6s3.4 2.2 5.7 2.2c5.4 0 8-4 8-11.9 0-7.3-3.3-11-9.8-11-3.7 0-6.5 1.2-8.3 3.6l-12.6-2.9zm-854.1 116 4.2-35.2h40.2v12.4h-27.2l-1.6 13.7c1.1-.7 2.6-1.2 4.5-1.8 1.8-.5 3.6-.8 5.4-.8 6.8 0 12.1 2 15.7 6.1 3.7 4 5.5 9.7 5.5 17 0 4.4-1 8.4-3 12-2 3.6-4.7 6.3-8.3 8.2-3.6 1.9-7.8 2.9-12.6 2.9-4.3 0-8.4-.9-12.1-2.7-3.8-1.8-6.7-4.2-8.9-7.3-2.1-3.1-3.2-6.6-3.2-10.5h16c.2 2.5 1 4.5 2.4 6s3.4 2.2 5.7 2.2c5.4 0 8-4 8-11.9 0-7.3-3.3-11-9.8-11-3.7 0-6.5 1.2-8.3 3.6l-12.6-2.9zm91.5-11.6-15.4-4.2 3.1-8.9 15.1 6.2-1.2-16.6h10.1l-1.2 16.9 14.6-6 3.1 9-15.6 4.2 10.3 12.5-8.2 5.6-8.6-13.9-8.7 13.4-8.2-5.3 10.8-12.9zm98.6 18.3h7v12.3h-7v14.6h-15.9v-14.6h-26.6l-.9-9.7 27.5-44.3v-.1h15.9V228zm-28.2 0h12.4v-21.1l-1 1.6-11.4 19.5zm97.6 3.4h-28.4v-12.3h28.4v12.3zm37.2-10.1 4.2-35.2h40.2v12.4H737l-1.6 13.7c1.1-.7 2.6-1.2 4.5-1.8 1.8-.5 3.6-.8 5.4-.8 6.8 0 12.1 2 15.7 6.1 3.7 4 5.5 9.7 5.5 17 0 4.4-1 8.4-3 12-2 3.6-4.7 6.3-8.3 8.2-3.6 1.9-7.8 2.9-12.6 2.9-4.3 0-8.4-.9-12.1-2.7-3.8-1.8-6.7-4.2-8.9-7.3-2.1-3.1-3.2-6.6-3.2-10.5h16c.2 2.5 1 4.5 2.4 6s3.4 2.2 5.7 2.2c5.4 0 8-4 8-11.9 0-7.3-3.3-11-9.8-11-3.7 0-6.5 1.2-8.3 3.6l-12.5-2.9zm91.5-11.6-15.4-4.2 3.1-8.9 15.1 6.2-1.2-16.6h10.1l-1.2 16.9 14.6-6 3.1 9-15.6 4.2 10.3 12.5-8.2 5.6-8.6-13.9-8.7 13.4-8.2-5.3 10.8-12.9zm98.7 18.3h7v12.3h-7v14.6h-15.9v-14.6h-26.6l-.9-9.7 27.5-44.3v-.1h15.9V228zm-28.3 0h12.4v-21.1l-1 1.6-11.4 19.5zm111.9-7.2H950v-12.3h43.7v12.3zm0 20.7H950v-12.3h43.7v12.3zm36-20.2 4.2-35.2h40.2v12.4h-27.2l-1.6 13.7c1.1-.7 2.6-1.2 4.5-1.8 1.8-.5 3.6-.8 5.4-.8 6.8 0 12.1 2 15.7 6.1 3.7 4 5.5 9.7 5.5 17 0 4.4-1 8.4-3 12-2 3.6-4.7 6.3-8.3 8.2-3.6 1.9-7.8 2.9-12.6 2.9-4.3 0-8.4-.9-12.1-2.7-3.8-1.8-6.7-4.2-8.9-7.3-2.1-3.1-3.2-6.6-3.2-10.5h16c.2 2.5 1 4.5 2.4 6s3.4 2.2 5.7 2.2c5.4 0 8-4 8-11.9 0-7.3-3.3-11-9.8-11-3.7 0-6.5 1.2-8.3 3.6l-12.6-2.9zm91.6-11.6-15.4-4.2 3.1-8.9 15.1 6.2-1.2-16.6h10.1l-1.2 16.9 14.6-6 3.1 9-15.6 4.2 10.3 12.5-8.2 5.6-8.6-13.9-8.7 13.4-8.2-5.3 10.8-12.9zm57.5 11.6 4.2-35.2h40.2v12.4H1196l-1.6 13.7c1.1-.7 2.6-1.2 4.5-1.8 1.8-.5 3.6-.8 5.4-.8 6.8 0 12.1 2 15.7 6.1 3.7 4 5.5 9.7 5.5 17 0 4.4-1 8.4-3 12-2 3.6-4.7 6.3-8.3 8.2-3.6 1.9-7.8 2.9-12.6 2.9-4.3 0-8.4-.9-12.1-2.7-3.8-1.8-6.7-4.2-8.9-7.3-2.1-3.1-3.2-6.6-3.2-10.5h16c.2 2.5 1 4.5 2.4 6s3.4 2.2 5.7 2.2c5.4 0 8-4 8-11.9 0-7.3-3.3-11-9.8-11-3.7 0-6.5 1.2-8.3 3.6l-12.6-2.9zm110.5 10.1h-28.4v-12.3h28.4v12.3zm13.1-10.1 4.2-35.2h40.2v12.4h-27.2l-1.6 13.7c1.1-.7 2.6-1.2 4.5-1.8 1.8-.5 3.6-.8 5.4-.8 6.8 0 12.1 2 15.7 6.1 3.7 4 5.5 9.7 5.5 17 0 4.4-1 8.4-3 12-2 3.6-4.7 6.3-8.3 8.2-3.6 1.9-7.8 2.9-12.6 2.9-4.3 0-8.4-.9-12.1-2.7-3.8-1.8-6.7-4.2-8.9-7.3-2.1-3.1-3.2-6.6-3.2-10.5h16c.2 2.5 1 4.5 2.4 6s3.4 2.2 5.7 2.2c5.4 0 8-4 8-11.9 0-7.3-3.3-11-9.8-11-3.7 0-6.5 1.2-8.3 3.6l-12.6-2.9zm91.5-11.6-15.4-4.2 3.1-8.9 15.1 6.2-1.2-16.6h10.1l-1.2 16.9 14.6-6 3.1 9-15.6 4.2 10.3 12.5-8.2 5.6-8.6-13.9-8.7 13.4-8.2-5.3 10.8-12.9zm57.5 11.6 4.2-35.2h40.2v12.4h-27.2l-1.6 13.7c1.1-.7 2.6-1.2 4.5-1.8 1.8-.5 3.6-.8 5.4-.8 6.8 0 12.1 2 15.7 6.1 3.7 4 5.5 9.7 5.5 17 0 4.4-1 8.4-3 12-2 3.6-4.7 6.3-8.3 8.2-3.6 1.9-7.8 2.9-12.6 2.9-4.3 0-8.4-.9-12.1-2.7-3.8-1.8-6.7-4.2-8.9-7.3-2.1-3.1-3.2-6.6-3.2-10.5h16c.2 2.5 1 4.5 2.4 6s3.4 2.2 5.7 2.2c5.4 0 8-4 8-11.9 0-7.3-3.3-11-9.8-11-3.7 0-6.5 1.2-8.3 3.6l-12.6-2.9zM533.1 344h7v12.3h-7v14.6h-15.9v-14.6h-26.6l-.9-9.7 27.5-44.3v-.1h15.9V344zm-28.2 0h12.4v-21.1l-1 1.6-11.4 19.5zm78.7-18.3-15.4-4.2 3.1-8.9 15.1 6.2-1.2-16.6h10.1l-1.2 16.9 14.6-6 3.1 9-15.6 4.2 10.3 12.5-8.2 5.6-8.6-13.9-8.7 13.4-8.2-5.3 10.8-12.9zm58.1 17.2c0-7.7 1-14.8 3.1-21.4 2-6.6 4.9-12.2 8.5-16.8 3.6-4.6 7.6-7.8 12-9.6l3 7.8c-4.4 3.2-7.8 8.3-10.2 15.2-2.4 6.9-3.6 14.9-3.7 24.2v2.1c0 9.5 1.2 17.7 3.6 24.6s5.8 12.1 10.3 15.3l-3 7.8c-4.3-1.8-8.3-5-12-9.7-3.7-4.7-6.5-10.3-8.5-16.7-2-6.5-3-13.4-3.1-20.7v-2.1zm33.6-5.6 4.2-35.2h40.2v12.4h-27.2l-1.6 13.7c1.1-.7 2.6-1.2 4.5-1.8 1.8-.5 3.6-.8 5.4-.8 6.8 0 12.1 2 15.7 6.1 3.7 4 5.5 9.7 5.5 17 0 4.4-1 8.4-3 12-2 3.6-4.7 6.3-8.3 8.2-3.6 1.9-7.8 2.9-12.6 2.9-4.3 0-8.4-.9-12.1-2.7-3.8-1.8-6.7-4.2-8.9-7.3-2.1-3.1-3.2-6.6-3.2-10.5h16c.2 2.5 1 4.5 2.4 6s3.4 2.2 5.7 2.2c5.4 0 8-4 8-11.9 0-7.3-3.3-11-9.8-11-3.7 0-6.5 1.2-8.3 3.6l-12.6-2.9zm110.5 10.1h-28.4v-12.3h28.4v12.3zm37.1-10.1 4.2-35.2h40.2v12.4H840l-1.6 13.7c1.1-.7 2.6-1.2 4.5-1.8 1.8-.5 3.6-.8 5.4-.8 6.8 0 12.1 2 15.7 6.1 3.7 4 5.5 9.7 5.5 17 0 4.4-1 8.4-3 12-2 3.6-4.7 6.3-8.3 8.2-3.6 1.9-7.8 2.9-12.6 2.9-4.3 0-8.4-.9-12.1-2.7-3.8-1.8-6.7-4.2-8.9-7.3-2.1-3.1-3.2-6.6-3.2-10.5h16c.2 2.5 1 4.5 2.4 6s3.4 2.2 5.7 2.2c5.4 0 8-4 8-11.9 0-7.3-3.3-11-9.8-11-3.7 0-6.5 1.2-8.3 3.6l-12.5-2.9zm80.4 7c0 7.4-1.1 14.4-3.3 21.1-2.2 6.6-5.2 12.3-9 17.1-3.8 4.8-8 8-12.4 9.7l-3-7.8c4.4-3.3 7.8-8.3 10.2-15.1 2.4-6.8 3.6-14.6 3.7-23.5v-2.9c0-9.5-1.2-17.7-3.6-24.6-2.4-7-5.8-12.1-10.3-15.3l3-7.8c4.4 1.7 8.5 4.9 12.3 9.6 3.8 4.7 6.8 10.3 9 16.9 2.2 6.6 3.3 13.4 3.4 20.7v1.9zm78.3-7.5h-43.7v-12.3h43.7v12.3zm0 20.7h-43.7v-12.3h43.7v12.3zm36.1-20.2 4.2-35.2h40.2v12.4h-27.2l-1.6 13.7c1.1-.7 2.6-1.2 4.5-1.8 1.8-.5 3.6-.8 5.4-.8 6.8 0 12.1 2 15.7 6.1 3.7 4 5.5 9.7 5.5 17 0 4.4-1 8.4-3 12-2 3.6-4.7 6.3-8.3 8.2s-7.8 2.9-12.6 2.9c-4.3 0-8.4-.9-12.1-2.7-3.8-1.8-6.7-4.2-8.9-7.3-2.1-3.1-3.2-6.6-3.2-10.5h16c.2 2.5 1 4.5 2.4 6s3.4 2.2 5.7 2.2c5.4 0 8-4 8-11.9 0-7.3-3.3-11-9.8-11-3.7 0-6.5 1.2-8.3 3.6l-12.6-2.9zm91.5-11.6-15.4-4.2 3.1-8.9 15.1 6.2-1.2-16.6h10.1l-1.2 16.9 14.6-6 3.1 9-15.6 4.2 10.3 12.5-8.2 5.6-8.6-13.9-8.7 13.4-8.2-5.3 10.8-12.9zm58.1 17.2c0-7.7 1-14.8 3.1-21.4s4.9-12.2 8.5-16.8c3.6-4.6 7.6-7.8 12-9.6l3 7.8c-4.4 3.2-7.8 8.3-10.2 15.2-2.4 6.9-3.6 14.9-3.7 24.2v2.1c0 9.5 1.2 17.7 3.6 24.6 2.4 7 5.8 12.1 10.3 15.3l-3 7.8c-4.3-1.8-8.3-5-12-9.7-3.7-4.7-6.5-10.3-8.5-16.7-2-6.5-3-13.4-3.1-20.7v-2.1zm33.6-5.6 4.2-35.2h40.2v12.4H1218l-1.6 13.7c1.1-.7 2.6-1.2 4.5-1.8 1.8-.5 3.6-.8 5.4-.8 6.8 0 12.1 2 15.7 6.1 3.7 4 5.5 9.7 5.5 17 0 4.4-1 8.4-3 12-2 3.6-4.7 6.3-8.3 8.2s-7.8 2.9-12.6 2.9c-4.3 0-8.4-.9-12.1-2.7-3.8-1.8-6.7-4.2-8.9-7.3-2.1-3.1-3.2-6.6-3.2-10.5h16c.2 2.5 1 4.5 2.4 6s3.4 2.2 5.7 2.2c5.4 0 8-4 8-11.9 0-7.3-3.3-11-9.8-11-3.7 0-6.5 1.2-8.3 3.6l-12.5-2.9zm110.5 10.1H1283v-12.3h28.4v12.3zm37.1-10.1 4.2-35.2h40.2v12.4h-27.2l-1.6 13.7c1.1-.7 2.6-1.2 4.5-1.8 1.8-.5 3.6-.8 5.4-.8 6.8 0 12.1 2 15.7 6.1 3.7 4 5.5 9.7 5.5 17 0 4.4-1 8.4-3 12-2 3.6-4.7 6.3-8.3 8.2s-7.8 2.9-12.6 2.9c-4.3 0-8.4-.9-12.1-2.7-3.8-1.8-6.7-4.2-8.9-7.3-2.1-3.1-3.2-6.6-3.2-10.5h16c.2 2.5 1 4.5 2.4 6s3.4 2.2 5.7 2.2c5.4 0 8-4 8-11.9 0-7.3-3.3-11-9.8-11-3.7 0-6.5 1.2-8.3 3.6l-12.6-2.9zm80.4 7c0 7.4-1.1 14.4-3.3 21.1-2.2 6.6-5.2 12.3-9 17.1-3.8 4.8-8 8-12.4 9.7l-3-7.8c4.4-3.3 7.8-8.3 10.1-15.1 2.4-6.8 3.6-14.6 3.7-23.5v-2.9c0-9.5-1.2-17.7-3.6-24.6-2.4-7-5.8-12.1-10.3-15.3l3-7.8c4.4 1.7 8.5 4.9 12.3 9.6 3.8 4.7 6.8 10.3 9 16.9 2.2 6.6 3.3 13.4 3.4 20.7v1.9zM898 460.1h7v12.3h-7V487h-15.9v-14.6h-26.6l-.9-9.7 27.5-44.3v-.1H898v41.8zm-28.3 0h12.4V439l-1 1.6-11.4 19.5zm111.9-7.3h-43.7v-12.3h43.7v12.3zm0 20.8h-43.7v-12.3h43.7v12.3zm36.1-20.3 4.2-35.2h40.2v12.4h-27.2l-1.6 13.7c1.1-.7 2.6-1.2 4.5-1.8 1.8-.5 3.6-.8 5.4-.8 6.8 0 12.1 2 15.7 6.1 3.7 4 5.5 9.7 5.5 17 0 4.4-1 8.4-3 12-2 3.6-4.7 6.3-8.3 8.2s-7.8 2.9-12.6 2.9c-4.3 0-8.4-.9-12.1-2.7-3.8-1.8-6.7-4.2-8.9-7.3-2.1-3.1-3.2-6.6-3.2-10.5h16c.2 2.5 1 4.5 2.4 6s3.4 2.2 5.7 2.2c5.4 0 8-4 8-11.9 0-7.3-3.3-11-9.8-11-3.7 0-6.5 1.2-8.3 3.6l-12.6-2.9zM829.4 602.9h-48v-10.4l22.1-23.2c5.4-6.2 8.2-11.1 8.2-14.8 0-3-.6-5.2-1.9-6.8-1.3-1.5-3.2-2.3-5.6-2.3-2.4 0-4.4 1-5.9 3.1s-2.3 4.6-2.3 7.7h-16c0-4.2 1.1-8.1 3.2-11.7 2.1-3.6 5-6.4 8.8-8.4 3.7-2 7.9-3 12.6-3 7.4 0 13.1 1.7 17.2 5.1 4 3.4 6 8.4 6 14.8 0 2.7-.5 5.3-1.5 7.9-1 2.6-2.6 5.3-4.7 8.1s-5.5 6.6-10.3 11.3l-8.9 10.2h27.1v12.4zm44.5-45.1-15.4-4.2 3.1-8.9 15.1 6.2-1.2-16.6h10.1l-1.2 16.9 14.6-6 3.1 9-15.6 4.2 10.3 12.5-8.2 5.6-8.6-13.9-8.7 13.4-8.2-5.3 10.8-12.9zm104.6 45.1h-48v-10.4l22.1-23.2c5.4-6.2 8.2-11.1 8.2-14.8 0-3-.6-5.2-1.9-6.8-1.3-1.5-3.2-2.3-5.6-2.3-2.4 0-4.4 1-5.9 3.1s-2.3 4.6-2.3 7.7h-16c0-4.2 1.1-8.1 3.2-11.7 2.1-3.6 5-6.4 8.8-8.4 3.7-2 7.9-3 12.6-3 7.4 0 13.1 1.7 17.2 5.1 4 3.4 6 8.4 6 14.8 0 2.7-.5 5.3-1.5 7.9-1 2.6-2.6 5.3-4.7 8.1s-5.5 6.6-10.3 11.3l-8.9 10.2h27.1v12.4zm77.7-34h-43.7v-12.3h43.7v12.3zm0 20.7h-43.7v-12.3h43.7v12.3zm36-20.2 4.2-35.2h40.2v12.4h-27.2l-1.6 13.7c1.1-.7 2.6-1.2 4.5-1.8 1.8-.5 3.6-.8 5.4-.8 6.8 0 12.1 2 15.7 6.1 3.7 4 5.5 9.7 5.5 17 0 4.4-1 8.4-3 12-2 3.6-4.7 6.3-8.3 8.2s-7.8 2.9-12.6 2.9c-4.3 0-8.4-.9-12.1-2.7-3.8-1.8-6.7-4.2-8.9-7.3-2.1-3.1-3.2-6.6-3.2-10.5h16c.2 2.5 1 4.5 2.4 6s3.4 2.2 5.7 2.2c5.4 0 8-4 8-11.9 0-7.3-3.3-11-9.8-11-3.7 0-6.5 1.2-8.3 3.6l-12.6-2.9z" fill="#f4f4f4"/></svg>