<svg xmlns="http://www.w3.org/2000/svg" viewBox="0 0 1920 673" xml:space="preserve"><path fill="#61aa9c" d="M0 0h1920v673H0z"/><path fill-rule="evenodd" clip-rule="evenodd" fill="#fff" d="M938.4 12.3v43.2h-43.2v43.2h-43.3V142h-43.2v43.2h-43.2v43.2h-43.3v43.3H679v43.2h-43.2v43.2H679v43.2h43.2v43.3h43.3v43.2h43.2V531h43.2v43.3h43.3v43.2h43.2v43.2h43.2v-43.2h43.2v-43.2h43.3V531h43.2v-43.2h43.2v-43.2h43.3v-43.3h43.2v-43.2h43.2v-43.2H1241v-43.2h-43.2v-43.3h-43.3v-43.2h-43.2V142h-43.2V98.7h-43.3V55.5h-43.2V12.3z"/><path d="M978.9 58.2h-37.8v-5.4h37.8v5.4zM676.3 317.6v37.8h5.4v-37.8h-5.4zm264.8 302.6h37.8v-5.4h-37.8v5.4zm259.4-264.8h37.8v5.4h-37.8v37.8h-5.4v-37.8h-37.8v37.8h37.8v5.4h-37.8v37.8h-5.4V404H1114v37.8h37.8v5.4H1114V485h-5.4v-37.8h-37.8V485h37.8v5.4h-37.8v37.8h-5.4v-37.8h-37.8v37.8h37.8v5.4h-37.8v37.8h-5.4v-37.8h-37.8v37.8h37.8v5.4h-37.8v37.8H979V577h-37.8v37.8h-5.4V577H898v-5.4h37.8v-37.8H898v37.8h-5.4v-37.8h-37.8v-5.4h37.8v-37.8h-37.8v37.8h-5.4v-37.8h-37.8v-5.4h37.8v-37.8h-37.8v37.8H806v-37.8h-37.8V442H806v-38h-37.8v37.8h-5.4V404H725v-5.4h37.8v-37.8H725v37.8h-5.4v-37.8h-37.8v-5.4h37.8v-37.8h-37.8v-5.4h37.8v-37.8h5.4v37.8h37.8v-37.8H725V269h37.8v-37.8h5.4V269H806v-37.8h-37.8v-5.4H806V188h5.4v37.8h37.8V188h-37.8v-5.4h37.8v-37.8h5.4v37.8h37.8v-37.8h-37.8v-5.4h37.8v-37.8h5.4v37.8h37.8v-37.8h-37.8V96h37.8V58.2h5.4V96h37.8V58.2h5.4V96h37.8v5.4h-37.8v37.8h37.8v-37.8h5.4v37.8h37.8v5.4h-37.8v37.8h37.8v-37.8h5.4v37.8h37.8v5.4h-37.8v37.8h37.8v-37.8h5.4v37.8h37.8v5.4H1114v38h37.8v-37.8h5.4V269h37.8v5.4h-37.8v37.8h37.8v-37.8h5.4v37.8h37.8v5.4h-37.8v37.8zm-437.7-37.8H725v37.8h37.8v-37.8zm43.2 43.2h-37.8v37.8H806v-37.8zm0-43.2h-37.8v37.8H806v-37.8zm0-43.2h-37.8v37.8H806v-37.8zM849.2 404h-37.8v37.8h37.8V404zm0-43.2h-37.8v37.8h37.8v-37.8zm0-43.2h-37.8v37.8h37.8v-37.8zm0-43.2h-37.8v37.8h37.8v-37.8zm0-43.3h-37.8V269h37.8v-37.9zm43.3 216.2h-37.8v37.8h37.8v-37.8zm0-43.3h-37.8v37.8h37.8V404zm0-43.2h-37.8v37.8h37.8v-37.8zm0-43.2h-37.8v37.8h37.8v-37.8zm0-43.2h-37.8v37.8h37.8v-37.8zm0-43.3h-37.8V269h37.8v-37.9zm0-43.2h-37.8v37.8h37.8v-37.8zm43.2 302.6h-37.8v37.8h37.8v-37.8zm0-43.2h-37.8v37.8h37.8v-37.8zm0-43.3h-37.8v37.8h37.8V404zm0-43.2h-37.8v37.8h37.8v-37.8zm0-43.2h-37.8v37.8h37.8v-37.8zm0-43.2h-37.8v37.8h37.8v-37.8zm0-43.3h-37.8V269h37.8v-37.9zm0-43.2h-37.8v37.8h37.8v-37.8zm0-43.2h-37.8v37.8h37.8v-37.8zm43.2 389h-37.8v37.8h37.8v-37.8zm0-43.2h-37.8v37.8h37.8v-37.8zm0-43.2h-37.8v37.8h37.8v-37.8zm0-43.3h-37.8v37.8h37.8V404zm0-43.2h-37.8v37.8h37.8v-37.8zm0-43.2h-37.8v37.8h37.8v-37.8zm0-43.2h-37.8v37.8h37.8v-37.8zm0-43.3h-37.8V269h37.8v-37.9zm0-43.2h-37.8v37.8h37.8v-37.8zm0-43.2h-37.8v37.8h37.8v-37.8zm0-43.3h-37.8v37.8h37.8v-37.8zm43.2 389.1h-37.8v37.8h37.8v-37.8zm0-43.2h-37.8v37.8h37.8v-37.8zm0-43.3h-37.8v37.8h37.8V404zm0-43.2h-37.8v37.8h37.8v-37.8zm0-43.2h-37.8v37.8h37.8v-37.8zm0-43.2h-37.8v37.8h37.8v-37.8zm0-43.3h-37.8V269h37.8v-37.9zm0-43.2h-37.8v37.8h37.8v-37.8zm0-43.2h-37.8v37.8h37.8v-37.8zm43.3 302.6h-37.8v37.8h37.8v-37.8zm0-43.3h-37.8v37.8h37.8V404zm0-43.2h-37.8v37.8h37.8v-37.8zm0-43.2h-37.8v37.8h37.8v-37.8zm0-43.2h-37.8v37.8h37.8v-37.8zm0-43.3h-37.8V269h37.8v-37.9zm0-43.2h-37.8v37.8h37.8v-37.8zm43.2 216.1h-37.8v37.8h37.8V404zm0-43.2h-37.8v37.8h37.8v-37.8zm0-43.2h-37.8v37.8h37.8v-37.8zm0-43.2h-37.8v37.8h37.8v-37.8zm0-43.3h-37.8V269h37.8v-37.9zm43.2 129.7H1114v37.8h37.8v-37.8zm0-43.2H1114v37.8h37.8v-37.8zm0-43.2H1114v37.8h37.8v-37.8zm43.3 43.2h-37.8v37.8h37.8v-37.8zm43.2 0v37.8h5.4v-37.8h-5.4z" fill="#ddd"/><path fill="#2e86b7" d="m967.6 22.4-7.6 7.7-7.6-7.7-3.9 3.8 7.7 7.7-7.7 7.6 3.9 3.9 7.6-7.7 7.6 7.7 3.9-3.9-7.7-7.6 7.7-7.7-3.9-3.8z"/><path d="M1243.7 312.2V269h-43.2v-43.2h-43.2v-43.2H1114v-43.2h-43.2V96h-43.2V52.8h-43.2V9.6h-48.6v43.2h-43.2V96h-43.2v43.2H806v43.2h-43.2v43.2h-43.2V269h-43.2v43.2h-43.2v48.6h43.2V404h43.2v43.2h43.2v43.2H806v43.2h43.2V577h43.2v43.2h43.2v43.2h48.6v-43.2h43.2V577h43.2v-43.2h43.2v-43.2h43.2v-43.2h43.2V404h43.2v-43.2h43.2v-48.6h-42.9zm-567.4 43.2h-37.8v-37.8h37.8v37.8zm351.2-254h37.8v37.8h-37.8v-37.8zM941.1 15h37.8v37.8h-37.8V15zm37.8 643h-37.8v-37.8h37.8V658zm259.4-343.1v83.7h-43.2v43.2h-43.2V485h-43.2v43.2h-43.2v43.2h-43.2v43.2H898.1v-43.2h-43.2v-43.2h-43.2V485h-43.2v-43.2h-43.2v-43.2h-43.2V274.4h43.2v-43.2h43.2V188h43.2v-43.2h43.2v-43.2h43.2V58.2h124.2v86.4h86.4v43.2h43.2V231h43.2v43.2h43.2v40.7zm43.2 40.5h-37.8v-37.8h37.8v37.8zm-389-172.9h48.6v5.4h-48.6v-5.4z" fill="#038387"/><path d="M1262.6 352.7c-8.9 0-16.2-7.3-16.2-16.2 0-8.9 7.3-16.2 16.2-16.2s16.2 7.3 16.2 16.2c0 8.9-7.2 16.2-16.2 16.2zm0-27c-6 0-10.8 4.8-10.8 10.8s4.8 10.8 10.8 10.8 10.8-4.8 10.8-10.8-4.8-10.8-10.8-10.8zM960 655.3c-8.9 0-16.2-7.3-16.2-16.2s7.3-16.2 16.2-16.2c8.9 0 16.2 7.3 16.2 16.2s-7.3 16.2-16.2 16.2zm0-27c-6 0-10.8 4.8-10.8 10.8s4.8 10.8 10.8 10.8 10.8-4.8 10.8-10.8-4.8-10.8-10.8-10.8zM657.4 352.7c-8.9 0-16.2-7.3-16.2-16.2 0-8.9 7.3-16.2 16.2-16.2s16.2 7.3 16.2 16.2c0 8.9-7.3 16.2-16.2 16.2zm0-27c-6 0-10.8 4.8-10.8 10.8s4.8 10.8 10.8 10.8 10.8-4.8 10.8-10.8-4.9-10.8-10.8-10.8zm389.1-189.1c-8.9 0-16.2-7.3-16.2-16.2s7.3-16.2 16.2-16.2 16.2 7.3 16.2 16.2-7.3 16.2-16.2 16.2zm0-27.1c-6 0-10.8 4.8-10.8 10.8s4.8 10.8 10.8 10.8 10.8-4.8 10.8-10.8-4.9-10.8-10.8-10.8z" fill="#cc584c"/></svg>