<svg xmlns="http://www.w3.org/2000/svg" viewBox="0 0 1920 673" xml:space="preserve"><style>.st1{fill:#ddd}.st2{fill:#eec646}.st3{opacity:.15;fill:#444}.st4{fill:#36434f}</style><path fill="#3aaf9d" d="M0 0h1920v673H0z"/><path class="st1" d="M761.5 154.5h-77v-74h77c20.4 0 37 16.6 37 37s-16.6 37-37 37z"/><path class="st1" d="M714.5 80.5h-40.6c-17.2 0-32.1 11.8-36 28.6l-67 287.4 2 1h213.4l2-1-73.8-316zm216.4 490.6L806.3 474l-2-1H554.7l-2 1-124.6 97.1c-9 7-4 21.4 7.5 21.4h487.8c11.5 0 16.5-14.4 7.5-21.4z"/><path class="st2" d="M788.2 396.5H570.8L552.7 474h253.6z"/><path class="st3" d="m556.4 458-3.7 16h253.6l-3.7-16z"/><path class="st3" d="M673.9 80.5c-17.2 0-32.1 11.8-36 28.6l-67 287.4-18.2 77.5-124.6 97.1c-9 7-4 21.4 7.5 21.4h243.9v-512h-5.6z"/><path class="st4" d="M1322.5 154.5h-77v-74h77c20.4 0 37 16.6 37 37s-16.6 37-37 37z"/><path class="st4" d="M1275.5 80.5h-40.6c-17.2 0-32.1 11.8-36 28.6l-67 287.4 2 1h213.4l2-1-73.8-316zm216.4 490.6L1367.3 474l-2-1h-249.6l-2 1-124.6 97.1c-9 7-4 21.4 7.5 21.4h487.8c11.5 0 16.5-14.4 7.5-21.4z"/><path class="st2" d="M1349.2 396.5h-217.4l-18.1 77.5h253.6z"/><path class="st3" d="m1117.4 458-3.7 16h253.6l-3.7-16z"/><path class="st3" d="M1234.9 80.5c-17.2 0-32.1 11.8-36 28.6l-67 287.4-18.1 77.5-124.6 97.1c-9 7-4 21.4 7.5 21.4h243.9v-512h-5.7z"/></svg>