<svg version="1.1" xmlns="http://www.w3.org/2000/svg" x="0" y="0" viewBox="0 0 292 292" xml:space="preserve"><style type="text/css">.st1{fill:#2e86b7}.st2{fill:#cc584c}</style><path d="M288 0H0v292h292V0h-4zM48 288H4v-44h44v44zm0-48H4v-44h44v44zm0-48H4v-44h44v44zm0-48H4v-44h44v44zm0-48H4V52h44v44zm0-48H4V4h44v44zm48 240H52v-44h44v44zm0-48H52v-44h44v44zm0-48H52v-44h44v44zm0-48H52v-44h44v44zm0-48H52V52h44v44zm0-48H52V4h44v44zm48 240h-44v-44h44v44zm0-48h-44v-44h44v44zm0-48h-44v-44h44v44zm0-48h-44v-44h44v44zm0-48h-44V52h44v44zm0-48h-44V4h44v44zm48 240h-44v-44h44v44zm0-48h-44v-44h44v44zm0-48h-44v-44h44v44zm0-48h-44v-44h44v44zm0-48h-44V52h44v44zm0-48h-44V4h44v44zm48 240h-44v-44h44v44zm0-48h-44v-44h44v44zm0-48h-44v-44h44v44zm0-48h-44v-44h44v44zm0-48h-44V52h44v44zm0-48h-44V4h44v44zm48 240h-44v-44h44v44zm0-48h-44v-44h44v44zm0-48h-44v-44h44v44zm0-48h-44v-44h44v44zm0-48h-44V52h44v44zm0-48h-44V4h44v44z" fill="#ddd"/><path class="st1" d="M52 48h44v4H52z"/><path class="st2" d="M100 144h44v4h-44z"/><path class="st1" d="M48 96V52h4v44z"/><path class="st2" d="M100 96h44v4h-44z"/></svg>