<svg xmlns="http://www.w3.org/2000/svg" viewBox="0 0 1920 673" xml:space="preserve"><style>.st1{fill:#ff8b00}.st2{fill:#ffb000}.st3{fill:#a53}</style><path fill="#eee" d="M0 0h1920v673H0z"/><path class="st1" d="M1168.7 248.6c-6.6 7.8-9.5 36.5-14.1 43.8s-10.2 11.4-18.1 11.4-14.7-4.6-18-11.2c-.5 2.3-.8 4.7-.8 7.1 0 4.2.8 8.2 2.3 11.9-10 1.3-19.7 3-19.7 4.3 0 2.6 10.8 52.4 10.8 52.4s12.1-17.5 22.8-25.5c7.3-5.4 17.7-9.6 23.7-11.6 1.7-.4 3.2-1 4.7-1.6 11.6-4.8 19.9-16.3 19.9-29.7 0-2.4-.2-4.7-.7-6.8 0 0-3.2-13.3-3.2-21.3 0-3.8 1.8-7 3.7-9.4 2.4 1.7 5.3 2.6 8.4 2.6 8.2 0 14.7-6.6 14.7-14.7s-8-14.7-14.7-14.7c-6.9-.2-13.7 2.3-21.7 13zm-482.5-8.1c-12.2 0-22.2 10-22.2 22.2s10 22.2 22.2 22.2 22.2-10 22.2-22.2c-.2-12.3-10-22.2-22.2-22.2zm0 34.2c-6.7 0-12.1-5.4-12.1-12.1 0-6.7 5.4-12.1 12.1-12.1s12.1 5.4 12.1 12.1c-.1 6.7-5.5 12.1-12.1 12.1z"/><path class="st1" d="M702 210.3s-5.9-8.8-15.9-8.8c-10.1 0-15.9 8.8-15.9 8.8-1.2 1.8-2.3 4.2-2.3 5.4s.6 2 1.3 2 2.3 1.6 3.4 3.5l1.3 2.4c1.1 1.9 2 5.3 2 7.6v13.4H696V231c0-2.2 1-5.6 2-7.6l1.3-2.4c1.1-1.9 2.6-3.5 3.4-3.5s1.3-1 1.3-2-.8-3.4-2-5.2zm23 30.2c-12.2 0-22.2 10-22.2 22.2s10 22.2 22.2 22.2 22.2-10 22.2-22.2c0-12.3-9.8-22.2-22.2-22.2zm0 34.2c-6.7 0-12.1-5.4-12.1-12.1s5.4-12.1 12.1-12.1 12.1 5.4 12.1 12.1-5.4 12.1-12.1 12.1z"/><path class="st1" d="M740.5 252.5h18.8v16.1h-18.8v-16.1zm18.8-28.2h16.1v48.3h-16.1v-48.3zm-5.4 48.5h26.9V348h-26.9v-75.2z"/><path class="st1" d="M743.3 307.7h87.3v20.1h-87.3v-20.1zm0 20.1v-20.1c-24.5 0-44.4 19.9-44.4 44.4H719c0-13.5 10.9-24.3 24.3-24.3zm316.4-218.9c-10.1 0-15.9 8.8-15.9 8.8-1.2 1.8-2.3 4.2-2.3 5.4 0 1.1.6 2 1.3 2 .7 0 2.3 1.6 3.4 3.5l1.3 2.4c1.1 1.9 2 5.3 2 7.6v18.8c0 2.2 1.8 4.1 4.1 4.1h12c2.2 0 4.1-1.8 4.1-4.1v-18.9c0-2.2 1-5.6 2-7.6l1.3-2.4c1.1-1.9 2.6-3.5 3.4-3.5s1.3-1 1.3-2c0-1.1-1-3.5-2.3-5.4.2 0-5.6-8.7-15.7-8.7zm-197.5 0c10.1 0 15.9 8.8 15.9 8.8 1.2 1.8 2.3 4.2 2.3 5.4 0 1.1-.6 2-1.3 2s-2.3 1.6-3.4 3.5l-1.3 2.4c-1.1 1.9-2 5.3-2 7.6v18.8c0 2.2-1.8 4.1-4.1 4.1h-12c-2.2 0-4.1-1.8-4.1-4.1v-18.9c0-2.2-1-5.6-2-7.6l-1.3-2.4c-1.1-1.9-2.6-3.5-3.4-3.5s-1.3-1-1.3-2c0-1.1 1-3.5 2.3-5.4-.1 0 5.7-8.7 15.7-8.7z"/><path class="st2" d="M1124.2 173.4h-13.4c-2.2 0-5-1.4-6.4-3.4l-10.2-14.9c-1.2-1.8-4.1-3.4-6.4-3.4h-5.3c-2.2 0-5.4-1.2-7.1-2.6l-1.9-1.6c-1.7-1.4-4.9-2.6-7.1-2.6H1049c-2.2 0-5.4-1.2-7.1-2.6l-33-29.5c-1.7-1.4-3-4.6-3-6.7v-8c0-2.2 1.3-5.3 2.9-6.8l11.8-11.8c1.6-1.6 2.9-4.7 2.9-6.8V53.8c0-2.2 1.7-4.7 3.7-5.5l10-3.8c2-.8 3.7-3.2 3.7-5.5v-5.3c0-2.2-1.8-4.1-4.1-4.1H883.7c-2.2 0-4.1 1.8-4.1 4.1v5.4c0 2.2 1.7 4.7 3.7 5.5l10 3.8c2 .8 3.7 3.2 3.7 5.5v18.8c0 2.2 1.3 5.3 2.9 6.8l11.8 11.8c1.6 1.6 2.9 4.7 2.9 6.8v8c0 2.2-1.3 5.3-3 6.7l-33 29.5c-1.7 1.4-4.8 2.6-7.1 2.6H854c-2.2 0-5.4 1.2-7.1 2.6l-1.9 1.6c-1.7 1.4-4.9 2.6-7.1 2.6h-5.4c-2.2 0-5 1.4-6.4 3.4L815.9 170c-1.2 1.8-4.1 3.4-6.4 3.4h-13.4c-2.2 0-4.1 1.8-4.1 4.1v1.3c0 2.2 1.8 4.4 4 5l28.4 7.4c2.2.6 4 2.9 4 5v30.3c-19.9 25.4-31.5 56.7-31.5 90.5 0 64 42 118.9 101.4 141.7v35.5c0 2.2 1.3 5.3 2.9 6.8l7.8 7.8c1.6 1.6 2.9 4.7 2.9 6.8v9.4c0 2.2-1.3 5.3-2.9 6.8l-34.5 34.7c-1.6 1.6-2.9 4.7-2.9 6.8v37.5c0 2.2-1.2 5.3-2.8 7L856.2 631c-1.6 1.6-2.8 4.7-2.8 7v1.3c0 2.2 1.8 4.1 4.1 4.1h22.8c2.2 0 5.6-.8 7.7-1.8l.8-.5c2-1 4.6-3.4 5.9-5.2l16.8-25.3c5.4-2.3 12.1-3.6 19.2-3.6 12.7 0 23.9 4.3 29.5 10.6 5.6-6.4 16.8-10.6 29.5-10.6 7.2 0 13.8 1.3 19.2 3.6l16.8 25.3c1.2 1.8 3.8 4.2 5.9 5.2l.8.5c2 1 5.4 1.8 7.7 1.8h22.8c2.2 0 4.1-1.8 4.1-4.1V638c0-2.2-1.2-5.3-2.8-7l-12.6-12.9c-1.6-1.6-2.8-4.7-2.8-7v-37.5c0-2.2-1.3-5.3-2.9-6.8l-34.7-34.7c-1.6-1.6-2.9-4.7-2.9-6.8v-9.4c0-2.2 1.3-5.3 2.9-6.8l7.8-7.8c1.6-1.6 2.9-4.7 2.9-6.8v-35.6c59.5-22.9 101.4-77.7 101.4-141.7 0-33.9-11.8-65.2-31.5-90.5v-30.3c0-2.2 1.8-4.4 4-5l28.4-7.4c2.2-.6 4-2.9 4-5v-1.3c-.1-2.5-1.9-4.3-4-4.3zM930.7 570.2l.5.5c1.6 1.6 2 3.7 1 4.8-1.1 1.1-2.6 1.1-3.6.1s-1.8-.6-1.8.7-1.2 2.5-2.6 2.5c-1.4 0-2.6-1.1-2.6-2.5 0-1.3-.8-1.7-1.8-.7s-2.6.8-3.6-.1c-1.1-1.1-.6-3.2 1-4.8l.5-.5c1.6-1.6 1.6-4.1 0-5.8l-.7-.4c-1.6-1.6-2-3.7-1-4.8s2.6-1.1 3.6-.1 1.8.6 1.8-.7c0-1.3 1.2-2.5 2.6-2.5 1.4 0 2.6 1.1 2.6 2.5 0 1.3.8 1.7 1.8.7s2.6-.8 3.6.1c1.1 1.1.6 3.2-1 4.8l-.5.5c-1.4 1.7-1.4 4.2.2 5.7zm0-503.5.5.5c1.6 1.6 2 3.7 1 4.8s-2.6 1.1-3.6.1-1.8-.6-1.8.7-1.2 2.5-2.6 2.5c-1.4 0-2.6-1.1-2.6-2.5 0-1.3-.8-1.7-1.8-.7s-2.6.8-3.6-.1c-1.1-1.1-.6-3.2 1-4.8l.5-.5c1.6-1.6 1.6-4.1 0-5.8l-.5-.5c-1.6-1.6-2-3.7-1-4.8 1.1-1.1 2.6-1.1 3.6-.1s1.8.6 1.8-.7 1.2-2.5 2.6-2.5c1.4 0 2.6 1.1 2.6 2.5 0 1.3.8 1.7 1.8.7s2.6-.8 3.6.1c1.1 1.1.6 3.2-1 4.8l-.5.5c-1.6 1.7-1.6 4.2 0 5.8zm36.2 503.5.5.5c1.6 1.6 2 3.7 1 4.8-1.1 1.1-2.6 1.1-3.6.1s-1.8-.6-1.8.7-1.2 2.5-2.6 2.5-2.6-1.1-2.6-2.5c0-1.3-.8-1.7-1.8-.7s-2.6.8-3.6-.1c-1.1-1.1-.6-3.2 1-4.8l.5-.5c1.6-1.6 1.6-4.1 0-5.8l-.5-.5c-1.6-1.6-2-3.7-1-4.8 1.1-1.1 2.6-1.1 3.6-.1s1.8.6 1.8-.7c0-1.3 1.2-2.5 2.6-2.5s2.6 1.1 2.6 2.5c0 1.3.8 1.7 1.8.7s2.6-.8 3.6.1c1.1 1.1.6 3.2-1 4.8l-.5.5c-1.6 1.8-1.6 4.3 0 5.8zm0-503.5.5.5c1.6 1.6 2 3.7 1 4.8-1.1 1.1-2.6 1.1-3.6.1s-1.8-.6-1.8.7-1.2 2.5-2.6 2.5-2.6-1.1-2.6-2.5c0-1.3-.8-1.7-1.8-.7s-2.6.8-3.6-.1c-1.1-1.1-.6-3.2 1-4.8l.5-.5c1.6-1.6 1.6-4.1 0-5.8l-.5-.5c-1.6-1.6-2-3.7-1-4.8 1.1-1.1 2.6-1.1 3.6-.1s1.8.6 1.8-.7 1.2-2.5 2.6-2.5 2.6 1.1 2.6 2.5c0 1.3.8 1.7 1.8.7s2.6-.8 3.6.1c1.1 1.1.6 3.2-1 4.8l-.5.5c-1.6 1.7-1.6 4.2 0 5.8zm36.3 503.5.5.5c1.6 1.6 2 3.7 1 4.8-1.1 1.1-2.6 1.1-3.6.1s-1.8-.6-1.8.7-1.2 2.5-2.6 2.5-2.6-1.1-2.6-2.5c0-1.3-.8-1.7-1.8-.7s-2.6.8-3.6-.1c-1.1-1.1-.6-3.2 1-4.8l.5-.5c1.6-1.6 1.6-4.1 0-5.8l-.5-.5c-1.6-1.6-2-3.7-1-4.8s2.6-1.1 3.6-.1 1.8.6 1.8-.7c0-1.3 1.2-2.5 2.6-2.5s2.6 1.1 2.6 2.5c0 1.3.8 1.7 1.8.7s2.6-.8 3.6.1c1.1 1.1.6 3.2-1 4.8l-.5.5c-1.6 1.8-1.6 4.3 0 5.8zm0-503.5.5.5c1.6 1.6 2 3.7 1 4.8-1.1 1.1-2.6 1.1-3.6.1s-1.8-.6-1.8.7-1.2 2.5-2.6 2.5-2.6-1.1-2.6-2.5c0-1.3-.8-1.7-1.8-.7s-2.6.8-3.6-.1c-1.1-1.1-.6-3.2 1-4.8l.5-.5c1.6-1.6 1.6-4.1 0-5.8l-.5-.5c-1.6-1.6-2-3.7-1-4.8 1.1-1.1 2.6-1.1 3.6-.1s1.8.6 1.8-.7 1.2-2.5 2.6-2.5 2.6 1.1 2.6 2.5c0 1.3.8 1.7 1.8.7s2.6-.8 3.6.1c1.1 1.1.6 3.2-1 4.8l-.5.5c-1.6 1.7-1.6 4.2 0 5.8z"/><path class="st1" d="M910.6 530h99.4c-.8-1.6-1.3-3.2-1.3-4.7v-9.4c0-2.2 1.3-5.3 2.9-6.8l7.8-7.8c.1-.1.2-.2.4-.5H901c.1.1.2.4.4.5l7.8 7.8c1.6 1.6 2.9 4.7 2.9 6.8v9.4c-.1 1.4-.7 3.2-1.5 4.7z"/><path class="st3" d="M894.3 451.7v5.5c1.3.6 2.8 1.2 4.2 1.7v35.5c0 2.2 1.3 5.3 2.9 6.8l7.8 7.8c1 1 1.9 2.6 2.4 4.2h97.7c.5-1.6 1.4-3.2 2.4-4.2l7.8-7.8c1.6-1.6 2.9-4.7 2.9-6.8v-35.5c1-.4 1.9-.8 3-1.2v-6H894.3z"/><ellipse class="st2" cx="962.3" cy="317.5" rx="162.3" ry="155.8"/><path class="st3" d="M913.3 110.8h94c-.8-1.4-1.3-3.1-1.3-4.6v-8c0-1 .2-2.2.7-3.4h-92.8c.5 1.2.7 2.4.7 3.4v8c0 1.3-.5 3.1-1.3 4.6z"/><path class="st1" d="M809.8 173.4h-13.4c-2.2 0-4.1 1.8-4.1 4.1v1.3c0 2.2 1.8 4.4 4 5l28.4 7.4c2.2.6 4 2.9 4 5v5.4H1092v-5.4c0-2.2 1.8-4.4 4-5l28.4-7.4c2.2-.6 4-2.9 4-5v-1.3c0-2.2-1.8-4.1-4.1-4.1h-13.4c-.7 0-1.6-.1-2.3-.5H812.1c-.7.2-1.6.5-2.3.5z"/><path class="st3" d="M827.8 193.6c.5.8.8 1.7.8 2.6v21.2h263.3v-21.2c0-1 .4-1.8.8-2.6H827.8z"/><path d="M1062.2 308.9c-3.7 3.7-3.7 9.8 0 13.5l1.1 1.1c3.7 3.7 4.8 8.8 2.3 11.3s-6.4 2.6-8.6.4-4.2-1.6-4.2 1.7-2.9 5.9-6.4 5.9-6.4-2.6-6.4-5.9c0-3.2-1.9-4-4.2-1.7s-6.1 2.2-8.6-.4c-2.5-2.5-1.4-7.6 2.3-11.3l1.1-1.1c3.7-3.7 3.7-9.8 0-13.5l-1.1-1.1c-3.7-3.7-4.8-8.8-2.3-11.3s6.4-2.6 8.6-.4 4.2 1.6 4.2-1.7 2.9-5.9 6.4-5.9 6.4 2.6 6.4 5.9 1.9 4 4.2 1.7c2.3-2.3 6.1-2.2 8.6.4s1.4 7.6-2.3 11.3l-1.1 1.1zm-85-1.1c3.7-3.7 4.8-8.8 2.3-11.3s-6.4-2.6-8.6-.4c-2.3 2.3-4.2 1.6-4.2-1.7s-2.9-5.9-6.4-5.9c-3.5 0-6.4 2.6-6.4 5.9s-1.9 4-4.2 1.7-6.1-2.2-8.6.4-1.4 7.6 2.3 11.3l1.1 1.1c3.7 3.7 3.7 9.8 0 13.5l-1.1 1.1c-3.7 3.7-4.8 8.8-2.3 11.3s6.4 2.6 8.6.4 4.2-1.6 4.2 1.7 2.9 5.9 6.4 5.9c3.5 0 6.4-2.6 6.4-5.9 0-3.2 1.9-4 4.2-1.7s6.1 2.2 8.6-.4 1.4-7.6-2.3-11.3l-1.1-1.1c-3.7-3.7-3.7-9.8 0-13.5l1.1-1.1zm-86.2 0c3.7-3.7 4.8-8.8 2.3-11.3s-6.4-2.6-8.6-.4c-2.3 2.3-4.2 1.6-4.2-1.7s-2.9-5.9-6.4-5.9-6.4 2.6-6.4 5.9-1.9 4-4.2 1.7-6.1-2.2-8.6.4c-2.5 2.5-1.4 7.6 2.3 11.3l1.1 1.1c3.7 3.7 3.7 9.8 0 13.5l-1.1 1.1c-3.7 3.7-4.8 8.8-2.3 11.3s6.4 2.6 8.6.4 4.2-1.6 4.2 1.7 2.9 5.9 6.4 5.9 6.4-2.6 6.4-5.9c0-3.2 1.9-4 4.2-1.7 2.3 2.3 6.1 2.2 8.6-.4s1.4-7.6-2.3-11.3l-1.1-1.1c-3.7-3.7-3.7-9.8 0-13.5l1.1-1.1z" fill="#e2381b"/><path d="m718.7 385.6-10.1-24.3-9.7 24c-.1.1-.1.4-.2.5-2.3 5.5.4 11.9 6 14 5.5 2.3 11.9-.4 14-6 1.2-2.7 1.1-5.7 0-8.2z" fill="#0289b2"/></svg>