<svg xmlns="http://www.w3.org/2000/svg" viewBox="0 0 1920 673" xml:space="preserve"><style>.st2{fill:#ddd}.st3{fill:#36434f}.st4{fill:#df7148}.st5{fill:#bbb}.st6{opacity:.15;fill:#444;enable-background:new}.st8{fill:#4caf50}.st9{fill:#f4f4f4}.st10{fill:#338738}.st11{fill:#424242}.st12{fill:#81c156}.st14{fill:#826049}.st17{fill:#e5b223}</style><path fill="#2e86b7" d="M0 0h1920v673H0z"/><path d="M444.7 268.1h-2.4c-.6 0-1.2-.5-1.2-1.2v-20c0-.6.5-1.2 1.2-1.2h2.4v22.4zm33 0h2.4c.6 0 1.2-.5 1.2-1.2v-20c0-.6-.5-1.2-1.2-1.2h-2.4v22.4z" fill="#e9e9e9"/><path class="st2" d="M444.1 333.6h34.2v60.1h-34.2v-60.1zm31.3-101.1-12.2-11c-.9-.8-3.1-.8-4 0l-12.2 11c-1.9 1.7-2.9 3.7-2.9 5.7v41.1h34.2v-41.1c0-2.1-1-4-2.9-5.7zm-31.3 69.8h34.2v12.4h-34.2v-12.4z"/><path class="st3" d="M444.1 278.7h34.2v24.2h-34.2v-24.2z"/><path class="st4" d="M444.1 314.1h34.2v12.4h-34.2v-12.4z"/><path class="st5" d="M444.1 368.9h34.2v118.5h-34.2V368.9z"/><path class="st6" d="M444.1 338.3h34.2V369h-34.2v-30.7z"/><path class="st2" d="m447 344.5-2.9-5.2-22.4 82.7c-.9 3.3-1.7 6.7-2.2 10l.5.8h36.5v-66.1c0-7.6-5.5-15.1-9.5-22.2z"/><path class="st3" d="M419.5 432.1c-.6 3.8-1.1 7.7-1.4 11.6l-1.5 23.1 1 .8h38.9v-35.5h-37z"/><path class="st4" d="m416.6 466.7-1.4 20.7h41.3v-20.7h-39.9z"/><path class="st2" d="m475.4 344.5 2.9-5.2 22.5 82.8c.9 3.3 1.7 6.7 2.2 10l-.5.8H466v-66.1c-.1-7.7 5.5-15.2 9.4-22.3z"/><path class="st3" d="M503 432.1c.6 3.8 1.1 7.7 1.4 11.6l1.5 23.1-1 .8H466v-35.5h37z"/><path class="st4" d="m505.9 466.7 1.4 20.7H466v-20.7h39.9z"/><path class="st3" d="M444.1 325.9h34.2v12.4h-34.2v-12.4z"/><path class="st2" d="M463.6 222.7h-4.7v-36c0-.6.5-1.2 1.2-1.2h2.4c.6 0 1.2.5 1.2 1.2v36z"/><path class="st5" d="M467.1 263.6h-11.8c-.6 0-1.2-.5-1.2-1.2v-12.2c0-.6.5-1.2 1.2-1.2h11.8c.6 0 1.2.5 1.2 1.2v12.2c0 .7-.5 1.2-1.2 1.2z"/><path class="st6" d="M460.1 185.6c-.6 0-1.2.5-1.2 1.2v35L447 232.5c-1.9 1.7-2.9 3.7-2.9 5.7v7.5h-1.8c-.6 0-1.2.5-1.2 1.2v20c0 .6.5 1.2 1.2 1.2h1.8v71.2l-22.5 82.8c-.9 3.3-1.7 6.7-2.2 10-.6 3.8-1.1 7.7-1.4 11.6l-1.5 23.1-1.3 20.6h46V185.6h-1.1z"/><path d="M1490.2 256c0-5-3.2-9.3-7.7-10.8 1.2-1.8 1.8-3.9 1.8-6.2 0-5.2-3.5-9.6-8.2-11 .7-1.5 1.1-3.1 1.1-4.9 0-6.4-5.1-11.5-11.5-11.5-1.4 0-2.7.2-3.9.7-.6-5.7-5.5-10.1-11.4-10.1-2.1 0-3.9.5-5.6 1.5-2-1.7-4.5-2.7-7.4-2.7-6.1 0-11 4.7-11.4 10.7-27 1.7-48.4 24.1-48.4 51.5 0 28.5 23.1 51.6 51.6 51.6 21.6 0 40-13.2 47.7-32 .6.1 1.2.2 1.8.2 6.4 0 11.5-5.1 11.5-11.5 0-2.9-1.1-5.6-2.9-7.7 1.8-2.2 2.9-4.8 2.9-7.8z" fill="#cc4b42"/><path class="st8" d="M1451.6 446.7c0-29.3 15.1-53.1 33.9-53.1h.6l4.8-8.8c4.3-7.8 8.5-21.5 9.4-30.3l3.1-31.1c.9-6 1.4-12.1 1.4-18.5 0-8-.8-15.9-2.3-23.5-39.8-1.3-71.8-34-71.8-74.2 0-4.2.4-8.4 1.1-12.4-14.3-6-30-9.4-46.5-9.4-66 0-119.5 53.5-119.5 119.5 0 6.2.5 12.4 1.4 18.5l3.1 31.1c.9 8.8 5.1 22.5 9.4 30.3l4.8 8.8h.6c18.7 0 33.9 23.8 33.9 53.1 0 2.7-.1 5.3-.4 7.9 15.4 19.9 39.6 32.8 66.7 32.8s51.3-12.9 66.7-32.8c-.3-2.6-.4-5.2-.4-7.9z"/><path class="st9" d="M1398.2 410.5c.6 3 2.6 5.5 4.2 5.5h6c1.7 0 3.5-2.5 4.2-5.5l3.6-16.1c.6-3-1.3-5.5-4.4-5.5H1399c-3.1 0-5.1 2.5-4.4 5.5l3.6 16.1z"/><path class="st10" d="m1391.1 403.1 34 4.9c3.2.5 5.5 3.4 5 6.7-.5 3.2-3.5 5.5-6.7 5l-32.3-4.7c-3.2-.5-8.5-.5-11.7 0l-32.9 4.7c-3.2.5-6.2-1.8-6.7-5s1.8-6.2 5-6.7l34.5-5c3.3-.4 8.6-.4 11.8.1z"/><circle class="st10" cx="1331.6" cy="311.2" r="37.1"/><circle class="st9" cx="1331.6" cy="311.2" r="29.8"/><path class="st10" d="M1306.9 293.2h49.5c-5.7-7.4-14.7-12.1-24.8-12.1-10.1-.1-19 4.7-24.7 12.1z"/><circle class="st11" cx="1331.6" cy="311.2" r="13"/><circle class="st9" cx="1326.9" cy="307" r="4.1"/><circle class="st10" cx="1435.4" cy="314.7" r="37.1"/><circle class="st9" cx="1435.4" cy="314.7" r="29.8"/><circle class="st11" cx="1435.4" cy="314.7" r="13"/><circle class="st9" cx="1430.7" cy="310.6" r="4.1"/><path class="st10" d="M1405.6 308.5h59.6c-3-13.7-15.2-23.9-29.8-23.9s-26.8 10.2-29.8 23.9z"/><path class="st11" d="M1393.5 371.5c-2.1-.6-3.7-3.1-3.7-5.6 0-2.5 2.4-3.9 5.2-3.4 2.9.6 6.1 2.7 7.1 4.5 1 1.8 1.4 5.7.8 8.5-.6 2.9-2.1 3.4-3.4 1.1-1.3-2.1-4-4.5-6-5.1zm-16.4 0c2.1-.6 3.7-3.1 3.7-5.6 0-2.5-2.4-3.9-5.2-3.4-2.9.6-6.1 2.7-7.1 4.5-1 1.8-1.4 5.7-.8 8.5.6 2.9 2.1 3.4 3.4 1.1 1.3-2.1 3.9-4.5 6-5.1z"/><circle class="st12" cx="1327.5" cy="229.8" r="8.8"/><circle class="st12" cx="1308" cy="244.5" r="5.9"/><circle class="st12" cx="1348.1" cy="447.3" r="8.8"/><circle class="st10" cx="1364.3" cy="464.7" r="5.6"/><path class="st6" d="M1265.8 305.1c0 6.2.5 12.4 1.4 18.5l3.1 31.1c.9 8.8 5.1 22.5 9.4 30.3l4.8 8.8h.6c18.7 0 33.9 23.8 33.9 53.1 0 2.7-.1 5.3-.4 7.9 15.4 19.9 39.6 32.8 66.7 32.8v-302c-66.1 0-119.5 53.5-119.5 119.5z"/><path d="M960 229.4c-142.5 0-258 115.5-258 258h516c0-142.5-115.5-258-258-258z" fill="#79b1d1"/><path class="st5" d="M787.8 362.9h52.5v124.5h-52.5V362.9z"/><path class="st2" d="M840.2 368.3h239.5v115.1H840.2V368.3z"/><path class="st5" d="M1079.8 362.9h52.5v124.5h-52.5V362.9z"/><path class="st8" d="M787.8 362.9h52.5V375h-52.5v-12.1zm292 0h52.5V375h-52.5v-12.1zm-239.6 5.4h239.5v10.1H840.2v-10.1zm62.8 10.1h20.9v105H903v-105z"/><path class="st3" d="M910.1 387.2h-4v-2.7h4v2.7zm10.7-2.7h-4v2.7h4v-2.7zm-10.7 12.7h-4v-2.7h4v2.7zm10.7-2.6h-4v2.7h4v-2.7zm-10.7 12.7h-4v-2.7h4v2.7zm10.7-2.7h-4v2.7h4v-2.7zm-10.7 12.8h-4v-2.7h4v2.7zm10.7-2.7h-4v2.7h4v-2.7zm-10.7 12.8h-4v-2.7h4v2.7zm10.7-2.7h-4v2.7h4v-2.7zm-10.7 12.8h-4v-2.7h4v2.7zm10.7-2.7h-4v2.7h4v-2.7zm-10.7 12.8h-4V445h4v2.7zm10.7-2.7h-4v2.7h4V445zm-10.7 12.8h-4v-2.7h4v2.7zm10.7-2.7h-4v2.7h4v-2.7zm-10.7 12.8h-4v-2.7h4v2.7zm10.7-2.7h-4v2.7h4v-2.7z"/><path class="st9" d="M918.1 371h-2.6v.7h-.7v.7h-2.7v-.7h-.7v-.7h-2.7l-5.7 3.4v4h20.9v-4l-5.8-3.4z"/><path class="st8" d="M851.2 384.5h12.1v4h-12.1v-4z"/><path class="st3" d="M851.2 378.4h12.1v6.1h-12.1v-6.1zm15.5 1.4h4v5.4h-4v-5.4z"/><path class="st8" d="M851.2 394.6h12.1v4h-12.1v-4z"/><path class="st3" d="M851.2 388.5h12.1v6.1h-12.1v-6.1zm15.5 1.3h4v5.4h-4v-5.4z"/><path class="st8" d="M851.2 404.6h12.1v4h-12.1v-4z"/><path class="st3" d="M851.2 398.6h12.1v6.1h-12.1v-6.1zm15.5 1.3h4v5.4h-4v-5.4z"/><path class="st8" d="M851.2 414.7h12.1v4h-12.1v-4z"/><path class="st3" d="M851.2 408.7h12.1v6.1h-12.1v-6.1zm15.5 1.3h4v5.4h-4V410z"/><path class="st8" d="M851.2 424.8h12.1v4h-12.1v-4z"/><path class="st3" d="M851.2 418.8h12.1v6.1h-12.1v-6.1zm15.5 1.3h4v5.4h-4v-5.4z"/><path class="st8" d="M851.2 434.9h12.1v4h-12.1v-4z"/><path class="st3" d="M851.2 428.9h12.1v6.1h-12.1v-6.1zm15.5 1.3h4v5.4h-4v-5.4z"/><path class="st8" d="M851.2 445h12.1v4h-12.1v-4z"/><path class="st3" d="M851.2 439h12.1v6.1h-12.1V439zm15.5 1.3h4v5.4h-4v-5.4z"/><path class="st8" d="M851.2 455.1h12.1v4h-12.1v-4z"/><path class="st3" d="M851.2 449.1h12.1v6.1h-12.1v-6.1zm15.5 1.3h4v5.4h-4v-5.4z"/><path class="st8" d="M851.2 465.2h12.1v4h-12.1v-4z"/><path class="st3" d="M851.2 459.1h12.1v6.1h-12.1v-6.1zm15.5 1.4h4v5.4h-4v-5.4z"/><path class="st8" d="M874.1 384.5h17.5v4h-17.5v-4z"/><path class="st3" d="M874.1 378.4h17.5v6.1h-17.5v-6.1zm20.8 1.4h4v5.4h-4v-5.4z"/><path class="st8" d="M874.1 394.6h17.5v4h-17.5v-4z"/><path class="st3" d="M874.1 388.5h17.5v6.1h-17.5v-6.1zm20.8 1.3h4v5.4h-4v-5.4z"/><path class="st8" d="M874.1 404.6h17.5v4h-17.5v-4z"/><path class="st3" d="M874.1 398.6h17.5v6.1h-17.5v-6.1zm20.8 1.3h4v5.4h-4v-5.4z"/><path class="st8" d="M874.1 414.7h17.5v4h-17.5v-4z"/><path class="st3" d="M874.1 408.7h17.5v6.1h-17.5v-6.1zm20.8 1.3h4v5.4h-4V410z"/><path class="st8" d="M874.1 424.8h17.5v4h-17.5v-4z"/><path class="st3" d="M874.1 418.8h17.5v6.1h-17.5v-6.1zm20.8 1.3h4v5.4h-4v-5.4z"/><path class="st8" d="M874.1 434.9h17.5v4h-17.5v-4z"/><path class="st3" d="M874.1 428.9h17.5v6.1h-17.5v-6.1zm20.8 1.3h4v5.4h-4v-5.4z"/><path class="st8" d="M874.1 445h17.5v4h-17.5v-4z"/><path class="st3" d="M874.1 439h17.5v6.1h-17.5V439zm20.8 1.3h4v5.4h-4v-5.4z"/><path class="st8" d="M874.1 455.1h17.5v4h-17.5v-4z"/><path class="st3" d="M874.1 449.1h17.5v6.1h-17.5v-6.1zm20.8 1.3h4v5.4h-4v-5.4z"/><path class="st8" d="M874.1 465.2h17.5v4h-17.5v-4z"/><path class="st3" d="M874.1 459.1h17.5v6.1h-17.5v-6.1zm20.8 1.4h4v5.4h-4v-5.4zm-28.2 10.1h4v5.4h-4v-5.4z"/><path class="st14" d="M854.2 473.3h6.1v10.1h-6.1v-10.1z"/><path class="st3" d="M894.9 470.6h4v5.4h-4v-5.4zm-16.1 0h8.1v5.4h-8.1v-5.4z"/><path class="st14" d="M904.4 473.3h18.2v10.1h-18.2v-10.1z"/><path class="st3" d="M849.5 384.5h-4v2.7h4v-2.7zm0 10.1h-4v2.7h4v-2.7zm0 10h-4v2.7h4v-2.7zm0 10.1h-4v2.7h4v-2.7zm0 10.1h-4v2.7h4v-2.7zm0 10.1h-4v2.7h4v-2.7zm0 10.1h-4v2.7h4V445zm0 10.1h-4v2.7h4v-2.7zm0 10.1h-4v2.7h4v-2.7zm77.7-85.4h4v5.4h-4v-5.4zm0 10h4v5.4h-4v-5.4zm0 10.1h4v5.4h-4v-5.4zm0 10.1h4v5.4h-4V410zm0 10.1h4v5.4h-4v-5.4zm0 10.1h4v5.4h-4v-5.4zm0 10.1h4v5.4h-4v-5.4zm0 10.1h4v5.4h-4v-5.4zm0 10.1h4v5.4h-4v-5.4z"/><path class="st8" d="M934.6 384.5h17.5v4h-17.5v-4z"/><path class="st3" d="M934.6 378.4h17.5v6.1h-17.5v-6.1zm20.9 1.4h4v5.4h-4v-5.4z"/><path class="st8" d="M934.6 394.6h17.5v4h-17.5v-4z"/><path class="st3" d="M934.6 388.5h17.5v6.1h-17.5v-6.1zm20.9 1.3h4v5.4h-4v-5.4z"/><path class="st8" d="M934.6 404.6h17.5v4h-17.5v-4z"/><path class="st3" d="M934.6 398.6h17.5v6.1h-17.5v-6.1zm20.9 1.3h4v5.4h-4v-5.4z"/><path class="st8" d="M934.6 414.7h17.5v4h-17.5v-4z"/><path class="st3" d="M934.6 408.7h17.5v6.1h-17.5v-6.1zm20.9 1.3h4v5.4h-4V410z"/><path class="st8" d="M934.6 424.8h17.5v4h-17.5v-4z"/><path class="st3" d="M934.6 418.8h17.5v6.1h-17.5v-6.1zm20.9 1.3h4v5.4h-4v-5.4z"/><path class="st8" d="M934.6 434.9h17.5v4h-17.5v-4z"/><path class="st3" d="M934.6 428.9h17.5v6.1h-17.5v-6.1zm20.9 1.3h4v5.4h-4v-5.4z"/><path class="st8" d="M934.6 445h17.5v4h-17.5v-4z"/><path class="st3" d="M934.6 439h17.5v6.1h-17.5V439zm20.9 1.3h4v5.4h-4v-5.4z"/><path class="st8" d="M934.6 455.1h17.5v4h-17.5v-4z"/><path class="st3" d="M934.6 449.1h17.5v6.1h-17.5v-6.1zm20.9 1.3h4v5.4h-4v-5.4z"/><path class="st8" d="M934.6 465.2h17.5v4h-17.5v-4z"/><path class="st3" d="M934.6 459.1h17.5v6.1h-17.5v-6.1zm20.9 1.4h4v5.4h-4v-5.4zm0 10.1h4v5.4h-4v-5.4zm-16.2 0h8.1v5.4h-8.1v-5.4z"/><path class="st8" d="M1003.9 378.4h20.9v105h-20.9v-105z"/><path class="st3" d="M1011 387.2h-4v-2.7h4v2.7zm10.8-2.7h-4v2.7h4v-2.7zm-10.8 12.7h-4v-2.7h4v2.7zm10.8-2.6h-4v2.7h4v-2.7zm-10.8 12.7h-4v-2.7h4v2.7zm10.8-2.7h-4v2.7h4v-2.7zm-10.8 12.8h-4v-2.7h4v2.7zm10.8-2.7h-4v2.7h4v-2.7zm-10.8 12.8h-4v-2.7h4v2.7zm10.8-2.7h-4v2.7h4v-2.7zm-10.8 12.8h-4v-2.7h4v2.7zm10.8-2.7h-4v2.7h4v-2.7zm-10.8 12.8h-4V445h4v2.7zm10.8-2.7h-4v2.7h4V445zm-10.8 12.8h-4v-2.7h4v2.7zm10.8-2.7h-4v2.7h4v-2.7zm-10.8 12.8h-4v-2.7h4v2.7zm10.8-2.7h-4v2.7h4v-2.7z"/><path class="st9" d="M1019 371h-2.6v.7h-.7v.7h-2.7v-.7h-.7v-.7h-2.7l-5.7 3.4v4h20.9v-4l-5.8-3.4z"/><path class="st3" d="M967.6 379.8h4v5.4h-4v-5.4zm0 10h4v5.4h-4v-5.4zm0 10.1h4v5.4h-4v-5.4zm0 10.1h4v5.4h-4V410zm0 10.1h4v5.4h-4v-5.4zm0 10.1h4v5.4h-4v-5.4zm0 10.1h4v5.4h-4v-5.4zm0 10.1h4v5.4h-4v-5.4zm0 10.1h4v5.4h-4v-5.4z"/><path class="st8" d="M975 384.5h17.5v4H975v-4z"/><path class="st3" d="M975 378.4h17.5v6.1H975v-6.1zm20.9 1.4h4v5.4h-4v-5.4z"/><path class="st8" d="M975 394.6h17.5v4H975v-4z"/><path class="st3" d="M975 388.5h17.5v6.1H975v-6.1zm20.9 1.3h4v5.4h-4v-5.4z"/><path class="st8" d="M975 404.6h17.5v4H975v-4z"/><path class="st3" d="M975 398.6h17.5v6.1H975v-6.1zm20.9 1.3h4v5.4h-4v-5.4z"/><path class="st8" d="M975 414.7h17.5v4H975v-4z"/><path class="st3" d="M975 408.7h17.5v6.1H975v-6.1zm20.9 1.3h4v5.4h-4V410z"/><path class="st8" d="M975 424.8h17.5v4H975v-4z"/><path class="st3" d="M975 418.8h17.5v6.1H975v-6.1zm20.9 1.3h4v5.4h-4v-5.4z"/><path class="st8" d="M975 434.9h17.5v4H975v-4z"/><path class="st3" d="M975 428.9h17.5v6.1H975v-6.1zm20.9 1.3h4v5.4h-4v-5.4z"/><path class="st8" d="M975 445h17.5v4H975v-4z"/><path class="st3" d="M975 439h17.5v6.1H975V439zm20.9 1.3h4v5.4h-4v-5.4z"/><path class="st8" d="M975 455.1h17.5v4H975v-4z"/><path class="st3" d="M975 449.1h17.5v6.1H975v-6.1zm20.9 1.3h4v5.4h-4v-5.4z"/><path class="st8" d="M975 465.2h17.5v4H975v-4z"/><path class="st3" d="M975 459.1h17.5v6.1H975v-6.1zm20.9 1.4h4v5.4h-4v-5.4zm0 10.1h4v5.4h-4v-5.4zm-16.2 0h8.1v5.4h-8.1v-5.4z"/><path class="st14" d="M1005.3 473.3h18.2v10.1h-18.2v-10.1z"/><path class="st3" d="M1028.2 379.8h4v5.4h-4v-5.4zm0 10h4v5.4h-4v-5.4zm0 10.1h4v5.4h-4v-5.4zm0 10.1h4v5.4h-4V410zm0 10.1h4v5.4h-4v-5.4zm0 10.1h4v5.4h-4v-5.4zm0 10.1h4v5.4h-4v-5.4zm0 10.1h4v5.4h-4v-5.4zm0 10.1h4v5.4h-4v-5.4z"/><path class="st8" d="M1035.6 384.5h17.5v4h-17.5v-4z"/><path class="st3" d="M1035.6 378.4h17.5v6.1h-17.5v-6.1zm20.8 1.4h4v5.4h-4v-5.4z"/><path class="st8" d="M1035.6 394.6h17.5v4h-17.5v-4z"/><path class="st3" d="M1035.6 388.5h17.5v6.1h-17.5v-6.1zm20.8 1.3h4v5.4h-4v-5.4z"/><path class="st8" d="M1035.6 404.6h17.5v4h-17.5v-4z"/><path class="st3" d="M1035.6 398.6h17.5v6.1h-17.5v-6.1zm20.8 1.3h4v5.4h-4v-5.4z"/><path class="st8" d="M1035.6 414.7h17.5v4h-17.5v-4z"/><path class="st3" d="M1035.6 408.7h17.5v6.1h-17.5v-6.1zm20.8 1.3h4v5.4h-4V410z"/><path class="st8" d="M1035.6 424.8h17.5v4h-17.5v-4z"/><path class="st3" d="M1035.6 418.8h17.5v6.1h-17.5v-6.1zm20.8 1.3h4v5.4h-4v-5.4z"/><path class="st8" d="M1035.6 434.9h17.5v4h-17.5v-4z"/><path class="st3" d="M1035.6 428.9h17.5v6.1h-17.5v-6.1zm20.8 1.3h4v5.4h-4v-5.4z"/><path class="st8" d="M1035.6 445h17.5v4h-17.5v-4z"/><path class="st3" d="M1035.6 439h17.5v6.1h-17.5V439zm20.8 1.3h4v5.4h-4v-5.4z"/><path class="st8" d="M1035.6 455.1h17.5v4h-17.5v-4z"/><path class="st3" d="M1035.6 449.1h17.5v6.1h-17.5v-6.1zm20.8 1.3h4v5.4h-4v-5.4z"/><path class="st8" d="M1035.6 465.2h17.5v4h-17.5v-4z"/><path class="st3" d="M1035.6 459.1h17.5v6.1h-17.5v-6.1zm20.8 1.4h4v5.4h-4v-5.4zm0 10.1h4v5.4h-4v-5.4zm-16.1 0h8.1v5.4h-8.1v-5.4zm26.2-90.8h8.1v5.4h-8.1v-5.4zm0 10h8.1v5.4h-8.1v-5.4zm0 10.1h8.1v5.4h-8.1v-5.4zm0 10.1h8.1v5.4h-8.1V410zm0 10.1h8.1v5.4h-8.1v-5.4zm0 10.1h8.1v5.4h-8.1v-5.4zm0 10.1h8.1v5.4h-8.1v-5.4zm0 10.1h8.1v5.4h-8.1v-5.4zm0 10.1h8.1v5.4h-8.1v-5.4zm0 10.1h8.1v5.4h-8.1v-5.4z"/><path class="st14" d="M1027.1 473.3h6.1v10.1h-6.1v-10.1zm-100.9 0h6.1v10.1h-6.1v-10.1zm40.4 0h6.1v10.1h-6.1v-10.1z"/><path class="st2" d="M855.6 361.6h3.4v6.7h-3.4v-6.7z"/><path class="st3" d="M855.6 359.6h3.4v1.3h-3.4v-1.3z"/><path class="st2" d="M895.3 361.6h3.4v6.7h-3.4v-6.7z"/><path class="st3" d="M895.3 359.6h3.4v1.3h-3.4v-1.3z"/><path class="st2" d="M927.6 361.6h3.4v6.7h-3.4v-6.7z"/><path class="st3" d="M927.6 359.6h3.4v1.3h-3.4v-1.3z"/><path class="st2" d="M996.2 361.6h3.4v6.7h-3.4v-6.7z"/><path class="st3" d="M996.2 359.6h3.4v1.3h-3.4v-1.3z"/><path class="st2" d="M1028.5 361.6h3.4v6.7h-3.4v-6.7z"/><path class="st3" d="M1028.5 359.6h3.4v1.3h-3.4v-1.3z"/><path class="st2" d="M867 365.6h3.4v2.7H867v-2.7z"/><path class="st3" d="M867 363.6h3.4v1.3H867v-1.3z"/><path class="st2" d="M917.1 365.6h3.4v2.7h-3.4v-2.7z"/><path class="st3" d="M917.1 363.6h3.4v1.3h-3.4v-1.3z"/><path class="st2" d="M955.8 365.6h3.4v2.7h-3.4v-2.7z"/><path class="st3" d="M955.8 363.6h3.4v1.3h-3.4v-1.3z"/><path class="st2" d="M967.9 365.6h3.4v2.7h-3.4v-2.7z"/><path class="st3" d="M967.9 363.6h3.4v1.3h-3.4v-1.3z"/><path class="st2" d="M1007.3 365.6h3.4v2.7h-3.4v-2.7z"/><path class="st3" d="M1007.3 363.6h3.4v1.3h-3.4v-1.3z"/><path class="st2" d="M1042.6 365.6h3.4v2.7h-3.4v-2.7z"/><path class="st3" d="M1042.6 363.6h3.4v1.3h-3.4v-1.3z"/><path class="st2" d="M1068.9 365.6h3.4v2.7h-3.4v-2.7z"/><path class="st3" d="M1068.9 363.6h3.4v1.3h-3.4v-1.3z"/><path class="st2" d="M812.3 360.2h3.4v2.7h-3.4v-2.7z"/><path class="st3" d="M812.3 358.2h3.4v1.3h-3.4v-1.3z"/><path class="st2" d="M1104.3 360.2h3.4v2.7h-3.4v-2.7z"/><path class="st3" d="M1104.3 358.2h3.4v1.3h-3.4v-1.3z"/><path class="st6" d="m840.2 408-52.5-23.5v102.9h52.5V408zm239.6 75.4V476L964 455.8V437l-123.8-37v83.4h239.6z"/><path fill="#c6c6c6" d="M840.2 483.4h239.5v4H840.2z"/><circle cx="568.4" cy="161.6" r="61.2" fill="#ffe082"/><path class="st17" d="m509.1 176.1 1.5 2.2c-.1.9.7 1.6 1.2 2.4.8 1 1.5 2.4.9 3.6.6-.6.9-1.4.9-2.2.6.4.8 1.2 1 1.9.1.7.2 1.5.6 2.1.6.9 2.5.4 2.3 1l-.2.7c.5.2 1.4-.7 1.5-1.2.1-.4 1.2.1 1.5.4.3.3 1.2 0 1.4-.1.2-.2.4.5.4.7 0 .2.1.3.2.3s.1-.2.1-.5v-.3l-.2-.9c.5-.4.9-.9.9-1 0-.1-.2-.4-.2-.3s-.2-.2-.3-.4c0-.1-.1-.2-.2-.2 0 0-.1.5-.1.6 0 .2-.1.3-.2.3 0 0-.3-.8-.4-1.1-.1-.3.3-.6.5-.6s.4-1.3.4-1.7c0-.5-.2-1-.3-1.4.8.2 1.2.9 1.4 1.7l.6 2.1c.1.4.2.8.1 1.2-.2.4-.7.6-1 .3-.4.3 0 .9.5 1 .5.1 1.1.1 1.3.5.3.5-.4 1.1-1 1.1s-1.2-.2-1.8 0c-.5.2-.9.7-1.1 1.2-.3.8-.5 1.7-.3 2.6.5 2.6 3 4.3 4.2 6.6.3.5.5 1.1 1 1.3.5.3 1.3.1 1.3-.4 1.7 1 3.3 2.2 4.8 3.5-.5-.4-.4-2.1-.2-2.6.2-.6 1.2-1.4 1.2-1.9 0-.2-.1-.3-.1-.5-.1-.4 0-.8.3-1.1.5.1.6 1.1 1.1 1 .1 0 .2-.2.4-.2.5-.1 1 .8 1.3.4-.5-.9-1-1.8-1.4-2.7.5.3 1.1.1 1.5.4.5.3.7 1 .7 1.6 0 .3 0 .7-.1 1 .5 0 1.1.1 1.1.6-.6-.5-1.6-.4-2.1.3-.3.4-.4.8-.6 1.2-.2.4-.7.7-1.1.4.1.9.3 1.8.9 2.5 1.2 1.4 3.6 1 4.9 2.3-.3-1-1.1-1.9-2.1-2.2.3 0 .6-.1.9-.1l-.6-.4c.5-.4 1.3-.4 1.8 0-1 1.1 1.3.8 1.7.5.3-.2.4-1.1.7-1.2.3-.2-.5-.6-.7-.7-.3-.1-.6.2-.6.4s-.4-.1-.4-.2c-.1-.1-.3-.1-.3 0l-1-.2-.4-.1-.4-.1c-.5-.1-.7-.8-.7-1 0-.2.3-.3.4-.2.1 0 .2-.3.2-.4s.5.1.7.1c.2.1.5 0 .5 0s-.2-.5-.3-.7c-.1-.2.5-.1.7 0 .2.1 1.1.6 1.3.7.3.1.5.1.5.1l-.4-.4c-.1-.1.3-1.6-.2-2.1-.4-.4-1.4-1.9-1.9-2.1-.5-.2-.8-1.1-.7-1.4 0-.3.2-.5.2-.5l1.4 2.1c.4.6.9 1.3 1 1.5 1.2 1.2 2.4 2.5 3.8 3.5-.3-.7-.5-1.5-.8-2.2.4.4.6.8 1 1.2.4.4.9.6 1.4.4.3-.1.5-.5.8-.6.2-.1.5-.2.7-.2 1.2-.2 2.5-.4 3.7-.5.6-.1 1.5 0 1.6.6.2-.6.7-1.3 1.3-1.1.1 0 .3.2.4.2.4.2.9-.2 1-.6.2-.9 0-2.6-.1-3.6 0-.2-.2-.5-.4-.5s-.4.5-.4.8c0 .1-1.5-.2-1.3-1.1.2-1.5.6-2.9 1-4.4.2-.8.5-1.6 1.2-2-.9.1-1.8.3-2.5-.1-.8-.4-1.2-1.5-.6-2.1.4-.5 1.1-.4 1.7-.3.8.2 1.5.7 2 1.3 1.8-2.9-2.4-2.1-3.8-2.7.7-2.8-1.1-5.6-2.9-7.9-.3-.4-.6-.8-1.1-1-.5-.1-1.1.1-1.1.6-.3-.3-.3-.9.1-1.2-.2-.3-.6-.5-1-.5.2.8.1 1.7-.4 2.4.6.4 1.1 1 1.3 1.8l-1.2.6c.9 1.2 1.8 2.5 2 4s-.5 3.2-2 3.6c0-1.7-.9-3.3-2.2-4.3-.3-.2-.6-.4-.8-.8-.1-.2-.1-.5-.2-.8-.1-.5-.5-.8-.9-1.1-1-.9-1.5-2.2-1.6-3.5-1 .3-1.7 1.5-1.5 2.5-.8-1.5-.7-3.4.3-4.8 0 .8 1.2 1.1 1.7.5.5-.6.3-1.6-.3-2.1.4.2.8.2 1.1.2-.6-1.1-1.4-2.2-2.4-3.1l-.6 2.1c-.4-.8-1.6-1.1-2.2-.5-.5-.9-.6-2-.5-3-.5.1-1 .5-1.1 1.1-1.1-1.1-.6-2.8-1.4-3.8-.2-.3-.6-.3-.9-.4-1.5-.3-3.2-1.2-3.2-2.7l4.5-.6c-.9-1.1-2.4-1.8-3.8-1.6.9-.3 1.9-.5 2.8-.8-1.2-.2-2.2-1.3-2.5-2.5-.3-1.2.3-2.6 1.3-3.3-.7-.5-1.2-1.2-1.4-2.1 1.5 0 3-.5 4.1-1.6.2-.2.5-.5.8-.6 1.4-.5 2.3 2 3.8 2.2.5 0 1-.2 1.5-.4.9-.3 1.9-.1 2.8-.5.9-.3 1.7-1.4 1.2-2.2.6.3.8 1.2.5 1.8l1.8-.5c-.1.8 1 1.4 1.8 1.1.8-.3 1.3-1 1.8-1.7s1.2-1.4 2-1.4c-.7.5-.9 1.9-.2 2.6 1.3 1.3 1.3-.8 1.6-.8 1.7-.1 2.7-.8 3.8-1.9l.1-.1c.3.1.8-.7.9-1 .1-.3-.1-.7-.5-.8l-.2-.2s.1-.4.2-.5l.1-.2c.1-.2 0-.5-.3-.5h-.6c-.4.1-1.5.1-1.8 0-.1 0-1.2-1.2-1.4-1.3-.7-.8-1.7-1.6-1.5-2.8.2-1.4 1.9-2.1 3.3-2.3-.3-1.3.8-2.8 2.2-2.8.4 0 .8.1 1.3.1.4 0 .9-.1 1.1-.5.2-.4-.1-1-.5-.9-.3.2-.6.5-.9.7.1-1.4.2-2.9.3-4.3 0-.3 0-.7-.2-.9-.2-.2-.5-.2-.7-.4-.5-.5 0-1.6-.7-1.9.9.2 1.9-.3 2.5-1 .6-.6 1-1.4 1.3-2.2 0 0 0-.1.1-.2 0 0 0 .1-.1.2 0 .3.5.6.8.4.4-.3.3-.9 0-1.3s-.6-.7-.9-1.1c-.8-1.4-.8-2-2.5-2.8-1.3-.6-2.7-.9-4.1-1.4-1.3-.5-2.3-1.5-3.6-2-.8-.3-1.8-.2-2.3.5-.1.1-.2.3-.4.4-.2 0-.4-.1-.3-.3-.3.6-2.5 1.3-3.2 1.8-.8.6-1.6 1.7-2.4 2.2-.2-.7-.2-1.4-.3-2.1-.2-.8-.9-1.6-1.7-1.2-.1 0-.2.1-.3.2-.2.3 0 .7.3.8s.6.1 1 .1c-1.3 1.4-4 .4-5.4 1.7-.8.7-.9 1.8-1.2 2.8-.3 1-1 2.1-2.1 2 0-1.6.3-3.3 1-4.8-.4.4-1.2.3-1.5-.1-.1.5-.2 1.1-.5 1.6-.1.2-.2.4-.4.4-.3.1-.6-.2-.9-.4-.3-.2-.8-.3-.9 0-.1-.4 0-.9.4-1.2-.3-.2-.7-.5-.8-.9-.1-.4.2-.9.6-.9l-.4.5c1.4.2 3-.3 4.1-1.2 1.1-1 1.7-2.5 1.6-3.9.5 0 .9.4.9.9s-.2.9-.4 1.3c2.1-1 4.3-1.7 6.4-2.6.5-.2.9-.6.9-1.2 0-.5-.5-1-1.1-.8 0-.2-.1-.3-.1-.5-.9 0-1.8 0-2.7.1-.8.1-1.5-.1-1.5-.3 0-.2-2.3 1.2-3.2 1h-.4C518 121.1 507 140 507 161.4c0 4.7.5 9.2 1.5 13.6 0 0 .1 0 .1.1.5.4.8.8.5 1zm26.1 9.6c.1 0 .2 0 .3-.1.2-.2.1-.5 0-.8-.1-.3-.1-.6.1-.8h.4c.6.1 2.9-1.2 2.8-.1 0 .1-.1.3-.1.4v.5c.2.9.1 1.7 0 2.6 0 .1 0 .3-.2.4h-.3c-.2 0-.3.3-.5.4-.1.1-.5.2-.5 0-.3 0-.4.5-.3.8.1.7.3 1.4 0 2.1-.3.6-1.2 1-1.7.5-.3-.4-.2-1-.5-1.4-.2-.4-.9-.5-1.3-.3v1.3c0 .2 0 .4-.2.5-.3.2-.6-.1-.8-.4.1.3 0 .7-.2.9-.3.2-.7.2-.9 0-.1-.6-.4-1.1-.7-1.5.1-.1.3-.1.4 0-.2-.5-.5-1-.7-1.5.4.2.9.2 1.3 0 .1-.1.3-.2.5-.2.3 0 .5.4.8.4.2 0 .4-.2.4-.4s0-.4-.1-.6c.7 0 1.4.1 2.1.5-.1.3-.1.6 0 .9.4-.5.7-1.2.3-1.6-.1-.1-.3-.2-.4-.3-.1-.2-.1-.5-.1-.7 0-.6-.1-1.2-.4-1.8.1.2.3.3.5.3zm-4.8-8.6c0-.4.2-.7.4-1.1.3-.5.7-.9.7-1.5 0-.1-.1-.3-.1-.5 0-.1.1-.3.3-.3v1.6c.1.1.2.1.3.1.3 0 .6.2.7.4.2-.5.3-.9.7-1.2.4-.3 1-.4 1.3 0-.3 0-.5.3-.5.6-.2 0-.4 0-.6.1-.1.2.3.4.4.6v.3c-.1.6-.7 4.5-2 3-.2-.3-.3-.6-.5-.9-.2-.3-.7-.4-.9-.1-.2-.3-.2-.7-.2-1.1zm-9.1-18.4c.2-.9.9-1.6 1.1-2.5.1-.3.1-.6.2-.8.4-.8 1.1-.3 1.2.4 0 .2.4.2.6.1.2-.1.2.4.1.6 0 0 1.5-.3 1.2-1.3.4 1.1.9 2.3.8 3.5 0 .2 0 .5.1.7s.4.3.6.1c.2.3.1.7-.1 1s-.6.3-1 .2c-.4 1.3-.8 2.5-1.2 3.8-.1.3-.2.6-.5.8-.2.2-.7.1-.8-.1l.8-.8c-.6-.8-.8-1.7-.7-2.7-.3.1-.6-.2-.9-.4s-.6-.5-.9-.3c-.3-.6-.7-1.2-.7-1.9.1-.3.1-.3.1-.4z"/><path class="st17" d="M562.2 122.4s0-.1.1-.2c-.1.1-.1.1-.1.2zm32.3 22.4s-.1.1-.1.2c0-.1.1-.1.1-.2zm1.6-15.5s-.1.1-.2.1c.1 0 .1 0 .2-.1zm-28.2 4.2c0 .4 0 .9.2 1.3.2-.4.1-1-.2-1.3zm56.1 18.3s-.1 0 0 0c-.1 0-.1.1-.1.2 0-.1.1-.1.1-.2zm-4.4 23.1c.1 0 .1 0 0 0zm4.4-27.7z"/><path class="st17" d="M627.2 152.8c.2.5-.3 1.3-.6.9.3-.4.4-.9.2-1.4-1.1 0-2.2.5-3 1.3-.5-.5-.8-1.2-.7-1.9.2 0 .5 0 .7.1 0-.3 0-.6.1-.9-.4.3-1-.1-.9-.5 0-.9.1-1.8.2-2.7.2.3.8.1.8-.2v-.1.1c.2.6.4 1.3.5 1.9.5-1.8.4-3.8-.5-5.5-.2-.4-.5-.9-.3-1.3.1-.5.8-1 .5-1.5.2.5.4.9.6 1.3 0-.5 0-1.1-.4-1.5-.4-.4-1.3-.1-1.1.4-.1-.5-.5-.8-1-.9.6-.6.6-1.8 0-2.4.2.3-.2.7-.5.6-.1-.8-.1-1.6 0-2.4-.3.3-.7.5-1 .8-.3-.4-.5-.8-.8-1.2.2 1.1 0 2.2-.5 3.1-.4-.8-.8-1.5-1.3-2.3.2.3.8.2 1-.1.2-.3.2-.8.2-1.2-.8 0-1.5 0-2.3-.2.2.3.5.6.7 1-.6.5-1.4.5-2.1.1-.2.7-.3 1.5-.1 2.2-.4-.3-.7-.6-1.1-.9.5 1.1-.6 2.5-1.7 2.2-1.3 1.3-1.1 3.8.4 4.9-.4.2-.4.8-.2 1.2.2.4.6.7.8 1.1.2.5.2 1 .2 1.6.1 2.3 1.7 4.4 3.9 5.1.7.2 1.6.2 2-.5.2.4.1.9-.2 1.3.8-.5 1.4-1.2 1.8-2.1.8 1.1.9 2.7.3 3.9l1.1-.2c.1.4.3.8.4 1.2.4-.7.5-1.5.4-2.2.6-.1 1.1-.2 1.7-.3-1.2.7-1.4 2.4-1.3 3.8.1 1.4.4 2.9-.1 4.2-.5-.7-.6-1.6-.3-2.4-1.5.6-3 1-4.6 1-3.1-2.1-6-4.4-8.6-7.1-.5-.5-1.4-1.1-1.9-.5.3-.4-.2-1-.7-1.1s-1 0-1.5-.1c-1.2-.2-1.7-1.5-2.1-2.7-.4-1.4-.7-3.2.5-3.9l-3.6-1.2c.4-.7.6-2-.3-2.2-.6-.1-1 .5-1.1 1.1s0 1.2-.3 1.7l-1.1-.6c-.6.7-.7 1.7-.3 2.5-.6.3-1 1.1-.7 1.7-.7-.3-.9-1.4-.4-2-.7.1-1.3.5-1.6 1.2-.6-.9-1.5-1.6-2.5-1.9.6-.1 1.1-.5 1.4-1-.2 0-.6-.4-.5-.8l.3-3c-.8.3-1.4-.7-1.3-1.5.1-.8.5-1.5.6-2.3.2-2.8-4.2-3.6-5.2-6.2.5-.4 1-.9 1.5-1.3-.2-.4-.4-.7-.6-1.1.4-.7 1.2-1.1 2-1-.1.8 0 1.6.2 2.4l1.2-.6c.4.6.8 1.2 1.2 1.7.7-.6 1.4-1.3 2.2-1.9-.3.1-.7-.3-.6-.6.1-.4.6-.6 1-.7.5.5 1.2.9 1.9 1 .2-.3.2-.7 0-1-.9 0-1.8-.5-2.2-1.4-.2-.5-.3-1-.5-1.4-.7-1.6-2.9-2.3-4.4-1.4.5.3.8 1.1.5 1.6-.3.5-1.1.7-1.6.4.1.5-.1 1-.5 1.3-.3-.7-.9-1.3-1.6-1.6.6-.4.6-1.6-.1-1.9-.5.4-1.1.7-1.7.9-.4-1.1-1.1-2-2.1-2.5-.4.4-.8.6-1.3.8.1.3.4.6.7.7-.4.3-.8.7-1.2 1 .6 0 .3 1.1.5 1.7.1.6.8.8 1.4 1.1.5.3 1.1.8.9 1.4-1.2 1.2-3.6.9-4.5-.5-1.3-.8-2.7-1.3-4.2-1.2-1.5.1-3 .9-3.7 2.2.6 2-1.4 3.8-3.2 4.9-.4.2-.7.5-1.1.7.2.6.6 1.3.9 1.9.6 1.4.8 2.9.7 4.4-.2.3-.5.5-.9.5.2.2.5.4.7.6-.3-.2-.7.2-.6.5-.2 1.2-.4 2.4-.5 3.6-.5.3-2.9 1.4-1.4 1.9.5.2 1-.2 1.1-.6.8 0 1.3 1.1.9 1.7-1.2.3-2.6.3-3.8 0 0-.7-.3-1.4-.9-1.8-.5.3-.2 1 0 1.5s.4 1.3-.2 1.4l-.3-.6c-1.9.3-3.2 2.8-2.3 4.5-.6-.7-1.3-1.4-2.2-1.8s-2.1-.2-2.6.5c-1.2-2-4-2.7-6-1.6l.6 1.8c.8-.4 1.9.3 2 1.2 0 .3-.1.7-.2 1l-.6 1.8c-.3.7-.9 1.6-1.5 1.2.8.5.6 1.8-.1 2.4-.8.6-1.8.6-2.8.6.2.4.5.7.7 1.1-1.1-.4-2.2-.8-3.3-1.3-.6-.2-1.3.1-1.6.7-.3.5 0 1.3.5 1.6-.4-.1-.9-.1-1.3-.2-.5.2-.3 1 0 1.5 1.1 1.9 1.9 3.9 2.3 6 .6-.5 1.6-.5 2.2-.1-.4.3-.5.9-.3 1.4.6-1.2 2.4-1.6 3.4-.7.3-.8-.4-1.9-1.3-1.8.4-.1.8-.3 1.2-.4 0 .5.6 1 1.1.9s.9-.8.6-1.3c.4 0 .9 0 1.3-.1.6-.7 1.2-1.4 1.8-2.2.2.7.9 1.1 1.6 1 .7 0 1.3-.4 1.9-.7-.1-1.3-.8-2.3-1.4-3.5-.5-1.1-.9-2.6-.2-3.6-.3-.2-.7-.4-1-.5 2.1-.2 3.7-2.2 5.8-2.5 2-.2 3.8 1.2 5.3 2.6-.2-.5.5-.7 1-.6l4.8 1.1c.1-.7.3-1.4.6-2.1.5 0 1 0 1.4-.2 0-.3-.2-.5-.3-.7-.1-.2-.1-.7 0-.9.1-.2.5-.3.6-.3.1 0 .5-.5.6-.7.1-.2.4.3.5.5.1.2.4-.2.5-.4.1-.2.6.4.7.6.1.2 0-.8-.5-1-.5-.1-.8-1.1-.8-1.4 0-.3 1-.3 1-.6 0-.4.2-.7.5-.7h.2l.1-.3c.1-.3-.3-1.7-.5-2.1-.2-.4-.8-.9-1.2-1.2l-.5.2c-.4.2-.8.4-1.1.4-.5 0-.8.3-.9.7-.1 0-.3-.2-.4-.3s.2-.3.5-.5l.3-.2.3-.1c.3-.2.5-.8.5-1 0-.2 0-.5.1-.5 0 0 1.1.6 1.6.8.4.2 1.6.8 1.9.9.3.1 2 0 2.5.3.4.3 1.7.7 2 .6.3-.1 1.7-.4 1.9-.3.2.1 0 1.2-.2 1.6-.1.3-.4.5-.4.5s.1-.2.1-.3c.1-.1-.7-.2-1-.2-.3 0-.5-.1-.5-.1s.3-.1.5-.1c.1 0-.6-.7-.9-.5s-.5.6-.5.7c0 0 .5.3.8.3 1.2.3-.7 1-1.2.9.2.7-.4 1.6-1.1 1.7.5 2 .9 3.9 1.4 5.9.1.5 0 1.3-.5 1.2.5.2.7.8.5 1.3.3.2.7.3 1 .5-.3.4-.7.8-1 1.3.2.3.5.7.8.8.4.1.9-.1.8-.5 1.4.6 1.1 3.1-.4 3.4 2.5.5 5 1.1 7.6 1.6 0 .8.3 1.5.8 2.1.1-.4.1-.7.2-1.1.7 1 .6 2.4-.3 3.2-.6.1-1 .9-.8 1.5.6 0 1.3-.5 1.3-1.1 1 .4 1.9-.5 2.5-1.3 1.6-2.2 3-4.5 4-7 .1-.3.2-.5.5-.6.6-.3 1.7.5 1.9-.2.5.2.8.8.7 1.3 1.6 0 3.2.2 4.7.6.3-.6.9-1 1.6-1-.1 1.3-.5 2.5-1.2 3.6 1.2.7 2.1 2 2.2 3.4-.4-.5-1.1-.7-1.6-.4-.5.3-.8 1-.6 1.6.9 0 1.6 1.1 1.2 1.9 1.5 0 3 .8 3.9 2.1-.8.7-2.1.8-3.1.3.6.7 1.3 1.5 2 2.2.3-1 1.7-1 2.7-.5.9.5 1.9 1.2 2.9.9l-1.4 4.2c-.4-.1-.6-.7-.3-1.1-.9.5-1.7 1.1-2.2 2.1-.5 1-.4 2.3.3 3.2 2.3 0 4.4-2.4 4-4.7.6.1 1.1.6 1.3 1.2.3.2.8 0 1-.4.2-.4.1-.8.1-1.2 0-1.3.6-2.5 1.2-3.7.1-.2.2-.4.4-.4.1 0 .3.1.3.2.7-1.6.4-3.7-.8-5 0-.1-.2-.1-.2-.1.5-1 1.1-2 2-2.7.9-.7 2.3-.9 3.2-.2.3-.6.7-1.3 1-2 .1.3.2.6.3 1 0-.5.5-.9 1-.8.1-1.3-.3-2.6-1-3.7.1.7-.5 1.5-1.3 1.6-.2-.7-.4-1.4-.7-2.1.2.3.7.2.9 0 .2-.3.2-.7.2-1 .4.4.8.7 1.3 1.1 0-1.1 0-2.3.2-3.4.3.6.4 1.4.2 2.1.5.2 1.1.2 1.7 0l.1-.1c-2.6-2.3-2.7-6.9-.3-9.3.6 1.4.5 3.1-.3 4.4-.1-.6-.2-1.2-.3-1.7-.1.9-.1 1.9-.2 2.8-.1-.6-.2-1.1-.3-1.7-.2.9-.2 1.7 0 2.6l.6-.8c.5 1.2 1 2.5 1.3 3.8 0-.6 0-1.2.1-1.9-.1-.5-.2-.9-.3-1.3.1 0 .2-.1.3-.1 0-1.6-.1-3.3-.2-4.9-.5-1.7-1.3-3.4-2.2-4.9-1.2-.5-.9.2-.6.6zm-52.8-2.6c.2-.1 1.1 0 1.3.3s0 .4-.4.3l-.2.1c-.3.1-.5.5-.7.8-.1.2 0 .6.1.8l.3.4c.5.4 0 .9-.2 1-.2.1-2.3-1-3-1.4s-1.1-1-.8-1.4c.3-.3 1.1-1.2 1.1-1.1l.1.1c.3.2.5.4.8.5l.3.1c.5-.2 1.1-.4 1.3-.5z"/><path class="st17" d="m620.7 179.9-.1.1c.1 0 .1-.1.1-.1zm-52.7-45c0-.1.1-.1 0 0 .1-.1.1-.1 0 0 0-.1 0-.1 0 0zm61.3 31.6c0-.5.1-.9.1-1.3-.4.1-.9.2-1.3.3.1.5.7.9 1.2 1zm-51.1-14.6zm-6.8-40.8c0 .1.1.2.1.3.1.3.4.5.5.8v.1s0 .1-.1.1c-.1.1-.3.2-.4.3.4.1.8.2 1.2.4.1 0 .3.1.4.2.1.1.1.3 0 .4-.2.2-.4-.1-.7-.1-.2 0-.5.2-.4.4.1.8 3.3-.3 4-.2.5.1 1.1.4 1.6.2.1 0 .3-.1.4-.2.3-.1.6 0 .9.1h.2s0-.1.1-.2c0-.2.2-.3.4-.3.7-.1.8.7.3.7-.3 0-.7.4-.8.8l.6.1c.1 0 .1.4.1.5v.3c-.1.3.2.6.3.6s.4-.5.5-.7c.1-.2.2-1.1.2-1.1s1.2.7 1.6 1c.4.3.8-.1.8-.3 0-.2 1.1-.6 1.5-.7.7-.1 1.7-.7.9.5-.2.3-.4.5-.6.8 0 .1-.1.1-.1.2-.1.3.3.6.4.9 0 .2-.1.5-.2.6l-.1.1c-.2 0-.3-.2-.5-.1-.1 0-.1.2 0 .3.1.1.2.1.4.1s.5.1.7.1c.2 0 .4.1.5.2.2.1.3.4.3.6.2-.2.5-.4.7-.6.1 0 .1-.1.1-.2v-.3c-.2-1 .3-1.9.6-2.8l.3-.8c-.4-.2-.2-1.4 0-1.7.2-.4.2-1 .1-1.1-.1-.1-.4-.3-.8-.5l-.3-.2c-.9-.5-1.7-.9-2.7-1.3-.8-.3-1.9-.6-2.5 0-.3-.1-.4-.6-.8-.6-.1 0-.3.1-.4.2-.4.2-.8 0-1.1-.2-.4-.2-.8-.3-1.1 0 .3.2.5.4.7.6-.7.4-1.5-.2-2.3-.3-.5 0-1.1.2-1.4.6-.5.5-.4.7-1.2.8l-.4-.1c-.3-.1-.4-.6-.7-.8l-.8-.4c-.9-.3-1.7-.4-1.7-.4-.1.2.5 1 .6 1.1 0 .5.1.9.1 1.2zm-7.6-.5c.3-.6.4-1.5.3-2.2 0-.2-.1-.5-.3-.6-.1-.1-.3-.1-.5-.1-1-.1-2-.2-2.9.2-.4.2-1 .6-1.3.2-.2-.2-.2-.5-.5-.6-.2 0-.4.1-.6 0-.1-.1-.1-.2-.2-.4-.1-.4-.6-.6-1.1-.6s-.8.3-1.2.5c.2-.4.4-.7.5-1.1-.2-.1-.5 0-.6.2-.1.2-.2.4-.4.5-.6.6-1.8-.1-2.5.4l-.3.3c-.2.1-.5 0-.7-.1-.6-.2-1.3-.1-1.8.2-.2.1-.4.3-.7.3-.3 0-.5-.2-.8-.3-.5-.1-1 .4-1.2.8-.2.5-.3 1.1-.7 1.4.3 0 .3.4.2.6-.1.2-.4.4-.5.6-.1.1.3 1.5.5 1.5.2.1.2.2.2.3-.1 0 0 .3.1.3 0 .1.2-.2.3-.3 0-.1.4-.2.5-.2.1 0 .7-.9 1.1-.8.3.1.8-.1.9-.2 0-.1 1.1-.4 1.5-.5.4-.1.7 0 .7 0 0 .1-1 .3-1.4.3s-.6.5-.6 1l-.6.3c-.4.2-.9.3-1 .6-.1.6-.7.8-1.3.9v.6c1.1-.1 2.1-.6 2.8-1.4.1.3.5.6.8.6-.2-.3-.3-.7-.4-1.1v-.4c.1-.1.2-.2.3-.2.9-.3 1.8-.2 2.7-.4 2.1-.3 4-1.7 6-1.3.7.1 1.3.4 2 .6s1.4.3 2 0c.2.2.5-.1.7-.4zm40 78.1c.1-1.1.1-2.2 0-3.4 0-.5-.2-1-.6-1.1-.5-.1-1 .5-1.4.3-.2-.1-.3-.4-.5-.6-.1-.1-.3-.1-.5 0 0-.8.4-1.6.9-2.3 0 .4.1.7.1 1.1 0 .1 0 .3.2.3.2.1.3-.3.3-.5-.1-.5-.2-1-.5-1.5-.2-.5-.6-.8-.7-1.4.3.2.7.4 1.1.4-.5-.9-1.7-1.2-2.6-.7-.2.1-.5.3-.7.3h-.2c-.1 0-.1.2 0 .3l.3.3c.3.3.1.8-.1 1.1-.2.3-.6.6-.8 1-.2.5-.1 1.1-.5 1.4-.1.1-.2.1-.2.3 0 .1.1.2.1.3.4.4.7.7 1.2 1l-1.1 1.1c-.1.1-.2.2-.3.4 0 .2.1.5.3.5.2.1.4.1.7.1-.1.3-.2.6-.4.8.5 0 1.1.1 1.5.4l.4.3c.4.2 1 .2 1.4-.1.1-.1.2-.1.3-.2.2 0 .3.1.5.1.5.3 1.2.4 1.7.2.1 0 .1-.1.1-.2zm-39.1-77.4c.5 0 1.1.9 1 1.2-.1.3-.3.5-.6.4l-.1.1-.2.1c-.2.2-.3.6-.1.9l.2.1c.4.1 1.1.2 1.2 0l.4-.5c.2-.7.3-1.6.4-1.7l.2-.2s.2.5.3.8c.1.2.5.4.6.4.1 0 0-.6-.1-.8-.1-.2 0-.5 0-.5s.5.2.7.3c.2.1.3-1 0-1.2-.3-.3-.9 0-1 .2-.1.2-.8-.1-1-.3l-.4-.4s.4 0 .5.1.4-.4.5-.6c.1-.1-1.2-.7-1.7-.9-.5-.2-.9.5-.9.8 0 .3-.2.5-.3.5h-.2c-.1 0 .2 1.3.6 1.2zm35.2 4.6c.8.3 1.6.5 2.4.8h.1c.1.1 1.1.8 1.4 1.1.3.2.2.6 0 .5-.2-.1-.6-.3-1.1-.4l-.3-.2-.3-.2c-.3-.4-.8-.5-1-.5-.1.1.3.8.5 1.1s.4.3.5.3c0 0 .2 0 .5.1h.2l.8.1c.8 0 1.5.1 1.5.1l.4-1.3c-.9-.6-1.9-1.3-2.3-1.5l-.4-.1-.3-.1c-.4 0-1.5-1.1-2-1.3-.6-.2-1.1.1-1 .6l.1.5c0 .1.2.3.3.4zm23.1 64.4c-.2 0 .1-.6.2-.8s.1-.5.1-.5-.5.6-.7.9c-.2.3-.8-.5-.6-.9v-.1c-.3.3-.7.9-.7 1.3 0 .5-.4 1.2-.5 1.3-.2.1-.4-.2-.5-.3s-.3 0-.6.3.3 1.3.3 1.4v.1c-.2.5.1.8.5.9h.3c.4-.2 1.1-.8 1.3-1.1.1-.2.3-.4.3-.4s-.2.7-.2.9c-.1.2-.4.4-.5.4-.1 0 .2.4.3.5s.5-.5.6-.8c.1-.3.2-.1.2 0s.4.1.6.1c.1 0-.4-.9-.3-1.2.1-.3 0-.7-.1-1v-.2c0-.2 0-.4.2-.6l.1-.2c.2-.1.4-.3.3-.4 0 .3-.4.4-.6.4zM562 168s-.1-1.1-.1-1.5c-.1-.4-.5-.1-.5.1-.1.2-.6.2-.7.1-.1 0-.3-1.1-.3-1.5 0-.4-.1-.8-.1-.8s-.2.1-.2.4v.6c-.1.4-.4 1.3-.7 1.9l-.2.6c-.1.2.1.5.3.8l.2.2c.2.2.4.5.4.5s-.4-.1-.6-.2c-.1-.1-.2.3-.1.5.1.1.9.2 1 .4s1.2 0 1.6-.2c.4-.2.8-1.1.5-1.3-.5-.4-.6-.6-.5-.6zm.1-27.2.4.3.2.2c.3.1.5-.1.5-.4l-.1-.2c0-.1-.3-.1-.3-.2l-.1-.4c0-.5.4-.1.5.2.1.3.4.4.6.3.2-.1.6-.1.5 0 0 .1 1.6.2 1.7-.3.2-.5.1-1.4.1-1.6-.1-.1-.6 0-.8-.1s-.5-.2-.7-.3h-.2l-.7-.2c-.9-.2-1.3 0-1.2.2.1.2-.4 1-.6 1.3-.3.2-.2.8.2 1.2zM530.4 204s-1.1.1-1.4-.2c-.3-.3-.5-.5-.6-.5-.4.1-.7.1-.8-.5v-.2c-.2-.2-.4-.3-.4-.3v.9c0 .2.4.5.6.6.2 0-.2.1-.4.1s-.2.1-.1.2 1.5.7 1.8 1c.3.3 1.3 1.1 1.5 1.2.2.1.9 0 1.1 0 .1-.1-.7-1-.8-1.4-.3-.4-.4-.9-.5-.9zm86.1-74.8c-.2 0-.3-.1-.3-.2v-.2c0-.2.1-.4 0-.5l-.3-.4c-.4-.4-1-.6-1.1-.6s.2.5.4.6c.2.1-.8.4-.7.7.1.3-.1.6-.2.7-.1 0-.1.3 0 .5.1.3 1.1 1.5 1.4 1.4s0-.5-.2-.5c-.2-.1-.4-.6-.4-.8 0-.2 1.1.2 1.5.4.4.2.7-.4.6-.6-.1-.4-.5-.6-.7-.5zm-59-15.4c-.6 0-1.3 0-1.9.2-.3.1-.6.8-.5 1.2l.1.4c.6.2 1.6.2 2.2 0l.4-.3c.3-.2.5-.6.4-.9-.1-.2-.4-.6-.7-.6zm58.4 12.2zm-3.1-2.6c.5.2.6.5.3 1 .1 0 .2.1.4.1l1.3.3c-.2.7-.3 1.4-.3 1.4s.4 0 .9-.1h.4l-.5-.4c.1-.6-.1-1.5-.4-1.9l-.3-.4s-1.3 0-1.5-.4-.5-.3-.5-.2-.1.3-.1.3-.1-.2-.2-.2v-.1c-.4.3.2.5.5.6zm13.4 57.5s.1-.6.1-.8v-.4s-.5 1.1-.6 1.6c-.2.5-.5.6-.6.6-.1 0-.3.1-.5.3v.2c0 .5.1 1 .3 1.5v.1c.2 0 .3.1.4.3.5-1.1.9-2.3 1.3-3.5-.3.1-.4.1-.4.1zM607.9 119h.6l.1.2.5.5c.4-.3.9-.6.9-.6l.3.3c0 .1.1.2.2.1 0 0-.1-.5-.2-.6-.1-.1-1.3-.1-1.6-.4-.2-.4.1-.9.3-1s-.7-.5-1-.6c-.3-.1-.7.4-.7.6 0 .2.1 1 .3 1.2.1.2.2.3.3.3zm6.8 3.8c0 .2-.1.4-.1.4s.7.3.9.4c.3.1.5.2.5.2h.2c.1 0 .2-.1.2-.1-.3-.3-.5-.6-.8-1-.1-.1-.2-.3-.3-.3-.2-.2-.5.2-.6.4zm-63.5 76.8c0-.1-.8-.3-1.1-.3-.3 0-.3.3-.2.4.1.1-.5.4-.6.4-.2 0-.2.3 0 .5s.8.5.8.4c0 0 .5.2.7.4s.7-.3.8-.5c.1-.2.4-.3.4-.3s-.3-.2-.5-.3c-.2-.2-.2-.6-.3-.7zm77.4-29.2c0-.1.2-1.8 0-2.3-.2-.5-.3-1.1-.3-1.2v-.4c0-.2-.5-.2-.7-.2-.1 0-.3-.5-.3-.6 0-.2 0 .6.1.8s.5.6.6 1.1v3s.1-1.1.1-1.5c0-.4.1-.7.1-.7v1.7c0 .5.3.9.4.9 0-.2.1-.5.1-.7 0 0-.1.1-.1.2.1 0 0 0 0-.1zm-49.8-17.7c.2.2 1 .2 1.3.1s.3-.7.1-.9c-.2-.2-1.2-.2-1.5-.2-.3.1-.6.1-.6.1s.6.7.7.9zm18.3-41.2c.4.2.7-.4.6-.6-.1-.2-.7-1.5-1.1-1.3-.4.2-.5.6-.4.8.1.1-.1.2-.2.1h-.2c-.1.1.8.8 1.3 1zm8.9 7c-.5.1-.9.1-.9.1s.1.3.3.8l.3.2.3.2c.4.1.7.2.7.3 0 .1.1.2.1.2s.2-.5.2-.6c0-.2-.2-.6-.4-1l-.3-.1-.3-.1zm4 2.7.8.4.4.2c.3.3.1 1.2 0 1.5-.1.2.3.6.4.6s0-1 .2-1.1c.3-.1.5-.2.5-.2 0-1-.1-1.1-.9-1.1-.1 0-.3-.1-.5-.2l-.4-.4c-.4-.6-.6-.4-.5.3zm7 13.8c0 .1 0 .1 0 0 0 .1 0 .1 0 0 0 .1 0 .1 0 0zm.1-7.4s-.1-.6-.1-.9-.5-.6-.7-.7h-.4s.5.8.7 1.1c.1.3.5.5.5.5z"/><path class="st17" d="M613.6 125.8c-.4-.2-.1-.6 0-.6s-.2-.5-.3-.6l-.2-.2s-.2.1-.3.1c0 0 .2 1.6.6 2 .5.3.6-.4.2-.7zm2.4-1.9zm-9.4-9.5-1.6-1.6c0 1.1.9 1.9 1.6 1.6z"/><path d="M629.5 161.6c0-33.8-27.4-61.2-61.2-61.2-5.3 0-10.5.7-15.4 2 32.5 3.1 57.9 30.4 57.9 63.7 0 24-13.2 44.8-32.7 55.8 29.2-4.7 51.4-29.9 51.4-60.3z" opacity=".3" fill="#ceb41d"/></svg>