<svg version="1.1" xmlns="http://www.w3.org/2000/svg" x="0" y="0" viewBox="0 0 452 89" xml:space="preserve"><path d="M10.9 36.8H7.1v-9.2H3.8v9.2H0V24.7h10.9v12.1zm1.5-6.1c0-1.2.2-2.3.7-3.2.5-.9 1.1-1.7 2-2.2.9-.5 1.9-.8 3.1-.8 1.8 0 3.2.6 4.3 1.7 1 1.1 1.6 2.6 1.6 4.6v.1c0 1.9-.5 3.4-1.6 4.5-1 1.1-2.5 1.7-4.3 1.7-1.7 0-3.1-.5-4.1-1.5-1-1-1.6-2.4-1.7-4.2v-.7zm3.8.2c0 1.1.2 1.9.5 2.5.4.5.9.8 1.6.8 1.3 0 2-1 2.1-3.1v-.4c0-2.2-.7-3.3-2.1-3.3-1.3 0-1.9.9-2 2.8l-.1.7zm14.7 3.2c.5 0 .9-.1 1.2-.4.3-.3.4-.7.4-1.2H36c0 1.3-.5 2.4-1.4 3.3-1 .8-2.2 1.3-3.7 1.3-1.8 0-3.1-.6-4.2-1.7-1-1.1-1.5-2.6-1.5-4.6v-.2c0-1.2.2-2.3.7-3.2.5-.9 1.1-1.7 1.9-2.2.8-.5 1.9-.8 3-.8 1.6 0 2.8.4 3.7 1.3s1.4 2.1 1.4 3.5h-3.5c0-.6-.2-1.1-.5-1.4-.3-.3-.7-.5-1.2-.5-1 0-1.5.6-1.7 1.9-.1.4-.1.9-.1 1.6 0 1.2.1 2.1.4 2.5.5.6.9.8 1.6.8zm14.3-1.4l2.7-7.9h4.7v12.1h-3.8v-6.7l-2.4 6.7H44l-2.3-6.3v6.3h-3.8V24.7h4.6l2.7 8zm9.5-2c0-1.2.2-2.3.7-3.2.5-.9 1.1-1.7 2-2.2.9-.5 1.9-.8 3.1-.8 1.8 0 3.2.6 4.3 1.7 1 1.1 1.6 2.6 1.6 4.6v.1c0 1.9-.5 3.4-1.6 4.5-1 1.1-2.5 1.7-4.3 1.7-1.7 0-3.1-.5-4.1-1.5-1-1-1.6-2.4-1.7-4.2v-.7zm3.8.2c0 1.1.2 1.9.5 2.5s.9.8 1.6.8c1.3 0 2-1 2.1-3.1v-.4c0-2.2-.7-3.3-2.1-3.3-1.3 0-1.9.9-2 2.8l-.1.7zm19.8-3.3h-3.8v9.2h-3.8v-9.2H67v-2.9h11.4v2.9zm12.6 3.3c0 1.9-.4 3.4-1.3 4.5-.8 1.1-2 1.7-3.4 1.7-1.1 0-2-.4-2.7-1.2v5.6h-3.8V24.7h3.5l.1 1.1c.7-.9 1.7-1.3 2.8-1.3 1.5 0 2.6.5 3.5 1.6.8 1.1 1.2 2.6 1.2 4.5v.3zm-3.7-.3c0-2.1-.6-3.2-1.9-3.2-.9 0-1.5.3-1.8 1v4.8c.3.7.9 1 1.8 1 1.2 0 1.8-1 1.9-3.1v-.5zm12.4-5.9h3.8v12.1h-3.8v-7l-3.3 7h-3.8V24.7h3.8v7l3.3-7zM25.5 64.3h-3.8v-4.5h-3.3v4.5h-3.8V52.2h3.8v4.7h3.3v-4.7h3.8v12.1zm8.9 0c-.1-.2-.3-.6-.4-1.1-.7.9-1.7 1.3-2.9 1.3-1.1 0-2.1-.3-2.9-1S27 61.9 27 60.9c0-1.3.5-2.3 1.5-3s2.4-1 4.2-1h1.2v-.6c0-1.1-.5-1.7-1.4-1.7-.9 0-1.3.4-1.3 1.3h-3.8c0-1.2.5-2.1 1.5-2.8 1-.7 2.3-1.1 3.8-1.1s2.8.4 3.7 1.1c.9.8 1.4 1.8 1.4 3.1v5.4c0 1.1.2 2 .5 2.5v.2h-3.9zM32 61.8c.5 0 .9-.1 1.2-.3.3-.2.5-.4.7-.7v-1.9h-1.1c-1.3 0-2 .6-2 1.8 0 .3.1.6.3.8.3.2.6.3.9.3zm18.5-9.6v12.1h-3.8v-9.2h-2.3l-.2 3.7c-.1 1.8-.6 3.2-1.2 4.1-.7.9-1.7 1.4-3.1 1.4h-1.2v-2.9h.4c.5-.1.9-.4 1.1-1 .2-.6.4-1.5.5-2.8l.2-5.4h9.6zm7.9 12.3c-1.9 0-3.4-.6-4.5-1.7s-1.7-2.5-1.7-4.3v-.3c0-1.2.2-2.3.7-3.3.5-.9 1.1-1.7 2-2.2.9-.5 1.9-.8 3.1-.8 1.7 0 3 .5 4 1.6s1.5 2.5 1.5 4.4v1.5H56c.1.7.4 1.2.9 1.6.5.4 1 .6 1.8.6 1.2 0 2.1-.4 2.8-1.3l1.7 2c-.5.6-1.1 1.2-2 1.5-.9.5-1.8.7-2.8.7zm-.4-9.6c-1.1 0-1.8.7-2 2.2h3.8v-.3c0-.6-.1-1.1-.5-1.4-.2-.4-.7-.5-1.3-.5zm7.3 9.4V52.2h5.2c1.7 0 2.9.3 3.8.9.9.6 1.3 1.4 1.3 2.5 0 .6-.2 1.1-.6 1.5-.4.4-1 .8-1.7 1 1 .2 1.7.5 2.2 1 .5.5.8 1.1.8 1.8 0 1.1-.4 2-1.3 2.6-.9.6-2.1.9-3.7.9h-6zm3.8-7.3h1.6c.5 0 .8-.1 1-.2.2-.2.3-.4.3-.7 0-.4-.1-.7-.3-.8-.2-.2-.6-.2-1-.2h-1.4V57zm0 2.3v2h2.2c.5 0 .8-.1 1-.2.2-.2.3-.4.3-.7 0-.7-.4-1-1.2-1.1h-2.3zm8.3-1.2c0-1.2.2-2.3.7-3.2.5-.9 1.1-1.7 2-2.2.9-.5 1.9-.8 3.1-.8 1.8 0 3.2.6 4.3 1.7 1 1.1 1.6 2.6 1.6 4.6v.1c0 1.9-.5 3.4-1.6 4.5-1 1.1-2.5 1.7-4.3 1.7-1.7 0-3.1-.5-4.1-1.5-1-1-1.6-2.4-1.7-4.2v-.7zm3.8.3c0 1.1.2 1.9.5 2.5.4.5.9.8 1.6.8 1.3 0 2-1 2.1-3.1v-.4c0-2.2-.7-3.3-2.1-3.3-1.3 0-1.9.9-2 2.8l-.1.7zm327.2-15.8h-1.3v3.3h-1.3v-3.3h-1.3v-1h4v1zm1.9.2h.7c.4 0 .7.1 1 .2.3.1.5.3.7.5.2.2.2.5.2.8 0 .5-.2.8-.5 1.1-.4.3-.8.4-1.5.4h-2v-4.3h1.3v1.3zm0 1v1.1h.7c.2 0 .4 0 .5-.1.1-.1.2-.2.2-.4s-.1-.3-.2-.4c-.1-.1-.3-.1-.5-.1h-.7zm4.7 2.1h-1.3v-4.3h1.3v4.3zm6.7 0h-1.3v-3.2h-1.2v3.2h-1.3v-4.3h3.8v4.3zm4.6-2.2c0 .7-.1 1.2-.4 1.6-.3.4-.7.6-1.2.6-.4 0-.7-.1-1-.4v2h-1.3v-5.9h1.2v.4c.3-.3.6-.5 1-.5.5 0 .9.2 1.2.6s.5.9.5 1.6zm-1.3 0c0-.8-.2-1.1-.7-1.1-.3 0-.5.1-.6.3v1.7c.1.2.3.4.6.4.4 0 .6-.4.7-1.1v-.2zm1.8 0c0-.4.1-.8.2-1.1.2-.3.4-.6.7-.8.3-.2.7-.3 1.1-.3.6 0 1.1.2 1.5.6.4.4.6.9.6 1.6 0 .7-.2 1.2-.6 1.6-.4.4-.9.6-1.5.6s-1.1-.2-1.5-.5c-.4-.4-.6-.9-.6-1.5l.1-.2zm1.3.1c0 .4.1.7.2.9.1.2.3.3.5.3.5 0 .7-.4.7-1.1v-.1c0-.8-.2-1.2-.7-1.2-.4 0-.7.3-.7 1v.2zm5.9-2.2h1.3v4.3H434v-2.5l-1.2 2.5h-1.3v-4.3h1.3v2.5l1.2-2.5zm5 1h-1.7v3.2H436v-4.3h3v1.1zm4.4 1.1c0 .7-.1 1.2-.4 1.6-.3.4-.7.6-1.2.6-.4 0-.7-.1-1-.4v2h-1.3v-5.9h1.2v.4c.3-.3.6-.5 1-.5.5 0 .9.2 1.2.6.3.4.5.9.5 1.6zm-1.4 0c0-.8-.2-1.1-.7-1.1-.3 0-.5.1-.6.3v1.7c.1.2.3.4.6.4.4 0 .6-.4.7-1.1v-.2zm4.4 2.2c0-.1-.1-.2-.1-.4-.2.3-.6.5-1 .5s-.7-.1-1-.4c-.3-.2-.4-.6-.4-.9 0-.5.2-.8.5-1.1.3-.2.8-.4 1.5-.4h.4V43c0-.4-.2-.6-.5-.6s-.5.2-.5.5H444c0-.4.2-.7.5-1 .4-.3.8-.4 1.3-.4s1 .1 1.3.4c.3.3.5.6.5 1.1v1.9c0 .4.1.7.2.9v.1h-1.4zm-.9-.9c.2 0 .3 0 .4-.1l.2-.2V44h-.4c-.5 0-.7.2-.7.6 0 .1 0 .2.1.3.2 0 .3.1.4.1zm6.6-3.4v4.3h-1.3v-3.2h-.8l-.1 1.3c-.1.6-.2 1.1-.4 1.5-.2.3-.6.5-1.1.5h-.4v-1h.1c.2 0 .3-.1.4-.4s.1-.5.2-1l.1-1.9h3.3zm-57.7 2.9L251.4 0v20h-138v49h138v20z" fill="#36434f"/></svg>