<svg version="1.1" xmlns="http://www.w3.org/2000/svg" x="0" y="0" viewBox="0 0 92.7 107.3" xml:space="preserve"><style type="text/css">.st1{fill:#36434f}.st3{fill:#fff}</style><path d="M92.7 20v-4H77.5V0h-4v16h-32V0h-4v16h-33v4h33v32h-33v4h33v32h-33v4h33v15.3h4V92h32v15.3h4V92h15.3v-4H77.5V56h15.3v-4H77.5V20h15.2zM73.5 88h-32V56h32v32zm0-36h-32V20h32v32z" fill="#ddd"/><path class="st1" d="M1.5 0h4v107.3h-4z"/><path d="M36.5 0v18c0 1.7 1.3 3 3 3s3-1.3 3-3V0h-6z" fill="#2e86b7"/><path class="st3" d="M42 0v18c0 1.4-1.1 2.5-2.5 2.5S37 19.4 37 18V0h-1v18c0 1.9 1.6 3.5 3.5 3.5S43 19.9 43 18V0h-1z"/><path d="M7.7 53.6l33.9-33.5c1.2-1.2 1.2-3.1 0-4.2-1.2-1.2-3.1-1.2-4.2 0l-36 35.6c-1.2 1.2-1.2 3.1 0 4.2l36 36.4c.6.6 1.4.9 2.1.9.8 0 1.5-.3 2.1-.9 1.2-1.2 1.2-3.1 0-4.2L7.7 53.6z" fill="#cc584c"/><path class="st3" d="M39.5 93.5c-.9 0-1.8-.4-2.5-1L1 56.1c-1.4-1.4-1.3-3.6 0-4.9l36-35.6c1.4-1.4 3.6-1.3 5 0 1.4 1.4 1.3 3.6 0 5L8.4 53.7 42 87.5c.7.7 1 1.5 1 2.5 0 .9-.4 1.8-1 2.5-.7.6-1.6 1-2.5 1zm0-78c-.6 0-1.3.2-1.8.7l-36 35.6c-1 1-1 2.6 0 3.5l36 36.4c.9.9 2.6 1 3.5 0 .5-.5.7-1.1.7-1.8s-.3-1.3-.7-1.8L7 53.6l34.2-33.9c1-1 1-2.6 0-3.5-.4-.5-1.1-.7-1.7-.7z"/><circle class="st1" cx="39.5" cy="90" r="12"/></svg>