<svg version="1.1" xmlns="http://www.w3.org/2000/svg" x="0" y="0" viewBox="0 0 101.3 107.3" xml:space="preserve"><style type="text/css">.st1{fill:#36434f}.st3{fill:#fff}</style><path d="M101.3 20v-4H86V0h-4v16H50V0h-4v16H13v4h33v32H13v4h33v32H13v4h33v15.3h4V92h32v15.3h4V92h15.3v-4H86V56h15.3v-4H86V20h15.3zM82 88H50V56h32v32zm0-36H50V20h32v32z" fill="#ddd"/><path class="st1" d="M10 0h4v107.3h-4z"/><path d="M45 0v18c0 1.7 1.3 3 3 3s3-1.3 3-3V0h-6z" fill="#2e86b7"/><path class="st3" d="M50.5 0v18c0 1.4-1.1 2.5-2.5 2.5s-2.5-1.1-2.5-2.5V0h-1v18c0 1.9 1.6 3.5 3.5 3.5s3.5-1.6 3.5-3.5V0h-1z"/><path d="M50.1 15.9c-1.2-1.2-3.1-1.2-4.2 0l-36 35.6c-1.2 1.2-1.2 3.1 0 4.2.6.6 1.4.9 2.1.9.8 0 1.5-.3 2.1-.9l36-35.6c1.2-1.1 1.2-3 0-4.2z" fill="#cc584c"/><path class="st3" d="M12 57.1c-.9 0-1.8-.4-2.5-1-1.4-1.4-1.3-3.6 0-4.9l36-35.6c1.4-1.4 3.6-1.3 5 0 1.4 1.4 1.3 3.6 0 4.9l-36 35.6c-.7.7-1.6 1-2.5 1zm36-41.6c-.6 0-1.3.2-1.8.7l-36 35.6c-.5.5-.7 1.1-.7 1.8s.3 1.3.7 1.8c.9.9 2.6 1 3.5 0l36-35.6c1-1 1-2.6 0-3.5-.4-.6-1.1-.8-1.7-.8z"/><circle class="st1" cx="12" cy="54" r="12"/></svg>