<svg version="1.1" xmlns="http://www.w3.org/2000/svg" x="0" y="0" viewBox="0 0 107.3 107.3" xml:space="preserve"><style type="text/css">.st1{fill:#2e86b7}.st2{fill:#fff}</style><path d="M107.3 88H92V56h15.3v-4H92V20h15.3v-4H92V0h-4v16H56V0h-4v16H20V0h-4v16H0v4h16v32H0v4h16v32H0v4h16v15.3h4V92h32v15.3h4V92h32v15.3h4V92h15.3v-4zM52 88H20V56h32v32zm0-36H20V20h32v32zm36 36H56V56h32v32zm0-36H56V20h32v32z" fill="#ddd"/><path class="st1" d="M107.3 51H54c-1.7 0-3 1.3-3 3s1.3 3 3 3h53.3v-6z"/><path class="st2" d="M107.3 56.5H54c-1.4 0-2.5-1.1-2.5-2.5s1.1-2.5 2.5-2.5h53.3v-1H54c-1.9 0-3.5 1.6-3.5 3.5s1.6 3.5 3.5 3.5h53.3v-1z"/><path class="st1" d="M15 0v18c0 1.7 1.3 3 3 3s3-1.3 3-3V0h-6z"/><path class="st2" d="M20.5 0v18c0 1.4-1.1 2.5-2.5 2.5s-2.5-1.1-2.5-2.5V0h-1v18c0 1.9 1.6 3.5 3.5 3.5s3.5-1.6 3.5-3.5V0h-1z"/><path d="M56.1 51.9l-36-36c-1.2-1.2-3.1-1.2-4.2 0-1.2 1.2-1.2 3.1 0 4.2l36 36c.6.6 1.4.9 2.1.9s1.5-.3 2.1-.9c1.2-1.2 1.2-3 0-4.2z" fill="#cc584c"/><path class="st2" d="M54 57.5c-.9 0-1.8-.4-2.5-1l-36-36c-.7-.7-1-1.5-1-2.5s.4-1.8 1-2.5c1.3-1.3 3.6-1.3 4.9 0l36 36c.7.7 1 1.5 1 2.5 0 .9-.4 1.8-1 2.5s-1.5 1-2.4 1zm-36-42c-.7 0-1.3.3-1.8.7-.5.4-.7 1.1-.7 1.8s.3 1.3.7 1.8l36 36c.9.9 2.6.9 3.5 0 .5-.5.7-1.1.7-1.8s-.3-1.3-.7-1.8l-36-36c-.4-.4-1-.7-1.7-.7z"/><circle cx="54" cy="54" r="12" fill="#36434f"/></svg>