<svg version="1.1" xmlns="http://www.w3.org/2000/svg" x="0" y="0" viewBox="0 0 292 448" xml:space="preserve"><style type="text/css">.st1{fill-rule:evenodd;clip-rule:evenodd;fill:#36434f}</style><path d="M2 44h288M2 80h288M2 116h288M2 152h288M2 188h288M2 224h288M2 260h288M2 296h288M2 332h288M2 368h288M2 404h288M38 440V8m36 432V8m36 432V8m36 432V8m36 432V8m36 432V8m36 432V8" fill="none" stroke="#ddd" stroke-width="4" stroke-miterlimit="10"/><circle class="st1" cx="146" cy="8" r="8"/><circle class="st1" cx="182" cy="8" r="8"/><circle class="st1" cx="110" cy="8" r="8"/><circle class="st1" cx="146" cy="440" r="8"/><circle class="st1" cx="182" cy="440" r="8"/><circle class="st1" cx="110" cy="440" r="8"/><circle class="st1" cx="146" cy="224" r="12"/><path d="M288 10v428H4V10h284m4-4H0v436h292V6z" fill="#36434f"/></svg>