<svg xmlns="http://www.w3.org/2000/svg" viewBox="0 0 1920 673" xml:space="preserve"><style>.st1{fill:#fff}.st2{fill:#404040}</style><path fill="#2e86b7" d="M0 0h1920v673H0z"/><path class="st1" d="M720.4 97.6h-8.1v28.1h-17.1V54.6h17.1v27.5h6.6l13.7-27.5h20.8l-19.5 32.8 22 38.3h-20.3l-15.2-28.1zm98.2-6c0 6.9-1.3 13.1-3.9 18.4-2.6 5.3-6.2 9.4-11 12.3s-10.1 4.3-16.2 4.3-11.4-1.4-16.1-4.2-8.3-6.8-11-11.9c-2.6-5.2-4-11.1-4.1-17.8v-4c0-7 1.3-13.1 3.8-18.4 2.6-5.3 6.2-9.4 11-12.3 4.8-2.9 10.2-4.3 16.3-4.3 6 0 11.4 1.4 16.1 4.3 4.7 2.9 8.4 6.9 11 12.2 2.6 5.3 3.9 11.4 4 18.2v3.2zm-17.4-2.9c0-7.1-1.2-12.4-3.5-16.1-2.4-3.7-5.7-5.5-10.1-5.5-8.6 0-13.1 6.4-13.6 19.3v5.2c0 7 1.2 12.3 3.5 16.1 2.3 3.7 5.7 5.6 10.3 5.6 4.3 0 7.7-1.8 10-5.5s3.5-9 3.6-15.9v-3.2zm85.7 37h-17V96h-25.2v29.7h-17.1V54.6h17.1v28.2h25.2V54.6h17v71.1zm65.2-57.8h-21.3v57.9h-17.1V67.9h-20.9V54.6h59.4v13.3zm41.7 44.5h-23.5l-4.1 13.3h-18.3L974 54.6h16.1l26.3 71.1H998l-4.2-13.3zm-19.3-13.2h15.3l-7.7-24.7-7.6 24.7zm72.2-1.6h-8.1v28.1h-17.1V54.6h17.1v27.5h6.6l13.7-27.5h20.8l-19.5 32.8 22 38.3h-20.3l-15.2-28.1zm95.4-29.7h-21.3v57.9h-17.1V67.9h-20.9V54.6h59.4v13.3zM720.4 217.6h-8.1v28.1h-17.1v-71.1h17.1v27.5h6.6l13.7-27.5h20.8l-19.5 32.8 22 38.3h-20.3l-15.2-28.1z"/><path class="st2" d="M808.2 219.7c0 8.2-1.8 14.8-5.5 19.7-3.7 4.9-8.7 7.3-15 7.3-4.9 0-8.8-1.8-12-5.3V266h-16.5v-73.1h15.4l.5 4.9c3.2-3.9 7.3-5.9 12.5-5.9 6.5 0 11.6 2.4 15.2 7.2 3.6 4.8 5.4 11.4 5.4 19.8v.8zm-16.5-1c0-9.4-2.7-14.1-8.2-14.1-3.9 0-6.5 1.4-7.8 4.2v20.8c1.4 2.9 4.1 4.4 7.9 4.4 5.2 0 7.9-4.5 8.1-13.6v-1.7zm53.5 27c-.6-1.1-1.1-2.7-1.6-4.7-3 3.8-7.3 5.7-12.7 5.7-5 0-9.2-1.5-12.7-4.5s-5.2-6.8-5.2-11.4c0-5.7 2.1-10.1 6.3-13 4.2-2.9 10.4-4.4 18.5-4.4h5.1v-2.8c0-4.9-2.1-7.3-6.3-7.3-3.9 0-5.9 1.9-5.9 5.8h-16.5c0-5.1 2.2-9.3 6.5-12.4s9.9-4.8 16.6-4.8 12.1 1.6 16 4.9c3.9 3.3 5.9 7.8 6 13.5v23.4c.1 4.9.8 8.6 2.2 11.1v.8h-16.3zM834.9 235c2.1 0 3.8-.4 5.1-1.3 1.4-.9 2.3-1.9 2.9-3v-8.4h-4.8c-5.7 0-8.6 2.6-8.6 7.7 0 1.5.5 2.7 1.5 3.6 1.1.9 2.3 1.4 3.9 1.4zm80.7 10.7h-16.5v-19.5h-14.4v19.5h-16.5v-52.8h16.5v20.6h14.4v-20.6h16.5v52.8z"/><path class="st1" d="M720.4 337.6h-8.1v28.1h-17.1v-71.1h17.1v27.5h6.6l13.7-27.5h20.8l-19.5 32.8 22 38.3h-20.3l-15.2-28.1zm98.2-6c0 6.9-1.3 13.1-3.9 18.4-2.6 5.3-6.2 9.4-11 12.3s-10.1 4.3-16.2 4.3-11.4-1.4-16.1-4.2-8.3-6.8-11-11.9c-2.6-5.2-4-11.1-4.1-17.8v-4c0-7 1.3-13.1 3.8-18.4 2.6-5.3 6.2-9.4 11-12.3 4.8-2.9 10.2-4.3 16.3-4.3 6 0 11.4 1.4 16.1 4.3 4.7 2.9 8.4 6.9 11 12.2 2.6 5.3 3.9 11.4 4 18.2v3.2zm-17.4-2.9c0-7.1-1.2-12.4-3.5-16.1-2.4-3.7-5.7-5.5-10.1-5.5-8.6 0-13.1 6.4-13.6 19.3v5.2c0 7 1.2 12.3 3.5 16.1 2.3 3.7 5.7 5.6 10.3 5.6 4.3 0 7.7-1.8 10-5.5s3.5-9 3.6-15.9v-3.2z"/><path class="st2" d="M873.9 312.9v52.8h-16.5v-40.1h-9.9l-.9 16.2c-.6 8-2.4 14-5.4 18-3 4-7.4 6-13.3 6h-5.2l-.2-12.6 1.7-.2c2.2-.3 3.8-1.7 4.9-4.4 1.1-2.7 1.7-6.7 2-12l1-23.6h41.8zm36.7 2.9c6.9 0 12.4 2.3 16.4 6.8 4.1 4.5 6.1 10.7 6.1 18.5v.7c0 4.9-1 9.3-3.1 13.1-2.1 3.8-5 6.7-8.9 8.8s-8.4 3.1-13.5 3.1c-7.8 0-14-2.5-18.7-7.5-4.6-5-7-11.9-7-20.7V337c.1-12 2.1-21.5 6-28.4 3.9-6.9 9.9-11.2 17.9-13 3.6-.8 6-1.6 7.1-2.4 1.1-.8 1.7-2 1.7-3.6h13.2c0 4.1-.6 7.2-1.9 9.3-1.3 2.1-3.2 3.9-6 5.2-2.7 1.4-6.5 2.5-11.5 3.4-3.9.7-6.9 2.2-9 4.6-2.1 2.3-3.5 5.6-4.3 9.7 4.6-4 9.7-6 15.5-6zm-3.1 12.7c-6 0-9 4.2-9 12.5v.8c0 8.2 3 12.3 9.1 12.3 5.9 0 8.9-3.9 9-11.7v-1.6c0-8.2-3-12.3-9.1-12.3zm62.9 37.2c-.6-1.1-1.1-2.7-1.6-4.7-3 3.8-7.3 5.7-12.7 5.7-5 0-9.2-1.5-12.7-4.5s-5.2-6.8-5.2-11.4c0-5.7 2.1-10.1 6.3-13 4.2-2.9 10.4-4.4 18.5-4.4h5.1v-2.8c0-4.9-2.1-7.3-6.3-7.3-3.9 0-5.9 1.9-5.9 5.8h-16.5c0-5.1 2.2-9.3 6.5-12.4 4.3-3.2 9.9-4.8 16.6-4.8s12.1 1.6 16 4.9c3.9 3.3 5.9 7.8 6 13.5v23.4c.1 4.9.8 8.6 2.2 11.1v.8h-16.3zM960 355c2.1 0 3.8-.4 5.1-1.3s2.3-1.9 2.9-3v-8.4h-4.8c-5.7 0-8.6 2.6-8.6 7.7 0 1.5.5 2.7 1.5 3.6 1.1.9 2.4 1.4 3.9 1.4zm56-1c2.3 0 4.1-.6 5.4-1.9 1.3-1.3 1.9-3 1.9-5.2h15.4c0 5.8-2.1 10.5-6.2 14.3s-9.5 5.6-16 5.6c-7.7 0-13.7-2.4-18.2-7.2-4.4-4.8-6.6-11.5-6.6-20v-.7c0-5.3 1-10 3-14.1s4.8-7.2 8.5-9.4 8.1-3.3 13.2-3.3c6.9 0 12.3 1.9 16.4 5.7 4 3.8 6.1 9 6.1 15.5h-15.4c0-2.7-.7-4.8-2-6.3s-3.1-2.2-5.4-2.2c-4.3 0-6.8 2.7-7.5 8.2-.2 1.7-.3 4.1-.3 7.1 0 5.3.6 9 1.9 11s3 2.9 5.8 2.9zm59.4 11.7c-.6-1.1-1.1-2.7-1.6-4.7-3 3.8-7.3 5.7-12.7 5.7-5 0-9.2-1.5-12.7-4.5s-5.2-6.8-5.2-11.4c0-5.7 2.1-10.1 6.3-13 4.2-2.9 10.4-4.4 18.5-4.4h5.1v-2.8c0-4.9-2.1-7.3-6.3-7.3-3.9 0-5.9 1.9-5.9 5.8h-16.5c0-5.1 2.2-9.3 6.5-12.4 4.3-3.2 9.9-4.8 16.6-4.8s12.1 1.6 16 4.9c3.9 3.3 5.9 7.8 6 13.5v23.4c.1 4.9.8 8.6 2.2 11.1v.8h-16.3zm-10.3-10.7c2.1 0 3.8-.4 5.1-1.3 1.4-.9 2.3-1.9 2.9-3v-8.4h-4.8c-5.7 0-8.6 2.6-8.6 7.7 0 1.5.5 2.7 1.5 3.6 1 .9 2.3 1.4 3.9 1.4z"/><path class="st1" d="M720.4 457.6h-8.1v28.1h-17.1v-71.1h17.1v27.5h6.6l13.7-27.5h20.8l-19.5 32.8 22 38.3h-20.3l-15.2-28.1zm98.2-6c0 6.9-1.3 13.1-3.9 18.4-2.6 5.3-6.2 9.4-11 12.3s-10.1 4.3-16.2 4.3-11.4-1.4-16.1-4.2-8.3-6.8-11-11.9c-2.6-5.2-4-11.1-4.1-17.8v-4c0-7 1.3-13.1 3.8-18.4 2.6-5.3 6.2-9.4 11-12.3 4.8-2.9 10.2-4.3 16.3-4.3 6 0 11.4 1.4 16.1 4.3 4.7 2.9 8.4 6.9 11 12.2 2.6 5.3 3.9 11.4 4 18.2v3.2zm-17.4-2.9c0-7.1-1.2-12.4-3.5-16.1-2.4-3.7-5.7-5.5-10.1-5.5-8.6 0-13.1 6.4-13.6 19.3v5.2c0 7 1.2 12.3 3.5 16.1 2.3 3.7 5.7 5.6 10.3 5.6 4.3 0 7.7-1.8 10-5.5s3.5-9 3.6-15.9v-3.2zm85.7 37h-17V456h-25.2v29.7h-17.1v-71.1h17.1v28.2h25.2v-28.2h17v71.1z"/><path class="st2" d="M899.4 473c2.6-2.6 4.5-5.3 5.7-7.9 1.2-2.6 1.9-5.6 2.1-9.1l.1-3.6.3-19.6h41.2V473h7.9v28.7h-16.5v-16h-28.6v16h-16.9V473h4.7zm18.9 0h14.1v-27.4H924v4.3c-.4 9.5-2.2 17.2-5.7 23.1zm65.1-10.3 8.8-29.8h17.6l-21.5 61.7-.9 2.2c-3.1 6.8-8.5 10.3-16.2 10.3-2.1 0-4.4-.3-6.8-1v-11.7h2.1c2.3 0 4.1-.3 5.3-1s2.1-1.9 2.7-3.6l1.3-3.5-18.4-53.4H975l8.4 29.8zm53.2 4.6h-4.9v18.5h-16.5V433h16.5v19h4.7l8.4-19h21.1l-15.4 24.4 16.9 28.4h-22.3l-8.5-18.5zm81.1-21.8H1101v40.2h-16.6v-40.2H1068v-12.6h49.6v12.6zm2.6 13.3c0-5.3 1-10 3.1-14.1s5-7.3 8.8-9.5c3.8-2.2 8.3-3.3 13.5-3.3 7.9 0 14.1 2.5 18.7 7.3 4.6 4.9 6.8 11.6 6.8 20v.6c0 8.2-2.3 14.8-6.9 19.6-4.6 4.8-10.8 7.3-18.6 7.3-7.5 0-13.6-2.3-18.1-6.8-4.6-4.5-7-10.6-7.4-18.3l.1-2.8zm16.4 1c0 4.9.8 8.5 2.3 10.7 1.5 2.3 3.8 3.4 6.8 3.4 5.9 0 8.9-4.5 9-13.5v-1.7c0-9.5-3-14.2-9.1-14.2-5.5 0-8.5 4.1-8.9 12.3l-.1 3zm90.8-.1c0 8.2-1.8 14.8-5.5 19.7-3.7 4.9-8.7 7.3-15 7.3-4.9 0-8.8-1.8-12-5.3V506h-16.5v-73.1h15.4l.5 4.9c3.2-3.9 7.3-5.9 12.5-5.9 6.5 0 11.6 2.4 15.2 7.2 3.6 4.8 5.4 11.4 5.4 19.8v.8zm-16.4-1c0-9.4-2.7-14.1-8.2-14.1-3.9 0-6.5 1.4-7.8 4.2v20.8c1.4 2.9 4.1 4.4 7.9 4.4 5.2 0 7.9-4.5 8.1-13.6v-1.7z"/><path class="st1" d="M720.4 577.6h-8.1v28.1h-17.1v-71.1h17.1v27.5h6.6l13.7-27.5h20.8l-19.5 32.8 22 38.3h-20.3l-15.2-28.1zm98.2-6c0 6.9-1.3 13.1-3.9 18.4-2.6 5.3-6.2 9.4-11 12.3s-10.1 4.3-16.2 4.3-11.4-1.4-16.1-4.2-8.3-6.8-11-11.9c-2.6-5.2-4-11.1-4.1-17.8v-4c0-7 1.3-13.1 3.8-18.4 2.6-5.3 6.2-9.4 11-12.3 4.8-2.9 10.2-4.3 16.3-4.3 6 0 11.4 1.4 16.1 4.3 4.7 2.9 8.4 6.9 11 12.2 2.6 5.3 3.9 11.4 4 18.2v3.2zm-17.4-2.9c0-7.1-1.2-12.4-3.5-16.1-2.4-3.7-5.7-5.5-10.1-5.5-8.6 0-13.1 6.4-13.6 19.3v5.2c0 7 1.2 12.3 3.5 16.1 2.3 3.7 5.7 5.6 10.3 5.6 4.3 0 7.7-1.8 10-5.5s3.5-9 3.6-15.9v-3.2zm85.7 37h-17V576h-25.2v29.7h-17.1v-71.1h17.1v28.2h25.2v-28.2h17v71.1zm65.2-57.8h-21.3v57.9h-17.1v-57.9h-20.9v-13.2h59.4v13.2z"/><path class="st2" d="M1003.3 579.7c0 8.2-1.8 14.8-5.5 19.7-3.7 4.9-8.7 7.3-15 7.3-4.9 0-8.8-1.8-12-5.3V626h-16.5v-73.1h15.4l.5 4.9c3.2-3.9 7.3-5.9 12.5-5.9 6.5 0 11.6 2.4 15.2 7.2 3.6 4.8 5.4 11.4 5.4 19.8v.8zm-16.5-1c0-9.4-2.7-14.1-8.2-14.1-3.9 0-6.5 1.4-7.8 4.2v20.8c1.4 2.9 4.1 4.4 7.9 4.4 5.2 0 7.9-4.5 8.1-13.6v-1.7zm53.5 27c-.6-1.1-1.1-2.7-1.6-4.7-3 3.8-7.3 5.7-12.7 5.7-5 0-9.2-1.5-12.7-4.5s-5.2-6.8-5.2-11.4c0-5.7 2.1-10.1 6.3-13 4.2-2.9 10.4-4.4 18.5-4.4h5.1v-2.8c0-4.9-2.1-7.3-6.3-7.3-3.9 0-5.9 1.9-5.9 5.8h-16.5c0-5.1 2.2-9.3 6.5-12.4 4.3-3.2 9.9-4.8 16.6-4.8s12.1 1.6 16 4.9c3.9 3.3 5.9 7.8 6 13.5v23.4c.1 4.9.8 8.6 2.2 11.1v.8h-16.3zM1030 595c2.1 0 3.8-.4 5.1-1.3s2.3-1.9 2.9-3v-8.4h-4.8c-5.7 0-8.6 2.6-8.6 7.7 0 1.5.5 2.7 1.5 3.6 1 .9 2.3 1.4 3.9 1.4zm55.9-1c2.3 0 4.1-.6 5.4-1.9 1.3-1.3 1.9-3 1.9-5.2h15.4c0 5.8-2.1 10.5-6.2 14.3s-9.5 5.6-16 5.6c-7.7 0-13.7-2.4-18.2-7.2-4.4-4.8-6.6-11.5-6.6-20v-.7c0-5.3 1-10 3-14.1s4.8-7.2 8.5-9.4 8.1-3.3 13.2-3.3c6.9 0 12.3 1.9 16.4 5.7 4 3.8 6.1 9 6.1 15.5h-15.4c0-2.7-.7-4.8-2-6.3s-3.1-2.2-5.4-2.2c-4.3 0-6.8 2.7-7.5 8.2-.2 1.7-.3 4.1-.3 7.1 0 5.3.6 9 1.9 11s3.1 2.9 5.8 2.9zm75.9-28.5h-16.7v40.2h-16.6v-40.2h-16.4v-12.6h49.6v12.6z"/></svg>