<svg version="1.1" xmlns="http://www.w3.org/2000/svg" x="0" y="0" viewBox="0 0 512 49" xml:space="preserve"><path d="M22.1 48.8H11V13.2L0 16.4V8L21.1.7h1v48.1zm64.9 0H53.5v-7.3L69 25.3c3.8-4.3 5.7-7.8 5.7-10.3 0-2.1-.5-3.6-1.4-4.7-.9-1.1-2.2-1.6-3.9-1.6-1.7 0-3.1.7-4.1 2.2-1.1 1.4-1.6 3.2-1.6 5.4H52.5c0-3 .7-5.7 2.2-8.2 1.5-2.5 3.5-4.5 6.1-5.9C63.5.7 66.4 0 69.6 0c5.2 0 9.2 1.2 12 3.6 2.8 2.4 4.2 5.8 4.2 10.3 0 1.9-.4 3.7-1.1 5.5-.7 1.8-1.8 3.7-3.3 5.6-1.5 2-3.9 4.6-7.2 7.9L68 40.1h19v8.7zm32.6-28.7h5.3c4.2 0 6.2-2 6.2-6.1 0-1.6-.5-2.9-1.5-3.9s-2.4-1.5-4.2-1.5c-1.5 0-2.8.4-3.8 1.3-1.1.9-1.6 1.9-1.6 3.2h-11.1c0-2.5.7-4.8 2.1-6.8 1.4-2 3.4-3.5 5.9-4.6 2.5-1.1 5.2-1.7 8.2-1.7 5.4 0 9.6 1.2 12.6 3.7 3.1 2.4 4.6 5.8 4.6 10.1 0 2.1-.6 4-1.9 5.9-1.3 1.8-3.1 3.3-5.5 4.5 2.6.9 4.6 2.3 6 4.2 1.5 1.9 2.2 4.2 2.2 7 0 4.3-1.7 7.7-5 10.3-3.3 2.6-7.6 3.9-13 3.9-3.1 0-6.1-.6-8.8-1.8-2.7-1.2-4.7-2.9-6.1-5-1.4-2.1-2.1-4.5-2.1-7.2h11.2c0 1.5.6 2.8 1.8 3.8 1.2 1.1 2.7 1.6 4.4 1.6 2 0 3.5-.5 4.7-1.6 1.2-1.1 1.8-2.5 1.8-4.2 0-2.4-.6-4.1-1.8-5.2-1.2-1-2.9-1.5-5-1.5h-5.4v-8.4zm75.3 9.9h4.9v8.6h-4.9v10.2h-11.1V38.6h-18.6l-.7-6.8 19.3-31V.7h11.1V30zm-19.8 0h8.7V15.2l-.7 1.1-8 13.7zm73.3-30v8.8h-.5c-4.2 0-7.6 1-10.3 3-2.7 2-4.3 4.8-4.9 8.3 2.5-2.5 5.7-3.7 9.5-3.7 4.2 0 7.5 1.5 9.9 4.6 2.5 3 3.7 7 3.7 12 0 3.1-.7 5.9-2.2 8.4-1.4 2.6-3.5 4.6-6 6-2.6 1.4-5.5 2.2-8.6 2.2-3.4 0-6.5-.8-9.1-2.3-2.7-1.6-4.8-3.8-6.3-6.7-1.5-2.9-2.3-6.2-2.3-10V26c0-5 1.1-9.4 3.2-13.4s5.2-7.1 9.1-9.3c3.9-2.2 8.3-3.4 13.1-3.4h1.7zm-10.1 24.9c-1.5 0-2.7.3-3.7 1s-1.7 1.5-2.2 2.5v3.3c0 6.1 2.1 9.1 6.3 9.1 1.7 0 3.1-.8 4.2-2.3 1.1-1.5 1.7-3.4 1.7-5.7 0-2.4-.6-4.3-1.7-5.8-1.1-1.4-2.6-2.1-4.6-2.1zm72.6-18.3l-18 42.1h-11.8l18-39.5h-22.9V.7h34.6v5.9zm55 6.9c0 2.3-.6 4.4-1.7 6.2-1.2 1.8-2.7 3.2-4.8 4.3 2.3 1.1 4.1 2.7 5.4 4.6 1.3 1.9 2 4.3 2 6.9 0 4.3-1.5 7.7-4.4 10.2-3 2.5-7 3.7-12.2 3.7-5.2 0-9.3-1.2-12.4-3.7-3-2.5-4.5-5.9-4.5-10.2 0-2.6.7-4.9 2-6.8 1.3-2 3.2-3.5 5.6-4.7-2-1.1-3.7-2.5-4.8-4.3-1.2-1.8-1.8-3.8-1.8-6.2 0-4.2 1.4-7.5 4.3-9.9 2.8-2.4 6.7-3.6 11.5-3.6 4.9 0 8.7 1.2 11.6 3.6 2.8 2.5 4.2 5.8 4.2 9.9zm-10.2 21.1c0-2-.5-3.5-1.5-4.6-1-1.1-2.4-1.6-4-1.6-1.7 0-3 .5-4.1 1.6-1 1.1-1.6 2.6-1.6 4.6 0 1.9.5 3.4 1.6 4.5 1 1.1 2.4 1.7 4.1 1.7 1.7 0 3-.6 4-1.7 1-1 1.5-2.5 1.5-4.5zm-5.6-26c-1.5 0-2.6.5-3.4 1.5-.8 1-1.2 2.3-1.2 4.1 0 1.7.4 3.1 1.2 4.2.8 1.1 2 1.6 3.5 1.6s2.7-.5 3.4-1.6c.8-1.1 1.1-2.4 1.1-4.2s-.4-3.1-1.2-4.1c-.7-1-1.8-1.5-3.4-1.5zm61.4 21.6c-2.4 2.2-5.1 3.2-8.1 3.2-4.4 0-7.8-1.5-10.4-4.4-2.6-3-3.8-6.9-3.8-11.8 0-3.1.7-5.9 2.1-8.6 1.4-2.6 3.4-4.7 6-6.3 2.6-1.5 5.4-2.3 8.6-2.3 3.2 0 6 .8 8.6 2.4 2.6 1.6 4.6 3.9 6 6.8 1.4 2.9 2.2 6.3 2.2 10.1v4.3c0 5.3-1 9.9-3.1 13.8-2.1 3.9-5 6.9-8.9 9-3.9 2.1-8.3 3.1-13.5 3.1h-.7v-8.9h2.1c7.7-.5 12-3.9 12.9-10.4zm-5.1-4.8c2.4 0 4.2-1 5.2-3.1v-4.6c0-3.1-.5-5.4-1.6-6.8-1-1.5-2.4-2.2-4.2-2.2-1.6 0-2.9.8-3.9 2.5-1.1 1.7-1.6 3.7-1.6 6.1 0 2.5.5 4.5 1.6 6 1.2 1.4 2.6 2.1 4.5 2.1zm63.8 23.4H459V13.2l-11 3.2V8L469.1.7h1v48.1zM512 29.1c0 6.5-1.5 11.5-4.4 15-2.9 3.5-7 5.3-12.3 5.3-5.3 0-9.5-1.8-12.4-5.3-2.9-3.5-4.4-8.5-4.4-15v-8.8c0-6.5 1.5-11.5 4.4-15 2.9-3.5 7-5.3 12.4-5.3 5.3 0 9.5 1.8 12.4 5.3 2.9 3.5 4.4 8.6 4.4 15v8.8zm-11.1-10.2c0-3.5-.5-6-1.4-7.7-.9-1.7-2.3-2.6-4.3-2.6-1.9 0-3.3.8-4.2 2.4-.9 1.6-1.3 4-1.4 7.2v12.3c0 3.6.5 6.2 1.4 7.9s2.3 2.5 4.3 2.5c1.9 0 3.3-.8 4.2-2.4.9-1.6 1.4-4.2 1.4-7.6v-12z" fill="#36434f"/></svg>