<svg xmlns="http://www.w3.org/2000/svg" viewBox="0 0 1920 673" xml:space="preserve"><style>.st2{opacity:.15;fill:#444;enable-background:new}.st3{fill:#35965f}</style><path fill="#b1e0d7" d="M0 0h1920v673H0z"/><path d="m1130 446.3-109.8-109.8L1130 226.7l-60.1-60.1-109.8 109.8-109.9-109.9-60.1 60.1L900 336.5 790 446.4l60.1 60.1 110-109.9 109.8 109.9 60.1-60.2z" fill="#cc584c"/><path class="st2" d="m960.1 276.3-110-109.8-60 60v.2l109.8 109.8-109.8 109.8v.1l60 60h.1L960 396.6l.1.1V276.3z"/><path class="st3" d="m757.7 96.7-60.1-60.1-159.7 159.6-60.1-60.1-60.1 60.1 76.1 76.2 44.1 44L757.7 96.7z"/><path class="st2" d="M537.9 316.4V196.2l-60.1-60.1-60.1 60.1 76.1 76.2 44.1 44z"/><path class="st3" d="m757.7 416.7-60.1-60.1-159.7 159.6-60.1-60.1-60.1 60.1 76.1 76.2 44.1 44 219.8-219.7z"/><path class="st2" d="M537.9 636.4V516.2l-60.1-60.1-60.1 60.1 76.1 76.2 44.1 44z"/><path class="st3" d="m1502.3 96.7-60.1-60.1-159.7 159.6-60.1-60.1-60.1 60.1 76.1 76.2 44.1 44 219.8-219.7z"/><path class="st2" d="M1282.5 316.4V196.2l-60.1-60.1-60.1 60.1 76.1 76.2 44.1 44z"/><path class="st3" d="m1502.3 416.7-60.1-60.1-159.7 159.6-60.1-60.1-60.1 60.1 76.1 76.2 44.1 44 219.8-219.7z"/><path class="st2" d="M1282.5 636.4V516.2l-60.1-60.1-60.1 60.1 76.1 76.2 44.1 44z"/></svg>