<svg xmlns="http://www.w3.org/2000/svg" viewBox="0 0 1920 673" xml:space="preserve"><style>.st1{fill:#36434f}.st2{fill:#a18267}.st4{fill:#d0a297}.st5{fill:#e9b3a6}.st6{fill:#f4f4f4}</style><path fill="#4caf50" d="M0 0h1920v673H0z"/><path class="st1" d="M1145 190.6s-44 4-76-19c-19.4-14-37-32-47.9-44-2.6-2.9-7.3-.1-6 3.5 6.3 18.2 18.3 47.3 35.9 65.5 27 28 85 40 85 40l9-46zm174 0s44 4 76-19c19.4-14 37-32 47.9-44 2.6-2.9 7.3-.1 6 3.5-6.3 18.2-18.3 47.3-35.9 65.5-27 28-85 40-85 40l-9-46z"/><path class="st2" d="m1143.9 314.6-12.9-50-37.5-17.2c-6.9-3.2-13.5-7.1-19.7-11.4-2.7-1.9-5.6-3.7-8.6-5.5-34.5-19.9-72.7-18.5-85.2 3.2s5.3 55.4 39.8 75.4c19.6 11.3 40.4 15.8 57 13.5 5.9-.8 11.9-.7 17.8.2 7.6 1.1 15.3.7 22.7-1.2l26.6-7zm176.2 0 12.9-50 37.5-17.2c6.9-3.2 13.5-7.1 19.7-11.4 2.7-1.9 5.6-3.7 8.6-5.5 34.5-19.9 72.7-18.5 85.2 3.2s-5.3 55.4-39.8 75.4c-19.6 11.3-40.4 15.8-57 13.5-5.9-.8-11.9-.7-17.8.2-7.6 1.1-15.3.7-22.7-1.2l-26.6-7z"/><path d="m1338.2 249.2-5.2-39.5c-1.9-14.3-11.2-26.5-24.5-32.1l-7.3-3c-12.7-5.3-26.3-8-40.1-8h-58.3c-13.7 0-27.4 2.7-40.1 8l-7.3 3c-13.3 5.5-22.7 17.8-24.5 32.1l-5.2 39.5c-2.5 19.5-2.4 39.3.5 58.7l7.1 47.6c3 20 7.3 39.8 13 59.2l28.5 97.9h114l28.5-97.9c5.7-19.4 10-39.2 13-59.2l7.1-47.6c3.1-19.4 3.3-39.2.8-58.7z" fill="#e0ac7e"/><ellipse class="st4" cx="1232" cy="512.6" rx="47.5" ry="34"/><path class="st5" d="M1290.2 520.6c6.2 0 11.4-4.7 11.9-10.8.2-2.4.3-4.8.3-7.2 0-41.4-31.6-75-70.5-75s-70.5 33.6-70.5 75c0 2.4.1 4.8.3 7.2.6 6.1 5.8 10.8 11.9 10.8h116.6z"/><path class="st1" d="M1278.1 481c.6-1.6.9-3.2.9-4.9.1-3.9 0-8-.4-10.5-.6-3.4-3.1-6.2-5.1-7.9-1-.8-2.5 0-2.3 1.3.4 3.1.7 7.6-.6 10.7-.2.5-.4 1-.7 1.5-1.1 2.1-3 3.6-5.2 4.6-.6.3-1.3.6-1.9 1-6.2 3.6-9.4 9.7-7.1 13.7 2.3 4.1 9.5 4.3 15.8.5.1 0 .1-.1.2-.1 2.7-2.7 4.9-6 6.4-9.9zm-92.2 0c-.6-1.6-.9-3.2-.9-4.9-.1-3.9 0-8 .4-10.5.6-3.4 3.1-6.2 5.1-7.9 1-.8 2.5 0 2.3 1.3-.4 3.1-.7 7.6.6 10.7.2.5.4 1 .7 1.5 1.1 2.1 3 3.6 5.2 4.6.6.3 1.3.6 1.9 1 6.2 3.6 9.4 9.7 7.1 13.7-2.3 4.1-9.5 4.3-15.8.5-.1 0-.1-.1-.2-.1-2.7-2.7-4.9-6-6.4-9.9z"/><circle class="st6" cx="1165.4" cy="326" r="22.5"/><circle class="st1" cx="1165.4" cy="326" r="9.8"/><circle class="st6" cx="1161.9" cy="322.9" r="3.1"/><circle class="st6" cx="1298.6" cy="326" r="22.5"/><circle class="st1" cx="1298.6" cy="326" r="9.8"/><circle class="st6" cx="1295" cy="322.9" r="3.1"/><path class="st1" d="M577.1 164s-47.9 6-82.8-28.6c-21.1-21.1-40.3-48.2-52.2-66.3-2.8-4.4-8-.2-6.5 5.3 6.9 27.4 19.9 71.3 39.1 98.7 29.4 42.2 92.6 60.3 92.6 60.3l9.8-69.4zm189.6 0s47.9 6 82.8-28.6c21.1-21.1 40.3-48.2 52.2-66.3 2.8-4.4 8-.2 6.5 5.3-6.9 27.4-19.9 71.3-39.1 98.7-29.4 42.2-92.6 60.3-92.6 60.3l-9.8-69.4z"/><path class="st2" d="m583.9 296.4-12.9-50-37.5-17.2c-6.9-3.2-13.5-7.1-19.7-11.4-2.7-1.9-5.6-3.7-8.6-5.5-34.5-19.9-72.7-18.5-85.2 3.2s5.3 55.4 39.8 75.4c19.6 11.3 40.4 15.8 57 13.5 5.9-.8 11.9-.7 17.8.2 7.6 1.1 15.3.7 22.7-1.2l26.6-7zm176.2 0 12.9-50 37.5-17.2c6.9-3.2 13.5-7.1 19.7-11.4 2.7-1.9 5.6-3.7 8.6-5.5 34.5-19.9 72.7-18.5 85.2 3.2s-5.3 55.4-39.8 75.4c-19.6 11.3-40.4 15.8-57 13.5-5.9-.8-11.9-.7-17.8.2-7.6 1.1-15.3.7-22.7-1.2l-26.6-7z"/><path d="m802 231-6.4-39.5c-2.3-14.3-13.7-26.5-30-32.1l-8.9-3c-15.5-5.3-32.2-8-49.1-8h-71.4c-16.8 0-33.5 2.7-49.1 8l-8.9 3c-16.3 5.5-27.8 17.8-30 32.1l-6.4 39.5c-3.1 19.5-2.9 39.3.6 58.7l8.7 47.6c3.7 20 8.9 39.8 15.9 59.2l34.9 97.9h139.5l34.9-97.9c7-19.4 12.2-39.2 15.9-59.2l8.7-47.6c3.9-19.4 4.2-39.2 1.1-58.7z" fill="#ce956b"/><ellipse class="st4" cx="672" cy="507.9" rx="54.1" ry="38.7"/><path class="st5" d="M738.3 507c7.1 0 13-5.4 13.5-12.3.2-2.7.3-5.5.3-8.2 0-47.1-36-85.4-80.3-85.4s-80.3 38.2-80.3 85.4c0 2.7.1 5.5.3 8.2.7 6.9 6.6 12.3 13.5 12.3h133z"/><path class="st1" d="M718.1 462.8c.6-1.6.9-3.2.9-4.9.1-3.9 0-8-.4-10.5-.6-3.4-3.1-6.2-5.1-7.9-1-.8-2.5 0-2.3 1.3.4 3.1.7 7.6-.6 10.7-.2.5-.4 1-.7 1.5-1.1 2.1-3 3.6-5.2 4.6-.6.3-1.3.6-1.9 1-6.2 3.6-9.4 9.7-7.1 13.7 2.3 4.1 9.5 4.3 15.8.5.1 0 .1-.1.2-.1 2.7-2.7 4.9-6 6.4-9.9zm-92.2 0c-.6-1.6-.9-3.2-.9-4.9-.1-3.9 0-8 .4-10.5.6-3.4 3.1-6.2 5.1-7.9 1-.8 2.5 0 2.3 1.3-.4 3.1-.7 7.6.6 10.7.2.5.4 1 .7 1.5 1.1 2.1 3 3.6 5.2 4.6.6.3 1.3.6 1.9 1 6.2 3.6 9.4 9.7 7.1 13.7-2.3 4.1-9.5 4.3-15.8.5-.1 0-.1-.1-.2-.1-2.7-2.7-4.9-6-6.4-9.9z"/><circle class="st6" cx="602.9" cy="312" r="26.7"/><circle class="st1" cx="602.9" cy="312" r="11.6"/><circle class="st6" cx="598.8" cy="308.3" r="3.7"/><circle class="st6" cx="740.9" cy="312" r="26.7"/><circle class="st1" cx="740.9" cy="312" r="11.6"/><circle class="st6" cx="736.6" cy="308.3" r="3.7"/><path class="st1" d="M620.9 267.3c-1.8 0-3.6-.6-5.1-1.8l-28-23c-3.4-2.8-3.9-7.8-1.1-11.3 2.8-3.4 7.8-3.9 11.3-1.1l28 23c3.4 2.8 3.9 7.8 1.1 11.3-1.6 1.9-3.9 2.9-6.2 2.9zm102 0c1.8 0 3.6-.6 5.1-1.8l28-23c3.4-2.8 3.9-7.8 1.1-11.3-2.8-3.4-7.8-3.9-11.3-1.1l-28 23c-3.4 2.8-3.9 7.8-1.1 11.3 1.6 1.9 3.9 2.9 6.2 2.9z"/></svg>