<svg xmlns="http://www.w3.org/2000/svg" viewBox="0 0 1920 673" xml:space="preserve"><style>.st1{fill:#f4f4f4}.st2{fill:#cc584c;enable-background:new}.st2,.st3{opacity:.7}.st3,.st4{enable-background:new}.st3{fill:#35965f}.st4{opacity:.15;fill:#444}.st6{fill:#36434f}</style><path fill="#ddc4b0" d="M0 0h1920v673H0z"/><path class="st1" d="M1029.5 403h-139c-5.1 0-9.3 4.2-9.3 9.3v231.4c0 5.1 4.2 9.3 9.3 9.3h139.1c5.1 0 9.3-4.2 9.3-9.3V412.3c-.1-5.1-4.2-9.3-9.4-9.3z"/><path class="st2" d="M954.9 653h-1.1l-72.6-125.8v-2L954.9 653zm-73.7-189.3v3.9l107 185.4h2.2L881.2 463.7zm0 21.5v2L976.9 653h1.1l-96.8-167.8zm0 27.4v3.9L960 653h2.2l-81-140.4zm0-55.7v3.9L992.1 653h2.2c.1 0-113.1-196.1-113.1-196.1zm0 62.5v2.9L956.6 653h1.7l-77.1-133.6zm0-13.7v3.9L964 653h2.2l-85-147.3zm0-15.6v1L974.6 653h.6l-94-162.9zm0-8.8v1L979.7 653h.6l-99.1-171.7zm0-30.3v2.9l114.9 199h1.7c0 .1-116.6-201.9-116.6-201.9zm0-32.7v2L1015.5 653h1.1L881.2 418.3zm0-5.8v2.9L1018.3 653h1.7c.1 0-138.8-240.5-138.8-240.5zm0 15.1v1L1010.7 653h.6L881.2 427.6zm0-4.4v1.5L1013 653h.8c.1 0-132.6-229.8-132.6-229.8zm0 23v2L999.5 653h1.1L881.2 446.2zm0-4.4v1.5L1002.3 653h.8L881.2 441.8zm0-3.9v1L1004.8 653h.6L881.2 437.9zm0 154.3v2l34 58.9h1.1c0-.1-35.1-60.9-35.1-60.9zm0 34.1v2.9l13.7 23.7h1.7l-15.4-26.6zm0 5.9v2l10.9 18.8h1.1l-12-20.8zm0-12.7v3.9l17.1 29.6h2.2l-19.3-33.5zm0-22.5v1l31.7 55h.6l-32.3-56zm152.3-193.1 5.3 9.1v-.8c0-3.6-2.1-6.8-5.3-8.3zm-151.1 3.8c-.4.7-.7 1.5-.9 2.3l140.3 243h2.2L882.4 407.7zm-1.2 229.4v1.5l8.3 14.4h.9l-9.2-15.9zm0-107v1.5L951.3 653h.8l-70.9-122.9zm0 111.4v1l5.7 9.8c.2.1.5.2.7.2l-6.4-11zm0-96.7v1L943.1 653h.6l-62.5-108.2zm0 43.5v1L918 653h.6l-37.4-64.7zm0-53.8v1L949 653h.6l-68.4-118.5zm0 18.6v2l56.5 97.9h1.1l-57.6-99.9zm0-4.4v1.5L940.6 653h.8l-60.2-104.3zm0 22v3.9l45.3 78.4h2.2l-47.5-82.3zm0-12.7v2.9l53.2 92.1h1.7l-54.9-95zm0 5.8v3.9l49.2 85.3h2.2l-51.4-89.2zm0 48.9v3.9l21 36.4h2.2l-23.2-40.3zM959.4 403h-.6l79.9 138.5v-1L959.4 403zm20.3 0h-1.1l60.2 104.3v-2L979.7 403zm13.3 0h-.8l46.7 80.9v-1.5L993 403zm-2.5 0h-.6l48.9 84.8v-1L990.5 403zm-6 0h-.6l54.9 95v-1l-54.3-94zm-14.9 0h-2.2l71.5 123.8v-3.9L969.6 403zm3.9 0h-2.2l67.5 117v-3.9L973.5 403zm3.4 0h-1.7l63.6 110.2v-2.9L976.9 403zm5.4 0h-.8l57.4 99.4v-1.5L982.3 403zm36.6 0h-1.1l21 36.4v-2l-19.9-34.4zm2.3 0h-.6l18.2 31.5v-1l-17.6-30.5zm-25.4 0h-1.1l44.1 76.5v-2l-43-74.5zm35.6.2c-.6-.1-1.3-.2-1.9-.2h-.5l9.8 16.9V416l-7.4-12.8zm-15.3-.2h-.6l23.3 40.3v-1l-22.7-39.3zm-16.9 0h-1.7l41.3 71.6v-2.9L999.2 403zm3.9 0h-2.2l37.9 65.7v-3.9l-35.7-61.8zm4 0h-2.2l34 58.9V458l-31.8-55zm-73 0H933l105.9 183.4v-2L934.1 403zm-13.6 0h-.8l119.1 206.3v-1.5L920.5 403zm36.7 0H956l82.8 143.4v-2L957.2 403zm-45.4 0h-2.2l129.3 223.9V623L911.8 403zm6.2 0h-1.1l122 211.2v-2L918 403zm-10.1 0h-2.2L1039 633.8v-3.9L907.9 403zm-15.3 0h-.6l143.2 248c.1-.1.2-.2.4-.3L892.6 403zm5.1 0h-.6l141 244.2c.1-.2.1-.4.2-.6L897.7 403zm-2.3 0h-1.1l142.4 246.6.6-.9c0 .1-141.9-245.7-141.9-245.7zm19.8 0h-1.7l125.3 217.1v-2.9L915.2 403zm30.2 0h-2.2l95.8 165.8v-3.9L945.4 403zm-4 0h-2.2l99.7 172.7v-3.9L941.4 403zm13 0h-.6l85 147.3v-1L954.4 403zm-17 0h-1.7l103.1 178.5v-2.9L937.4 403zm-52.6 2c-.5.4-1 .9-1.5 1.4L1025.7 653h2.2L884.8 405zm43.9-2h-.6l110.7 191.7v-1L928.7 403zm-5.9 0h-.6l116.6 202v-1l-116-201zm8.4 0h-.8l108.4 187.8v-1.5L931.2 403z"/><path class="st3" d="M881.2 590.8v-1.5L988.8 403h.8L881.2 590.8zM961.1 403h-.6l-79.3 137.5v1L961.1 403zm26 0H986L881.2 584.4v2L987.1 403zm4.7 0h-.6l-110 190.7v1L991.8 403zm-27.8 0h-1.1l-81.6 141.4v2L964 403zm2.2 0h-.6l-84.5 146.3v1L966.2 403zm31.6 0h-.6l-116 201v1l116.6-202zm-20.9 0h-2.2l-93.5 161.9v3.9L976.9 403zm7.4 0h-1.7L881.2 578.6v2.9L984.3 403zm41.4 0h-1.1L882.7 648.8l.6.9L1025.7 403zm-2.9 0h-.6L881.6 646.6c0 .2.1.4.2.6l141-244.2zm-8.4 0h-2.2l-131 226.9v3.9L1014.4 403zm13.5 0h-.5l-143 247.7c.1.1.2.2.4.3l143.1-248zm-27.6 0h-.8L881.2 607.9v1.5L1000.3 403zm36.4 3.4c-.4-.5-.9-1-1.5-1.4L892.1 653h2.2l142.4-246.6zm-33.6-3.4h-1.1L881.2 612.3v2L1003.1 403zm3.4 0h-1.7L881.2 617.2v2.9L1006.5 403zm3.9 0h-2.2l-127 220v3.9L1010.4 403zm-95.2 0H913l-31.7 55v3.9l33.9-58.9zm-10.7 0h-.6l-22.7 39.4v1l23.3-40.4zm-2.3 0h-1.1l-19.9 34.5v2l21-36.5zm16.9 0h-2.2l-35.7 61.8v3.9l37.9-65.7zm3.4 0h-1.7l-39.6 68.7v2.9l41.3-71.6zm-36 .9c-3.1 1.5-5.3 4.7-5.3 8.3v.8c0 .1 5.3-9.1 5.3-9.1zm4.4-.9h-.5c-.6 0-1.3 0-1.9.2l-7.3 12.8v3.9l9.7-16.9zm8.5 0h-.6l-17.6 30.6v1l18.2-31.6zm45.4 0h-1.7l-61.9 107.2v2.9L944.8 403zm-3.4 0h-1.1l-59.1 102.3v2L941.4 403zm11.3 0h-2.2l-69.2 119.9v3.9L952.7 403zm-14.1 0h-.8l-56.5 97.9v1.5l57.3-99.4zm10.1 0h-2.2l-65.3 113.1v3.9l67.5-117zm-12.7 0h-.6l-54.2 94v1l54.8-95zm-10.7 0h-1.1l-43 74.5v2l44.1-76.5zm2.6 0h-.9l-45.8 79.4v1.5l46.7-80.9zm2.2 0h-.6l-48.3 83.8v1l48.9-84.8zm50.7 0h-2.2l-97.4 168.8v3.9L980.8 403zm58 164.7v-3.9L987.3 653h2.2l49.3-85.3zm0-6.8V558L984 653h1.7l53.1-92.1zm0-5.8v-2L981.1 653h1.1l56.6-97.9zm0 19.5v-3.9L991.3 653h2.2l45.3-78.4zm0-39.1v-1L970.4 653h.6l67.8-117.5zm0 14.7v-1.5L978.6 653h.8l59.4-102.8zm0 39v-1l-37.4 64.7h.6l36.8-63.7zm0-57.6v-1.5L967.9 653h.8l70.1-121.4zm0 14.2v-1L976.4 653h.6l61.8-107.2zm0 83.5v-2.9l-15.4 26.7h1.7l13.7-23.8zm0 4.9v-2l-12 20.8h1.1l10.9-18.8zm0 4.3V637l-9.2 15.9h.9l8.3-14.4zm0 4v-1l-6.3 11c.2-.1.5-.1.7-.2l5.6-9.8zm0-25.9v-3.9l-23.3 40.3h2.2l21.1-36.4zm0-18.6v-1l-32.3 56h.6l31.7-55zm0-3.9v-2l-35.1 60.8h1.1l34-58.8zm0 29.3v-3.9l-19.3 33.5h2.2l17.1-29.6zm0-155.8v-3.9L929.5 653h2.2l107.1-185.4zm0-28.8v-1L914.6 653h.6l123.6-214.2zm0-10.2v-1L908.7 653h.6l129.5-224.4zm0 14.6v-1.5L916.9 653h.8l121.1-209.8zm0 4.9v-2L919.4 653h1.1l118.3-204.9zm0-23.4v-1.5L906.1 653h.8l131.9-228.3zm0-9.3v-2.9L899.9 653h1.7l137.2-237.6zm0 38.6v-3L922.2 653h1.7l114.9-199zm0 73.2v-2L965.1 653h1.1l72.6-125.8zm0-106.9v-2L903.4 653h1.1l134.3-232.7zm0 96.2v-3.9l-81 140.4h2.2l78.8-136.5zm0-6.9v-3.9l-85 147.3h2.2l82.8-143.4zm0 12.7v-2.9L961.7 653h1.7l75.4-130.7zm0-31.2v-1l-94 162.9h.6l93.4-161.9zm0-8.8v-1L939.7 653h.6l98.5-170.7zm-.3-72.3c-.2-.8-.5-1.6-.9-2.3L896 653h2.2l140.3-243zm.3 50.8v-3.9L925.6 653h2.2l111-192.2zm0 26.4v-2L941.9 653h1.1l95.8-165.8z"/><path class="st4" d="M890.5 403c-5.1 0-9.3 4.2-9.3 9.3v231.4c0 5.1 4.2 9.3 9.3 9.3H960V403h-69.5z"/><path class="st1" d="M1494.8 406V267c0-5.1-4.2-9.3-9.3-9.3H1254c-5.1 0-9.3 4.2-9.3 9.3v139c0 5.1 4.2 9.3 9.3 9.3h231.4c5.2 0 9.4-4.1 9.4-9.3z"/><path class="st2" d="M1244.8 331.4v-1.1l125.8-72.6h2l-127.8 73.7zm189.2-73.7h-3.9l-185.4 107v2.2c.1 0 189.3-109.2 189.3-109.2zm-21.5 0h-2l-165.8 95.7v1.1c.1 0 167.8-96.8 167.8-96.8zm-27.3 0h-3.9l-136.5 78.8v2.2l140.4-81zm55.6 0h-3.9l-192.2 110.9v2.2c.1.1 196.1-113.1 196.1-113.1zm-62.5 0h-2.9l-130.7 75.4v1.7l133.6-77.1zm13.7 0h-3.9l-143.4 82.8v2.2c.1 0 147.3-85 147.3-85zm15.6 0h-1l-161.9 93.5v.6c.1-.1 162.9-94.1 162.9-94.1zm8.8 0h-1l-170.7 98.5v.6l171.7-99.1zm30.3 0h-2.9l-199 114.9v1.7l201.9-116.6zm32.7 0h-2L1244.8 392v1.1l234.6-135.4zm5.9 0h-2.9l-237.6 137.2v1.7l240.5-138.9zm-15.2 0h-1l-224.4 129.5v.6c.1 0 225.4-130.1 225.4-130.1zm4.4 0h-1.5l-228.3 131.8v.8c.1.1 229.8-132.6 229.8-132.6zm-22.9 0h-2L1244.8 376v1.1l206.8-119.4zm4.4 0h-1.5l-209.8 121.1v.8c.1 0 211.3-121.9 211.3-121.9zm3.9 0h-1l-214.2 123.6v.6c.1 0 215.2-124.2 215.2-124.2zm-154.3 0h-2l-58.9 34v1.1c.1 0 60.9-35.1 60.9-35.1zm-34.2 0h-2.9l-23.7 13.7v1.7l26.6-15.4zm-5.8 0h-2l-18.8 10.9v1.1l20.8-12zm12.6 0h-3.9l-29.6 17.1v2.2c.1 0 33.5-19.3 33.5-19.3zm22.5 0h-1l-55 31.7v.6c.1 0 56-32.3 56-32.3zM1493.8 410l-9.1 5.3h.8c3.6 0 6.8-2.1 8.3-5.3zm-3.8-151.1c-.7-.4-1.5-.7-2.3-.9l-243 140.3v2.2L1490 258.9zm-229.3-1.2h-1.5l-14.4 8.3v.9l15.9-9.2zm106.9 0h-1.5l-121.4 70.1v.8l122.9-70.9zm-111.3 0h-1l-9.8 5.7c-.1.2-.2.5-.2.7l11-6.4zm96.7 0h-1l-107.2 61.9v.6l108.2-62.5zm-43.5 0h-1l-63.8 36.8v.6l64.8-37.4zm53.7 0h-1l-117.5 67.8v.6l118.5-68.4zm-18.5 0h-2l-97.9 56.5v1.1l99.9-57.6zm4.3 0h-1.5l-102.8 59.4v.8l104.3-60.2zm-21.9 0h-3.9l-78.4 45.3v2.2l82.3-47.5zm12.7 0h-2.9l-92.1 53.2v1.7l95-54.9zm-5.9 0h-3.9l-85.3 49.2v2.2l89.2-51.4zm-48.8 0h-3.9l-36.4 21v2.2l40.3-23.2zm209.7 78.2v-.6l-138.5 79.9h1l137.5-79.3zm0 20.3v-1.1l-104.3 60.2h2l102.3-59.1zm0 13.3v-.8l-80.9 46.7h1.5l79.4-45.9zm0-2.5v-.6l-84.8 48.9h1l83.8-48.3zm0-6v-.6l-95 54.9h1l94-54.3zm0-14.9v-2.2L1371 415.4h3.9l119.9-69.3zm0 3.9v-2.2l-117 67.5h3.9l113.1-65.3zm0 3.4v-1.7l-110.2 63.6h2.9l107.3-61.9zm0 5.4v-.8l-99.4 57.4h1.5l97.9-56.6zm0 36.6v-1.1l-36.4 21h2l34.4-19.9zm0 2.3v-.6l-31.5 18.2h1l30.5-17.6zm0-25.4v-1.1l-76.5 44.1h2l74.5-43zm-.2 35.6c.1-.6.2-1.3.2-1.9v-.5l-16.9 9.8h3.9l12.8-7.4zm.2-15.3v-.6l-40.3 23.3h1l39.3-22.7zm0-16.9V374l-71.6 41.3h2.9l68.7-39.6zm0 3.9v-2.2l-65.7 37.9h3.9l61.8-35.7zm0 4v-2.2l-58.9 34h3.9l55-31.8zm0-73v-1.1l-183.4 105.9h2l181.4-104.8zm0-13.6v-.8l-206.3 119.1h1.5L1494.8 297zm0 36.7v-1.1l-143.4 82.8h2l141.4-81.7zm0-45.4v-2.2l-223.9 129.3h3.9l220-127.1zm0 6.2v-1.1l-211.2 122h2l209.2-120.9zm0-10.1v-2.2L1264 415.4h3.9l226.9-131zm0-15.3v-.6l-248 143.2c.1.1.2.2.3.4l247.7-143zm0 5.1v-.6l-244.2 141c.2.1.4.1.6.2l243.6-140.6zm0-2.3v-1.1l-246.6 142.4.9.6c-.1 0 245.7-141.9 245.7-141.9zm0 19.8V290l-217.1 125.3h2.9l214.2-123.6zm0 30.2v-2.2L1329 415.5h3.9l161.9-93.6zm0-4v-2.2l-172.7 99.7h3.9l168.8-97.5zm0 13v-.6l-147.3 85h1l146.3-84.4zm0-17v-1.7l-178.5 103.1h2.9l175.6-101.4zm-2.1-52.6c-.4-.5-.9-1-1.4-1.5l-246.6 142.4v2.2l248-143.1zm2.1 43.9v-.6l-191.7 110.7h1l190.7-110.1zm0-5.9v-.6l-202 116.6h1l201-116zm0 8.4v-.8L1307 415.4h1.5l186.3-107.7z"/><path class="st3" d="M1307 257.7h1.5l186.3 107.6v.8L1307 257.7zm187.8 79.9v-.6l-137.5-79.3h-1l138.5 79.9zm0 26v-1.1l-181.4-104.7h-2l183.4 105.8zm0 4.7v-.6l-190.8-110h-1l191.8 110.6zm0-27.8v-1.1l-141.4-81.6h-2l143.4 82.7zm0 2.2v-.6l-146.3-84.5h-1l147.3 85.1zm0 31.6v-.6l-201-116h-1l202 116.6zm0-20.9v-2.2l-161.9-93.5h-3.9l165.8 95.7zm0 7.4v-1.7l-175.6-101.4h-2.9l178.5 103.1zm0 41.4v-1.1L1249 259.2l-.9.6 246.7 142.4zm0-2.9v-.6l-243.6-140.6c-.2 0-.4.1-.6.2l244.2 141zm0-8.4v-2.2l-226.9-131h-3.9l230.8 133.2zm0 13.5v-.5l-247.7-143c-.1.1-.2.2-.3.4l248 143.1zm0-27.6v-.8l-204.9-118.3h-1.5l206.4 119.1zm-3.4 36.4c.5-.4 1-.9 1.4-1.5l-248-143.2v2.2l246.6 142.5zm3.4-33.6v-1.1l-209.3-120.8h-2l211.3 121.9zm0 3.4v-1.7l-214.2-123.6h-2.9L1494.8 383zm0 3.9v-2.2l-220-127h-3.9l223.9 129.2zm0-95.2v-2.2l-55-31.7h-3.9l58.9 33.9zm0-10.7v-.6l-39.4-22.7h-1l40.4 23.3zm0-2.3v-1.1l-34.5-19.9h-2l36.5 21zm0 16.9v-2.2l-61.8-35.7h-3.9l65.7 37.9zm0 3.4v-1.7l-68.7-39.6h-2.9l71.6 41.3zm-1-36c-1.5-3.1-4.7-5.3-8.3-5.3h-.8l9.1 5.3zm1 4.4v-.5c0-.6 0-1.3-.2-1.9l-12.8-7.3h-3.9l16.9 9.7zm0 8.5v-.6l-30.6-17.6h-1l31.6 18.2zm0 45.4v-1.7l-107.2-61.9h-2.9l110.1 63.6zm0-3.4v-1.1l-102.3-59.1h-2l104.3 60.2zm0 11.3V327l-119.9-69.2h-3.9l123.8 71.4zm0-14.1v-.8l-97.9-56.5h-1.5l99.4 57.3zm0 10.1V323l-113.1-65.3h-3.9l117 67.5zm0-12.7v-.6l-94-54.2h-1l95 54.8zm0-10.7v-1.1l-74.5-43h-2l76.5 44.1zm0 2.6v-.8l-79.4-45.8h-1.5l80.9 46.6zm0 2.2v-.6l-83.8-48.3h-1l84.8 48.9zm0 50.7v-2.2L1326 257.7h-3.9l172.7 99.6zm-164.8 58h3.9l-89.2-51.5v2.2l85.3 49.3zm6.8 0h2.9l-95-54.8v1.7l92.1 53.1zm5.9 0h2l-99.9-57.7v1.1l97.9 56.6zm-19.5 0h3.9l-82.3-47.5v2.2l78.4 45.3zm39 0h1l-118.5-68.4v.6l117.5 67.8zm-14.6 0h1.5l-104.3-60.2v.8l102.8 59.4zm-39.1 0h1l-64.7-37.4v.6l63.7 36.8zm57.6 0h1.5l-122.9-70.9v.8l121.4 70.1zm-14.1 0h1l-108.2-62.5v.6l107.2 61.9zm-83.5 0h2.9l-26.7-15.4v1.7l23.8 13.7zm-4.9 0h2l-20.8-12v1.1l18.8 10.9zm-4.4 0h1.5l-15.9-9.2v.9l14.4 8.3zm-3.9 0h1l-11-6.3c.1.2.1.5.2.7l9.8 5.6zm25.9 0h3.9l-40.3-23.3v2.2l36.4 21.1zm18.5 0h1l-56-32.3v.6l55 31.7zm3.9 0h2l-60.8-35.1v1.1l58.8 34zm-29.3 0h3.9l-33.5-19.3v2.2l29.6 17.1zm155.8 0h3.9L1244.8 306v2.2l185.3 107.1zm28.8 0h1l-215.1-124.2v.6l214.1 123.6zm10.3 0h1l-225.4-130.1v.6l224.4 129.5zm-14.7 0h1.5l-211.2-121.9v.8l209.7 121.1zm-4.9 0h2l-206.8-119.4v1.1l204.8 118.3zm23.5 0h1.5l-229.8-132.7v.8l228.3 131.9zm9.2 0h2.9l-240.5-138.9v1.7l237.6 137.2zm-38.5 0h2.9l-202-116.6v1.7l199.1 114.9zm-73.3 0h2l-127.7-73.7v1.1l125.7 72.6zm107 0h2l-234.7-135.4v1.1l232.7 134.3zm-96.2 0h3.9l-140.4-81.1v2.2l136.5 78.9zm6.8 0h3.9l-147.3-85v2.2l143.4 82.8zm-12.7 0h2.9l-133.6-77.1v1.7l130.7 75.4zm31.3 0h1l-162.9-94v.6l161.9 93.4zm8.8 0h1l-171.7-99.1v.6l170.7 98.5zm72.2-.3c.8-.2 1.6-.5 2.3-.9l-245.3-141.6v2.2l243 140.3zm-50.8.3h3.9l-196.1-113.2v2.2l192.2 111zm-26.3 0h2l-167.8-96.9v1.1l165.8 95.8z"/><path class="st4" d="M1494.8 267c0-5.1-4.2-9.3-9.3-9.3H1254c-5.1 0-9.3 4.2-9.3 9.3v69.5h250V267z"/><path class="st1" d="M425.3 267v139c0 5.1 4.2 9.3 9.3 9.3H666c5.1 0 9.3-4.2 9.3-9.3V267c0-5.1-4.2-9.3-9.3-9.3H434.5c-5.1 0-9.2 4.1-9.2 9.3z"/><path class="st2" d="M675.3 341.6v1.1l-125.8 72.6h-2l127.8-73.7zM486 415.3h3.9l185.4-107v-2.2L486 415.3zm21.5 0h2l165.8-95.7v-1.1l-167.8 96.8zm27.3 0h3.9l136.5-78.8v-2.2l-140.4 81zm-55.6 0h3.9l192.2-110.9v-2.2c0-.1-196.1 113.1-196.1 113.1zm62.5 0h2.9l130.7-75.4v-1.7l-133.6 77.1zm-13.7 0h3.9l143.4-82.8v-2.2l-147.3 85zm-15.6 0h1l161.9-93.5v-.6c0 .1-162.9 94.1-162.9 94.1zm-8.8 0h1l170.7-98.5v-.6l-171.7 99.1zm-30.3 0h2.9l199-114.9v-1.7c.1 0-201.9 116.6-201.9 116.6zm-32.7 0h2L675.3 281v-1.1L440.6 415.3zm-5.9 0h2.9l237.6-137.2v-1.7c.1 0-240.5 138.9-240.5 138.9zm15.2 0h1l224.4-129.5v-.6L449.9 415.3zm-4.4 0h1.5l228.3-131.8v-.8c0-.1-229.8 132.6-229.8 132.6zm22.9 0h2L675.3 297v-1.1L468.4 415.3zm-4.4 0h1.5l209.8-121.1v-.8L464 415.3zm-3.9 0h1l214.2-123.6v-.6L460.1 415.3zm154.3 0h2l58.9-34v-1.1l-60.9 35.1zm34.2 0h2.9l23.7-13.7v-1.7l-26.6 15.4zm5.8 0h2l18.8-10.9v-1.1c.1 0-20.8 12-20.8 12zm-12.6 0h3.9l29.6-17.1V396l-33.5 19.3zm-22.5 0h1l55-31.7v-.6l-56 32.3zM426.2 263l9.1-5.3h-.8c-3.6 0-6.8 2.1-8.3 5.3zm3.8 151.1c.7.4 1.5.7 2.3.9l243-140.3v-2.2L430 414.1zm229.3 1.2h1.5l14.4-8.3v-.9l-15.9 9.2zm-106.9 0h1.5l121.4-70.1v-.8l-122.9 70.9zm111.3 0h1l9.8-5.7c.1-.2.2-.5.2-.7l-11 6.4zm-96.7 0h1l107.2-61.9v-.6L567 415.3zm43.5 0h1l63.8-36.8v-.6l-64.8 37.4zm-53.7 0h1l117.5-67.8v-.6l-118.5 68.4zm18.5 0h2l97.9-56.5v-1.1l-99.9 57.6zm-4.3 0h1.5l102.8-59.4v-.8L571 415.3zm21.9 0h3.9l78.4-45.3v-2.2l-82.3 47.5zm-12.7 0h2.9l92.1-53.2v-1.7l-95 54.9zm5.9 0h3.9l85.3-49.2v-2.2l-89.2 51.4zm48.8 0h3.9l36.4-21V392l-40.3 23.3zm-209.6-78.2v.6l138.5-79.9h-1l-137.5 79.3zm0-20.3v1.1l104.3-60.2h-2l-102.3 59.1zm0-13.3v.8l80.9-46.7h-1.5l-79.4 45.9zm0 2.5v.6l84.8-48.9h-1L425.3 306zm0 6v.6l95-54.9h-1l-94 54.3zm0 14.9v2.2l123.8-71.5h-3.9l-119.9 69.3zm0-3.9v2.2l117-67.5h-3.9L425.3 323zm0-3.4v1.7l110.2-63.6h-2.9l-107.3 61.9zm0-5.4v.8l99.4-57.4h-1.5l-97.9 56.6zm0-36.6v1.1l36.4-21h-2l-34.4 19.9zm0-2.3v.6l31.5-18.2h-1l-30.5 17.6zm0 25.4v1.1l76.5-44.1h-2l-74.5 43zm.1-35.6c-.1.6-.2 1.3-.2 1.9v.5l16.9-9.8h-3.9l-12.8 7.4zm-.1 15.3v.6l40.3-23.3h-1l-39.3 22.7zm0 16.9v1.7l71.6-41.3H494l-68.7 39.6zm0-3.9v2.2l65.7-37.9h-3.9l-61.8 35.7zm0-4v2.2l58.9-34h-3.9l-55 31.8zm0 73v1.1l183.4-105.9h-2L425.3 362.4zm0 13.6v.8l206.3-119.1h-1.5L425.3 376zm0-36.7v1.1l143.4-82.8h-2l-141.4 81.7zm0 45.4v2.2l223.9-129.3h-3.9l-220 127.1zm0-6.2v1.1l211.2-122h-2L425.3 378.5zm0 10.1v2.2L656 257.6h-3.9l-226.8 131zm0 15.3v.6l248-143.2c-.1-.1-.2-.2-.3-.4l-247.7 143zm0-5.1v.6l244.2-141c-.2-.1-.4-.1-.6-.2L425.3 398.8zm0 2.3v1.1l246.6-142.4-.9-.6-245.7 141.9zm0-19.8v1.7l217.1-125.3h-2.9L425.3 381.3zm0-30.2v2.2l165.8-95.8h-3.9l-161.9 93.6zm0 4v2.2L598 257.6h-4l-168.7 97.5zm0-13v.6l147.3-85h-1l-146.3 84.4zm0 17v1.7l178.5-103.1h-2.9L425.3 359.1zm2 52.6c.4.5.9 1 1.4 1.5l246.6-142.4v-2.2l-248 143.1zm-2-43.9v.6L617 257.7h-1L425.3 367.8zm0 5.9v.6l202-116.6h-1l-201 116zm0-8.4v.8L613 257.6h-1.5L425.3 365.3z"/><path class="st3" d="M613 415.3h-1.5L425.3 307.7v-.8L613 415.3zm-187.7-79.9v.6l137.5 79.3h1l-138.5-79.9zm0-26v1.1l181.4 104.7h2L425.3 309.4zm0-4.7v.6l190.7 110h1L425.3 304.7zm0 27.8v1.1l141.4 81.6h2l-143.4-82.7zm0-2.2v.6l146.3 84.5h1l-147.3-85.1zm0-31.6v.6l201 116h1l-202-116.6zm0 20.9v2.2l161.9 93.5h3.9l-165.8-95.7zm0-7.4v1.7l175.6 101.4h2.9L425.3 312.2zm0-41.4v1.1L671 413.8l.9-.6-246.6-142.4zm0 2.9v.6l243.6 140.6c.2 0 .4-.1.6-.2l-244.2-141zm0 8.4v2.2l226.9 131h3.9L425.3 282.1zm0-13.5v.5l247.7 143c.1-.1.2-.2.3-.4l-248-143.1zm0 27.6v.8l204.9 118.3h1.5L425.3 296.2zm3.3-36.4c-.5.4-1 .9-1.4 1.5l248 143.2v-2.2L428.6 259.8zm-3.3 33.6v1.1l209.3 120.8h2L425.3 293.4zm0-3.4v1.7l214.2 123.6h2.9L425.3 290zm0-3.9v2.2l220 127h3.9L425.3 286.1zm0 95.2v2.2l55 31.7h3.9l-58.9-33.9zm0 10.7v.6l39.4 22.7h1L425.3 392zm0 2.3v1.1l34.5 19.9h2l-36.5-21zm0-16.9v2.2l61.8 35.7h3.9l-65.7-37.9zm0-3.4v1.7l68.7 39.6h2.9L425.3 374zm.9 36c1.5 3.1 4.7 5.3 8.3 5.3h.8l-9.1-5.3zm-.9-4.4v.5c0 .6 0 1.3.2 1.9l12.8 7.3h3.9c-.1 0-16.9-9.7-16.9-9.7zm0-8.5v.6l30.6 17.6h1l-31.6-18.2zm0-45.4v1.7l107.2 61.9h2.9l-110.1-63.6zm0 3.4v1.1l102.3 59.1h2l-104.3-60.2zm0-11.3v2.2l119.9 69.2h3.9l-123.8-71.4zm0 14.1v.8l97.9 56.5h1.5l-99.4-57.3zm0-10.1v2.2l113.1 65.3h3.9l-117-67.5zm0 12.7v.6l94 54.2h1l-95-54.8zm0 10.7v1.1l74.5 43h2l-76.5-44.1zm0-2.6v.8l79.4 45.8h1.5l-80.9-46.6zm0-2.2v.6l83.8 48.3h1l-84.8-48.9zm0-50.7v2.2L594 415.3h3.9l-172.6-99.6zm164.7-58h-3.9l89.2 51.5V307L590 257.7zm-6.8 0h-2.9l95 54.8v-1.7l-92.1-53.1zm-5.9 0h-2l99.9 57.7v-1.1l-97.9-56.6zm19.5 0h-3.9l82.3 47.5V303l-78.4-45.3zm-39 0h-1l118.5 68.4v-.6l-117.5-67.8zm14.6 0H571l104.3 60.2v-.8l-102.9-59.4zm39.1 0h-1l64.7 37.4v-.6l-63.7-36.8zm-57.6 0h-1.5l122.9 70.9v-.8l-121.4-70.1zm14.1 0h-1l108.2 62.5v-.6L568 257.7zm83.5 0h-2.9l26.7 15.4v-1.7l-23.8-13.7zm4.9 0h-2l20.8 12v-1.1l-18.8-10.9zm4.4 0h-1.5l15.9 9.2v-.9l-14.4-8.3zm3.9 0h-1l11 6.3c-.1-.2-.1-.5-.2-.7l-9.8-5.6zm-25.9 0h-3.9l40.3 23.3v-2.2l-36.4-21.1zm-18.5 0h-1l56 32.3v-.6l-55-31.7zm-3.9 0h-2l60.8 35.1v-1.1l-58.8-34zm29.3 0h-3.9l33.5 19.3v-2.2l-29.6-17.1zm-155.8 0H486L675.3 367v-2.2L489.9 257.7zm-28.8 0h-1l215.1 124.2v-.6L461.1 257.7zm-10.3 0h-1l225.4 130.1v-.6L450.8 257.7zm14.7 0H464l211.2 121.9v-.8L465.5 257.7zm4.9 0h-2l206.8 119.4V376L470.4 257.7zm-23.5 0h-1.5l229.8 132.7v-.8L446.9 257.7zm-9.2 0h-2.9l240.5 138.9v-1.7L437.7 257.7zm38.5 0h-2.9l202 116.6v-1.7L476.2 257.7zm73.3 0h-2l127.7 73.7v-1.1l-125.7-72.6zm-107 0h-2l234.7 135.4V392L442.5 257.7zm96.2 0h-3.9l140.4 81.1v-2.2l-136.5-78.9zm-6.8 0H528l147.3 85v-2.2l-143.4-82.8zm12.7 0h-2.9l133.6 77.1v-1.7l-130.7-75.4zm-31.3 0h-1l162.9 94v-.6l-161.9-93.4zm-8.8 0h-1l171.7 99.1v-.6l-170.7-98.5zm-72.2.3c-.8.2-1.6.5-2.3.9l245.3 141.6v-2.2L432.3 258zm50.8-.3h-3.9l196.1 113.2v-2.2l-192.2-111zm26.3 0h-2l167.8 96.9v-1.1l-165.8-95.8z"/><path class="st4" d="M425.3 406c0 5.1 4.2 9.3 9.3 9.3H666c5.1 0 9.3-4.2 9.3-9.3v-69.5h-250V406zM959.5 21.5h-139c-5.1 0-9.3 4.2-9.3 9.3v231.4c0 5.1 4.2 9.3 9.3 9.3h139c5.1 0 9.3-4.2 9.3-9.3V30.8c0-5.1-4.1-9.3-9.3-9.3z"/><path class="st1" d="M969.5 31.5h-139c-5.1 0-9.3 4.2-9.3 9.3v231.4c0 5.1 4.2 9.3 9.3 9.3h139.1c5.1 0 9.3-4.2 9.3-9.3V40.8c-.1-5.1-4.2-9.3-9.4-9.3z"/><path d="M840.4 70.7c-6.1-6.7-11.4-.4-7.9 3.9l.9.9c1.5 1.2 2.2 1.9 3.9 3.7 1.8 2 3.1 5.6 3.1 5.6s1.3-3.6 3.1-5.6c1.7-1.9 2.3-2.5 3.9-3.7.3-.2.6-.5.9-.9 3.6-4.3-1.8-10.6-7.9-3.9zm119.2 171.6c-6.1 6.7-11.4.4-7.9-3.9l.9-.9c1.5-1.2 2.2-1.9 3.9-3.7 1.8-2 3.1-5.6 3.1-5.6s1.3 3.6 3.1 5.6c1.7 1.9 2.3 2.5 3.9 3.7.3.2.6.5.9.9 3.5 4.3-1.8 10.6-7.9 3.9zM870.7 63.1c-11.3-12.5-21.2-.7-14.6 7.1.5.6 1.1 1.1 1.7 1.6 2.8 2.1 4.1 3.5 7.2 6.9 3.3 3.8 5.7 10.4 5.7 10.4s2.4-6.6 5.8-10.4c3.1-3.5 4.3-4.7 7.2-6.9.6-.5 1.2-1 1.7-1.6 6.5-7.8-3.4-19.5-14.7-7.1zm58.6 0c-11.3-12.5-21.2-.7-14.6 7.1.5.6 1.1 1.1 1.7 1.6 2.8 2.1 4.1 3.5 7.2 6.9 3.3 3.8 5.7 10.4 5.7 10.4s2.4-6.6 5.8-10.4c3.1-3.5 4.3-4.7 7.2-6.9.6-.5 1.2-1 1.7-1.6 6.5-7.8-3.4-19.5-14.7-7.1zM900 146.2c-11.3-12.5-21.2-.7-14.6 7.1.5.6 1.1 1.1 1.7 1.6 2.8 2.1 4.1 3.5 7.2 6.9 3.3 3.7 5.8 10.4 5.8 10.4s2.4-6.6 5.8-10.4c3.1-3.5 4.3-4.7 7.2-6.9.6-.5 1.2-1 1.7-1.6 6.4-7.8-3.5-19.5-14.8-7.1zm-29.3-27.7c-11.3-12.5-21.2-.7-14.6 7.1.5.6 1.1 1.1 1.7 1.6 2.8 2.1 4.1 3.5 7.2 6.9 3.3 3.7 5.8 10.4 5.8 10.4s2.4-6.6 5.8-10.4c3.1-3.5 4.3-4.7 7.2-6.9.6-.5 1.2-1 1.7-1.6 6.4-7.8-3.5-19.5-14.8-7.1zm58.6 0c-11.3-12.5-21.2-.7-14.6 7.1.5.6 1.1 1.1 1.7 1.6 2.8 2.1 4.1 3.5 7.2 6.9 3.3 3.7 5.8 10.4 5.8 10.4s2.4-6.6 5.8-10.4c3.1-3.5 4.3-4.7 7.2-6.9.6-.5 1.2-1 1.7-1.6 6.4-7.8-3.5-19.5-14.8-7.1zm-58.6 131.4c-11.3 12.5-21.2.7-14.6-7.1.5-.6 1.1-1.1 1.7-1.6 2.8-2.1 4.1-3.5 7.2-6.9 3.3-3.8 5.7-10.4 5.7-10.4s2.4 6.6 5.8 10.4c3.1 3.5 4.3 4.7 7.2 6.9.6.5 1.2 1 1.7 1.6 6.5 7.8-3.4 19.5-14.7 7.1zm58.6 0c-11.3 12.5-21.2.7-14.6-7.1.5-.6 1.1-1.1 1.7-1.6 2.8-2.1 4.1-3.5 7.2-6.9 3.3-3.8 5.7-10.4 5.7-10.4s2.4 6.6 5.8 10.4c3.1 3.5 4.3 4.7 7.2 6.9.6.5 1.2 1 1.7 1.6 6.5 7.8-3.4 19.5-14.7 7.1zm-58.6-55.4c-11.3 12.5-21.2.7-14.6-7.1.5-.6 1.1-1.1 1.7-1.6 2.8-2.1 4.1-3.5 7.2-6.9 3.3-3.7 5.8-10.4 5.8-10.4s2.4 6.6 5.8 10.4c3.1 3.5 4.3 4.7 7.2 6.9.6.5 1.2 1 1.7 1.6 6.4 7.8-3.5 19.5-14.8 7.1zm58.6 0c-11.3 12.5-21.2.7-14.6-7.1.5-.6 1.1-1.1 1.7-1.6 2.8-2.1 4.1-3.5 7.2-6.9 3.3-3.7 5.8-10.4 5.8-10.4s2.4 6.6 5.8 10.4c3.1 3.5 4.3 4.7 7.2 6.9.6.5 1.2 1 1.7 1.6 6.4 7.8-3.5 19.5-14.8 7.1zm-85.8-140c-1.2 1.1-2.5 1.7-4.1 1.7-2 0-3.6-.7-4.8-2.1-1.2-1.4-1.8-3.2-1.8-5.5 0-1.5.3-2.8 1-4.1s1.6-2.2 2.7-2.9c1.2-.7 2.4-1 3.9-1s2.8.4 4 1.1c1.2.7 2.1 1.8 2.7 3.2s1 3 1 4.8v1.7c0 3.8-.9 6.7-2.8 8.9s-4.5 3.3-8 3.4h-1.1V60h1c3.9-.2 6-2 6.3-5.5zm-3-1.7c.7 0 1.4-.2 1.9-.5s.9-.8 1.2-1.4v-1.8c0-1.5-.3-2.7-.9-3.5s-1.4-1.3-2.3-1.3c-.9 0-1.7.4-2.2 1.2-.6.8-.9 1.9-.9 3.1s.3 2.2.8 3c.6.8 1.4 1.2 2.4 1.2zm116 205.7c1.2-1.1 2.5-1.7 4.1-1.7 2 0 3.6.7 4.8 2.1 1.2 1.4 1.8 3.2 1.8 5.5 0 1.5-.3 2.8-1 4.1s-1.6 2.2-2.7 2.9c-1.2.7-2.4 1-3.9 1s-2.8-.4-4-1.1c-1.2-.7-2.1-1.8-2.7-3.2s-1-3-1-4.8v-1.7c0-3.8.9-6.7 2.8-8.9 1.9-2.1 4.5-3.3 8-3.4h1.1v3.7h-1c-3.9.2-6 2-6.3 5.5zm3 1.7c-.7 0-1.4.2-1.9.5s-.9.8-1.2 1.4v1.9c0 1.5.3 2.7.9 3.5s1.4 1.3 2.3 1.3c.9 0 1.7-.4 2.2-1.2.6-.8.9-1.9.9-3.1s-.3-2.2-.8-3c-.6-.9-1.4-1.3-2.4-1.3z" fill="#cc584c"/><path class="st4" d="M989.5 51.5h-139c-5.1 0-9.3 4.2-9.3 9.3v231.4c0 5.1 4.2 9.3 9.3 9.3h139c5.1 0 9.3-4.2 9.3-9.3V60.8c0-5.1-4.1-9.3-9.3-9.3z"/><path class="st1" d="M999.5 61.5h-139c-5.1 0-9.3 4.2-9.3 9.3v231.4c0 5.1 4.2 9.3 9.3 9.3h139.1c5.1 0 9.3-4.2 9.3-9.3V70.8c-.1-5.1-4.2-9.3-9.4-9.3z"/><path class="st6" d="M994.4 279.4h4.5v17.3l5.3-1.7v3.7l-9.3 3.4h-.5v-22.7zm-19.4 9.4c0-3.1.7-5.5 2-7.2 1.3-1.7 3.2-2.5 5.7-2.5s4.3.8 5.7 2.4 2 4 2 7v4.2c0 3.2-.6 5.6-2 7.2s-3.2 2.4-5.7 2.4-4.3-.8-5.7-2.4-2-4-2-7v-4.1zm4.5 4.5c0 1.9.3 3.3.8 4.1.5.8 1.3 1.3 2.4 1.3s1.9-.4 2.3-1.2.7-2.1.8-3.8v-5.5c0-1.9-.2-3.2-.7-4.1s-1.3-1.3-2.4-1.3-1.9.4-2.4 1.3-.8 2.2-.8 4v5.2zM865.7 93.5h-4.5V76.2l-5.3 1.7v-3.7l9.3-3.4h.5v22.7zm19.3-9.3c0 3.1-.6 5.5-2 7.2-1.3 1.7-3.2 2.5-5.7 2.5-2.4 0-4.3-.8-5.7-2.4s-2-4-2-7v-4.2c0-3.2.6-5.6 2-7.2s3.2-2.4 5.7-2.4c2.4 0 4.3.8 5.7 2.4s2 4 2 7v4.1zm-4.5-4.6c0-1.9-.2-3.2-.8-4.1-.5-.8-1.3-1.3-2.4-1.3s-1.9.4-2.3 1.2-.8 2.1-.8 3.8v5.5c0 1.9.2 3.2.7 4.1s1.3 1.3 2.4 1.3 1.9-.4 2.4-1.3.7-2.1.8-4v-5.2zm-9.9 28.9h-.4c-.1 2.8-1.8 5.1-4.2 6.3h8.8c-2.4-1.2-4-3.5-4.2-6.3zm-.4-3.1h.4v3.1h-.4v-3.1z"/><path class="st6" d="M873.5 100.8c0 1.7-2.5 5-3 5s-3-3.4-3-5 1.4-3 3-3 3 1.3 3 3zm-9.8 4.2c1.7 0 5 2.5 5 3s-3.4 3-5 3-3-1.4-3-3c0-1.7 1.4-3 3-3zm13.4 0c-1.7 0-5 2.5-5 3s3.4 3 5 3 3-1.4 3-3c0-1.7-1.3-3-3-3z"/><path class="st6" d="M871.1 107.8H868v.4h4.8v-.4h-1.7zm118.7 156.7h-.4c-.1-2.8-1.8-5.1-4.2-6.3h8.8c-2.4 1.2-4.1 3.5-4.2 6.3zm-.4 0h.4v3.1h-.4v-3.1z"/><path class="st6" d="M992.6 272.2c0-1.7-2.5-5-3-5s-3 3.4-3 5 1.4 3 3 3 3-1.3 3-3zm-9.7-4.2c1.7 0 5-2.5 5-3s-3.4-3-5-3-3 1.4-3 3c0 1.7 1.3 3 3 3zm13.4 0c-1.7 0-5-2.5-5-3s3.4-3 5-3 3 1.4 3 3c0 1.7-1.4 3-3 3z"/><path class="st6" d="M990.3 265.2h-3.1v-.4h4.8v.4h-1.7zm-76.4-164.3c-3 0-8.7 4-9.8 5.6h-3v-4c1.6-1.1 5.6-6.8 5.6-9.8 0-3.3-2.7-6-6-6s-6 2.7-6 6c0 3 4 8.7 5.6 9.8v4h-3c-1.1-1.6-6.8-5.6-9.8-5.6-3.3 0-6 2.7-6 6s2.7 6 6 6c3 0 8.7-4 9.8-5.6h3v.5c-.3 5.5-3.5 10.1-8.3 12.3h17.3c-4.7-2.1-8-6.8-8.3-12.3v-.5h3c1.1 1.6 6.8 5.6 9.8 5.6 3.3 0 6-2.7 6-6s-2.6-6-5.9-6zm58.6 0c-3 0-8.7 4-9.8 5.6h-3v-4c1.6-1.1 5.6-6.8 5.6-9.8 0-3.3-2.7-6-6-6s-6 2.7-6 6c0 3 4 8.7 5.6 9.8v4h-3c-1.1-1.6-6.8-5.6-9.8-5.6-3.3 0-6 2.7-6 6s2.7 6 6 6c3 0 8.7-4 9.8-5.6h3v.5c-.3 5.5-3.5 10.1-8.3 12.3h17.3c-4.7-2.1-8-6.8-8.3-12.3v-.5h3c1.1 1.6 6.8 5.6 9.8 5.6 3.3 0 6-2.7 6-6s-2.6-6-5.9-6zm-29.3 27.7c-3 0-8.7 4-9.8 5.6h-3v-4c1.6-1.1 5.6-6.8 5.6-9.8 0-3.3-2.7-6-6-6s-6 2.7-6 6c0 3 4 8.7 5.6 9.8v4h-3c-1.1-1.6-6.8-5.6-9.8-5.6-3.3 0-6 2.7-6 6s2.7 6 6 6c3 0 8.7-4 9.8-5.6h3v.5c-.3 5.5-3.5 10.1-8.3 12.3h17.3c-4.7-2.1-8-6.8-8.3-12.3v-.5h3c1.1 1.6 6.8 5.6 9.8 5.6 3.3 0 6-2.7 6-6s-2.6-6-5.9-6zm-29.3 27.7c-3 0-8.7 4-9.8 5.6h-3v-4c1.6-1.1 5.6-6.8 5.6-9.8 0-3.3-2.7-6-6-6s-6 2.7-6 6c0 3 4 8.7 5.6 9.8v4h-3c-1.1-1.6-6.8-5.6-9.8-5.6-3.3 0-6 2.7-6 6s2.7 6 6 6c3 0 8.7-4 9.8-5.6h3v.5c-.3 5.5-3.5 10.1-8.3 12.3h17.3c-4.7-2.1-8-6.8-8.3-12.3v-.5h3c1.1 1.6 6.8 5.6 9.8 5.6 3.3 0 6-2.7 6-6s-2.6-6-5.9-6zm58.6 0c-3 0-8.7 4-9.8 5.6h-3v-4c1.6-1.1 5.6-6.8 5.6-9.8 0-3.3-2.7-6-6-6s-6 2.7-6 6c0 3 4 8.7 5.6 9.8v4h-3c-1.1-1.6-6.8-5.6-9.8-5.6-3.3 0-6 2.7-6 6s2.7 6 6 6c3 0 8.7-4 9.8-5.6h3v.5c-.3 5.5-3.5 10.1-8.3 12.3h17.3c-4.7-2.1-8-6.8-8.3-12.3v-.5h3c1.1 1.6 6.8 5.6 9.8 5.6 3.3 0 6-2.7 6-6s-2.6-6-5.9-6zm-58.6 115.8c-3 0-8.7-4-9.8-5.6h-3v4c1.6 1.1 5.6 6.8 5.6 9.8 0 3.3-2.7 6-6 6s-6-2.7-6-6c0-3 4-8.7 5.6-9.8v-4h-3c-1.1 1.6-6.8 5.6-9.8 5.6-3.3 0-6-2.7-6-6s2.7-6 6-6c3 0 8.7 4 9.8 5.6h3v-.5c-.3-5.5-3.5-10.1-8.3-12.3h17.3c-4.7 2.1-8 6.8-8.3 12.3v.5h3c1.1-1.6 6.8-5.6 9.8-5.6 3.3 0 6 2.7 6 6s-2.6 6-5.9 6zm58.6 0c-3 0-8.7-4-9.8-5.6h-3v4c1.6 1.1 5.6 6.8 5.6 9.8 0 3.3-2.7 6-6 6s-6-2.7-6-6c0-3 4-8.7 5.6-9.8v-4h-3c-1.1 1.6-6.8 5.6-9.8 5.6-3.3 0-6-2.7-6-6s2.7-6 6-6c3 0 8.7 4 9.8 5.6h3v-.5c-.3-5.5-3.5-10.1-8.3-12.3h17.3c-4.7 2.1-8 6.8-8.3 12.3v.5h3c1.1-1.6 6.8-5.6 9.8-5.6 3.3 0 6 2.7 6 6s-2.6 6-5.9 6zm-29.3-27.7c-3 0-8.7-4-9.8-5.6h-3v4c1.6 1.1 5.6 6.8 5.6 9.8 0 3.3-2.7 6-6 6s-6-2.7-6-6c0-3 4-8.7 5.6-9.8v-4h-3c-1.1 1.6-6.8 5.6-9.8 5.6-3.3 0-6-2.7-6-6s2.7-6 6-6c3 0 8.7 4 9.8 5.6h3v-.5c-.3-5.5-3.5-10.1-8.3-12.3h17.3c-4.7 2.1-8 6.8-8.3 12.3v.5h3c1.1-1.6 6.8-5.6 9.8-5.6 3.3 0 6 2.7 6 6s-2.6 6-5.9 6zm-29.3-27.7c-3 0-8.7-4-9.8-5.6h-3v4c1.6 1.1 5.6 6.8 5.6 9.8 0 3.3-2.7 6-6 6s-6-2.7-6-6c0-3 4-8.7 5.6-9.8v-4h-3c-1.1 1.6-6.8 5.6-9.8 5.6-3.3 0-6-2.7-6-6s2.7-6 6-6c3 0 8.7 4 9.8 5.6h3v-.5c-.3-5.5-3.5-10.1-8.3-12.3h17.3c-4.7 2.1-8 6.8-8.3 12.3v.5h3c1.1-1.6 6.8-5.6 9.8-5.6 3.3 0 6 2.7 6 6s-2.6 6-5.9 6zm58.6 0c-3 0-8.7-4-9.8-5.6h-3v4c1.6 1.1 5.6 6.8 5.6 9.8 0 3.3-2.7 6-6 6s-6-2.7-6-6c0-3 4-8.7 5.6-9.8v-4h-3c-1.1 1.6-6.8 5.6-9.8 5.6-3.3 0-6-2.7-6-6s2.7-6 6-6c3 0 8.7 4 9.8 5.6h3v-.5c-.3-5.5-3.5-10.1-8.3-12.3h17.3c-4.7 2.1-8 6.8-8.3 12.3v.5h3c1.1-1.6 6.8-5.6 9.8-5.6 3.3 0 6 2.7 6 6s-2.6 6-5.9 6z"/><path class="st4" d="M1019.5 81.5h-139c-5.1 0-9.3 4.2-9.3 9.3v231.4c0 5.1 4.2 9.3 9.3 9.3h139c5.1 0 9.3-4.2 9.3-9.3V90.8c0-5.1-4.1-9.3-9.3-9.3z"/><path class="st1" d="M1029.5 91.5h-139c-5.1 0-9.3 4.2-9.3 9.3v231.4c0 5.1 4.2 9.3 9.3 9.3h139.1c5.1 0 9.3-4.2 9.3-9.3V100.8c-.1-5.1-4.2-9.3-9.4-9.3z"/><path class="st6" d="M904.5 118.6h-8.2l-1.6 4.6h-4.9l8.4-22.6h4.3l8.5 22.6h-4.9l-1.6-4.6zm-6.9-3.8h5.7l-2.8-8.4c-.1-.1-2.9 8.4-2.9 8.4zm117.9 199.6h8.2l1.6-4.6h4.9l-8.4 22.6h-4.3l-8.5-22.6h4.9l1.6 4.6zm6.9 3.8h-5.7l2.8 8.4 2.9-8.4zm-46.9-104.6c-3.5 0-10.3 4.7-11.5 6.5h-3.6v-4.7c1.9-1.3 6.5-8 6.5-11.5 0-3.9-3.1-7-7-7s-7 3.1-7 7c0 3.5 4.7 10.3 6.5 11.5v4.7H956c-1.3-1.9-8-6.5-11.5-6.5-3.9 0-7 3.1-7 7s3.1 7 7 7c3.5 0 10.3-4.7 11.5-6.5h3.5v.6c-.3 6.4-4.1 11.9-9.7 14.5h20.4c-5.6-2.5-9.3-8-9.7-14.5v-.6h3.5c1.3 1.9 8 6.5 11.5 6.5 3.9 0 7-3.1 7-7 .1-3.9-3.1-7-7-7zM907.1 135c-1.5 0-4.4 2-5 2.8h-1.5v-2.1c.8-.5 2.8-3.4 2.8-5 0-1.7-1.4-3-3-3s-3 1.4-3 3c0 1.5 2 4.4 2.8 5v2.1h-1.5c-.5-.8-3.4-2.8-5-2.8-1.7 0-3 1.4-3 3s1.4 3 3 3c1.5 0 4.4-2 5-2.8h1.5v.3c-.1 2.8-1.8 5.1-4.2 6.3h8.8c-2.4-1.1-4.1-3.5-4.2-6.3v-.3h1.5c.5.8 3.4 2.8 5 2.8 1.7 0 3-1.4 3-3s-1.3-3-3-3zm119.2 157c-1.5 0-4.4 2-5 2.8h-1.5v-.3c.1-2.8 1.8-5.1 4.2-6.3h-8.8c2.4 1.1 4.1 3.5 4.2 6.3v.3h-1.5c-.5-.8-3.4-2.8-5-2.8-1.7 0-3 1.4-3 3 0 1.7 1.4 3 3 3 1.5 0 4.4-2 5-2.8h1.5v2.1c-.8.5-2.8 3.4-2.8 5 0 1.7 1.4 3 3 3s3-1.4 3-3c0-1.5-2-4.4-2.8-5v-2.1h1.5c.5.8 3.4 2.8 5 2.8 1.7 0 3-1.4 3-3s-1.4-3-3-3z"/><path d="M1214.9 395.3c-3.5 5.4-6.2 11.2-9.5 16.7-6.9 11.8-13.7 23.6-21.1 35.2-1.9 2.9-3.9 7.5-8.9 6.2-5.1-1.2-6.2-4.7-5.1-11.5 1.2-7.5 1.9-15.1 2.7-22.7 1.2-12.9 2.6-25.9 3.6-38.9.7-9.1 1.5-18.2 1.2-27.2-.1-5.3-6.2-8.6-12.7-8-4.2.4-8 5.1-8.5 9.8-1.3 11-2.7 21.9-4.5 32.9-2.3 14.2-5 28.4-7.6 42.5-.2 1.2-.7 2.3-1.1 3.5-1.2-1.4-3.4-2.7-3.4-4.2-.4-11.4-.4-22.7-.5-34.1-.1-8.9-.6-17.9-.2-26.7.5-11.9 1.7-23.7 2.6-35.6.5-7.9-10.7-12.3-16.7-8.8-5.5 3.1-7.7 10.8-8.3 16.7-1.2 11.8-2.6 23.7-3.9 35.5-1 8.9-2.7 17.7-2.9 26.7-.2 9.2 1.2 18.6 1.7 27.9.1 1.4-1.3 2.8-2.1 4.2-1.6-1.1-4.2-2-4.7-3.5-2.6-8-5.2-16-6.8-24.2-2.7-14.4-4.7-29-7.1-43.6-1.1-6.4-2.2-12.9-3.7-19.3-.9-4-8.4-7.2-13.1-5.9-6.5 1.8-10.2 6.3-9.9 13.1.7 15.6 1.5 31.1 2.7 46.7 1 12.6 2.7 25 4.3 37.5 1 7.6 3.2 15 3.7 22.5.8 11-2.5 21.2-7.2 31.1-4.5 9.6-13.2 12.2-22.1 13.9-3.1.6-7.2-2.5-10.6-4.5-10.7-6.6-20.2-15.2-31.3-21.6-1.7-1-3.5-1.9-5.4-2.6-7.6-2.6-18.6-2.3-26.5-1.6-4.7.4-8.4 3.7-9.7 8.8v4.4c1.2 6.1 13.8 9.9 18.6 13.3 7 4.9 13.6 10.5 19.7 16.5 7.3 7.1 14.1 14.8 21 22.3 17.2 18.6 35.6 36.2 53.7 53.9 2.1 2.1 5.5 3.1 7.2 5.4 1.9 2.7 2.1 6.6 2.6 9.7 1.7 9.3 2.9 18.7 3.4 28.2.1 2.2 1.1 7.1 1.1 7.1s72.3-.1 95.7-.1c-.8-16-2-31.9-2.2-47.9-.1-11.8 4.4-22.5 7.4-33.7 3-11.5 5.4-23.2 7-35 1.3-9.2 2.2-18.4 2.6-27.6.4-7.4-.9-16.5 1.5-23.6 2.7-8 6.7-15.6 10.2-23.2 5.2-11.4 10.7-22.7 15.8-34.2 2-4.4 3.5-9.1 5.2-13.6V398c-3.7-9.2-13.8-9-17.9-2.7z" opacity=".05" fill="#444"/><path d="M1224.9 405.3c-3.5 5.4-6.2 11.2-9.5 16.7-6.9 11.8-13.7 23.6-21.1 35.2-1.9 2.9-3.9 7.5-8.9 6.2-5.1-1.2-6.2-4.7-5.1-11.5 1.2-7.5 1.9-15.1 2.7-22.7 1.2-12.9 2.6-25.9 3.6-38.9.7-9.1 1.5-18.2 1.2-27.2-.1-5.3-6.2-8.6-12.7-8-4.2.4-8 5.1-8.5 9.8-1.3 11-2.7 21.9-4.5 32.9-2.3 14.2-5 28.4-7.6 42.5-.2 1.2-.7 2.3-1.1 3.5-1.2-1.4-3.4-2.7-3.4-4.2-.4-11.4-.4-22.7-.5-34.1-.1-8.9-.6-17.9-.2-26.7.5-11.9 1.7-23.7 2.6-35.6.5-7.9-10.7-12.3-16.7-8.8-5.5 3.1-7.7 10.8-8.3 16.7-1.2 11.8-2.6 23.7-3.9 35.5-1 8.9-2.7 17.7-2.9 26.7-.2 9.2 1.2 18.6 1.7 27.9.1 1.4-1.3 2.8-2.1 4.2-1.6-1.1-4.2-2-4.7-3.5-2.6-8-5.2-16-6.8-24.2-2.7-14.4-4.7-29-7.1-43.6-1.1-6.4-2.2-12.9-3.7-19.3-.9-4-8.4-7.2-13.1-5.9-6.5 1.8-10.2 6.3-9.9 13.1.7 15.6 1.5 31.1 2.7 46.7 1 12.6 2.7 25 4.3 37.5 1 7.6 3.2 15 3.7 22.5.8 11-2.5 21.2-7.2 31.1-4.5 9.6-13.2 12.2-22.1 13.9-3.1.6-7.2-2.5-10.6-4.5-10.7-6.6-20.2-15.2-31.3-21.6-1.7-1-3.5-1.9-5.4-2.6-7.6-2.6-18.6-2.3-26.5-1.6-4.7.4-8.4 3.7-9.7 8.8v4.4c1.2 6.1 13.8 9.9 18.6 13.3 7 4.9 13.6 10.5 19.7 16.5 7.3 7.1 14.1 14.8 21 22.3 17.2 18.6 35.6 36.2 53.7 53.9 2.1 2.1 5.5 3.1 7.2 5.4 1.9 2.7 2.1 6.6 2.6 9.7 1.7 9.3 2.9 18.7 3.4 28.2.1 2.2 1.1 7.1 1.1 7.1s72.3-.1 95.7-.1c-.8-16-2-31.9-2.2-47.9-.1-11.8 4.4-22.5 7.4-33.7 3-11.5 5.4-23.2 7-35 1.3-9.2 2.2-18.4 2.6-27.6.4-7.4-.9-16.5 1.5-23.6 2.7-8 6.7-15.6 10.2-23.2 5.2-11.4 10.7-22.7 15.8-34.2 2-4.4 3.5-9.1 5.2-13.6V408c-3.7-9.2-13.8-9-17.9-2.7z" fill="#ffcc80"/></svg>