<svg version="1.1" xmlns="http://www.w3.org/2000/svg" x="0" y="0" viewBox="0 0 329 312" xml:space="preserve"><path d="M32 8c13.2 0 24 10.8 24 24S45.2 56 32 56 8 45.2 8 32 18.8 8 32 8m0-8C14.3 0 0 14.3 0 32s14.3 32 32 32 32-14.3 32-32S49.7 0 32 0zm101 8c13.2 0 24 10.8 24 24s-10.8 24-24 24c-11 0-20.5-7.4-23.3-18l-1.5-6 1.5-6C112.5 15.4 122 8 133 8m0-8c-14.9 0-27.5 10.2-31 24V0h-8v108h8V40c3.5 13.8 16.1 24 31 24 17.7 0 32-14.3 32-32S150.7 0 133 0zm164 8c13.2 0 24 10.8 24 24s-10.8 24-24 24c-11 0-20.5-7.4-23.3-18l-1.5-6 1.5-6C276.5 15.4 286 8 297 8m-70 0c11 0 20.5 7.4 23.3 18l1.5 6-1.5 6C247.5 48.6 238 56 227 56c-13.2 0-24-10.8-24-24s10.8-24 24-24m70-8c-14.9 0-27.5 10.2-31 24V0h-8v24c-3.5-13.8-16.1-24-31-24-17.7 0-32 14.3-32 32s14.3 32 32 32c14.9 0 27.5-10.2 31-24v68h8V40c3.5 13.8 16.1 24 31 24 17.7 0 32-14.3 32-32S314.7 0 297 0zM64 138H0v64h8v-56h56zm94 0H94v64h8v-56h48v56h8v-56zm136 0h-64v56h-18v24h8v-16h84v16h8v-24h-18v-56zm-56 56v-48h48v48h-48zm-77.1 54h-8l-48 52.1V248h-8v64h8l48-52.1V312h8zm-94 0h-8L0 312h10.9l48-52.1V312h8z"/></svg>