<svg xmlns="http://www.w3.org/2000/svg" viewBox="0 0 1920 673" xml:space="preserve"><path fill="#2e86b7" d="M0 0h1920v673H0z"/><path d="M1342.9 552.5c-5.1-2.9-12.1-1.3-17.7-1-10.9.6-22 .7-32.8 2.3-9.7 1.4-19.2 4-27.9 8.3-8.2 4-14.9 10.2-22.8 14.7-20.1 11.5-40.8 17.7-63 24-22.6 6.4-45.2 12.9-67.8 19.3-10.5 3-21.4 4.5-32.2 3.1-10.1-1.4-20.3-4.9-30.1-7.6-22.9-6.1-45.7-12.2-68.6-18.2-16.4-4.2-32.8-8.9-37.5-27.4-1-3.8-1.3-7.8-1.1-11.8.3-5.6.6-6 6.1-5.6 11 .8 22.1 1 33.1 2.2 15.2 1.6 28.2 8.4 41.7 14.9 10.9 5.2 21.9 13.2 34.1 12.7-1.6-2.8-2.9-5.9-5.5-7.7-3.9-2.8-9.1-4.5-13.4-6.6-11.7-5.7-23-12.5-35.4-16.6-12.1-4-24.8-6.1-37.5-6.4-12.6-.3-24-1.2-35.8-6-10.5-4.2-20.5-9.4-26.5-19.3-5-8.3-7.2-18.6-5.6-28.3 1.9-11.1 9.6-20 17.8-27.2 4.5-3.9 7.4-4.8 13.2-3 6.8 2.2 13.4 4.6 20.2 6.8 14.3 4.8 28.6 9.5 42.9 14.2 6.8 2.2 13.1 5.1 20.3 4.7 2.8-.2 5.6-.2 8.5-.2-4.8-2.9-9.4-6.3-14.8-8.2-11.3-4-22.8-7.6-34.1-11.3-11.9-3.9-23.8-7.9-35.6-11.8-9.6-3.2-17.7-7-24.7-14.4-14.3-14.9-18.2-37.5-5.6-54.8 5.8-8 12.8-10.4 22.4-9 11.6 1.7 23.1 4 34.6 6.3 11.1 2.2 22.2 4.6 33.2 7.4 7.9 2 14.3 1.9 22.3 1.6-4.8-2.9-9.3-6.5-14.9-7.8-10.5-2.6-21.1-4.6-31.6-6.9-10.4-2.2-20.8-4.5-31.2-6.6-8.9-1.8-19.7-1.6-27.9-5.5-16.1-7.7-21.4-30.1-18-46.2 3.6-17 20.8-28.9 37.7-29.4 41.5-1.2 82.7 9.3 124 2.5 4.8-.8 9.6-1.8 14.3-2.9 3.5-.9 10.7-1.4 13.1-4.6 4.3-5.7-10.9-18.2-14.4-21.9-15.1-15.9-31.3-30.6-48.4-44.3-32-25.7-55.7-62.1-55.6-104.4 0-11.1 2-22 4.2-32.8l3.3-15.6c.7-3.5.4-9.1 4-10.6 2.8-1.2 9.4.4 11.4 2.7 2 2.3 1.3 5.4.9 8.2-1 6.6-2.9 13.2-3 20-.1 5.6 1.6 10.5 4.7 15.1 3.7 5.4 9.1 12.8 14.7 16.3 4.6 3 7.1-.3 11.5-1.7 3.5-1.2 4.7.1 7.4 2.4 5.7 5.1 11.2 10.6 16.8 15.9 13.5 12.8 27 26.3 43.8 34.7 14.7 7.3 29.5 14.5 44.1 21.9 9.2 4.6 19.9 8.7 28 15.3 8.1 6.7 14.5 16.3 21.2 24.3 14.8 17.7 29.6 35.2 45.1 52.3 7.9 8.7 15.9 17.3 23.8 25.9 4.7 5.1 9.2 10.1 15.2 13.7 8.7 5.1 17.9 5.7 27.7 6.6 11 1 22.1 2.1 33.1 3.1 4.5.4 10.9 2.2 15.2.4 1.7-.7 3.3-2.3 4.9-3.3-6.4-5.2-13.1-4.6-21.1-5.3-17-1.4-35.7-.2-51.6-7.4-16.4-7.5-26.8-23.3-38.3-36.6-13.4-15.6-27-31-40.3-46.7-11.3-13.2-22-27.6-36.3-37.9-7.1-5.1-14.9-8.3-22.8-11.8-9.7-4.3-19.2-9.2-28.6-14.1-11.9-6.1-24-12-34.3-20.7-14.4-12.3-27.3-27.3-42.5-38.7-2.9-2.2-7.3-2.8-9.7-5.4-2-2.1-2.3-5.4-3.1-8.1-2.1-6.9-4.7-13.7-7.4-20.4-3.2-7.9-6.9-17-12.6-23.5-2.4-2.7-5.4-4.7-8.9-5.8-3.5-1-7.8.7-10.9-.3-2.5-.8-2.7-4.2-3.8-6.4-1.7-3.2-4.1-6.1-7.1-8.2-8-5.4-16.7-2.7-23.7 3-7.2 5.8-13.2 13.1-19.1 20.1-6 7.1-11.1 15.7-19.5 20.2-14.6 7.8-31.6 11.9-46.8 18.5-16.9 7.4-28.2 21.4-40.3 34.9-11.4 12.7-22.7 25.7-35.2 37.4-13 12.2-28.5 20.6-42.3 31.8-16.9 13.7-27.4 33.7-39 51.8-12.1 18.7-24.1 37.5-36.1 56.3-11.1 17.3-20.8 37.2-35.6 51.7-12.3 12.1-28.1 19.5-45.2 21.8h.2c-3.3.6-4.5 2.5-6.8 4.7 5.3 4.2 8.7 3.5 15.4 2 7.7-1.7 15.2-4.2 22.2-7.8 15-7.6 25.7-20.1 35.5-33.6 22-30.5 41.1-63.4 61-95.3 8.8-14.1 16.9-29 29.1-40.6 12.4-11.9 28.1-19.8 41.2-30.8 13.9-11.7 25.6-25.6 37.9-38.9 11.5-12.4 22.3-28.1 37.6-36 7.4-3.8 15.5-6.2 23.2-9.2 9-3.5 18.9-8.9 28.4-10.8 6.2-1.3 11.6 3.4 17.4-.4 3.7-2.5 6.9-6.8 10-10 3.4-3.4 7.7-6.8 10.5-10.8 3.6-5.3 4-12.9 5.7-18.9 2.5-8.8 10.3-6.1 14.6.7 4.1 6.5 1.6 13.1-.1 19.9-2.4 9.6-3.9 19.4-5.6 29.2-2.8 15.8-5.1 32.6-14.8 46-8.7 12-20.8 16.2-33 23.5-14.1 8.3-22.9 22.5-31.8 35.9-5 7.5-9.7 15.1-14.3 22.8-4.1 7-12.3 16.5-10.9 25 1.4 8 10.6 16 17.5 19.5 8.2 4.2 16.9 3.5 25.9 4 16.7.8 33.3 1.2 50 1.2 22.5-.1 45.1-2 67.5-1.4 9.4.2 18.7 1.2 27.9 3.1 4.3.9 8.6 2.1 12.8 3.4 3.8 1.2 10.8 2.6 13.7 5.5-23.3 5.2-46.4 7.2-70.1 3.6-10.9-1.7-21.8-2.6-32.8-3.1-11.9-.6-24.6-1.7-36.5-.3-20.1 2.5-37.8 16.7-42.3 36.8-4.5 20.1 4.4 42.6 21.6 54-1.2 2.5-5.2 4.7-7 6.8-2.5 2.9-4.6 6.2-6.3 9.6-3.7 7.7-4.9 16.3-4.4 24.7 1 17.7 11.8 28.9 23.6 40.8-10.1 10-20.1 18.4-23.6 33-3.3 13.8.3 28.8 8.6 40.2 3.6 5 8.2 9.2 13.5 12.3 5.5 3.2 12.6 4 17.5 8 4.1 3.3 5.1 8.1 4.7 13.2-.7 7.9-4.5 7.5-11.6 9.1-35.1 8.1-70.8 15.6-106.5 20.4-35.7 4.9-71.9 6.3-107.8 8.3-16 .9-37.5-1.8-50.2 9.8-6.8 6.3-13.1 13.3-19.4 20.1-4.3 4.6-6.3 8.4-9 13.9 4.6 1.7 6.8.6 9.7-3 4.6-5.6 10-10.7 15.1-15.9 8.4-8.7 14.1-14.2 26.5-14.9 22.6-1.3 45.3-2.1 67.9-3.6 25-1.7 50.2-3.3 75-7.2 27-4.2 53.8-10.1 80.5-15.7 6.8-1.4 13.7-2.9 20.6-4.3 1.7-.4 3.5-.7 5.2-1.1 5.8-1.2 6 0 9.1 5 6.2 10 15.3 16.7 26.6 19.9 14.4 4.1 29.1 7.5 43.6 11.3 14 3.7 28.1 7.4 42.1 11 13.7 3.6 28.2 9 42.5 7.7 15-1.4 30.3-7.6 44.8-11.6 14.5-4 29.1-8 43.6-12.1 16.2-4.5 32.1-8.4 47.2-16.3 12.8-6.6 24.7-14.6 37.2-21.8 13-7.5 27.7-8.5 42.5-9.7 8.2-.7 16.3-1 24.5-1.5 5.6-.3 8.4-1.9 12.8-5l-4.3-1.4zM993.6 82.7c.8-3.5 1.8-7.6 1.8-11.2 2.1 5.6 4.2 11.3 6.2 17 1.1 3.2 2.3 6.4 3.4 9.6 1 2.9 4 8.1 3.2 11.3-4-1.3-8.8-8.8-11.1-12.2-3-4.3-4.5-9.2-3.5-14.5zm-57.4-28.2c-1.3 4.6-5.6 7.9-8.8 11.2-1.7 1.7-9.2 11.6-11.6 10.7-2.8-1 7.6-11.6 9.3-13.6 4.2-4.9 8.6-9.7 12.5-14.8-.5 2-.9 4.2-1.4 6.5zm74.5 206.8c-23.1 0-46 2.8-69.1 2.4-12.4-.2-24.7-.9-37-1.8-10.3-.7-23.7 1.2-32.9-4.3-6.4-3.9-14-10.9-9.8-18.3 3.1-5.5 6.6-10.9 9.9-16.3 6.3-10.3 12.4-20.8 19.3-30.7 5.9-8.5 11.7-16.9 20.8-22.3 9.6-5.8 19.4-8.4 27.6-16.5 7.2-7.1 12.2-15.6 17.7-23.8 2.9 8.7 3.8 18 6.8 26.8 2.9 8.4 6.6 16.4 11.1 24.1 7.6 12.9 17.3 24.1 28.5 34 20.8 18.5 43.8 35.7 61.5 57.2-17.4-7.1-35.7-10.5-54.4-10.5z" fill="#f4f4f4"/></svg>