<svg xmlns="http://www.w3.org/2000/svg" viewBox="0 0 1920 673" xml:space="preserve"><style>.st1{fill:#ad403b}.st2{fill:#36434f}.st3,.st5{opacity:.15;fill:#444;enable-background:new}.st5{opacity:.1;fill:#fff}.st8{fill:#122a3a}.st9{opacity:.3;fill:#121e28;enable-background:new}.st10{fill:#a18267}.st11{opacity:.5;fill:#444;enable-background:new}</style><path fill="#ddd" d="M0 0h1920v673H0z"/><path class="st1" d="M960 119.1c26 0 51.1 3.5 75 10-.4-1.1-.7-2.2-1.1-3.4-.1-.3-.2-.7-.3-1.1v-.2l-.3-1.2v-.2l-.3-1.2v-.2c-.1-.4-.2-.9-.3-1.3v-.1c-1.2-4.5-2.4-9.9-3.3-16.3 0 0-.3-.5-.4-.5-22.4-5.1-45.2-7.7-68.6-7.7-23.4 0-46.2 2.5-68.6 7.7 0 0-.3.5-.4.5-1 6.4-2.2 11.8-3.3 16.3v.1c-.1.4-.2.9-.3 1.3v.2l-.3 1.2v.2l-.3 1.2v.2c-.1.4-.2.8-.3 1.1-.4 1.2-.8 2.4-1.1 3.4 23.1-6.5 48.3-10 74.2-10z"/><path class="st2" d="M1029 103.8c-.3-2-.6-4.1-.9-6.3-1.2-10.5-2.7-22.7-4.1-33.9-2.3-19.3-18.7-33.8-38.1-33.8 0 0-13 2.4-26 2.4s-26-2.4-26-2.4c-19.4 0-35.8 14.5-38.1 33.8-1.3 11.1-2.8 23.4-4.1 33.9-.3 2.2-.6 4.3-.9 6.3 22.5-5.1 45.5-7.7 69-7.7 23.7 0 46.8 2.6 69.2 7.7zm53 35.9c-12.6-2.4-35.1-7.5-63.3-17.3-40.7-9.6-76.7-9.6-117.4 0-28.2 9.7-50.7 14.9-63.3 17.3-1.2.2-1.1 1.9.2 1.9l22.9.5 98.8-.5 98.8.5 22.9-.5c1.4.1 1.6-1.6.4-1.9z"/><path class="st3" d="M934.1 29.9c-19.4 0-35.8 14.5-38.1 33.8-1.3 11.1-2.8 23.4-4.1 33.9-.3 2.2-.6 4.3-.9 6.3-1 6.4-2.2 11.8-3.3 16.3v.1c-.1.4-.2.9-.3 1.3v.2l-.3 1.2v.2l-.3 1.2v.2c-.1.4-.2.8-.3 1.1-.2.7-.4 1.3-.6 1.9-20.8 6.5-37.4 10.2-47.5 12.1-1.2.2-1.1 1.9.2 1.9l22.9.5 98.8-.5V32.3c-13.2 0-26.2-2.4-26.2-2.4z"/><path class="st2" d="M1146.7 278c-15-3.1-29.8-7.4-44.2-12.8l-44.3-16.7c-13.1-4.9-25-12.6-35-22.5l-4.9-4.9h-12.1c-1.2 3.4-2.9 6.5-5.3 9.3L960 277.9l-40.9-47.5c-2.4-2.8-4.1-5.9-5.3-9.3h-12.1l-4.9 4.9c-9.9 9.9-21.9 17.6-35 22.5l-44.4 16.6c-14.3 5.4-29.2 9.7-44.2 12.8-3.5.8-5.7 4.4-4.6 7.8l31.8 102.6c8.2 26.5 13.6 53.7 16 81.3l10.8 122.7h265.4l10.9-122.7c2.5-27.6 7.8-54.9 16-81.3l31.8-102.6c1.1-3.3-1-6.9-4.6-7.7z"/><path d="m1098.6 283.4-21.6-27.8-18.7-7.1c-13.1-4.9-25-12.6-35-22.5l-4.9-4.9h-2.2l1.1 11.7 2.6 27.9-9.8 70.4c-1.3 9.5-4.2 18.6-8.6 27.2L960 439.4l-41.4-81.1c-4.4-8.6-7.3-17.7-8.6-27.2l-9.8-70.4 2.6-27.9 1.1-11.7h-2.2l-4.9 4.9c-9.9 9.9-21.9 17.6-35 22.5l-18.8 7.1-21.6 27.8-4.5 5.8 3 6.8 55.6 124c5.4 12.2 13 23.2 22.4 32.6l36.5 36.8L927 504l-11 21.4-1.3 2.6v64.4H927V531l28.4-33 4.7-1.6-3.8-.7 51.5-28.5 14.5-14.6c9.4-9.5 17-20.5 22.4-32.6l55.6-124.1 3-6.8-4.7-5.7z" opacity=".3" fill="#122a3a"/><path class="st5" d="M957.3 274.7v317.7H955V272.1l2.3 2.6zM886 592.4h2.3V233.6c-.8.6-1.5 1.2-2.3 1.8v357zm15.3-370.9v370.9h2.3V221.1h-1.9l-.4.4zm-23 370.9h2.3V239c-.8.5-1.5 1-2.3 1.5v351.9zm-7.7 0h2.3V243.6l-2.3 1.2v347.6zM932 245.3v347.1h2.3V248l-2.3-2.7zm7.7 8.9v338.2h2.3V256.9l-2.3-2.7zm7.7 8.9v329.3h2.3V265.8l-2.3-2.7zM863 592.4h2.3V247.2l-2.3.9v344.3zm46 0h2.3V221.1H909v371.3zm15.3-356v356h2.3V239.1l-2.3-2.7zm-7.6-9.4v365.4h2.3V230.2c-.9-1-1.6-2.1-2.3-3.2zm-23 365.4h2.3V226.8c-.8.8-1.5 1.5-2.3 2.1v363.5zm-99.8-224.9 2.3 7.4V272.3l-2.3.7v94.5zm7.7 24.8 2.3 8.1V269.9c-.8.2-1.5.5-2.3.8v121.6zm-15.4-49.7 2.3 7.4v-75.7c-.8.2-1.5.4-2.3.6v67.7zM770.9 293l2.3 7.4V278c-.8.2-1.6.5-2.3 1.1V293zm84.4 299.4h2.3V250.1l-2.3.8v341.5zm-76.7-274.6 2.3 7.4v-48.9c-.8.2-1.5.4-2.3.5v41zM840 592.4h2.3V255.8l-2.3.8v335.8zm7.6 0h2.3V253l-2.3.8v338.6zm-30.7-327.1v210.4l2.3 25.9V264.5l-1.8.7c-.2 0-.3.1-.5.1zm-7.6 157.1c.8 3.8 1.6 7.7 2.3 11.6V267.3c-.8.3-1.5.5-2.3.8v154.3zm23 170h2.3V258.8l-2.3.8v332.8zm-7.7-30.2 2.3 25.9V261.6l-2.3.8v299.8zm268.5 25.9 2.3-25.9V262.4l-2.3-.8v326.5zm-7.6 4.3h2.3V259.6l-2.3-.8v333.6zm-23.1 0h2.3V250.9l-2.3-.8v342.3zm38.4-327.9v237.2l2.3-25.9V265.3c-.2-.1-.3-.2-.5-.2 0 .1-1.8-.6-1.8-.6zm-30.7 327.9h2.3V253.8l-2.3-.8v339.4zm7.7 0h2.3V256.7l-2.3-.8v336.5zm30.7-158.4c.7-3.9 1.5-7.7 2.3-11.6V268c-.8-.2-1.5-.5-2.3-.8V434zm30.7-108.7 2.3-7.4v-41c-.8-.2-1.5-.4-2.3-.5v48.9zm7.6-47.3v22.5l2.3-7.4v-14c-.7-.6-1.4-.9-2.3-1.1zm-184.1-3.3v317.7h2.3V272.1l-2.3 2.6zm153.4 125.7 2.3-8.1V270.6c-.8-.2-1.5-.5-2.3-.8v130.6zm15.4-50.4 2.3-7.4v-67.7c-.8-.2-1.5-.4-2.3-.6V350zm-7.7 24.9 2.3-7.4v-94.6l-2.3-.7v102.7zM985.7 248v344.4h2.3V245.3l-2.3 2.7zm7.7-8.9v353.3h2.3v-356l-2.3 2.7zm15.3 353.3h2.3V221.1h-2.3v371.3zm-7.6-362.2v362.2h2.3V227c-.7 1.1-1.5 2.2-2.3 3.2zM978 256.9v335.5h2.3V254.2l-2.3 2.7zm-7.6 8.9v326.6h2.3V263.1l-2.3 2.7zm76.7 326.6h2.3V244.7l-2.3-1.2v348.9zm-30.7-371.3v371.3h2.3V221.5l-.4-.4h-1.9zm23 371.3h2.3V240.5c-.8-.5-1.5-.9-2.3-1.5v353.4zm15.4 0h2.3V248.1l-2.3-.9v345.2zm-30.7 0h2.3V229c-.8-.7-1.5-1.5-2.3-2.1v365.5zm7.6 0h2.3v-357c-.8-.6-1.5-1.2-2.3-1.8v358.8z"/><path d="m1034.7 239.2-27.1-39.6v12.7c0 6.6-2.4 13-6.7 18L960 277.9l-40.9-47.5c-4.3-5-6.7-11.4-6.7-18v-12.7l-27.1 39.6-2.4 88.7 25.9 83.8 27.8 58.8H983l27.8-58.8 25.9-83.8-2-88.8z" fill="#121e28"/><path d="m987.3 470.4-1.7-74.9c-.2-6.3-.9-12.6-2.2-18.8l-14.1-64.4v-10.7l11-35.9c.6-2-.8-4-2.9-4h-.2c-5.1 2.5-11 3.8-17.1 3.8s-11.9-1.4-17.1-3.8h-.2c-2.1 0-3.5 2-2.9 4l11 35.9v10.7l-14.1 64.4c-1.4 6.1-2.1 12.4-2.2 18.8l-1.7 74.9h54.4z" fill="#cc584c"/><path class="st1" d="m946.1 334 23.2-23.2v1.5l.7 3.2-25.5 25.5 1.6-7zm28.6-50.4-23.9 24v4.8l-.2.8 21.7-21.7 2.4-7.9zm-5.5 18 .7-2.3-20.8 20.8-1.5 7 21.6-21.6v-3.9zm-27.7 53.3 30.4-30.4-1-4.4-27.8 27.8-1.6 7zm6.9-61.2 31.1-31.1c-.5-.5-1.3-.9-2.1-.9h-.2c-1.2.5-2.4 1.1-3.6 1.5l-26.3 26.3 1.1 4.2zm31.2-25.7-29.9 29.9 1.2 3.8v.5l26.4-26.4 2.3-7.8zm-33.8 17.4 20.3-20.3c-1.9.3-3.9.5-5.9.5l-15.7 15.7 1.3 4.1zm41.5 185-.1-3.8-3.8 3.8h3.9zm-42 0 41-41-.2-5.3-46.2 46.3h5.4zm32.5 0 9.2-9.2-.2-5.3-14.4 14.5h5.4zm-21.6 0 30.4-30.4-.2-5.3-35.7 35.7h5.5zm10.8 0 19.8-19.8-.2-5.3-25.1 25.1h5.5zm18.6-74.9c0-1.1-.1-2.1-.2-3.2l-52 52-.2 5.5 52.3-52.3v-2h.1zm-4.9-31L934.2 411l-.2 5.5 47.6-47.6-.9-4.4zm3.7 18-50.7 50.7-.2 5.5 51.5-51.5c-.1-1.5-.4-3.1-.6-4.7zm-1.1-5.8-.7-3.3-48.7 48.7-.2 5.5 49.8-49.8-.2-1.1zm-48.8 93.7 51.6-51.6-.2-5.3-53.1 53.1-.1 3.8h1.8zm51.2-67.5-52.6 52.6-.1 5.5 52.8-52.8-.1-5.3zm-10.9-65.1L937 375.7l-.2 1.1c-.4 1.8-.8 3.8-1.1 5.7l40.1-40.1-1-4.6zm-34-68.9 5.7-5.7c-1.2-.5-2.3-.9-3.5-1.5h-.5l-2.8 2.8c0 .4 0 .8.2 1.2l.9 3.2zm37.9 86.7-44.3 44.3-.2 5.5 45.4-45.4-.9-4.4zm-5.9-26.7L940 361.8l-1.5 7 35.4-35.4-1.1-4.5zm3.9 17.8-41.9 41.9c-.2 1.9-.3 3.8-.4 5.8l43.2-43.2-.9-4.5zm-33.4-69.5 11.9-11.9c-1.5-.2-3.1-.5-4.6-.8L942 273l1.3 4.2z"/><path class="st3" d="M950.8 301.6h18.4v10.7h-18.4v-10.7z"/><path class="st8" d="M939.7 529.5c-3.1 0-5.8 2.6-5.8 5.8 0 3.1 2.6 5.8 5.8 5.8 3.1 0 5.8-2.6 5.8-5.8-.1-3.2-2.7-5.8-5.8-5.8zm-1.2 7.5c-.4 0-.6-.3-.6-.6s.3-.6.6-.6.6.3.6.6-.2.6-.6.6zm0-2.2c-.4 0-.6-.3-.6-.6s.3-.6.6-.6.6.3.6.6-.2.6-.6.6zm2.3 2.2c-.4 0-.6-.3-.6-.6s.3-.6.6-.6.6.3.6.6-.3.6-.6.6zm0-2.2c-.4 0-.6-.3-.6-.6s.3-.6.6-.6.6.3.6.6-.3.6-.6.6z"/><path class="st9" d="M940.8 535.5c-.5 0-.8.4-.8.8s.4.8.8.8.8-.4.8-.8-.3-.8-.8-.8zm0 1.5c-.4 0-.6-.3-.6-.6 0-.4.3-.6.6-.6s.6.3.6.6-.3.6-.6.6zm0-3.8c-.5 0-.8.4-.8.8s.4.8.8.8.8-.4.8-.8-.3-.8-.8-.8zm0 1.6c-.4 0-.6-.3-.6-.6s.3-.6.6-.6.6.3.6.6-.3.6-.6.6zm-2.3.7c-.5 0-.8.4-.8.8s.4.8.8.8c.5 0 .8-.4.8-.8s-.2-.8-.8-.8zm0 1.5c-.4 0-.6-.3-.6-.6 0-.4.3-.6.6-.6s.6.3.6.6c.1.3-.2.6-.6.6zm0-3.8c-.5 0-.8.4-.8.8s.4.8.8.8c.5 0 .8-.4.8-.8s-.2-.8-.8-.8zm0 1.6c-.4 0-.6-.3-.6-.6s.3-.6.6-.6.6.3.6.6-.2.6-.6.6z"/><path class="st9" d="M945.4 534.9v-.6c0-.1 0-.2-.1-.3 0-.1-.1-.2-.1-.3-.2-.8-.6-1.6-1.2-2.2l-.1-.1-.2-.2-.2-.2-.2-.2-.1-.1c-.6-.5-1.4-.9-2.2-1.2-.1 0-.2-.1-.3-.1-.1 0-.2 0-.3-.1h-.9c-.3 0-.6 0-.8.1-.1 0-.2 0-.3.1-.1 0-.2.1-.3.1-.1 0-.2.1-.3.1-.4.2-.8.3-1.2.5-.1.1-.2.1-.2.2s-.2.1-.2.2-.2.2-.3.2c-.2.2-.4.3-.5.5l-.2.2c-.1.1-.2.2-.2.3-.5.6-.8 1.3-1 2 0 .1-.1.2-.1.3 0 .1 0 .2-.1.3v.9c0 3.1 2.6 5.8 5.8 5.8h.9c.1 0 .2 0 .3-.1.1 0 .2-.1.3-.1.8-.2 1.4-.5 2-1 .1-.1.2-.2.3-.2s.2-.2.2-.2l.5-.5c.1-.1.2-.2.2-.3s.1-.2.2-.2c.1-.1.1-.2.2-.2.2-.4.4-.8.5-1.2 0-.1.1-.2.1-.3 0-.1.1-.2.1-.3 0-.1 0-.2.1-.3.1-.3.1-.6.1-.8-.2-.2-.2-.4-.2-.5zm-5.7 5c-2.6 0-4.7-2.1-4.7-4.7s2.1-4.7 4.7-4.7 4.7 2.1 4.7 4.7c0 2.7-2.1 4.7-4.7 4.7z"/><path class="st8" d="M1008.7 529.5c-3.1 0-5.8 2.6-5.8 5.8 0 3.1 2.6 5.8 5.8 5.8 3.1 0 5.8-2.6 5.8-5.8 0-3.2-2.6-5.8-5.8-5.8zm-1.1 7.5c-.4 0-.6-.3-.6-.6s.3-.6.6-.6.6.3.6.6-.2.6-.6.6zm0-2.2c-.4 0-.6-.3-.6-.6s.3-.6.6-.6.6.3.6.6-.2.6-.6.6zm2.3 2.2c-.4 0-.6-.3-.6-.6s.3-.6.6-.6.6.3.6.6-.3.6-.6.6zm0-2.2c-.4 0-.6-.3-.6-.6s.3-.6.6-.6.6.3.6.6-.3.6-.6.6z"/><path class="st9" d="M1009.9 535.5c-.5 0-.8.4-.8.8s.4.8.8.8.8-.4.8-.8-.4-.8-.8-.8zm0 1.5c-.4 0-.6-.3-.6-.6 0-.4.3-.6.6-.6.4 0 .6.3.6.6s-.3.6-.6.6zm0-3.8c-.5 0-.8.4-.8.8s.4.8.8.8.8-.4.8-.8-.4-.8-.8-.8zm0 1.6c-.4 0-.6-.3-.6-.6s.3-.6.6-.6c.4 0 .6.3.6.6s-.3.6-.6.6zm-2.3.7c-.5 0-.8.4-.8.8s.4.8.8.8c.5 0 .8-.4.8-.8s-.3-.8-.8-.8zm0 1.5c-.4 0-.6-.3-.6-.6 0-.4.3-.6.6-.6s.6.3.6.6c.1.3-.2.6-.6.6zm0-3.8c-.5 0-.8.4-.8.8s.4.8.8.8c.5 0 .8-.4.8-.8s-.3-.8-.8-.8zm0 1.6c-.4 0-.6-.3-.6-.6s.3-.6.6-.6.6.3.6.6-.2.6-.6.6z"/><path class="st9" d="M1014.5 534.9v-.6c0-.1 0-.2-.1-.3 0-.1-.1-.2-.1-.3-.2-.8-.6-1.6-1.2-2.2l-.1-.1-.2-.2-.2-.2-.2-.2-.1-.1c-.6-.5-1.4-.9-2.2-1.2-.1 0-.2-.1-.3-.1-.1 0-.2 0-.3-.1h-.9c-.3 0-.6 0-.8.1-.1 0-.2 0-.3.1-.1 0-.2.1-.3.1-.1 0-.2.1-.3.1-.4.2-.8.3-1.2.5-.1.1-.2.1-.2.2-.1.1-.2.1-.2.2s-.2.2-.3.2c-.2.2-.4.3-.5.5l-.2.2c-.1.1-.2.2-.2.3-.5.6-.8 1.3-1 2 0 .1-.1.2-.1.3 0 .1 0 .2-.1.3v.9c0 3.1 2.6 5.8 5.8 5.8h.9c.1 0 .2 0 .3-.1.1 0 .2-.1.3-.1.8-.2 1.4-.5 2-1 .1-.1.2-.2.3-.2s.2-.2.2-.2l.5-.5c.1-.1.2-.2.2-.3s.1-.2.2-.2c.1-.1.1-.2.2-.2.2-.4.4-.8.5-1.2 0-.1.1-.2.1-.3 0-.1.1-.2.1-.3 0-.1 0-.2.1-.3.1-.3.1-.6.1-.8-.2-.2-.2-.4-.2-.5zm-5.8 5c-2.6 0-4.7-2.1-4.7-4.7s2.1-4.7 4.7-4.7 4.7 2.1 4.7 4.7c0 2.7-2.1 4.7-4.7 4.7z"/><path class="st8" d="M1063.6 437.4c-3.1 0-5.8 2.6-5.8 5.8s2.6 5.8 5.8 5.8 5.8-2.6 5.8-5.8-2.7-5.8-5.8-5.8zm-1.2 7.5c-.4 0-.6-.3-.6-.6s.3-.6.6-.6.6.3.6.6-.2.6-.6.6zm0-2.2c-.4 0-.6-.3-.6-.6s.3-.6.6-.6.6.3.6.6-.2.6-.6.6zm2.3 2.2c-.4 0-.6-.3-.6-.6s.3-.6.6-.6.6.3.6.6c.1.3-.3.6-.6.6zm0-2.2c-.4 0-.6-.3-.6-.6s.3-.6.6-.6.6.3.6.6c.1.3-.3.6-.6.6z"/><path class="st9" d="M1064.7 443.4c-.5 0-.8.4-.8.8 0 .5.4.8.8.8s.8-.4.8-.8c.1-.4-.3-.8-.8-.8zm0 1.5c-.4 0-.6-.3-.6-.6 0-.4.3-.6.6-.6.4 0 .6.3.6.6.1.3-.3.6-.6.6zm0-3.7c-.5 0-.8.4-.8.8s.4.8.8.8.8-.4.8-.8-.3-.8-.8-.8zm0 1.5c-.4 0-.6-.3-.6-.6s.3-.6.6-.6c.4 0 .6.3.6.6.1.3-.3.6-.6.6zm-2.3.7c-.5 0-.8.4-.8.8 0 .5.4.8.8.8s.8-.4.8-.8c.1-.4-.2-.8-.8-.8zm0 1.5c-.4 0-.6-.3-.6-.6 0-.4.3-.6.6-.6s.6.3.6.6c.1.3-.2.6-.6.6zm0-3.7c-.5 0-.8.4-.8.8s.4.8.8.8.8-.4.8-.8-.2-.8-.8-.8zm0 1.5c-.4 0-.6-.3-.6-.6s.3-.6.6-.6.6.3.6.6-.2.6-.6.6z"/><path class="st9" d="M1069.3 442.9v-.6c0-.1 0-.2-.1-.3 0-.1-.1-.2-.1-.3-.2-.8-.6-1.6-1.2-2.2l-.1-.1-.2-.2-.2-.2-.2-.2-.1-.1c-.6-.5-1.4-.9-2.2-1.2-.1 0-.2-.1-.3-.1-.1 0-.2 0-.3-.1h-.9c-.3 0-.6 0-.8.1-.1 0-.2 0-.3.1-.1 0-.2.1-.3.1-.1 0-.2.1-.3.1-.4.2-.8.3-1.2.5-.1.1-.2.1-.2.2s-.2.1-.2.2c-.1.1-.2.2-.3.2-.2.2-.4.3-.5.5l-.2.2c-.1.1-.2.2-.2.3-.5.6-.8 1.3-1 2 0 .1-.1.2-.1.3 0 .1 0 .2-.1.3v.9c0 3.1 2.6 5.8 5.8 5.8h.9c.1 0 .2 0 .3-.1.1 0 .2-.1.3-.1.8-.2 1.4-.5 2-1 .1-.1.2-.2.3-.2l.2-.2.5-.5c.1-.1.2-.2.2-.3.1-.1.1-.2.2-.2.1-.1.1-.2.2-.2.2-.4.4-.8.5-1.2 0-.1.1-.2.1-.3 0-.1.1-.2.1-.3 0-.1 0-.2.1-.3.1-.3.1-.6.1-.8-.2-.3-.2-.4-.2-.5zm-5.7 5c-2.6 0-4.7-2.1-4.7-4.7s2.1-4.7 4.7-4.7 4.7 2.1 4.7 4.7-2.1 4.7-4.7 4.7z"/><path class="st8" d="M884.8 437.4c-3.1 0-5.8 2.6-5.8 5.8s2.6 5.8 5.8 5.8c3.1 0 5.8-2.6 5.8-5.8s-2.6-5.8-5.8-5.8zm-1.1 7.5c-.4 0-.6-.3-.6-.6s.3-.6.6-.6.6.3.6.6-.2.6-.6.6zm0-2.2c-.4 0-.6-.3-.6-.6s.3-.6.6-.6.6.3.6.6-.2.6-.6.6zm2.3 2.2c-.4 0-.6-.3-.6-.6s.3-.6.6-.6.6.3.6.6-.3.6-.6.6zm0-2.2c-.4 0-.6-.3-.6-.6s.3-.6.6-.6.6.3.6.6-.3.6-.6.6z"/><path class="st9" d="M886 443.4c-.5 0-.8.4-.8.8 0 .5.4.8.8.8s.8-.4.8-.8-.4-.8-.8-.8zm0 1.5c-.4 0-.6-.3-.6-.6 0-.4.3-.6.6-.6s.6.3.6.6-.3.6-.6.6zm0-3.7c-.5 0-.8.4-.8.8s.4.8.8.8.8-.4.8-.8-.4-.8-.8-.8zm0 1.5c-.4 0-.6-.3-.6-.6s.3-.6.6-.6.6.3.6.6-.3.6-.6.6zm-2.3.7c-.5 0-.8.4-.8.8 0 .5.4.8.8.8s.8-.4.8-.8-.3-.8-.8-.8zm0 1.5c-.4 0-.6-.3-.6-.6 0-.4.3-.6.6-.6s.6.3.6.6c.1.3-.2.6-.6.6zm0-3.7c-.5 0-.8.4-.8.8s.4.8.8.8.8-.4.8-.8-.3-.8-.8-.8zm0 1.5c-.4 0-.6-.3-.6-.6s.3-.6.6-.6.6.3.6.6-.2.6-.6.6z"/><path class="st9" d="M890.6 442.9v-.6c0-.1 0-.2-.1-.3 0-.1-.1-.2-.1-.3-.2-.8-.6-1.6-1.2-2.2l-.1-.1-.2-.2-.2-.2-.2-.2-.1-.1c-.6-.5-1.4-.9-2.2-1.2-.1 0-.2-.1-.3-.1-.1 0-.2 0-.3-.1h-.9c-.3 0-.6 0-.8.1-.1 0-.2 0-.3.1-.1 0-.2.1-.3.1-.1 0-.2.1-.3.1-.4.2-.8.3-1.2.5-.1.1-.2.1-.2.2s-.2.1-.2.2-.2.2-.3.2c-.2.2-.4.3-.5.5l-.2.2c-.1.1-.2.2-.2.3-.5.6-.8 1.3-1 2 0 .1-.1.2-.1.3 0 .1 0 .2-.1.3v.9c0 3.1 2.6 5.8 5.8 5.8h.9c.1 0 .2 0 .3-.1.1 0 .2-.1.3-.1.8-.2 1.4-.5 2-1 .1-.1.2-.2.3-.2l.2-.2.5-.5c.1-.1.2-.2.2-.3s.1-.2.2-.2c.1-.1.1-.2.2-.2.2-.4.4-.8.5-1.2 0-.1.1-.2.1-.3 0-.1.1-.2.1-.3 0-.1 0-.2.1-.3.1-.3.1-.6.1-.8-.2-.3-.2-.4-.2-.5zm-5.8 5c-2.6 0-4.7-2.1-4.7-4.7s2.1-4.7 4.7-4.7 4.7 2.1 4.7 4.7-2.1 4.7-4.7 4.7z"/><path class="st2" d="m890.7 231.7-2.8 29.3-13 34.5-43.7-4.6 33.9-43.7c9.2-3.9 17.9-9.1 25.6-15.5z"/><path class="st5" d="m869.3 294.9 6.4-1.6-.8 2.2-5.6-.6zm-22.2-2.3 6.7.7 24.2-6.1 1-2.6-31.9 8zm35.2-16.7-49 12.3-2.1 2.8.4.1 49.8-12.4.9-2.8zm-41.4 2.4-2.3 2.9 46-11.5 1.1-2.6-44.8 11.2zm22.9-29.4-2.3 2.9 27.9-7 .2-2.5-25.8 6.6zm22-13.5c-1.8 1.3-3.5 2.5-5.4 3.8l9.7-2.5.2-2.5-4.5 1.2zm-37.3 33.1-2.3 2.9 41.7-10.4.2-2.4-39.6 9.9zm7.6-9.8-2.3 2.9 34.8-8.7.2-2.5-32.7 8.3z"/><path class="st2" d="m965.4 476.9-57.7-113c-5-9.7-8.3-20.3-9.8-31.1l-10-71.8-19.6 15.7c-2.2 1.8-4.8 3.1-7.4 4.1l-29.7 10.1L886.8 415c4.8 10.8 11.6 20.6 19.9 29l46.7 47.1 12-14.2z"/><path class="st5" d="m917.3 382.7-66.5-98.6 2.2-.8 55.6 82.4 8.7 17zm-18.7-45.5-38.1-56.4-2.2.8 41.7 61.7c-.5-2-1-4-1.4-6.1zm-2.5-17.5-28.6-42.4c-.6.5-1.2.8-1.9 1.3l31.3 46.3-.8-5.2zm-2.4-17.3-20.2-29.9-1.8 1.5 22.7 33.7-.7-5.3zm-4.8-34.5-3.4-5-1.8 1.5 5.9 8.7-.7-5.2zm2.4 17.2-11.8-17.4-1.8 1.5 14.3 21.2-.7-5.3zm46.2 137.1L845.6 286l-2.2.8 102.8 152.4-8.7-17zm-62.7-33.9 49.6 73.6 8.7 8.7-63.8-94.7 5.5 12.4zm29.1 52.9L887.7 417c4.2 8.8 9.6 17 16.2 24.2zm61.3 36L838 288.5l-2.2.8 127.9 189.6 1.5-1.7zm-5.1 6-127.4-189 5.5 12.3L958.6 485l1.5-1.8zm-6.7 7.9 1.5-1.8L851 335.2l5.5 12.3 96.9 143.6z"/><path class="st2" d="m1029.4 231.7 2.8 29.3 13 34.5 43.7-4.6-33.9-43.7c-9.3-3.9-18-9.1-25.6-15.5z"/><path class="st5" d="m1045.2 295.5-.8-2.1 6.4 1.6-5.6.5zm-4.2-10.9 1 2.6 24.2 6.1 6.7-.7-31.9-8zm-2.3-6.1 49.8 12.4.4-.1-2.1-2.8-49-12.3.9 2.8zm-4.3-11.4 1 2.6 46 11.5-2.3-2.9-44.7-11.2zm-4-24.7.2 2.5 27.9 7-2.3-2.9-25.8-6.6zm-.8-8.1.2 2.5 9.7 2.5c-1.8-1.2-3.6-2.5-5.4-3.8l-4.5-1.2zm2.3 24.3.2 2.4v.1l41.7 10.4-2.3-2.9-39.6-10zm-.8-8.1.2 2.5 34.8 8.7-2.3-2.9-32.7-8.3z"/><path class="st2" d="m1032.1 261-10 71.8c-1.5 10.8-4.8 21.4-9.8 31.1L927 531l86.4-87.1c8.4-8.4 15-18.3 19.9-29l55.5-124.1-29.7-10.1c-2.7-.9-5.2-2.3-7.4-4.1l-19.6-15.6z"/><path class="st5" d="M1020.1 343.4c.5-2 1-4.1 1.4-6.1l38.1-56.4 2.2.8-41.7 61.7zm49.1-59.2-2.2-.8-55.6 82.4-8.7 17 66.5-98.6zm-14.7-5.7c-.7-.4-1.3-.8-1.9-1.3l-28.6 42.4-.7 5.2 31.2-46.3zm-6.2-4.6-1.8-1.5-20.2 29.9-.7 5.2 22.7-33.6zm-6-4.8-1.8-1.5-11.7 17.4-.7 5.2 14.2-21.1zm-5.9-4.7-1.8-1.5-3.4 5-.7 5.2 5.9-8.7zm8.9 123.9 5.5-12.3-63.8 94.6 8.7-8.7 49.6-73.6zm-29.2 52.9c6.6-7.2 12.1-15.3 16.3-24.2l-16.3 24.2zm47.5-93.8 5.5-12.3L958 499.8l8.7-8.7 96.9-143.7zm20.7-58.1-2.2-.8-128.4 190.2-8.7 17 139.3-206.4zm-7.6-2.5-2.2-.8-91.9 136.3-8.7 17 102.8-152.5zm5.2 19.7 5.5-12.3-158.2 234.7 8.7-8.7 144-213.7z"/><path class="st3" d="M955.2 265.3c-.8-.1-1.5-.2-2.3-.4-.8-.2-1.5-.3-2.2-.5-.9-.2-1.8-.5-2.8-.8l-.5-.5-5.4-6.2-.8-.9-6.8-8-1.3-1.5-13.9-16.1-.2-.2c-.4-.5-.8-.9-1.2-1.5 0-.1-.1-.1-.1-.2-.4-.5-.7-1-1.1-1.5 0-.1-.1-.1-.1-.2-.2-.2-.3-.5-.5-.8-.1-.1-.1-.2-.2-.3-.2-.3-.3-.6-.5-.8-.1-.1-.1-.2-.2-.2-.2-.3-.3-.6-.5-1 0-.1-.1-.2-.1-.2-.2-.4-.3-.7-.5-1.1 0-.1 0-.1-.1-.2-.2-.4-.3-.8-.5-1.2-.9-2.8-1.4-5.8-1.4-8.7v-12.7l-22 32.2c-.8.7-1.6 1.3-2.4 1.9-.4.3-.7.5-1.1.8-.4.3-.8.6-1.2.8-.8.6-1.8 1.2-2.6 1.8-.1 0-.1.1-.2.1-.8.6-1.8 1.2-2.7 1.8-1.7 1.1-3.4 2.1-5.1 3.1-.1 0-.1.1-.2.1-.9.5-1.9 1-2.8 1.5-.3.2-.5.3-.8.5-2.1 1-4.1 2-6.3 2.9-.7.3-1.5.6-2.2.9l-1.2.5-18.8 7.1-16.1 6.1-2.3.8-5.4 2-1.8.7c-.2.1-.3.2-.5.2-1.8.7-3.6 1.3-5.4 1.9-.8.3-1.5.5-2.3.8l-5.4 1.8c-.5.2-.8.3-1.3.4-2.1.7-4.2 1.3-6.4 1.9l-2.3.7-5.4 1.5c-.5.2-1 .2-1.5.4-2.1.5-4.1 1.1-6.1 1.5-.8.2-1.5.4-2.3.5l-5.3 1.2h-.1c-.6.2-1.2.4-1.8.7l-.1.1c-.2.1-.3.2-.4.3-2.1 1.5-3 4.1-2.2 6.8l3.5 11 1.2 3.6 5.4 17.3 2.3 7.4 13 42.2 2.3 7.4 4.2 13.5 1.2 3.9c.4 1.2.7 2.5 1.1 3.7.1.2.1.4.2.5.4 1.3.7 2.5 1.1 3.8 2 7.3 3.8 14.7 5.4 22 .8 3.8 1.6 7.7 2.3 11.6 2.1 11.8 3.8 23.8 4.8 35.8l1.7 18.9 1.2 13 7.9 90.9H960V265.6c-1.6 0-3.3-.1-4.8-.3z"/><path class="st8" d="M567.4 265.5c1.5 4 .8 8.6-1.9 12-1.8 2.3-4.1 3.8-6.7 4.4-1 .3-.8 1.7.2 1.7 3.8.2 7.6-1.1 10.4-4.2 3.7-1.3 7.9-.6 10.7 2.4.2.2.5.5.6.8l1.5-1.4-14.8-15.7z"/><path class="st2" d="M671.5 362 560.6 245.2l18.1-17.2c.8-.8 2.1-.7 2.8.1l106.7 112.4c1.5 1.6 1.4 4.1-.1 5.7L671.5 362z"/><path class="st2" d="m684.1 337.6-31-32.6 8.5-3.4c2.2-.7 4.7-.2 6.3 1.6l18.8 19.8c1.7 1.7 2.1 4.2 1.2 6.4l-3.8 8.2z"/><circle class="st2" cx="683.8" cy="351" r="3.5"/><path class="st2" d="M582.6 240.9 553 209.7l4.4-4.1c.8-.8.8-2 .1-2.8L543 187.5l-18.9 17.9 20.7 21.8c1.5 1.6 1.4 4.1-.1 5.7L484.5 290c-.8.8-.8 2-.1 2.8l16.5 17.4c.8.8 2 .8 2.8.1l63.1-59.9 2.8 2.9 13-12.4zM543 187.5 442.3 85.9l-6.5 6.2 98.5 103.7 8.7-8.3z"/><path class="st2" d="m432.9 94.8-3.4-3.6c-.8-.8-.7-2.1.1-2.8l9.4-9c.8-.8 2.1-.7 2.8.1l3.4 3.6c.8.8.7 2.1-.1 2.8l-9.4 9c-.8.8-2 .7-2.8-.1zM623 266l-4.1-4.4c-.8-.8-.7-2.1.1-2.8l1.5-1.4c.8-.8 2.1-.7 2.8.1l4.1 4.4c.8.8.7 2.1-.1 2.8l-1.5 1.4c-.8.7-2 .7-2.8-.1zm-4.1-4.4 4.1 4.4-1.5 1.4-4.1-4.4 1.5-1.4zm2.7 5.7-4.1-4.4c-.8-.8-2-.8-2.8-.1l-.7.7 6.9 7.3.7-.7c.7-.7.7-2 0-2.8z"/><path class="st2" d="m440.9 84.4 3.6-3.4c.5-.5 1.2-.9 1.9-1l5-1c1.5-.3 2.7 1 2.3 2.5l-1.3 4.9c-.2.7-.6 1.4-1.1 1.9l-4.3 4.1-6.9-7.3.8-.7z"/><path class="st8" d="m479.3 123.2-1.4-1.5-8.3 5.9 1.4 1.5 8.3-5.9zm2.9 2.9-1.5-1.5-8.2 6 1.4 1.5 8.3-6zm5.7 5.7-1.5-1.5-8.4 6.2 1.4 1.5 8.5-6.2zm2.7 2.9-1.4-1.5-8.5 6.1 1.4 1.5 8.5-6.1zm-5.6-5.8-1.4-1.4-8.4 6 1.4 1.5 8.4-6.1zm8.5 8.7-1.4-1.5-8.6 6.2 1.4 1.5 8.6-6.2zm34.2 34.4-1.4-1.4-9.4 6.8 1.4 1.5 9.4-6.9zm2.9 3-1.4-1.5-9.5 6.8 1.4 1.5 9.5-6.8zm-5.7-5.8-1.4-1.4-9.4 6.7 1.4 1.5 9.4-6.8zm8.5 8.6-1.4-1.5-9.6 6.9 1.4 1.5 9.6-6.9zm-37-37.3L495 139l-8.7 6.3 1.4 1.5 8.7-6.3zm39.9 40.3-1.4-1.5-9.7 7 1.4 1.5 9.7-7zm5.7 5.7-1.5-1.5-9.7 7 1.4 1.5 9.8-7zm-20-20.2-1.4-1.4-9.2 6.7 1.4 1.5 9.2-6.8zm17.1 17.3-1.4-1.5-9.7 7 1.4 1.5 9.7-7zm-31.3-31.7-1.4-1.4-8.9 6.4 1.4 1.5 8.9-6.5zm-2.9-2.9-1.4-1.4-8.8 6.4 1.4 1.5 8.8-6.5zm-2.8-2.8-1.4-1.4-8.8 6.3 1.4 1.5 8.8-6.4zm-2.8-2.8-1.4-1.5-8.7 6.4 1.4 1.5 8.7-6.4zm17 17.2-1.4-1.5-9.2 6.6 1.4 1.5 9.2-6.6zm2.9 2.9-1.4-1.5-9.3 6.6 1.4 1.5 9.3-6.6zm-5.7-5.8-1.4-1.5-9.1 6.6 1.4 1.5 9.1-6.6zm-2.9-2.9-1.4-1.5-9 6.5 1.4 1.5 9-6.5z"/><path class="st10" d="m451.7 105.9 82.6 87c.8.8.7 2.1-.1 2.8L523.3 206c-3.6 3.4-9.2 3.1-12.3-.6L440.9 124c-2.8-3.3-2.6-8.1.6-11l7.5-7.2c.7-.7 1.9-.7 2.7.1z"/><circle class="st8" cx="512.2" cy="284.3" r="2"/><circle class="st8" cx="526" cy="271.2" r="2"/><circle class="st8" cx="539.7" cy="258.2" r="2"/><circle class="st8" cx="553.5" cy="245.1" r="2"/><path class="st10" d="m570 290.1-6.4 6.1 3 3.2c1.6 1.7 1.7 4.7 1.4 7-.5 4.2-1.2 10.7-2.2 12.5-1 2-4.9 5.2-7.1 7-1 .8-1.6 2.1-1.5 3.4.1 2.3.3 5.7.3 7.2 0 1.4-4.2 5.5-6.7 7.9-.9.9-.8 2.5.4 3.2 4.3 2.5 13.7 7.5 20.1 7.7 8.5.2 13.5-3.2 16.4-5.9 2.9-2.8 3.7-4.9 5.3-11.9.8-3.7 1.1-8.6 1.2-12.6.1-4.2 1.9-8.3 5-11.2l4.4-4.2c.5-.5 1.2-.8 1.8-1l.1-.1.2-1.2-16.3-17.2c-5.1-5.3-14.2-4.8-19.4.1z"/><path class="st2" d="m567 241.9-29 27.5 26.2 27.6 6.4-6.1c5.3-5 13.6-4.8 18.7.5l16.1 17 6.7-1.7 17.2 18.1 8.7-8.3-71-74.6zm2.4 46c-3.2 3-8.3 2.9-11.3-.3l-11-11.6c-1.5-1.6-1.4-4.1.1-5.7l6.5-6.2c3.2-3 8.3-2.9 11.3.3l8.3 8.7c3 3.2 2.9 8.3-.3 11.3l-3.6 3.5z"/><path class="st11" d="M502.8 180.1 458.1 133c-1.5-1.6-1.4-4.1.1-5.7 1.6-1.5 4.1-1.4 5.7.1l44.8 47.1c1.5 1.6 1.4 4.1-.1 5.7-1.7 1.6-4.2 1.5-5.8-.1z"/><ellipse transform="rotate(-43.525 577.752 290.95)" class="st8" cx="577.8" cy="291" rx="4" ry="6"/><circle class="st8" cx="595.6" cy="286.5" r="2"/><circle class="st8" cx="586.6" cy="279.9" r="3"/><circle class="st8" cx="600.4" cy="291.5" r="2"/><path class="st10" d="M633.1 320.2c-.8-.8-2-.8-2.8-.1l-8.5 8.1c-4.3 4.1-4.9 10.6-1.7 15.5l29 41.1c2.7 3.9 4.6 8.2 5.7 12.8L685.5 524c1.2 4.8 6.2 7.4 10.8 5.6l7-2.8c6.2-2.5 12-6 16.9-10.4l27.6-24.4c3.5-3.1 4.3-8.4 1.8-12.3L697.1 395c-1.9-3-4.4-5.8-7.4-7.9l-4.7-3.4c-2.6-1.9-4.8-4.4-6.1-7.4l-6.7-14.7-39.2-41.3.1-.1z"/><path class="st8" d="m678.7 327.5-15.8-16.7c-1.2-1.2-1.1-3.1.1-4.2 1.2-1.2 3.1-1.1 4.2.1l15.8 16.7c1.2 1.2 1.1 3.1-.1 4.2-1.1 1.1-3 1.1-4.2-.1zm659-46.3 1.5 1.4c.1-.3.4-.6.6-.8 2.8-3 7-3.7 10.7-2.4 2.8 3 6.6 4.4 10.4 4.2 1 0 1.2-1.4.2-1.7-2.6-.6-4.9-2.1-6.7-4.4-2.7-3.4-3.3-8-1.9-12l-14.8 15.7z"/><path class="st2" d="M1231.9 346.1c-1.6-1.5-1.7-4.1-.1-5.7L1338.5 228c.8-.8 2-.8 2.8-.1l18.1 17.2L1248.5 362l-16.6-15.9z"/><path class="st2" d="m1235.9 337.6-3.9-8.2c-.8-2.2-.4-4.7 1.2-6.4l18.8-19.8c1.7-1.7 4.1-2.3 6.3-1.6l8.5 3.4-30.9 32.6z"/><circle class="st2" cx="1236.2" cy="351" r="3.5"/><path class="st2" d="m1337.4 240.9 13.1 12.4 2.8-2.9 63.1 59.9c.8.8 2.1.7 2.8-.1l16.5-17.4c.8-.8.7-2.1-.1-2.8l-60.2-57.2c-1.6-1.5-1.7-4.1-.1-5.7l20.7-21.8-18.9-17.9-14.5 15.2c-.8.8-.7 2.1.1 2.8l4.4 4.1-29.7 31.4zm48.3-45.1 98.5-103.7-6.5-6.2L1377 187.5l8.7 8.3z"/><path class="st2" d="m1484.3 94.9-9.4-9c-.8-.8-.8-2-.1-2.8l3.4-3.6c.8-.8 2-.8 2.8-.1l9.4 9c.8.8.8 2 .1 2.8l-3.4 3.6c-.8.8-2 .9-2.8.1zM1294.2 266l-1.5-1.4c-.8-.8-.8-2-.1-2.8l4.1-4.4c.8-.8 2-.8 2.8-.1l1.5 1.4c.8.8.8 2 .1 2.8l-4.1 4.4c-.8.9-2 .9-2.8.1zm8.4-3-4.1 4.4-1.5-1.4 4.1-4.4 1.5 1.4zm-4.1 7.2.7.7 6.9-7.3-.7-.7c-.8-.8-2.1-.7-2.8.1l-4.1 4.4c-.8.7-.8 2 0 2.8z"/><path class="st2" d="m1479.8 85.1-6.9 7.3-4.3-4.1c-.5-.5-.9-1.2-1.1-1.9l-1.3-4.9c-.4-1.5.8-2.8 2.3-2.5l5 1c.7.1 1.4.5 1.9 1l3.6 3.4.8.7z"/><path class="st8" d="m1448.9 129.2 1.4-1.5-8.3-5.9-1.4 1.5 8.3 5.9zm-2.7 2.9 1.4-1.5-8.2-6-1.5 1.5 8.3 6zm-5.6 5.9 1.4-1.5-8.4-6.2-1.5 1.5 8.5 6.2zm-2.7 2.9 1.4-1.5-8.5-6.1-1.4 1.5 8.5 6.1zm5.5-5.9 1.4-1.5-8.4-6-1.4 1.4 8.4 6.1zm-8.3 8.8 1.4-1.5-8.6-6.2-1.4 1.5 8.6 6.2zm-33.4 35.1 1.4-1.5-9.4-6.8-1.4 1.4 9.4 6.9zm-2.7 2.9 1.4-1.5-9.5-6.8-1.4 1.5 9.5 6.8zm5.5-5.8 1.4-1.5-9.4-6.7-1.4 1.4 9.4 6.8zm-8.3 8.7 1.4-1.5-9.6-6.9-1.4 1.5 9.6 6.9zm36.1-38 1.4-1.5-8.7-6.3-1.4 1.5 8.7 6.3zm-38.9 41 1.4-1.5-9.7-7-1.4 1.5 9.7 7zm-5.6 5.9 1.4-1.5-9.7-7-1.5 1.5 9.8 7zm19.5-20.5 1.4-1.5-9.2-6.7-1.4 1.4 9.2 6.8zm-16.7 17.5 1.4-1.5-9.7-7-1.4 1.5 9.7 7zm30.6-32.2 1.4-1.5-8.9-6.4-1.4 1.4 8.9 6.5zm2.7-2.9 1.4-1.5-8.8-6.4-1.4 1.4 8.8 6.5zm2.8-2.9 1.4-1.5-8.8-6.3-1.4 1.4 8.8 6.4zm2.8-3 1.4-1.5-8.7-6.4-1.4 1.5 8.7 6.4zm-16.6 17.6 1.4-1.5-9.2-6.6-1.4 1.5 9.2 6.6zm-2.9 3 1.4-1.5-9.3-6.6-1.4 1.5 9.3 6.6zm5.6-5.9 1.4-1.5-9.1-6.6-1.4 1.5 9.1 6.6zm2.8-2.9 1.4-1.5-9-6.5-1.4 1.5 9 6.5z"/><path class="st10" d="M1468.3 105.9c.8-.8 2-.8 2.7-.1l7.5 7.2c3.1 3 3.4 7.8.6 11l-70.2 81.5c-3.1 3.7-8.7 4-12.3.6l-10.9-10.3c-.8-.8-.8-2-.1-2.8l82.7-87.1z"/><circle class="st8" cx="1407.8" cy="284.3" r="2"/><circle class="st8" cx="1394" cy="271.2" r="2"/><circle class="st8" cx="1380.3" cy="258.2" r="2"/><circle class="st8" cx="1366.5" cy="245.1" r="2"/><path class="st10" d="M1350 290.1c-5.2-5-14.3-5.4-19.5-.1l-16.3 17.2.2 1.2.1.1c.6.2 1.3.5 1.8 1l4.4 4.2c3 2.9 4.8 6.9 5 11.2.1 4 .4 8.9 1.2 12.6 1.6 7 2.4 9.1 5.3 11.9 2.9 2.8 7.9 6.2 16.4 5.9 6.4-.2 15.8-5.1 20.1-7.7 1.2-.7 1.4-2.3.4-3.2-2.5-2.4-6.7-6.5-6.7-7.9 0-1.4.2-4.9.3-7.2.1-1.3-.5-2.5-1.5-3.4-2.2-1.9-6.1-5.1-7.1-7-1-1.9-1.7-8.4-2.2-12.5-.3-2.3-.1-5.4 1.4-7l3-3.2-6.3-6.1z"/><path class="st2" d="m1282 316.6 8.7 8.3 17.2-18.1 6.7 1.7 16.1-17c5-5.3 13.4-5.5 18.7-.5l6.4 6.1 26.2-27.6-29-27.5-71 74.6zm65-32.1c-3.2-3-3.3-8.1-.3-11.3l8.3-8.7c3-3.2 8.1-3.3 11.3-.3l6.5 6.2c1.6 1.5 1.7 4.1.1 5.7l-11 11.6c-3 3.2-8.1 3.3-11.3.3l-3.6-3.5z"/><path class="st11" d="M1411.5 180.2c-1.6-1.5-1.7-4.1-.1-5.7l44.8-47.1c1.5-1.6 4.1-1.7 5.7-.1 1.6 1.5 1.7 4.1.1 5.7l-44.8 47.1c-1.6 1.6-4.1 1.7-5.7.1z"/><ellipse transform="rotate(-46.475 1342.194 290.944)" class="st8" cx="1342.2" cy="291" rx="6" ry="4"/><circle class="st8" cx="1324.4" cy="286.5" r="2"/><circle class="st8" cx="1333.4" cy="279.9" r="3"/><circle class="st8" cx="1319.6" cy="291.5" r="2"/><path class="st10" d="m1287 320.3-39.2 41.3-6.7 14.7c-1.3 3-3.5 5.5-6.1 7.4l-4.7 3.4c-3 2.1-5.5 4.9-7.4 7.9l-52.6 84.7c-2.5 4-1.7 9.2 1.8 12.3l27.6 24.4c4.9 4.4 10.7 7.9 16.9 10.4l7 2.8c4.6 1.9 9.6-.8 10.8-5.6l30.7-126.4c1.1-4.6 3-8.9 5.7-12.8l29-41.1c3.3-4.9 2.6-11.5-1.7-15.5l-8.5-8.1c-.8-.8-2.1-.7-2.8.1l.2.1z"/><path class="st8" d="M1237 327.6c-1.2-1.2-1.3-3-.1-4.2l15.8-16.7c1.2-1.2 3-1.3 4.2-.1s1.3 3 .1 4.2l-15.8 16.7c-1.1 1.2-3 1.2-4.2.1z"/></svg>