<svg xmlns="http://www.w3.org/2000/svg" viewBox="0 0 1920 673" xml:space="preserve"><style>.st1,.st2{fill:#2e86b7}.st2{opacity:.1}</style><path fill="#d6e8ed" d="M0 0h1920v673H0z"/><circle class="st1" cx="740" cy="324.5" r="32"/><circle class="st2" cx="740" cy="324.5" r="42"/><circle class="st2" cx="740" cy="324.5" r="52"/><circle class="st1" cx="740" cy="116.5" r="32"/><circle class="st2" cx="740" cy="116.5" r="42"/><circle class="st2" cx="740" cy="116.5" r="52"/><circle class="st1" cx="740" cy="220.5" r="32"/><circle class="st2" cx="740" cy="220.5" r="42"/><circle class="st2" cx="740" cy="220.5" r="52"/><circle class="st1" cx="740" cy="428.5" r="32"/><circle class="st2" cx="740" cy="428.5" r="42"/><circle class="st2" cx="740" cy="428.5" r="52"/><circle class="st1" cx="740" cy="532.5" r="32"/><circle class="st2" cx="740" cy="532.5" r="42"/><circle class="st2" cx="740" cy="532.5" r="52"/><circle class="st1" cx="844" cy="116.5" r="32"/><circle class="st2" cx="844" cy="116.5" r="42"/><circle class="st2" cx="844" cy="116.5" r="52"/><circle class="st1" cx="844" cy="532.5" r="32"/><circle class="st2" cx="844" cy="532.5" r="42"/><circle class="st2" cx="844" cy="532.5" r="52"/><circle class="st1" cx="948" cy="116.5" r="32"/><circle class="st2" cx="948" cy="116.5" r="42"/><circle class="st2" cx="948" cy="116.5" r="52"/><circle class="st1" cx="948" cy="532.5" r="32"/><circle class="st2" cx="948" cy="532.5" r="42"/><circle class="st2" cx="948" cy="532.5" r="52"/><circle class="st1" cx="1052" cy="116.5" r="32"/><circle class="st2" cx="1052" cy="116.5" r="42"/><circle class="st2" cx="1052" cy="116.5" r="52"/><circle class="st1" cx="1052" cy="532.5" r="32"/><circle class="st2" cx="1052" cy="532.5" r="42"/><circle class="st2" cx="1052" cy="532.5" r="52"/><circle class="st1" cx="1156" cy="324.5" r="32"/><circle class="st2" cx="1156" cy="324.5" r="42"/><circle class="st2" cx="1156" cy="324.5" r="52"/><circle class="st1" cx="1156" cy="116.5" r="32"/><circle class="st2" cx="1156" cy="116.5" r="42"/><circle class="st2" cx="1156" cy="116.5" r="52"/><circle class="st1" cx="1156" cy="220.5" r="32"/><circle class="st2" cx="1156" cy="220.5" r="42"/><circle class="st2" cx="1156" cy="220.5" r="52"/><circle class="st1" cx="1156" cy="428.5" r="32"/><circle class="st2" cx="1156" cy="428.5" r="42"/><circle class="st2" cx="1156" cy="428.5" r="52"/><circle class="st1" cx="1156" cy="532.5" r="32"/><circle class="st2" cx="1156" cy="532.5" r="42"/><circle class="st2" cx="1156" cy="532.5" r="52"/></svg>