<svg version="1.1" xmlns="http://www.w3.org/2000/svg" x="0" y="0" viewBox="0 0 240.3 240.3" xml:space="preserve"><style type="text/css">.st0{fill:#36434f}</style><circle class="st0" cx="79.8" cy="229.8" r="10.5"/><circle class="st0" cx="229.8" cy="229.8" r="10.5"/><circle class="st0" cx="79.8" cy="79.8" r="10.5"/><circle class="st0" cx="229.8" cy="79.8" r="10.5"/><circle class="st0" cx="154.8" cy="79.8" r="10.5"/><circle class="st0" cx="154.8" cy="229.8" r="10.5"/><circle class="st0" cx="79.8" cy="154.8" r="10.5"/><circle class="st0" cx="229.8" cy="154.8" r="10.5"/><circle class="st0" cx="154.8" cy="154.8" r="10.5"/><path class="st0" d="M120.2 117.3L227.8 9.7v145.2h4V0l-4 4-110.5 110.5L47 44.2 44.2 47l70.3 70.3L4 227.8l-4 4h234.7L120.2 117.3zm-2.9 2.9L225 227.8H9.7l107.6-107.6z"/></svg>