<svg xmlns="http://www.w3.org/2000/svg" viewBox="0 0 1920 673" xml:space="preserve"><style>.st3{fill:#36434f}</style><path fill="#bfb260" d="M0 0h1920v673H0z"/><path d="M750.9 123.9h418.3v510H750.9v-510z" fill="#f4f4f4"/><path d="M750.9 39.1h418.3v87.1H750.9V39.1z" fill="#667e8e"/><circle class="st3" cx="907.7" cy="90.2" r="19.8"/><circle class="st3" cx="1012.3" cy="90.2" r="19.8"/><path d="M1007.1 97.2H913c-3.8 0-7-3.1-7-7s3.1-7 7-7h94.1c3.8 0 7 3.1 7 7s-3.2 7-7 7z" fill="#7193ad"/><path d="M862.4 466.6h195.2v41.8H862.4v-41.8zm10.5 124.3h13.9v16.3h-13.9v-16.3zm177.7 0h-65.1v16.3h65.1v-16.3zm-155.7 0h82.5v16.3h-82.5v-16.3zm163.9 0v16.3h48.8v-16.3h-48.8zm-194.1 0h-52.3v16.3h52.3v-16.3zm-18.6-55.7h65.1v16.3h-65.1v-16.3zm73.2 0h9.3v16.3h-9.3v-16.3zm94.1 0h94.1v16.3h-94.1v-16.3zm-76.6 0h68.5v16.3h-68.5v-16.3zm-124.4 0H838v16.3h-25.6v-16.3zm201 27.9h-5.8v16.3h46.5v-16.3h-40.7zm-13.9 16.2V563H861.2v16.3h138.3zm62.7-16.2h45.3v16.3h-45.3v-16.3zm-209.1 0h-40.7v16.3h40.7v-16.3zm33.7-412.5h146.4v26.7H886.8v-26.7z" fill="#ddd"/><path class="st3" d="M816.5 202.9h287v3.5h-287v-3.5zm135.7 224H833.4v-23.6l56.1-59.8c7.7-8.4 13.4-15.8 17.1-22.1 3.7-6.3 5.6-12.2 5.6-17.9 0-7.7-2-13.7-5.8-18.1-4-4.4-9.4-6.6-16.7-6.6-7.8 0-13.9 2.7-18.4 8-4.5 5.3-6.7 12.4-6.7 21.1H830c0-10.6 2.6-20.2 7.6-28.9s12.2-15.6 21.4-20.6c9.2-5 19.6-7.4 31.4-7.4 17.9 0 31.7 4.3 41.6 12.9 9.9 8.6 14.9 20.7 14.9 36.4 0 8.6-2.2 17.3-6.6 26.3-4.4 8.9-12.1 19.3-22.9 31.1L878 399.3h74.6V427h-.4zm134.2-127.3c0 8.4-2.1 15.9-6.3 22.4-4.2 6.5-10 11.7-17.4 15.6 8.4 4.1 15.1 9.6 20 16.7s7.4 15.5 7.4 25.1c0 15.5-5.2 27.5-15.7 36.5-10.5 8.9-24.7 13.4-42.8 13.4-18 0-32.3-4.5-42.9-13.5-10.6-8.9-15.8-21.1-15.8-36.5 0-9.6 2.4-18 7.4-25.1 4.9-7.2 11.5-12.7 19.9-16.7-7.4-3.8-13.1-9.1-17.3-15.6-4.2-6.5-6.3-13.9-6.3-22.4 0-14.8 4.9-26.5 14.8-35.3 9.9-8.8 23.2-13.1 40.2-13.1 16.8 0 30.2 4.3 40.1 13 9.7 8.7 14.7 20.6 14.7 35.5zm-30.9 77.3c0-7.6-2.2-13.6-6.5-18.1-4.4-4.5-10.2-6.7-17.7-6.7-7.3 0-13.1 2.2-17.5 6.7s-6.5 10.6-6.5 18.1c0 7.4 2.1 13.4 6.4 17.9s10.2 6.7 17.9 6.7c7.4 0 13.4-2.2 17.5-6.5 4.3-4.4 6.4-10.4 6.4-18.1zm-3.5-75.7c0-6.7-1.7-12.2-5.3-16.3s-8.6-6.2-15.1-6.2c-6.4 0-11.4 2-15 5.9-3.6 4-5.3 9.4-5.3 16.5 0 6.9 1.7 12.4 5.3 16.7 3.6 4.2 8.6 6.3 15.1 6.3s11.5-2.1 15.1-6.3c3.4-4.1 5.2-9.6 5.2-16.6z"/><path d="M750.9 39.1V634H960V39.1H750.9z" opacity=".15" fill="#444"/></svg>