<svg xmlns="http://www.w3.org/2000/svg" viewBox="0 0 1920 673" xml:space="preserve"><style>.st2{fill:#fff}</style><path fill="#038387" d="M0 0h1920v673H0z"/><g opacity=".7"><circle class="st2" cx="671.2" cy="130.1" r="12.1"/><circle class="st2" cx="678.8" cy="83.3" r="12.1"/><circle class="st2" cx="713.5" cy="62.1" r="12.1"/><circle class="st2" cx="746.8" cy="63.7" r="12.1"/><circle class="st2" cx="838.9" cy="74.2" r="12.1"/><circle class="st2" cx="734.7" cy="219.2" r="12.1"/><circle class="st2" cx="709.1" cy="121.4" r="12.1"/><circle class="st2" cx="781.9" cy="98.7" r="12.1"/><circle class="st2" cx="799.6" cy="130.1" r="12.1"/><circle class="st2" cx="863.6" cy="131.1" r="12.1"/><circle class="st2" cx="660.9" cy="171.3" r="12.1"/><circle class="st2" cx="702.2" cy="170.1" r="12.1"/><circle class="st2" cx="766.6" cy="165.5" r="12.1"/><circle class="st2" cx="825.9" cy="163.4" r="12.1"/><circle class="st2" cx="902.1" cy="164.3" r="12.1"/><circle class="st2" cx="642.5" cy="207.2" r="12.1"/><circle class="st2" cx="684.4" cy="251.4" r="12.1"/><circle class="st2" cx="778.9" cy="231.5" r="12.1"/><circle class="st2" cx="800.4" cy="256.7" r="12.1"/><circle class="st2" cx="893.7" cy="231.7" r="12.1"/><circle class="st2" cx="701.5" cy="284.2" r="12.1"/><circle class="st2" cx="766.4" cy="306.8" r="12.1"/><circle class="st2" cx="742.2" cy="278.1" r="12.1"/><circle class="st2" cx="805.7" cy="294.8" r="12.1"/><circle class="st2" cx="837.4" cy="195.1" r="12.1"/><circle class="st2" cx="793.6" cy="190.5" r="12.1"/><circle class="st2" cx="752.9" cy="131.7" r="12.1"/><circle class="st2" cx="855.5" cy="244.9" r="12.1"/><circle class="st2" cx="873.7" cy="195.1" r="12.1"/><circle class="st2" cx="832.9" cy="112" r="12.1"/><circle class="st2" cx="796.6" cy="53.1" r="12.1"/><circle class="st2" cx="662.2" cy="269.1" r="12.1"/><circle class="st2" cx="686.4" cy="204.1" r="12.1"/><circle class="st2" cx="745.3" cy="190.5" r="12.1"/><circle class="st2" cx="817.8" cy="226.8" r="12.1"/><circle class="st2" cx="742.2" cy="101.4" r="12.1"/><circle class="st2" cx="734.7" cy="158.8" r="12.1"/><circle class="st2" cx="722.6" cy="247.9" r="12.1"/><circle class="st2" cx="764.9" cy="257" r="12.1"/><circle class="st2" cx="1055.3" cy="128.8" r="12.1"/><circle class="st2" cx="1066.7" cy="89.7" r="12.1"/><circle class="st2" cx="1095.9" cy="74.5" r="12.1"/><circle class="st2" cx="1127.4" cy="53.1" r="12.1"/><circle class="st2" cx="1214.3" cy="73.7" r="12.1"/><circle class="st2" cx="1109.9" cy="200.8" r="12.1"/><circle class="st2" cx="1087.2" cy="106.6" r="12.1"/><circle class="st2" cx="1157.3" cy="100.9" r="12.1"/><circle class="st2" cx="1184.4" cy="122.3" r="12.1"/><circle class="st2" cx="1250.5" cy="148.8" r="12.1"/><circle class="st2" cx="1045.3" cy="191.4" r="12.1"/><circle class="st2" cx="1083.9" cy="187" r="12.1"/><circle class="st2" cx="1156.2" cy="156.3" r="12.1"/><circle class="st2" cx="1210.8" cy="157.6" r="12.1"/><circle class="st2" cx="1277.5" cy="169.6" r="12.1"/><circle class="st2" cx="1022.3" cy="222.7" r="12.1"/><circle class="st2" cx="1071.3" cy="240.1" r="12.1"/><circle class="st2" cx="1152.2" cy="227.9" r="12.1"/><circle class="st2" cx="1175.1" cy="273.4" r="12.1"/><circle class="st2" cx="1275.8" cy="215" r="12.1"/><circle class="st2" cx="1083.6" cy="275.6" r="12.1"/><circle class="st2" cx="1148.1" cy="302.7" r="12.1"/><circle class="st2" cx="1124.3" cy="289" r="12.1"/><circle class="st2" cx="1186.3" cy="297.5" r="12.1"/><circle class="st2" cx="1216.8" cy="204.1" r="12.1"/><circle class="st2" cx="1169.7" cy="199.3" r="12.1"/><circle class="st2" cx="1128.3" cy="110.5" r="12.1"/><circle class="st2" cx="1243.6" cy="238" r="12.1"/><circle class="st2" cx="1250.8" cy="211.2" r="12.1"/><circle class="st2" cx="1224.1" cy="111" r="12.1"/><circle class="st2" cx="1171.4" cy="54.4" r="12.1"/><circle class="st2" cx="1052.4" cy="275.3" r="12.1"/><circle class="st2" cx="1066.9" cy="212.1" r="12.1"/><circle class="st2" cx="1132" cy="187.9" r="12.1"/><circle class="st2" cx="1199.5" cy="230.6" r="12.1"/><circle class="st2" cx="1136.5" cy="77.7" r="12.1"/><circle class="st2" cx="1110.1" cy="146.6" r="12.1"/><circle class="st2" cx="1096.6" cy="239.6" r="12.1"/><circle class="st2" cx="1125.9" cy="256" r="12.1"/><circle class="st2" cx="884.6" cy="459" r="12.1"/><circle class="st2" cx="872.3" cy="421.6" r="12.1"/><circle class="st2" cx="908.5" cy="403.5" r="12.1"/><circle class="st2" cx="957" cy="368.7" r="12.1"/><circle class="st2" cx="1015.8" cy="391.4" r="12.1"/><circle class="st2" cx="912.2" cy="520.8" r="12.1"/><circle class="st2" cx="905.9" cy="443.2" r="12.1"/><circle class="st2" cx="990.1" cy="424.7" r="12.1"/><circle class="st2" cx="965.3" cy="445.8" r="12.1"/><circle class="st2" cx="1049.5" cy="443.9" r="12.1"/><circle class="st2" cx="854.2" cy="524.4" r="12.1"/><circle class="st2" cx="884.6" cy="501.8" r="12.1"/><circle class="st2" cx="976.1" cy="479.3" r="12.1"/><circle class="st2" cx="1032" cy="474.6" r="12.1"/><circle class="st2" cx="1068.7" cy="474.5" r="12.1"/><circle class="st2" cx="840.5" cy="552.6" r="12.1"/><circle class="st2" cx="865.3" cy="557.5" r="12.1"/><circle class="st2" cx="980.8" cy="532.8" r="12.1"/><circle class="st2" cx="982.6" cy="569.7" r="12.1"/><circle class="st2" cx="1064.1" cy="538" r="12.1"/><circle class="st2" cx="898.7" cy="581.9" r="12.1"/><circle class="st2" cx="960.6" cy="608.4" r="12.1"/><circle class="st2" cx="918.4" cy="619.9" r="12.1"/><circle class="st2" cx="996.5" cy="605.2" r="12.1"/><circle class="st2" cx="1041.4" cy="501.6" r="12.1"/><circle class="st2" cx="1014.3" cy="531.9" r="12.1"/><circle class="st2" cx="937.7" cy="420.3" r="12.1"/><circle class="st2" cx="1059.6" cy="574.8" r="12.1"/><circle class="st2" cx="1080.9" cy="516.1" r="12.1"/><circle class="st2" cx="1021.8" cy="436.8" r="12.1"/><circle class="st2" cx="944.8" cy="391.4" r="12.1"/><circle class="st2" cx="878.9" cy="606.9" r="12.1"/><circle class="st2" cx="839.1" cy="477.5" r="12.1"/><circle class="st2" cx="926.8" cy="483.2" r="12.1"/><circle class="st2" cx="1031.7" cy="562.4" r="12.1"/><circle class="st2" cx="978" cy="396" r="12.1"/><circle class="st2" cx="929.9" cy="457.9" r="12.1"/><circle class="st2" cx="944.8" cy="563.6" r="12.1"/><circle class="st2" cx="913.7" cy="549.6" r="12.1"/></g></svg>