<svg xmlns="http://www.w3.org/2000/svg" viewBox="0 0 1920 673" xml:space="preserve"><style>.st1{fill:#ffcc80}.st2{fill:#36434f}.st3{fill:#f4f4f4}.st4{fill:#e3b877}.st5{opacity:.15;fill:#444;enable-background:new}</style><path fill="#35937a" d="M0 0h1920v673H0z"/><path class="st1" d="M838.9 638c.7-.2 1.4-.4 2-.7l1 9.7c.9 9 2.9 17.7 5.9 26.1H1072c3-8.4 5-17.1 5.9-26.1l1-9.8c.7.3 1.4.6 2.1.8 11.7 2.8 25.8-14.6 31.4-38.7 5.6-24.1.8-45.9-10.9-48.6-4.6-1.1-9.6 1-14.3 5.4l9.8-96.2c0-72.1-61.4-130.5-137.2-130.5s-137.2 58.4-137.2 130.5l9.8 96.2c-4.7-4.3-9.7-6.3-14.2-5.3-11.7 2.8-16.6 24.5-10.9 48.6 5.8 23.9 20 41.3 31.6 38.6z"/><path class="st2" d="M1108.5 437.2c-.5-61.7-66.8-111.6-148.5-111.6s-148 49.9-148.5 111.6l23.4 141.6 6.9-139.9c30.2 13.5 72 21.9 118.2 21.9s87.9-8.4 118.2-21.9l6.9 139.9 23.4-141.6z"/><circle class="st2" cx="903.4" cy="557.2" r="22.2"/><ellipse class="st3" cx="915.7" cy="553.1" rx="6.3" ry="7.1"/><circle class="st2" cx="1016.5" cy="557.2" r="22.2"/><ellipse class="st3" cx="1028.8" cy="553.1" rx="6.3" ry="7.1"/><path class="st1" d="M1462.9 404.3c-5-1.2-10.3 1-15.4 5.7l10.6-104c0-77.9-66.4-141-148.3-141s-148.3 63.1-148.3 141l10.6 104c-5.1-4.7-10.4-6.9-15.4-5.7-12.6 3-17.9 26.5-11.8 52.6 6.1 26.1 21.3 44.8 33.9 41.9.8-.2 1.5-.4 2.3-.8l1.1 10.5c0 .1 10 10.3 10 10.4 3.9 36.7 14.7 59.9 46.8 80.6l24.5 15.8c10.8 7 23.6 10.7 36.7 10.7h19.2c13.1 0 25.9-3.7 36.7-10.7l24.5-15.8c32.2-20.7 43-44 46.8-80.7 0-.1 10-10.2 10-10.3l1.1-10.5c.7.3 1.5.6 2.3.8 12.6 3 27.8-15.8 33.9-41.9s.8-49.7-11.8-52.6z"/><path class="st2" d="M1470.4 281.7c-.6-66.8-72.3-120.7-160.6-120.7s-160 53.9-160.6 120.7l25.4 153.1 7.4-151.2c32.7 14.6 77.9 23.7 127.8 23.7 49.9 0 95.1-9.1 127.8-23.7l7.4 151.2 25.4-153.1zm-99.7 238.1-13.6-4.6c-13.2-4.5-27.1-6.8-41.1-6.8h-12.4c-14 0-27.8 2.3-41.1 6.8l-13.6 4.6c-15.5 5.2-32.3 4.4-47.2-2.4l-19.6-9 14.2 90.2c4.1 26.1 19.8 49 42.8 62.2 13.8 7.9 29.4 12.1 45.4 12.1h50.7c15.9 0 31.6-4.2 45.4-12.1 22.9-13.2 38.7-36.1 42.8-62.2l14.2-90.2-19.6 9c-14.9 6.8-31.8 7.7-47.3 2.4z"/><path class="st4" d="M1309.8 495.5c-8.8 0-16-7.2-16-16v-12c0-8.8 7.2-16 16-16s16 7.2 16 16v12c0 8.8-7.2 16-16 16zm37 48c0 8.8-7.2 16-16 16h-42c-8.8 0-16-7.2-16-16s7.2-16 16-16h42c8.8 0 16 7.2 16 16z"/><circle class="st2" cx="1248.7" cy="411.5" r="24"/><ellipse class="st3" cx="1262" cy="407" rx="6.8" ry="7.7"/><circle class="st2" cx="1370.9" cy="411.5" r="24"/><ellipse class="st3" cx="1384.2" cy="407" rx="6.8" ry="7.7"/><path class="st5" d="m1149.2 281.7 21 126.7c-4.5-3.5-9.1-5.1-13.5-4.1-12.6 3-17.9 26.5-11.8 52.6 6.1 26.1 21.3 44.8 33.9 41.9.8-.2 1.5-.4 2.2-.8l1.1 10.5 14.2 90.2c4.1 26.1 19.8 49 42.8 62.2 13.8 7.9 29.4 12.1 45.4 12.1h25.3V161c-88.3 0-160 53.9-160.6 120.7z"/><path class="st2" d="m792 673-12-64.3c-18.2-112.5-89.4-196.4-174.5-196.4S449.3 496.2 431 608.7L419 673h373z"/><path class="st1" d="m714.8 673 9-96.3c0-58.6-53-106.1-118.3-106.1s-118.3 47.5-118.3 106.1l9.1 96.3h218.5z"/><path class="st2" d="M771.2 569.3c-26.8-92.1-90.9-157-165.6-157-77.8 0-144.1 70.2-168.7 168.4 20 11.9 43.3 18.7 68.3 18.7 53.4 0 99.4-31.3 120.8-76.5 24.5 31.7 62.8 52.2 105.9 52.2 13.7 0 26.8-2 39.3-5.8z"/><circle class="st2" cx="555.9" cy="644.6" r="21.4"/><ellipse class="st3" cx="567.7" cy="640.6" rx="6.1" ry="6.9"/><circle class="st2" cx="655.2" cy="644.6" r="21.4"/><ellipse class="st3" cx="667" cy="640.6" rx="6.1" ry="6.9"/><path class="st4" d="M958.6 634.9h2.7c7.5 0 13.4-6 13.4-13.4v-13.8c0-7.4-6-13.4-13.4-13.4h-2.7c-7.4 0-13.4 6-13.4 13.4v13.8c0 7.4 6 13.4 13.4 13.4zm34.6 38.1c-2-5-6.8-8.5-12.5-8.5h-41.6c-5.6 0-10.5 3.5-12.5 8.5h66.6z"/><path class="st5" d="M818.4 550.6c-11.7 2.8-16.5 24.5-10.9 48.6s19.7 41.5 31.4 38.7c.7-.2 1.3-.4 2-.7l1 9.7c.9 8.9 2.9 17.6 5.9 26H960V325.6c-81.7 0-148 49.9-148.5 111.6l19.4 117.2c-4.1-3.3-8.4-4.7-12.5-3.8zM605.5 673V412.3c-1.3 0-2.5 0-3.8.1-.4 0-.8 0-1.3.1-.8 0-1.7.1-2.5.1-.5 0-1 .1-1.5.1-.7.1-1.5.1-2.3.2-.6.1-1.1.1-1.6.2l-2.2.2c-.6.1-1.1.2-1.6.2l-2.1.3c-.6.1-1.1.2-1.6.2l-2.1.3c-.6.1-1.1.2-1.6.3-.7.2-1.4.2-2.1.4-.6.1-1.1.2-1.6.3-.7.2-1.4.3-2.1.5-.5.2-1.1.2-1.5.4-.7.2-1.5.4-2.1.6-.5.2-1 .2-1.5.4-.8.2-1.5.5-2.3.6-.4.2-.9.2-1.3.4-1.2.4-2.3.7-3.5 1.1-.3.2-.7.2-1.1.4-.8.3-1.6.6-2.5.9l-1.5.6c-.6.2-1.4.5-2 .8-.6.2-1.1.5-1.6.6-.6.2-1.2.5-1.9.8l-1.7.7c-.6.2-1.2.6-1.8.8-.6.2-1.1.6-1.7.8-.6.2-1.1.6-1.7.8-.6.3-1.1.6-1.7.9-.6.3-1.1.6-1.6.9l-1.7 1c-.6.3-1.1.6-1.6.9-.6.3-1.1.6-1.8 1-.5.3-1.1.6-1.5.9-.6.3-1.2.7-1.8 1.1l-1.5.9c-.6.4-1.2.7-1.8 1.1-.4.2-.8.6-1.2.8-2.4 1.6-4.9 3.3-7.2 5.1-.3.2-.6.5-.9.6-.6.5-1.4 1.1-2 1.5-.4.3-.7.6-1.1.9-.6.5-1.3 1.1-1.9 1.5-.4.3-.7.6-1.1.9-.6.6-1.3 1.1-1.9 1.6-.4.3-.7.6-1.1 1l-1.9 1.7c-.3.3-.7.6-1.1 1-.6.6-1.3 1.1-1.9 1.8l-1 1c-.6.6-1.3 1.2-1.9 1.9l-.9.9-2 2-.7.7c-.7.7-1.4 1.5-2.1 2.2-.2.2-.2.3-.4.4-4.4 4.6-8.5 9.5-12.6 14.7l-.2.2c-.7 1-1.5 1.9-2.2 2.8-.2.2-.2.3-.4.5-.7.9-1.4 1.9-2 2.8-.2.2-.3.4-.4.6-.6 1-1.4 1.9-2 2.8-.2.2-.2.4-.4.6-.6 1-1.4 1.9-2 2.9-.1.2-.2.3-.3.6-.6 1.1-1.4 2-2 3.1-.1.1-.2.2-.2.3-6.8 10.5-13 21.8-18.4 33.8 0 0 0 .1-.1.1-.6 1.3-1.2 2.7-1.8 4 0 .1 0 .1-.1.2-.6 1.4-1.1 2.7-1.7 4-9.2 22-16.1 46.2-20.2 71.8L419 673h186.5z"/></svg>