<svg version="1.1" xmlns="http://www.w3.org/2000/svg" x="0" y="0" viewBox="0 0 309 442" xml:space="preserve"><path d="M32 .2v9.3h-1.1c-5.1.1-9.2 1.4-12.3 4-3.1 2.6-5 6.2-5.6 10.7 3-3.1 6.8-4.6 11.4-4.6 4.9 0 8.9 1.8 11.8 5.3 2.9 3.5 4.4 8.2 4.4 14 0 3.7-.8 7-2.4 10-1.6 3-3.9 5.3-6.8 7-2.9 1.7-6.2 2.5-9.9 2.5-6 0-10.8-2.1-14.5-6.3-3.8-4.1-5.6-9.6-5.6-16.6v-4.1c0-6.2 1.2-11.6 3.5-16.3 2.3-4.7 5.7-8.4 10-11C19.3 1.5 24.3.2 30.1.2H32zM21 28.7c-1.8 0-3.5.5-5 1.4s-2.6 2.2-3.3 3.8v3.4c0 3.8.7 6.7 2.2 8.8 1.5 2.1 3.6 3.2 6.3 3.2 2.4 0 4.4-1 5.9-2.9s2.2-4.4 2.2-7.4c0-3.1-.8-5.6-2.3-7.5-1.4-1.8-3.5-2.8-6-2.8zM85.9 7.1l-22 50.6H52L74 9.9H45.8V.8H86v6.3zm44.3 8.8c0 2.8-.7 5.2-2.1 7.3-1.4 2.1-3.3 3.8-5.7 5.1 2.8 1.3 4.9 3.2 6.6 5.5 1.6 2.3 2.4 5.1 2.4 8.2 0 5.1-1.7 9-5.2 12s-8.1 4.4-14 4.4-10.6-1.5-14.1-4.4c-3.5-2.9-5.2-6.9-5.2-12 0-3.2.8-5.9 2.4-8.2 1.6-2.3 3.8-4.2 6.5-5.5-2.4-1.3-4.3-3-5.7-5.1-1.4-2.1-2.1-4.6-2.1-7.3 0-4.8 1.6-8.7 4.8-11.6C102 1.4 106.4 0 112 0c5.5 0 9.9 1.4 13.1 4.3s5.1 6.7 5.1 11.6zm-10.1 25.4c0-2.5-.7-4.5-2.1-5.9-1.4-1.5-3.4-2.2-5.8-2.2s-4.3.7-5.7 2.2c-1.4 1.5-2.1 3.5-2.1 6 0 2.4.7 4.4 2.1 5.9s3.4 2.2 5.9 2.2c2.4 0 4.4-.7 5.8-2.1 1.2-1.6 1.9-3.6 1.9-6.1zm-1.2-24.9c0-2.2-.6-4-1.8-5.3-1.2-1.3-2.8-2-5-2-2.1 0-3.8.7-4.9 2-1.2 1.3-1.8 3.1-1.8 5.4 0 2.3.6 4.1 1.8 5.5 1.2 1.4 2.8 2.1 5 2.1 2.1 0 3.8-.7 4.9-2.1 1.3-1.5 1.8-3.3 1.8-5.6zm31.6 7.8h6c2.9 0 5-.7 6.4-2.1 1.4-1.4 2.1-3.3 2.1-5.7 0-2.3-.7-4.1-2.1-5.4-1.4-1.3-3.2-1.9-5.6-1.9-2.2 0-4 .6-5.4 1.8-1.5 1.2-2.2 2.7-2.2 4.6h-11.3c0-3 .8-5.6 2.4-8 1.6-2.4 3.8-4.2 6.7-5.5 2.9-1.3 6-2 9.5-2 6 0 10.7 1.4 14.1 4.3 3.4 2.9 5.1 6.8 5.1 11.9 0 2.6-.8 5-2.4 7.2-1.6 2.2-3.7 3.9-6.3 5 3.2 1.1 5.6 2.9 7.2 5.2 1.6 2.3 2.4 5 2.4 8.1 0 5.1-1.8 9.1-5.5 12.1s-8.6 4.6-14.6 4.6c-5.7 0-10.3-1.5-13.9-4.5-3.6-3-5.4-7-5.4-11.9H149c0 2.1.8 3.9 2.4 5.2 1.6 1.4 3.6 2 5.9 2 2.7 0 4.8-.7 6.3-2.1 1.5-1.4 2.3-3.3 2.3-5.6 0-5.7-3.1-8.5-9.4-8.5h-6v-8.8zm90.8 4.3h-34.9v-9.2h34.9v9.2zm0 16.9h-34.9v-9.2h34.9v9.2zm40.8-21.2h6c2.9 0 5-.7 6.4-2.1 1.4-1.4 2.1-3.3 2.1-5.7 0-2.3-.7-4.1-2.1-5.4-1.4-1.3-3.2-1.9-5.6-1.9-2.2 0-4 .6-5.4 1.8-1.5 1.2-2.2 2.7-2.2 4.6H270c0-3 .8-5.6 2.4-8 1.6-2.4 3.8-4.2 6.7-5.5 2.9-1.3 6-2 9.5-2 6 0 10.7 1.4 14.1 4.3 3.4 2.9 5.1 6.8 5.1 11.9 0 2.6-.8 5-2.4 7.2-1.6 2.2-3.7 3.9-6.3 5 3.2 1.1 5.6 2.9 7.2 5.2 1.6 2.3 2.4 5 2.4 8.1 0 5.1-1.8 9.1-5.5 12.1s-8.6 4.6-14.6 4.6c-5.7 0-10.3-1.5-13.9-4.5-3.6-3-5.4-7-5.4-11.9h11.3c0 2.1.8 3.9 2.4 5.2 1.6 1.4 3.6 2 5.9 2 2.7 0 4.8-.7 6.3-2.1 1.5-1.4 2.3-3.3 2.3-5.6 0-5.7-3.1-8.5-9.4-8.5h-6v-8.8zM40.4 153.7h-39V146l18.4-19.6c2.5-2.8 4.4-5.2 5.6-7.2 1.2-2.1 1.8-4 1.8-5.9 0-2.5-.6-4.5-1.9-6-1.3-1.4-3.1-2.2-5.5-2.2-2.6 0-4.6.9-6 2.6-1.5 1.8-2.2 4.1-2.2 6.9H.2c0-3.5.8-6.6 2.5-9.5 1.7-2.9 4-5.1 7-6.7 3-1.6 6.4-2.4 10.3-2.4 5.9 0 10.4 1.4 13.7 4.2s4.9 6.8 4.9 11.9c0 2.8-.7 5.7-2.2 8.6-1.5 2.9-4 6.3-7.5 10.2L16 144.5h24.5v9.2zm18.4-33.5h6c2.9 0 5-.7 6.4-2.1 1.4-1.4 2.1-3.3 2.1-5.7 0-2.3-.7-4.1-2.1-5.4-1.4-1.3-3.2-1.9-5.6-1.9-2.2 0-4 .6-5.4 1.8-1.5 1.2-2.2 2.7-2.2 4.6H46.6c0-3 .8-5.6 2.4-8 1.6-2.4 3.8-4.2 6.7-5.5 2.9-1.3 6-2 9.5-2 6 0 10.7 1.4 14.1 4.3 3.4 2.9 5.1 6.8 5.1 11.9 0 2.6-.8 5-2.4 7.2-1.6 2.2-3.7 3.9-6.3 5 3.2 1.1 5.6 2.9 7.2 5.2 1.6 2.3 2.4 5 2.4 8.1 0 5.1-1.8 9.1-5.5 12.1s-8.6 4.6-14.6 4.6c-5.7 0-10.3-1.5-13.9-4.5-3.6-3-5.4-7-5.4-11.9h11.3c0 2.1.8 3.9 2.4 5.2 1.6 1.4 3.6 2 5.9 2 2.7 0 4.8-.7 6.3-2.1 1.5-1.4 2.3-3.3 2.3-5.6 0-5.7-3.1-8.5-9.4-8.5h-6v-8.8zm36 5.5l3.3-28.9H130v9.4h-22.6l-1.4 12.2c2.7-1.4 5.5-2.1 8.6-2.1 5.4 0 9.7 1.7 12.7 5 3.1 3.4 4.6 8.1 4.6 14.1 0 3.7-.8 7-2.3 9.9-1.5 2.9-3.8 5.2-6.7 6.8s-6.3 2.4-10.2 2.4c-3.4 0-6.6-.7-9.6-2.1-2.9-1.4-5.3-3.4-7-5.9-1.7-2.5-2.6-5.4-2.7-8.6h11.2c.2 2.4 1.1 4.2 2.5 5.5 1.4 1.3 3.3 2 5.6 2 2.6 0 4.5-.9 5.9-2.8 1.4-1.8 2.1-4.4 2.1-7.8 0-3.2-.8-5.7-2.4-7.4-1.6-1.7-3.8-2.6-6.8-2.6-2.7 0-4.9.7-6.5 2.1l-1.1 1-9.1-2.2zm82.5 4.4c0 7.9-1.6 13.9-4.9 18-3.3 4.2-8 6.3-14.3 6.3-6.2 0-10.9-2-14.2-6.1-3.3-4.1-5-9.9-5-17.6v-10.5c0-7.9 1.6-14 4.9-18.1 3.3-4.1 8-6.2 14.2-6.2 6.2 0 10.9 2 14.2 6.1 3.3 4.1 5 9.9 5 17.6v10.5zm-11.2-11.5c0-4.7-.6-8.2-1.9-10.3-1.3-2.2-3.3-3.2-6-3.2s-4.6 1-5.9 3.1c-1.3 2-1.9 5.2-2 9.6v13.8c0 4.6.6 8.1 1.9 10.3 1.3 2.3 3.3 3.4 6.1 3.4s4.8-1.1 6-3.2c1.2-2.2 1.9-5.5 1.9-9.9v-13.6zm75.2 5.9h-34.9v-9.2h34.9v9.2zm0 16.9h-34.9v-9.2h34.9v9.2zm56.7 12.3h-11.3v-43.5l-13.5 4.2v-9.2l23.6-8.4h1.2v56.9zM12.9 216.2h6c2.9 0 5-.7 6.4-2.1 1.4-1.4 2.1-3.3 2.1-5.7 0-2.3-.7-4.1-2.1-5.4-1.4-1.3-3.2-1.9-5.6-1.9-2.2 0-4 .6-5.4 1.8-1.5 1.2-2.2 2.7-2.2 4.6H.7c0-3 .8-5.6 2.4-8 1.6-2.4 3.8-4.2 6.7-5.5 2.9-1.3 6-2 9.5-2 6 0 10.7 1.4 14.1 4.3 3.4 2.9 5.1 6.8 5.1 11.9 0 2.6-.8 5-2.4 7.2-1.6 2.2-3.7 3.9-6.3 5 3.2 1.1 5.6 2.9 7.2 5.2 1.6 2.3 2.4 5 2.4 8.1 0 5.1-1.8 9.1-5.5 12.1s-8.6 4.6-14.6 4.6c-5.7 0-10.3-1.5-13.9-4.5-3.6-3-5.4-7-5.4-11.9h11.3c0 2.1.8 3.9 2.4 5.2 1.6 1.4 3.6 2 5.9 2 2.7 0 4.8-.7 6.3-2.1 1.5-1.4 2.3-3.3 2.3-5.6 0-5.7-3.1-8.5-9.4-8.5h-6v-8.8zm45.9 0h6c2.9 0 5-.7 6.4-2.1 1.4-1.4 2.1-3.3 2.1-5.7 0-2.3-.7-4.1-2.1-5.4-1.4-1.3-3.2-1.9-5.6-1.9-2.2 0-4 .6-5.4 1.8-1.5 1.2-2.2 2.7-2.2 4.6H46.6c0-3 .8-5.6 2.4-8 1.6-2.4 3.8-4.2 6.7-5.5 2.9-1.3 6-2 9.5-2 6 0 10.7 1.4 14.1 4.3 3.4 2.9 5.1 6.8 5.1 11.9 0 2.6-.8 5-2.4 7.2-1.6 2.2-3.7 3.9-6.3 5 3.2 1.1 5.6 2.9 7.2 5.2 1.6 2.3 2.4 5 2.4 8.1 0 5.1-1.8 9.1-5.5 12.1s-8.6 4.6-14.6 4.6c-5.7 0-10.3-1.5-13.9-4.5-3.6-3-5.4-7-5.4-11.9h11.3c0 2.1.8 3.9 2.4 5.2 1.6 1.4 3.6 2 5.9 2 2.7 0 4.8-.7 6.3-2.1 1.5-1.4 2.3-3.3 2.3-5.6 0-5.7-3.1-8.5-9.4-8.5h-6v-8.8zm73-17.1l-22 50.6H97.9l22-47.8H91.7v-9.1h40.2v6.3zm46.2 50.6h-39V242l18.4-19.6c2.5-2.8 4.4-5.2 5.6-7.2 1.2-2.1 1.8-4 1.8-5.9 0-2.5-.6-4.5-1.9-6-1.3-1.4-3.1-2.2-5.5-2.2-2.6 0-4.6.9-6 2.6-1.5 1.8-2.2 4.1-2.2 6.9h-11.3c0-3.5.8-6.6 2.5-9.5 1.7-2.9 4-5.1 7-6.7 3-1.6 6.4-2.4 10.3-2.4 5.9 0 10.4 1.4 13.7 4.2s4.9 6.8 4.9 11.9c0 2.8-.7 5.7-2.2 8.6-1.5 2.9-4 6.3-7.5 10.2l-12.9 13.6H178v9.2zm63.3-29.2h-34.9v-9.2h34.9v9.2zm0 16.9h-34.9v-9.2h34.9v9.2zm67.6-11.3c0 7.9-1.6 13.9-4.9 18-3.3 4.2-8 6.2-14.3 6.2-6.2 0-10.9-2-14.2-6.1-3.3-4.1-5-9.9-5-17.6v-10.5c0-7.9 1.6-14 4.9-18.1 3.3-4.1 8-6.2 14.2-6.2 6.2 0 10.9 2 14.2 6.1 3.3 4.1 5 9.9 5 17.6v10.6zm-11.3-11.5c0-4.7-.6-8.2-1.9-10.3-1.3-2.2-3.3-3.2-6-3.2s-4.6 1-5.9 3.1c-1.3 2-1.9 5.2-2 9.6v13.8c0 4.6.6 8.1 1.9 10.3 1.3 2.3 3.3 3.4 6.1 3.4s4.8-1.1 6-3.2c1.2-2.2 1.9-5.5 1.9-9.9v-13.6zM27.8 322.9c-2.9 2.9-6.4 4.3-10.3 4.3-5 0-9-1.7-12.1-5.2-3-3.4-4.5-8.1-4.5-14 0-3.7.8-7.1 2.4-10.3 1.6-3.1 3.9-5.5 6.8-7.3 2.9-1.7 6.2-2.6 9.8-2.6 3.8 0 7.1.9 10 2.8 2.9 1.9 5.2 4.6 6.8 8.1 1.6 3.5 2.4 7.5 2.5 12.1v4.2c0 9.5-2.4 16.9-7.1 22.3-4.7 5.4-11.4 8.3-20 8.7H9.3v-9.4h2.5c9.9-.3 15.2-4.9 16-13.7zm-7.6-4.3c1.8 0 3.4-.5 4.7-1.4 1.3-.9 2.3-2.1 3-3.4v-4.6c0-3.8-.7-6.8-2.2-8.9-1.5-2.1-3.4-3.2-5.9-3.2-2.3 0-4.1 1-5.6 3.1S12 304.9 12 308c0 3.1.7 5.6 2.1 7.6 1.6 2 3.6 3 6.1 3zm65.3 3.5c0 7.9-1.6 13.9-4.9 18-3.3 4.2-8 6.3-14.3 6.3-6.2 0-10.9-2-14.2-6.1-3.3-4.1-5-9.9-5-17.6v-10.5c0-7.9 1.6-14 4.9-18.1 3.3-4.1 8-6.2 14.2-6.2 6.2 0 10.9 2 14.2 6.1 3.3 4.1 5 9.9 5 17.6v10.5zm-11.2-11.5c0-4.7-.6-8.2-1.9-10.3s-3.3-3.2-6-3.2-4.6 1-5.9 3.1c-1.3 2-1.9 5.2-2 9.6v13.8c0 4.6.6 8.1 1.9 10.3 1.3 2.3 3.3 3.4 6.1 3.4s4.8-1.1 6-3.2c1.2-2.2 1.9-5.5 1.9-9.9v-13.6zm49.5-22.4v9.3h-1.1c-5.1.1-9.2 1.4-12.3 4-3.1 2.6-5 6.2-5.6 10.7 3-3.1 6.8-4.6 11.4-4.6 4.9 0 8.9 1.8 11.8 5.3 2.9 3.5 4.4 8.2 4.4 14 0 3.7-.8 7-2.4 10-1.6 3-3.9 5.3-6.8 7-2.9 1.7-6.2 2.5-9.9 2.5-6 0-10.8-2.1-14.5-6.3-3.7-4.2-5.5-9.7-5.5-16.7v-4.1c0-6.2 1.2-11.6 3.5-16.3 2.3-4.7 5.7-8.4 10-11 4.4-2.6 9.4-3.9 15.2-3.9h1.8zm-11 28.5c-1.8 0-3.5.5-5 1.4s-2.6 2.2-3.3 3.8v3.4c0 3.8.7 6.7 2.2 8.8 1.5 2.1 3.6 3.2 6.3 3.2 2.4 0 4.4-1 5.9-2.9s2.2-4.4 2.2-7.4c0-3.1-.8-5.6-2.3-7.5-1.4-1.8-3.5-2.8-6-2.8zm63.3-12.8c0 2.8-.7 5.2-2.1 7.3-1.4 2.1-3.3 3.8-5.7 5.1 2.8 1.3 4.9 3.2 6.6 5.5 1.6 2.3 2.4 5.1 2.4 8.2 0 5.1-1.7 9-5.2 12s-8.1 4.4-14 4.4-10.6-1.5-14.1-4.4c-3.5-2.9-5.2-6.9-5.2-12 0-3.2.8-5.9 2.4-8.2 1.6-2.3 3.8-4.2 6.5-5.5-2.4-1.3-4.3-3-5.7-5.1-1.4-2.1-2.1-4.6-2.1-7.3 0-4.8 1.6-8.7 4.8-11.6 3.2-2.9 7.6-4.3 13.2-4.3 5.5 0 9.9 1.4 13.1 4.3s5.1 6.7 5.1 11.6zM166 329.3c0-2.5-.7-4.5-2.1-5.9-1.4-1.5-3.4-2.2-5.8-2.2s-4.3.7-5.7 2.2c-1.4 1.5-2.1 3.5-2.1 6 0 2.4.7 4.4 2.1 5.9s3.4 2.2 5.9 2.2c2.4 0 4.4-.7 5.8-2.1 1.2-1.6 1.9-3.6 1.9-6.1zm-1.2-24.9c0-2.2-.6-4-1.8-5.3-1.2-1.3-2.8-2-5-2-2.1 0-3.8.7-4.9 2-1.2 1.3-1.8 3.1-1.8 5.4 0 2.3.6 4.1 1.8 5.5 1.2 1.4 2.8 2.1 5 2.1 2.1 0 3.8-.7 4.9-2.1 1.3-1.5 1.8-3.3 1.8-5.6zm76.5 12.1h-34.9v-9.2h34.9v9.2zm0 16.9h-34.9v-9.2h34.9v9.2zm31-15.7l3.3-28.9h31.9v9.4h-22.6l-1.4 12.2c2.7-1.4 5.5-2.1 8.6-2.1 5.4 0 9.7 1.7 12.7 5 3.1 3.4 4.6 8.1 4.6 14.1 0 3.7-.8 7-2.3 9.9-1.5 2.9-3.8 5.2-6.7 6.8s-6.3 2.4-10.2 2.4c-3.4 0-6.6-.7-9.6-2.1-2.9-1.4-5.3-3.4-7-5.9-1.7-2.5-2.6-5.4-2.7-8.6H282c.2 2.4 1.1 4.2 2.5 5.5 1.4 1.3 3.3 2 5.6 2 2.6 0 4.5-.9 5.9-2.8 1.4-1.8 2.1-4.4 2.1-7.8 0-3.2-.8-5.7-2.4-7.4-1.6-1.7-3.8-2.6-6.8-2.6-2.7 0-4.9.7-6.5 2.1l-1.1 1-9-2.2zM38.4 399.9c0 2.8-.7 5.2-2.1 7.3-1.4 2.1-3.3 3.8-5.7 5.1 2.8 1.3 4.9 3.2 6.6 5.5 1.6 2.3 2.4 5.1 2.4 8.2 0 5.1-1.7 9-5.2 12s-8.1 4.4-14 4.4-10.6-1.5-14.1-4.4c-3.5-2.9-5.2-6.9-5.2-12 0-3.2.8-5.9 2.4-8.2 1.6-2.3 3.8-4.2 6.5-5.5-2.4-1.3-4.3-3-5.7-5.1-1.4-2.1-2.1-4.6-2.1-7.3 0-4.8 1.6-8.7 4.8-11.6 3.2-2.9 7.6-4.3 13.2-4.3 5.5 0 9.9 1.4 13.1 4.3s5.1 6.7 5.1 11.6zm-10.1 25.4c0-2.5-.7-4.5-2.1-5.9-1.4-1.5-3.4-2.2-5.8-2.2s-4.3.7-5.7 2.2c-1.4 1.5-2.1 3.5-2.1 6 0 2.4.7 4.4 2.1 5.9s3.4 2.2 5.9 2.2c2.4 0 4.4-.7 5.8-2.1 1.2-1.6 1.9-3.6 1.9-6.1zm-1.2-24.9c0-2.2-.6-4-1.8-5.3-1.2-1.3-2.8-2-5-2-2.1 0-3.8.7-4.9 2-1.2 1.3-1.8 3.1-1.8 5.4 0 2.3.6 4.1 1.8 5.5 1.2 1.4 2.8 2.1 5 2.1 2.1 0 3.8-.7 4.9-2.1 1.3-1.5 1.8-3.3 1.8-5.6zm58.8-9.3l-22 50.6H52l22-47.8H45.8v-9.1H86v6.3zm46.2 50.6h-39V434l18.4-19.6c2.5-2.8 4.4-5.2 5.6-7.2 1.2-2.1 1.8-4 1.8-5.9 0-2.5-.6-4.5-1.9-6-1.3-1.4-3.1-2.2-5.5-2.2-2.6 0-4.6.9-6 2.6-1.5 1.8-2.2 4.1-2.2 6.9H92c0-3.5.8-6.6 2.5-9.5 1.7-2.9 4-5.1 7-6.7 3-1.6 6.4-2.4 10.3-2.4 5.9 0 10.4 1.4 13.7 4.2s4.9 6.8 4.9 11.9c0 2.8-.7 5.7-2.2 8.6-1.5 2.9-4 6.3-7.5 10.2l-12.9 13.6h24.5v9.2zm45.2-23.6c0 7.9-1.6 13.9-4.9 18-3.3 4.2-8 6.3-14.3 6.3-6.2 0-10.9-2-14.2-6.1-3.3-4.1-5-9.9-5-17.6v-10.5c0-7.9 1.6-14 4.9-18.1 3.3-4.1 8-6.2 14.2-6.2 6.2 0 10.9 2 14.2 6.1 3.3 4.1 5 9.9 5 17.6v10.5zm-11.2-11.5c0-4.7-.6-8.2-1.9-10.3s-3.3-3.2-6-3.2-4.6 1-5.9 3.1c-1.3 2-1.9 5.2-2 9.6v13.8c0 4.6.6 8.1 1.9 10.3 1.3 2.3 3.3 3.4 6.1 3.4s4.8-1.1 6-3.2c1.2-2.2 1.9-5.5 1.9-9.9v-13.6zm75.2 5.9h-34.9v-9.2h34.9v9.2zm0 16.9h-34.9v-9.2h34.9v9.2zm40.8-21.2h6c2.9 0 5-.7 6.4-2.1 1.4-1.4 2.1-3.3 2.1-5.7 0-2.3-.7-4.1-2.1-5.4-1.4-1.3-3.2-1.9-5.6-1.9-2.2 0-4 .6-5.4 1.8-1.5 1.2-2.2 2.7-2.2 4.6H270c0-3 .8-5.6 2.4-8 1.6-2.4 3.8-4.2 6.7-5.5 2.9-1.3 6-2 9.5-2 6 0 10.7 1.4 14.1 4.3 3.4 2.9 5.1 6.8 5.1 11.9 0 2.6-.8 5-2.4 7.2-1.6 2.2-3.7 3.9-6.3 5 3.2 1.1 5.6 2.9 7.2 5.2 1.6 2.3 2.4 5 2.4 8.1 0 5.1-1.8 9.1-5.5 12.1s-8.6 4.6-14.6 4.6c-5.7 0-10.3-1.5-13.9-4.5-3.6-3-5.4-7-5.4-11.9h11.3c0 2.1.8 3.9 2.4 5.2 1.6 1.4 3.6 2 5.9 2 2.7 0 4.8-.7 6.3-2.1 1.5-1.4 2.3-3.3 2.3-5.6 0-5.7-3.1-8.5-9.4-8.5h-6v-8.8z" fill="#36434f"/><path d="M20.4 392.6c-2.2 0-4 .7-5.3 2.1-1.3 1.4-1.9 3.3-1.9 5.7 0 2.4.6 4.3 1.9 5.8 1.3 1.5 3.1 2.2 5.3 2.2 2.3 0 4.1-.8 5.3-2.2 1.2-1.5 1.9-3.4 1.9-5.8 0-2.3-.6-4.2-1.9-5.7-1.2-1.4-3-2.1-5.3-2.1zm91.9-368.1c2.3 0 4.1-.8 5.3-2.2 1.2-1.5 1.9-3.4 1.9-5.8 0-2.3-.6-4.2-1.9-5.7-1.3-1.4-3.1-2.2-5.3-2.2-2.2 0-4 .7-5.3 2.1-1.3 1.4-1.9 3.3-1.9 5.7 0 2.4.6 4.3 1.9 5.8 1.2 1.5 3 2.3 5.3 2.3zm45.9 288c2.3 0 4.1-.8 5.3-2.2 1.2-1.5 1.9-3.4 1.9-5.8 0-2.3-.6-4.2-1.9-5.7-1.3-1.4-3.1-2.2-5.3-2.2-2.2 0-4 .7-5.3 2.1-1.3 1.4-1.9 3.3-1.9 5.7 0 2.4.6 4.3 1.9 5.8 1.2 1.5 3 2.3 5.3 2.3zM20.4 416.6c-2.5 0-4.6.8-6.1 2.4-1.5 1.6-2.3 3.7-2.3 6.3 0 2.5.8 4.6 2.2 6.2 1.5 1.6 3.6 2.4 6.2 2.4s4.6-.8 6.1-2.3c1.5-1.5 2.2-3.6 2.2-6.3 0-2.6-.8-4.7-2.3-6.3-1.4-1.6-3.5-2.4-6-2.4zm131.5-81.1c1.5 1.6 3.6 2.4 6.2 2.4s4.6-.8 6.1-2.3c1.5-1.5 2.2-3.6 2.2-6.3 0-2.6-.8-4.7-2.3-6.3-1.5-1.6-3.6-2.4-6.1-2.4-2.5 0-4.6.8-6.1 2.4-1.5 1.6-2.3 3.7-2.3 6.3.1 2.5.9 4.6 2.3 6.2zM28.4 313.9v-4.8c0-3.9-.8-7-2.3-9.2-1.6-2.2-3.7-3.4-6.3-3.4-2.4 0-4.4 1.1-6 3.3-1.5 2.1-2.3 4.9-2.3 8.1 0 3.2.7 5.9 2.2 7.9 1.5 2.1 3.7 3.2 6.4 3.2 1.9 0 3.6-.5 5-1.5s2.4-2.2 3.1-3.6h.2zm129.7 78.7c-2.8 0-5 1.1-6.3 3.3-1.3 2.1-2 5.4-2.1 9.9v13.8c0 4.7.7 8.3 2 10.6 1.4 2.4 3.5 3.6 6.5 3.6 2.9 0 5.1-1.2 6.4-3.5 1.3-2.2 1.9-5.6 2-10.2v-13.5c0-4.8-.7-8.3-2-10.6-1.4-2.2-3.6-3.4-6.5-3.4zm6.4-284.5c-1.4-2.3-3.6-3.5-6.5-3.5-2.8 0-5 1.1-6.3 3.3-1.3 2.1-2 5.4-2.1 9.9v13.8c0 4.7.7 8.3 2 10.6 1.4 2.4 3.5 3.6 6.5 3.6 2.9 0 5.1-1.2 6.4-3.5 1.3-2.2 1.9-5.6 2-10.2v-13.5c.1-4.8-.6-8.3-2-10.5zM21 28.2c-1.9 0-3.7.5-5.2 1.5-1.6 1-2.7 2.3-3.5 4v3.6c0 3.9.8 6.9 2.3 9.1 1.6 2.3 3.8 3.4 6.7 3.4 2.6 0 4.7-1 6.3-3.1 1.6-2 2.4-4.6 2.4-7.7 0-3.2-.8-5.8-2.4-7.8-1.7-2-3.9-3-6.6-3zm91.8 288c-1.9 0-3.7.5-5.2 1.5-1.6 1-2.7 2.3-3.5 4v3.6c0 3.9.8 6.9 2.3 9.1 1.6 2.3 3.8 3.4 6.7 3.4 2.6 0 4.7-1 6.3-3.1 1.6-2 2.4-4.6 2.4-7.7 0-3.2-.8-5.8-2.4-7.8-1.7-2-3.9-3-6.6-3zm-46.5-19.6c-2.8 0-5 1.1-6.3 3.3-1.3 2.1-2 5.4-2.1 9.9v13.8c0 4.7.7 8.3 2 10.6 1.4 2.4 3.5 3.6 6.5 3.6 2.9 0 5.1-1.2 6.4-3.5 1.3-2.2 1.9-5.6 2-10.2v-13.5c0-4.8-.7-8.3-2-10.6-1.4-2.2-3.6-3.4-6.5-3.4zm46-246.8c2.6 0 4.6-.8 6.1-2.3 1.5-1.5 2.2-3.6 2.2-6.3 0-2.6-.8-4.7-2.3-6.3-1.5-1.6-3.6-2.4-6.1-2.4-2.5 0-4.6.8-6.1 2.4-1.5 1.6-2.3 3.7-2.3 6.3 0 2.5.8 4.6 2.2 6.2 1.5 1.6 3.6 2.4 6.3 2.4z" fill="#eec646"/></svg>