<svg xmlns="http://www.w3.org/2000/svg" viewBox="0 0 1920 673" xml:space="preserve"><style>.st1{fill:#36434f}.st2{fill:#2e86b7}.st3{fill:#cc584c}</style><path fill="#ddd" d="M0 0h1920v673H0z"/><path class="st1" d="M463.8 244.7h-14.9v-26.8H423v26.8h-14.9v-66.4H423V206h25.8v-27.7h14.9v66.4zm45.1 1.2c-9.4 0-17.1-3-23-8.9-5.9-6-8.8-13.9-8.8-23.8v-1.8c0-6.6 1.3-12.5 3.8-17.8 2.6-5.2 6.1-9.3 10.8-12.2 4.6-2.9 9.8-4.4 15.5-4.4 9 0 16 2.9 21 8.7 4.9 5.8 7.4 13.9 7.4 24.5v6h-43.4c.4 5.5 2.3 9.8 5.5 13 3.2 3.2 7.3 4.8 12.1 4.8 6.8 0 12.4-2.8 16.7-8.3l8 7.7c-2.7 4-6.2 7-10.6 9.2-4.5 2.2-9.5 3.3-15 3.3zm-1.8-56.8c-4.1 0-7.4 1.4-9.9 4.3s-4.1 6.9-4.8 12h28.4v-1.1c-.3-5-1.7-8.8-4-11.3-2.3-2.7-5.6-3.9-9.7-3.9z"/><path class="st2" d="M544.3 210.9c0-6.5 1.3-12.4 3.9-17.6 2.6-5.2 6.2-9.2 10.9-12 4.7-2.8 10-4.2 16.1-4.2 9 0 16.2 2.9 21.8 8.7 5.6 5.8 8.6 13.4 9.1 22.9l.1 3.5c0 6.5-1.3 12.4-3.8 17.5-2.5 5.2-6.1 9.1-10.8 12-4.7 2.8-10.1 4.2-16.2 4.2-9.4 0-16.9-3.1-22.5-9.4-5.6-6.2-8.4-14.6-8.4-24.9v-.7zm14.9 1.3c0 6.8 1.4 12.2 4.2 16s6.7 5.8 11.8 5.8c5 0 8.9-2 11.8-5.9 2.8-3.9 4.2-9.7 4.2-17.2 0-6.7-1.4-12-4.3-16s-6.8-5.9-11.8-5.9c-4.9 0-8.7 1.9-11.6 5.8-2.9 3.9-4.3 9.7-4.3 17.4z"/><path class="st1" d="M674.9 244.7H660v-54.4h-25.9v54.4h-14.9v-66.4h55.7v66.4z"/><path class="st2" d="M748.9 212.2c0 10.3-2.3 18.5-7 24.6-4.7 6.1-10.9 9.2-18.8 9.2-7.3 0-13.1-2.4-17.5-7.2v31.5h-14.9v-91.9h13.7l.6 6.7c4.4-5.3 10.3-8 17.9-8 8.1 0 14.5 3 19.1 9.1 4.6 6 6.9 14.4 6.9 25.1v.9zm-14.8-1.3c0-6.6-1.3-11.9-4-15.8-2.6-3.9-6.4-5.8-11.3-5.8-6.1 0-10.5 2.5-13.1 7.5v29.5c2.7 5.2 7.1 7.7 13.3 7.7 4.7 0 8.5-1.9 11.1-5.7 2.6-3.8 4-9.6 4-17.4z"/><path class="st1" d="M790.8 245.9c-9.4 0-17.1-3-23-8.9-5.9-6-8.8-13.9-8.8-23.8v-1.8c0-6.6 1.3-12.5 3.8-17.8 2.6-5.2 6.1-9.3 10.8-12.2 4.6-2.9 9.8-4.4 15.5-4.4 9 0 16 2.9 21 8.7 4.9 5.8 7.4 13.9 7.4 24.5v6H774c.4 5.5 2.3 9.8 5.5 13 3.2 3.2 7.3 4.8 12.1 4.8 6.8 0 12.4-2.8 16.7-8.3l8 7.7c-2.7 4-6.2 7-10.6 9.2-4.4 2.2-9.4 3.3-14.9 3.3zm-1.8-56.8c-4.1 0-7.4 1.4-9.9 4.3s-4.1 6.9-4.8 12h28.4v-1.1c-.3-5-1.7-8.8-4-11.3-2.3-2.7-5.6-3.9-9.7-3.9z"/><path class="st2" d="M829.2 232.8c4.1-4.6 6.9-9 8.3-13.2 1.4-4.2 2.3-9.5 2.5-15.9l.9-25.4H887v54.5h9.2v31.7h-14.8v-19.8h-42.6v19.8h-15.1l.1-31.7h5.4zm17.5 0h25.5v-41.7h-16.8l-.4 12.7c-.6 12.2-3.3 21.9-8.3 29z"/><path class="st1" d="M936.1 245.9c-9.4 0-17.1-3-23-8.9-5.9-6-8.8-13.9-8.8-23.8v-1.8c0-6.6 1.3-12.5 3.8-17.8 2.6-5.2 6.1-9.3 10.8-12.2 4.6-2.9 9.8-4.4 15.5-4.4 9 0 16 2.9 21 8.7 4.9 5.8 7.4 13.9 7.4 24.5v6h-43.4c.4 5.5 2.3 9.8 5.5 13 3.2 3.2 7.3 4.8 12.1 4.8 6.8 0 12.4-2.8 16.7-8.3l8 7.7c-2.7 4-6.2 7-10.6 9.2-4.5 2.2-9.4 3.3-15 3.3zm-1.8-56.8c-4.1 0-7.4 1.4-9.9 4.3s-4.1 6.9-4.8 12H948v-1.1c-.3-5-1.7-8.8-4-11.3-2.3-2.7-5.5-3.9-9.7-3.9zm96.4-10.8v66.4h-14.9v-54.4H997l-1.2 23.1c-.8 11.1-2.9 19.1-6.4 24-3.5 4.8-8.8 7.3-16 7.3h-4.6l-.1-12.4 3.1-.3c3.3-.4 5.7-2.4 7.1-6 1.5-3.5 2.4-10 2.9-19.4l1.2-28.3h47.7zm45.1 67.6c-9.4 0-17.1-3-23-8.9-5.9-6-8.8-13.9-8.8-23.8v-1.8c0-6.6 1.3-12.5 3.8-17.8 2.6-5.2 6.1-9.3 10.8-12.2 4.6-2.9 9.8-4.4 15.5-4.4 9 0 16 2.9 21 8.7 4.9 5.8 7.4 13.9 7.4 24.5v6h-43.4c.4 5.5 2.3 9.8 5.5 13 3.2 3.2 7.3 4.8 12.1 4.8 6.8 0 12.4-2.8 16.7-8.3l8 7.7c-2.7 4-6.2 7-10.6 9.2-4.5 2.2-9.4 3.3-15 3.3zm-1.7-56.8c-4.1 0-7.4 1.4-9.9 4.3s-4.1 6.9-4.8 12h28.4v-1.1c-.3-5-1.7-8.8-4-11.3-2.4-2.7-5.6-3.9-9.7-3.9zm96.2 55.6h-14.9v-26.8h-25.8v26.8h-14.9v-66.4h14.9V206h25.8v-27.7h14.9v66.4zm72.1 0h-14.9v-26.8h-25.8v26.8h-14.9v-66.4h14.9V206h25.8v-27.7h14.9v66.4z"/><path class="st3" d="M1255.4 210.9c0-6.5 1.3-12.4 3.9-17.6 2.6-5.2 6.2-9.2 10.9-12 4.7-2.8 10-4.2 16.1-4.2 9 0 16.2 2.9 21.8 8.7 5.6 5.8 8.6 13.4 9.1 22.9l.1 3.5c0 6.5-1.3 12.4-3.8 17.5s-6.1 9.1-10.8 12c-4.7 2.8-10.1 4.2-16.2 4.2-9.4 0-16.9-3.1-22.5-9.4-5.6-6.2-8.4-14.6-8.4-24.9v-.7zm15 1.3c0 6.8 1.4 12.2 4.2 16 2.8 3.9 6.7 5.8 11.8 5.8 5 0 8.9-2 11.8-5.9 2.8-3.9 4.2-9.7 4.2-17.2 0-6.7-1.4-12-4.3-16s-6.8-5.9-11.8-5.9c-4.9 0-8.7 1.9-11.6 5.8-2.9 3.9-4.3 9.7-4.3 17.4zm86.7 21.8c3.7 0 6.8-1.1 9.3-3.3 2.5-2.2 3.8-4.8 3.9-8h14.1c-.2 4.1-1.5 8-3.9 11.6-2.4 3.6-5.7 6.4-9.8 8.5-4.1 2.1-8.6 3.1-13.4 3.1-9.3 0-16.6-3-22.1-9-5.4-6-8.2-14.3-8.2-24.9v-1.5c0-10.1 2.7-18.2 8.1-24.3 5.4-6.1 12.8-9.1 22.1-9.1 7.9 0 14.3 2.3 19.3 6.9 5 4.6 7.6 10.6 7.8 18.1h-14.1c-.2-3.8-1.5-6.9-3.9-9.4s-5.5-3.7-9.3-3.7c-4.8 0-8.5 1.7-11.2 5.2-2.6 3.5-3.9 8.8-4 15.9v2.4c0 7.2 1.3 12.6 3.9 16.1 2.7 3.7 6.5 5.4 11.4 5.4z"/><path class="st1" d="M1447.8 190.2h-21.5v54.5h-14.9v-54.5h-21.3v-11.8h57.7v11.8z"/><path class="st3" d="M1473.8 199.4h14.6c5.4 0 10.2.9 14.2 2.8s7.1 4.5 9.2 7.9c2.1 3.4 3.2 7.3 3.2 11.8 0 6.8-2.4 12.3-7.2 16.4-4.8 4.1-11.2 6.2-19.3 6.3h-29.6v-66.4h14.9v21.2zm0 12v21.4h14.5c3.6 0 6.5-.9 8.6-2.7 2.1-1.8 3.2-4.4 3.2-7.8 0-3.4-1-6-3.1-7.9-2.1-1.9-4.9-2.9-8.4-3h-14.8zm-328.3 225.2c0-6.5 1.3-12.4 3.9-17.6 2.6-5.2 6.2-9.2 10.9-12 4.7-2.8 10-4.2 16.1-4.2 9 0 16.2 2.9 21.8 8.7 5.6 5.8 8.6 13.4 9.1 22.9l.1 3.5c0 6.5-1.3 12.4-3.8 17.5-2.5 5.2-6.1 9.1-10.8 12-4.7 2.8-10.1 4.2-16.2 4.2-9.4 0-16.9-3.1-22.5-9.4-5.6-6.2-8.4-14.6-8.4-24.9v-.7zm14.9 1.3c0 6.8 1.4 12.2 4.2 16 2.8 3.9 6.7 5.8 11.8 5.8 5 0 8.9-2 11.8-5.9 2.8-3.9 4.2-9.7 4.2-17.2 0-6.7-1.4-12-4.3-16-2.9-3.9-6.8-5.9-11.8-5.9-4.9 0-8.7 1.9-11.6 5.8-2.9 3.9-4.3 9.7-4.3 17.4zm86.7 21.8c3.7 0 6.8-1.1 9.3-3.3 2.5-2.2 3.8-4.8 3.9-8h14.1c-.2 4.1-1.5 8-3.9 11.6-2.4 3.6-5.7 6.4-9.8 8.5-4.1 2.1-8.6 3.1-13.4 3.1-9.3 0-16.6-3-22.1-9-5.4-6-8.2-14.3-8.2-24.9v-1.5c0-10.1 2.7-18.2 8.1-24.3s12.8-9.1 22.1-9.1c7.9 0 14.3 2.3 19.3 6.9 5 4.6 7.6 10.6 7.8 18.1h-14.1c-.2-3.8-1.5-6.9-3.9-9.4s-5.5-3.7-9.3-3.7c-4.8 0-8.5 1.7-11.2 5.2-2.6 3.5-3.9 8.8-4 15.9v2.4c0 7.2 1.3 12.6 3.9 16.1 2.7 3.6 6.5 5.4 11.4 5.4zm54.5-34.6h14.6c5.4 0 10.2.9 14.2 2.8s7.1 4.5 9.2 7.9c2.1 3.4 3.2 7.3 3.2 11.8 0 6.8-2.4 12.3-7.2 16.4-4.8 4.1-11.2 6.2-19.3 6.3h-29.6V404h14.9v21.1zm0 12v21.4h14.5c3.6 0 6.5-.9 8.6-2.7 2.1-1.8 3.2-4.4 3.2-7.8 0-3.4-1-6-3.1-7.9-2.1-1.9-4.9-2.9-8.4-3h-14.8z"/><path class="st2" d="M637.8 437.9c0 10.3-2.3 18.5-7 24.6-4.7 6.1-10.9 9.2-18.8 9.2-7.3 0-13.1-2.4-17.5-7.2V496h-14.9v-92h13.7l.6 6.7c4.4-5.3 10.3-8 17.9-8 8.1 0 14.5 3 19.1 9.1 4.6 6 6.9 14.4 6.9 25.1v1zm-14.8-1.3c0-6.6-1.3-11.9-4-15.8-2.6-3.9-6.4-5.8-11.3-5.8-6.1 0-10.5 2.5-13.1 7.5V452c2.7 5.2 7.1 7.7 13.3 7.7 4.7 0 8.5-1.9 11.1-5.7 2.6-3.9 4-9.7 4-17.4zm24.7 0c0-6.5 1.3-12.4 3.9-17.6 2.6-5.2 6.2-9.2 10.9-12 4.7-2.8 10-4.2 16.1-4.2 9 0 16.2 2.9 21.8 8.7 5.6 5.8 8.6 13.4 9.1 22.9l.1 3.5c0 6.5-1.3 12.4-3.8 17.5-2.5 5.2-6.1 9.1-10.8 12-4.7 2.8-10.1 4.2-16.2 4.2-9.4 0-16.9-3.1-22.5-9.4-5.6-6.2-8.4-14.6-8.4-24.9v-.7zm14.9 1.3c0 6.8 1.4 12.2 4.2 16s6.7 5.8 11.8 5.8c5 0 8.9-2 11.8-5.9 2.8-3.9 4.2-9.7 4.2-17.2 0-6.7-1.4-12-4.3-16-2.9-3.9-6.8-5.9-11.8-5.9-4.9 0-8.7 1.9-11.6 5.8-2.9 3.9-4.3 9.7-4.3 17.4zm55.2 20.6c4.1-4.6 6.9-9 8.3-13.2 1.4-4.2 2.3-9.5 2.5-15.9l.9-25.4h46.1v54.5h9.2v31.7H770v-19.8h-42.6v19.8h-15.1l.1-31.7h5.4zm17.5 0h25.5v-41.7H744l-.4 12.7c-.6 12.2-3.3 21.9-8.3 29z"/><path class="st1" d="m645 335.2 39.7-55.2-8.2-5.9-38.2 53.2h-.1l-20.4 28.6-4.9-15.9-10.1 45.4 39.7-24.2-16.6.5 19.1-26.5z"/><path class="st1" d="m687.1 383.7-11.4-45.1-4.4 16-19.8-25.9-58.6-77.5-8 6.1 57.1 75.5h-.1l21.4 27.9h-16.6zm106.1-55.4 27.6-51.6-8.9-4.7-26.4 49.3-16.5 31.1-7-15-3.8 46.3 36.1-29.3-16.4 2.7zm427.2 0 37.7-70.4-8.9-4.8-36.5 68.2-1.1 2.1v.1l-15.3 28.9-7-15-3.9 46.3 36.1-29.3-16.3 2.7zm75.4 0 37.7-70.4-8.9-4.8-36.5 68.2-1.1 2.1v.1l-15.3 28.9-7-15-3.9 46.3 36.1-29.3-16.3 2.7zm72.9 12.3 88.3-87.8-7.1-7.2-86.6 86.2v-.1l-24.7 25.1-2.4-16.4-16.9 43.3 42.9-17.7-16.4-2.1z"/></svg>