<svg version="1.1" xmlns="http://www.w3.org/2000/svg" x="0" y="0" viewBox="0 0 512 512" xml:space="preserve"><path d="M32.1 176.2c-1.7 3.9-3.4 7.9-4.9 11.9.3.1.6.2 1 .3 2.3.6 4.7 1.1 7.1 1.4 1.6-4.2 3.4-8.2 5.2-12.3-2.8-.2-5.6-.6-8.4-1.3zm100.2 294.1c-.3 1-.7 2-1.1 2.9-.6 1.6-1.4 3.1-2.2 4.6 3.7 2.2 7.4 4.2 11.1 6.2 1-1.9 2-3.9 2.8-5.9l.6-1.5c-3.7-2-7.5-4.1-11.2-6.3zM281.7 37.5c-.4 2.7-1 5.3-1.8 7.9 4.3.6 8.5 1.3 12.7 2.1.7-2.6 1.3-5.2 1.7-7.9-4.2-.9-8.4-1.6-12.6-2.1zM68.9 414.7c-30.8-39.1-49.2-88.3-49.2-141.8 0-13.6 1.2-26.9 3.5-39.9-1.2-.1-2.3-.3-3.5-.6-1.5-.4-3-1-4.3-1.7-2.5 13.8-3.7 27.9-3.7 42.2 0 51 16 99.6 45.6 139.9 3.9.3 7.7 1 11.6 1.9zm348.3-309.9c-23.6-23.6-51.3-41.6-81.5-53.4-1.6 2.5-3.7 4.7-6.2 6.3 87.1 32.6 149.3 116.7 149.3 215.1 0 126.6-103 229.6-229.6 229.6-22.3 0-43.8-3.2-64.2-9.2-1.3 2.7-3.1 5-5.2 6.9 22.2 6.8 45.5 10.3 69.4 10.3 63.5 0 123.1-24.7 168-69.6 44.9-44.9 69.6-104.5 69.6-168s-24.7-123.1-69.6-168zM175.2 47c-34.8 11.4-66.6 30.8-93.3 57.3-.3 4.7-1.1 9.3-2.1 13.9 27.3-29.9 62.5-52.6 102.1-64.8-.5-.3-1.1-.5-1.6-.8-2.4-1.2-4.2-3.2-5.1-5.6z" opacity=".5" fill="#444"/><path d="M49.7 218c.4-1.4.6-2.8.7-4.3l2-17.4c.4-3.7 1-7.3 1.8-10.9-7.9 1.8-16.5 1.7-25.2-.6-7.3-2-13.7-5.2-19.2-9.5v.2L1.1 204c-.1.3-.2.6-.3 1-3.6 13.5 4.4 27.4 17.9 30.9 13.6 3.5 27.5-4.4 31-17.9zM12 191.7l.8-2.4.3-.2 2.1 3.7 2.1-1.3 1.5-.8 2.1 3.7 2.1-1.3 1.5-.8 2.1 3.7 2.1-1.3 1.5-.8 2.1 3.7 2.1-1.3 1.5-.8 2.1 3.7 2.1-1.3 1.5-.8 2.1 3.7 1.6-.9-.2 2.1-1.9 1.1-2.1-3.6-3.6 2.1-2.1-3.6-3.6 2.1-2.1-3.6-3.6 2.1L24 195l-3.6 2.1-2.1-3.6-3.6 2.1-2.1-3.6-.6-.3zm-2.2 7l.8-2.4.7-.4 2.1 3.7 2.1-1.3 1.5-.8 2.1 3.7 2.1-1.3 1.5-.8 2.1 3.7 2.1-1.3 1.5-.8 2.1 3.7 2.1-1.3 1.5-.8 2.1 3.7 2.1-1.3 1.5-.8 2.1 3.7L44 206l.5-.3-.2 1.5h-.2l-.1.8-2.9 1.7-2.1-3.6-3.6 2.1-2.1-3.6-3.6 2.1-2.1-3.6-3.6 2.1-2.1-3.6-3.6 2.1-2.1-3.6-3.6 2.1-2.1-3.6-.7.1zm-2.1 7.1l.8-2.4 1-.6 2.1 3.7 2.1-1.3 1.5-.8 2.1 3.7 2.1-1.3 1.5-.8 2.1 3.7 2.1-1.3 1.5-.8 2.1 3.7 2.1-1.3 1.5-.8 2.1 3.7 2.1-1.3 1.5-.8 2.1 3.7 2.1-1.3 1.5-.8.1.2-.1 1.1c-.1.6-.1 1.2-.2 1.8l-.4-.7-3.6 2.1-2.1-3.6-3.6 2.1-2.1-3.6-3.6 2.1-2.1-3.6-3.6 2.1-2.1-3.6-3.6 2.1-2.1-3.6-3.6 2.1-2.1-3.6H7.7zm26.8 21.8l-.7-1.2-3.6 2.1-2.1-3.6-3.6 2.1-2.1-3.6-3.6 2.1-2.1-3.6-3.6 2.1-2.1-3.6-1.4.9c-.3-.5-.6-1-.8-1.5l1.4-.8 1.5-.8 2.1 3.7 2.1-1.3 1.5-.8 2.1 3.7 2.1-1.3 1.5-.8 2.1 3.7 2.1-1.3 1.5-.8 2.1 3.7 2.1-1.3 1.5-.8 1.5 2.7c-.5-.3-1 0-1.5.3zm6.6-6.5l-3.4 2-2.1-3.6-3.6 2.1-2.1-3.6-3.6 2.1-2.1-3.6-3.6 2.1-2.1-3.6-3.6 2.1-2.1-3.6-3.6 2.1L7 212l-.3.2v-2l.8-.5 2.1 3.7 2.1-1.3 1.5-.8 2.1 3.7 2.1-1.3 1.5-.8 2.1 3.7 2.1-1.3 1.5-.8 2.1 3.7 2.1-1.3 1.5-.8 2.1 3.7 2.1-1.3 1.5-.8 2.1 3.7 2.1-1.3 1.5-.8.2.5s-.4.7-.8 1.3zm-10.6-41.5c7.5 2 15.3 2.2 22.6.5l2.7-.6c1.5-5.1 3.3-10 5.5-14.8l.7-1.5c2.3-4.9 4.9-9.5 7.9-14 4.3-6.4 7.9-13.4 10.6-21 .8-2.2 1.5-4.5 2.1-6.8 3.3-12.3 3.8-24.7 2.1-36.5-.6-4-2.9-7.6-6.3-9.8-3.1-2-6.5-3.6-10.2-4.6-2.6-.7-5.2-1-7.7-1.1-3.6-.1-7.1 1.2-9.8 3.5-9.5 8-17.9 17.6-24.5 28.6-5.6 9.3-10.1 19.5-13 30.5-2.5 9.7-1.4 17.6-1.5 27.1 0 3.4-.3 6.9-.8 10.3l2.2 1.7c5.3 3.9 11.1 6.8 17.4 8.5zm3.6-9.1c-2-.5-3.2-2.6-2.6-4.6s2.6-3.2 4.6-2.6c2 .5 3.2 2.6 2.6 4.6-.6 2-2.6 3.1-4.6 2.6zM56 78.9c.3-.3.7-.6 1.1-.8l.5.9 2.1-1.3.7-.4c.4 0 .7 0 1.1.1l1.8 3.1 2.1-1.3 1.4-.9 2.1 3.6 2.1-1.3.7-.4c.6.3 1.1.6 1.6.9l1.3 2.2.8-.5c.3.5.6.9.8 1.5L74.1 86 72 82.3l-3.6 2.1-2.1-3.6-3.6 2.1-2.1-3.6-3.6 2.1-1.3-2.2.3-.3zm-5.9 5.4l2.2-1.2 1.5-.8 2.1 3.7 2.1-1.3 1.5-.8 2.1 3.7 2.1-1.3 1.5-.8 2.1 3.7 2.1-1.3 1.5-.8 2.1 3.7 2.1-1.3 1.5-.8.7 1.2c.1 1.3.3 2.6.3 3.9L76 91l-3.6 2.1-2.1-3.6-3.6 2.1-2.1-3.6-3.6 2.1-2.1-3.6-3.6 2.1-2.3-3.8-3.6 2.1-.7-1.2c.6-.5 1-1 1.4-1.4zm-3.6 3.8l1.8 3.2 2.1-1.3 1.5-.8 2.1 3.7 2.1-1.3 1.5-.8 2.1 3.7 2.1-1.3 1.5-.8 2.1 3.7 2.1-1.3L69 94l2.1 3.7 2.1-1.3 1.5-.8 2.1 3.7.9-.5v2l-1.4.9-2.1-3.6-3.6 2.1-2.1-3.6-3.6 2.1-2.1-3.6-3.8 1.7-2.1-3.6-3.6 2.1-2.1-3.6-3.6 2.1-2.1-3.6-1.7 1c.9-1.2 1.8-2.2 2.7-3.1zm-6.3 7.4l.6 1.1 2.1-1.3 1.5-.8 2.1 3.7 2.1-1.3L50 96l2.1 3.7 2.1-1.3 1.5-.8 2.1 3.7 2.1-1.3 1.5-.8 2.1 3.7 2.1-1.3 1.5-.8 2.1 3.7 2.1-1.3 1.5-.8 2.1 3.7 2.1-1.3.3-.2c-.1.7-.1 1.4-.2 2.1l-2.9 1.7-2.1-3.6-3.6 2.1-2.1-3.6-3.6 2.1-2.1-3.6-3.6 2.1-2.1-3.6-3.6 2.1-2.1-3.6-3.6 2.1-2-3.9-3.7 2.1-1-2.1 1.2-1.5zm-3.3 4.4l2 3.5 2.1-1.3 1.5-.8 2.1 3.7 2.1-1.3 1.5-.8 2.1 3.7 2.1-1.3 1.5-.8L56 108l2.1-1.3 1.5-.8 2.1 3.7 2.1-1.3 1.5-.8 2.1 3.7 2.1-1.3 1.5-.9 2.1 3.7 2.1-1.3 1.4-.8c-.1.8-.3 1.7-.4 2.6l-.1-.2-3.6 2.1-2.1-3.6-3.6 2.1-2.1-3.6-3.7 2-2.1-3.6-3.6 2.1-2.1-3.6-3.6 2.1-2.1-3.6-3.6 2.1-2.1-3.6-3.6 2.1-2.1-3.6-1.3.8c.8-1.3 1.4-2.3 2.1-3.3zm-5.5 8.8l2.2-1.2 1.5-.8 2.1 3.7 2.1-1.3 1.5-.8 2.1 3.7 2.1-1.3 1.5-.8 2.1 3.7 2.1-1.3 1.5-.8 2.1 3.7 2.1-1.3 1.5-.8 2.1 3.7 2.1-1.3 1.5-.8 2.1 3.7 2.1-1.3 1.5-.8 2.1 3.7 2.1-1.3 1.5-.8.3.5c-.1.5-.2 1-.4 1.5-.1.2-.1.6-.2.8l-.3-.5-3.6 2.1-2.1-3.6-3.6 2.1-2.1-3.6-3.6 2.1-2.1-3.6-3.6 2.1-2.1-3.6-3.6 2.1-2.1-3.6-3.6 2.1-2.1-3.6-3.6 2.1-2.1-3.6-3.6 2.1-.4-.6c.3-1.3.6-1.9.9-2.5zm-2.8 5.2l.9 1.6 2.2-1.3 1.5-.8 2.1 3.7 2.1-1.3 1.5-.8 2.1 3.7 2.1-1.3 1.5-.8 2.1 3.7 2.1-1.3 1.5-.8 2.1 3.7 2.1-1.3 1.5-.8 2.1 3.7 2.1-1.3 1.5-.8 2.1 3.7 2.1-1.3 1.5-.8 2.1 3.7 2.1-1.3 1.5-.8.2.3c-.1.4-.3.8-.4 1.1l-.4 1-.1-.1-3.6 2.1-2.1-3.6-3.6 2.1-2.1-3.6-3.6 2.1-2.1-3.6-3.6 2.1-2.1-3.6L46 123l-2.1-3.6-3.6 2.1-2.1-3.6-3.6 2.1-2.1-3.6-3.6 2.1-1.2-2.1c.4-1.2.6-1.9.9-2.5zm-2.5 5.6l1.7 2.9 2.1-1.3 1.5-.8 2.1 3.7 2.1-1.3 1.5-.8 2.1 3.7 2.1-1.3 1.5-.8 2.1 3.7 2.1-1.3 1.5-.8 2.1 3.7 2.1-1.3 1.5-.8 2.1 3.7 2.1-1.3 1.5-.8L62 132l2.1-1.3 1.5-.8 2.1 3.7 2.1-1.3.8-.5-1.2 2.7-2.3 1.4-2-3.8-3.6 2.1-2.1-3.6-3.6 2.1-2.1-3.6-3.6 2.1-2.1-3.6-3.6 2.1-2.1-3.6-3.6 2.1-2.1-3.6-3.6 2.1-2.1-3.6-3.6 2.1-1.9-3.2c.1-1.2.4-1.8.7-2.5zm-3.2 8.7c.3-.8.6-1.7.8-2.5l.1-.1 2.1 3.7L28 128l1.5-.8 2.1 3.7 2.1-1.3 1.5-.8 2.1 3.7 2.1-1.3 1.5-.8 2.1 3.7 2.1-1.3 1.5-.8 2.1 3.7 2.1-1.3 1.5-.8 2.1 3.7 2.1-1.3 1.5-.8 2.1 3.7 2.1-1.3 1.5-.8 2.1 3.7.6-.4c-.4.8-.9 1.6-1.4 2.3l-1.9-3.3-3.6 2.1-2.1-3.6-3.6 2.1-2.1-3.6-3.6 2.1-2.1-3.6-3.6 2.1-2.1-3.6-3.6 2.1-2.1-3.6-3.6 2.1-2.1-3.6-3.6 2.1-2.1-3.6-.3-.4zm-1.5 6.6l-.6.3.3-1.2.3-1.2.5-.3 2.1 3.7 2.1-1.3 1.5-.8 2.1 3.7 2.1-1.3 1.5-.8 2.1 3.7 2.1-1.3 1.5-.8 2.1 3.7 2.1-1.3 1.5-.8 2.1 3.7 2.1-1.3 1.5-.8 2.1 3.7 2.1-1.3 1.5-.8 2.1 3.7 2.1-1.3 1.5-.8 1.1 1.9c-.4.5-.7 1-1 1.6l-.7-1.2-3.6 2.1-2.1-3.6-3.6 2.1-2.1-3.6-3.6 2.1-2.1-3.6-3.6 2.1-2.1-3.6-3.6 2.1-2.1-3.6-3.6 2.1-2.1-3.6-3.6 2.1-2-4.2zm2.5 9.2c-.5-.4-.9-.8-1.4-1.2l2-1.1 1.5-.8 2.1 3.7 2.1-1.3 1.5-.8 2.1 3.7 2.1-1.3 1.5-.8 2.1 3.7 2.1-1.3 1.5-.8 2.1 3.7 2.1-1.3 1.5-.8 2.1 3.7 2.1-1.3 1.5-.8 2.1 3.7 2.1-1.3 1.2-.7c-.6 1-1.2 2-1.7 3l-1.9 1.1H56l-2-3.5-3.6 2.1-2.1-3.6-3.6 2.1-2.1-3.6-3.6 2.1-2.1-3.6-3.6 2.1-2.1-3.6-3.5 2c-.1 0-.2-.1-.2-.2l-2-3.4-1.6.4zM244 431.2c-13.4 3.8-21.2 17.8-17.4 31.3 3.8 13.4 17.8 21.2 31.2 17.4.3-.1.6-.2 1-.3l28.4-9.3h.2c-4.4-5.4-7.8-11.8-9.9-19-2.5-8.6-2.7-17.2-1-25.1-3.6.9-7.2 1.5-10.9 2l-17.4 2.3c-1.3 0-2.7.3-4.2.7zm27.1 36.9l-3.6-2 2-3.6-3.6-2 2-3.6-3.6-2 2-3.6-3.6-2 2-3.6-3.6-2 2-3.6-3.6-2 1.1-1.9 2.1-.3-.9 1.6 3.7 2.1-.8 1.5-1.2 2.2 3.7 2.1-.8 1.5-1.2 2.2 3.7 2.1-.8 1.5-1.2 2.2 3.7 2.1-.8 1.5-1.2 2.2 3.7 2.1-.8 1.5-1.2 2.2 3.7 2.1-.2.3-2.4.8-.3-1.6zm-6.9 2l-3.6-2 2-3.6-3.6-2 2-3.6-3.6-2 2-3.6-3.6-2 2-3.6-3.6-2 2-3.6-3.6-2 1.6-2.9.8-.1v-.2l1.5-.2-.3.5-1.2 2.2 3.7 2.1-.8 1.5-1.2 2.2 3.7 2.1-.8 1.5-1.2 2.2 3.7 2.1-.8 1.5-1.2 2.2 3.7 2.1-.8 1.5-1.2 2.2 3.7 2.1-.8 1.5-1.2 2.2 3.7 2.1-.4.7-2.4.8-.2-1.9zm-6.8 1.9l-3.6-2 2-3.6-3.6-2 2-3.6-3.6-2 2-3.6-3.6-2 2-3.6-3.6-2 2-3.6-3.6-2 2-3.6-.7-.4 1.8-.3 1.1-.1.2.1-.8 1.5-1.2 2.2 3.7 2.1-.8 1.5-1.2 2.2 3.7 2.1-.8 1.5-1.2 2.2 3.7 2.1-.8 1.5-1.2 2.2 3.7 2.1-.8 1.5-1.2 2.2 3.7 2.1-.8 1.5-1.2 2.2 3.7 2.1-.6 1-2.4.8V472zm-22-26.7l2.7 1.5-.8 1.5-1.2 2.2 3.7 2.1-.8 1.5-1.2 2.2 3.7 2.1-.8 1.5-1.2 2.2 3.7 2.1-.8 1.5-1.2 2.2 3.7 2.1-.8 1.5-.8 1.4c-.5-.3-1-.5-1.5-.8l.8-1.5-3.6-2 2-3.6-3.6-2 2-3.6-3.6-2 2-3.6-3.6-2 2-3.6-1.2-.7c0-1.3.3-1.9.4-2.2zm7.4-6.3l.5.2-.8 1.5-1.2 2.2 3.7 2.1-.8 1.5-1.2 2.2 3.7 2.1-.8 1.5-1.2 2.2 3.7 2.1-.8 1.5-1.2 2.2 3.7 2.1-.8 1.5-1.2 2.2 3.7 2.1-.8 1.5-1.2 2.2 3.7 2.1-.4.8c-.7 0-1.4.1-2 .1l.1-.3-3.6-2 2-3.6-3.6-2 2-3.6-3.6-2 2-3.6-3.6-2 2-3.6-3.6-2 2-3.6-3.6-2 1.9-3.4c.1-1.7.8-2.1 1.3-2.2zm48.7 27.9l1.8 2.2c3.4-.5 6.9-.9 10.3-.9 9.6-.3 17.5.8 27.1-1.9 11-3.1 21.1-7.7 30.3-13.5 10.8-6.8 20.3-15.3 28.1-25 2.3-2.8 3.5-6.3 3.3-9.9-.1-2.5-.5-5.1-1.3-7.7-1-3.7-2.7-7.1-4.7-10.1-2.3-3.4-5.9-5.6-9.9-6.1-11.9-1.5-24.2-.7-36.5 2.7-2.3.7-4.6 1.4-6.8 2.2-7.5 2.8-14.5 6.5-20.8 11-4.4 3.1-9 5.8-13.8 8.2l-1.5.7c-4.7 2.3-9.7 4.2-14.7 5.8l-.5 2.7c-1.5 7.4-1.2 15.1.9 22.6 1.7 6.2 4.7 11.9 8.7 17zm2.8-25.5c2-.6 4 .6 4.6 2.6s-.6 4-2.6 4.6-4-.6-4.6-2.6c-.5-1.9.6-4 2.6-4.6zm88.3-18.6l-2.2-1.3 2-3.6-3.6-2 2-3.6-3.6-2 2-3.6-3.6-2 1.3-2.3c.5.2 1 .5 1.5.8l-.4.8 2.3 1.3c.3.5.7 1.1 1 1.6l-.4.7-1.2 2.2 3.6 2-.8 1.5-1.2 2.2 3.2 1.8c0 .4.1.7.1 1.1l-.4.7-1.2 2.2.9.5c-.2.4-.5.8-.8 1.1-.3-.3-.4-.2-.5-.1zm-6.4 7.1l-1.2-.6 2-3.6-3.6-2 2-3.6-3.6-2 2-3.6-3.6-2 2-3.6-3.6-2 2-3.6-2.8-1.6c1.3 0 2.6.1 4 .2l1.2.7-.8 1.5-1.2 2.2 3.7 2.1-.8 1.5-1.2 2.2 3.7 2.1-.8 1.5-1.2 2.2 3.7 2.1-.8 1.5-1.2 2.2 3.7 2.1-.8 1.5-1.2 2.2c-.6-.6-1-.2-1.6.4zm-5.3 5l.9-1.7-3.6-2 2-3.6-3.6-2 2-3.6-3.6-2 2-3.6-3.6-2 2-3.6-3.6-2 2-3.6-3.6-2 .8-1.5c.6-.1 1.3-.1 2-.1l-.5.9 3.7 2.1-.8 1.5-1.2 2.2 3.7 2.1-.8 1.5-1.2 2.2 3.7 2.1-.8 1.5-1.2 2.2 3.7 2.1-.8 1.5-1.2 2.2 3.7 2.1-.8 1.5-1.2 2.2 3.2 1.8c-1.2-.2-2.1.7-3.3 1.6zm-5.7 4.9l-2.2-1 2-3.6-3.6-2 2-3.6-3.6-2 2-3.6-3.6-2 2-3.6-3.6-2 2-3.6-3.6-2 2-3.6-3.6-2 1.6-2.9c.7-.1 1.4-.1 2.1-.2l-.2.3-1.2 2.2 3.7 2.1-.8 1.5-1.2 2.2 3.7 2.1-.8 1.5-1.2 2.2 3.7 2.1-.8 1.5-1.2 2.2 3.7 2.1-.8 1.5-1.2 2.2 3.7 2.1-.8 1.5-1.2 2.2 3.7 2.1-.8 1.5-1.2 2.2 1.1.6c-.8-1-1.3-.6-1.8-.2zm-6.1 4.4l.8-1.3-3.6-2 2-3.6-3.6-2 2-3.6-3.6-2 2-3.6-3.6-2 2-3.6-3.6-2 2-3.6-3.6-2 2-3.6-3.6-2 2-3.6-.2-.1c.9-.2 1.7-.3 2.6-.5l-.8 1.4-1.2 2.2 3.7 2.1-.8 1.5-1.2 2.2 3.7 2.1-.8 1.5-1.2 2.2 3.7 2.1-.8 1.5-1.2 2.2 3.7 2.1-.8 1.5-1.2 2.2 3.7 2.1-.8 1.5-1.2 2.2 3.7 2.1-.8 1.5-1.2 2.2 3.6 1.9c-1.6-.7-2.6-.1-3.8.8zm-7.5 4.6l-.6-.3 2-3.6-3.6-2 2-3.6-3.6-2 2-3.6-3.6-2 2-3.6-3.6-2 2-3.6-3.6-2 2-3.6-3.6-2 2-3.6-3.6-2 2-3.6-.5-.3c.2-.1.6-.1.8-.2.5-.2 1-.3 1.5-.4l.5.3-.8 1.5-1.2 2.2 3.7 2.1-.8 1.5-1.2 2.2 3.7 2.1-.8 1.5-1.2 2.2 3.7 2.1-.8 1.5-1.2 2.2 3.7 2.1-.8 1.5-1.2 2.2 3.7 2.1-.8 1.5-1.2 2.2 3.7 2.1-.8 1.5-1.2 2.2 3.7 2.1-.8 1.5-1.2 2.2c-1-1.5-1.6-1.1-2.4-.6zm-5.3 2.7l-2.1-1.2 2-3.6-3.6-2 2-3.6-3.6-2 2-3.6-3.6-2 2-3.6-3.6-2 2-3.6-3.6-2 2-3.6-3.6-2 2-3.6-3.6-2 2-3.6-.1-.1 1-.4c.4-.1.8-.3 1.1-.4l.3.2-.8 1.5-1.2 2.2 3.7 2.1-.8 1.5-1.2 2.2 3.7 2.1-.8 1.5-1.2 2.2 3.7 2.1-.8 1.5-1.2 2.2 3.7 2.1-.8 1.5-1.2 2.2 3.7 2.1-.8 1.5-1.2 2.2 3.7 2.1-.8 1.5-1.2 2.2 3.7 2.1-.8 1.5-1.2 2.2 1.6.9c-1-1.2-1.6-.9-2.5-.5zm-5.5 2.5l-3.3-1.8 2-3.6-3.6-2 2-3.6-3.6-2 2-3.6-3.6-2 2-3.6-3.6-2 2-3.6-3.6-2 2-3.6-3.6-2 2-3.6-3.8-1.9 1.3-2.3c.9-.4 1.8-.9 2.7-1.3l-.5.8-1.2 2.2 3.7 2.1-.8 1.5-1.2 2.2 3.7 2.1-.8.6-1.2 2.2 3.7 2.1-.8 1.5-1.2 2.2 3.7 2.1-.8 1.5-1.2 2.2 3.7 2.1-.8 1.5-1.2 2.2 3.7 2.1-.8 1.5-1.2 2.2 3.7 2.1-.8 1.5-1.2 2.2 2.9 1.6c-1-.4-1.6-.1-2.4.2zm-6.6 2.3l-3.6-2 2-3.6-3.6-2 2-3.6-3.6-2 2-3.6-3.6-2 2-3.6-3.6-2 2-3.6-3.6-2 2-3.6-3.6-2 2-3.6-3.3-1.8c.8-.5 1.5-1 2.3-1.5l-.3.6 3.7 2.1-.8 1.5-1.2 2.2 3.7 2.1-.8 1.5-1.2 2.2 3.7 2.1-.8 1.5-1.2 2.2 3.7 2.1-.8 1.5-1.2 2.2 3.7 2.1-.8 1.5-1.2 2.2 3.7 2.1-.8 1.5-1.2 2.2 3.7 2.1-.8 1.5-1.2 2.2 3.7 2.1-.1.1c-.8.3-1.7.6-2.5.9l-.5-1.8zm-10.4-.1l2-3.6-3.6-2 2-3.6-3.6-2 2-3.6-3.6-2 2-3.6-3.6-2 2-3.6-3.6-2 2-3.6-3.6-2 2-3.6-1.2-.6c.5-.3 1-.7 1.6-1.1l1.9 1.1-.8 1.5-1.2 2.2 3.7 2.1-.8 1.5-1.2 2.2 3.7 2.1-.8 1.5-1.2 2.2 3.7 2.1-.8 1.5-1.2 2.2 3.7 2.1-.8 1.5-1.5.9 3.7 2.1-.8 1.5-1.2 2.2 3.7 2.1-.8 1.5-1.2 2.2 3.7 2.1-.3.5-1.2.3-1.2.3.3-.6-3.9-2zm-4.7-1.8l-3.4-1.9c-.1-.1-.1-.2-.2-.2l1.9-3.6-3.6-2 2-3.6-3.6-2 2-3.6-3.6-2 2-3.6-3.6-2 2-3.6-3.6-1.9v-.3l1.1-1.9 3-1.8-.6 1.2-1.2 2.2 3.7 2.1-.8 1.5-1.2 2.2 3.7 2.1-.8 1.5-1.2 2.2 3.7 2.1-.8 1.5-1.2 2.2 3.7 2.1-.8 1.5-1.2 2.2 3.7 2.1-.8 1.5-1.2 2.2 3.7 2.1-.8 1.5-1.1 2c-.4-.4-.8-.9-1.2-1.4l.3-2.6z" fill="#cc584c"/><path d="M217.9 113.2c-1.5.2-2.9.6-4.2 1.1l-16.7 5.4c-3.5 1.1-7.1 2.1-10.7 2.8 4.9 6.5 8.4 14.4 9.8 23.2 1.2 7.4.9 14.7-.8 21.4h.2l29.6-3.7c.3 0 .6-.1 1-.1 13.8-2.3 23.1-15.3 20.9-29-2.4-14-15.4-23.4-29.1-21.1zm-8.5 45.2l-2.5.3-.3-.2 2.5-3.4-2-1.4-1.4-1 2.5-3.4-2-1.4-1.4-1 2.5-3.4-2-1.4-1.4-1 2.5-3.4-2-1.4-1.4-1 2.5-3.4-2-1.4-1.4-1 2.5-3.4-1.5-1.1 2-.6 1.8 1.3-2.4 3.4 3.4 2.4-2.4 3.4 3.4 2.4-2.4 3.4 3.4 2.4-2.4 3.4 3.4 2.4-2.4 3.4 3.4 2.4-2.4 3.4-.1.3zm7.3-.9l-2.5.3-.7-.5 2.5-3.4-2-1.4-1.4-1 2.5-3.4-2-1.4-1.4-1 2.5-3.4-2-1.4-1.4-1 2.5-3.4-2-1.4-1.4-1 2.5-3.4-2-1.4-1.4-1 2.5-3.4-2-1.4-.5-.4 1.4-.4.1.1.7-.3 2.7 2-2.4 3.4 3.4 2.4-2.4 3.4 3.4 2.4-2.4 3.4 3.4 2.4-2.4 3.4 3.4 2.4-2.4 3.4 3.4 2.4-2.4 3.4.2.6zm7.3-.9l-2.5.3-1-.7 2.5-3.4-2-1.4-1.4-1 2.5-3.4-2-1.4-1.4-1 2.5-3.4-2-1.4-1.4-1 2.5-3.4-2-1.4-1.4-1 2.5-3.4-2-1.4-1.4-1 2.5-3.4-2-1.4-1.4-1 .1-.2 1-.3c.6-.2 1.1-.4 1.7-.5l-.5.6 3.4 2.4-2.4 3.4 3.4 2.4-2.4 3.4 3.4 2.4-2.4 3.4 3.4 2.4-2.4 3.4 3.4 2.4-2.4 3.4 3.4 2.4-2.4 3.4.6.8zm8.9-33.5l-.8 1.1 3.4 2.4-2.4 3.4 3.4 2.4-2.4 3.4 3.4 2.4-2.4 3.4 3.4 2.4-2.4 3.4 1.4 1c-.3.5-.6.9-1 1.4l-1.3-1-1.4-1 2.5-3.4-2-1.4-1.4-1 2.5-3.4-2-1.4-1.4-1 2.5-3.4-2-1.4-1.4-1 2.5-3.4-2-1.4-1.4-1 1.8-2.5c-.1.4.4.7.9 1zm-8.6-3.4l3.2 2.3-2.4 3.4 3.4 2.4-2.4 3.4 3.4 2.4-2.4 3.4 3.4 2.4-2.4 3.4 3.4 2.4-2.4 3.4 3.4 2.4-2.4 3.4.2.2c-.6.3-1.2.5-1.9.8l-.7-.5 2.5-3.4-2-1.4-1.4-1 2.5-3.4-2-1.4-1.4-1 2.5-3.4-2-1.4-1.4-1 2.5-3.4-2-1.4-1.4-1 2.5-3.4-2-1.4-1.4-1 2.5-3.4-2-1.4-1.4-1 .3-.4c.2-.1 1-.1 1.7 0zm-33.5 26.7c-1.3-7.6-4.3-14.8-8.8-20.8l-1.7-2.2c-5.2.7-10.5 1.1-15.8 1h-1.6c-5.4-.1-10.7-.6-16-1.5-7.6-1.3-15.5-1.8-23.5-1.1-2.4.2-4.7.5-7.1.9-12.6 2.1-24.1 6.6-34.2 13.1-3.4 2.2-5.8 5.7-6.4 9.7-.6 3.6-.6 7.4 0 11.2.4 2.6 1.2 5.2 2.1 7.5 1.3 3.3 4 6 7.2 7.5 11.2 5.4 23.4 9.1 36.1 10.6 10.8 1.3 21.9 1.2 33.2-.7 9.9-1.6 16.6-6 25.3-9.8 3.2-1.4 6.4-2.6 9.7-3.5l.7-2.7c1.6-6.2 1.8-12.6.8-19.2zm-9.8.5c.3 2-1 3.9-3.1 4.3s-3.9-1-4.3-3.1c-.3-2 1-3.9 3.1-4.3 2.1-.3 4 1.1 4.3 3.1zm-92.5 17.6c-.4-.2-.8-.4-1.2-.7l.6-.8-2-1.4-.6-.5c-.2-.4-.3-.7-.4-1l2.1-2.9-2-1.4-1.4-1 2.4-3.4-2-1.4-.6-.5c0-.6.1-1.2.2-1.9l1.5-2.1-.7-.5c.3-.5.6-1 1-1.4l2.2 1.5-2.4 3.4 3.4 2.4-2.4 3.4 3.4 2.4-2.4 3.4 3.4 2.4-1.5 2.1c-.4 0-.5-.1-.6-.1zm7.3 3.1l-2-1.5-1.4-1 2.5-3.4-2-1.4-1.4-1 2.5-3.4-2-1.4-1.4-1 2.5-3.4-2-1.4-1.4-1 2.5-3.4-2-1.4-1.4-1 .8-1.1c1.1-.7 2.3-1.3 3.5-1.9l-1.9 2.6 3.4 2.4-2.4 3.4 3.4 2.4-2.4 3.4 3.4 2.4-2.4 3.4 3.4 2.4-2.4 3.4 3.4 2.4-.8 1.1c-.9-.1-1.4-.3-2-.6zm4.9 1.8l2.2-3-2-1.4-1.4-1 2.5-3.4-2-1.4-1.4-1 2.5-3.4-2-1.4-1.4-1 2.5-3.4-2-1.4-1.4-1 2.5-3.4-2-1.4-1.4-1 2.5-3.4-.8-.6c.6-.3 1.2-.5 1.8-.8l1.4 1-2.4 3.4 3.4 2.4-2.4 3.4 3.4 2.4-2.4 3.4 3.4 2.4-2.4 3.4 3.4 2.4-2.4 3.4 3.4 2.4-2.4 3.4 1.6 1.1c-1.8-.3-3-.7-4.3-1.1zm9.4 2.8l.7-1-2-1.4-1.4-1 2.5-3.4-2-1.4-1.4-1 2.5-3.4-2-1.4-1.4-1 2.5-3.4-2-1.4-1.4-1 2.5-3.4-2-1.4-1.4-1 2.5-3.4-2-1.4-1.4-1 2.5-3.4-2-1.4-.3-.2c.7-.2 1.4-.5 2-.7l2.7 1.9-2.4 3.4 3.4 2.4-2.4 3.4 3.4 2.4-2.4 3.4 3.4 2.4-2.4 3.4 3.4 2.4-2.4 3.4 3.4 2.4-2.4 3.4 3.4 2.4-1.5 1.8c-1-.2-1.6-.3-2.2-.4zm5.3 1.1l2.4-3.3-2-1.4-1.4-1 2.5-3.4-2-1.4-1.4-1 2.5-3.4-2-1.4-1.4-1 2.5-3.4-2-1.4-1.4-1 2.5-3.4-2-1.4-1.4-1 2.5-3.4-2-1.4-1.4-1 2.5-3.4-2-1.4-1.3-1c.8-.2 1.6-.4 2.5-.7l-.1.2 3.4 2.4-2.4 3.4 3.4 2.4-2.4 3.4 3.4 2.4-2.4 3.4 3.4 2.4-2.4 3.4 3.4 2.4-2.4 3.4 3.4 2.4-2.4 3.4 3.4 2.4-2.4 3.4 1.2.9c-1.9-.1-3.1-.3-4.3-.5zm10.3 1.4l-2-1.5-1.4-1 2.5-3.4-2-1.4-1.4-1 2.5-3.4-2-1.4-1.4-1 2.5-3.4-2-1.4-1.4-1 2.5-3.4-2-1.4-1.4-1 2.5-3.4-2-1.4-1.4-1 2.5-3.4-2-1.4-1.4-1 2.5-3.4-2-1.4-1.4-1 .4-.5c.5-.1 1-.2 1.6-.3.3 0 .6-.1.8-.1l-.3.5 3.4 2.4-2.4 3.4 3.4 2.4-2.4 3.4 3.4 2.4-2.4 3.4 3.4 2.4-2.4 3.4 3.4 2.4-2.4 3.4 3.4 2.4-2.4 3.4 3.4 2.4-2.4 3.4 3.4 2.4-.4.6c-1.4 0-2.1 0-2.8-.1zm5.9.4l1.1-1.5-2-1.5-1.4-1 2.5-3.4-2-1.4-1.4-1 2.5-3.4-2-1.4-1.4-1 2.5-3.4-2-1.4-1.4-1 2.5-3.4-2-1.4-1.4-1 2.5-3.4-2-1.4-1.4-1 2.5-3.4-2-1.4-1.4-1 2.5-3.4-2-1.4-1.4-1 .2-.3c.4 0 .8-.1 1.2-.1l1-.1v.1l3.4 2.4-2.4 3.4 3.4 2.4-2.4 3.4 3.4 2.4-2.4 3.4 3.4 2.4-2.4 3.4 3.4 2.4-2.4 3.4 3.4 2.4-2.4 3.4 3.4 2.4-2.4 3.4 3.4 2.4-1.4 2h-2.8zm6.2 0l2-2.7-2-1.4-1.4-1 2.5-3.4-2-1.4-1.4-1 2.5-3.4-2-1.4-1.4-1 2.5-3.4-2-1.4-1.4-1 2.5-3.4-2-1.4-1.4-1 2.5-3.4-2-1.4-1.4-1 2.5-3.4-2-1.4-1.4-1 2.5-3.4-2-1.4-.8-.6h3l2.2 1.6-2.6 3.3 3.4 2.4-2.4 3.4 3.4 2.4-2.4 3.4 3.4 2.4-2.4 3.4 3.4 2.4-2.4 3.4 3.4 2.4-2.4 3.4 3.4 2.4-2.4 3.4 3.4 2.4-2.2 3c-1.3.2-2 .2-2.7.2zm9.2-.6c-.9.1-1.8.2-2.6.3l-.1-.1 2.5-3.4-2-1.4-1.4-1 2.5-3.4-2-1.4-1.4-1 2.5-3.4-2-1.4-1.4-1 2.5-3.4-2-1.4-1.4-1 2.5-3.4-2-1.4-1.4-1 2.5-3.4-2-1.4-1.4-1 2.5-3.4-2-1.4-1.4-1 2.5-3.4-.6-.4 2.7.3-2.2 3.1 3.4 2.4-2.4 3.4 3.4 2.4-2.4 3.4 3.4 2.4-2.4 3.4 3.4 2.4-2.4 3.4 3.4 2.4-2.4 3.4 3.4 2.4-2.4 3.4 3.4 2.4-2.4 3.4-.4.2zm6.6-1.4l.5.4c-.4.1-.8.1-1.2.2-.4.1-.8.1-1.2.2l-.5-.4 2.5-3.4-2-1.4-1.4-1 2.5-3.4-2-1.4-1.4-1 2.5-3.4-2-1.4-1.4-1 2.5-3.4-2-1.4-1.4-1 2.5-3.4-2-1.4-1.4-1 2.5-3.4-2-1.4-1.4-1 2.5-3.4-2-1.4-1.4-1 1.3-1.8c.6.1 1.2.2 1.9.3l-.8 1.1 3.4 2.4-2.4 3.4 3.4 2.4-2.4 3.4 3.4 2.4-2.4 3.4 3.4 2.4-2.4 3.4 3.4 2.4-2.4 3.4 3.4 2.4-2.4 3.4 3.4 2.4-3.1 3.4zm7.4-6c-.2.6-.3 1.1-.5 1.7l-1.8-1.3-1.4-1 2.5-3.4-2-1.4-1.4-1 2.5-3.4-2-1.4-1.4-1 2.5-3.4-2-1.4-1.4-1 2.5-3.4-2-1.4-1.4-1 2.5-3.4-2-1.4-1.4-1 2.5-3.4-2-1.4-1.1-.8c1.2.1 2.3.2 3.5.3l1.8 1.3c0 .1.1.2.2.3L155 137l3.4 2.4-2.4 3.4 3.4 2.4-2.4 3.4 3.4 2.4-2.4 3.4 3.4 2.4-2.4 3.4 3.3 2.4c0 .1 0 .2-.1.3l-2.3 3.2 1.1 1zm154.9-102c13.9.9 25.9-9.7 26.9-23.6.9-13.9-9.7-25.9-23.6-26.9h-1l-29.8-.8h-.2c2.3 6.5 3.4 13.7 2.9 21.2-.6 8.9-3.3 17.1-7.5 24 3.6.4 7.3 1 10.9 1.7l17.1 3.7c1.4.4 2.8.6 4.3.7zm-13.1-43.8l2.8 3.1-3.1 2.8 2.8 3.1-3.1 2.8 2.8 3.1-3.1 2.8 2.8 3.1-3.1 2.8L304 48l-3.1 2.8 2.8 3.1-1.7 1.5-2.1-.4 1.3-1.2-2.8-3.2 1.3-1.1 1.9-1.6-2.8-3.2 1.3-1.1L302 42l-2.8-3.2 1.3-1.1 1.9-1.6-2.8-3.2 1.3-1.1 1.9-1.6L300 27l1.3-1.1 1.9-1.6-2.8-3.2.3-.3 2.6.1-.5.4zm7.1.4l2.8 3.1-3.1 2.8 2.8 3.1-3.1 2.8 2.8 3.1-3.1 2.8 2.8 3.1-3.1 2.8 2.8 3.1-3.1 2.8 2.8 3.1-2.5 2.2-.8-.2-.1.1-1.4-.3.5-.4 1.9-1.6-2.8-3.2 1.3-1.1 1.9-1.6-2.8-3.2.6-1 1.9-1.6-2.8-3.2 1.3-1.1 1.9-1.6-2.8-3.2 1.3-1.1 1.9-1.6-2.8-3.2 1.3-1.1 1.9-1.6-2.8-3.2.6-.5 2.6.1-.6.6zm7.1.5l2.8 3.1-3.1 2.8 2.8 3.1-3.1 2.8 2.8 3.1-3.1 2.8 2.8 3.1-3.1 2.8 2.8 3.1-3.1 2.8 2.8 3.1-3.1 2.8.5.6-1.8-.3-1-.2-.2-.2 1.3-1.1 1.9-1.6-2.8-3.2 1.3-1.1 1.9-1.6-2.8-3.2 1.3-1.1 1.9-1.6-2.8-3.2 1.3-1.1 1.9-1.6-2.8-3.2 1.3-1.1 1.9-1.6-2.8-3.2 1.3-1.1 1.9-1.6-2.8-3.2.9-.8 2.6.1-1.6.8zm11.7 32.6l-2-2.3 1.3-1.1 1.9-1.6-2.8-3.2 1.3-1.1 1.9-1.6-2.8-3.2 1.3-1.1 1.9-1.6-2.8-3.2 1.3-1.1 1.9-1.6-2.8-3.2 1.3-1.1 1.2-1.1c.4.4.8.8 1.1 1.3l-1.3 1.1 2.8 3.1-3.1 2.8 2.8 3.1-3.1 2.8 2.8 3.1-3.1 2.8 2.8 3.1-3.1 2.8.9 1c-.9.4-1.4.7-1.6 1.1zm-9.1 3.4l-.4-.4 1.3-1.1 1.9-1.6-2.8-3.2 1.3-1.1 1.9-1.6L320 46l1.3-1.1 1.9-1.6-2.8-3.2 1.3-1.1 1.9-1.6-2.8-3.2 1.3-1.1 1.9-1.6-2.8-3.2 1.3-1.1 1.9-1.6-2.8-3.2.7-.6c.7.2 1.3.4 2 .6l-.2.2 2.8 3.1-3.1 2.8 2.8 3.1-3.1 2.8 2.8 3.1-3.1 2.8 2.8 3.1-3.1 2.8 2.8 3.1-3.1 2.8 2.8 3.1-3 2.6c-1.5.3-2.3.4-2.8.4zm-36.5-42.6l-.9-2.6c-3.4-.6-6.7-1.5-10-2.6-9.1-3-16.2-6.6-26.2-7.3-11.4-.8-22.5.2-33.1 2.6-12.5 2.8-24.2 7.6-34.9 14.1-3.1 1.9-5.4 4.8-6.4 8.2-.7 2.4-1.2 5-1.4 7.7-.3 3.8.1 7.6 1.1 11.1 1 3.9 3.7 7.2 7.3 9.1 10.7 5.4 22.6 8.8 35.3 9.7 2.4.1 4.8.2 7.2.2 8-.1 15.8-1.3 23.3-3.3 5.2-1.4 10.5-2.5 15.8-3.1l1.6-.2c5.2-.6 10.5-.8 15.8-.5l1.4-2.4c3.9-6.4 6.2-13.8 6.7-21.6.4-6.7-.5-13.1-2.6-19.1zm-11.1 23c-2.1-.1-3.6-1.9-3.5-4 .1-2.1 1.9-3.6 4-3.5 2.1.1 3.6 1.9 3.5 4-.2 2-2 3.6-4 3.5zm-89.5-12.2l1.7 1.9-3.1 2.8 2.8 3.1-3.1 2.8 2.8 3.1-3.1 2.8L183 46l-2 1.7c-.4-.4-.8-.8-1.1-1.3l.7-.6-1.7-2c-.1-.6-.3-1.2-.4-1.9l.6-.5 1.9-1.6-2.8-3.1 1.3-1.1 1.9-1.6-2.4-2.7c.1-.4.2-.7.3-1.1l.6-.5 1.9-1.6-.7-.8c.3-.3.7-.6 1.1-.8 0 .1.2 0 .3-.1zm8.4-4.5l.9 1-3.1 2.8 2.8 3.1-3.1 2.8 2.8 3.1-3.1 2.8 2.8 3.1-3.1 2.8 2.8 3.1-3.1 2.8 2.1 2.4-3.6-1.5-.9-1 1.3-1.1 1.9-1.6-2.8-3.2 1.3-1.1 1.9-1.6-2.8-3.2 1.3-1.1 1.9-1.6-2.8-3.2 1.3-1.1 1.9-1.6-2.8-3.2 1.3-1.1 1.8-1.7c-.2-.3.4-.6 1.1-.9zm6.7-3l-1.5 1.3 2.8 3.1-3.1 2.8 2.8 3.1-3.1 2.8 2.8 3.1-3.1 2.8L198 41l-3.1 2.8 2.8 3.1-3.1 2.8 2.8 3.1-1.3 1.1c-.6-.2-1.3-.4-1.9-.6l.7-.7-2.8-3.2 1.3-1.1 1.9-1.6-2.8-3.2 1.3-1.1 1.9-1.6-2.8-3.2 1.3-1.1 1.9-1.6-2.8-3.2 1.3-1.1 1.9-1.6-2.8-3.2 1.3-1.1 1.9-1.6-2.4-2.8c.5-.3 1.7-.8 3.1-1.4zm7-2.6l1.7 1.7-3.1 2.8 2.8 3.1-3.1 2.8 2.8 3.1-3.1 2.8 2.8 3.1-3.1 2.8 2.8 3.1-3.1 2.8 2.8 3.1-3.1 2.8 2.8 3.1-2.5 2.2c-.7-.2-1.4-.4-2.1-.5l.3-.3 1.9-1.6-2.8-3.2 1.3-1.1 1.9-1.6-2.8-3.2L201 43l1.9-1.6-2.8-3.2 1.3-1.1 1.9-1.6-2.8-3.2 1.3-1.1 1.9-1.6-2.8-3.2 1.3-1.1 1.9-1.6-2.8-3.2 1.3-1.1 1.9-1.6-.8-.9c-.2-.2.4-.4.9-.6zm7.3-2.1l-1.2 1 2.8 3.1-3.1 2.8 2.8 3.1-3.1 2.8 2.8 3.1-3.1 2.8 2.8 3.1-3.1 2.8 2.8 3.1-3.1 2.8 2.8 3.1-3.1 2.8 2.8 3.1-3.1 2.8.2.2c-.9-.1-1.7-.3-2.6-.4l1.2-1.1 1.9-1.6-2.8-3.2 1.3-1.1 1.9-1.6-2.8-3.2 1.3-1.1 1.9-1.6-2.8-3.2 1.3-1.1 1.9-1.6-2.8-3.2 1.3-1.1 1-1.6-2.8-3.2 1.3-1.1 1.9-1.6-2.8-3.2 1.3-1.1 1.9-1.6-2.7-3c1.1-.3 2.3-.6 3.8-1zm8.6-1.8l.5.5-3.1 2.8 2.8 3.1-3.1 2.8 2.8 3.1-3.1 2.8 2.8 3.1-3.1 2.8 2.8 3.1-3.1 2.8 2.8 3.1-3.1 2.8 2.8 3.1-3.1 2.8 2.8 3.1L215 57l.4.5c-.3 0-.6 0-.8-.1-.5 0-1-.1-1.6-.1l-.4-.5 1.3-1.1 1.9-1.6-2.8-3.2 1.3-1.1 1.9-1.6-2.8-3.2 1.3-1.1 1.9-1.6-2.8-3.2 1.3-1.1 1.9-1.6-2.8-3.2 1.3-1.1 1.9-1.6-2.8-3.2 1.3-1.1 1.9-1.6-2.8-3.2 1.3-1.1 1.9-1.6-2.8-3.2 1.3-1.1 1.8-1.7c.3 0 1-.1 2-.3zm5.9-.8l1.6 1.8-3.1 2.8 2.8 3.1-3.1 2.8 2.8 3.1-3.1 2.8 2.8 3.1-3.1 2.8 2.8 3.1-3.1 2.8 2.8 3.1-3.1 2.8 2.8 3.1-3.1 2.8 2.8 3.1-3.1 2.8.1.1h-2.2l-.3-.3 1.3-1.1 1.9-1.6-2.8-3.2 1.3-1.1 1.9-1.6-2.8-3.2 1.3-1.1 1.9-1.6-2.8-3.2 1.3-1.1 1.9-1.6-2.8-3.2 1.3-1.1 1.9-1.6-2.8-3.2 1.3-1.1 1.9-1.6-2.8-3.2 1.3-1.1 1.9-1.6-2.8-3.2 1.3-1.1 1.9-1.7-1.2-1.4c-.5 0 .2-.1 1.2-.2zm6-.5l2.5 2.8-3.1 2.8 2.8 3.1-3.1 2.8 2.8 3.1-3.1 2.8 2.8 3.1-3.1 2.8 2.8 3.1-3.1 2.8 2.8 3.1-3.1 2.8 2.8 3.1-3.1 2.8 3 3.1-2 1.8-3 .3.7-.6 1.9-1.6-2.8-3.2 1.3-1.1 1.9-1.6-2.8-3.2 1.3-1.1 1.9-1.6-2.8-3.2 1.3-1.1 1.9-1.6-2.8-3.2 1.3-1.1 1.9-1.6-2.8-3.2 1.3-1.1 1.9-1.6-2.8-3.2 1.3-1.1 1.9-1.6-2.8-3.2 1.3-1.1 1.9-1.6-2.2-2.5c-.4-.1.3-.2 1.2-.2zm7 .1l2.8 3.1-3.1 2.8 2.8 3.1-3.1 2.8 2.8 3.1-3.1 2.8 2.8 3.1-3.1 2.8 2.8 3.1-3.1 2.8 2.8 3.1-3.1 2.8 2.8 3.1-3.1 2.8 2.5 2.8-2.7.6.5-.5-2.8-3.2 1.3-1.1 1.9-1.6-2.8-3.2 1.3-1.1 1.9-1.6-2.8-3.2 1.3-1.1 1.9-1.6-2.8-3.2 1.3-1.1 1.9-1.6-2.8-3.2 1.3-1.1 1.9-1.6-2.8-3.2 1.3-1.1L240 20l-2.8-3.2 1.3-1.1 1.9-1.6-2.8-3.2.1-.1h2.6l-.9.4zm9.8 3.6l-3.1 2.8 2.8 3.1-3.1 2.8 2.8 3.1-3.1 2.8 2.8 3.1-3.1 2.8 2.8 3.1-3.1 2.8 2.8 3.1L244 47l2.8 3.1-3.1 2.8.9 1c-.6.1-1.2.3-1.8.5l-1.5-1.6 1.3-1.1 1.9-1.6-2.8-3.2 1.3-1.1 1.9-1.6-2.8-3.2 1.3-1.1 1.9-1.6-2.8-3.2 1.3-1.1 1.9-1.6-2.8-3.2 1.3-1.1 1.9-1.6-2.8-3.2 1.3-1.1 1.9-1.6-2.8-3.2 1.3-1.1 1.9-1.6-2.8-3.2.5-.4c.4 0 .8.1 1.2.1.4 0 .8.1 1.2.1l-.5.4 2.7 3.1zm3.7 3.2l2.6 3c.1.1.1.2.1.3l-3 2.7 2.8 3.1-3.1 2.8L255 33l-3.1 2.8 2.8 3.1-3.1 2.8 2.8 3.1-3.1 2.8 2.7 3c-.1.1-.1.2-.1.3l-1.6 1.5c-1.1.2-2.3.4-3.4.7l1-.9 1.9-1.6-2.8-3.2 1.3-1.1 1.9-1.6-2.8-3.2 1.3-1.1 1.9-1.6-2.8-3.2 1.3-1.1 1.9-1.6-2.8-3.2 1.3-1.1 1.9-1.6-2.8-3.2 1.3-1.1 1.9-1.6-2.8-3.2 1.3-1.1 1.7-1.5c.3.6.5 1.1.7 1.7l-1.8 1z" fill="#36434f"/><path d="M175.1 460.5c-1.4-.6-2.7-1-4.2-1.3l-17-4.1c-3.6-.9-7.2-2-10.6-3.2.8 8.1-.4 16.6-3.8 24.9-2.9 7-6.9 12.9-11.9 17.8 0 0 .1 0 .2.1L155 507c.3.2.6.3.9.4 12.9 5.3 27.7-.9 33-13.9 5.3-13-.8-27.8-13.8-33zm-30.8 34.1l-2.3-1.1-.2-.4 3.9-1.6-1-2.3-.6-1.6 3.9-1.6-1-2.3-.6-1.6 3.9-1.6-1-2.3-.6-1.6 3.9-1.6-1-2.3-.6-1.6 3.9-1.6-1-2.3-.6-1.6 3.9-1.6-.7-1.7 2 .5.9 2.1-3.8 1.6 1.6 3.8-3.8 1.6 1.6 3.8-3.8 1.6 1.6 3.8-3.8 1.6 1.6 3.8-3.8 1.6 1.6 3.8-3.8 1.6-.3 1.1zm6.7 3l-2.3-1.1-.3-.7 3.9-1.6-1-2.3-.6-1.6 3.9-1.6-1-2.3-.6-1.6 3.9-1.6-1-2.3-.6-1.6 3.9-1.6-1-2.3-.6-1.6 3.9-1.6-1-2.3-.6-1.6 3.9-1.6-1-2.3-.2-.6 1.4.3v.2l.8.2 1.3 3.1-3.8 1.6 1.6 3.8-3.8 1.6 1.6 3.8-3.8 1.6 1.6 3.8-3.8 1.6 1.6 3.8-3.8 1.6 1.6 3.8-3.8 1.6-.3 1.4zm6.7 3l-2.3-1.1-.5-1.1 3.9-1.6-1-2.3-.6-1.6 3.9-1.6-1-2.3-.6-1.6 3.9-1.6-1-2.3-.6-1.6 3.9-1.6-1-2.3-.6-1.6 3.9-1.6-1-2.3-.6-1.6 3.9-1.6-1-2.3-.6-1.6.2-.1 1 .2c.6.1 1.2.3 1.8.5l-.7.3 1.6 3.8-3.8 1.6 1.6 3.8-3.8 1.6 1.6 3.8-3.8 1.6 1.6 3.8-3.8 1.6 1.6 3.8-3.8 1.6 1.6 3.8-3.8 1.6-.1 1.9zm25-23.8l-1.3.5 1.6 3.8-3.8 1.6 1.6 3.8-3.8 1.6 1.6 3.8-3.8 1.6 1.6 3.8-3.8 1.6.7 1.5c-.5.2-1 .4-1.6.6l-.6-1.5-.6-1.6 3.9-1.6-1-2.3-.6-1.6 3.9-1.6-1-2.3-.6-1.6 3.9-1.6-1-2.3-.6-1.6 3.9-1.6-1-2.3-.6-1.6 2.8-1.2c-.2 1 0 1.6.2 2.1zm-5.5-7.4l1.5 3.6-3.8 1.6 1.6 3.8-3.8 1.6 1.6 3.8-3.8 1.6 1.6 3.8-3.8 1.6 1.6 3.8-3.8 1.6 1.6 3.8-3.8 1.6.1.3c-.7-.1-1.3-.2-2-.3l-.3-.9 3.9-1.6-1-2.3-.6-1.6 3.9-1.6-1-2.3-.6-1.6 3.9-1.6-1-2.3-.6-1.6 3.9-1.6-1-2.3-.6-1.6 3.9-1.6-1-2.3-.6-1.6 3.9-1.6-1-2.3-.6-1.6.5-.2c0 1 .6 1.4 1.2 1.9zm-42.5 5.2c2.9-7.2 4.1-14.9 3.4-22.3l-.2-2.8c-4.8-2.1-9.5-4.6-14-7.4l-1.4-.9c-4.5-2.9-8.8-6.1-12.9-9.7-5.8-5.1-12.3-9.6-19.5-13.2-2.1-1.1-4.3-2-6.5-3-11.8-4.8-24-6.9-36-6.7-4.1.1-7.9 1.9-10.5 5-2.4 2.8-4.4 6-5.8 9.6-1 2.5-1.7 5-2.1 7.5-.6 3.5.3 7.2 2.2 10.2 6.8 10.5 15.2 20 25.2 27.9 8.5 6.8 18.1 12.5 28.6 16.8 9.3 3.7 17.2 3.6 26.7 4.9 3.4.5 6.8 1.2 10.1 2.1l2-2c4.6-4.5 8.2-9.9 10.7-16zm-8.6-4.7c-.8 1.9-2.9 2.8-4.9 2-1.9-.8-2.8-2.9-2-4.9.8-1.9 2.9-2.8 4.9-2 1.9.9 2.8 3 2 4.9zm-88-33.3c-.3-.4-.5-.8-.6-1.2l.9-.4-1-2.3-.3-.7c.1-.4.1-.7.2-1.1l3.3-1.4-1-2.3-.7-1.5 3.8-1.6-1-2.3-.3-.7c.4-.5.7-1 1.1-1.5l2.4-1-.3-.9c.5-.3 1-.5 1.6-.6l1 2.4-3.8 1.6 1.6 3.8-3.8 1.6 1.6 3.8-3.8 1.6 1.6 3.8-2.3 1c-.1.1-.2 0-.2-.1zm4.6 6.5l-.9-2.3-.6-1.6 3.9-1.6-1-2.3-.6-1.6 3.9-1.6-1-2.3-.6-1.6 3.9-1.6-1-2.3-.6-1.6 3.9-1.6-1-2.3-.6-1.6 1.3-.5c1.3 0 2.6.1 4 .2l-3 1.2 1.6 3.8-3.8 1.6 1.6 3.8-3.8 1.6 1.6 3.8-3.8 1.6 1.6 3.8-3.8 1.6 1.6 3.8-1.2.5c-.9.1-1.3-.4-1.6-.9zm3.2 4.1l3.4-1.4-1-2.3-.6-1.6 3.9-1.6-1-2.3-.6-1.6 3.9-1.6-1-2.3-.6-1.6 3.9-1.6-1-2.3-.6-1.6 3.9-1.6-1-2.3-.6-1.6 3.9-1.6-.4-.9c.7.1 1.3.2 2 .3l.7 1.5-3.8 1.6 1.6 3.8-3.8 1.6 1.6 3.8-3.8 1.6 1.6 3.8-3.8 1.6 1.6 3.8-3.8 1.6 1.6 3.8-3.8 1.6.7 1.8c-1.4-.4-2.3-1.4-3.1-2.4zm6.5 7.2l1.1-.5-1-2.3-.6-1.6 3.9-1.6-1-2.3-.6-1.6 3.9-1.6-1-2.3-.6-1.6 3.9-1.6-1-2.3-.6-1.6 3.9-1.6-1-2.3-.6-1.6 3.9-1.6-1-2.3-.6-1.6 3.9-1.6-1-2.3-.1-.3c.7.1 1.4.3 2.1.4l1.3 3.1-3.8 1.6 1.6 3.8-3.8 1.6 1.6 3.8-3.8 1.6L63 438l-3.8 1.6 1.6 3.8L57 445l1.6 3.8-3.8 1.6L56 455l-2.3.7c-.3-.4-.8-.8-1.3-1.3zm4 3.8l3.7-1.5-1-2.3-.6-1.6 3.9-1.6-1-2.3-.6-1.6 3.9-1.6-1-2.3-.6-1.6 3.9-1.6-1-2.3-.6-1.6 3.9-1.6-1-2.3-.6-1.6 3.9-1.6-1-2.3-.6-1.6 3.9-1.6-1-2.3-.6-1.5c.8.2 1.6.5 2.5.8l-.2.1 1.6 3.8-3.8 1.6L74 430l-3.8 1.6 1.6 3.8L68 437l1.6 3.8-3.8 1.6 1.6 3.8-3.8 1.6 1.6 3.8-3.8 1.6L63 457l-3.8 1.6.6 1.4c-1.6-.2-2.5-1-3.4-1.8zm8 6.6l-.9-2.3-.6-1.6 3.9-1.6-1-2.3-.6-1.6 3.9-1.6-1-2.3-.6-1.6 3.9-1.6-1-2.3-.6-1.6 3.9-1.6-1-2.3-.6-1.6 3.9-1.6-1-2.3-.6-1.6L78 432l-1-2.3-.6-1.6 3.9-1.6-1-2.3-.6-1.6.6-.2 1.5.6c.2.1.5.2.8.3l-.5.3 1.6 3.8-3.8 1.6 1.6 3.8-3.8 1.6 1.6 3.8-3.8 1.6 1.6 3.8-3.8 1.6 1.6 3.8-3.8 1.6 1.6 3.8-3.8 1.6 1.6 3.8-3.8 1.6 1.6 3.8-.7.3c-1.1.1-1.6-.4-2.2-.7zm4.9 3.4l1.7-.7-1-2.3-.6-1.6 3.9-1.6-1-2.3-.6-1.6 3.9-1.6-1-2.3-.6-1.6 3.9-1.6-1-2.3-.6-1.6 3.9-1.6-1-2.3-.6-1.6 3.9-1.6-1-2.3-.6-1.6 3.9-1.6-1-2.3-.6-1.6 3.9-1.6-1-2.3-.6-1.6.4-.2c.3.2.7.4 1.1.5l.9.5h-.1l1.6 3.8-3.8 1.6 1.6 3.8-3.8 1.6 1.6 3.8-3.8 1.6 1.6 3.8-3.8 1.6 1.6 3.8-3.8 1.6 1.6 3.8-3.8 1.6 1.6 3.8-3.8 1.6 1.6 3.8-2.3 1c-1.3.4-1.8.1-2.4-.3zm5.2 3.2l3.1-1.3-1-2.3-.6-1.6 3.9-1.6-1-2.3-.6-1.6 3.9-1.6-1-2.3-.6-1.6 3.9-1.6-1-2.3-.6-1.6 3.9-1.6-1-2.3-.6-1.6 3.9-1.6-1-2.3-.6-1.6 3.9-1.6-1-2.3-.6-1.6 3.9-1.6-1-2.3-.4-.9c.8.5 1.7 1.1 2.6 1.6l1.1 2.5-4 1.5 1.6 3.8-3.8 1.6 1.6 3.8-3.8 1.6 1.6 3.8-3.8 1.6L87 454l-3.8 1.6 1.6 3.8L81 461l1.6 3.8-3.8 1.6 1.6 3.8-3.5 1.4c-1.2.5-1.8.2-2.4-.2zm8.2 4.3c-.8-.4-1.6-.8-2.4-1.1l-.1-.1 3.9-1.6-1-2.3-.6-1.6 3.9-1.6-1-2.3-.6-1.6 3.9-1.6-1-2.3-.6-1.6 3.9-1.6-1-2.3-.6-1.6 3.9-1.6-1-2.3-.6-1.6 3.9-1.6-1-2.3-.6-1.6 3.9-1.6-1-2.3-.6-1.6 3.9-1.6-.3-.7c.7.5 1.5 1.1 2.1 1.7l-3.5 1.5 1.6 3.8-3.8 1.6 1.6 3.8-3.8 1.6 1.6 3.8-3.8 1.6 1.6 3.8-3.8 1.6 1.6 3.8-3.8 1.6 1.6 3.8L85 470l1.6 3.8-3.8 1.6-.1.3zm6.4 2.3l.3.6c-.4-.1-.7-.3-1.1-.5-.4-.1-.8-.3-1.1-.5l-.2-.6 3.9-1.6-1-2.3-.6-1.6L93 470l-1-2.3-.6-1.6 3.9-1.6-1-2.3-.6-1.6 3.9-1.6-1-2.3-.6-1.6 3.9-1.6-1-2.3-.6-1.6 3.9-1.6-1-2.3-.6-1.6 3.9-1.6-1-2.3-.6-1.6 2-.8c.5.4.9.8 1.4 1.2l-1.2.5 1.6 3.8-3.8 1.6 1.6 3.8-3.8 1.6 1.6 3.8-3.8 1.6 1.6 3.8-3.8 1.6 1.6 3.8-3.8 1.6 1.6 3.8-3.8 1.6 1.6 3.8-4.4 2.3zm9.4-1.3c-.4.4-.9.8-1.3 1.2l-.9-2.1-.6-1.6 3.9-1.6-1-2.3-.6-1.6 3.9-1.6-1-2.3-.6-1.6 3.9-1.6-1-2.3-.6-1.6 3.9-1.6-1-2.3-.6-1.6 3.9-1.6-1-2.3-.6-1.6 3.9-1.6-1-2.3-.5-1.2c.9.7 1.8 1.4 2.8 2.1l.8 2v.3l-3.7 1.5 1.6 3.8-3.8 1.6 1.6 3.8-3.8 1.6 1.6 3.8-3.8 1.6 1.6 3.8-3.8 1.6 1.5 3.7c0 .1-.1.1-.2.2l-3.6 1.5.1 2.2zm312.8-191.2c4 13.4 18.1 20.9 31.5 16.9 13.4-4 20.9-18.1 16.9-31.5l-.3-.9-9.7-28.2v-.2c-5.3 4.5-11.7 7.9-18.9 10.1-8.5 2.6-17.2 2.9-25.1 1.4.9 3.5 1.6 7.2 2.2 10.9l2.5 17.3c.2 1.4.5 2.8.9 4.2zm36.5-27.5l-2 3.7-3.7-2-2 3.7-3.7-2-2 3.7-3.7-2-2 3.7-3.7-2-2 3.7-3.7-2-2 3.7-2-1.1-.3-2.1 1.6.8 2-3.7 1.5.8 2.2 1.2 2-3.7 1.5.8 2.2 1.2 2-3.7 1.5.8 2.2 1.2 2-3.7 1.5.8 2.2 1.2 2-3.7 1.5.8 2.2 1.2 2-3.7.4.2.8 2.4-.5-.2zm2.1 6.8l-2 3.7-3.7-2-2 3.7-3.7-2-2 3.7-3.7-2-2 3.7-3.7-2-2 3.7-3.7-2-2 3.7-3-1.6-.1-.8h-.2l-.2-1.4.5.3 2.2 1.2 2-3.7 1.5.8 2.2 1.2 2-3.7 1.5.8 2.2 1.2 2-3.7 1.5.8 2.2 1.2 2-3.7 1.5.8 2.2 1.2 2-3.7 1.5.8 2.2 1.2 2-3.7.7.4.8 2.4-.7-.5zm2 6.8l-2 3.7-3.7-2-2 3.7-3.7-2-2 3.7-3.7-2-2 3.7-3.7-2-2 3.7-3.7-2-2 3.7-3.7-2-.4.7-.3-1.8-.1-1 .1-.2 1.5.8 2.2 1.2 2-3.7 1.5.8 2.2 1.2 2-3.7 1.5.8 2.2 1.2 2-3.7 1.5.8 2.2 1.2 2-3.7 1.5.8 2.2 1.2 2-3.7 1.5.8 2.2 1.2 2-3.7 1 .6.8 2.4-1.1-.7zM425.4 294l1.5-2.7 1.5.8 2.2 1.2 2-3.7 1.5.8 2.2 1.2 2-3.7 1.5.8 2.2 1.2 2-3.7 1.5.8 2.2 1.2 2-3.7 1.5.8 1.4.8c-.2.5-.5 1-.8 1.5l-1.5-.8-2 3.7-3.7-2-2 3.7-3.7-2-2 3.7-3.7-2-2 3.7-3.7-2-.6 1.2c-.6-.5-1.1-.8-1.5-.8zm-6.4-7.4l.2-.5 1.5.8 2.2 1.2 2-3.7 1.5.8 2.2 1.2 2-3.7 1.5.8 2.2 1.2 2-3.7 1.5.8 2.2 1.2 2-3.7 1.5.8 2.2 1.2 2-3.7 1.5.8 2.2 1.2 2-3.7.8.4c0 .7.1 1.4.1 2l-.3-.1-2 3.7-3.7-2-2 3.7-3.7-2-2 3.7-3.7-2-2 3.7-3.7-2-2 3.7-3.7-2-2 3.7-3.5-1.9c-.4-.7-.8-1.4-1-1.9zm27.3-49.1l2.1-1.8c-.6-3.4-1-6.8-1.1-10.3-.4-9.5.5-17.5-2.3-27-3.2-10.9-8-21-13.9-30.1-7-10.7-15.6-20.1-25.4-27.8-2.8-2.2-6.4-3.4-9.9-3.2-2.5.2-5.1.6-7.7 1.4-3.7 1.1-7.1 2.8-10.1 4.9-3.3 2.3-5.5 6-5.9 10-1.4 11.9-.4 24.2 3.3 36.4.7 2.3 1.5 4.6 2.3 6.8 2.9 7.5 6.7 14.4 11.3 20.6 3.2 4.3 6 8.9 8.4 13.7l.7 1.4c2.4 4.7 4.4 9.6 6 14.6l2.7.5c7.4 1.4 15.1 1 22.6-1.2 6.2-1.7 11.9-4.8 16.9-8.9zm-25.6-2.4c-.6-2 .5-4 2.5-4.6s4 .5 4.6 2.5c.6 2-.5 4-2.5 4.6-1.8.6-3.9-.5-4.6-2.5zm-19.8-88l-1.2 2.2-3.7-2-2 3.7-3.7-2-2 3.7-3.7-2-2 3.7-2.3-1.3c.2-.5.5-1 .8-1.5l.8.4 1.2-2.3c.5-.3 1-.7 1.6-1l.7.4 2.2 1.2 2-3.7 1.5.8 2.2 1.2 1.7-3.2c.4-.1.7-.1 1.1-.1l.7.4 2.2 1.2.5-.9c.4.2.8.4 1.1.7.1.2.2.2.3.4zm7.2 6.2l-.6 1.2-3.7-2-2 3.7-3.7-2-2 3.7-3.7-2-2 3.7-3.7-2-2 3.7-3.7-2-1.5 2.8c0-1.3.1-2.6.2-4l.6-1.2 1.5.8 2.2 1.2 2-3.7 1.5.8 2.2 1.2 2-3.7 1.5.8 2.2 1.2 2-3.7 1.5.8 2.2 1.2 2-3.7 1.5.8 2.2 1.1c.3.4.7.8 1.3 1.3zm5.1 5.3l-1.7-.9-2 3.7-3.7-2-2 3.7-3.7-2-2 3.7-3.7-2-2 3.7-3.7-2-2 3.7-3.7-2-2 3.7-1.5-.8c-.1-.6-.1-1.3-.1-2l.9.4 2-3.7 1.5.8 2.2 1.2 2-3.7 1.5.8 2.2 1.2 2-3.7 1.5.8 2.2 1.2 2-3.7 1.5.8 2.2 1.2 2-3.7 1.5.8 2.2 1.2 1.7-3.2c.8.7 1.7 1.6 2.7 2.8zm4.9 5.6l-1 2.2-3.7-2-2 3.7-3.7-2-2 3.7-3.7-2-2 3.7-3.7-2-2 3.7-3.7-2-2 3.7-3.7-2-2 3.7-2.9-1.6c-.1-.7-.1-1.4-.2-2.1l.3.2 2.2 1.2 2-3.7 1.5.8 2.2 1.2 2-3.7 1.5.8 2.2 1.2 2-3.7 1.5.8 2.2 1.2 2-3.7 1.5.8 2.2 1.2 2-3.7 1.5.8 2.2 1.2 2-3.7 1.5.8 2.2 1.2.6-1.1c.3.3.6.8 1 1.2zm4.5 6.1l-1.3-.7-2 3.7-3.7-2-2 3.7-3.7-2-2 3.7-3.7-2-2 3.7-3.7-2-2 3.7-3.7-2-2 3.7-3.7-2-2 3.7-3.7-2-.1.2c-.2-.9-.4-1.7-.5-2.5l1.4.8 2.2 1.2 2-3.7 1.5.8 2.2 1.2 2-3.7 1.5.8 2.2 1.2 2-3.7 1.5.8 2.2 1.2 2-3.7 1.5.8 2.2 1.2 2-3.7 1.5.8 2.2 1.2 2-3.7 1.5.8 2.2 1.2 1.9-3.6c.6.6 1.3 1.6 2.1 2.9zm4.8 7.4l-.3.6-3.7-2-2 3.7-3.7-2-2 3.7-3.7-2-2 3.7-3.7-2-2 3.7-3.7-2-2 3.7-3.7-2-2 3.7-3.7-2-2 3.7-3.7-2-.3.5c-.1-.2-.2-.5-.2-.8-.2-.5-.3-1-.4-1.5l.3-.5 1.5.8 2.2 1.2 2-3.7 1.5.8 2.2 1.2 2-3.7 1.5.8 2.2 1.2 2-3.7 1.5.8 2.2 1.2 2-3.7 1.5.8 2.2 1.2 2-3.7 1.5.8 2.2 1.2 2-3.7 1.5.8 2.2 1.2 2-3.7 1.5.8 2.2 1.1c0 .4.3 1 .9 1.8zm2.7 5.3l-1.2 2.2-3.7-2-2 3.7-3.7-2-2 3.7-3.7-2-2 3.7-3.7-2-2 3.7-3.7-2-2 3.7-3.7-2-2 3.7-3.7-2-2 3.7-3.7-2-.1.1-.4-1c-.1-.4-.3-.8-.4-1.1l.2-.4 1.5.8 2.2 1.2 2-3.7 1.5.8 2.2 1.2 2-3.7 1.5.8 2.2 1.2 2-3.7 1.5.8 2.2 1.2 2-3.7 1.5.8 2.2 1.2 2-3.7 1.5.8 2.2 1.2 2-3.7 1.5.8 2.2 1.2 2-3.7 1.5.8 2.2 1.2.9-1.7c.3.4.6 1 1 1.9zm2.6 5.4l-1.8 3.3-3.7-2-2 3.7-3.7-2-2 3.7-3.7-2-2 3.7-3.7-2-2 3.7-3.7-2-2 3.7-3.7-2-2 3.7-3.7-2-1.8 3.8-2.4-1.3c-.4-.9-.9-1.8-1.3-2.7l.8.5 2.2 1.2 2-3.7 1.5.8 2.2 1.2 2-3.7 1.5.8 2.2 1.2 2-3.7 1.5.8 2.2 1.2 2-3.7 1.5.8 2.2 1.2 2-3.7 1.5.8 2.2 1.2 2-3.7 1.5.8 2.2 1.2 2-3.7 1.5.8 2.2 1.2 1.6-3c.1.5.4 1.1.7 1.9zm2.4 6.6l-2 3.7-3.7-2-2 3.7-3.7-2-2 3.7-3.7-2-2 3.7-3.7-2-2 3.7-3.7-2-2 3.7-3.7-2-2 3.7-3.7-2-1.8 3.3c-.5-.7-1-1.5-1.5-2.3l.6.3 2-3.7 1.5.8 2.2 1.2 2-3.7 1.5.8 2.2 1.2 2-3.7 1.5.8 2.2 1.2 2-3.7 1.5.8 2.2 1.2 2-3.7 1.5.8 2.2 1.2 2-3.7 1.5.8 2.2 1.2 2-3.7 1.5.8 2.2 1.2 2-3.7.1.1c.3.8.6 1.7.9 2.5l-.3-.2zm0 10.4l-3.7-2-2 3.7-3.7-2-2 3.7-3.7-2-2 3.7-3.7-2-2 3.7-3.7-2-2 3.7-3.7-2-2 3.7-3.7-2-.6 1.2c-.3-.5-.7-1-1.1-1.5l1-1.9 1.5.8 2.2 1.2 2-3.7 1.5.8 2.2 1.2 2-3.7 1.5.8 2.2 1.2 2-3.7 1.5.8 2.2 1.2 2-3.7 1.5.8 2.2 1.2 2-3.7 1.5.8 2.2 1.2 2-3.7 1.5.8 2.2 1.2 2-3.7.5.3c.1.4.2.8.4 1.2.1.4.2.8.4 1.2l-.6-.3-2 3.5zm-1.7 4.7l-1.9 3.5c-.1.1-.2.1-.2.2l-3.6-1.9-2 3.7-3.7-2-2 3.7-3.7-2-2 3.7-3.7-2-2 3.7-3.7-2-1.9 3.6h-.3l-1.9-1-1.8-3 1.2.6 2.2 1.2 2-3.7 1.5.8 2.2 1.2 2-3.7 1.5.8 2.2 1.2 2-3.7 1.5.8 2.2 1.2 2-3.7 1.5.8 2.2 1.2 2-3.7 1.5.8 2.2 1.2 2-3.7 1.5.8 2 1.1c-.4.4-.9.8-1.3 1.2l-1.7-.9z" fill="#2e86b7"/></svg>