<svg xmlns="http://www.w3.org/2000/svg" viewBox="0 0 1920 673" xml:space="preserve"><path fill="#2e86b7" d="M0 0h1920v673H0z"/><path d="M972.2 187.3c-5.9 5.9-9.8 12.1-12.2 18.1-2.4-6-6.2-12.2-12.2-18.1C922.6 162 844 126.5 844 126.5l116 116 116-116s-78.6 35.5-103.8 60.8zm-237.5 142c-5.9 5.9-9.8 12.1-12.2 18.1-2.4-6-6.2-12.2-12.2-18.1-25.3-25.3-103.8-60.8-103.8-60.8l116 116 116-116s-78.6 35.5-103.8 60.8zm475 0c-5.9 5.9-9.8 12.1-12.2 18.1-2.4-6-6.2-12.2-12.2-18.1-25.3-25.3-103.8-60.8-103.8-60.8l116 116 116-116s-78.6 35.5-103.8 60.8zm-633.5 162c-5.9 5.9-9.8 12.1-12.2 18.1-2.4-6-6.2-12.2-12.2-18.1C526.6 466 448 430.5 448 430.5l116 116 116-116s-78.6 35.5-103.8 60.8zm792 0c-5.9 5.9-9.8 12.1-12.2 18.1-2.4-6-6.2-12.2-12.2-18.1-25.3-25.3-103.8-60.8-103.8-60.8l116 116 116-116s-78.6 35.5-103.8 60.8z" fill="#36434f"/><path d="M107.6 192.5h281.8c4.4 0 8-3.6 8-8s-3.6-8-8-8H107.6c-4.4 0-8 3.6-8 8s3.5 8 8 8zm340.4 42H230.9c-4.4 0-8 3.6-8 8s3.6 8 8 8H448c4.4 0 8-3.6 8-8s-3.6-8-8-8zm1250.7-15.4c0-4.4-3.6-8-8-8h-377.2c-4.4 0-8 3.6-8 8s3.6 8 8 8h377.2c4.4 0 8-3.6 8-8zM215.4 517.6h-165c-4.4 0-8 3.6-8 8s3.6 8 8 8h164.9c4.4 0 8-3.6 8-8s-3.5-8-7.9-8zm1144.1-349h60.2c4.4 0 8-3.6 8-8s-3.6-8-8-8h-60.2c-4.4 0-8 3.6-8 8s3.6 8 8 8zm505.2 369.9h-268.8c-4.4 0-8 3.6-8 8s3.6 8 8 8h268.8c4.4 0 8-3.6 8-8s-3.6-8-8-8zM1205 615H894.6c-4.4 0-8 3.6-8 8s3.6 8 8 8H1205c4.4 0 8-3.6 8-8s-3.6-8-8-8zm-302.4-89.4c0-4.4-3.6-8-8-8H740c-4.4 0-8 3.6-8 8s3.6 8 8 8h154.5c4.5 0 8.1-3.6 8.1-8z" fill="#fff" opacity=".5"/></svg>