<svg xmlns="http://www.w3.org/2000/svg" viewBox="0 0 1920 673" xml:space="preserve"><style>.st1{fill:#ddd}.st2{fill:#2e86b7}.st3{fill:#999}.st5{fill:#36434f}.st6{fill:#bbb}</style><path fill="#35965f" d="M0 0h1920v673H0z"/><path class="st1" d="M1417.5 338.5V214.1c0-6.3 5.2-11.5 11.5-11.5h21.1v-1.9c0-12.6-10.3-23-23-23H493c-12.6 0-23 10.3-23 23v212.5h980V350h-21.1c-6.3 0-11.4-5-11.4-11.5z"/><path class="st2" d="M1049 348.1h223.9v15.3H1049v-15.3zm-579 95.7c0 12.6 10.3 23 23 23h934c12.6 0 23-10.3 23-23v-32.5H470v32.5z"/><path class="st3" d="M1037.5 466.8H916.9V231.3c0-4.2 3.4-7.7 7.7-7.7h105.3c4.2 0 7.7 3.4 7.7 7.7v235.5z"/><path class="st1" d="M969.6 457.2h-44c-2.1 0-3.8-1.7-3.8-3.8V237.1c0-2.1 1.7-3.8 3.8-3.8h44c2.1 0 3.8 1.7 3.8 3.8v216.3c0 2.1-1.7 3.8-3.8 3.8zm59.3 0h-44c-2.1 0-3.8-1.7-3.8-3.8V237.1c0-2.1 1.7-3.8 3.8-3.8h44c2.1 0 3.8 1.7 3.8 3.8v216.3c0 2.1-1.7 3.8-3.8 3.8z"/><path class="st3" d="M683.4 466.8H562.8V231.3c0-4.2 3.4-7.7 7.7-7.7h105.3c4.2 0 7.7 3.4 7.7 7.7v235.5z"/><path class="st1" d="M615.5 457.2h-44c-2.1 0-3.8-1.7-3.8-3.8V237.1c0-2.1 1.7-3.8 3.8-3.8h44c2.1 0 3.8 1.7 3.8 3.8v216.3c0 2.1-1.7 3.8-3.8 3.8zm59.3 0h-44c-2.1 0-3.8-1.7-3.8-3.8V237.1c0-2.1 1.7-3.8 3.8-3.8h44c2.1 0 3.8 1.7 3.8 3.8v216.3c0 2.1-1.7 3.8-3.8 3.8z"/><path class="st3" d="M1405 466.8h-120.6V231.3c0-4.2 3.4-7.7 7.7-7.7h105.3c4.2 0 7.7 3.4 7.7 7.7v235.5z"/><path class="st1" d="M1337.1 457.2h-44c-2.1 0-3.8-1.7-3.8-3.8V237.1c0-2.1 1.7-3.8 3.8-3.8h44c2.1 0 3.8 1.7 3.8 3.8v216.3c0 2.1-1.7 3.8-3.8 3.8zm59.3 0h-44c-2.1 0-3.8-1.7-3.8-3.8V237.1c0-2.1 1.7-3.8 3.8-3.8h44c2.1 0 3.8 1.7 3.8 3.8v216.3c0 2.1-1.7 3.8-3.8 3.8z"/><path d="M1450 202.6V350h-21.1c-6.3 0-11.5-5.2-11.5-11.5V214.1c0-6.3 5.2-11.5 11.5-11.5h21.1zm-898.7 90v-70.8c0-6.3-5.2-11.5-11.5-11.5H514c-6.3 0-11.5 5.2-11.5 11.5v70.8c0 6.3 5.2 11.5 11.5 11.5h25.8c6.4 0 11.5-5 11.5-11.5zm414.4 109.1V248.5c0-2.1-1.7-3.8-3.8-3.8h-28.7c-2.1 0-3.8 1.7-3.8 3.8v153.1c0 2.1 1.7 3.8 3.8 3.8h28.7c2.1.1 3.8-1.6 3.8-3.7zm59.4 0V248.5c0-2.1-1.7-3.8-3.8-3.8h-28.7c-2.1 0-3.8 1.7-3.8 3.8v153.1c0 2.1 1.7 3.8 3.8 3.8h28.7c2.1.1 3.8-1.6 3.8-3.7zm-413.5 0V248.5c0-2.1-1.7-3.8-3.8-3.8h-28.7c-2.1 0-3.8 1.7-3.8 3.8v153.1c0 2.1 1.7 3.8 3.8 3.8h28.7c2.1.1 3.8-1.6 3.8-3.7zm59.4 0V248.5c0-2.1-1.7-3.8-3.8-3.8h-28.7c-2.1 0-3.8 1.7-3.8 3.8v153.1c0 2.1 1.7 3.8 3.8 3.8h28.7c2.1.1 3.8-1.6 3.8-3.7zm662.2 0V248.5c0-2.1-1.7-3.8-3.8-3.8h-28.7c-2.1 0-3.8 1.7-3.8 3.8v153.1c0 2.1 1.7 3.8 3.8 3.8h28.7c2.1.1 3.8-1.6 3.8-3.7zm59.4 0V248.5c0-2.1-1.7-3.8-3.8-3.8H1360c-2.1 0-3.8 1.7-3.8 3.8v153.1c0 2.1 1.7 3.8 3.8 3.8h28.7c2.2.1 3.9-1.6 3.9-3.7zm-487.2-76.6V221.8c0-6.3-5.2-11.5-11.5-11.5H706.4c-6.3 0-11.5 5.2-11.5 11.5v103.4c0 6.3 5.2 11.5 11.5 11.5H894c6.3-.1 11.4-5.1 11.4-11.6zm367.5 0V221.8c0-6.3-5.2-11.5-11.5-11.5h-201c-6.3 0-11.5 5.2-11.5 11.5v103.4c0 6.3 5.2 11.5 11.5 11.5h201c6.4-.1 11.5-5.1 11.5-11.6z" fill="#79b1d1"/><path class="st2" d="M694.9 348.1h210.5v15.3H694.9v-15.3zm-224.9 0h81.3v15.3H470v-15.3z"/><path class="st3" d="M1222.8 398c-28.3 0-51.1 23-51.1 51.1 0 6.1 1.1 12.1 3.1 17.6h96.1c2.1-5.6 3.1-11.5 3.1-17.6-.1-28.1-23.1-51.1-51.2-51.1z"/><circle class="st5" cx="1222.8" cy="449.1" r="46.1"/><circle class="st6" cx="1222.8" cy="449.1" r="31.6"/><circle class="st5" cx="1222.8" cy="449.1" r="15.3"/><path class="st3" d="M745.1 398c28.3 0 51.1 23 51.1 51.1 0 6.1-1.1 12.1-3.1 17.6H697c-2.1-5.6-3.1-11.5-3.1-17.6 0-28.1 23-51.1 51.2-51.1z"/><circle class="st5" cx="745.1" cy="449.1" r="46.1"/><circle class="st6" cx="745.1" cy="449.1" r="31.6"/><circle class="st5" cx="745.1" cy="449.1" r="15.3"/><path d="M1025.1 248.5v24.1l-36.4 8.6v-32.7c0-2.1 1.7-3.8 3.8-3.8h28.7c2.2 0 3.9 1.7 3.9 3.8zm-95.7 46.9 36.4-8.6v-38.3c0-.6-.2-1-.2-1.3l-36.2 5.7v42.5zm-234.5 29.7c0 6.3 5.2 11.5 11.5 11.5h48.2L905.4 301v-44l-210.5 33.9v34.2zm605.8-80.4c-2.1 0-3.8 1.7-3.8 3.8v10l35.6-12.2c-.8-1-1.7-1.5-3.1-1.5h-28.7zm-395.8 83.9-31.6 8.2H894c5.1-.2 9.5-3.6 10.9-8.2zm144.1-3.5c0 6.3 5.2 11.5 11.5 11.5h9l203.5-69.9v-33.9L1049 291v34.1zm368.5-111v2.9l32.5-11.1v-3.3h-21.1c-6.3 0-11.4 5.2-11.4 11.5zm-392.4 83.3-36.4 9.4v57.8l36.4-12.4v-54.8zm236.4-87.1h-66.8L1049 233.8v33.3l221.5-52.4c-2.1-2.7-5.4-4.4-9-4.4zM965.7 312.7l-36.4 9.4v62.8l36.4-12.4v-59.8zm-390.4 66.4 36.4-8.6v-66.2l-36.4 5.9v68.9zm63.1 26.4h28.7c2.1 0 3.8-1.7 3.8-3.8V389l-36.4 9.4v3.1c.1 2.3 1.8 4 3.9 4zm-3.8-40.4 36.4-8.6v-61.8l-36.4 5.9v64.5zM608 405.5c.6 0 1-.2 1.5-.4l-1.5.4z" opacity=".2" fill="#fff"/></svg>