<svg xmlns="http://www.w3.org/2000/svg" viewBox="0 0 1920 673" xml:space="preserve"><style>.st2{fill:#ffcc80}</style><path fill="#3bad71" d="M0 0h1920v673H0z"/><path d="M1018 611.3H902c-26.5 0-48-21.5-48-48v-158c0-26.5 21.5-48 48-48h116c26.5 0 48 21.5 48 48v158c0 26.5-21.5 48-48 48z" fill="#2e86b7"/><path class="st2" d="M916 366.3c0 18.8 19.7 34 44 34s44-15.2 44-34c0-3.1-.6-6.1-1.6-9h-84.9c-.9 2.8-1.5 5.9-1.5 9z"/><path class="st2" d="M1059 218.9c-3.2-.8-6.7.7-10 3.8l6.9-67.2c0-50.4-42.9-91.2-95.9-91.2-52.9 0-95.9 40.8-95.9 91.2l6.9 67.2c-3.3-3-6.8-4.4-9.9-3.7-8.2 1.9-11.6 17.1-7.6 34 3.9 16.8 13.8 29 22 27.1.5-.1 1-.3 1.4-.5l.7 6.8c2.4 23.8 15.9 45.4 36.7 58.8l15.8 10.2c7 4.5 15.3 6.9 23.7 6.9h12.3c8.5 0 16.7-2.4 23.7-6.9l15.8-10.2c20.8-13.4 34.3-35 36.7-58.8l.7-6.9c.5.2 1 .4 1.5.5 8.2 1.9 18-10.2 22-27.1 4-16.8.6-32-7.5-34z"/><path d="M1063.8 139.7c-.4-43.1-46.7-78-103.8-78s-103.4 34.9-103.8 78l16.4 99 4.8 3.8c21.1 9.5 50.3 15.3 82.6 15.3s61.5-5.9 82.6-15.3l4.8-3.8 16.4-99z" fill="#36434f"/><path class="st2" d="M873.9 517.2c.6-.5 1.2-1 1.8-1.6.6-.5 1.2-1 1.8-1.6l.9-2.4c.3-.1.6-.2.9-.4.2-.1.4-.2.6-.4.3-.2.6-.3.8-.5 1-.6 2-1.1 2.8-1.8 2.3-2.3 2.9-5.2 1.8-9.4-.1-.2-.3-.4-.5-.6l.8-2.5.1-.1c.2-.1.3-.1.4-.1 3.2-.4 10.7-2.2 10.3-9.2-.1-1.4-.4-2.5-1-3.3l-.1-.2c-.5-.7-1.2-1.3-2.2-1.9-.1-.1-.3-.2-.4-.2h-.4c-.8.1-1.6.2-2.4.4h-.1l.7-2.7.1-.1c7.7-3.3 9.1-4 9.4-4.2 2.4-1.6 3.5-4 3.2-7.1-.2-2.6-3-5.6-5.8-6.2-2.2-.5-4.5.1-6.6.6-.4.1-2 .8-3.7 1.5l.1-2c0-.2.2-.5.3-.7.1-.2.2-.3.2-.5.1-.2.2-.3.3-.5.1-.1.2-.3.4-.5.5-.6 1.2-1.3 1.8-1.9.2-.2.3-.3.5-.4 1-.8 2-1.6 2.9-2.3l.1-.1c.1-.1.3-.2.4-.3.1-.1.2-.2.4-.3 3.1-2.4 6.3-4.6 9.6-6.6 2.7-1.7 5.8-2.9 8.6-4.5 2.6-1.6 6-2.4 7.4-5.4.6-1.2.5-3.1 0-4.4-1.3-3.6-5.3-3.8-8.4-2.4-3.8 1.7-7.5 3.6-11.2 5.3-2.9 1.3-5.9 2.5-8.9 3.8-7.2 3.2-14.2 7.8-21.1 11.7-7.3 4.2-14.6 8.5-21.7 13-1.5.9-3 1.9-4.5 2.8-2.1 1.3-4.1 2.7-6.2 4-1.5 1-2.9 1.9-4.4 2.9-1.5 1-3 2-4.4 3-5.8 3.9-10.9 8.6-16.7 12.4-2.9 1.9-6 3.5-8.9 5.4-4.6 2.9-8.8 6.2-13.4 9.1l24.9 36.3c3.1-2.1 6.1-4.5 9.4-6.4 7-4 14.8-5.1 22.7-6.2 4.7-.7 9.1-2.3 13.4-4.2 2.2-1 4.4-2.2 6.5-3.1 2.3-.9 4.8-1.4 6.7-3z"/><path d="M878.4 511.6c-.1 0-.2 0-.2.1-.4.1-1 .1-1.6 0-.6-.1-1.4-.2-2.1 0-1.3.2-2.7.6-4 1-.6.2-1.2.4-1.8.5-1 .3-2 .5-2.9.8-2.6.7-5.2 1.4-7.8 2-2.8.6-5.1.7-7-.9-.8-.6-1.2-1.6-1.1-2.7.1-1.2.8-2.4 1.8-2.9 2.3-1.3 4.8-2.5 7.3-3.5 1-.4 2-.9 3-1.3 1-.2 1.9-.5 2.8-.8.8-.2 1.6-.5 2.3-.7l.7-.2c2-.6 4.1-1.1 6.2-1.5.9-.2 1.8-.3 2.7-.4 1.5-.2 3-.4 4.5-.9.4-.1.7-.2 1.1-.3.9-.3 1.8-.6 2.7-.8l.8-2.5.1-.1s-.1 0-.2.1c-1.5.2-2.9.6-4.2 1.1-.3.1-.7.2-1 .3-1.3.4-2.7.6-4.1.8-1 .1-1.9.3-2.9.5-2.1.5-4.3 1-6.3 1.6l-.7.2c-.8.2-1.6.5-2.4.7-1.6.5-3.2 1-4.7 1.2-.4.1-1.4-.4-2-1.1-1.3-1.4-2.6-2.8-3.4-4.5.1-.1.2-.3.4-.4 1.1-1.3 2.2-2.6 3.3-4l3-1.2c.7-.2 1.3-.5 2-.8.3-.1.7-.3 1-.4.2-.1.4-.1.5-.2.9.5 2 .9 3.3 1.1h.2c1.4.2 3.2.5 4.6-.1 2.5-1.2 5.1-2.6 7.5-4 .5.1.9.1 1.4.2 4.2.5 7.1-1.4 8.8-5.7l.7-2.8.1-.1h-.1c.3-3.3-1.6-6.5-5.5-9-1.5-1-3.1-1.8-4.6-2.6.4-.4.9-.7 1.3-1 1.1-.7 3.4-1.9 5.4-2.8l.1-2c0-.2.2-.5.3-.7v-.1.1c-2.5 1.1-5.8 2.7-7.2 3.6-.8.5-1.5 1.1-2.2 1.7-.7-.4-1.4-.8-2.2-1.2-.6-.3-1.1-.7-1.7-1.1-.9-.6-1.9-1.3-3-1.7-2.8-1.2-5.4-.4-7.8.3-1.1.3-2 .6-3 .7-2.5.3-4.9 1.1-7.2 1.8-1.3.4-2.8.9-4.1 1.2-.6.2-1.4.3-2.3.5-.8.2-1.6.4-2.6.6-2.1 1.3-4.1 2.7-6.2 4 3.2-.9 6.8-1.8 9.3-2.4.9-.2 1.7-.4 2.3-.5 1.5-.4 2.9-.8 4.3-1.3 2.3-.7 4.5-1.4 6.8-1.7 1.1-.2 2.3-.5 3.4-.8 2.1-.6 4.2-1.2 6.2-.4.9.4 1.7.9 2.6 1.5.6.4 1.2.8 1.9 1.2l3.3 1.8c1.9 1 3.7 2 5.5 3.1 2.6 1.6 5.4 4.4 4.2 8-1.4 4.1-3.4 5.7-6.8 5.3-5.8-.7-11.3-1.6-16-4.6-.7-.4-1.3 0-1.6.1l-.1.1c-1.1.2-1.8.6-2.3 1.2-1.1.5-6.9 3.3-11.8 3.6-1.4.1-3.3-.1-5.6-.6-.6-.1-1.2.2-1.4.9-.1.3 0 .7.2.9.2.2.4.4.7.5 2.5.5 4.6.8 6.2.7 3.6-.3 7.5-1.6 10.1-2.7-.1.3-.2.7-.4.9-2.1 3.4-4.4 6.4-6.8 9.1-2.4 2.7-5.3 5.8-8.7 8.3-.5.4-.6 1.1-.3 1.6.4.5 1.1.6 1.6.2 2.6-2 5-4.3 7-6.4.2.3.3.5.5.8.9 1.3 1.9 2.4 2.9 3.5.3.3.7.6 1.2 1-2.2 1-4.3 2-6.4 3.2-1.6 1-2.7 2.8-2.9 4.8-.1 1.3.2 2.6.9 3.6.3.4.6.8 1 1.1 2.9 2.3 6 2 9 1.4 2.7-.6 5.4-1.3 7.9-2 1-.3 2-.5 2.9-.8.6-.2 1.2-.3 1.8-.5 1.3-.4 2.5-.7 3.7-.9.4-.1.9 0 1.5 0 .4.1.8.1 1.2.1l1.2-2.6zm-16.9-23c-.6.2-1.1.4-1.7.6.4-.6.9-1.3 1.3-2 .1-.1.1-.2.2-.3.2.5.4 1 .7 1.4-.2.2-.3.3-.5.3zm2.4-1.4c-.7-.9-.8-2.3-.5-4 .1-.1.3-.1.5-.1s.4-.1.5-.2c3.5 2.1 7.3 3.2 11.3 3.9-1.6.9-3.1 1.7-4.7 2.5-.7.4-2.1.1-3.2 0h-.2c-1.8-.6-3-1.2-3.7-2.1z" opacity=".15" fill="#444"/></svg>