<svg xmlns="http://www.w3.org/2000/svg" viewBox="0 0 1920 673" xml:space="preserve"><style>.st1{fill:#e0ac7e}.st2{fill:#cc584c}.st3{fill:#ffcc80}.st4,.st5{opacity:.3;fill:#fff;enable-background:new}.st5{opacity:.15;fill:#444}</style><path fill="#7193ad" d="M0 0h1920v673H0z"/><path class="st1" d="m882.8 549.2-11.5-18.7c-10.7-17.4-17.5-37-19.7-57.4L836 333.5c-5.1-45.3-30.2-85.9-68.4-110.6L715 178l-36-2-36 2-52.6 44.9c-38.3 24.7-63.4 65.3-68.4 110.6l-15.6 139.6c-2.3 20.3-9 39.9-19.7 57.4l-11.5 18.7c-8.8 14.3 1.5 32.8 18.3 32.8h371c16.8 0 27.1-18.5 18.3-32.8zM750.7 71.5 724.1 70c-5.4-.3-10.4 2.9-12.4 7.9l-3.1 7.7c-.9 2.2-3.2 3.5-5.6 3L690.6 86c-7.6-1.6-15.5-1.6-23.1 0L655 88.7c-2.3.5-4.7-.8-5.6-3l-3-7.7c-2-5-7-8.2-12.4-7.9l-26.6 1.4c-15.9.9-24.1 19.4-14 31.7L643 164l1 1.5h70l1-1.5 49.6-60.8c10.1-12.3 2-30.9-13.9-31.7z"/><path class="st2" d="M643 164h72v14h-72v-14z"/><path class="st3" d="M752 438.5H606c-3.3 0-6-2.7-6-6v-73c0-3.3 2.7-6 6-6h146c3.3 0 6 2.7 6 6v73c0 3.3-2.7 6-6 6z"/><path class="st4" d="M764.9 87.6c-7 7-17.3 11.4-28.9 11.4-10.5 0-20-3.6-26.9-9.5-1-.9-1.3-2.3-.7-3.5 0-.1.1-.2.1-.3l3.1-7.7c2-5 7-8.2 12.4-7.9l26.6 1.4c6.6.4 11.8 3.7 15 8.4 1.7 2.4 1.4 5.6-.7 7.7zm-115.4-1.9-3.1-7.7c-2-5-7-8.2-12.4-7.9l-26.6 1.4c-6.6.4-11.8 3.7-15 8.4-1.6 2.4-1.3 5.6.8 7.7 7 7 17.3 11.4 28.9 11.4 10.5 0 20-3.6 26.9-9.5 1-.9 1.3-2.3.7-3.5-.2-.1-.2-.2-.2-.3z"/><path class="st5" d="M667.4 86 655 88.7c-2.3.5-4.7-.8-5.6-3l-3-7.7c-2-5-7-8.2-12.4-7.9l-26.6 1.4c-.5 0-.9.1-1.4.1-.1 0-.3 0-.4.1-.3 0-.6.1-.9.1-.2 0-.3.1-.5.1-.3.1-.6.1-.8.2-.2 0-.3.1-.5.1l-.9.3c-.1 0-.2.1-.4.1-.4.1-.8.3-1.2.5-.1 0-.1.1-.2.1-.3.1-.6.3-.9.4-.1.1-.3.1-.4.2-.2.1-.5.3-.7.4-.1.1-.3.2-.4.2-.2.1-.4.3-.6.4-.1.1-.2.2-.4.3-.2.2-.5.4-.7.5-.1.1-.2.1-.3.2-.3.3-.6.5-.9.8l-.2.2-.6.6-.3.3c-.2.2-.3.4-.5.6-.1.1-.2.3-.3.4-.2.2-.3.4-.4.6-.1.1-.2.2-.3.4l-.1.1v.1c-4.5 6.7-4.8 16 1.1 23.2L643 164v14l-52.6 44.9c-38.3 24.7-63.4 65.3-68.4 110.6l-15.6 139.6c-2.3 20.3-9 39.9-19.7 57.4l-11.5 18.7c-8.8 14.3 1.5 32.8 18.3 32.8H679V84.8c-3.9 0-7.8.4-11.6 1.2z"/><path class="st1" d="m1441.3 549.2-11.5-18.7c-10.7-17.4-17.5-37-19.7-57.4l-15.6-139.6c-5.1-45.3-30.2-85.9-68.4-110.6l-52.6-44.9-36-2-36 2-52.6 44.9c-38.3 24.7-63.4 65.3-68.4 110.6l-15.6 139.6c-2.3 20.3-9 39.9-19.7 57.4l-11.5 18.7c-8.8 14.3 1.5 32.8 18.3 32.8h371c16.8 0 27.1-18.5 18.3-32.8zM1309.2 71.5l-26.6-1.5c-5.4-.3-10.4 2.9-12.4 7.9l-3.1 7.7c-.9 2.2-3.2 3.5-5.6 3l-12.4-2.6c-7.6-1.6-15.5-1.6-23.1 0l-12.5 2.7c-2.3.5-4.7-.8-5.6-3l-3-7.7c-2-5-7-8.2-12.4-7.9l-26.6 1.4c-15.9.9-24.1 19.4-14 31.7l49.6 60.8 1 1.5h70l1-1.5 49.6-60.8c10.1-12.3 2-30.9-13.9-31.7z"/><path class="st2" d="M1201.5 164h72v14h-72v-14z"/><path class="st3" d="M1310.5 438.5h-146c-3.3 0-6-2.7-6-6v-73c0-3.3 2.7-6 6-6h146c3.3 0 6 2.7 6 6v73c0 3.3-2.7 6-6 6z"/><path class="st4" d="M1323.4 87.6c-7 7-17.3 11.4-28.9 11.4-10.5 0-20-3.6-26.9-9.5-1-.9-1.3-2.3-.7-3.5 0-.1.1-.2.1-.3l3.1-7.7c2-5 7-8.2 12.4-7.9l26.6 1.4c6.6.4 11.8 3.7 15 8.4 1.7 2.4 1.4 5.6-.7 7.7zM1208 85.7l-3.1-7.7c-2-5-7-8.2-12.4-7.9l-26.6 1.4c-6.6.4-11.8 3.7-15 8.4-1.6 2.4-1.3 5.6.8 7.7 7 7 17.3 11.4 28.9 11.4 10.5 0 20-3.6 26.9-9.5 1-.9 1.3-2.3.7-3.5-.2-.1-.2-.2-.2-.3z"/><path class="st5" d="m1225.9 86-12.4 2.7c-2.3.5-4.7-.8-5.6-3l-3-7.7c-2-5-7-8.2-12.4-7.9l-26.6 1.4c-.5 0-.9.1-1.4.1-.1 0-.3 0-.4.1-.3 0-.6.1-.9.1-.2 0-.3.1-.5.1-.3.1-.6.1-.8.2-.2 0-.3.1-.5.1l-.9.3c-.1 0-.2.1-.4.1-.4.1-.8.3-1.2.5-.1 0-.1.1-.2.1-.3.1-.6.3-.9.4-.1.1-.3.1-.4.2-.2.1-.5.3-.7.4-.1.1-.3.2-.4.2-.2.1-.4.3-.6.4-.1.1-.2.2-.4.3-.2.2-.5.4-.7.5-.1.1-.2.1-.3.2-.3.3-.6.5-.9.8l-.2.2-.6.6-.3.3c-.2.2-.3.4-.5.6-.1.1-.2.3-.3.4-.2.2-.3.4-.4.6-.1.1-.2.2-.3.4l-.1.1v.1c-4.5 6.7-4.8 16 1.1 23.2l49.7 60.9v14l-52.6 44.9c-38.3 24.7-63.4 65.3-68.4 110.6l-15.6 139.6c-2.3 20.3-9 39.9-19.7 57.4l-11.5 18.7c-8.8 14.3 1.5 32.8 18.3 32.8h185.5V84.8c-3.9 0-7.8.4-11.6 1.2z"/><path d="M992 84.5c0-2.2-1.8-4-4-4h-56c-2.2 0-4 1.8-4 4v6l15 7.5v456.1c0 5.5 1.4 11 4.2 15.8l12.8 22.6 12.8-22.7c2.7-4.8 4.2-10.2 4.2-15.8V98l15-7.5v-6z" fill="#ddd"/><path d="M977 140.5h-34c-1.1 0-2-.9-2-2s.9-2 2-2h34c1.1 0 2 .9 2 2s-.9 2-2 2zm0 14h-34c-1.1 0-2-.9-2-2s.9-2 2-2h34c1.1 0 2 .9 2 2s-.9 2-2 2zm0 14h-34c-1.1 0-2-.9-2-2s.9-2 2-2h34c1.1 0 2 .9 2 2s-.9 2-2 2zm0 14h-34c-1.1 0-2-.9-2-2s.9-2 2-2h34c1.1 0 2 .9 2 2s-.9 2-2 2zm0 14h-34c-1.1 0-2-.9-2-2s.9-2 2-2h34c1.1 0 2 .9 2 2s-.9 2-2 2zm0 14h-34c-1.1 0-2-.9-2-2s.9-2 2-2h34c1.1 0 2 .9 2 2s-.9 2-2 2zm0 14h-34c-1.1 0-2-.9-2-2s.9-2 2-2h34c1.1 0 2 .9 2 2s-.9 2-2 2zm0 14h-34c-1.1 0-2-.9-2-2s.9-2 2-2h34c1.1 0 2 .9 2 2s-.9 2-2 2zm-43-145 9 4.5v4.5h34V98l9-4.5h-52z" fill="#bbb"/><path class="st5" d="M932 80.5c-2.2 0-4 1.8-4 4v6l6 3 9 4.5v38.5c-1.1 0-2 .9-2 2s.9 2 2 2v10c-1.1 0-2 .9-2 2s.9 2 2 2v10c-1.1 0-2 .9-2 2s.9 2 2 2v10c-1.1 0-2 .9-2 2s.9 2 2 2v10c-1.1 0-2 .9-2 2s.9 2 2 2v10c-1.1 0-2 .9-2 2s.9 2 2 2v10c-1.1 0-2 .9-2 2s.9 2 2 2v10c-1.1 0-2 .9-2 2s.9 2 2 2v315.6c0 5.5 1.4 11 4.2 15.8l12.8 22.6v-512h-28z"/></svg>