<svg xmlns="http://www.w3.org/2000/svg" viewBox="0 0 1920 673" xml:space="preserve"><style>.st3{fill:#2e86b7}.st4{fill:#cc584c}</style><path fill="#3aaf9d" d="M0 0h1920v673H0z"/><path fill="#fff" d="M668 44.5h584v584H668z"/><path d="M1244 44.5H668v584h584v-584h-8zm-480 576h-88v-88h88v88zm0-96h-88v-88h88v88zm0-96h-88v-88h88v88zm0-96h-88v-88h88v88zm0-96h-88v-88h88v88zm0-96h-88v-88h88v88zm96 480h-88v-88h88v88zm0-96h-88v-88h88v88zm0-96h-88v-88h88v88zm0-96h-88v-88h88v88zm0-96h-88v-88h88v88zm0-96h-88v-88h88v88zm96 480h-88v-88h88v88zm0-96h-88v-88h88v88zm0-96h-88v-88h88v88zm0-96h-88v-88h88v88zm0-96h-88v-88h88v88zm0-96h-88v-88h88v88zm96 480h-88v-88h88v88zm0-96h-88v-88h88v88zm0-96h-88v-88h88v88zm0-96h-88v-88h88v88zm0-96h-88v-88h88v88zm0-96h-88v-88h88v88zm96 480h-88v-88h88v88zm0-96h-88v-88h88v88zm0-96h-88v-88h88v88zm0-96h-88v-88h88v88zm0-96h-88v-88h88v88zm0-96h-88v-88h88v88zm96 480h-88v-88h88v88zm0-96h-88v-88h88v88zm0-96h-88v-88h88v88zm0-96h-88v-88h88v88zm0-96h-88v-88h88v88zm0-96h-88v-88h88v88z" fill="#ddd"/><path class="st3" d="M772 140.5h88v8h-88z"/><path class="st4" d="M868 332.5h88v8h-88z"/><path class="st3" d="M764 148.5h8v88h-8z"/><path class="st4" d="M868 236.5h88v8h-88z"/><path class="st3" d="M860 148.5h8v88h-8z"/><path class="st4" d="M772 236.5h88v8h-88zm184 8h8v88h-8z"/><path class="st3" d="M860 244.5h8v88h-8zm104-8h88v8h-88z"/><path class="st4" d="M816 168.5c13.2 0 24 10.8 24 24s-10.8 24-24 24-24-10.8-24-24 10.8-24 24-24m0-8c-17.6 0-32 14.4-32 32s14.4 32 32 32 32-14.4 32-32-14.4-32-32-32z"/><path class="st3" d="m937.4 268.7-5.6-5.6-19.8 19.8-19.8-19.8-5.6 5.6 19.8 19.8-19.8 19.8 5.6 5.6 19.8-19.8 19.8 19.8 5.6-5.6-19.8-19.8z"/></svg>