<svg xmlns="http://www.w3.org/2000/svg" viewBox="0 0 1920 673" xml:space="preserve"><style>.st4{fill:#36434f}.st6{fill:#f4f4f4}</style><path fill="#46559e" d="M0 0h1920v673H0z"/><path d="M594.8 394.9h-70.1V124.6l-83.7 26v-57l146.3-52.4h7.5v353.7zm480.7 0H833.3v-48L947.6 225c15.7-17.1 27.3-32.1 34.8-44.9 7.5-12.8 11.3-24.9 11.3-36.4 0-15.7-4-28-11.9-37s-19.3-13.5-34-13.5c-15.9 0-28.4 5.5-37.5 16.4-9.1 10.9-13.7 25.3-13.7 43.1h-70.4c0-21.5 5.1-41.2 15.4-59C852 76 866.5 62 885.3 51.9c18.8-10.1 40-15.2 63.8-15.2 36.4 0 64.7 8.7 84.8 26.2 20.1 17.5 30.2 42.1 30.2 74 0 17.5-4.5 35.3-13.6 53.4s-24.6 39.2-46.6 63.3l-80.3 84.7h151.9v56.6zm238-207.7h37.4c17.8 0 31-4.4 39.5-13.3 8.6-8.9 12.9-20.7 12.9-35.4 0-14.2-4.2-25.3-12.7-33.2-8.5-7.9-20.2-11.9-35.1-11.9-13.4 0-24.7 3.7-33.7 11-9.1 7.4-13.6 16.9-13.6 28.8h-70.1c0-18.4 5-35 14.9-49.6 9.9-14.6 23.9-26.1 41.7-34.3 17.9-8.2 37.6-12.4 59.1-12.4 37.4 0 66.6 8.9 87.8 26.8 21.2 17.9 31.8 42.5 31.8 73.9 0 16.2-4.9 31.1-14.8 44.6-9.9 13.6-22.8 24-38.8 31.3 19.9 7.1 34.7 17.8 44.5 32 9.8 14.2 14.7 31.1 14.7 50.5 0 31.4-11.4 56.5-34.3 75.5-22.9 18.9-53.2 28.4-90.9 28.4-35.3 0-64.1-9.3-86.5-27.9-22.4-18.6-33.6-43.2-33.6-73.8h70.1c0 13.3 5 24.1 14.9 32.5 9.9 8.4 22.2 12.6 36.8 12.6 16.7 0 29.7-4.4 39.2-13.2 9.5-8.8 14.2-20.5 14.2-35.1 0-35.3-19.4-52.9-58.2-52.9h-37.1v-54.9z" fill="#fff" opacity=".2"/><path d="M1088.9 410c-4.2-1-8.7.8-13 4.8l8.9-87.6c0-65.6-55.9-118.7-124.8-118.7s-124.8 53.1-124.8 118.7l8.9 87.6c-4.3-4-8.8-5.8-13-4.8-10.6 2.5-15.1 22.3-9.9 44.3 5.1 22 17.9 37.7 28.5 35.3.7-.2 1.3-.3 1.9-.7l.9 8.8c0 .1 8.4 8.7 8.4 8.8 3.3 30.9 12.4 50.4 39.4 67.9l20.6 13.3c9.1 5.9 19.9 9 30.9 9H968c11 0 21.8-3.1 30.9-9l20.6-13.3c27.1-17.4 36.2-37 39.4-67.9 0-.1 8.4-8.6 8.4-8.7l.9-8.8c.6.3 1.3.5 1.9.7 10.6 2.5 23.4-13.3 28.5-35.3 5.4-22 .9-41.9-9.7-44.4z" fill="#ffcc80"/><path class="st4" d="M1095.2 306.8c-.5-56.2-60.9-101.6-135.2-101.6s-134.7 45.4-135.2 101.6l21.4 128.9 6.2-127.3c27.5 12.3 65.6 20 107.6 20s80.1-7.7 107.6-20l6.2 127.3 21.4-128.9zm-83.9 200.5-11.4-3.9c-11.1-3.8-22.8-5.7-34.6-5.7h-10.4c-11.8 0-23.4 1.9-34.6 5.7l-11.4 3.9c-13 4.4-27.2 3.7-39.7-2l-16.5-7.6 12 75.9c3.5 22 16.7 41.3 36 52.4 11.6 6.7 24.8 10.2 38.2 10.2h42.7c13.4 0 26.6-3.5 38.2-10.2 19.3-11.1 32.6-30.4 36-52.4l12-75.9-16.5 7.6c-12.8 5.7-27 6.4-40 2z"/><path d="M960 486.8c-7.4 0-13.5-6.1-13.5-13.5v-10.1c0-7.4 6.1-13.5 13.5-13.5s13.5 6.1 13.5 13.5v10.1c0 7.5-6.1 13.5-13.5 13.5zm31.1 40.4c0 7.4-6.1 13.5-13.5 13.5h-35.4c-7.4 0-13.5-6.1-13.5-13.5s6.1-13.5 13.5-13.5h35.4c7.5.1 13.5 6.1 13.5 13.5z" fill="#e3b877"/><circle class="st4" cx="908.6" cy="416.1" r="20.2"/><ellipse class="st6" cx="919.8" cy="412.3" rx="5.7" ry="6.5"/><circle class="st4" cx="1011.4" cy="416.1" r="20.2"/><ellipse class="st6" cx="1022.6" cy="412.3" rx="5.7" ry="6.5"/><path d="m824.8 306.8 17.7 106.7c-3.8-2.9-7.7-4.3-11.4-3.5-10.6 2.5-15.1 22.3-9.9 44.3 5.1 22 17.9 37.7 28.5 35.3.7-.2 1.3-.3 1.9-.7l.9 8.8 12 75.9c3.5 22 16.7 41.3 36 52.4 11.6 6.7 24.8 10.2 38.2 10.2H960v-431c-74.3 0-134.7 45.4-135.2 101.6z" opacity=".15" fill="#444"/></svg>