<svg version="1.1" xmlns="http://www.w3.org/2000/svg" x="0" y="0" viewBox="0 0 512 82" xml:space="preserve"><path d="M56.6 34.6c0 6.3-1.2 11.9-3.5 16.7-2.3 4.9-5.7 8.6-10 11.2-4.3 2.6-9.2 3.9-14.7 3.9S18 65.2 13.7 62.7c-4.3-2.5-7.6-6.2-10-10.9S.1 41.7 0 35.6V32c0-6.3 1.2-11.9 3.5-16.8S9.1 6.6 13.5 4s9.3-4 14.8-4S38.7 1.3 43 4s7.6 6.3 10 11.1c2.4 4.8 3.6 10.3 3.6 16.5v3zm-15.9-2.7c0-6.4-1.1-11.3-3.2-14.6s-5.2-5-9.2-5c-7.8 0-12 5.9-12.4 17.6v4.8c0 6.3 1.1 11.2 3.2 14.6 2.1 3.4 5.2 5.1 9.4 5.1 3.9 0 7-1.7 9.1-5 2.1-3.3 3.2-8.2 3.2-14.4v-3.1zm83 49.6h-14V65.6H74.5v15.9H60l-1.1-27.9h4.6c2.4-1.6 4.3-4.3 5.8-8.2 1.5-3.9 2.5-9.5 3.1-16.8l2-27.7h44v52.7h6.9l-1.6 27.9zM81.1 53.6h21.8V13H89.1l-1.2 16.2c-.9 10.4-3.1 18.6-6.8 24.4zm99-40.6h-19.4v52.6h-15.6V13H126V1h54.1v12zM240.5.9v64.7H225V41.7l-4.6.6-5.7.4c-8.7 0-15.4-1.9-20-5.7-4.6-3.8-7-9.1-7-16V1h15.6v19.8c0 3.5.9 6.1 2.6 7.6s4.7 2.3 8.9 2.3h1.3c3.6-.2 6.6-.5 9-.8V.9h15.4zm64.1 64.7H289V13h-23.2v52.6h-15.6V.9h54.4v64.7zM329.5.9v52.7h16.1V.9h15.6v52.7h15.9V.9h15.5v64.7h-78.7V.9h15.6zm125 42.8c-.2 4.5-1.4 8.5-3.6 11.9-2.2 3.5-5.3 6.1-9.4 8-4 1.9-8.6 2.8-13.8 2.8-8.5 0-15.2-2.8-20.1-8.3-4.9-5.5-7.3-13.4-7.3-23.5v-3.2c0-6.3 1.1-11.9 3.3-16.6 2.2-4.8 5.4-8.4 9.5-11 4.1-2.6 8.9-3.9 14.4-3.9 7.8 0 14.2 2.1 18.9 6.2s7.5 9.8 8.1 17.1h-15.6c-.1-3.9-1.1-6.8-3-8.5s-4.7-2.6-8.5-2.6c-3.9 0-6.7 1.5-8.5 4.4-1.8 2.9-2.8 7.5-2.8 13.9V35c0 6.9.9 11.8 2.6 14.8 1.7 3 4.7 4.4 9 4.4 3.6 0 6.3-.8 8.2-2.5 1.9-1.7 2.9-4.4 3-8h15.6zm7.4 21.9V.9h23.2c8.3 0 14.7 1.5 19 4.6s6.5 7.5 6.5 13.3c0 3.3-.8 6.2-2.3 8.6-1.5 2.4-3.8 4.1-6.8 5.2 3.4.9 6 2.5 7.8 5 1.8 2.4 2.7 5.4 2.7 8.9 0 6.3-2 11.1-6 14.3-4 3.2-10 4.8-17.8 4.9h-26.3zm15.6-37.7h8.1c3.4 0 5.8-.7 7.3-1.9s2.2-3 2.2-5.4c0-2.7-.8-4.7-2.4-5.9-1.6-1.2-4.1-1.8-7.6-1.8h-7.6v15zm0 10.2v15.5h10.2c2.8 0 5-.6 6.5-1.9s2.3-3.1 2.3-5.4c0-5.4-2.7-8.1-8-8.1h-11z" fill="#36434f"/></svg>