<svg xmlns="http://www.w3.org/2000/svg" viewBox="0 0 1920 673" xml:space="preserve"><style>.st5{fill:#eec646}.st6{fill:#f1dd9d}.st7,.st8{opacity:.3;fill:#444;enable-background:new}.st8{opacity:.15}</style><path fill="#038387" d="M0 0h1920v673H0z"/><path d="M1236.6 631.5H683.4c-10.1 0-18.4-8.3-18.4-18.4V59.9c0-10.1 8.3-18.4 18.4-18.4h553.1c10.1 0 18.4 8.3 18.4 18.4V613c.1 10.2-8.2 18.5-18.3 18.5z" fill="#ddd"/><path d="M1218.1 69.2H1081c-5.1 0-9.2 4.1-9.2 9.2v81.8c0 5.1-4.1 9.2-9.2 9.2H857.4c-5.1 0-9.2-4.1-9.2-9.2V78.4c0-5.1-4.1-9.2-9.2-9.2H701.9c-5.1 0-9.2 4.1-9.2 9.2v516.3c0 5.1 4.1 9.2 9.2 9.2h516.3c5.1 0 9.2-4.1 9.2-9.2V78.4c-.1-5.1-4.2-9.2-9.3-9.2z" fill="#bbb"/><path d="M1039.5 145.2h-159c-5.1 0-9.2-4.1-9.2-9.2V74.9c0-5.1 4.1-9.2 9.2-9.2h159c5.1 0 9.2 4.1 9.2 9.2V136c0 5.1-4.1 9.2-9.2 9.2z" fill="#999"/><path d="m973.8 112.5-5.4-5.4-2.7 2.7v28.1l8.1-10.4v-15zm0-14.1v-15L965.7 73v28.1l2.7 2.7 5.4-5.4zm6.9-16.8h5.4l8.1-10.4h-27l8.1 10.4h5.4zm-5.3 18.4-5.4 5.4 5.4 5.4H986l5.4-5.4-5.4-5.4h-10.6zm5.3 29.3h-5.4l-8.1 10.4h27l-8.1-10.4h-5.4zm7-16.8v15l8.1 10.4v-28.1l-2.7-2.7-5.4 5.4zm0-29.1v15l5.4 5.4 2.7-2.7v-28l-8.1 10.3zm27.6 15v-15l-8.1-10.4v28.1l2.7 2.7 5.4-5.4zm6.9-16.8h5.4l8.1-10.4h-27l8.1 10.4h5.4zm-5.3 18.4-5.4 5.4 5.4 5.4h10.6l5.4-5.4-5.4-5.4h-10.6zm5.3 29.3h-5.4l-8.1 10.4h27l-8.1-10.4h-5.4zm6.9-16.8v15l8.1 10.4v-28.1l-2.7-2.7-5.4 5.4zM998 132.8h6.9v6.9H998v-6.9z" fill="#36434f"/><circle class="st5" cx="788" cy="251" r="50"/><path class="st6" d="M788 208.4c5.7 0 11.3 1.1 16.6 3.3 5.1 2.1 9.6 5.2 13.5 9.1s7 8.5 9.1 13.5c2.2 5.3 3.3 10.8 3.3 16.6s-1.1 11.3-3.3 16.6c-2.1 5.1-5.2 9.6-9.1 13.5s-8.5 7-13.5 9.1c-5.3 2.2-10.8 3.3-16.6 3.3s-11.3-1.1-16.6-3.3c-5.1-2.1-9.6-5.2-13.5-9.1s-7-8.5-9.1-13.5c-2.2-5.3-3.3-10.8-3.3-16.6s1.1-11.3 3.3-16.6c2.1-5.1 5.2-9.6 9.1-13.5s8.5-7 13.5-9.1c5.3-2.1 10.9-3.3 16.6-3.3m0-3.1c-25.2 0-45.7 20.5-45.7 45.7s20.5 45.7 45.7 45.7 45.7-20.5 45.7-45.7-20.5-45.7-45.7-45.7z"/><path class="st7" d="m796.7 238.5-.8-3h-12.1l-1.3 10.3c.8-.6 1.9-1.1 3-1.5s2.5-.6 3.9-.6c4.3-.1 7.6 1.3 10 3.9 2.4 2.7 3.5 6.4 3.5 11.1 0 4.3-1.3 7.9-3.9 10.7s-6.3 4.3-11.2 4.3c-4.1 0-7.6-1.1-10.5-3.4s-4.4-5.3-4.2-9.3l.1-.2 8.6-.4c0 2 .6 3.5 1.7 4.7 1.1 1.1 2.6 1.7 4.4 1.7 2.1 0 3.6-.7 4.6-2.2 1-1.5 1.5-3.4 1.5-5.8 0-2.6-.5-4.6-1.6-6.2s-2.7-2.3-4.8-2.3c-1.7 0-3 .3-3.9 1s-1.6 1.5-2 2.6l-7.9-.5 2.6-25h25.8v10.2l-5.5-.1z"/><circle class="st6" cx="762.5" cy="225.5" r="1.6"/><circle class="st6" cx="758" cy="231" r="1.6"/><circle class="st6" cx="774.2" cy="284.4" r="1.6"/><circle class="st6" cx="758" cy="271.1" r="1.6"/><path class="st6" d="M774.8 219.1c.8-.3 1.2-1.3.9-2.1s-1.3-1.2-2.1-.9-1.2 1.3-.9 2.1 1.3 1.2 2.1.9zm-6 60.6c-.7-.5-1.7-.3-2.2.4-.5.7-.3 1.7.4 2.2.7.5 1.7.3 2.2-.4.5-.7.3-1.7-.4-2.2z"/><circle class="st6" cx="767.9" cy="221" r="1.6"/><circle class="st6" cx="762.5" cy="276.5" r="1.6"/><circle class="st6" cx="752.6" cy="244" r="1.6"/><path class="st6" d="M794.7 217.2c.9.2 1.7-.4 1.8-1.2.2-.9-.4-1.7-1.2-1.8-.9-.2-1.7.4-1.8 1.2-.2.8.4 1.6 1.2 1.8z"/><circle class="st6" cx="821.4" cy="237.2" r="1.6"/><circle class="st6" cx="823.4" cy="243.9" r="1.6"/><circle class="st6" cx="754.6" cy="264.8" r="1.6"/><circle class="st6" cx="751.9" cy="251" r="1.6"/><circle class="st6" cx="754.7" cy="237.2" r="1.6"/><circle class="st6" cx="752.6" cy="258.1" r="1.6"/><path class="st6" d="M781.3 284.9c-.9-.2-1.7.4-1.8 1.2-.2.9.4 1.7 1.2 1.8.9.2 1.7-.4 1.8-1.2s-.4-1.6-1.2-1.8z"/><circle class="st6" cx="818" cy="271.1" r="1.6"/><circle class="st6" cx="818" cy="230.9" r="1.6"/><circle class="st6" cx="813.5" cy="225.5" r="1.6"/><circle class="st6" cx="813.5" cy="276.6" r="1.6"/><circle class="st6" cx="824.1" cy="251" r="1.6"/><circle class="st6" cx="823.4" cy="258.1" r="1.6"/><circle class="st6" cx="780.9" cy="215.6" r="1.6"/><circle class="st6" cx="821.3" cy="264.8" r="1.6"/><circle class="st6" cx="795.1" cy="286.4" r="1.6"/><circle class="st6" cx="788" cy="214.9" r="1.6"/><circle class="st6" cx="788" cy="287.1" r="1.6"/><circle class="st6" cx="808.1" cy="221" r="1.6"/><circle class="st6" cx="808.1" cy="281" r="1.6"/><circle class="st6" cx="801.8" cy="284.4" r="1.6"/><circle class="st6" cx="801.8" cy="217.7" r="1.6"/><path class="st8" d="M738 251c0 27.6 22.4 50 50 50V201c-27.6 0-50 22.4-50 50z"/><circle class="st5" cx="1083" cy="297" r="50"/><path class="st6" d="M1083 254.4c5.7 0 11.3 1.1 16.6 3.3 5.1 2.1 9.6 5.2 13.5 9.1s7 8.5 9.1 13.5c2.2 5.3 3.3 10.8 3.3 16.6s-1.1 11.3-3.3 16.6c-2.1 5.1-5.2 9.6-9.1 13.5s-8.5 7-13.5 9.1c-5.3 2.2-10.8 3.3-16.6 3.3s-11.3-1.1-16.6-3.3c-5.1-2.1-9.6-5.2-13.5-9.1s-7-8.5-9.1-13.5c-2.2-5.3-3.3-10.8-3.3-16.6s1.1-11.3 3.3-16.6c2.1-5.1 5.2-9.6 9.1-13.5s8.5-7 13.5-9.1c5.3-2.1 10.9-3.3 16.6-3.3m0-3.1c-25.2 0-45.7 20.5-45.7 45.7s20.5 45.7 45.7 45.7 45.7-20.5 45.7-45.7-20.5-45.7-45.7-45.7z"/><path class="st7" d="m1091.7 284.5-.8-3h-12.1l-1.3 10.3c.8-.6 1.9-1.1 3-1.5s2.5-.6 3.9-.6c4.3-.1 7.6 1.3 10 3.9 2.4 2.7 3.5 6.4 3.5 11.1 0 4.3-1.3 7.9-3.9 10.7s-6.3 4.3-11.2 4.3c-4.1 0-7.6-1.1-10.5-3.4s-4.4-5.3-4.2-9.3l.1-.2 8.6-.4c0 2 .6 3.5 1.7 4.7 1.1 1.1 2.6 1.7 4.4 1.7 2.1 0 3.6-.7 4.6-2.2 1-1.5 1.5-3.4 1.5-5.8 0-2.6-.5-4.6-1.6-6.2s-2.7-2.3-4.8-2.3c-1.7 0-3 .3-3.9 1s-1.6 1.5-2 2.6l-7.9-.5 2.6-25h25.8v10.2l-5.5-.1z"/><circle class="st6" cx="1057.5" cy="271.5" r="1.6"/><circle class="st6" cx="1053" cy="277" r="1.6"/><circle class="st6" cx="1069.2" cy="330.4" r="1.6"/><circle class="st6" cx="1053" cy="317.1" r="1.6"/><path class="st6" d="M1069.8 265.1c.8-.3 1.2-1.3.9-2.1s-1.3-1.2-2.1-.9-1.2 1.3-.9 2.1 1.3 1.2 2.1.9zm-6 60.6c-.7-.5-1.7-.3-2.2.4-.5.7-.3 1.7.4 2.2.7.5 1.7.3 2.2-.4.5-.7.3-1.7-.4-2.2z"/><circle class="st6" cx="1062.9" cy="267" r="1.6"/><circle class="st6" cx="1057.5" cy="322.5" r="1.6"/><circle class="st6" cx="1047.6" cy="290" r="1.6"/><path class="st6" d="M1089.7 263.2c.9.2 1.7-.4 1.8-1.2.2-.9-.4-1.7-1.2-1.8-.9-.2-1.7.4-1.8 1.2-.2.8.4 1.6 1.2 1.8z"/><circle class="st6" cx="1116.4" cy="283.2" r="1.6"/><circle class="st6" cx="1118.4" cy="289.9" r="1.6"/><circle class="st6" cx="1049.6" cy="310.8" r="1.6"/><circle class="st6" cx="1046.9" cy="297" r="1.6"/><circle class="st6" cx="1049.7" cy="283.2" r="1.6"/><circle class="st6" cx="1047.6" cy="304.1" r="1.6"/><path class="st6" d="M1076.3 330.9c-.9-.2-1.7.4-1.8 1.2-.2.9.4 1.7 1.2 1.8.9.2 1.7-.4 1.8-1.2s-.4-1.6-1.2-1.8z"/><circle class="st6" cx="1113" cy="317.1" r="1.6"/><circle class="st6" cx="1113" cy="276.9" r="1.6"/><circle class="st6" cx="1108.5" cy="271.5" r="1.6"/><circle class="st6" cx="1108.5" cy="322.6" r="1.6"/><circle class="st6" cx="1119.1" cy="297" r="1.6"/><circle class="st6" cx="1118.4" cy="304.1" r="1.6"/><circle class="st6" cx="1075.9" cy="261.6" r="1.6"/><circle class="st6" cx="1116.3" cy="310.8" r="1.6"/><circle class="st6" cx="1090.1" cy="332.4" r="1.6"/><circle class="st6" cx="1083" cy="260.9" r="1.6"/><circle class="st6" cx="1083" cy="333.1" r="1.6"/><circle class="st6" cx="1103.1" cy="267" r="1.6"/><circle class="st6" cx="1103.1" cy="327" r="1.6"/><circle class="st6" cx="1096.8" cy="330.4" r="1.6"/><circle class="st6" cx="1096.8" cy="263.7" r="1.6"/><path class="st8" d="M1033 297c0 27.6 22.4 50 50 50V247c-27.6 0-50 22.4-50 50z"/><circle class="st5" cx="871" cy="427" r="50"/><path class="st6" d="M871 384.4c5.7 0 11.3 1.1 16.6 3.3 5.1 2.1 9.6 5.2 13.5 9.1s7 8.5 9.1 13.5c2.2 5.3 3.3 10.8 3.3 16.6s-1.1 11.3-3.3 16.6c-2.1 5.1-5.2 9.6-9.1 13.5s-8.5 7-13.5 9.1c-5.3 2.2-10.8 3.3-16.6 3.3s-11.3-1.1-16.6-3.3c-5.1-2.1-9.6-5.2-13.5-9.1s-7-8.5-9.1-13.5c-2.2-5.3-3.3-10.8-3.3-16.6s1.1-11.3 3.3-16.6c2.1-5.1 5.2-9.6 9.1-13.5s8.5-7 13.5-9.1c5.3-2.1 10.9-3.3 16.6-3.3m0-3.1c-25.2 0-45.7 20.5-45.7 45.7s20.5 45.7 45.7 45.7 45.7-20.5 45.7-45.7-20.5-45.7-45.7-45.7z"/><path class="st7" d="m879.7 414.5-.8-3h-12.1l-1.3 10.3c.8-.6 1.9-1.1 3-1.5s2.5-.6 3.9-.6c4.3-.1 7.6 1.3 10 3.9 2.4 2.7 3.5 6.4 3.5 11.1 0 4.3-1.3 7.9-3.9 10.7s-6.3 4.3-11.2 4.3c-4.1 0-7.6-1.1-10.5-3.4s-4.4-5.3-4.2-9.3l.1-.2 8.6-.4c0 2 .6 3.5 1.7 4.7 1.1 1.1 2.6 1.7 4.4 1.7 2.1 0 3.6-.7 4.6-2.2 1-1.5 1.5-3.4 1.5-5.8 0-2.6-.5-4.6-1.6-6.2s-2.7-2.3-4.8-2.3c-1.7 0-3 .3-3.9 1s-1.6 1.5-2 2.6l-7.9-.5 2.6-25h25.8v10.2l-5.5-.1z"/><circle class="st6" cx="845.5" cy="401.5" r="1.6"/><circle class="st6" cx="841" cy="407" r="1.6"/><circle class="st6" cx="857.2" cy="460.4" r="1.6"/><circle class="st6" cx="841" cy="447.1" r="1.6"/><path class="st6" d="M857.8 395.1c.8-.3 1.2-1.3.9-2.1s-1.3-1.2-2.1-.9-1.2 1.3-.9 2.1 1.3 1.2 2.1.9zm-6 60.6c-.7-.5-1.7-.3-2.2.4-.5.7-.3 1.7.4 2.2.7.5 1.7.3 2.2-.4.5-.7.3-1.7-.4-2.2z"/><circle class="st6" cx="850.9" cy="397" r="1.6"/><circle class="st6" cx="845.5" cy="452.5" r="1.6"/><circle class="st6" cx="835.6" cy="420" r="1.6"/><path class="st6" d="M877.7 393.2c.9.2 1.7-.4 1.8-1.2.2-.9-.4-1.7-1.2-1.8-.9-.2-1.7.4-1.8 1.2-.2.8.4 1.6 1.2 1.8z"/><circle class="st6" cx="904.4" cy="413.2" r="1.6"/><circle class="st6" cx="906.4" cy="419.9" r="1.6"/><circle class="st6" cx="837.6" cy="440.8" r="1.6"/><circle class="st6" cx="834.9" cy="427" r="1.6"/><circle class="st6" cx="837.7" cy="413.2" r="1.6"/><circle class="st6" cx="835.6" cy="434.1" r="1.6"/><path class="st6" d="M864.3 460.9c-.9-.2-1.7.4-1.8 1.2-.2.9.4 1.7 1.2 1.8.9.2 1.7-.4 1.8-1.2s-.4-1.6-1.2-1.8z"/><circle class="st6" cx="901" cy="447.1" r="1.6"/><circle class="st6" cx="901" cy="406.9" r="1.6"/><circle class="st6" cx="896.5" cy="401.5" r="1.6"/><circle class="st6" cx="896.5" cy="452.6" r="1.6"/><circle class="st6" cx="907.1" cy="427" r="1.6"/><circle class="st6" cx="906.4" cy="434.1" r="1.6"/><circle class="st6" cx="863.9" cy="391.6" r="1.6"/><circle class="st6" cx="904.3" cy="440.8" r="1.6"/><circle class="st6" cx="878.1" cy="462.4" r="1.6"/><circle class="st6" cx="871" cy="390.9" r="1.6"/><circle class="st6" cx="871" cy="463.1" r="1.6"/><circle class="st6" cx="891.1" cy="397" r="1.6"/><circle class="st6" cx="891.1" cy="457" r="1.6"/><circle class="st6" cx="884.8" cy="460.4" r="1.6"/><circle class="st6" cx="884.8" cy="393.7" r="1.6"/><path class="st8" d="M821 427c0 27.6 22.4 50 50 50V377c-27.6 0-50 22.4-50 50z"/><circle class="st5" cx="1081" cy="453" r="50"/><path class="st6" d="M1081 410.4c5.7 0 11.3 1.1 16.6 3.3 5.1 2.1 9.6 5.2 13.5 9.1s7 8.5 9.1 13.5c2.2 5.3 3.3 10.8 3.3 16.6s-1.1 11.3-3.3 16.6c-2.1 5.1-5.2 9.6-9.1 13.5s-8.5 7-13.5 9.1c-5.3 2.2-10.8 3.3-16.6 3.3s-11.3-1.1-16.6-3.3c-5.1-2.1-9.6-5.2-13.5-9.1s-7-8.5-9.1-13.5c-2.2-5.3-3.3-10.8-3.3-16.6s1.1-11.3 3.3-16.6c2.1-5.1 5.2-9.6 9.1-13.5s8.5-7 13.5-9.1c5.3-2.1 10.9-3.3 16.6-3.3m0-3.1c-25.2 0-45.7 20.5-45.7 45.7s20.5 45.7 45.7 45.7 45.7-20.5 45.7-45.7-20.5-45.7-45.7-45.7z"/><path class="st7" d="m1089.7 440.5-.8-3h-12.1l-1.3 10.3c.8-.6 1.9-1.1 3-1.5s2.5-.6 3.9-.6c4.3-.1 7.6 1.3 10 3.9 2.4 2.7 3.5 6.4 3.5 11.1 0 4.3-1.3 7.9-3.9 10.7s-6.3 4.3-11.2 4.3c-4.1 0-7.6-1.1-10.5-3.4s-4.4-5.3-4.2-9.3l.1-.2 8.6-.4c0 2 .6 3.5 1.7 4.7 1.1 1.1 2.6 1.7 4.4 1.7 2.1 0 3.6-.7 4.6-2.2 1-1.5 1.5-3.4 1.5-5.8 0-2.6-.5-4.6-1.6-6.2s-2.7-2.3-4.8-2.3c-1.7 0-3 .3-3.9 1s-1.6 1.5-2 2.6l-7.9-.5 2.6-25h25.8v10.2l-5.5-.1z"/><circle class="st6" cx="1055.5" cy="427.5" r="1.6"/><circle class="st6" cx="1051" cy="433" r="1.6"/><circle class="st6" cx="1067.2" cy="486.4" r="1.6"/><circle class="st6" cx="1051" cy="473.1" r="1.6"/><path class="st6" d="M1067.8 421.1c.8-.3 1.2-1.3.9-2.1s-1.3-1.2-2.1-.9-1.2 1.3-.9 2.1 1.3 1.2 2.1.9zm-6 60.6c-.7-.5-1.7-.3-2.2.4-.5.7-.3 1.7.4 2.2.7.5 1.7.3 2.2-.4.5-.7.3-1.7-.4-2.2z"/><circle class="st6" cx="1060.9" cy="423" r="1.6"/><circle class="st6" cx="1055.5" cy="478.5" r="1.6"/><circle class="st6" cx="1045.6" cy="446" r="1.6"/><path class="st6" d="M1087.7 419.2c.9.2 1.7-.4 1.8-1.2.2-.9-.4-1.7-1.2-1.8-.9-.2-1.7.4-1.8 1.2-.2.8.4 1.6 1.2 1.8z"/><circle class="st6" cx="1114.4" cy="439.2" r="1.6"/><circle class="st6" cx="1116.4" cy="445.9" r="1.6"/><circle class="st6" cx="1047.6" cy="466.8" r="1.6"/><circle class="st6" cx="1044.9" cy="453" r="1.6"/><circle class="st6" cx="1047.7" cy="439.2" r="1.6"/><circle class="st6" cx="1045.6" cy="460.1" r="1.6"/><path class="st6" d="M1074.3 486.9c-.9-.2-1.7.4-1.8 1.2-.2.9.4 1.7 1.2 1.8.9.2 1.7-.4 1.8-1.2s-.4-1.6-1.2-1.8z"/><circle class="st6" cx="1111" cy="473.1" r="1.6"/><circle class="st6" cx="1111" cy="432.9" r="1.6"/><circle class="st6" cx="1106.5" cy="427.5" r="1.6"/><circle class="st6" cx="1106.5" cy="478.6" r="1.6"/><circle class="st6" cx="1117.1" cy="453" r="1.6"/><circle class="st6" cx="1116.4" cy="460.1" r="1.6"/><circle class="st6" cx="1073.9" cy="417.6" r="1.6"/><circle class="st6" cx="1114.3" cy="466.8" r="1.6"/><circle class="st6" cx="1088.1" cy="488.4" r="1.6"/><circle class="st6" cx="1081" cy="416.9" r="1.6"/><circle class="st6" cx="1081" cy="489.1" r="1.6"/><circle class="st6" cx="1101.1" cy="423" r="1.6"/><circle class="st6" cx="1101.1" cy="483" r="1.6"/><circle class="st6" cx="1094.8" cy="486.4" r="1.6"/><circle class="st6" cx="1094.8" cy="419.7" r="1.6"/><path class="st8" d="M1031 453c0 27.6 22.4 50 50 50V403c-27.6 0-50 22.4-50 50z"/><circle class="st5" cx="960" cy="311" r="50"/><path class="st6" d="M960 268.4c5.7 0 11.3 1.1 16.6 3.3 5.1 2.1 9.6 5.2 13.5 9.1s7 8.5 9.1 13.5c2.2 5.3 3.3 10.8 3.3 16.6s-1.1 11.3-3.3 16.6c-2.1 5.1-5.2 9.6-9.1 13.5s-8.5 7-13.5 9.1c-5.3 2.2-10.8 3.3-16.6 3.3s-11.3-1.1-16.6-3.3c-5.1-2.1-9.6-5.2-13.5-9.1s-7-8.5-9.1-13.5c-2.2-5.3-3.3-10.8-3.3-16.6s1.1-11.3 3.3-16.6c2.1-5.1 5.2-9.6 9.1-13.5s8.5-7 13.5-9.1c5.3-2.1 10.9-3.3 16.6-3.3m0-3.1c-25.2 0-45.7 20.5-45.7 45.7s20.5 45.7 45.7 45.7 45.7-20.5 45.7-45.7-20.5-45.7-45.7-45.7z"/><path class="st7" d="m968.7 298.5-.8-3h-12.1l-1.3 10.3c.8-.6 1.9-1.1 3-1.5s2.5-.6 3.9-.6c4.3-.1 7.6 1.3 10 3.9 2.4 2.7 3.5 6.4 3.5 11.1 0 4.3-1.3 7.9-3.9 10.7s-6.3 4.3-11.2 4.3c-4.1 0-7.6-1.1-10.5-3.4s-4.4-5.3-4.2-9.3l.1-.2 8.6-.4c0 2 .6 3.5 1.7 4.7 1.1 1.1 2.6 1.7 4.4 1.7 2.1 0 3.6-.7 4.6-2.2 1-1.5 1.5-3.4 1.5-5.8 0-2.6-.5-4.6-1.6-6.2s-2.7-2.3-4.8-2.3c-1.7 0-3 .3-3.9 1s-1.6 1.5-2 2.6l-7.9-.5 2.6-25h25.8v10.2l-5.5-.1z"/><circle class="st6" cx="934.5" cy="285.5" r="1.6"/><circle class="st6" cx="930" cy="291" r="1.6"/><circle class="st6" cx="946.2" cy="344.4" r="1.6"/><circle class="st6" cx="930" cy="331.1" r="1.6"/><path class="st6" d="M946.8 279.1c.8-.3 1.2-1.3.9-2.1s-1.3-1.2-2.1-.9-1.2 1.3-.9 2.1 1.3 1.2 2.1.9zm-6 60.6c-.7-.5-1.7-.3-2.2.4-.5.7-.3 1.7.4 2.2.7.5 1.7.3 2.2-.4.5-.7.3-1.7-.4-2.2z"/><circle class="st6" cx="939.9" cy="281" r="1.6"/><circle class="st6" cx="934.5" cy="336.5" r="1.6"/><circle class="st6" cx="924.6" cy="304" r="1.6"/><path class="st6" d="M966.7 277.2c.9.2 1.7-.4 1.8-1.2.2-.9-.4-1.7-1.2-1.8-.9-.2-1.7.4-1.8 1.2-.2.8.4 1.6 1.2 1.8z"/><circle class="st6" cx="993.4" cy="297.2" r="1.6"/><circle class="st6" cx="995.4" cy="303.9" r="1.6"/><circle class="st6" cx="926.6" cy="324.8" r="1.6"/><circle class="st6" cx="923.9" cy="311" r="1.6"/><circle class="st6" cx="926.7" cy="297.2" r="1.6"/><circle class="st6" cx="924.6" cy="318.1" r="1.6"/><path class="st6" d="M953.3 344.9c-.9-.2-1.7.4-1.8 1.2-.2.9.4 1.7 1.2 1.8.9.2 1.7-.4 1.8-1.2s-.4-1.6-1.2-1.8z"/><circle class="st6" cx="990" cy="331.1" r="1.6"/><circle class="st6" cx="990" cy="290.9" r="1.6"/><circle class="st6" cx="985.5" cy="285.5" r="1.6"/><circle class="st6" cx="985.5" cy="336.6" r="1.6"/><circle class="st6" cx="996.1" cy="311" r="1.6"/><circle class="st6" cx="995.4" cy="318.1" r="1.6"/><circle class="st6" cx="952.9" cy="275.6" r="1.6"/><circle class="st6" cx="993.3" cy="324.8" r="1.6"/><circle class="st6" cx="967.1" cy="346.4" r="1.6"/><circle class="st6" cx="960" cy="274.9" r="1.6"/><circle class="st6" cx="960" cy="347.1" r="1.6"/><circle class="st6" cx="980.1" cy="281" r="1.6"/><circle class="st6" cx="980.1" cy="341" r="1.6"/><circle class="st6" cx="973.8" cy="344.4" r="1.6"/><circle class="st6" cx="973.8" cy="277.7" r="1.6"/><path class="st8" d="M910 311c0 27.6 22.4 50 50 50V261c-27.6 0-50 22.4-50 50z"/></svg>