<svg xmlns="http://www.w3.org/2000/svg" viewBox="0 0 1920 673" xml:space="preserve"><path fill="#71aa8b" d="M0 0h1920v673H0z"/><path d="M490.9 117.3h-17.7V60.9L455.8 66V52.6L489.2 41h1.6v76.3zm0 128.6h-17.7v-56.3l-17.4 5.1v-13.4l33.5-11.6h1.6v76.2zm62.1 0h-17.7v-56.3l-17.4 5.1v-13.4l33.5-11.6h1.6v76.2zm-48 128.7h-53.2v-11.5l24.5-25.8c6-6.9 9.1-12.3 9.1-16.4 0-3.3-.7-5.8-2.1-7.5-1.4-1.7-3.5-2.6-6.2-2.6s-4.9 1.1-6.5 3.4c-1.7 2.3-2.5 5.1-2.5 8.6h-17.7c0-4.7 1.2-9 3.5-13s5.6-7.1 9.7-9.3c4.2-2.2 8.8-3.4 13.9-3.4 8.2 0 14.6 1.9 19 5.7 4.5 3.8 6.7 9.3 6.7 16.4 0 3-.6 5.9-1.7 8.8-1.1 2.8-2.9 5.8-5.2 9-2.4 3.1-6.2 7.3-11.4 12.5L475 361h30v13.6zm48 0h-17.7v-56.3l-17.4 5.1V310l33.5-11.6h1.6v76.2zm-62.1 128.7h-17.7V447l-17.4 5.1v-13.4l33.5-11.6h1.6v76.2zm76.2 0h-53.2v-11.5l24.5-25.8c6-6.9 9.1-12.3 9.1-16.4 0-3.3-.7-5.8-2.1-7.5-1.4-1.7-3.5-2.6-6.2-2.6s-4.9 1.1-6.5 3.4c-1.7 2.3-2.5 5.1-2.5 8.6h-17.7c0-4.7 1.2-9 3.5-13s5.6-7.1 9.7-9.3c4.2-2.2 8.8-3.4 13.9-3.4 8.2 0 14.6 1.9 19 5.7 4.5 3.8 6.7 9.3 6.7 16.4 0 3-.6 5.9-1.7 8.8-1.1 2.8-2.9 5.8-5.2 9s-6.2 7.3-11.4 12.5l-9.8 11.4h30v13.7zm48 0h-17.7V447l-17.4 5v-13.4l33.5-11.6h1.6v76.3zm62.1 0h-17.7V447l-17.4 5.1v-13.4l33.5-11.6h1.6v76.2zM490.9 632h-17.7v-56.3l-17.4 5.1v-13.4l33.5-11.6h1.6V632zm62.1 0h-17.7v-56.3l-17.4 5.1v-13.4l33.5-11.6h1.6V632zm62.1 0h-17.7v-56.3l-17.4 5.1v-13.4l33.5-11.6h1.6V632zm76.2 0h-53.2v-11.5l24.5-25.8c6-6.9 9.1-12.3 9.1-16.4 0-3.3-.7-5.8-2.1-7.5-1.4-1.7-3.5-2.6-6.2-2.6s-4.9 1.1-6.5 3.4c-1.7 2.3-2.5 5.1-2.5 8.6h-17.7c0-4.7 1.2-9 3.5-13s5.6-7.1 9.7-9.3c4.2-2.2 8.8-3.4 13.9-3.4 8.2 0 14.6 1.9 19 5.7 4.5 3.8 6.7 9.3 6.7 16.4 0 3-.6 5.9-1.7 8.8-1.1 2.8-2.9 5.8-5.2 9s-6.2 7.3-11.4 12.5l-9.8 11.4h30V632zm62.1 0h-53.2v-11.5l24.5-25.8c6-6.9 9.1-12.3 9.1-16.4 0-3.3-.7-5.8-2.1-7.5-1.4-1.7-3.5-2.6-6.2-2.6s-4.9 1.1-6.5 3.4c-1.7 2.3-2.5 5.1-2.5 8.6h-17.7c0-4.7 1.2-9 3.5-13s5.6-7.1 9.7-9.3c4.2-2.2 8.8-3.4 13.9-3.4 8.2 0 14.6 1.9 19 5.7 4.5 3.8 6.7 9.3 6.7 16.4 0 3-.6 5.9-1.7 8.8-1.1 2.8-2.9 5.8-5.2 9s-6.2 7.3-11.4 12.5l-9.8 11.4h30V632zm48 0h-17.7v-56.3l-17.4 5.1v-13.4l33.5-11.6h1.6V632z" fill="#f4f4f4"/></svg>