<svg xmlns="http://www.w3.org/2000/svg" viewBox="0 0 1920 673" xml:space="preserve"><path fill="#038387" d="M0 0h1920v673H0z"/><path d="M461.8 387.7H438V312l-23.4 6.8v-18l44.9-15.5h2.2v102.4zm138.3 0h-71.5v-15.5l32.9-34.6c8.1-9.2 12.2-16.6 12.2-22 0-4.4-1-7.8-2.9-10.1s-4.7-3.4-8.4-3.4c-3.6 0-6.5 1.5-8.8 4.6-2.3 3.1-3.4 6.9-3.4 11.5h-23.8c0-6.3 1.6-12.1 4.7-17.4 3.1-5.3 7.5-9.5 13.1-12.5s11.8-4.5 18.7-4.5c11.1 0 19.6 2.6 25.6 7.7s9 12.5 9 22c0 4-.8 8-2.3 11.8-1.5 3.8-3.8 7.8-7 12s-8.3 9.8-15.3 16.8l-13.2 15.3H600v18.3zm69.5-61.1h11.2c8.9 0 13.3-4.3 13.3-13 0-3.4-1.1-6.1-3.2-8.3-2.1-2.1-5.1-3.2-8.9-3.2-3.1 0-5.9.9-8.2 2.7-2.3 1.8-3.5 4.1-3.5 6.8h-23.7c0-5.4 1.5-10.2 4.5-14.4 3-4.2 7.2-7.5 12.5-9.9 5.3-2.4 11.2-3.6 17.6-3.6 11.4 0 20.4 2.6 26.9 7.8 6.5 5.2 9.8 12.4 9.8 21.5 0 4.4-1.3 8.6-4 12.5-2.7 3.9-6.6 7.1-11.8 9.5 5.4 2 9.7 5 12.8 9 3.1 4 4.6 9 4.6 14.9 0 9.1-3.5 16.5-10.6 21.9-7 5.5-16.3 8.2-27.7 8.2-6.7 0-12.9-1.3-18.7-3.8-5.7-2.6-10.1-6.1-13-10.6-3-4.5-4.4-9.7-4.4-15.4h23.8c0 3.1 1.3 5.9 3.8 8.2 2.5 2.3 5.7 3.4 9.4 3.4 4.2 0 7.5-1.2 10-3.5s3.7-5.3 3.7-8.9c0-5.2-1.3-8.8-3.9-11-2.6-2.2-6.1-3.2-10.7-3.2h-11.5v-17.6zm160.2 21.1h10.4V366h-10.4v21.7h-23.7V366h-39.6l-1.4-14.5 41-66v-.2h23.7v62.4zm-42.1 0h18.4v-31.5l-1.5 2.4-16.9 29.1zm156.1-63.9v18.6h-1.1c-8.9 0-16.1 2.1-21.8 6.4-5.7 4.2-9.2 10.1-10.5 17.7 5.3-5.3 12.1-7.9 20.3-7.9 8.9 0 15.9 3.2 21.2 9.7 5.3 6.5 7.9 15 7.9 25.5 0 6.5-1.5 12.5-4.6 17.9-3.1 5.4-7.4 9.7-12.9 12.8-5.5 3.1-11.6 4.6-18.3 4.6-7.3 0-13.8-1.7-19.5-5-5.7-3.3-10.2-8-13.4-14.2-3.2-6.1-4.8-13.2-4.9-21.2v-9.5c0-10.6 2.3-20 6.8-28.5 4.5-8.4 11-15 19.4-19.8 8.4-4.8 17.7-7.2 27.9-7.2h3.5zm-21.4 53c-3.1 0-5.8.7-7.9 2.2-2.1 1.5-3.7 3.2-4.7 5.3v7.1c0 12.9 4.5 19.4 13.4 19.4 3.6 0 6.6-1.6 9-4.9 2.4-3.2 3.6-7.3 3.6-12.2 0-5-1.2-9.1-3.7-12.3-2.4-3-5.6-4.6-9.7-4.6zM1077 298l-38.3 89.8h-25l38.3-84.1h-48.8v-18.3h73.8V298zm117.2 14.7c0 5-1.2 9.4-3.7 13.2-2.5 3.8-5.9 6.8-10.2 9.1 4.9 2.4 8.7 5.7 11.6 9.8 2.9 4.1 4.3 9.1 4.3 14.7 0 9.1-3.2 16.4-9.5 21.7-6.3 5.3-15 7.9-26.1 7.9-11.1 0-19.9-2.7-26.3-8-6.4-5.3-9.6-12.5-9.6-21.6 0-5.5 1.4-10.3 4.2-14.6 2.8-4.2 6.8-7.5 12-10-4.4-2.3-7.8-5.3-10.3-9.1-2.5-3.8-3.7-8.2-3.7-13.2 0-8.9 3-15.9 9.1-21.1 6-5.2 14.2-7.7 24.5-7.7 10.4 0 18.6 2.6 24.6 7.7 6.1 5.2 9.1 12.3 9.1 21.2zm-21.7 44.9c0-4.2-1.1-7.5-3.3-9.7-2.2-2.3-5.1-3.4-8.6-3.4-3.6 0-6.4 1.1-8.7 3.4-2.2 2.3-3.3 5.5-3.3 9.7 0 4.1 1.1 7.3 3.3 9.7 2.2 2.4 5.1 3.6 8.8 3.6 3.5 0 6.4-1.2 8.5-3.5 2.2-2.4 3.3-5.6 3.3-9.8zm-12-55.5c-3.2 0-5.6 1-7.3 3.1-1.7 2.1-2.5 5-2.5 8.7 0 3.7.8 6.6 2.5 8.9 1.7 2.3 4.2 3.4 7.5 3.4 3.2 0 5.7-1.1 7.3-3.4 1.6-2.3 2.4-5.2 2.4-8.9s-.8-6.5-2.5-8.7c-1.6-2-4.1-3.1-7.4-3.1zm130.6 46c-5.1 4.6-10.8 6.9-17.2 6.9-9.3 0-16.6-3.1-22.1-9.4-5.4-6.3-8.2-14.7-8.2-25.2 0-6.6 1.5-12.7 4.6-18.3 3-5.6 7.3-10.1 12.8-13.4 5.5-3.3 11.6-4.9 18.3-4.9 6.8 0 12.9 1.7 18.3 5.1 5.5 3.4 9.7 8.2 12.8 14.4 3 6.2 4.6 13.4 4.7 21.5v9.1c0 11.3-2.2 21.1-6.6 29.4-4.4 8.3-10.8 14.7-19 19.1-8.2 4.5-17.8 6.7-28.7 6.7h-1.5v-19l4.5-.1c16.4-.7 25.5-8 27.3-21.9zm-10.7-10.2c5.2 0 8.9-2.2 11.1-6.7v-9.8c0-6.6-1.1-11.4-3.3-14.6-2.2-3.1-5.2-4.7-8.9-4.7-3.3 0-6.1 1.8-8.4 5.3-2.3 3.6-3.4 7.9-3.4 12.9 0 5.3 1.1 9.6 3.4 12.8 2.3 3.3 5.5 4.8 9.5 4.8zm135.9 49.8h-23.8V312l-23.4 6.8v-18l44.9-15.5h2.2v102.4zm89-41.8c0 13.8-3.1 24.5-9.3 32-6.2 7.5-15 11.3-26.3 11.3-11.4 0-20.2-3.8-26.4-11.3-6.2-7.5-9.4-18.2-9.4-31.9v-18.7c0-13.8 3.1-24.5 9.3-32 6.2-7.5 15-11.3 26.3-11.3s20.1 3.8 26.4 11.3c6.2 7.6 9.4 18.2 9.4 32v18.6zm-23.7-21.7c0-7.4-1-12.9-2.9-16.5-1.9-3.6-5-5.5-9.1-5.5s-7 1.7-8.9 5.1c-1.9 3.4-2.8 8.5-3 15.3v26.2c0 7.6 1 13.2 2.9 16.8s5 5.3 9.1 5.3c4 0 7-1.7 8.9-5.2 1.9-3.4 2.9-8.9 3-16.2v-25.3z" fill="#f4f4f4"/></svg>