<svg version="1.1" xmlns="http://www.w3.org/2000/svg" x="0" y="0" viewBox="0 0 91.3 107.3" xml:space="preserve"><style type="text/css">.st1{fill:#36434f}</style><path d="M91.3 20v-4H76V0h-4v16H40V0h-4v16H3v4h33v32H3v4h33v32H3v4h33v15.3h4V92h32v15.3h4V92h15.3v-4H76V56h15.3v-4H76V20h15.3zM72 88H40V56h32v32zm0-36H40V20h32v32z" fill="#ddd"/><path class="st1" d="M0 0h4v107.3H0z"/><path d="M35 0v18c0 1.7 1.3 3 3 3s3-1.3 3-3V0h-6z" fill="#2e86b7"/><path d="M40.5 0v18c0 1.4-1.1 2.5-2.5 2.5s-2.5-1.1-2.5-2.5V0h-1v18c0 1.9 1.6 3.5 3.5 3.5s3.5-1.6 3.5-3.5V0h-1z" fill="#fff"/><circle class="st1" cx="38" cy="18" r="12"/></svg>