<svg xmlns="http://www.w3.org/2000/svg" viewBox="0 0 1920 673" xml:space="preserve"><style>.st1{fill:#ddc4b0}.st2{fill:#826049}.st3{fill:#e0ac7e}.st4{fill:#424242}.st5{fill:#fff}.st6{opacity:.15;fill:#444;enable-background:new}</style><path fill="#4ab367" d="M0 0h1920v673H0z"/><path class="st1" d="M1178.5 204.9c4.7-3.8 18.4-11.4 30.6-17 12.1-5.5 34.3-5.7 49.3 0 14.9 5.7 33 20.2 40 32.3s8.3 36.8 3 54.7L1282 339c-5.4 17.9-22.9 40.5-38.8 50.4l-22.1 13.6c-15.9 9.8-43.9 14.7-62.2 10.9l-6.6-1.3c-18.3-3.8-29.4-21.8-24.6-39.9l33.7-128c4.7-18.2 12.4-36.1 17.1-39.8zm-437 0c-4.7-3.8-18.4-11.3-30.6-17-12.1-5.7-34.3-5.7-49.3 0s-33 20.2-40 32.3c-7 12.1-8.3 36.8-3 54.7L638 339c5.4 17.9 22.9 40.5 38.8 50.4l22.1 13.6c15.9 9.8 43.9 14.7 62.2 10.9l6.6-1.3c18.3-3.8 29.4-21.8 24.6-39.9l-33.7-128c-4.7-18.2-12.4-36.1-17.1-39.8z"/><ellipse class="st2" cx="960" cy="266.9" rx="239.5" ry="225.4"/><ellipse class="st3" cx="960" cy="468.5" rx="122.4" ry="146.2"/><ellipse class="st3" cx="1042.5" cy="281.5" rx="94.4" ry="88.5"/><ellipse class="st3" cx="877.5" cy="281.5" rx="94.4" ry="88.5"/><path class="st4" d="M978.7 387.7c-4.7 1.3-8.5 7.1-8.5 12.8 0 5.7 5.4 9 11.8 7.7 6.6-1.3 13.9-6.1 16.2-10.2 2.3-4.2 3.1-13.1 1.8-19.5-1.3-6.6-4.8-7.7-7.7-2.6-2.8 5.1-8.9 10.5-13.6 11.8zm-37.4 0c4.7 1.3 8.5 7.1 8.5 12.8 0 5.7-5.4 9-11.8 7.7-6.6-1.3-13.9-6.1-16.2-10.2s-3.1-13.1-1.8-19.5c1.3-6.6 4.8-7.7 7.7-2.6 2.8 5.1 8.9 10.5 13.6 11.8zM1045.9 489c-10.8 5.7-34.5 11.3-52.8 12.8-18.2 1.3-48.1 1.3-66.4 0-18.2-1.3-42-7.1-52.8-12.8-10.8-5.7-14.1-3-7.7 5.9 6.6 8.9 24.1 19.7 39.2 23.8 14.9 4.2 33.4 8.5 40.8 9.3 7.5.9 19.8.9 27.2 0 7.5-.9 25.9-5.1 40.8-9.3 14.9-4.2 32.6-14.9 39.2-23.8s3.3-11.6-7.5-5.9z"/><circle class="st4" cx="877.5" cy="281.5" r="26.4"/><circle class="st5" cx="868.2" cy="268.7" r="6.9"/><circle class="st4" cx="1042.5" cy="281.5" r="26.4"/><circle class="st5" cx="1033.1" cy="268.7" r="6.9"/><path class="st6" d="M731.8 198.7c-6.1-3.5-13.7-7.5-20.9-10.8-12.1-5.7-34.3-5.7-49.3 0s-33 20.2-40 32.3c-7 12.1-8.3 36.8-3 54.7L638 339c5.4 17.9 22.9 40.5 38.8 50.4l22.1 13.6c15.9 9.8 43.9 14.7 62.2 10.9l6.6-1.3c2.6-.5 5-1.3 7.3-2.4 17.6 20.1 38.8 37.3 62.7 50.6-.1 2.6-.1 5.1-.1 7.8 0 80.8 54.8 146.2 122.4 146.2v-573c-106.9-.1-197.5 65.9-228.2 156.9z"/><path class="st1" d="M836.9 672.9c1.9-1.8 3-2.7 3-2.7 16.4-15.1 43.1-28.7 59.5-30.3 16.4-1.6 38.5-7.4 49.3-12.8 10.8-5.4 34.2-14.1 52.1-19.3 17.9-5.1 32.6-12.9 32.6-17.5s-2.8-10.2-6.5-12.8c-3.5-2.6-24-.1-45.5 5.4l-7.9 2c-21.5 5.5-27.3 3.6-12.9-4.3s42.3-16 62.1-18.2c19.8-2.2 35.8-7.9 35.8-13.1 0-5.1-2.4-11.3-5.3-13.7s-19.4-3.5-36.8-2.3-41.6 5.4-53.9 9.4c-12.4 4-12.5 1.6-.3-5.5 12.1-7 32.3-16.3 44.8-20.7 12.5-4.3 25-11.4 28-15.8 2.8-4.3 2.2-11.7-1.8-16.3-3.9-4.7-19-6.5-33.5-4S960.1 491.6 944 500s-21.1 8.1-11-.5 24.4-19.1 31.8-23.3c7.4-4.2 16.3-9.8 19.8-12.5 3.5-2.7 5.4-8.3 4-12.5-1.3-4.2-8.3-7.5-15.8-7.5-7.4 0-22.9 3.9-34.3 8.8-11.6 4.8-35.7 19.5-53.6 32.7l-.7.5c-17.9 13.2-30 18.8-27.1 12.5 3.1-6.2 5.3-14.5 5-18.3-.3-3.9-4.4-7.5-9-8.2-4.7-.7-13.2 2.4-19 6.7s-17 19.4-24.8 33.5-17 30.4-20.3 36.4c-3.4 5.9-20.6 21.8-38.2 35.3l-102.3 78.1c-4.2 3.2-7.7 7.1-10.4 11.4H837v-.2z"/><path class="st2" d="M839.9 670.2c9.3-8.6 21.9-16.7 34.2-22.3-9.8-21-25.6-44.4-50.6-61.1-16.7-11.2-33.9-18.2-49.7-22.6-6.7 6.1-14.9 12.9-23.2 19.3l-102.3 78.1c-4.2 3.2-7.7 7.1-10.4 11.4h198.9c2-1.9 3.1-2.8 3.1-2.8z"/><path class="st6" d="M1267.4 672.9c-1.2-1.2-2.4-2.3-3.8-3.4l-102.3-78.1c-17.6-13.5-34.9-29.4-38.2-35.3-3.4-5.9-12.5-22.3-20.3-36.4-7.8-14-19-29.2-24.8-33.5-5.8-4.3-14.3-7.4-19-6.7-4.7.7-8.8 4.3-9 8.2s1.9 12.1 5 18.3c3.1 6.2-9.2.5-27.1-12.5l-.7-.5c-17.9-13.2-42-27.9-53.6-32.7-11.6-4.8-27.1-8.8-34.3-8.8s-14.4 3.4-15.8 7.5.5 9.8 4 12.5 12.4 8.3 19.8 12.5c7.4 4.2 21.7 14.7 31.8 23.3 10.1 8.6 5.1 8.9-11 .5-16.2-8.3-41.3-17.1-55.9-19.5-14.5-2.4-29.6-.5-33.5 4-3.9 4.7-4.6 12-1.8 16.3 2.8 4.3 15.5 11.4 28 15.8 12.5 4.3 32.7 13.6 44.8 20.7 12.1 7 12 9.6-.3 5.5-12.4-4-36.6-8.2-53.9-9.4s-33.8-.1-36.8 2.3-5.3 8.6-5.3 13.7 16.2 11 35.8 13.1 47.7 10.2 62.1 18.2c14.4 7.9 8.6 9.8-12.9 4.3l-7.9-2c-21.5-5.5-42-7.9-45.5-5.4s-6.5 8.3-6.5 12.8 14.7 12.4 32.6 17.5c17.9 5.1 41.5 13.7 52.1 19.3 10.6 5.5 32.9 11.2 49.3 12.8 14.4 1.3 36.8 12.1 53.2 24.9h201.6v.2z"/><path class="st1" d="M1083.1 672.9c-1.9-1.8-3-2.7-3-2.7-16.4-15.1-43.1-28.7-59.5-30.3-16.4-1.6-38.5-7.4-49.3-12.8-10.8-5.4-34.2-14.1-52.1-19.3-17.9-5.1-32.6-12.9-32.6-17.5s2.8-10.2 6.5-12.8c3.5-2.6 24-.1 45.5 5.4l7.9 2c21.5 5.5 27.3 3.6 12.9-4.3s-42.3-16-62.1-18.2c-19.8-2.2-35.8-7.9-35.8-13.1 0-5.1 2.4-11.3 5.3-13.7 2.8-2.4 19.4-3.5 36.8-2.3s41.6 5.4 53.9 9.4c12.4 4 12.5 1.6.3-5.5-12.1-7-32.3-16.3-44.8-20.7-12.5-4.3-25-11.4-28-15.8-2.8-4.3-2.2-11.7 1.8-16.3 3.9-4.7 19-6.5 33.5-4s39.7 11.2 55.9 19.5 21.1 8.1 11-.5-24.4-19.1-31.8-23.3c-7.4-4.2-16.3-9.8-19.8-12.5-3.5-2.7-5.4-8.3-4-12.5 1.3-4.2 8.3-7.5 15.8-7.5 7.4 0 22.9 3.9 34.3 8.8 11.6 4.8 35.7 19.5 53.6 32.7l.7.5c17.9 13.2 30 18.8 27.1 12.5-3.1-6.2-5.3-14.5-5-18.3.3-3.9 4.4-7.5 9-8.2 4.7-.7 13.2 2.4 19 6.7 5.8 4.3 17 19.4 24.8 33.5 7.8 14.1 17 30.4 20.3 36.4 3.4 5.9 20.6 21.8 38.2 35.3l102.3 78.1c4.2 3.2 7.7 7.1 10.4 11.4h-198.9v-.1z"/><path class="st2" d="M1080.1 670.2c-9.3-8.6-21.9-16.7-34.2-22.3 9.8-21 25.6-44.4 50.6-61.1 16.7-11.2 33.9-18.2 49.7-22.6 6.7 6.1 14.9 12.9 23.2 19.3l102.3 78.1c4.2 3.2 7.7 7.1 10.4 11.4h-199c-1.9-1.9-3-2.8-3-2.8z"/></svg>