<svg version="1.1" xmlns="http://www.w3.org/2000/svg" x="0" y="0" viewBox="0 0 436 391" xml:space="preserve"><style type="text/css">.st0{fill:#36434f}</style><circle class="st0" cx="27" cy="59" r="8"/><circle class="st0" cx="32" cy="28" r="8"/><circle class="st0" cx="55" cy="14" r="8"/><circle class="st0" cx="77" cy="15" r="8"/><circle class="st0" cx="138" cy="22" r="8"/><circle class="st0" cx="69" cy="118" r="8"/><circle class="st0" cx="52.1" cy="53.2" r="8"/><circle class="st0" cx="100.3" cy="38.2" r="8"/><circle class="st0" cx="112" cy="59" r="8"/><circle class="st0" cx="154.4" cy="59.7" r="8"/><circle class="st0" cx="20.1" cy="86.3" r="8"/><circle class="st0" cx="47.5" cy="85.5" r="8"/><circle class="st0" cx="90.1" cy="82.4" r="8"/><circle class="st0" cx="129.4" cy="81" r="8"/><circle class="st0" cx="179.8" cy="81.7" r="8"/><circle class="st0" cx="8" cy="110" r="8"/><circle class="st0" cx="35.7" cy="139.3" r="8"/><circle class="st0" cx="98.3" cy="126.1" r="8"/><circle class="st0" cx="112.5" cy="142.8" r="8"/><circle class="st0" cx="174.3" cy="126.3" r="8"/><circle class="st0" cx="47" cy="161" r="8"/><circle class="st0" cx="90" cy="176" r="8"/><circle class="st0" cx="74" cy="157" r="8"/><circle class="st0" cx="116" cy="168" r="8"/><circle class="st0" cx="137" cy="102" r="8"/><circle class="st0" cx="108" cy="99" r="8"/><circle class="st0" cx="81" cy="60" r="8"/><circle class="st0" cx="149" cy="135" r="8"/><circle class="st0" cx="161" cy="102" r="8"/><circle class="st0" cx="134" cy="47" r="8"/><circle class="st0" cx="110" cy="8" r="8"/><circle class="st0" cx="21" cy="151" r="8"/><circle class="st0" cx="37" cy="108" r="8"/><circle class="st0" cx="76" cy="99" r="8"/><circle class="st0" cx="124" cy="123" r="8"/><circle class="st0" cx="74" cy="40" r="8"/><circle class="st0" cx="69" cy="78" r="8"/><circle class="st0" cx="61" cy="137" r="8"/><circle class="st0" cx="89" cy="143" r="8"/><circle class="st0" cx="281.2" cy="58.2" r="8"/><circle class="st0" cx="288.8" cy="32.3" r="8"/><circle class="st0" cx="308.1" cy="22.2" r="8"/><circle class="st0" cx="329" cy="8" r="8"/><circle class="st0" cx="386.5" cy="21.7" r="8"/><circle class="st0" cx="317.4" cy="105.8" r="8"/><circle class="st0" cx="302.4" cy="43.4" r="8"/><circle class="st0" cx="348.8" cy="39.7" r="8"/><circle class="st0" cx="366.7" cy="53.8" r="8"/><circle class="st0" cx="410.5" cy="71.4" r="8"/><circle class="st0" cx="274.6" cy="99.6" r="8"/><circle class="st0" cx="300.2" cy="96.7" r="8"/><circle class="st0" cx="348" cy="76.3" r="8"/><circle class="st0" cx="384.2" cy="77.2" r="8"/><circle class="st0" cx="428.3" cy="85.2" r="8"/><circle class="st0" cx="259.4" cy="120.3" r="8"/><circle class="st0" cx="291.9" cy="131.8" r="8"/><circle class="st0" cx="345.4" cy="123.7" r="8"/><circle class="st0" cx="360.6" cy="153.9" r="8"/><circle class="st0" cx="427.2" cy="115.2" r="8"/><circle class="st0" cx="300" cy="155.3" r="8"/><circle class="st0" cx="342.7" cy="173.3" r="8"/><circle class="st0" cx="326.9" cy="164.2" r="8"/><circle class="st0" cx="368" cy="169.8" r="8"/><circle class="st0" cx="388.2" cy="108" r="8"/><circle class="st0" cx="357" cy="104.8" r="8"/><circle class="st0" cx="329.6" cy="46" r="8"/><circle class="st0" cx="405.9" cy="130.4" r="8"/><circle class="st0" cx="410.7" cy="112.7" r="8"/><circle class="st0" cx="393" cy="46.3" r="8"/><circle class="st0" cx="358.1" cy="8.9" r="8"/><circle class="st0" cx="279.3" cy="155.1" r="8"/><circle class="st0" cx="289" cy="113.3" r="8"/><circle class="st0" cx="332.1" cy="97.3" r="8"/><circle class="st0" cx="376.7" cy="125.5" r="8"/><circle class="st0" cx="335" cy="24.3" r="8"/><circle class="st0" cx="317.6" cy="69.9" r="8"/><circle class="st0" cx="308.6" cy="131.5" r="8"/><circle class="st0" cx="328" cy="142.3" r="8"/><circle class="st0" cx="168.3" cy="276.7" r="8"/><circle class="st0" cx="160.1" cy="252" r="8"/><circle class="st0" cx="184.1" cy="240" r="8"/><circle class="st0" cx="216.1" cy="216.9" r="8"/><circle class="st0" cx="255.1" cy="232" r="8"/><circle class="st0" cx="186.5" cy="317.7" r="8"/><circle class="st0" cx="182.3" cy="266.3" r="8"/><circle class="st0" cx="238.1" cy="254" r="8"/><circle class="st0" cx="221.6" cy="268" r="8"/><circle class="st0" cx="277.4" cy="266.7" r="8"/><circle class="st0" cx="148.1" cy="320" r="8"/><circle class="st0" cx="168.3" cy="305" r="8"/><circle class="st0" cx="228.8" cy="290.2" r="8"/><circle class="st0" cx="265.8" cy="287" r="8"/><circle class="st0" cx="290.1" cy="287" r="8"/><circle class="st0" cx="139.1" cy="338.7" r="8"/><circle class="st0" cx="155.5" cy="342" r="8"/><circle class="st0" cx="231.9" cy="325.6" r="8"/><circle class="st0" cx="233.1" cy="350" r="8"/><circle class="st0" cx="287.1" cy="329" r="8"/><circle class="st0" cx="177.6" cy="358.1" r="8"/><circle class="st0" cx="218.5" cy="375.6" r="8"/><circle class="st0" cx="190.6" cy="383.3" r="8"/><circle class="st0" cx="242.3" cy="373.5" r="8"/><circle class="st0" cx="272.1" cy="305" r="8"/><circle class="st0" cx="254.1" cy="325" r="8"/><circle class="st0" cx="203.4" cy="251.1" r="8"/><circle class="st0" cx="284.1" cy="353.4" r="8"/><circle class="st0" cx="298.2" cy="314.5" r="8"/><circle class="st0" cx="259.1" cy="262" r="8"/><circle class="st0" cx="208.1" cy="232" r="8"/><circle class="st0" cx="164.5" cy="374.7" r="8"/><circle class="st0" cx="138.1" cy="289" r="8"/><circle class="st0" cx="196.2" cy="292.8" r="8"/><circle class="st0" cx="265.6" cy="345.2" r="8"/><circle class="st0" cx="230.1" cy="235" r="8"/><circle class="st0" cx="198.2" cy="276" r="8"/><circle class="st0" cx="208.1" cy="346" r="8"/><circle class="st0" cx="187.5" cy="336.7" r="8"/></svg>