<svg xmlns="http://www.w3.org/2000/svg" viewBox="0 0 1920 673" xml:space="preserve"><style>.st1{fill:#826049}.st2{fill:#338738}.st3{fill:#266827}.st4{opacity:.15;fill:#444;enable-background:new}</style><path fill="#79b1d1" d="M0 0h1920v673H0z"/><path class="st1" d="M965.8 543.4h-11.1c-2.7 0-4.8-2.2-4.8-4.8v-29.2h20.8v29.2c0 2.6-2.2 4.8-4.9 4.8z"/><path class="st2" d="M1054.1 459c13-3.9 25.2-11.4 35.4-22.7 7.8-8.6 13.7-18.6 17.5-29.3-16.6 7.4-34.9 8.3-52 2.9 7.1-3.9 13.8-9.1 19.8-15.6 7.2-7.9 12.6-17.1 16.2-27-17.4 7.8-36.9 7.8-54.3.3 7.3-3.6 14.1-8.6 20.1-15.3 6.6-7.3 11.6-15.8 14.9-24.7-16.1 7.2-34.3 7.2-50.4 0 6.3-3.2 12.1-7.7 17.3-13.4 6-6.6 10.5-14.3 13.5-22.5-14.1 6.3-30.1 6.5-44.4.6 5.9-2.9 11.5-7.1 16.4-12.4 5.4-6 9.5-12.9 12.1-20.2-12.3 5.4-25.9 5.8-38.4 1.1 5.6-2.6 10.7-6.4 15.3-11.4 4.8-5.3 8.4-11.4 10.7-17.9-10.8 4.8-22.9 5.2-33.9 1.1 4.7-2.3 9.1-5.6 13-9.9 4.2-4.6 7.4-9.9 9.4-15.7-9.3 4.1-19.7 4.5-29.3 1.1 4-1.9 7.6-4.7 10.8-8.2 3.6-4 6.3-8.6 8.1-13.4-7.8 3.5-16.5 3.9-24.5 1.1 3.2-1.6 6.1-3.9 8.7-6.7 3-3.3 5.3-7.1 6.7-11.2-6.2 2.7-13.2 3.2-19.6 1.1 2.4-1.3 4.7-3 6.7-5.3 2.3-2.6 4.1-5.7 5.3-8.9-4.7 2.1-9.8 2.4-14.6 1.2 1.7-1 3.3-2.2 4.7-3.7 1.8-1.9 3.1-4.2 4-6.6h-.1c-4.6 2-10.1.4-13.1-3.6-.4-.5-.7-1.1-1.1-1.6-3.3-5.3-4.9-12.9-4.9-12.9s-1.6 7.6-5.1 13c-.4.6-.7 1.1-1.1 1.6-3 4-8.4 5.7-13.1 3.6h-.1c.9 2.4 2.2 4.7 4 6.6 1.4 1.5 3 2.7 4.7 3.7-4.8 1.2-9.9.8-14.6-1.2 1.2 3.2 3 6.3 5.3 8.9 2 2.2 4.3 4 6.7 5.3-6.5 2-13.3 1.6-19.6-1.1 1.5 4 3.7 7.8 6.7 11.2 2.6 2.9 5.6 5.1 8.7 6.7-8 2.7-16.7 2.3-24.5-1.1 1.8 4.8 4.4 9.5 8.1 13.4 3.2 3.6 7 6.3 10.8 8.2-9.5 3.4-19.9 3.1-29.3-1.1 2.1 5.7 5.3 11.1 9.4 15.7 3.9 4.3 8.3 7.5 13 9.9-11 4-23 3.7-33.9-1.1 2.4 6.5 6 12.6 10.7 17.9 4.5 5 9.8 8.8 15.3 11.4-12.4 4.7-26.1 4.3-38.4-1.1 2.7 7.4 6.7 14.2 12.1 20.2 4.8 5.3 10.4 9.5 16.4 12.4-14.3 5.9-30.1 5.7-44.4-.6 3 8.2 7.5 15.8 13.5 22.5 5.2 5.7 11.1 10.2 17.3 13.4-16.1 7.1-34.3 7.1-50.4 0 3.3 9 8.2 17.5 14.9 24.7 6 6.6 12.8 11.6 20.1 15.3-17.5 7.5-36.9 7.4-54.3-.3 3.6 9.8 9 19 16.2 27 5.9 6.5 12.6 11.7 19.8 15.6-17.1 5.4-35.4 4.4-52-2.9 3.9 10.7 9.8 20.6 17.5 29.3 10.2 11.2 22.5 18.8 35.4 22.7-20.1 8.3-42.4 8.1-62.4-.8 4.2 11.5 10.5 22.2 18.9 31.5 16.9 18.7 39.1 27.9 61.3 27.7h152c22.1.2 44.4-9.1 61.3-27.7 8.4-9.3 14.7-20 18.9-31.5-19.4 8.8-41.7 9.1-61.8.7z"/><path class="st3" d="m957.9 141.5-.5 1.5c-1.4 3.6-3.9 4-6.1 1.1v-.1c.4 2.7 1.1 5.3 1.9 7.6.6 1.9 1.4 3.4 2.2 4.7-2.3.3-4.6-1-6.9-4 .6 3.6 1.4 7 2.5 10.1 1 2.6 2 4.8 3.2 6.5-3 .9-6.3-.6-9.3-4.7.7 4.4 1.8 8.8 3.2 12.7 1.2 3.4 2.7 6.1 4.1 8.3-3.8 1.5-8-.2-11.8-5.1.9 5.4 2.2 10.6 4 15.3 1.5 4.1 3.3 7.5 5.2 10-4.5 2.3-9.7.6-14.4-5.1 1.1 6.4 2.7 12.4 4.8 17.8 1.9 4.9 4.1 8.8 6.4 11.7-5.3 3.2-11.4 1.5-17.1-4.8 1.2 7.3 3.1 14.2 5.6 20.3 2.3 5.7 4.9 10.1 7.7 13.3-6.2 4.1-13.3 2.8-19.8-4 1.5 8.2 3.6 16 6.5 22.7 2.5 6 5.4 10.7 8.4 14-7.4 5.9-15.8 5.3-23.6-2.1 1.7 9.2 4.2 17.8 7.4 25.1 2.8 6.2 5.9 11.1 9.2 14.5-8.6 8.1-18.6 8.6-28 .9 1.9 10.3 4.8 19.6 8.6 27.6 3.4 7 7.2 12.3 11.2 15.7-9.6 9.7-20.9 11.4-31.5 3.9 2.3 11.2 5.6 21.4 9.9 29.8 3.6 6.8 7.4 11.8 11.6 15.2-9.9 8.6-21 10.4-31.6 4.2 2.5 12.1 6.3 23 11.2 31.8 6.2 11.1 13.5 17.2 21 18.9-11.6 13.9-25.4 19-38.4 13.3 2.7 12.9 7 24.2 12.4 32.9 10.5 17 23.6 20.9 35.9 14.3l37.4-19.6V129.6c-.2 0-.9 7.3-2.5 11.9z"/><path class="st4" d="M955.2 142.6c-.4.6-.7 1.1-1.1 1.6-.3.5-.7.9-1.1 1.3-.5-.3-1.1-.8-1.5-1.5.2.8.3 1.7.5 2.5-3.1 2.3-7.2 3-10.8 1.4h-.1c.9 2.4 2.2 4.7 4 6.6 1.4 1.5 3 2.7 4.7 3.7-4.8 1.2-9.9.8-14.6-1.2 1.2 3.2 3 6.3 5.3 8.9 1.8 1.9 3.8 3.6 5.9 4.8.1.2.1.4.2.6-6.3 1.8-12.9 1.4-19-1.4 1.5 4 3.7 7.8 6.7 11.2 2.3 2.6 5 4.7 7.8 6.2.1.2.1.5.2.7-7.8 2.5-16.2 2-23.8-1.4 1.8 4.8 4.4 9.5 8.1 13.4 3.2 3.5 6.7 6.1 10.5 8.1 0 .1.1.2.1.2-9.5 3.3-19.7 2.9-28.9-1.2 2.1 5.7 5.3 11.1 9.4 15.7 3.9 4.3 8.3 7.5 13 9.9-11 4-23 3.7-33.9-1.1 2.4 6.5 6 12.6 10.7 17.9 4.5 5 9.8 8.8 15.3 11.4-12.4 4.7-26.1 4.3-38.4-1.1 2.7 7.4 6.7 14.2 12.1 20.2 4.8 5.3 10.4 9.5 16.4 12.4-14.3 5.9-30.1 5.7-44.4-.6 3 8.2 7.5 15.8 13.5 22.5 5.2 5.7 11.1 10.2 17.3 13.4-16.1 7.1-34.3 7.1-50.4 0 3.3 9 8.2 17.5 14.9 24.7 6 6.6 12.8 11.6 20.1 15.3-17.5 7.5-36.9 7.4-54.3-.3 3.6 9.8 9 19 16.2 27 5.9 6.5 12.6 11.7 19.8 15.6-17.1 5.4-35.4 4.4-52-2.9 3.9 10.7 9.8 20.6 17.5 29.3 10.2 11.2 22.5 18.8 35.4 22.7-20.1 8.3-42.4 8.1-62.4-.8 4.2 11.5 10.5 22.2 18.9 31.5 16.8 18.6 39 27.8 61 27.7 1 1.9 1.9 3.6 3 5.3 10.5 17 23.6 20.9 35.9 14.3L950 523v15.6c0 2.7 2.2 4.8 4.8 4.8h5.6V129.6c-.2 0-1.8 7.6-5.2 13z"/><path class="st1" d="M1320.8 543.4h-11.1c-2.7 0-4.8-2.2-4.8-4.8v-29.2h20.8v29.2c0 2.6-2.2 4.8-4.9 4.8z"/><path class="st2" d="M1409.1 459c13-3.9 25.2-11.4 35.4-22.7 7.8-8.6 13.7-18.6 17.5-29.3-16.6 7.4-34.9 8.3-52 2.9 7.1-3.9 13.8-9.1 19.8-15.6 7.2-7.9 12.6-17.1 16.2-27-17.4 7.8-36.9 7.8-54.3.3 7.3-3.6 14.1-8.6 20.1-15.3 6.6-7.3 11.6-15.8 14.9-24.7-16.1 7.2-34.3 7.2-50.4 0 6.3-3.2 12.1-7.7 17.3-13.4 6-6.6 10.5-14.3 13.5-22.5-14.1 6.3-30.1 6.5-44.4.6 5.9-2.9 11.5-7.1 16.4-12.4 5.4-6 9.5-12.9 12.1-20.2-12.3 5.4-25.9 5.8-38.4 1.1 5.6-2.6 10.7-6.4 15.3-11.4 4.8-5.3 8.4-11.4 10.7-17.9-10.8 4.8-22.9 5.2-33.9 1.1 4.7-2.3 9.1-5.6 13-9.9 4.2-4.6 7.4-9.9 9.4-15.7-9.3 4.1-19.7 4.5-29.3 1.1 4-1.9 7.6-4.7 10.8-8.2 3.6-4 6.3-8.6 8.1-13.4-7.8 3.5-16.5 3.9-24.5 1.1 3.2-1.6 6.1-3.9 8.7-6.7 3-3.3 5.3-7.1 6.7-11.2-6.2 2.7-13.2 3.2-19.6 1.1 2.4-1.3 4.7-3 6.7-5.3 2.3-2.6 4.1-5.7 5.3-8.9-4.7 2.1-9.8 2.4-14.6 1.2 1.7-1 3.3-2.2 4.7-3.7 1.8-1.9 3.1-4.2 4-6.6h-.1c-4.6 2-10.1.4-13.1-3.6-.4-.5-.7-1.1-1.1-1.6-3.3-5.3-4.9-12.9-4.9-12.9s-1.6 7.6-5.1 13c-.4.6-.7 1.1-1.1 1.6-3 4-8.4 5.7-13.1 3.6h-.1c.9 2.4 2.2 4.7 4 6.6 1.4 1.5 3 2.7 4.7 3.7-4.8 1.2-9.9.8-14.6-1.2 1.2 3.2 3 6.3 5.3 8.9 2 2.2 4.3 4 6.7 5.3-6.5 2-13.3 1.6-19.6-1.1 1.5 4 3.7 7.8 6.7 11.2 2.6 2.9 5.6 5.1 8.7 6.7-8 2.7-16.7 2.3-24.5-1.1 1.8 4.8 4.4 9.5 8.1 13.4 3.2 3.6 7 6.3 10.8 8.2-9.5 3.4-19.9 3.1-29.3-1.1 2.1 5.7 5.3 11.1 9.4 15.7 3.9 4.3 8.3 7.5 13 9.9-11 4-23 3.7-33.9-1.1 2.4 6.5 6 12.6 10.8 17.9 4.5 5 9.8 8.8 15.3 11.4-12.4 4.7-26.1 4.3-38.4-1.1 2.7 7.4 6.7 14.2 12.1 20.2 4.8 5.3 10.4 9.5 16.4 12.4-14.3 5.9-30.1 5.7-44.4-.6 3 8.2 7.5 15.8 13.5 22.5 5.2 5.7 11.1 10.2 17.3 13.4-16.1 7.1-34.3 7.1-50.4 0 3.3 9 8.2 17.5 14.9 24.7 6 6.6 12.8 11.6 20.1 15.3-17.5 7.5-36.9 7.4-54.3-.3 3.6 9.8 9 19 16.2 27 5.9 6.5 12.6 11.7 19.8 15.6-17.1 5.4-35.4 4.4-52-2.9 3.9 10.7 9.8 20.6 17.5 29.3 10.2 11.2 22.5 18.8 35.4 22.7-20.1 8.3-42.4 8.1-62.4-.8 4.2 11.5 10.5 22.2 18.9 31.5 16.9 18.7 39.1 27.9 61.3 27.7h152c22.1.2 44.4-9.1 61.3-27.7 8.4-9.3 14.7-20 18.9-31.5-19.5 8.8-41.8 9.1-61.9.7z"/><path class="st3" d="m1312.9 141.5-.5 1.5c-1.4 3.6-3.9 4-6.1 1.1v-.1c.4 2.7 1.1 5.3 1.9 7.6.6 1.9 1.4 3.4 2.2 4.7-2.3.3-4.6-1-6.9-4 .6 3.6 1.4 7 2.5 10.1 1 2.6 2 4.8 3.2 6.5-3 .9-6.3-.6-9.3-4.7.7 4.4 1.8 8.8 3.2 12.7 1.2 3.4 2.7 6.1 4.1 8.3-3.8 1.5-8-.2-11.8-5.1.9 5.4 2.2 10.6 4 15.3 1.5 4.1 3.3 7.5 5.2 10-4.5 2.3-9.7.6-14.4-5.1 1.1 6.4 2.7 12.4 4.8 17.8 1.9 4.9 4.1 8.8 6.4 11.7-5.3 3.2-11.4 1.5-17.1-4.8 1.2 7.3 3.1 14.2 5.6 20.3 2.3 5.7 4.9 10.1 7.7 13.3-6.2 4.1-13.3 2.8-19.8-4 1.5 8.2 3.6 16 6.5 22.7 2.5 6 5.4 10.7 8.4 14-7.4 5.9-15.8 5.3-23.6-2.1 1.7 9.2 4.2 17.8 7.4 25.1 2.8 6.2 5.9 11.1 9.2 14.5-8.6 8.1-18.6 8.6-28 .9 1.9 10.3 4.8 19.6 8.6 27.6 3.4 7 7.2 12.3 11.2 15.7-9.6 9.7-20.9 11.4-31.5 3.9 2.3 11.2 5.6 21.4 9.9 29.8 3.6 6.8 7.4 11.8 11.6 15.2-9.9 8.6-21 10.4-31.6 4.2 2.5 12.1 6.3 23 11.2 31.8 6.2 11.1 13.5 17.2 21 18.9-11.6 13.9-25.4 19-38.4 13.3 2.7 12.9 7 24.2 12.4 32.9 10.5 17 23.6 20.9 35.9 14.3l37.4-19.6V129.6c-.2 0-.9 7.3-2.5 11.9z"/><path class="st4" d="M1310.2 142.6c-.4.6-.7 1.1-1.1 1.6-.3.5-.7.9-1.1 1.3-.5-.3-1.1-.8-1.5-1.5.2.8.3 1.7.5 2.5-3.1 2.3-7.2 3-10.8 1.4h-.1c.9 2.4 2.2 4.7 4 6.6 1.4 1.5 3 2.7 4.7 3.7-4.8 1.2-9.9.8-14.6-1.2 1.2 3.2 3 6.3 5.3 8.9 1.8 1.9 3.8 3.6 5.9 4.8.1.2.1.4.2.6-6.3 1.8-12.9 1.4-19-1.4 1.5 4 3.7 7.8 6.7 11.2 2.3 2.6 5 4.7 7.8 6.2.1.2.1.5.2.7-7.8 2.5-16.2 2-23.8-1.4 1.8 4.8 4.4 9.5 8.1 13.4 3.2 3.5 6.7 6.1 10.5 8.1 0 .1.1.2.1.2-9.5 3.3-19.7 2.9-28.9-1.2 2.1 5.7 5.3 11.1 9.4 15.7 3.9 4.3 8.3 7.5 13 9.9-11 4-23 3.7-33.9-1.1 2.4 6.5 6 12.6 10.7 17.9 4.5 5 9.8 8.8 15.3 11.4-12.4 4.7-26.1 4.3-38.4-1.1 2.7 7.4 6.7 14.2 12.1 20.2 4.8 5.3 10.4 9.5 16.4 12.4-14.3 5.9-30.1 5.7-44.4-.6 3 8.2 7.5 15.8 13.5 22.5 5.2 5.7 11.1 10.2 17.3 13.4-16.1 7.1-34.3 7.1-50.4 0 3.3 9 8.2 17.5 14.9 24.7 6 6.6 12.8 11.6 20.1 15.3-17.5 7.5-36.9 7.4-54.3-.3 3.6 9.8 9 19 16.2 27 5.9 6.5 12.6 11.7 19.8 15.6-17.1 5.4-35.4 4.4-52-2.9 3.9 10.7 9.8 20.6 17.5 29.3 10.2 11.2 22.5 18.8 35.4 22.7-20.1 8.3-42.4 8.1-62.4-.8 4.2 11.5 10.5 22.2 18.9 31.5 16.8 18.6 39 27.8 61 27.7 1 1.9 1.9 3.6 3 5.3 10.5 17 23.6 20.9 35.9 14.3L1305 523v15.6c0 2.7 2.2 4.8 4.8 4.8h5.6V129.6c-.2 0-1.8 7.6-5.2 13z"/><path class="st1" d="M610.8 543.4h-11.1c-2.7 0-4.8-2.2-4.8-4.8v-29.2h20.8v29.2c0 2.6-2.2 4.8-4.9 4.8z"/><path class="st2" d="M699.1 459c13-3.9 25.2-11.4 35.4-22.7 7.8-8.6 13.7-18.6 17.5-29.3-16.6 7.4-34.9 8.3-52 2.9 7.1-3.9 13.8-9.1 19.8-15.6 7.2-7.9 12.6-17.1 16.2-27-17.4 7.8-36.9 7.8-54.3.3 7.3-3.6 14.1-8.6 20.1-15.3 6.6-7.3 11.6-15.8 14.9-24.7-16.1 7.2-34.3 7.2-50.4 0 6.3-3.2 12.1-7.7 17.3-13.4 6-6.6 10.5-14.3 13.5-22.5-14.1 6.3-30.1 6.5-44.4.6 5.9-2.9 11.5-7.1 16.4-12.4 5.4-6 9.5-12.9 12.1-20.2-12.3 5.4-25.9 5.8-38.4 1.1 5.6-2.6 10.7-6.4 15.3-11.4 4.8-5.3 8.4-11.4 10.7-17.9-10.8 4.8-22.9 5.2-33.9 1.1 4.7-2.3 9.1-5.6 13-9.9 4.2-4.6 7.4-9.9 9.4-15.7-9.3 4.1-19.7 4.5-29.3 1.1 4-1.9 7.6-4.7 10.8-8.2 3.6-4 6.3-8.6 8.1-13.4-7.8 3.5-16.5 3.9-24.5 1.1 3.2-1.6 6.1-3.9 8.7-6.7 3-3.3 5.3-7.1 6.7-11.2-6.2 2.7-13.2 3.2-19.6 1.1 2.4-1.3 4.7-3 6.7-5.3 2.3-2.6 4.1-5.7 5.3-8.9-4.7 2.1-9.8 2.4-14.6 1.2 1.7-1 3.3-2.2 4.7-3.7 1.8-1.9 3.1-4.2 4-6.6h-.1c-4.6 2-10.1.4-13.1-3.6-.4-.5-.7-1.1-1.1-1.6-3.3-5.3-4.9-12.9-4.9-12.9s-1.6 7.6-5.1 13c-.4.6-.7 1.1-1.1 1.6-3 4-8.4 5.7-13.1 3.6h-.1c.9 2.4 2.2 4.7 4 6.6 1.4 1.5 3 2.7 4.7 3.7-4.8 1.2-9.9.8-14.6-1.2 1.2 3.2 3 6.3 5.3 8.9 2 2.2 4.3 4 6.7 5.3-6.5 2-13.3 1.6-19.6-1.1 1.5 4 3.7 7.8 6.7 11.2 2.6 2.9 5.6 5.1 8.7 6.7-8 2.7-16.7 2.3-24.5-1.1 1.8 4.8 4.4 9.5 8.1 13.4 3.2 3.6 7 6.3 10.8 8.2-9.5 3.4-19.9 3.1-29.3-1.1 2.1 5.7 5.3 11.1 9.4 15.7 3.9 4.3 8.3 7.5 13 9.9-11 4-23 3.7-33.9-1.1 2.4 6.5 6 12.6 10.7 17.9 4.5 5 9.8 8.8 15.3 11.4-12.4 4.7-26.1 4.3-38.4-1.1 2.7 7.4 6.7 14.2 12.1 20.2 4.8 5.3 10.4 9.5 16.4 12.4-14.3 5.9-30.1 5.7-44.4-.6 3 8.2 7.5 15.8 13.5 22.5 5.2 5.7 11.1 10.2 17.3 13.4-16.1 7.1-34.3 7.1-50.4 0 3.3 9 8.2 17.5 14.9 24.7 6 6.6 12.8 11.6 20.1 15.3-17.5 7.5-36.9 7.4-54.3-.3 3.6 9.8 9 19 16.2 27 5.9 6.5 12.6 11.7 19.8 15.6-17.1 5.4-35.4 4.4-52-2.9 3.9 10.7 9.8 20.6 17.5 29.3 10.2 11.2 22.5 18.8 35.4 22.7-20.1 8.3-42.4 8.1-62.4-.8 4.2 11.5 10.5 22.2 18.9 31.5 16.9 18.7 39.1 27.9 61.3 27.7h152c22.1.2 44.4-9.1 61.3-27.7 8.4-9.3 14.7-20 18.9-31.5-19.4 8.8-41.7 9.1-61.8.7z"/><path class="st3" d="m602.9 141.5-.5 1.5c-1.4 3.6-3.9 4-6.1 1.1v-.1c.4 2.7 1.1 5.3 1.9 7.6.6 1.9 1.4 3.4 2.2 4.7-2.3.3-4.6-1-6.9-4 .6 3.6 1.4 7 2.5 10.1 1 2.6 2 4.8 3.2 6.5-3 .9-6.3-.6-9.3-4.7.7 4.4 1.8 8.8 3.2 12.7 1.2 3.4 2.7 6.1 4.1 8.3-3.8 1.5-8-.2-11.8-5.1.9 5.4 2.2 10.6 4 15.3 1.5 4.1 3.3 7.5 5.2 10-4.5 2.3-9.7.6-14.4-5.1 1.1 6.4 2.7 12.4 4.8 17.8 1.9 4.9 4.1 8.8 6.4 11.7-5.3 3.2-11.4 1.5-17.1-4.8 1.2 7.3 3.1 14.2 5.6 20.3 2.3 5.7 4.9 10.1 7.7 13.3-6.2 4.1-13.3 2.8-19.8-4 1.5 8.2 3.6 16 6.5 22.7 2.5 6 5.4 10.7 8.4 14-7.4 5.9-15.8 5.3-23.6-2.1 1.7 9.2 4.2 17.8 7.4 25.1 2.8 6.2 5.9 11.1 9.2 14.5-8.6 8.1-18.6 8.6-28 .9 1.9 10.3 4.8 19.6 8.6 27.6 3.4 7 7.2 12.3 11.2 15.7-9.6 9.7-20.9 11.4-31.5 3.9 2.3 11.2 5.6 21.4 9.9 29.8 3.6 6.8 7.4 11.8 11.6 15.2-9.9 8.6-21 10.4-31.6 4.2 2.5 12.1 6.3 23 11.2 31.8 6.2 11.1 13.5 17.2 21 18.9-11.6 13.9-25.4 19-38.4 13.3 2.7 12.9 7 24.2 12.4 32.9 10.5 17 23.6 20.9 35.9 14.3l37.4-19.6V129.6c-.2 0-.9 7.3-2.5 11.9z"/><path class="st4" d="M600.2 142.6c-.4.6-.7 1.1-1.1 1.6-.3.5-.7.9-1.1 1.3-.5-.3-1.1-.8-1.5-1.5.2.8.3 1.7.5 2.5-3.1 2.3-7.2 3-10.8 1.4h-.1c.9 2.4 2.2 4.7 4 6.6 1.4 1.5 3 2.7 4.7 3.7-4.8 1.2-9.9.8-14.6-1.2 1.2 3.2 3 6.3 5.3 8.9 1.8 1.9 3.8 3.6 5.9 4.8.1.2.1.4.2.6-6.3 1.8-12.9 1.4-19-1.4 1.5 4 3.7 7.8 6.7 11.2 2.3 2.6 5 4.7 7.8 6.2.1.2.1.5.2.7-7.8 2.5-16.2 2-23.8-1.4 1.8 4.8 4.4 9.5 8.1 13.4 3.2 3.5 6.7 6.1 10.5 8.1 0 .1.1.2.1.2-9.5 3.3-19.7 2.9-28.9-1.2 2.1 5.7 5.3 11.1 9.4 15.7 3.9 4.3 8.3 7.5 13 9.9-11 4-23 3.7-33.9-1.1 2.4 6.5 6 12.6 10.7 17.9 4.5 5 9.8 8.8 15.3 11.4-12.4 4.7-26.1 4.3-38.4-1.1 2.7 7.4 6.7 14.2 12.1 20.2 4.8 5.3 10.4 9.5 16.4 12.4-14.3 5.9-30.1 5.7-44.4-.6 3 8.2 7.5 15.8 13.5 22.5 5.2 5.7 11.1 10.2 17.3 13.4-16.1 7.1-34.3 7.1-50.4 0 3.3 9 8.2 17.5 14.9 24.7 6 6.6 12.8 11.6 20.1 15.3-17.5 7.5-36.9 7.4-54.3-.3 3.6 9.8 9 19 16.2 27 5.9 6.5 12.6 11.7 19.8 15.6-17.1 5.4-35.4 4.4-52-2.9 3.9 10.7 9.8 20.6 17.5 29.3 10.2 11.2 22.5 18.8 35.4 22.7-20.1 8.3-42.4 8.1-62.4-.8 4.2 11.5 10.5 22.2 18.9 31.5 16.8 18.6 39 27.8 61 27.7 1 1.9 1.9 3.6 3 5.3 10.5 17 23.6 20.9 35.9 14.3L595 523v15.6c0 2.7 2.2 4.8 4.8 4.8h5.6V129.6c-.2 0-1.8 7.6-5.2 13z"/></svg>