<svg xmlns="http://www.w3.org/2000/svg" viewBox="0 0 1920 673" xml:space="preserve"><style>.st2{fill:#2e86b7}.st3{fill:#cc584c}</style><path fill="#ddd" d="M0 0h1920v673H0z"/><path fill="#f4f4f4" d="M579 108.5h762v456H579z"/><path class="st2" d="M579 283.3h106.5v106.5H579z"/><path class="st3" d="M1234.5 283.3H1341v106.5h-106.5z"/><path d="M906.8 108.5h106.5V215H906.8zm0 349.5h106.5v106.5H906.8z" fill="#35965f"/><path class="st3" d="M795.8 283.3h106.5v106.5H795.8z"/><path class="st2" d="M1017.8 283.3h106.5v106.5h-106.5z"/><path d="M643 362.2h-8.5v-40.8l-13 4.8v-7.4l21-7.8h.6v51.2zm438.8 0h-8.4v-40.8l-13.1 4.8v-7.4l21-7.8h.6l-.1 51.2zM954 158h5.1c1.5 0 2.7-.1 3.9-.6 1.2-.4 1.9-.9 2.7-1.6s1.2-1.5 1.7-2.6.6-2.1.6-3.1c0-2.6-.6-4.4-1.9-5.7-1.3-1.4-3.3-2-5.8-2-1.2 0-2.3.2-3.2.5-.9.3-1.8.9-2.5 1.5-.8.6-1.2 1.3-1.7 2.3-.5.9-.6 1.9-.6 3h-8.7c0-2 .5-3.9 1.2-5.6.8-1.7 2-3.2 3.5-4.5 1.5-1.4 3.2-2.3 5.1-3s4.2-1.1 6.6-1.1c2.4 0 4.7.3 6.6.9 2 .6 3.8 1.5 5.1 2.7 1.3 1.2 2.5 2.7 3.3 4.5s1.2 3.9 1.2 6.3c0 1.1-.2 2.1-.5 3.2-.3 1-.8 2.1-1.3 3-.6.9-1.3 2-2.4 2.7-1 .8-2.1 1.6-3.3 2.1 1.5.6 2.8 1.2 3.9 2.1 1.1.9 2 1.8 2.6 2.9s1.2 2.1 1.3 3.3.5 2.4.5 3.6c0 2.4-.5 4.5-1.4 6.4-.9 1.9-2.1 3.4-3.6 4.8-1.5 1.3-3.3 2.3-5.4 2.8-2.1.6-4.3 1.1-6.8 1.1-2.3 0-4.3-.3-6.3-.9-2-.6-3.8-1.5-5.4-2.7-1.7-1.2-2.7-2.7-3.6-4.5-.9-1.8-1.3-3.9-1.3-6.3h8.4c0 1.2.2 2.1.6 3.1.5 1.1.9 1.8 1.7 2.4.8.6 1.7 1.2 2.7 1.5 1 .3 2.3.6 3.5.6 2.7 0 4.8-.8 6.3-2.1s2.3-3.4 2.3-6.1c0-1.5-.2-2.7-.6-3.8-.5-1.1-1.1-1.9-2-2.7s-1.8-1.2-3-1.5-2.5-.4-3.9-.4h-5V158zm0 349.5h5.1c1.5 0 2.7-.2 3.9-.6 1.2-.5 1.9-.9 2.7-1.7s1.2-1.5 1.7-2.6.6-2.1.6-3.1c0-2.6-.6-4.4-1.9-5.7-1.3-1.3-3.3-1.9-5.8-1.9-1.2 0-2.3.1-3.2.4-.9.3-1.8.9-2.5 1.5-.8.6-1.2 1.4-1.7 2.3-.5.9-.6 2-.6 3h-8.7c0-1.9.5-3.9 1.2-5.5.8-1.7 2-3.2 3.5-4.5 1.5-1.4 3.2-2.3 5.1-3s4.2-1.1 6.6-1.1c2.4 0 4.7.3 6.6.9 2 .6 3.8 1.5 5.1 2.7 1.3 1.2 2.5 2.7 3.3 4.5.8 1.8 1.2 3.9 1.2 6.3 0 1-.2 2.1-.5 3.1-.3 1.1-.8 2.1-1.3 3s-1.3 1.9-2.4 2.7c-1 .8-2.1 1.7-3.3 2.1 1.5.6 2.8 1.2 3.9 2.1 1.1.9 2 1.8 2.6 2.9s1.2 2.1 1.3 3.3c.2 1.2.5 2.4.5 3.6 0 2.4-.5 4.5-1.4 6.5-.9 2-2.1 3.5-3.6 4.8-1.5 1.4-3.3 2.3-5.4 2.9-2.1.6-4.3 1-6.8 1-2.3 0-4.3-.3-6.3-.9-2-.6-3.8-1.5-5.4-2.7-1.7-1.2-2.7-2.7-3.6-4.5-.9-1.8-1.3-3.9-1.3-6.3h8.4c0 1.2.2 2.1.6 3.2.5 1.1.9 1.8 1.7 2.4s1.7 1.2 2.7 1.5 2.3.6 3.5.6c2.7 0 4.8-.8 6.3-2.1s2.3-3.4 2.3-6.2c0-1.5-.2-2.7-.6-3.8-.5-1-1.1-1.9-2-2.7s-1.8-1.2-3-1.5a16 16 0 0 0-3.9-.5h-5v-6.4zm-87.3-145h-34.3v-5.9l16.6-18.1c1.4-1.5 2.6-3 3.6-4.2s1.6-2.3 2.3-3.3c.6-1 .9-2 1.2-2.9.3-.9.3-1.8.3-2.7 0-1.2-.2-2.3-.6-3.3-.4-1-.9-1.8-1.5-2.5-.6-.8-1.5-1.2-2.4-1.6-.9-.5-2-.6-3.2-.6-3 0-5.3.9-6.8 2.5s-2.1 3.9-2.1 6.9h-8.4c0-2.3.5-4.4 1.2-6.3.8-1.9 2-3.8 3.5-5.3s3.3-2.7 5.5-3.4 4.7-1.4 7.3-1.4c2.5 0 4.8.3 6.8 1s3.6 1.8 5 3 2.4 2.9 3.2 4.7 1 3.8 1 5.8c0 1.7-.3 3.2-.8 4.7s-1.2 3-2.1 4.5c-.9 1.5-2 3-3.3 4.5-1.3 1.5-2.7 3-4 4.7l-11.5 12.4h24v6.8h-.5zm438.7 0h-34.3v-5.9l16.7-18.1c1.3-1.5 2.6-3 3.6-4.2s1.7-2.3 2.3-3.3.9-2 1.2-2.9c.3-.9.3-1.8.3-2.7 0-1.2-.2-2.3-.6-3.3-.4-1-.9-1.8-1.5-2.5s-1.5-1.2-2.4-1.6c-.9-.5-1.9-.6-3.2-.6-3 0-5.3.9-6.8 2.5s-2.1 3.9-2.1 6.9h-8.4c0-2.3.4-4.4 1.2-6.3.8-1.9 2-3.8 3.5-5.3s3.3-2.7 5.5-3.4 4.7-1.4 7.4-1.4c2.5 0 4.8.3 6.8 1 1.9.8 3.6 1.8 4.9 3 1.3 1.2 2.4 2.9 3.2 4.7s1 3.8 1 5.8c0 1.7-.3 3.2-.8 4.7-.4 1.5-1.2 3-2.1 4.5s-1.9 3-3.3 4.5-2.7 3-4.1 4.7l-11.6 12.4h24v6.8h-.4z" fill="#fff"/><path d="M1338 111.5v450H582v-450h756m6-6H576v462h768v-462z" fill="#36434f"/></svg>