<svg xmlns="http://www.w3.org/2000/svg" viewBox="0 0 1920 673" xml:space="preserve"><style>.st1{fill:#e0ac7e}.st2{fill:#66442b}</style><path fill="#f4f4f4" d="M0 0h1920v673H0z"/><path class="st1" d="M660.5 318.2v-14.8H923v14.8H660.5z"/><path class="st2" d="M674.5 303.4c-9-2-19-3.3-22-3.3-5.9 0-10.7 4.8-10.7 10.7 0 5.9 4.8 10.7 10.7 10.7 3 0 13-1.3 22-3.3v-14.8z"/><path class="st1" d="m751.1 55.4 12.8 7.4-131.2 227.4-12.8-7.4L751.1 55.4z"/><path class="st2" d="M756.9 75c6.3-6.8 12.4-14.8 13.9-17.4 3-5.1 1.2-11.7-3.9-14.6-5.1-3-11.7-1.2-14.6 3.9-1.5 2.6-5.4 11.9-8.2 20.7l12.8 7.4z"/><path class="st1" d="m936.7 268.9-12.8 7.4L792.6 48.9l12.8-7.4 131.3 227.4z"/><path class="st2" d="M916.8 264.1c2.7 8.8 6.6 18.1 8.2 20.7 3 5.1 9.5 6.9 14.6 3.9 5.1-3 6.9-9.5 3.9-14.6-1.5-2.6-7.6-10.6-13.9-17.4l-12.8 7.4z"/><path class="st1" d="M1015.6 318.2v-14.8h262.6v14.8h-262.6z"/><path class="st2" d="M1029.7 303.4c-9-2-19-3.3-22-3.3-5.9 0-10.7 4.8-10.7 10.7 0 5.9 4.8 10.7 10.7 10.7 3 0 13-1.3 22-3.3v-14.8z"/><path class="st1" d="m1106.3 55.4 12.8 7.4-131.3 227.4-12.8-7.4 131.3-227.4z"/><path class="st2" d="M1112.1 75c6.3-6.8 12.4-14.8 13.9-17.4 3-5.1 1.2-11.7-3.9-14.6-5.1-3-11.7-1.2-14.6 3.9-1.5 2.6-5.4 11.9-8.2 20.7l12.8 7.4z"/><path class="st1" d="m1291.9 268.9-12.8 7.4-131.3-227.4 12.8-7.4 131.3 227.4z"/><path class="st2" d="M1272 264.1c2.7 8.8 6.6 18.1 8.2 20.7 3 5.1 9.5 6.9 14.6 3.9s6.9-9.5 3.9-14.6c-1.5-2.6-7.6-10.6-13.9-17.4l-12.8 7.4z"/><path class="st1" d="M660.5 628.2v-14.8H923v14.8H660.5z"/><path class="st2" d="M674.5 613.4c-9-2-19-3.3-22-3.3-5.9 0-10.7 4.8-10.7 10.7 0 5.9 4.8 10.7 10.7 10.7 3 0 13-1.3 22-3.3v-14.8z"/><path class="st1" d="m751.1 365.4 12.8 7.4-131.2 227.4-12.8-7.4 131.2-227.4z"/><path class="st2" d="M756.9 385c6.3-6.8 12.4-14.8 13.9-17.4 3-5.1 1.2-11.7-3.9-14.6-5.1-3-11.7-1.2-14.6 3.9-1.5 2.6-5.4 11.9-8.2 20.7l12.8 7.4z"/><path class="st1" d="m936.7 578.9-12.8 7.4-131.3-227.4 12.8-7.4 131.3 227.4z"/><path class="st2" d="M916.8 574.1c2.7 8.8 6.6 18.1 8.2 20.7 3 5.1 9.5 6.9 14.6 3.9 5.1-3 6.9-9.5 3.9-14.6-1.5-2.6-7.6-10.6-13.9-17.4l-12.8 7.4z"/><path class="st1" d="M1015.6 628.2v-14.8h262.6v14.8h-262.6z"/><path class="st2" d="M1029.7 613.4c-9-2-19-3.3-22-3.3-5.9 0-10.7 4.8-10.7 10.7 0 5.9 4.8 10.7 10.7 10.7 3 0 13-1.3 22-3.3v-14.8z"/><path class="st1" d="m1106.3 365.4 12.8 7.4-131.3 227.4-12.8-7.4 131.3-227.4z"/><path class="st2" d="M1112.1 385c6.3-6.8 12.4-14.8 13.9-17.4 3-5.1 1.2-11.7-3.9-14.6-5.1-3-11.7-1.2-14.6 3.9-1.5 2.6-5.4 11.9-8.2 20.7l12.8 7.4z"/><path class="st1" d="m1291.9 578.9-12.8 7.4-131.3-227.4 12.8-7.4 131.3 227.4z"/><path class="st2" d="M1272 574.1c2.7 8.8 6.6 18.1 8.2 20.7 3 5.1 9.5 6.9 14.6 3.9s6.9-9.5 3.9-14.6c-1.5-2.6-7.6-10.6-13.9-17.4l-12.8 7.4z"/></svg>