<svg version="1.1" xmlns="http://www.w3.org/2000/svg" x="0" y="0" viewBox="0 0 357 419" xml:space="preserve"><path d="M266.1 419H262c-10.4-.2-21.2-1.1-33-2.7-10.3-1.5-20.8-3.6-32.2-6.5-11-2.7-21.9-6-31-8.9-10.7-3.5-21.2-7-30-10-4.8-1.6-9.8-3.3-14.6-4.9-4.4-1.4-9.1-2.9-13.6-3.9-.6-.1-1.2-.2-1.8-.4-.4-.1-.9-.2-1.3-.3l-3.7-.6c-2.5-.4-4.8-.8-7.2-1h-.2c-4.9-.7-9.7-.9-14.4-1.2-4.3-.3-7.7-4-7.4-8.3.2-4.3 4-7.7 8.3-7.4 4.8.3 10.2.6 15.6 1.3 2.7.3 5.2.7 7.7 1.1l3.8.6c.8.1 1.5.3 2.2.4.4.1.9.2 1.3.3l.5.1c5.1 1.2 10.3 2.8 15.1 4.3 4.9 1.6 9.9 3.3 14.8 5 8.8 3 19.2 6.5 29.7 9.9 8.8 2.8 19.4 6 30 8.6 10.9 2.7 20.9 4.7 30.7 6.2 11.2 1.6 21.4 2.4 31.1 2.6 10.8.2 21.3-.4 31.2-1.9 11.9-1.9 21.3-4.8 29.4-9.1 4.7-2.5 8.7-5.7 11.8-9.3 1.9-2.4 3.2-4.3 4-6.2v-.1c1-2.2 1.8-4.9 2.2-7.2.4-2.7.5-5.2.3-7.3-.3-2.7-1-5.2-1.9-7.3-1.8-4.3-4.8-8.2-9-12-3.4-3.1-7.5-5.8-12.7-8.6-4.1-2.2-8.6-4.2-14.1-6.4-8.8-3.3-18.3-6-29.9-8.5-8.9-1.9-18.7-3.6-29.8-5.1l-22.7-3 19.7-11.6c20.8-12.2 33.6-34.8 33.6-58.8 0-1.8 0-3.5-.1-5v-.6c-.3-4.3-1.1-8.4-2.3-12.7-2.6-9.3-7-17.7-13.2-25.2l-2-2.4.1-3.1c.1-2 .1-4 .1-6 0-3 0-5.8-.3-8.5V176c-.6-7.7-1.9-15.4-4-22.8-14.6-53.3-63.4-90.5-118.8-90.5-21.1 0-41.9 5.4-60.2 15.7l-12 6.8.3-14.4v-.7c0-30-24.4-54.3-54.3-54.3-4.3 0-7.8-3.6-7.8-7.9S3.5 0 7.9 0c34.9 0 64 25.7 69.3 59.2 17.8-8 37.3-12.2 57-12.2 62.5 0 117.6 41.9 134 102 2.4 8.5 4 17.4 4.6 26.2v1.1c.3 3.3.3 6.5.3 9.6 0 1.3 0 2.5-.1 3.8 6.6 8.6 11.5 18.2 14.3 28.7 1.5 5.4 2.4 10.6 2.8 16v.9c.1 1.8.1 3.8.1 5.6 0 23-9.6 45-25.9 60.6 4.4.8 8.6 1.6 12.6 2.5 12.3 2.7 22.5 5.6 32.1 9.2 6.3 2.4 11.3 4.7 16 7.2 6.3 3.4 11.3 6.8 15.7 10.7 5.9 5.3 10.3 11.2 13 17.6 1.5 3.5 2.5 7.4 3 11.6.4 3.7.3 7.6-.3 11.8-.6 3.7-1.8 7.6-3.3 11.1-1.8 4.1-4.4 7.6-6.2 9.8l-.2.2c-4.4 5.2-9.9 9.5-16.4 13-9.8 5.2-20.7 8.6-34.5 10.8-9.5 1.3-19.5 2-29.7 2z" fill="#36434f"/></svg>