<svg version="1.1" xmlns="http://www.w3.org/2000/svg" x="0" y="0" viewBox="0 0 509 419" xml:space="preserve"><style type="text/css">.st0{fill:#36434f}</style><path class="st0" d="M86 148.2c-13.2 0-23.9 10.7-23.9 23.9S72.8 196 86 196s23.9-10.7 23.9-23.9c-.1-13.2-10.8-23.9-23.9-23.9zm0 43.7c-11 0-19.9-8.9-19.9-19.9 0-11 8.9-19.9 19.9-19.9 10.9 0 19.9 8.9 19.9 19.9-.1 11-9 19.9-19.9 19.9zm417.3 169c-.4-3.7-1.3-7-2.6-10-2.4-5.7-6.2-10.7-11.5-15.5-4-3.6-8.6-6.7-14.6-9.9-4.5-2.4-9.3-4.6-15.3-6.9-9.3-3.5-19.2-6.3-31.3-8.9-7.7-1.7-16-3.1-25.2-4.5 21-14.5 33.9-38.7 33.9-64.4 0-1.8 0-3.8-.1-5.5v-.6c-.4-4.6-1.1-9.1-2.3-13.7l.1-.1-20.5-74.4-.1.1c-16.9-55.5-68.7-93.9-127.3-93.9-21.6 0-43 5.3-62 15.3-1-34.5-29.4-62.3-64.2-62.3-17.4 0-33.1 6.9-44.7 18.2-24.9 6.8-43.3 29.7-43.3 56.7 0 11.3 3.2 21.9 8.8 30.9-2.8 2.1-5.6 4.4-8.5 6.8-20.7 17.8-40.2 42.8-52.3 66.8-6.9 13.7-10.7 25.8-11.6 36-5.1 2.5-8.6 7.7-8.6 13.7 0 8.4 6.8 15.2 15.2 15.2 1.7 0 3.4-.3 5-.8 19.6 11.8 59.8-.6 92.3-18.9 1.8 2.8 3.8 5.5 5.8 8.1l-44.6 18.2c-2.8 1.1-5 3.3-6.1 6.1-1.2 2.8-1.2 5.9 0 8.7 1 2.7 3.2 4.9 5.9 6.1 2.8 1.2 6 1.2 8.7.1l54.1-22.1c1.2.9 2.4 1.7 3.7 2.5l-29.3 12c-5.7 2.4-8.5 9-6.1 14.8 1 2.7 3.2 4.9 5.9 6.1 2.8 1.2 6 1.2 8.7.1l50.3-20.5c5.1 1.2 10.4 1.9 15.8 2.1 7.9 9.2 16.9 17.3 27 24h-23.1c-6.2 0-11.3 5-11.3 11.3s5 11.3 11.3 11.3h93.4l-.1.1h77.2l.1-.1c1.7 0 3.3-.1 4.8-.2 4.3.2 9.2.5 14.3 1 5 .5 10.2 1 15.3 1.7 10.6 1.3 20.7 3 30.1 5.1 11.1 2.4 20.5 5.1 28.9 8.3 5.3 2 9.6 4 13.3 5.9 4.4 2.4 8.2 4.9 11.2 7.6 3.3 2.9 5.8 6.2 7.1 9.3 1.4 3.2 1.8 6.8 1.1 10.6-.5 3.5-2 6.7-4.5 9.8-2.6 3-5.9 5.5-9.8 7.5-7 3.7-15.8 6.3-27 7.9-9.2 1.2-19 1.6-29.7 1.2-9.8-.4-19.7-1.4-30-3.1-8.9-1.5-18.6-3.6-29.7-6.5-9.5-2.4-19-5.3-29.5-8.5-9.8-3-19.9-6.3-29.7-9.5-4.9-1.6-10.1-3.2-15.2-4.6-5.5-1.6-10.6-3-16-4.1l-.7-.1c-1.2-.3-2.4-.5-3.7-.7l-4.1-.5c-2.6-.3-5.4-.6-8.2-.7l-6.2-.3h-2.1c-2.7 0-5.5 0-8.2.1-10.7.5-21.6 2.1-32.3 4.7-5.8 1.4-11.4 3.3-15.6 4.8-6.2 2.3-10.7 4.4-14.8 6.7-1.1.6-1.6 1.9-1.2 3.1.4 1.3 1.8 2.1 3.1 1.8 4.5-.9 9.5-1.7 15.2-2.4.9-.1 1.7-.2 2.6-.3 1.6-.2 3.4-.4 5.1-.6l3.8-.4 3.8-.3c10.7-.7 20.9-.9 30.3-.4 4.6.3 9.8.6 15 1.3 2.5.3 5 .7 7.4 1.1l3.7.6c.6.1 1.1.2 1.6.3.6.1 1.2.3 1.8.4 4.7 1.1 9.6 2.6 14.2 4.1 4.8 1.6 9.8 3.3 14.6 4.9 8.8 3 19.2 6.5 29.9 10 9 2.8 19.8 6.1 30.6 8.8 11.2 2.8 21.5 4.8 31.6 6.3 11.6 1.6 22.2 2.5 32.3 2.7h4c9.9 0 19.6-.7 28.9-2 13.1-2 23.5-5.3 32.6-10.2 5.8-3.1 10.8-7.1 14.8-11.7 2.6-3.2 4.2-5.8 5.4-8.5 1.4-3 2.4-6.5 2.9-9.7.5-4.1.7-7.5.3-10.6zM76.2 80.7c0-22.7 13.9-42.3 33.7-50.6-8.7 11-14 24.8-14 39.9 0 9.9 2.3 19.7 6.7 28.6-6 2.6-12.1 6.1-18.4 10.6-5.1-8.3-8-18-8-28.5zM4 234.9c0-3.6 1.7-6.8 4.4-8.9.1 7.6 2.1 13.9 6.2 18.6.5.5.9 1 1.4 1.5h-.8c-6.2 0-11.2-5-11.2-11.2zm495 135.5c-.5 2.9-1.4 5.9-2.6 8.7-1 2.4-2.5 4.7-4.8 7.6-3.6 4.2-8.2 7.9-13.6 10.8-8.8 4.7-18.7 7.8-31.3 9.7-10.3 1.5-21.1 2.2-32.2 1.9-10-.2-20.4-1-31.8-2.6-9.9-1.5-20.1-3.5-31.2-6.3-10.8-2.7-21.4-5.9-30.4-8.7-10.6-3.4-21-7-29.9-10-4.8-1.6-9.8-3.3-14.6-4.9-4.7-1.5-9.8-3.1-14.6-4.2h-.1c-.6-.1-1.1-.2-1.6-.3-.6-.1-1.2-.3-1.8-.4l-3.7-.6c-2.4-.4-5-.8-7.5-1.1-5.3-.7-10.5-1-15.2-1.3-3.7-.2-7.6-.3-11.5-.3-6.2 0-12.6.2-19.3.7l-3.9.3-3.8.4c-1.8.1-3.5.4-5.2.6-.8.1-1.7.2-2.6.3-2.2.3-4.3.6-6.3.9 1.8-.8 3.8-1.5 5.9-2.3 4.1-1.4 9.5-3.3 15.2-4.7 10.4-2.6 21-4.1 31.5-4.6 2.6-.1 5.4-.1 8-.1h2l6.1.3c2.7.1 5.4.4 7.9.7l4 .5c1.1.2 2.2.4 3.4.6l.7.1c5.3 1 10.2 2.4 15.7 4 5.1 1.5 10.2 3.1 15.1 4.6 9.8 3.2 19.9 6.5 29.8 9.6 10.6 3.3 20.1 6.2 29.7 8.6 11.2 2.9 21 5 30 6.5 10.5 1.7 20.5 2.8 30.5 3.2 11 .4 20.9 0 30.4-1.2 11.6-1.6 20.9-4.4 28.3-8.3 4.3-2.3 8-5.1 11-8.5 3.1-3.7 4.8-7.6 5.4-11.8.8-4.6.3-8.9-1.4-12.8-1.5-3.7-4.3-7.4-8.1-10.8-3.3-2.9-7.3-5.6-12-8.1-3.8-2-8.3-4-13.7-6.1-8.5-3.2-18.2-6-29.4-8.5-9.6-2.1-19.8-3.8-30.5-5.1-5.2-.7-10.4-1.2-15.4-1.7-5.3-.5-10.2-.9-14.7-1.1h-.2c-1.7.2-3.5.2-5.6.3h-1l-.1.1h-67.2l.1-.1H189.2c-4 0-7.3-3.3-7.3-7.3 0-3.9 3.3-7.3 7.3-7.3h37.3l-6.2-3.7c-12.3-7.3-23.2-16.6-32.4-27.5l-.6-.7h-.9c-5.6-.2-11.2-1-16.5-2.2l-.6-.1-51.5 21c-1.8.8-3.8.7-5.6-.1-1.8-.8-3.1-2.1-3.8-3.9-1.5-3.8.2-8.1 3.9-9.6l36.7-15-3.5-2c-2.6-1.5-5.2-3.2-7.6-5l-.9-.7-56.2 22.9c-1.8.8-3.8.7-5.6-.1-1.8-.8-3.1-2.1-3.8-3.9-.8-1.8-.8-3.8 0-5.7.7-1.8 2.1-3.2 3.9-3.9l49.7-20.3-1.8-2.1c-3-3.5-5.8-7.4-8.3-11.3l-1-1.7-1.7 1c-35.9 20.7-80 32.9-94.5 16.1-8.6-10-6.4-30 6.2-54.9 11.8-23.6 31-48.1 51.3-65.6 10.7-9.3 21.2-16 31-19.9l2.1-.8-1.1-2C102.5 89.9 100 80 100 70c0-33.2 27-60.2 60.2-60.2s60.2 27 60.2 60.2v.9l-.1 4 3.1-1.7c19.2-10.8 41-16.4 63.1-16.4 58.1 0 109.3 39 124.5 94.7l1 3.2 18 65.3-.1.1.3.9c1.3 4.7 2.1 9.2 2.4 13.8v.5c.1 1.6.1 3.5.1 5.3 0 26.1-14 50.6-36.5 63.9l-5 2.9 5.8.8c11.3 1.5 21.2 3.2 30.3 5.2 11.9 2.6 21.6 5.4 30.7 8.8 5.8 2.2 10.5 4.4 14.8 6.7 5.6 3 10 6 13.8 9.4 4.9 4.4 8.3 9 10.5 14.1 1.1 2.6 1.9 5.6 2.3 8.9.2 2.8.1 5.9-.4 9.1zm-423.3-205c-3.7 0-6.6 3-6.6 6.6 0 3.7 3 6.6 6.6 6.6 3.7 0 6.6-3 6.6-6.6 0-3.6-3-6.6-6.6-6.6zm0 9.2c-1.4 0-2.6-1.2-2.6-2.6 0-1.4 1.2-2.6 2.6-2.6 1.4 0 2.6 1.2 2.6 2.6 0 1.5-1.2 2.6-2.6 2.6z"/><path class="st0" d="M418.4 419h-4.1c-10.4-.2-21.2-1.1-33-2.7-10.3-1.5-20.8-3.6-32.2-6.5-11-2.7-21.9-6-31-8.9-10.7-3.5-21.2-7-30-10-4.8-1.6-9.8-3.3-14.6-4.9-4.4-1.4-9.1-2.9-13.6-3.9-.6-.1-1.2-.2-1.8-.4-.4-.1-.9-.2-1.3-.3l-3.7-.6c-2.5-.4-4.8-.8-7.2-1h-.2c-4.9-.7-9.7-.9-14.4-1.2-4.3-.3-7.7-4-7.4-8.3.2-4.3 4-7.7 8.3-7.4 4.8.3 10.2.6 15.6 1.3 2.7.3 5.2.7 7.7 1.1l3.8.6c.8.1 1.5.3 2.2.4.4.1.9.2 1.3.3l.5.1c5.1 1.2 10.3 2.8 15.1 4.3 4.9 1.6 9.9 3.3 14.8 5 8.8 3 19.2 6.5 29.7 9.9 8.8 2.8 19.4 6 30 8.6 10.9 2.7 20.9 4.7 30.7 6.2 11.2 1.6 21.4 2.4 31.1 2.6 10.8.2 21.3-.4 31.2-1.9 11.9-1.9 21.3-4.8 29.4-9.1 4.7-2.5 8.7-5.7 11.8-9.3 1.9-2.4 3.2-4.3 4-6.2v-.1c1-2.2 1.8-4.9 2.2-7.2.4-2.7.5-5.2.3-7.3-.3-2.7-1-5.2-1.9-7.3-1.8-4.3-4.8-8.2-9-12-3.4-3.1-7.5-5.8-12.7-8.6-4.1-2.2-8.6-4.2-14.1-6.4-8.8-3.3-18.3-6-29.9-8.5-8.9-1.9-18.7-3.6-29.8-5.1l-22.7-3 19.7-11.6c20.8-12.2 33.6-34.8 33.6-58.8 0-1.8 0-3.5-.1-5v-.6c-.3-4.3-1.1-8.4-2.3-12.7-2.6-9.3-7-17.7-13.2-25.2l-2-2.4.1-3.1c.1-2 .1-4 .1-6 0-3 0-5.8-.3-8.5V176c-.6-7.7-1.9-15.4-4-22.8-14.6-53.3-63.4-90.5-118.8-90.5-21.1 0-41.9 5.4-60.2 15.7l-12 6.8.3-14.4v-.7c0-30-24.4-54.3-54.3-54.3-4.4 0-7.9-3.5-7.9-7.9s3.5-7.9 7.9-7.9c34.9 0 64 25.7 69.3 59.2 17.8-8 37.3-12.2 57-12.2 62.5 0 117.6 41.9 134 102 2.4 8.5 4 17.4 4.6 26.2v1.1c.3 3.3.3 6.5.3 9.6 0 1.3 0 2.5-.1 3.8 6.6 8.6 11.5 18.2 14.3 28.7 1.5 5.4 2.4 10.6 2.8 16v.9c.1 1.8.1 3.8.1 5.6 0 23-9.6 45-25.9 60.6 4.4.8 8.6 1.6 12.6 2.5 12.3 2.7 22.5 5.6 32.1 9.2 6.3 2.4 11.3 4.7 16 7.2 6.3 3.4 11.3 6.8 15.7 10.7 5.9 5.3 10.3 11.2 13 17.6 1.5 3.5 2.5 7.4 3 11.6.4 3.7.3 7.6-.3 11.8-.6 3.7-1.8 7.6-3.3 11.1-1.8 4.1-4.4 7.6-6.2 9.8l-.2.2c-4.4 5.2-9.9 9.5-16.4 13-9.8 5.2-20.7 8.6-34.5 10.8-9.5 1.3-19.4 2-29.6 2z"/></svg>