<svg xmlns="http://www.w3.org/2000/svg" viewBox="0 0 1920 673" xml:space="preserve"><path fill="#35965f" d="M0 0h1920v673H0z"/><path d="M519.4 402.7h-41.3V271.4l-40.5 11.8V252l78-27h3.8v177.7zm68.7 47.9-20.8-9.8 4.2-8.3c5.7-10.6 8.7-20.7 8.9-30.3v-30.5h33l-.1 26.5c-.1 9.4-2.5 18.9-7.2 28.6-4.8 9.7-10.7 17.6-18 23.8zm238.5-47.9h-124v-26.9l57.1-60.1c14.1-16 21.1-28.8 21.1-38.2 0-7.6-1.7-13.5-5-17.5s-8.2-6-14.5-6c-6.3 0-11.4 2.7-15.3 8-3.9 5.3-5.9 12-5.9 20H699c0-10.9 2.7-21 8.2-30.2 5.5-9.2 13-16.5 22.7-21.7 9.7-5.2 20.5-7.8 32.5-7.8 19.2 0 34 4.4 44.4 13.3 10.4 8.9 15.6 21.6 15.6 38.2 0 7-1.3 13.8-3.9 20.4-2.6 6.6-6.7 13.6-12.1 20.9-5.5 7.3-14.3 17-26.6 29.2L756.7 371h69.9v31.7zm35.9 47.9-20.8-9.8 4.2-8.3c5.7-10.6 8.7-20.7 8.9-30.3v-30.5h33l-.1 26.5c-.1 9.4-2.5 18.9-7.2 28.6-4.7 9.7-10.7 17.6-18 23.8zm378.7 0-20.8-9.8 4.2-8.3c5.7-10.6 8.7-20.7 8.9-30.3v-30.5h33l-.1 26.5c-.1 9.4-2.5 18.9-7.2 28.6-4.8 9.7-10.8 17.6-18 23.8zm223.1-117.3h18.1V365h-18.1v37.7h-41.1V365h-68.7l-2.4-25.1 71.2-114.5v-.4h41.1v108.3zm-73.1 0h32v-54.7l-2.6 4.2-29.4 50.5zm-434.4 69.4c0-8.4.1-16.8-.1-25.2 0-2.5-.5-5.1-1.2-7.5-2.3-7.2-5-14.2-7-21.5-1.5-5.6-2.7-11.4-3-17.1-.9-15.3-4.7-30-8.8-44.7-.8-3-1.5-6.1-2.7-9-2.6-5.7-2.6-11.9-3.5-17.9-.3-2.1.4-4.3 2.6-5.4 1.8-.8 4.8.1 6.3 2.2 1.1 1.6 2.2 3.3 2.7 5.2 1.4 4.9 2.6 9.9 3.8 14.9.8 3.2 2.1 6 3.9 8.8 1.6 2.5 2.1 5.4 2.9 8.2.8 3 1.9 8.5 2.8 9s2.3-2 2.6-3.5c.4-1.8-.1-3.5-.3-5.2-.3-2-.5-3.9-.8-5.9-.5-3.9-1.1-7.8-1.6-11.8-1.1-7.8-2.1-15.7-3.2-23.5-.6-4.7-1.3-9.4-1.9-14.1-.1-1.1-.4-2.3-.1-3.3.7-3.1 3.7-5.6 6.1-5.6 2.5 0 5 2.6 5.6 6 1.1 6.4 1.9 13 3 19.4 1 5.3 2.4 10.5 3.6 15.8 1.6 7 3 14.1 4.4 21.2 0 .2.1.6.4.7.2.1.6 0 .8-.2.2-.2.2-.5.3-.8.5-2.9-.2-6.1-.5-9-.3-3.2-.6-6.4-.8-9.7-.2-3.7.2-7.3.4-11 .1-1.4.3-2.8.3-4.2v-26.9c0-1-.1-2 0-3 .3-3.4 2.6-5.9 5.4-5.9 4.2 0 7.1 2.3 7.4 6.1.6 11.1 1.2 22.2 1.7 33.3.4 8.8.6 17.7.8 26.5.1 2 0 4.2 2.9 4.3 2 .1 4.8-2.3 5-4.3.6-6.2 1-12.5 1.6-18.7 1-10.9 2-21.8 3.2-32.7.5-4.4 4.4-7 8-5.9 2.9.8 4 3.4 4 5.9.1 12.7-.1 25.3-.1 38 0 11.2-.2 22.5.4 33.7.2 4.6 3 12.8 4 13.3s2.9-1 4.3-1.7c.2-.1.4-.2.6-.4.1-.1.2-.3.3-.5 1.1-2.3 2.1-4.7 3.3-6.9 2-3.7 4.5-6.9 4.7-11.6.1-2.8 2.2-5.9 4.2-8.2 3-3.7 6.3-7.3 11.3-8.5 2.7-.6 5 1.3 3.7 3.6-3.9 6.8-4.3 14.3-5.3 21.8-.2 1.4-.8 2.8-1.5 3.9-4.6 7.2-6.6 15.4-9.3 23.3-.7 2.1-1.7 4.2-3 6.1-5.9 8.4-11.8 16.7-17.9 25-3.3 4.5-5 9.4-5.6 14.9-.7 6.8-1.7 13.6-2.6 20.3-16-.1-32.3-.1-48.5-.1zm194.7 0h-48.7c-.9-6.8-1.9-13.5-2.6-20.3-.6-5.5-2.3-10.4-5.6-14.9-6.1-8.2-12-16.6-17.9-25-1.3-1.8-2.2-3.9-3-6.1-2.7-7.9-4.8-16.1-9.3-23.3-.7-1.2-1.3-2.6-1.5-3.9-1-7.4-1.3-15-5.3-21.8-1.3-2.3.9-4.3 3.7-3.6 5 1.2 8.4 4.8 11.3 8.5 1.9 2.4 4.1 5.4 4.2 8.2.2 4.7 2.7 7.9 4.7 11.6 1.2 2.2 2.3 4.6 3.3 6.9.1.2.1.3.3.5.2.2.4.3.6.4 1.4.7 3.3 2.3 4.3 1.7 1-.5 3.8-8.7 4-13.3.6-11.2.4-22.4.4-33.7 0-12.7-.2-25.3-.1-38 0-2.5 1.1-5 4-5.9 3.7-1.1 7.5 1.5 8 5.9 1.2 10.9 2.2 21.8 3.2 32.7.6 6.2 1 12.5 1.6 18.7.2 2 2.9 4.4 5 4.3 2.9-.1 2.8-2.3 2.9-4.3.3-8.8.5-17.7.8-26.5.5-11.1 1.1-22.2 1.7-33.3.2-3.8 3.2-6.1 7.4-6.1 2.9 0 5.1 2.5 5.4 5.9.1 1 0 2 0 3v26.9c0 1.4.2 2.8.3 4.2.2 3.7.5 7.4.4 11-.2 3.2-.5 6.4-.8 9.7-.3 2.9-1 6.1-.5 9 .1.3.1.6.3.8.2.2.5.4.8.2.2-.1.3-.5.4-.7 1.4-7.1 2.8-14.2 4.4-21.2 1.1-5.3 2.6-10.5 3.6-15.8 1.2-6.4 1.9-12.9 3-19.4.6-3.4 3.2-6 5.6-6 2.5 0 5.4 2.5 6.1 5.6.3 1.1.1 2.3-.1 3.3-.6 4.7-1.3 9.4-1.9 14.1-1.1 7.8-2.1 15.7-3.2 23.5-.6 3.9-1.1 7.9-1.6 11.8-.3 2-.5 3.9-.8 5.9-.2 1.8-.7 3.5-.3 5.2.3 1.5 1.7 4.1 2.6 3.5.9-.5 2-6 2.8-9 .8-2.8 1.4-5.7 2.9-8.2 1.8-2.9 3.1-5.6 3.9-8.8 1.2-5 2.4-10 3.8-14.9.5-1.9 1.6-3.6 2.7-5.2 1.6-2.1 4.5-3 6.3-2.2 2.3 1.1 3 3.2 2.6 5.4-.8 6-.9 12.2-3.5 17.9-1.3 2.9-1.9 6-2.7 9-4.1 14.7-7.9 29.4-8.8 44.7-.4 5.7-1.5 11.6-3 17.1-2 7.3-4.8 14.3-7 21.5-.7 2.4-1.2 5-1.2 7.5 0 8.5.1 16.9.1 25.3z" fill="#fff"/></svg>