<svg xmlns="http://www.w3.org/2000/svg" viewBox="0 0 1920 673" xml:space="preserve"><path fill="#36434f" d="M0 0h1920v673H0z"/><path d="M692.2 63v20.3h-2.4c-11.2.2-20.2 3.1-27 8.7-6.8 5.6-10.9 13.5-12.3 23.5 6.6-6.7 15-10.1 25-10.1 10.8 0 19.4 3.9 25.8 11.6 6.4 7.7 9.6 17.9 9.6 30.6 0 8.1-1.8 15.4-5.3 22s-8.5 11.7-14.9 15.3c-6.4 3.6-13.7 5.5-21.7 5.5-13.1 0-23.7-4.6-31.7-13.7-8.1-9.1-12.1-21.3-12.1-36.5v-8.9c0-13.5 2.5-25.4 7.6-35.8 5.1-10.3 12.4-18.3 22-24 9.5-5.7 20.6-8.5 33.2-8.6h4.2zm-24.1 62.4c-4 0-7.6 1-10.9 3.1-3.2 2.1-5.6 4.8-7.2 8.2v7.5c0 8.2 1.6 14.7 4.9 19.3 3.2 4.6 7.8 7 13.7 7 5.3 0 9.6-2.1 12.9-6.3 3.3-4.2 4.9-9.6 4.9-16.2 0-6.8-1.7-12.2-5-16.4-3.3-4.1-7.8-6.2-13.3-6.2zm142.1-47.3-48.1 110.6H736l48.2-104.5h-61.9V64.3h87.8v13.8zm96.9 19.3c0 6-1.5 11.4-4.5 16.1-3 4.7-7.2 8.4-12.5 11.2 6 2.9 10.8 6.9 14.4 12 3.5 5.1 5.3 11.1 5.3 18 0 11.1-3.8 19.8-11.3 26.2-7.5 6.4-17.7 9.6-30.7 9.6-12.9 0-23.2-3.2-30.8-9.7-7.6-6.4-11.4-15.2-11.4-26.1 0-6.9 1.8-12.9 5.3-18s8.3-9.1 14.3-12c-5.3-2.8-9.4-6.5-12.4-11.2-3-4.7-4.5-10-4.5-16.1 0-10.6 3.5-19 10.6-25.3 7.1-6.3 16.7-9.4 28.8-9.4 12.1 0 21.7 3.1 28.8 9.4 7 6.1 10.6 14.6 10.6 25.3zm-22.2 55.4c0-5.4-1.6-9.7-4.7-13-3.1-3.2-7.3-4.9-12.6-4.9-5.2 0-9.4 1.6-12.6 4.8-3.1 3.2-4.7 7.6-4.7 13 0 5.3 1.5 9.6 4.6 12.8s7.3 4.9 12.8 4.9c5.4 0 9.6-1.6 12.6-4.7 3.1-3 4.6-7.4 4.6-12.9zm-2.5-54.2c0-4.8-1.3-8.7-3.8-11.7-2.6-2.9-6.2-4.4-10.9-4.4-4.6 0-8.2 1.4-10.8 4.3-2.6 2.8-3.8 6.8-3.8 11.8 0 5 1.3 8.9 3.8 12 2.6 3 6.2 4.5 10.9 4.5s8.3-1.5 10.8-4.5c2.5-3.1 3.8-7.1 3.8-12zm69.1 17h13.2c6.3 0 10.9-1.6 13.9-4.7s4.5-7.3 4.5-12.5c0-5-1.5-8.9-4.5-11.7-3-2.8-7.1-4.2-12.3-4.2-4.7 0-8.7 1.3-11.9 3.9-3.2 2.6-4.8 6-4.8 10.1h-24.7c0-6.5 1.8-12.3 5.3-17.5 3.5-5.2 8.4-9.2 14.7-12.1 6.3-2.9 13.2-4.4 20.8-4.4 13.2 0 23.5 3.1 30.9 9.4 7.5 6.3 11.2 15 11.2 26 0 5.7-1.7 10.9-5.2 15.7s-8 8.5-13.7 11c7 2.5 12.2 6.3 15.7 11.3 3.4 5 5.2 10.9 5.2 17.8 0 11.1-4 19.9-12.1 26.6-8.1 6.7-18.7 10-32 10-12.4 0-22.6-3.3-30.5-9.8-7.9-6.6-11.8-15.2-11.8-26h24.7c0 4.7 1.8 8.5 5.3 11.5s7.8 4.4 12.9 4.4c5.9 0 10.5-1.6 13.8-4.7 3.3-3.1 5-7.2 5-12.3 0-12.4-6.8-18.6-20.5-18.6h-13.1v-19.2zm198.4 9.4h-76.4v-20.2h76.4V125zm0 37h-76.4v-20.2h76.4V162zm89.3-46.4h13.2c6.3 0 10.9-1.6 13.9-4.7s4.5-7.3 4.5-12.5c0-5-1.5-8.9-4.5-11.7-3-2.8-7.1-4.2-12.3-4.2-4.7 0-8.7 1.3-11.9 3.9-3.2 2.6-4.8 6-4.8 10.1h-24.7c0-6.5 1.8-12.3 5.3-17.5 3.5-5.2 8.4-9.2 14.7-12.1s13.2-4.4 20.8-4.4c13.2 0 23.5 3.1 30.9 9.4 7.5 6.3 11.2 15 11.2 26 0 5.7-1.7 10.9-5.2 15.7s-8 8.5-13.7 11c7 2.5 12.2 6.3 15.7 11.3 3.4 5 5.2 10.9 5.2 17.8 0 11.1-4 19.9-12.1 26.6-8.1 6.7-18.7 10-32 10-12.4 0-22.6-3.3-30.5-9.8-7.9-6.6-11.8-15.2-11.8-26h24.7c0 4.7 1.8 8.5 5.3 11.5s7.8 4.4 12.9 4.4c5.9 0 10.5-1.6 13.8-4.7 3.3-3.1 5-7.2 5-12.3 0-12.4-6.8-18.6-20.5-18.6h-13.1v-19.2zM710.4 398.7h-85.3v-16.9l40.2-42.9c5.5-6 9.6-11.3 12.3-15.8 2.6-4.5 4-8.8 4-12.8 0-5.5-1.4-9.9-4.2-13-2.8-3.2-6.8-4.7-12-4.7-5.6 0-10 1.9-13.2 5.8-3.2 3.8-4.8 8.9-4.8 15.2h-24.8c0-7.6 1.8-14.5 5.4-20.8 3.6-6.3 8.7-11.2 15.3-14.7 6.6-3.6 14.1-5.3 22.5-5.3 12.8 0 22.8 3.1 29.9 9.2 7.1 6.2 10.6 14.8 10.6 26.1 0 6.2-1.6 12.4-4.8 18.8-3.2 6.4-8.7 13.8-16.4 22.3L657 378.8h53.5v19.9zm40.3-73.1h13.2c6.3 0 10.9-1.6 13.9-4.7s4.5-7.3 4.5-12.5c0-5-1.5-8.9-4.5-11.7-3-2.8-7.1-4.2-12.3-4.2-4.7 0-8.7 1.3-11.9 3.9-3.2 2.6-4.8 6-4.8 10.1h-24.7c0-6.5 1.8-12.3 5.3-17.5 3.5-5.2 8.4-9.2 14.7-12.1 6.3-2.9 13.2-4.4 20.8-4.4 13.2 0 23.5 3.1 30.9 9.4 7.5 6.3 11.2 15 11.2 26 0 5.7-1.7 10.9-5.2 15.7-3.5 4.8-8 8.5-13.7 11 7 2.5 12.2 6.3 15.7 11.3 3.4 5 5.2 10.9 5.2 17.8 0 11.1-4 19.9-12.1 26.6-8.1 6.7-18.7 10-32 10-12.4 0-22.6-3.3-30.5-9.8-7.9-6.6-11.8-15.2-11.8-26h24.7c0 4.7 1.8 8.5 5.3 11.4 3.5 3 7.8 4.4 12.9 4.4 5.9 0 10.5-1.6 13.8-4.7 3.3-3.1 5-7.2 5-12.3 0-12.4-6.8-18.6-20.5-18.6h-13.1v-19.1zm78.9 11.9 7.2-63.2h69.7v20.6H857l-3.1 26.7c5.9-3.1 12.1-4.7 18.7-4.7 11.8 0 21.1 3.7 27.9 11 6.7 7.3 10.1 17.6 10.1 30.8 0 8-1.7 15.2-5.1 21.6-3.4 6.4-8.2 11.3-14.6 14.8-6.3 3.5-13.8 5.3-22.4 5.3-7.5 0-14.5-1.5-20.9-4.6-6.4-3-11.5-7.3-15.3-12.9-3.7-5.5-5.7-11.8-5.9-18.9h24.4c.5 5.2 2.3 9.2 5.4 12.1 3.1 2.9 7.2 4.3 12.2 4.3 5.6 0 9.9-2 12.9-6s4.5-9.7 4.5-17c0-7.1-1.7-12.5-5.2-16.2-3.5-3.8-8.4-5.6-14.8-5.6-5.9 0-10.6 1.5-14.3 4.6l-2.4 2.2-19.5-4.9zm180.5 9.8c0 17.2-3.6 30.4-10.7 39.5-7.1 9.1-17.5 13.7-31.3 13.7-13.6 0-23.9-4.5-31.1-13.4-7.2-8.9-10.9-21.8-11-38.5v-22.9c0-17.4 3.6-30.6 10.8-39.6 7.2-9 17.6-13.5 31.1-13.5 13.6 0 23.9 4.5 31.1 13.4 7.2 8.9 10.9 21.7 11 38.4v22.9zm-24.7-25.2c0-10.3-1.4-17.8-4.2-22.5-2.8-4.7-7.2-7.1-13.2-7.1-5.8 0-10.1 2.2-12.9 6.7-2.8 4.5-4.2 11.5-4.4 21v30.3c0 10.2 1.4 17.7 4.1 22.6 2.8 4.9 7.2 7.4 13.3 7.4 6 0 10.4-2.4 13.1-7.1s4.1-12 4.2-21.7v-29.6zm164.5 12.9h-76.4v-20.2h76.4V335zm0 37h-76.4v-20.2h76.4V372zm124.2 26.7h-24.7v-95.2l-29.5 9.1v-20.1l51.5-18.5h2.6v124.7zM650.3 535.6h13.2c6.3 0 10.9-1.6 13.9-4.7s4.5-7.3 4.5-12.5c0-5-1.5-8.9-4.5-11.7-3-2.8-7.1-4.2-12.3-4.2-4.7 0-8.7 1.3-11.9 3.9-3.2 2.6-4.8 6-4.8 10.1h-24.7c0-6.5 1.8-12.3 5.3-17.5 3.5-5.2 8.4-9.2 14.7-12.1 6.3-2.9 13.2-4.4 20.8-4.4 13.2 0 23.5 3.1 30.9 9.4 7.5 6.3 11.2 15 11.2 26 0 5.7-1.7 10.9-5.2 15.7-3.5 4.8-8 8.5-13.7 11 7 2.5 12.2 6.3 15.7 11.3 3.4 5 5.2 10.9 5.2 17.8 0 11.1-4 19.9-12.1 26.6-8.1 6.7-18.7 10-32 10-12.4 0-22.6-3.3-30.5-9.8-7.9-6.6-11.8-15.2-11.8-26h24.7c0 4.7 1.8 8.5 5.3 11.4 3.5 3 7.8 4.4 12.9 4.4 5.9 0 10.5-1.6 13.8-4.7 3.3-3.1 5-7.2 5-12.3 0-12.4-6.8-18.6-20.5-18.6h-13.1v-19.1zm100.4 0h13.2c6.3 0 10.9-1.6 13.9-4.7s4.5-7.3 4.5-12.5c0-5-1.5-8.9-4.5-11.7-3-2.8-7.1-4.2-12.3-4.2-4.7 0-8.7 1.3-11.9 3.9-3.2 2.6-4.8 6-4.8 10.1h-24.7c0-6.5 1.8-12.3 5.3-17.5 3.5-5.2 8.4-9.2 14.7-12.1 6.3-2.9 13.2-4.4 20.8-4.4 13.2 0 23.5 3.1 30.9 9.4 7.5 6.3 11.2 15 11.2 26 0 5.7-1.7 10.9-5.2 15.7-3.5 4.8-8 8.5-13.7 11 7 2.5 12.2 6.3 15.7 11.3 3.4 5 5.2 10.9 5.2 17.8 0 11.1-4 19.9-12.1 26.6-8.1 6.7-18.7 10-32 10-12.4 0-22.6-3.3-30.5-9.8-7.9-6.6-11.8-15.2-11.8-26h24.7c0 4.7 1.8 8.5 5.3 11.4 3.5 3 7.8 4.4 12.9 4.4 5.9 0 10.5-1.6 13.8-4.7 3.3-3.1 5-7.2 5-12.3 0-12.4-6.8-18.6-20.5-18.6h-13.1v-19.1zm159.9-37.5-48.1 110.6h-26.1l48.2-104.5h-61.9v-19.9h87.8v13.8zm101.1 110.6h-85.3v-16.9l40.2-42.9c5.5-6 9.6-11.3 12.3-15.8 2.6-4.5 4-8.8 4-12.8 0-5.5-1.4-9.9-4.2-13s-6.8-4.7-12-4.7c-5.6 0-10 1.9-13.2 5.8-3.2 3.8-4.8 8.9-4.8 15.2h-24.8c0-7.6 1.8-14.5 5.4-20.8 3.6-6.3 8.7-11.2 15.3-14.7 6.6-3.6 14.1-5.3 22.5-5.3 12.8 0 22.8 3.1 29.9 9.2s10.6 14.8 10.6 26.1c0 6.2-1.6 12.4-4.8 18.8-3.2 6.4-8.7 13.8-16.4 22.3L958.1 589h53.5v19.7zm138.2-63.7h-76.4v-20.2h76.4V545zm0 37h-76.4v-20.2h76.4V582zm147.9-24.7c0 17.2-3.6 30.4-10.7 39.5-7.1 9.1-17.5 13.7-31.3 13.7-13.6 0-23.9-4.5-31.1-13.4-7.2-8.9-10.9-21.8-11-38.5v-22.9c0-17.4 3.6-30.6 10.8-39.6 7.2-9 17.6-13.5 31.1-13.5 13.6 0 23.9 4.5 31.1 13.4 7.2 8.9 10.9 21.7 11 38.4v22.9zm-24.7-25.2c0-10.3-1.4-17.8-4.2-22.5s-7.2-7.1-13.2-7.1c-5.8 0-10.1 2.2-12.9 6.7s-4.2 11.5-4.4 21v30.3c0 10.2 1.4 17.7 4.1 22.6 2.8 4.9 7.2 7.4 13.3 7.4 6 0 10.4-2.4 13.1-7.1s4.1-12 4.2-21.7v-29.6z" fill="#f4f4f4"/></svg>