<svg version="1.1" xmlns="http://www.w3.org/2000/svg" x="0" y="0" viewBox="0 0 512 512" xml:space="preserve"><path d="M449 0H0v512h512V0h-63zm-8 8v55h-55V8h55zM252 260v55h-55v-55h55zm-55-8v-55h55v55h-55zm63 8h55v55h-55v-55zm0-8v-55h55v55h-55zm0-63v-55h55v55h-55zm-8 0h-55v-55h55v55zm-63 0h-55v-55h55v55zm0 8v55h-55v-55h55zm0 63v55h-55v-55h55zm0 63v55h-55v-55h55zm8 0h55v55h-55v-55zm63 0h55v55h-55v-55zm63 0h55v55h-55v-55zm0-8v-55h55v55h-55zm0-63v-55h55v55h-55zm0-63v-55h55v55h-55zm0-63V71h55v55h-55zm-8 0h-55V71h55v55zm-63 0h-55V71h55v55zm-63 0h-55V71h55v55zm-63 0H71V71h55v55zm0 8v55H71v-55h55zm0 63v55H71v-55h55zm0 63v55H71v-55h55zm0 63v55H71v-55h55zm0 63v55H71v-55h55zm8 0h55v55h-55v-55zm63 0h55v55h-55v-55zm63 0h55v55h-55v-55zm63 0h55v55h-55v-55zm63 0h55v55h-55v-55zm0-8v-55h55v55h-55zm0-63v-55h55v55h-55zm0-63v-55h55v55h-55zm0-63v-55h55v55h-55zm0-63V71h55v55h-55zM378 8v55h-55V8h55zm-63 0v55h-55V8h55zm-63 0v55h-55V8h55zm-63 0v55h-55V8h55zm-63 0v55H71V8h55zM8 8h55v55H8V8zm0 63h55v55H8V71zm0 63h55v55H8v-55zm0 63h55v55H8v-55zm0 63h55v55H8v-55zm0 63h55v55H8v-55zm0 63h55v55H8v-55zm0 118v-55h55v55H8zm63 0v-55h55v55H71zm63 0v-55h55v55h-55zm63 0v-55h55v55h-55zm63 0v-55h55v55h-55zm63 0v-55h55v55h-55zm63 0v-55h55v55h-55zm118 0h-55v-55h55v55zm0-63h-55v-55h55v55zm0-63h-55v-55h55v55zm0-63h-55v-55h55v55zm0-63h-55v-55h55v55zm0-63h-55v-55h55v55zm0-63h-55V71h55v55zm-55-63V8h55v55h-55z" fill="#ddd"/><path d="M46.8 18.5L35.5 29.8 24.2 18.5l-5.7 5.7 11.3 11.3-11.3 11.3 5.7 5.7 11.3-11.3 11.3 11.3 5.7-5.7-11.3-11.3 11.3-11.3-5.7-5.7zm63 0L98.5 29.8 87.2 18.5l-5.7 5.7 11.3 11.3-11.3 11.3 5.7 5.7 11.3-11.3 11.3 11.3 5.7-5.7-11.3-11.3 11.3-11.3-5.7-5.7zm63 0l-11.3 11.3-11.3-11.3-5.7 5.7 11.3 11.3-11.3 11.3 5.7 5.7 11.3-11.3 11.3 11.3 5.7-5.7-11.3-11.3 11.3-11.3-5.7-5.7zm63 0l-11.3 11.3-11.3-11.3-5.7 5.7 11.3 11.3-11.3 11.3 5.7 5.7 11.3-11.3 11.3 11.3 5.7-5.7-11.3-11.3 11.3-11.3-5.7-5.7zm-189 441l-11.3 11.3-11.3-11.3-5.7 5.7 11.3 11.3-11.3 11.3 5.7 5.7 11.3-11.3 11.3 11.3 5.7-5.7-11.3-11.3 11.3-11.3-5.7-5.7zm63 0l-11.3 11.3-11.3-11.3-5.7 5.7 11.3 11.3-11.3 11.3 5.7 5.7 11.3-11.3 11.3 11.3 5.7-5.7-11.3-11.3 11.3-11.3-5.7-5.7zm63 0l-11.3 11.3-11.3-11.3-5.7 5.7 11.3 11.3-11.3 11.3 5.7 5.7 11.3-11.3 11.3 11.3 5.7-5.7-11.3-11.3 11.3-11.3-5.7-5.7zm63 0l-11.3 11.3-11.3-11.3-5.7 5.7 11.3 11.3-11.3 11.3 5.7 5.7 11.3-11.3 11.3 11.3 5.7-5.7-11.3-11.3 11.3-11.3-5.7-5.7zm-189-378L35.5 92.8 24.2 81.5l-5.7 5.7 11.3 11.3-11.3 11.3 5.7 5.7 11.3-11.3 11.3 11.3 5.7-5.7-11.3-11.3 11.3-11.3-5.7-5.7zm63 0L98.5 92.8 87.2 81.5l-5.7 5.7 11.3 11.3-11.3 11.3 5.7 5.7 11.3-11.3 11.3 11.3 5.7-5.7-11.3-11.3 11.3-11.3-5.7-5.7zm63 0l-11.3 11.3-11.3-11.3-5.7 5.7 11.3 11.3-11.3 11.3 5.7 5.7 11.3-11.3 11.3 11.3 5.7-5.7-11.3-11.3 11.3-11.3-5.7-5.7zm63 0l-11.3 11.3-11.3-11.3-5.7 5.7 11.3 11.3-11.3 11.3 5.7 5.7 11.3-11.3 11.3 11.3 5.7-5.7-11.3-11.3 11.3-11.3-5.7-5.7zm-189 63l-11.3 11.3-11.3-11.3-5.7 5.7 11.3 11.3-11.3 11.3 5.7 5.7 11.3-11.3 11.3 11.3 5.7-5.7-11.3-11.3 11.3-11.3-5.7-5.7zm63 0l-11.3 11.3-11.3-11.3-5.7 5.7 11.3 11.3-11.3 11.3 5.7 5.7 11.3-11.3 11.3 11.3 5.7-5.7-11.3-11.3 11.3-11.3-5.7-5.7zm63 0l-11.3 11.3-11.3-11.3-5.7 5.7 11.3 11.3-11.3 11.3 5.7 5.7 11.3-11.3 11.3 11.3 5.7-5.7-11.3-11.3 11.3-11.3-5.7-5.7zm63 0l-11.3 11.3-11.3-11.3-5.7 5.7 11.3 11.3-11.3 11.3 5.7 5.7 11.3-11.3 11.3 11.3 5.7-5.7-11.3-11.3 11.3-11.3-5.7-5.7zm-189 63l-11.3 11.3-11.3-11.3-5.7 5.7 11.3 11.3-11.3 11.3 5.7 5.7 11.3-11.3 11.3 11.3 5.7-5.7-11.3-11.3 11.3-11.3-5.7-5.7zm63 0l-11.3 11.3-11.3-11.3-5.7 5.7 11.3 11.3-11.3 11.3 5.7 5.7 11.3-11.3 11.3 11.3 5.7-5.7-11.3-11.3 11.3-11.3-5.7-5.7zm63 0l-11.3 11.3-11.3-11.3-5.7 5.7 11.3 11.3-11.3 11.3 5.7 5.7 11.3-11.3 11.3 11.3 5.7-5.7-11.3-11.3 11.3-11.3-5.7-5.7zm63 0l-11.3 11.3-11.3-11.3-5.7 5.7 11.3 11.3-11.3 11.3 5.7 5.7 11.3-11.3 11.3 11.3 5.7-5.7-11.3-11.3 11.3-11.3-5.7-5.7zm-189 63l-11.3 11.3-11.3-11.3-5.7 5.7 11.3 11.3-11.3 11.3 5.7 5.7 11.3-11.3 11.3 11.3 5.7-5.7-11.3-11.3 11.3-11.3-5.7-5.7zm63 0l-11.3 11.3-11.3-11.3-5.7 5.7 11.3 11.3-11.3 11.3 5.7 5.7 11.3-11.3 11.3 11.3 5.7-5.7-11.3-11.3 11.3-11.3-5.7-5.7zm63 0l-11.3 11.3-11.3-11.3-5.7 5.7 11.3 11.3-11.3 11.3 5.7 5.7 11.3-11.3 11.3 11.3 5.7-5.7-11.3-11.3 11.3-11.3-5.7-5.7zm63 0l-11.3 11.3-11.3-11.3-5.7 5.7 11.3 11.3-11.3 11.3 5.7 5.7 11.3-11.3 11.3 11.3 5.7-5.7-11.3-11.3 11.3-11.3-5.7-5.7zm-189 63l-11.3 11.3-11.3-11.3-5.7 5.7 11.3 11.3-11.3 11.3 5.7 5.7 11.3-11.3 11.3 11.3 5.7-5.7-11.3-11.3 11.3-11.3-5.7-5.7zm63 0l-11.3 11.3-11.3-11.3-5.7 5.7 11.3 11.3-11.3 11.3 5.7 5.7 11.3-11.3 11.3 11.3 5.7-5.7-11.3-11.3 11.3-11.3-5.7-5.7zm63 0l-11.3 11.3-11.3-11.3-5.7 5.7 11.3 11.3-11.3 11.3 5.7 5.7 11.3-11.3 11.3 11.3 5.7-5.7-11.3-11.3 11.3-11.3-5.7-5.7zm63 0l-11.3 11.3-11.3-11.3-5.7 5.7 11.3 11.3-11.3 11.3 5.7 5.7 11.3-11.3 11.3 11.3 5.7-5.7-11.3-11.3 11.3-11.3-5.7-5.7zm-189 63l-11.3 11.3-11.3-11.3-5.7 5.7 11.3 11.3-11.3 11.3 5.7 5.7 11.3-11.3 11.3 11.3 5.7-5.7-11.3-11.3 11.3-11.3-5.7-5.7zm63 0l-11.3 11.3-11.3-11.3-5.7 5.7 11.3 11.3-11.3 11.3 5.7 5.7 11.3-11.3 11.3 11.3 5.7-5.7-11.3-11.3 11.3-11.3-5.7-5.7zm63 0l-11.3 11.3-11.3-11.3-5.7 5.7 11.3 11.3-11.3 11.3 5.7 5.7 11.3-11.3 11.3 11.3 5.7-5.7-11.3-11.3 11.3-11.3-5.7-5.7zm63 0l-11.3 11.3-11.3-11.3-5.7 5.7 11.3 11.3-11.3 11.3 5.7 5.7 11.3-11.3 11.3 11.3 5.7-5.7-11.3-11.3 11.3-11.3-5.7-5.7z" fill="#2e86b7"/><path d="M287.5 149.5c6.6 0 12 5.4 12 12s-5.4 12-12 12-12-5.4-12-12 5.4-12 12-12m0-8c-11 0-20 9-20 20s9 20 20 20 20-9 20-20-9-20-20-20zm126 8c6.6 0 12 5.4 12 12s-5.4 12-12 12-12-5.4-12-12 5.4-12 12-12m0-8c-11 0-20 9-20 20s9 20 20 20 20-9 20-20-9-20-20-20zm-63 8c6.6 0 12 5.4 12 12s-5.4 12-12 12-12-5.4-12-12 5.4-12 12-12m0-8c-11 0-20 9-20 20s9 20 20 20 20-9 20-20-9-20-20-20zm126 8c6.6 0 12 5.4 12 12s-5.4 12-12 12-12-5.4-12-12 5.4-12 12-12m0-8c-11 0-20 9-20 20s9 20 20 20 20-9 20-20-9-20-20-20zm-189 71c6.6 0 12 5.4 12 12s-5.4 12-12 12-12-5.4-12-12 5.4-12 12-12m0-8c-11 0-20 9-20 20s9 20 20 20 20-9 20-20-9-20-20-20zm126 8c6.6 0 12 5.4 12 12s-5.4 12-12 12-12-5.4-12-12 5.4-12 12-12m0-8c-11 0-20 9-20 20s9 20 20 20 20-9 20-20-9-20-20-20zm-63 8c6.6 0 12 5.4 12 12s-5.4 12-12 12-12-5.4-12-12 5.4-12 12-12m0-8c-11 0-20 9-20 20s9 20 20 20 20-9 20-20-9-20-20-20zm126 8c6.6 0 12 5.4 12 12s-5.4 12-12 12-12-5.4-12-12 5.4-12 12-12m0-8c-11 0-20 9-20 20s9 20 20 20 20-9 20-20-9-20-20-20zm-189 71c6.6 0 12 5.4 12 12s-5.4 12-12 12-12-5.4-12-12 5.4-12 12-12m0-8c-11 0-20 9-20 20s9 20 20 20 20-9 20-20-9-20-20-20zm126 8c6.6 0 12 5.4 12 12s-5.4 12-12 12-12-5.4-12-12 5.4-12 12-12m0-8c-11 0-20 9-20 20s9 20 20 20 20-9 20-20-9-20-20-20zm-63 8c6.6 0 12 5.4 12 12s-5.4 12-12 12-12-5.4-12-12 5.4-12 12-12m0-8c-11 0-20 9-20 20s9 20 20 20 20-9 20-20-9-20-20-20zm126 8c6.6 0 12 5.4 12 12s-5.4 12-12 12-12-5.4-12-12 5.4-12 12-12m0-8c-11 0-20 9-20 20s9 20 20 20 20-9 20-20-9-20-20-20zm-189 71c6.6 0 12 5.4 12 12s-5.4 12-12 12-12-5.4-12-12 5.4-12 12-12m0-8c-11 0-20 9-20 20s9 20 20 20 20-9 20-20-9-20-20-20zm126 8c6.6 0 12 5.4 12 12s-5.4 12-12 12-12-5.4-12-12 5.4-12 12-12m0-8c-11 0-20 9-20 20s9 20 20 20 20-9 20-20-9-20-20-20zm-63 8c6.6 0 12 5.4 12 12s-5.4 12-12 12-12-5.4-12-12 5.4-12 12-12m0-8c-11 0-20 9-20 20s9 20 20 20 20-9 20-20-9-20-20-20zm126 8c6.6 0 12 5.4 12 12s-5.4 12-12 12-12-5.4-12-12 5.4-12 12-12m0-8c-11 0-20 9-20 20s9 20 20 20 20-9 20-20-9-20-20-20zm-189 71c6.6 0 12 5.4 12 12s-5.4 12-12 12-12-5.4-12-12 5.4-12 12-12m0-8c-11 0-20 9-20 20s9 20 20 20 20-9 20-20-9-20-20-20zm126 8c6.6 0 12 5.4 12 12s-5.4 12-12 12-12-5.4-12-12 5.4-12 12-12m0-8c-11 0-20 9-20 20s9 20 20 20 20-9 20-20-9-20-20-20zm-63 8c6.6 0 12 5.4 12 12s-5.4 12-12 12-12-5.4-12-12 5.4-12 12-12m0-8c-11 0-20 9-20 20s9 20 20 20 20-9 20-20-9-20-20-20zm126 8c6.6 0 12 5.4 12 12s-5.4 12-12 12-12-5.4-12-12 5.4-12 12-12m0-8c-11 0-20 9-20 20s9 20 20 20 20-9 20-20-9-20-20-20zm-189 71c6.6 0 12 5.4 12 12s-5.4 12-12 12-12-5.4-12-12 5.4-12 12-12m0-8c-11 0-20 9-20 20s9 20 20 20 20-9 20-20-9-20-20-20zm126 8c6.6 0 12 5.4 12 12s-5.4 12-12 12-12-5.4-12-12 5.4-12 12-12m0-8c-11 0-20 9-20 20s9 20 20 20 20-9 20-20-9-20-20-20zm-63 8c6.6 0 12 5.4 12 12s-5.4 12-12 12-12-5.4-12-12 5.4-12 12-12m0-8c-11 0-20 9-20 20s9 20 20 20 20-9 20-20-9-20-20-20zm126 8c6.6 0 12 5.4 12 12s-5.4 12-12 12-12-5.4-12-12 5.4-12 12-12m0-8c-11 0-20 9-20 20s9 20 20 20 20-9 20-20-9-20-20-20zm-189-370c6.6 0 12 5.4 12 12s-5.4 12-12 12-12-5.4-12-12 5.4-12 12-12m0-8c-11 0-20 9-20 20s9 20 20 20 20-9 20-20-9-20-20-20zm126 8c6.6 0 12 5.4 12 12s-5.4 12-12 12-12-5.4-12-12 5.4-12 12-12m0-8c-11 0-20 9-20 20s9 20 20 20 20-9 20-20-9-20-20-20zm-63 8c6.6 0 12 5.4 12 12s-5.4 12-12 12-12-5.4-12-12 5.4-12 12-12m0-8c-11 0-20 9-20 20s9 20 20 20 20-9 20-20-9-20-20-20zm126 8c6.6 0 12 5.4 12 12s-5.4 12-12 12-12-5.4-12-12 5.4-12 12-12m0-8c-11 0-20 9-20 20s9 20 20 20 20-9 20-20-9-20-20-20zm-189-55c6.6 0 12 5.4 12 12s-5.4 12-12 12-12-5.4-12-12 5.4-12 12-12m0-8c-11 0-20 9-20 20s9 20 20 20 20-9 20-20-9-20-20-20zm126 8c6.6 0 12 5.4 12 12s-5.4 12-12 12-12-5.4-12-12 5.4-12 12-12m0-8c-11 0-20 9-20 20s9 20 20 20 20-9 20-20-9-20-20-20zm-63 8c6.6 0 12 5.4 12 12s-5.4 12-12 12-12-5.4-12-12 5.4-12 12-12m0-8c-11 0-20 9-20 20s9 20 20 20 20-9 20-20-9-20-20-20zm126 8c6.6 0 12 5.4 12 12s-5.4 12-12 12-12-5.4-12-12 5.4-12 12-12m0-8c-11 0-20 9-20 20s9 20 20 20 20-9 20-20-9-20-20-20z" fill="#cc584c"/><path d="M35.5 102.5c-1 0-2-.4-2.8-1.2-1.6-1.6-1.6-4.1 0-5.7l63-63c1.6-1.6 4.1-1.6 5.7 0 1.6 1.6 1.6 4.1 0 5.7l-63 63c-.9.8-1.9 1.2-2.9 1.2zm0 63c-1 0-2-.4-2.8-1.2-1.6-1.6-1.6-4.1 0-5.7l126-126c1.6-1.6 4.1-1.6 5.7 0 1.6 1.6 1.6 4.1 0 5.7l-126 126c-.9.8-1.9 1.2-2.9 1.2zm0 63c-1 0-2-.4-2.8-1.2-1.6-1.6-1.6-4.1 0-5.7l189-189c1.6-1.6 4.1-1.6 5.7 0 1.6 1.6 1.6 4.1 0 5.7l-189 189c-.9.8-1.9 1.2-2.9 1.2zm63 252c-1 0-2-.4-2.8-1.2l-63-63c-1.6-1.6-1.6-4.1 0-5.7 1.6-1.6 4.1-1.6 5.7 0l63 63c1.6 1.6 1.6 4.1 0 5.7-.9.8-1.9 1.2-2.9 1.2zm63 0c-1 0-2-.4-2.8-1.2l-126-126c-1.6-1.6-1.6-4.1 0-5.7 1.6-1.6 4.1-1.6 5.7 0l126 126c1.6 1.6 1.6 4.1 0 5.7-.9.8-1.9 1.2-2.9 1.2zm63 0c-1 0-2-.4-2.8-1.2l-189-189c-1.6-1.6-1.6-4.1 0-5.7 1.6-1.6 4.1-1.6 5.7 0l189 189c1.6 1.6 1.6 4.1 0 5.7-.9.8-1.9 1.2-2.9 1.2zm252-378c-1 0-2-.4-2.8-1.2l-63-63c-1.6-1.6-1.6-4.1 0-5.7 1.6-1.6 4.1-1.6 5.7 0l63 63c1.6 1.6 1.6 4.1 0 5.7-.9.8-1.9 1.2-2.9 1.2zm0 63c-1 0-2-.4-2.8-1.2l-126-126c-1.6-1.6-1.6-4.1 0-5.7 1.6-1.6 4.1-1.6 5.7 0l126 126c1.6 1.6 1.6 4.1 0 5.7-.9.8-1.9 1.2-2.9 1.2zm0 63c-1 0-2-.4-2.8-1.2l-189-189c-1.6-1.6-1.6-4.1 0-5.7 1.6-1.6 4.1-1.6 5.7 0l189 189c1.6 1.6 1.6 4.1 0 5.7-.9.8-1.9 1.2-2.9 1.2zm-63 252c-1 0-2-.4-2.8-1.2-1.6-1.6-1.6-4.1 0-5.7l63-63c1.6-1.6 4.1-1.6 5.7 0 1.6 1.6 1.6 4.1 0 5.7l-63 63c-.9.8-1.9 1.2-2.9 1.2zm-63 0c-1 0-2-.4-2.8-1.2-1.6-1.6-1.6-4.1 0-5.7l126-126c1.6-1.6 4.1-1.6 5.7 0 1.6 1.6 1.6 4.1 0 5.7l-126 126c-.9.8-1.9 1.2-2.9 1.2zm-63 0c-1 0-2-.4-2.8-1.2-1.6-1.6-1.6-4.1 0-5.7l189-189c1.6-1.6 4.1-1.6 5.7 0 1.6 1.6 1.6 4.1 0 5.7l-189 189c-.9.8-1.9 1.2-2.9 1.2z" fill="#36434f"/></svg>