<svg version="1.1" xmlns="http://www.w3.org/2000/svg" x="0" y="0" viewBox="0 0 512 512" xml:space="preserve"><path d="M449 0H0v512h512V0h-63zm-8 8v55h-55V8h55zM252 260v55h-55v-55h55zm-55-8v-55h55v55h-55zm63 8h55v55h-55v-55zm0-8v-55h55v55h-55zm0-63v-55h55v55h-55zm-8 0h-55v-55h55v55zm-63 0h-55v-55h55v55zm0 8v55h-55v-55h55zm0 63v55h-55v-55h55zm0 63v55h-55v-55h55zm8 0h55v55h-55v-55zm63 0h55v55h-55v-55zm63 0h55v55h-55v-55zm0-8v-55h55v55h-55zm0-63v-55h55v55h-55zm0-63v-55h55v55h-55zm0-63V71h55v55h-55zm-8 0h-55V71h55v55zm-63 0h-55V71h55v55zm-63 0h-55V71h55v55zm-63 0H71V71h55v55zm0 8v55H71v-55h55zm0 63v55H71v-55h55zm0 63v55H71v-55h55zm0 63v55H71v-55h55zm0 63v55H71v-55h55zm8 0h55v55h-55v-55zm63 0h55v55h-55v-55zm63 0h55v55h-55v-55zm63 0h55v55h-55v-55zm63 0h55v55h-55v-55zm0-8v-55h55v55h-55zm0-63v-55h55v55h-55zm0-63v-55h55v55h-55zm0-63v-55h55v55h-55zm0-63V71h55v55h-55zM378 8v55h-55V8h55zm-63 0v55h-55V8h55zm-63 0v55h-55V8h55zm-63 0v55h-55V8h55zm-63 0v55H71V8h55zM8 8h55v55H8V8zm0 63h55v55H8V71zm0 63h55v55H8v-55zm0 63h55v55H8v-55zm0 63h55v55H8v-55zm0 63h55v55H8v-55zm0 63h55v55H8v-55zm0 118v-55h55v55H8zm63 0v-55h55v55H71zm63 0v-55h55v55h-55zm63 0v-55h55v55h-55zm63 0v-55h55v55h-55zm63 0v-55h55v55h-55zm63 0v-55h55v55h-55zm118 0h-55v-55h55v55zm0-63h-55v-55h55v55zm0-63h-55v-55h55v55zm0-63h-55v-55h55v55zm0-63h-55v-55h55v55zm0-63h-55v-55h55v55zm0-63h-55V71h55v55zm-55-63V8h55v55h-55z" fill="#ddd"/></svg>