<svg xmlns="http://www.w3.org/2000/svg" viewBox="0 0 1920 673" xml:space="preserve"><style>.st4{fill:#36434f}</style><path fill="#9b89a3" d="M0 0h1920v673H0z"/><path fill="#f4f4f4" d="M660 36.5h600v600H660z"/><path d="M1260 36.5v600m-120-600v600m-120-600v600m-120-600v600m-120-600v600m-120-600v600m0-600h600m-600 120h600m-600 120h600m-600 120h600m-600 120h600m-600 120h600" fill="none" stroke="#ddd" stroke-width="13.333" stroke-miterlimit="10"/><path d="M660 36.5h600v600H660v-600z" fill="none" stroke="#36434f" stroke-width="13.333" stroke-miterlimit="10"/><path class="st4" d="M734.7 320.8H713v8h6.3c4 0 7.3.7 10.3 2s5.3 3.3 7 5.7c1.7 2.3 2.3 5.3 2.3 8.3 0 5-1.7 9-5.3 12-3.7 3-8.7 4.7-14.7 4.7h-18v-49.7h33.7c.1 0 .1 9 .1 9zm-21.7 17v14.3h6c2.3 0 4.3-.7 5.7-2 1.3-1.3 2-3 2-5.3 0-2-.7-3.7-2-5-1.3-1.3-3.3-2-6-2H713zm135.3 14.4H832l-3 9.3h-12.7l18.3-49.7H846l18.3 49.7h-13l-3-9.3zm-13.6-9.4h10.7l-5.3-17.3-5.4 17.3zm147.6-31.3v49.7h-12v-40.7H959l-.7 16.7c-.3 5.7-1 10.3-2.3 13.7s-3 6-5.3 7.7c-2.3 1.7-5.3 2.3-9.3 2.3H938v-9.3l1.7-.3c2.3-.3 4-1.7 5.3-4.3 1-2.7 1.7-7 2-13l1-23h34.3v.5zm122 62h-10.7v-12.3h-27v12.3h-11l-1-21.3h3.7c2-1.3 3.3-3.3 4.3-6.3s2-7.3 2.3-13l1.7-21.3h34v40.7h5.3l-1.6 21.2zm-32.6-21.3h16.7v-31.3h-10.7l-1 12.3c-.7 8.3-2.4 14.3-5 19zm136.6 0H1192l-3 9.3h-12.7l18.3-49.7h11.3l18.3 49.7h-13l-2.9-9.3zm-13.6-9.4h10.7l-5.3-17.3-5.4 17.3zM832.3 464.5v17h-12v-49.7h20c3.7 0 7.3.7 10 2 3 1.3 5.3 3.3 6.7 6 1.7 2.7 2.3 5.7 2.3 8.7 0 5-1.7 8.7-5.3 11.7-3.3 3-8.3 4.3-14.3 4.3h-7.4zm0-9.3h8c2.3 0 4-.7 5.3-1.7 1.3-1 1.7-2.7 1.7-5s-.7-4.3-2-5.7c-1.3-1.3-3-2-5-2h-8v14.4z"/><path class="st4" d="M881.7 423.2V294.8H719v6.7h156v121.7l-5-3 8.3 23 8.3-23-4.9 3z"/></svg>