<svg xmlns="http://www.w3.org/2000/svg" viewBox="0 0 1920 673" xml:space="preserve"><style>.st1{fill:#bbb}.st2{fill:#cc584c}.st3{fill:#999}.st4{fill:#ddd}.st5{fill:#36434f}.st6{fill:#f4f4f4}</style><path fill="#3aaf9d" d="M0 0h1920v673H0z"/><path class="st1" d="M426.2 336.5v-.6l-16.2-.3c-.2 0-.5.2-.5.5s.2.5.5.5l16.2.3v-.4zm-16.2-6.4 16.5 4.1c.1-.3.2-.6.2-.9l-16.5-4.1c-.3-.1-.5.1-.6.3 0 .3.1.5.4.6zm.9-6.4 16.4 8.1c.1-.3.3-.6.3-.8l-16.4-8.1c-.2-.1-.5 0-.6.2-.1.1 0 .4.3.6zm20.5 3.2c.3-.2.6-.3.8-.5l-12.1-20.7c-.1-.2-.3-.3-.6-.2-.2.1-.3.3-.2.6 0 .1 12.1 20.8 12.1 20.8zm-1.5 1.3c.2-.2.5-.3.8-.6L416.3 311c-.2-.2-.5-.2-.6-.1-.2.2-.2.5-.1.6 0 .1 14.3 16.7 14.3 16.7zm-1.4 1.6c.2-.3.3-.5.6-.8l-15.7-12.4c-.2-.2-.5-.1-.6.1-.2.2-.1.5.1.6l15.6 12.5z"/><path class="st2" d="M666.6 402.3c3.8.2 7.4.5 11.2.8s7.4.8 11.1 1.2c7.4 1 14.7 2.1 22 3.7 7.3 1.6 14.6 3.5 21.7 6.2 3.6 1.4 7.1 2.9 10.6 4.8 3.4 1.9 6.8 4 9.9 6.8s5.9 6.1 7.7 10.3c.9 2.1 1.4 4.3 1.7 6.6.3 2.3.1 4.6-.2 6.7-.3 2.1-1 4.4-1.9 6.4-.9 2.1-2.2 3.9-3.6 5.7-2.9 3.4-6.3 5.9-9.9 7.9-7.2 3.9-14.9 5.8-22.4 7-7.6 1.1-15.2 1.5-22.8 1.4-7.5-.1-15-.8-22.5-1.9-7.4-1.1-14.8-2.6-22-4.4s-14.3-3.9-21.4-6.1c-7-2.3-14-4.6-20.9-7-3.4-1.2-6.9-2.3-10.3-3.4-3.4-1.1-6.8-2.1-10.1-2.9-.8-.1-1.6-.3-2.4-.5l-2.6-.4c-1.7-.3-3.4-.6-5.2-.8-3.5-.5-7-.7-10.6-.9-7-.3-14.2-.2-21.4.3l-2.7.2-2.7.3c-1.8.1-3.6.4-5.4.6-3.6.5-7.2 1-10.8 1.7-.3.1-.5-.1-.6-.3-.1-.2.1-.4.2-.5 3.2-1.9 6.7-3.3 10.2-4.6 3.5-1.2 7.1-2.4 10.8-3.3 7.3-1.8 14.8-2.9 22.3-3.2 1.9-.1 3.8-.1 5.7-.1h1.4l1.4.1 2.8.1c1.9.1 3.8.3 5.7.5l2.8.3c1 .1 1.9.3 3 .6 3.9.8 7.5 1.8 11.1 2.8 3.6 1 7.1 2.1 10.6 3.2 7 2.3 13.9 4.6 20.8 6.7s13.9 4.3 20.8 6c7 1.8 13.9 3.4 20.9 4.6 7 1.2 14.1 1.9 21.2 2.2 7.1.3 14.1.1 21-.8 6.8-1 13.7-2.6 19.4-5.7 2.9-1.5 5.3-3.4 7.2-5.6 1.9-2.3 3.1-4.8 3.5-7.6.5-2.9.2-5.7-.9-8.2-1-2.6-3-5-5.3-7s-5.2-3.9-8.1-5.5-6.2-3-9.4-4.2c-6.6-2.5-13.5-4.3-20.4-5.9s-14.1-2.7-21.2-3.6c-3.6-.5-7.2-.8-10.8-1.2s-7.2-.6-10.7-.8h-.1c-2.6-.1-4.6-2.3-4.4-4.8.3-2.7 2.5-4.7 5-4.5z"/><circle class="st3" cx="503.2" cy="246.3" r="39.8"/><path class="st4" d="M487.8 288.6c-4.1 8.3-6.4 17.7-6.4 27.7 0 34.9 28.2 63 63 63 26.3 0 48.9-16.1 58.4-39 0-.1-115-51.7-115-51.7z"/><path class="st4" d="M700.6 295.5c1.6 5.6 2.6 11.4 3 17.3v.6c.2 2.1.2 4.3.2 6.5 0 47.7-36.4 87-83.1 91.5-2.9.3-5.7.3-8.7.3-50.7 0-91.8-41.1-91.8-91.8s41.1-91.8 91.8-91.8c42.3.1 77.9 28.5 88.6 67.4z"/><path class="st4" d="M612.1 411.8h50.6l51.4-67.6-13.5-48.7-88.5 116.3zm-98-79.1c-28.9 24.9-77.4 43.7-91.5 27.5-14.1-16.3 11.6-61.6 40.4-86.4s50-20.1 64.1-3.8c14.1 16.3 15.9 37.8-13 62.7z"/><circle class="st5" cx="471.6" cy="310.2" r="15.3"/><circle class="st2" cx="422" cy="354.3" r="9.2"/><path class="st4" d="M714 344.2c.9 3.2 1.5 6.6 1.8 10.1v.3c.1 1.2.1 2.5.1 3.8 0 27.7-21.2 50.6-48.2 53-1.7.2-3.3.3-5.1.3-29.5 0-53.3-23.9-53.3-53.3 0-29.5 23.9-53.3 53.3-53.3 24.5 0 45.2 16.6 51.4 39.1z"/><circle class="st1" cx="523.6" cy="238.9" r="43.6"/><path class="st4" d="M543.9 398.8h86.2v13h-86.2c-3.6 0-6.5-2.9-6.5-6.5s3-6.5 6.5-6.5zm-54.4-18.7 79.9-32.6 4.9 12.1-79.9 32.6c-3.3 1.4-7.2-.3-8.4-3.5-1.4-3.4.2-7.2 3.5-8.6zm-25.9-9.3 79.8-32.6 4.9 12.1-79.8 32.6c-3.3 1.4-7.2-.3-8.4-3.5-1.4-3.4.1-7.2 3.5-8.6z"/><circle class="st6" cx="462.3" cy="310.2" r="3.2"/><path class="st1" d="M441.9 347.2c-.3.2-.6.3-.8.5l9.6 26.6c.1.2.3.3.5.3h.2c.3-.1.3-.3.3-.6l-9.8-26.8zm1.5-.9c-.3.2-.6.3-.8.5l14.6 27c.1.2.3.3.3.3s.2 0 .2-.1c.2-.1.3-.3.2-.6l-14.5-27.1zm-4 2.2 4.8 25.2c0 .2.3.3.5.3.3-.1.3-.3.3-.6l-4.9-25.5c-.2.3-.4.5-.7.6zm5.3-3c-.3.2-.6.3-.8.5l19.5 26.3c.1.1.2.2.3.2.1 0 .2 0 .3-.1.2-.2.3-.5.1-.6l-19.4-26.3zm-9.8 4.7-3 19.3c0 .3.1.5.3.6h.1c.2 0 .5-.2.5-.3L436 350c-.4 0-.7.1-1.1.2zm2.5-.8.6 22.8c0 .3.2.5.5.5s.5-.2.5-.5l-.6-23.1c-.4 0-.7.1-1 .3zm50.6 1.7-36.1-10.9c-.3.3-.6.5-.8.8l36.8 11h.1c.2 0 .3-.1.5-.3-.1-.2-.2-.5-.5-.6zm-7.5 10.5-31.7-19-.8.6 32 19.1c.1 0 .2.1.3.1.2 0 .3-.1.3-.2.2-.2.1-.5-.1-.6zm4.2-4.9-34.4-15.2c-.3.2-.6.5-.8.6l34.9 15.3h.2c.2 0 .3-.1.5-.3-.2-.1-.2-.4-.4-.4zm-37.2-13-.8.6 28.4 22.3c.1.1.2.1.3.1s.3-.1.3-.2c.2-.2.1-.5-.1-.6l-28.1-22.2zm-1.4.9-.8.6 24.2 24.8c.1.1.2.2.3.2.1 0 .3 0 .3-.1.2-.2.2-.5 0-.6 0-.1-24-24.9-24-24.9zm354-8.1v-.6l-16.2-.3c-.2 0-.5.2-.5.5s.2.5.5.5l16.2.3v-.4zm-16.3-6.4 16.5 4.1c.1-.3.2-.6.2-.9l-16.5-4.1c-.3-.1-.5.1-.6.3s.2.5.4.6zm.9-6.4 16.4 8.1c.1-.3.3-.6.3-.8l-16.4-8.1c-.2-.1-.5 0-.6.2-.1.1.1.4.3.6zm20.6 3.2c.3-.2.6-.3.8-.5L794 305.8c-.1-.2-.3-.3-.6-.2-.2.1-.3.3-.2.6l12.1 20.7zm-1.5 1.3c.2-.2.5-.3.8-.6L790.2 311c-.2-.2-.5-.2-.6-.1-.2.2-.2.5-.1.6 0 .1 14.3 16.7 14.3 16.7zm-1.5 1.6c.2-.3.3-.5.6-.8l-15.7-12.4c-.2-.2-.5-.1-.6.1-.2.2-.1.5.1.6l15.6 12.5z"/><path class="st2" d="M1040.5 402.3c3.8.2 7.4.5 11.2.8s7.4.8 11.1 1.2c7.4 1 14.7 2.1 22 3.7 7.3 1.6 14.6 3.5 21.7 6.2 3.6 1.4 7.1 2.9 10.6 4.8 3.4 1.9 6.8 4 9.9 6.8s5.9 6.1 7.7 10.3c.9 2.1 1.4 4.3 1.7 6.6.3 2.3.1 4.6-.2 6.7-.3 2.1-1 4.4-1.9 6.4-.9 2.1-2.2 3.9-3.6 5.7-2.9 3.4-6.3 5.9-9.9 7.9-7.2 3.9-14.9 5.8-22.4 7-7.6 1.1-15.2 1.5-22.8 1.4-7.5-.1-15-.8-22.5-1.9-7.4-1.1-14.8-2.6-22-4.4s-14.3-3.9-21.4-6.1c-7-2.3-14-4.6-20.9-7-3.4-1.2-6.9-2.3-10.3-3.4-3.4-1.1-6.8-2.1-10.1-2.9-.8-.1-1.6-.3-2.4-.5l-2.6-.4c-1.7-.3-3.4-.6-5.2-.8-3.5-.5-7-.7-10.6-.9-7-.3-14.2-.2-21.4.3l-2.7.2-2.7.3c-1.8.1-3.6.4-5.4.6-3.6.5-7.2 1-10.8 1.7-.3.1-.5-.1-.6-.3-.1-.2.1-.4.2-.5 3.2-1.9 6.7-3.3 10.2-4.6 3.5-1.2 7.1-2.4 10.8-3.3 7.3-1.8 14.8-2.9 22.3-3.2 1.9-.1 3.8-.1 5.7-.1h1.4l1.4.1 2.8.1c1.9.1 3.8.3 5.7.5l2.8.3c1 .1 1.9.3 3 .6 3.9.8 7.5 1.8 11.1 2.8 3.6 1 7.1 2.1 10.6 3.2 7 2.3 13.9 4.6 20.8 6.7s13.9 4.3 20.8 6c7 1.8 13.9 3.4 20.9 4.6 7 1.2 14.1 1.9 21.2 2.2s14.1.1 21-.8c6.8-1 13.7-2.6 19.4-5.7 2.9-1.5 5.3-3.4 7.2-5.6 1.9-2.3 3.1-4.8 3.5-7.6.5-2.9.2-5.7-.9-8.2-1-2.6-3-5-5.3-7s-5.2-3.9-8.1-5.5-6.2-3-9.4-4.2c-6.6-2.5-13.5-4.3-20.4-5.9-7-1.5-14.1-2.7-21.2-3.6-3.6-.5-7.2-.8-10.8-1.2s-7.2-.6-10.7-.8h-.1c-2.6-.1-4.6-2.3-4.4-4.8.3-2.7 2.4-4.7 5-4.5z"/><circle class="st3" cx="877" cy="246.3" r="39.8"/><path class="st4" d="M861.6 288.6c-4.1 8.3-6.4 17.7-6.4 27.7 0 34.9 28.2 63 63 63 26.3 0 48.9-16.1 58.4-39 0-.1-115-51.7-115-51.7z"/><path class="st4" d="M1074.4 295.5c1.6 5.6 2.6 11.4 3 17.3v.6c.2 2.1.2 4.3.2 6.5 0 47.7-36.4 87-83.1 91.5-2.9.3-5.7.3-8.7.3-50.7 0-91.8-41.1-91.8-91.8s41.1-91.8 91.8-91.8c42.3.1 78 28.5 88.6 67.4z"/><path class="st4" d="M986 411.8h50.6l51.4-67.6-13.5-48.7L986 411.8zm-98-79.1c-28.9 24.9-77.4 43.7-91.5 27.5-14.1-16.3 11.6-61.6 40.4-86.4s50-20.1 64.1-3.8c14.1 16.3 15.9 37.8-13 62.7z"/><circle class="st5" cx="845.5" cy="310.2" r="15.3"/><circle class="st2" cx="795.9" cy="354.3" r="9.2"/><path class="st4" d="M1087.9 344.2c.9 3.2 1.5 6.6 1.8 10.1v.3c.1 1.2.1 2.5.1 3.8 0 27.7-21.2 50.6-48.2 53-1.7.2-3.3.3-5.1.3-29.5 0-53.3-23.9-53.3-53.3 0-29.5 23.9-53.3 53.3-53.3 24.5 0 45.2 16.6 51.4 39.1z"/><circle class="st1" cx="897.4" cy="238.9" r="43.6"/><path class="st4" d="M917.8 398.8h86.2v13h-86.2c-3.6 0-6.5-2.9-6.5-6.5s3-6.5 6.5-6.5zm-54.4-18.7 79.9-32.6 4.9 12.1-79.9 32.6c-3.3 1.4-7.2-.3-8.4-3.5-1.4-3.4.1-7.2 3.5-8.6zm-26-9.3 79.8-32.6 4.9 12.1-79.8 32.6c-3.3 1.4-7.2-.3-8.4-3.5-1.4-3.4.1-7.2 3.5-8.6z"/><circle class="st6" cx="836.2" cy="310.2" r="3.2"/><path class="st1" d="M815.8 347.2c-.3.2-.6.3-.8.5l9.6 26.6c.1.2.3.3.5.3h.2c.3-.1.3-.3.3-.6l-9.8-26.8zm1.4-.9c-.3.2-.6.3-.8.5l14.6 27c.1.2.3.3.3.3s.2 0 .2-.1c.2-.1.3-.3.2-.6l-14.5-27.1zm-3.9 2.2 4.8 25.2c0 .2.3.3.5.3.3-.1.3-.3.3-.6L814 348c-.2.2-.4.4-.7.5zm5.3-3c-.3.2-.6.3-.8.5l19.5 26.3c.1.1.2.2.3.2.1 0 .2 0 .3-.1.2-.2.3-.5.1-.6l-19.4-26.3zm-9.8 4.7-3 19.3c0 .3.1.5.3.6h.1c.2 0 .5-.2.5-.3l3.1-19.7c-.4-.1-.7 0-1 .1zm2.5-.8.6 22.8c0 .3.2.5.5.5s.5-.2.5-.5l-.6-23.1c-.4 0-.7.1-1 .3zm50.6 1.7-36.1-10.9c-.3.3-.6.5-.8.8l36.8 11h.1c.2 0 .3-.1.5-.3-.1-.2-.3-.5-.5-.6zm-7.5 10.5-31.7-19-.8.6 32 19.1c.1 0 .2.1.3.1.2 0 .3-.1.3-.2.2-.2.1-.5-.1-.6zm4.1-4.9-34.4-15.2c-.3.2-.6.5-.8.6l34.9 15.3h.2c.2 0 .3-.1.5-.3-.1-.1-.2-.4-.4-.4zm-37.1-13-.8.6 28.4 22.3c.1.1.2.1.3.1s.3-.1.3-.2c.2-.2.1-.5-.1-.6l-28.1-22.2zm-1.4.9-.8.6 24.2 24.8c.1.1.2.2.3.2.1 0 .3 0 .3-.1.2-.2.2-.5 0-.6 0-.1-24-24.9-24-24.9zm354-8.1v-.6l-16.2-.3c-.2 0-.5.2-.5.5s.2.5.5.5l16.2.3v-.4zm-16.3-6.4 16.5 4.1c.1-.3.2-.6.2-.9l-16.5-4.1c-.3-.1-.5.1-.6.3s.1.5.4.6zm.9-6.4 16.4 8.1c.1-.3.3-.6.3-.8l-16.4-8.1c-.2-.1-.5 0-.6.2-.1.1 0 .4.3.6zm20.5 3.2c.3-.2.6-.3.8-.5l-12.1-20.7c-.1-.2-.3-.3-.6-.2-.2.1-.3.3-.2.6.1.1 12.1 20.8 12.1 20.8zm-1.5 1.3c.2-.2.5-.3.8-.6L1164 311c-.2-.2-.5-.2-.6-.1-.2.2-.2.5-.1.6 0 .1 14.3 16.7 14.3 16.7zm-1.4 1.6c.2-.3.3-.5.6-.8l-15.7-12.4c-.2-.2-.5-.1-.6.1-.2.2-.1.5.1.6l15.6 12.5z"/><path class="st2" d="M1414.4 402.3c3.8.2 7.4.5 11.2.8s7.4.8 11.1 1.2c7.4 1 14.7 2.1 22 3.7 7.3 1.6 14.6 3.5 21.7 6.2 3.6 1.4 7.1 2.9 10.6 4.8 3.4 1.9 6.8 4 9.9 6.8 3.1 2.8 5.9 6.1 7.7 10.3.9 2.1 1.4 4.3 1.7 6.6.3 2.3.1 4.6-.2 6.7-.3 2.1-1 4.4-1.9 6.4-.9 2.1-2.2 3.9-3.6 5.7-2.9 3.4-6.3 5.9-9.9 7.9-7.2 3.9-14.9 5.8-22.4 7-7.6 1.1-15.2 1.5-22.8 1.4-7.5-.1-15-.8-22.5-1.9-7.4-1.1-14.8-2.6-22-4.4s-14.3-3.9-21.4-6.1c-7-2.3-14-4.6-20.9-7-3.4-1.2-6.9-2.3-10.3-3.4-3.4-1.1-6.8-2.1-10.1-2.9-.8-.1-1.6-.3-2.4-.5l-2.6-.4c-1.7-.3-3.4-.6-5.2-.8-3.5-.5-7-.7-10.6-.9-7-.3-14.2-.2-21.4.3l-2.7.2-2.7.3c-1.8.1-3.6.4-5.4.6-3.6.5-7.2 1-10.8 1.7-.3.1-.5-.1-.6-.3-.1-.2.1-.4.2-.5 3.2-1.9 6.7-3.3 10.2-4.6 3.5-1.2 7.1-2.4 10.8-3.3 7.3-1.8 14.8-2.9 22.3-3.2 1.9-.1 3.8-.1 5.7-.1h1.4l1.4.1 2.8.1c1.9.1 3.8.3 5.7.5l2.8.3c1 .1 1.9.3 3 .6 3.9.8 7.5 1.8 11.1 2.8 3.6 1 7.1 2.1 10.6 3.2 7 2.3 13.9 4.6 20.8 6.7 6.9 2.1 13.9 4.3 20.8 6 7 1.8 13.9 3.4 20.9 4.6 7 1.2 14.1 1.9 21.2 2.2s14.1.1 21-.8c6.8-1 13.7-2.6 19.4-5.7 2.9-1.5 5.3-3.4 7.2-5.6 1.9-2.3 3.1-4.8 3.5-7.6.5-2.9.2-5.7-.9-8.2-1-2.6-3-5-5.3-7s-5.2-3.9-8.1-5.5-6.2-3-9.4-4.2c-6.6-2.5-13.5-4.3-20.4-5.9-7-1.5-14.1-2.7-21.2-3.6-3.6-.5-7.2-.8-10.8-1.2s-7.2-.6-10.7-.8h-.1c-2.6-.1-4.6-2.3-4.4-4.8.3-2.7 2.4-4.7 5-4.5z"/><circle class="st3" cx="1250.9" cy="246.3" r="39.8"/><path class="st4" d="M1235.5 288.6c-4.1 8.3-6.4 17.7-6.4 27.7 0 34.9 28.2 63 63 63 26.3 0 48.9-16.1 58.4-39 0-.1-115-51.7-115-51.7z"/><path class="st4" d="M1448.3 295.5c1.6 5.6 2.6 11.4 3 17.3v.6c.2 2.1.2 4.3.2 6.5 0 47.7-36.4 87-83.1 91.5-2.9.3-5.7.3-8.7.3-50.7 0-91.8-41.1-91.8-91.8s41.1-91.8 91.8-91.8c42.3.1 78 28.5 88.6 67.4z"/><path class="st4" d="M1359.9 411.8h50.6l51.4-67.6-13.5-48.7-88.5 116.3zm-98.1-79.1c-28.9 24.9-77.4 43.7-91.5 27.5-14.1-16.3 11.6-61.6 40.4-86.4 28.8-24.8 50-20.1 64.1-3.8 14.2 16.3 15.9 37.8-13 62.7z"/><circle class="st5" cx="1219.4" cy="310.2" r="15.3"/><circle class="st2" cx="1169.8" cy="354.3" r="9.2"/><path class="st4" d="M1461.7 344.2c.9 3.2 1.5 6.6 1.8 10.1v.3c.1 1.2.1 2.5.1 3.8 0 27.7-21.2 50.6-48.2 53-1.7.2-3.3.3-5.1.3-29.5 0-53.3-23.9-53.3-53.3 0-29.5 23.9-53.3 53.3-53.3 24.5 0 45.2 16.6 51.4 39.1z"/><circle class="st1" cx="1271.3" cy="238.9" r="43.6"/><path class="st4" d="M1291.6 398.8h86.2v13h-86.2c-3.6 0-6.5-2.9-6.5-6.5.1-3.6 3-6.5 6.5-6.5zm-54.4-18.7 79.9-32.6 4.9 12.1-79.9 32.6c-3.3 1.4-7.2-.3-8.4-3.5-1.4-3.4.2-7.2 3.5-8.6zm-25.9-9.3 79.8-32.6 4.9 12.1-79.8 32.6c-3.3 1.4-7.2-.3-8.4-3.5-1.4-3.4.1-7.2 3.5-8.6z"/><circle class="st6" cx="1210" cy="310.2" r="3.2"/><path class="st1" d="M1189.6 347.2c-.3.2-.6.3-.8.5l9.6 26.6c.1.2.3.3.5.3h.2c.3-.1.3-.3.3-.6l-9.8-26.8zm1.5-.9c-.3.2-.6.3-.8.5l14.6 27c.1.2.3.3.3.3s.2 0 .2-.1c.2-.1.3-.3.2-.6l-14.5-27.1zm-4 2.2 4.8 25.2c0 .2.3.3.5.3.3-.1.3-.3.3-.6l-4.9-25.5c-.2.3-.4.5-.7.6zm5.4-3c-.3.2-.6.3-.8.5l19.5 26.3c.1.1.2.2.3.2.1 0 .2 0 .3-.1.2-.2.3-.5.1-.6-.1 0-19.4-26.3-19.4-26.3zm-9.8 4.7-3 19.3c0 .3.1.5.3.6h.1c.2 0 .5-.2.5-.3l3.1-19.7c-.4-.1-.7 0-1 .1zm2.4-.8.6 22.8c0 .3.2.5.5.5s.5-.2.5-.5l-.6-23.1c-.3 0-.7.1-1 .3zm50.7 1.7-36.1-10.9c-.3.3-.6.5-.8.8l36.8 11h.1c.2 0 .3-.1.5-.3-.2-.2-.3-.5-.5-.6zm-7.5 10.5-31.7-19-.8.6 32 19.1c.1 0 .2.1.3.1.2 0 .3-.1.3-.2.1-.2.1-.5-.1-.6zm4.1-4.9-34.4-15.2c-.3.2-.6.5-.8.6l34.9 15.3h.2c.2 0 .3-.1.5-.3-.1-.1-.2-.4-.4-.4zm-37.2-13-.8.6 28.4 22.3c.1.1.2.1.3.1s.3-.1.3-.2c.2-.2.1-.5-.1-.6l-28.1-22.2zm-1.4.9-.8.6 24.2 24.8c.1.1.2.2.3.2.1 0 .3 0 .3-.1.2-.2.2-.5 0-.6 0-.1-24-24.9-24-24.9z"/></svg>