<svg version="1.1" xmlns="http://www.w3.org/2000/svg" x="0" y="0" viewBox="0 0 332 224" xml:space="preserve"><style type="text/css">.st2{fill:#36434f}</style><path d="M310 0v224M274 0v224M238 0v224M202 0v224M166 0v224M130 0v224M94 0v224M58 0v224M22 0v224" fill="none" stroke="#ddd" stroke-width="2.854" stroke-miterlimit="10"/><path d="M0 22h332M0 58h332M0 94h332M0 130h332M0 166h332M0 202h332" stroke-width="3.475" fill="none" stroke="#ddd" stroke-miterlimit="10"/><path class="st2" d="M34.2 119.5v-14.9h5.4c1.9 0 3.4.4 4.4 1.1s1.5 1.7 1.5 3.1c0 .8-.2 1.4-.5 2s-.9 1-1.6 1.2c.8.2 1.4.6 1.8 1.1s.6 1.2.6 2.1c0 1.5-.5 2.6-1.4 3.3-.9.7-2.3 1.1-4.1 1.1h-6.1zm3.6-8.7h1.9c.8 0 1.3-.2 1.7-.4.3-.3.5-.7.5-1.2 0-.6-.2-1.1-.5-1.4s-.9-.4-1.8-.4h-1.8v3.4zm0 2.3v3.6h2.4c.6 0 1.1-.1 1.5-.4.3-.3.5-.7.5-1.3 0-1.2-.6-1.9-1.9-1.9h-2.5zm44.7-.8c0 1.5-.3 2.7-.8 3.9s-1.3 2-2.3 2.6c-1 .6-2.1.9-3.4.9s-2.4-.3-3.4-.9c-1-.6-1.8-1.4-2.3-2.5-.6-1.1-.8-2.3-.9-3.7v-.8c0-1.5.3-2.8.8-3.9s1.3-2 2.3-2.6 2.1-.9 3.4-.9c1.3 0 2.4.3 3.4.9s1.8 1.5 2.3 2.6c.5 1.1.8 2.4.8 3.8v.6zm-3.6-.6c0-1.5-.2-2.6-.7-3.4-.5-.8-1.2-1.2-2.1-1.2-1.8 0-2.8 1.4-2.9 4.1v1.1c0 1.5.2 2.6.7 3.4s1.2 1.2 2.2 1.2c.9 0 1.6-.4 2.1-1.2s.7-1.9.7-3.3v-.7zm30.8 2.7v5.1h-3.6v-14.9h6c1.1 0 2.2.2 3 .6.9.4 1.6 1 2 1.8.5.8.7 1.7.7 2.6 0 1.5-.5 2.6-1.6 3.5-1 .9-2.5 1.3-4.3 1.3h-2.2zm0-2.8h2.4c.7 0 1.2-.2 1.6-.5s.5-.8.5-1.5-.2-1.3-.6-1.7-.9-.6-1.5-.6h-2.4v4.3zm44.8.7c0 1.5-.3 2.7-.8 3.9s-1.3 2-2.3 2.6c-1 .6-2.1.9-3.4.9s-2.4-.3-3.4-.9c-1-.6-1.8-1.4-2.3-2.5-.6-1.1-.8-2.3-.9-3.7v-.8c0-1.5.3-2.8.8-3.9s1.3-2 2.3-2.6 2.1-.9 3.4-.9c1.3 0 2.4.3 3.4.9s1.8 1.5 2.3 2.6c.5 1.1.8 2.4.8 3.8v.6zm-3.6-.6c0-1.5-.2-2.6-.7-3.4-.5-.8-1.2-1.2-2.1-1.2-1.8 0-2.8 1.4-2.9 4.1v1.1c0 1.5.2 2.6.7 3.4s1.2 1.2 2.2 1.2c.9 0 1.6-.4 2.1-1.2s.7-1.9.7-3.3v-.7zm39.3-4.4h-4.5v12.2h-3.6v-12.2h-4.4v-2.8h12.5v2.8zm36 12.2h-3.6v-6.2h-5.3v6.2h-3.6v-14.9h3.6v5.9h5.3v-5.9h3.6v14.9zm32.5-15h3.6v14.9h-3.6V110l-5.4 9.4h-3.6v-14.9h3.6v9.4l5.4-9.4zm32.2 9.1h-1.7v5.9h-3.6v-14.9h3.6v5.8h1.4l2.9-5.8h4.4l-4.1 6.9 4.6 8h-4.3l-3.2-5.9zM143 140.5h10v2.8h-6.5v12.2H143m43.5-2.8h-4.9l-.9 2.8h-3.8l5.5-14.9h3.4l5.5 14.9h-3.9l-.9-2.8zm-4.1-2.8h3.2l-1.6-5.2-1.6 5.2z"/><path class="st2" d="M161.8 137.2V98.7H112v2h47.8v36.5l-1.5-.9 2.5 6.9 2.5-6.9-1.5.9z"/></svg>