<svg xmlns="http://www.w3.org/2000/svg" viewBox="0 0 1920 673" xml:space="preserve"><style>.st1{fill:#ddd}.st2{fill:#999}.st3{fill:#36434f}.st4{opacity:.15;fill:#444;enable-background:new}.st8{fill:#e0ac7e}.st9{fill:#122a3a}</style><path fill="#5d993a" d="M0 0h1920v673H0z"/><path class="st1" d="M1168.8 248h216v334h-216V248zm180-178h-144c-19.9 0-36 16.1-36 36v137h216V106c0-19.9-16.1-36-36-36z"/><path class="st2" d="M1168.8 242h216v7h-216v-7z"/><path class="st3" d="M1364.8 229.4c0-1-.7-1.8-1.7-2-9.7-1.6-19.7-2.4-29.8-2.4-15.5 0-30.6 1.9-45 5.6-.9.2-1.5 1-1.5 1.9v1.5c0 1.1.9 2 2 2h13c0-1.1.9-2 2-2h39c1.1 0 2 .9 2 2h18c1.1 0 2-.9 2-2v-4.6zm0 32.2c0 1-.7 1.8-1.7 2-9.7 1.6-19.7 2.4-29.8 2.4-15.5 0-30.6-1.9-45-5.6-.9-.2-1.5-1-1.5-1.9V257c0-1.1.9-2 2-2h13c0 1.1.9 2 2 2h39c1.1 0 2-.9 2-2h18c1.1 0 2 .9 2 2v4.6z"/><path class="st4" d="M1168.8 543h216v3h-216v-3zm0 6h216v3h-216v-3zm0 6h216v3h-216v-3zm0 6h216v3h-216v-3zm0 6h216v3h-216v-3zm0 6h216v3h-216v-3zm0 6h216v3h-216v-3z"/><path d="M1369.3 218c2.2 0 4-1.8 4-4V107c0-2.2-1.8-4-4-4s-4 1.8-4 4v107c0 2.2 1.8 4 4 4zm0 55c-2.2 0-4 1.8-4 4v250c0 2.2 1.8 4 4 4s4-1.8 4-4V277c0-2.2-1.9-4-4-4z" opacity=".5" fill="#fff"/><path class="st4" d="M1204.8 70c-19.9 0-36 16.1-36 36v476h108V70h-72z"/><path class="st1" d="M614.8 260.3s-42.4-36-57.7-47.2-71.3-31.2-80.9-20 36.8 83.3 54.5 96.1 64.1 26.4 64.1 26.4l20-55.3z"/><path class="st2" d="M607.6 268.2s-24.6-22-33.3-28.8c-8.7-6.8-41.2-19.1-46.8-12.3s21.3 50.8 31.5 58.7 37 16.2 37 16.2l11.6-33.8z"/><path class="st1" d="M734.9 260.3s42.4-36 57.7-47.2 71.3-31.2 80.9-20-36.8 83.3-54.5 96.1-64.1 26.4-64.1 26.4l-20-55.3z"/><path class="st2" d="M742.1 268.2s24.6-22 33.3-28.8c8.8-6.9 41.2-19.1 46.8-12.3 5.5 6.9-21.3 50.8-31.5 58.7s-37 16.2-37 16.2l-11.6-33.8z"/><path class="st4" d="m773.7 280.6-25.6-31.3c-7.7 6.4-13.1 11.1-13.1 11.1l20 55.3s12.2-3.5 26.3-8.7c1.2-9.5-1.5-19-7.6-26.4zm-197.6 0c-6.1 7.4-8.7 16.9-7.6 26.3 14.2 5.2 26.3 8.7 26.3 8.7l20-55.3s-5.4-4.6-13.1-11.1l-25.6 31.4z"/><path d="m763.8 288.7-27.2-33.4c-2.8-3.4-4.4-7.8-4.4-12.3v-10.3c0-2.4.4-4.9 1.1-7.1l1-2.8c1.8-5.2 1.4-11-1-15.9l-3.5-7.4 7.4-51.3c.9-6.2-.3-12.4-3.5-17.8-3.4-5.8-9.6-9.4-16.3-9.4h-5.2c-5.8 0-10.4 4.6-10.4 10.4v28.3c0 7.4-3.3 14.5-9 19.2l-7 6.5c-3 2.8-6.9 4.2-10.8 4.2s-7.8-1.4-10.8-4.2l-7-6.5c-5.7-4.7-9-11.9-9-19.2v-28.3c0-5.8-4.6-10.4-10.4-10.4h-5c-6.7 0-13 3.5-16.3 9.4-3.2 5.4-4.4 11.6-3.5 17.8l7.4 51.3-3.5 7.4c-2.4 5-2.7 10.7-1 15.9l1 2.8c.8 2.3 1.1 4.7 1.1 7.1V243c0 4.5-1.5 8.8-4.4 12.3L586 288.7c-4.7 5.8-6.2 13.6-3.9 20.7l4.2 13.1.8.1 8.9 27.9-.7.3 38.4 120.1 38 .8h6.4l38-.8 38.4-120.1-.7-.3 8.9-27.9.8-.1 4.2-13.1c2.3-7.1.8-15-3.9-20.7z" fill="#e3b877"/><path d="M648 131.4v9.6h-35.6c.5-3.8 1.7-7.4 3.6-10.7 3.4-5.8 9.6-9.4 16.3-9.4h5.2c5.9.1 10.5 4.7 10.5 10.5zm85.6-1c-3.4-5.8-9.6-9.4-16.3-9.4h-5.2c-5.8 0-10.4 4.6-10.4 10.4v9.6h35.6c-.5-3.7-1.7-7.3-3.7-10.6z" opacity=".5" fill="#444"/><path class="st8" d="M636.7 427.7c-7.7 11-12.3 25.2-12.3 40.8 0 34.5 22.6 62.5 50.4 62.5 27.9 0 50.4-27.9 50.4-62.5 0-15.6-4.6-29.9-12.3-40.8h-76.2z"/><ellipse class="st8" cx="674.9" cy="447.7" rx="25.6" ry="22.4"/><path class="st8" d="M649.2 417.3c-10.2 0-17.6 10.4-17.6 24.8s7.4 24.8 17.6 24.8 17.6-10.4 17.6-24.8-7.4-24.8-17.6-24.8zm51.3 0c-10.2 0-17.6 10.4-17.6 24.8s7.4 24.8 17.6 24.8c10.2 0 17.6-10.4 17.6-24.8s-7.4-24.8-17.6-24.8z"/><ellipse class="st3" cx="700.5" cy="442.1" rx="8" ry="15.2"/><ellipse class="st3" cx="649.2" cy="442.1" rx="8" ry="15.2"/><path class="st3" d="M593.8 346.3c8.1-2.5 13.1-11 12.7-12.8-.4-1.9-9.3-8.2-18.1-6.4-.2.1-.4.1-.6.2l6 19z"/><path class="st9" d="m593.8 346.3 1.4 4.6c4.2-1.3 8.1-3.9 11.3-7.6 1.7-1.9 5.4-6.8 4.6-10.7-1.1-5.1-11.1-10.6-19.5-10.6-1.4 0-3 .2-4.3.5-1.1.2-2.3.6-3.4.9-.9.3-1.8.6-2.6 1-2.4 1-4.3 2.8-5.6 4.9-.6 1-.7 2.4-.2 3.5.3.6 1 .6 1.4.2 2.4-2.6 6.3-4.7 11-5.8.2 0 .2-.1.4-.1 1.1-.2 2.2-.3 3.4-.3 7.6 0 14.4 5 14.8 6.7.3 1.8-4.7 10.3-12.7 12.8z"/><path class="st3" d="M755.9 346.3c-8.1-2.5-13.1-11-12.7-12.8.4-1.9 9.3-8.2 18.1-6.4.2.1.4.1.6.2l-6 19z"/><path class="st9" d="m755.9 346.3-1.4 4.6c-4.2-1.3-8.1-3.9-11.3-7.6-1.7-1.9-5.4-6.8-4.6-10.7 1.1-5.1 11.1-10.6 19.5-10.6 1.4 0 3 .2 4.3.5 1.1.2 2.3.6 3.4.9.9.3 1.8.6 2.6 1 2.4 1 4.3 2.8 5.6 4.9.6 1 .7 2.4.2 3.5-.3.6-1 .6-1.4.2-2.4-2.6-6.3-4.7-11-5.8-.2 0-.2-.1-.4-.1-1.1-.2-2.2-.3-3.4-.3-7.6 0-14.4 5-14.8 6.7-.3 1.8 4.7 10.3 12.7 12.8z"/><path class="st4" d="m664.1 185.5-7-6.5c-5.7-4.7-9-11.9-9-19.2v-28.3c0-5.8-4.6-10.4-10.4-10.4h-5.1c-6.7 0-13 3.5-16.3 9.4-.2.4-.4.8-.6 1.1-.1.1-.2.2-.2.3-.2.2-.2.6-.4.8-.1.2-.2.2-.2.4-.2.3-.2.6-.4.9-.1.1-.1.2-.2.3-.2.4-.3.8-.4 1.2-.2.5-.3.9-.4 1.4v.1l-.3 1.2c0 .1 0 .2-.1.2-.1.4-.2.7-.2 1.1v.2c-.5 2.8-.5 5.6-.1 8.4l7.4 51.3-3.5 7.4c-2.4 5-2.7 10.7-1 15.9l1 2.8c.8 2.3 1.1 4.7 1.1 7.1V243c0 4.5-1.5 8.8-4.4 12.3l-1.8 2.2-.2-.2-.2-.2c-.6-.5-1.1-1-1.8-1.5-.1 0-.1-.1-.2-.1-.3-.2-.6-.6-1-.8l-.1-.1c-.3-.3-.7-.6-1-.9l-.2-.2c-.4-.3-.7-.6-1.1-1s-.8-.7-1.3-1l-.2-.2c-.4-.3-.7-.6-1.1-1-.1-.1-.2-.1-.2-.2-13.7-11.5-35.7-29.9-45.8-37.2-15.3-11.1-71.3-31.2-81-19.9s36.8 83.3 54.5 96.1c11.9 8.6 37.1 17.7 52.1 22.7l3.4 10.7c-.8.2-1.5.4-2.3.6-.9.3-1.8.6-2.6 1-2.4 1-4.3 2.8-5.6 4.9-.6 1-.7 2.4-.2 3.5.3.6 1 .6 1.4.2 2.4-2.6 6.2-4.6 10.7-5.8l6.1 19.1 1.4 4.6 31.6 98.8c-1.5 6-2.4 12.3-2.4 19 0 34.5 22.6 62.5 50.4 62.5V189.7c-3.7 0-7.6-1.4-10.6-4.2zm-76.3 141.6c.2 0 .3-.1.5-.1-.2 0-.3.1-.5.1z"/><path fill="#f4f4f4" d="m1053.3 325.5-105.7-45.1 24.8 32.7H866.7v24.8h105.7l-24.8 32.7z"/></svg>