<svg xmlns="http://www.w3.org/2000/svg" viewBox="0 0 1920 673" xml:space="preserve"><style>.st1{fill:#36434f}</style><path fill="#d6d3aa" d="M0 0h1920v673H0z"/><circle class="st1" cx="960" cy="174.8" r="21.6"/><circle class="st1" cx="960" cy="107.4" r="21.6"/><circle class="st1" cx="960" cy="40.1" r="21.6"/><circle class="st1" cx="960" cy="565.6" r="21.6"/><circle class="st1" cx="960" cy="498.2" r="21.6"/><circle class="st1" cx="798.3" cy="336.5" r="21.6"/><circle class="st1" cx="730.9" cy="336.5" r="21.6"/><circle class="st1" cx="663.6" cy="336.5" r="21.6"/><circle class="st1" cx="1121.7" cy="336.5" r="21.6"/><circle class="st1" cx="845.7" cy="222.2" r="21.6"/><circle class="st1" cx="798" cy="174.5" r="21.6"/><circle class="st1" cx="1169.6" cy="546.1" r="21.6"/><circle class="st1" cx="1122" cy="498.5" r="21.6"/><circle class="st1" cx="1074.3" cy="450.8" r="21.6"/><circle class="st1" cx="1074.3" cy="222.2" r="21.6"/><circle class="st1" cx="1122" cy="174.5" r="21.6"/><circle class="st1" cx="1169.6" cy="126.9" r="21.6"/><circle class="st1" cx="798" cy="498.5" r="21.6"/><circle class="st1" cx="845.7" cy="450.8" r="21.6"/><circle cx="650.1" cy="583.2" r="21.6" fill="#2e86b7"/><circle cx="459.1" cy="420.7" r="21.6" fill="#cc584c"/></svg>