<svg xmlns="http://www.w3.org/2000/svg" viewBox="0 0 1920 673" xml:space="preserve"><style>.st1{fill:#f4f4f4}.st3{opacity:.15;fill:#444;enable-background:new}.st4{fill:#36434f}.st5{fill:#e0ac7e}</style><path fill="#7193ad" d="M0 0h1920v673H0z"/><path class="st1" d="M474 73.5h-7.1v24.8h-15.1V35.7h15.1v24.2h5.8l12-24.2H503l-17.2 28.9 19.3 33.7h-17.8L474 73.5zm31.1 1c0-4.6.9-8.8 2.7-12.4 1.8-3.6 4.4-6.4 7.8-8.4 3.4-1.9 7.3-2.9 11.9-2.9 7 0 12.4 2.2 16.5 6.5 4 4.3 6 10.2 6 17.6v.5c0 7.2-2 13-6 17.3s-9.5 6.4-16.3 6.4c-6.6 0-11.9-2-15.9-6s-6.2-9.3-6.5-16.1l-.2-2.5zm14.5.9c0 4.3.7 7.4 2 9.5 1.3 2 3.3 3 6 3 5.2 0 7.8-4 7.9-11.9v-1.5c0-8.3-2.7-12.5-8-12.5-4.8 0-7.5 3.6-7.9 10.8v2.6zm76.2-12.6h-14.7v35.4h-14.6V62.8h-14.4V51.7h43.7v11.1zm87.3 10.6h-60.4V62h60.4v11.4zm41.1-12.5h6.8c5.4 0 8.1-2.6 8.1-7.9 0-2.1-.6-3.7-1.9-5-1.3-1.3-3.1-2-5.5-2-1.9 0-3.6.6-5 1.7s-2.1 2.5-2.1 4.2h-14.5c0-3.3.9-6.2 2.8-8.8s4.4-4.6 7.6-6c3.3-1.4 6.8-2.2 10.7-2.2 7 0 12.4 1.6 16.4 4.8s6 7.5 6 13.1c0 2.7-.8 5.2-2.5 7.6-1.6 2.4-4 4.3-7.2 5.8 3.3 1.2 5.9 3 7.8 5.5s2.8 5.5 2.8 9.1c0 5.6-2.1 10.1-6.4 13.4s-9.9 5-16.9 5c-4.1 0-7.9-.8-11.4-2.3s-6.2-3.7-8-6.5c-1.8-2.8-2.7-5.9-2.7-9.4h14.6c0 1.9.8 3.6 2.3 5 1.5 1.4 3.5 2.1 5.7 2.1 2.5 0 4.6-.7 6.1-2.1s2.3-3.2 2.3-5.4c0-3.2-.8-5.4-2.4-6.7-1.6-1.3-3.8-2-6.5-2h-7v-11zM504.4 203.8h-15.1v-50.9h-22.5v50.9h-15.1v-62.6h52.6v62.6zm31.2.9c-7.1 0-12.9-2.1-17.3-6.4s-6.6-9.8-6.6-16.6v-1.2c0-4.8.9-9 2.6-12.6 1.8-3.6 4.3-6.5 7.7-8.4 3.4-2 7.4-3 12-3 6.5 0 11.7 2 15.5 6.1 3.8 4.1 5.7 9.7 5.7 17v5.6h-28.8c.5 2.6 1.6 4.7 3.4 6.1 1.7 1.5 4 2.2 6.8 2.2 4.6 0 8.2-1.6 10.7-4.8l6.6 7.8c-1.8 2.5-4.4 4.5-7.7 6s-6.8 2.2-10.6 2.2zm-21.4-59.6c0-1.6.6-2.9 1.9-4s2.8-1.7 4.6-1.7 3.4.6 4.6 1.7 1.9 2.5 1.9 4c0 1.6-.6 2.9-1.9 4s-2.8 1.7-4.6 1.7-3.4-.6-4.6-1.7-1.9-2.4-1.9-4zm19.7 22.5c-4.2 0-6.8 2.8-7.6 8.4H541v-1.1c.1-2.3-.5-4.1-1.8-5.4-1.2-1.2-3-1.9-5.3-1.9zm2.6-22.5c0-1.6.6-2.9 1.9-4s2.8-1.7 4.6-1.7 3.4.6 4.6 1.7 1.9 2.5 1.9 4c0 1.6-.6 2.9-1.9 4s-2.8 1.7-4.6 1.7-3.4-.6-4.6-1.7-1.9-2.4-1.9-4zm44.1 48.4c2 0 3.6-.6 4.7-1.7s1.7-2.6 1.6-4.6h13.6c0 5.1-1.8 9.3-5.5 12.5s-8.4 4.9-14.1 4.9c-6.8 0-12.1-2.1-16-6.4-3.9-4.2-5.8-10.1-5.8-17.6v-.6c0-4.7.9-8.8 2.6-12.4 1.7-3.6 4.2-6.4 7.5-8.3s7.1-2.9 11.6-2.9c6 0 10.8 1.7 14.4 5s5.3 7.9 5.3 13.6H587c0-2.4-.6-4.3-1.8-5.5s-2.8-1.9-4.7-1.9c-3.8 0-5.9 2.4-6.6 7.2-.2 1.5-.3 3.6-.3 6.3 0 4.7.6 7.9 1.7 9.7s2.9 2.7 5.3 2.7zM688.7 179h-60.4v-11.3h60.4V179zm41-12.5h6.8c5.4 0 8.1-2.6 8.1-7.9 0-2.1-.6-3.7-1.9-5-1.3-1.3-3.1-2-5.5-2-1.9 0-3.6.6-5 1.7s-2.1 2.5-2.1 4.2h-14.5c0-3.3.9-6.2 2.8-8.8s4.4-4.6 7.6-6c3.3-1.4 6.8-2.2 10.7-2.2 7 0 12.4 1.6 16.4 4.8s6 7.5 6 13.1c0 2.7-.8 5.2-2.5 7.6-1.6 2.4-4 4.3-7.2 5.8 3.3 1.2 5.9 3 7.8 5.5s2.8 5.5 2.8 9.1c0 5.6-2.1 10.1-6.4 13.4s-9.9 5-16.9 5c-4.1 0-7.9-.8-11.4-2.3s-6.2-3.7-8-6.5c-1.8-2.8-2.7-5.9-2.7-9.4h14.6c0 1.9.8 3.6 2.3 5 1.5 1.4 3.5 2.1 5.7 2.1 2.5 0 4.6-.7 6.1-2.1s2.3-3.2 2.3-5.4c0-3.2-.8-5.4-2.4-6.7-1.6-1.3-3.8-2-6.5-2h-7v-11zM504.8 279.4c0 6.1-1.1 11.5-3.4 16.2-2.3 4.7-5.5 8.3-9.6 10.8s-8.9 3.8-14.2 3.8-10.1-1.2-14.2-3.7-7.3-6-9.6-10.5-3.5-9.8-3.6-15.7v-3.5c0-6.1 1.1-11.5 3.4-16.2s5.5-8.3 9.7-10.8c4.2-2.5 9-3.8 14.3-3.8 5.3 0 10 1.3 14.2 3.8 4.2 2.5 7.4 6.1 9.7 10.8 2.3 4.7 3.5 10 3.5 16v2.8zm-15.3-2.6c0-6.2-1-10.9-3.1-14.2s-5-4.8-8.9-4.8c-7.6 0-11.6 5.7-12 17v4.6c0 6.1 1 10.8 3.1 14.1 2 3.3 5.1 4.9 9.1 4.9 3.8 0 6.7-1.6 8.8-4.9 2.1-3.2 3.1-7.9 3.1-14v-2.7zm42.1 22.3c2 0 3.6-.6 4.7-1.7s1.7-2.6 1.6-4.6h13.6c0 5.1-1.8 9.3-5.5 12.5s-8.4 4.9-14.1 4.9c-6.8 0-12.1-2.1-16-6.4-3.9-4.2-5.8-10.1-5.8-17.6v-.6c0-4.7.9-8.8 2.6-12.4 1.7-3.6 4.2-6.4 7.5-8.3s7.1-2.9 11.6-2.9c6 0 10.8 1.7 14.4 5s5.3 7.9 5.3 13.6h-13.6c0-2.4-.6-4.3-1.8-5.5s-2.8-1.9-4.7-1.9c-3.8 0-5.9 2.4-6.6 7.2-.2 1.5-.3 3.6-.3 6.3 0 4.7.6 7.9 1.7 9.7s2.9 2.7 5.4 2.7zm48.5 11.2c-7.1 0-12.9-2.1-17.3-6.4s-6.6-9.8-6.6-16.6v-1.2c0-4.8.9-9 2.6-12.6 1.8-3.6 4.3-6.5 7.7-8.4 3.4-2 7.4-3 12-3 6.5 0 11.7 2 15.5 6.1 3.8 4.1 5.7 9.7 5.7 17v5.6h-28.8c.5 2.6 1.6 4.7 3.4 6.1 1.7 1.5 4 2.2 6.8 2.2 4.6 0 8.2-1.6 10.7-4.8l6.6 7.8c-1.8 2.5-4.4 4.5-7.7 6s-6.8 2.2-10.6 2.2zm-21.3-59.6c0-1.6.6-2.9 1.9-4s2.8-1.7 4.6-1.7 3.4.6 4.6 1.7 1.9 2.5 1.9 4c0 1.6-.6 2.9-1.9 4s-2.8 1.7-4.6 1.7-3.4-.6-4.6-1.7-1.9-2.4-1.9-4zm19.7 22.5c-4.2 0-6.8 2.8-7.6 8.4h14.6v-1.1c.1-2.3-.5-4.1-1.8-5.4-1.2-1.2-2.9-1.9-5.2-1.9zm2.6-22.5c0-1.6.6-2.9 1.9-4s2.8-1.7 4.6-1.7 3.4.6 4.6 1.7 1.9 2.5 1.9 4c0 1.6-.6 2.9-1.9 4s-2.8 1.7-4.6 1.7-3.4-.6-4.6-1.7-1.9-2.4-1.9-4zm66 12.2v46.5h-14.5v-35.3h-8.7l-.8 14.2c-.5 7-2.1 12.3-4.8 15.8-2.6 3.5-6.5 5.3-11.7 5.3H602l-.2-11.1 1.5-.2c1.9-.2 3.3-1.5 4.3-3.8.9-2.3 1.5-5.9 1.8-10.6l.9-20.8h36.8zm89.8 21.7h-60.4v-11.3h60.4v11.3zm71.5 24.8h-43.7V300l20.1-21.1c5-5.6 7.4-10.1 7.4-13.4 0-2.7-.6-4.7-1.8-6.1-1.2-1.4-2.9-2.1-5.1-2.1-2.2 0-4 .9-5.4 2.8-1.4 1.9-2.1 4.2-2.1 7h-14.5c0-3.8 1-7.4 2.9-10.6 1.9-3.3 4.6-5.8 8-7.6 3.4-1.8 7.2-2.8 11.4-2.8 6.8 0 12 1.6 15.6 4.7 3.7 3.1 5.5 7.6 5.5 13.4 0 2.5-.5 4.9-1.4 7.2-.9 2.3-2.3 4.8-4.3 7.3-1.9 2.6-5 6-9.3 10.3l-8.1 9.3h24.6v11.1zM474 390.3h-7.1V415h-15.1v-62.6h15.1v24.2h5.8l12-24.2H503l-17.2 28.9 19.3 33.7h-17.8L474 390.3zm31.1 1c0-4.6.9-8.8 2.7-12.4 1.8-3.6 4.4-6.4 7.8-8.4 3.4-1.9 7.3-2.9 11.9-2.9 7 0 12.4 2.2 16.5 6.5 4 4.3 6 10.2 6 17.6v.5c0 7.2-2 13-6 17.3s-9.5 6.4-16.3 6.4c-6.6 0-11.9-2-15.9-6s-6.2-9.3-6.5-16.1l-.2-2.5zm14.5.9c0 4.3.7 7.4 2 9.5 1.3 2 3.3 3 6 3 5.2 0 7.8-4 7.9-11.9v-1.5c0-8.3-2.7-12.5-8-12.5-4.8 0-7.5 3.6-7.9 10.8v2.6zm78.1 22.8h-14.5v-17.2h-12.7V415H556v-46.5h14.5v18.1h12.7v-18.1h14.5V415zm23.5-33.7h7.4c4.3 0 8.1.7 11.3 2.1 3.3 1.4 5.8 3.4 7.5 6s2.6 5.6 2.6 9c0 5-1.9 9-5.8 12.1s-9.2 4.6-15.9 4.6h-21.7v-46.5h14.6v12.7zm0 11.2V404h7.3c2.2 0 3.9-.5 5.2-1.5 1.2-1 1.9-2.4 1.9-4.1 0-1.7-.6-3.1-1.7-4.2s-2.9-1.6-5.4-1.6h-7.3zm116.2-2.3H677v-11.3h60.4v11.3zm28.7-5.7 3.8-32h36.6v11.3h-24.8l-1.4 12.4c1-.6 2.4-1.1 4.1-1.6 1.7-.5 3.3-.7 4.9-.7 6.2 0 11 1.8 14.3 5.5 3.3 3.7 5 8.8 5 15.5 0 4-.9 7.6-2.7 10.9-1.8 3.3-4.3 5.8-7.5 7.5-3.2 1.7-7.1 2.6-11.5 2.6-3.9 0-7.6-.8-11-2.4-3.4-1.6-6.1-3.8-8.1-6.7s-2.9-6-2.9-9.6h14.5c.1 2.3.9 4.1 2.2 5.4s3.1 2 5.2 2c4.9 0 7.3-3.6 7.3-10.8 0-6.7-3-10-8.9-10-3.4 0-5.9 1.1-7.6 3.3l-11.5-2.6zm-261.6 73.6v62.6h-15.1v-50.9h-14.1l-1 21c-.4 7.2-1.4 13-3 17.4-1.6 4.3-3.8 7.5-6.7 9.5-2.9 2-6.9 3-11.9 3.1h-4V509l2.1-.2c3-.4 5.2-2.3 6.5-5.5 1.3-3.3 2.2-8.7 2.6-16.4l1.1-28.8h43.5zm49.2 16v46.5h-14.4v-15.4h-5.6l-8.2 15.4H511l9.5-17.8c-2.8-1.3-4.9-3.1-6.4-5.2-1.5-2.2-2.3-4.6-2.3-7.4 0-4.7 1.9-8.6 5.7-11.5 3.8-2.9 8.7-4.4 14.8-4.5h21.4zm-27.4 16.6c0 1.4.6 2.6 1.7 3.6 1.2 1 2.7 1.6 4.5 1.6h6.7v-10.7h-6.4c-1.9 0-3.4.5-4.6 1.6-1.3 1.1-1.9 2.4-1.9 3.9zm69.1-5.4h-18.3v35.3h-14.5v-46.5h32.8v11.2zm22.9 15 7.7-26.2h15.5l-18.9 54.3-.8 2c-2.7 6-7.4 9-14.3 9-1.9 0-3.9-.3-6-.9v-10.3h1.9c2 0 3.6-.3 4.7-.9s1.9-1.6 2.4-3.2l1.2-3.1-16.2-47H611l7.3 26.3zm41.2-26.2v35.3h10.9v-35.3h14.5v35.3h10.9v-35.3h14.5v46.5H645v-46.5h14.5zm79.1 30.3h-4.3v16.2h-14.5v-46.5h14.5v16.7h4.2l7.4-16.7h18.6l-13.6 21.5 14.9 25h-19.6l-7.6-16.2zm56.8 16.2c-.5-.9-1-2.3-1.4-4.2-2.7 3.4-6.4 5-11.2 5-4.4 0-8.1-1.3-11.2-4-3.1-2.6-4.6-6-4.6-10 0-5 1.9-8.9 5.6-11.4s9.1-3.9 16.2-3.9h4.5v-2.5c0-4.3-1.8-6.4-5.5-6.4-3.4 0-5.2 1.7-5.2 5.1h-14.5c0-4.5 1.9-8.1 5.7-10.9s8.7-4.2 14.6-4.2 10.6 1.4 14.1 4.3c3.4 2.9 5.2 6.9 5.3 11.9V510c.1 4.3.7 7.5 2 9.8v.7h-14.4zm-9-9.4c1.8 0 3.3-.4 4.5-1.2s2-1.6 2.6-2.6V500h-4.2c-5 0-7.6 2.3-7.6 6.8 0 1.3.4 2.4 1.3 3.2s2 1.2 3.4 1.2zm111.5-15.4h-60.4v-11.3h60.4v11.3zm41.1-12.5h6.8c5.4 0 8.1-2.6 8.1-7.9 0-2.1-.6-3.7-1.9-5-1.3-1.3-3.1-2-5.5-2-1.9 0-3.6.6-5 1.7s-2.1 2.5-2.1 4.2H925c0-3.3.9-6.2 2.8-8.8 1.8-2.6 4.4-4.6 7.6-6 3.3-1.4 6.8-2.2 10.7-2.2 7 0 12.4 1.6 16.4 4.8 4 3.2 6 7.5 6 13.1 0 2.7-.8 5.2-2.5 7.6-1.6 2.4-4 4.3-7.2 5.8 3.3 1.2 5.9 3 7.8 5.5s2.8 5.5 2.8 9.1c0 5.6-2.1 10.1-6.4 13.4s-9.9 5-16.9 5c-4.1 0-7.9-.8-11.4-2.3-3.5-1.6-6.2-3.7-8-6.5-1.8-2.8-2.7-5.9-2.7-9.4h14.6c0 1.9.8 3.6 2.3 5 1.5 1.4 3.5 2.1 5.7 2.1 2.5 0 4.6-.7 6.1-2.1 1.5-1.4 2.3-3.2 2.3-5.4 0-3.2-.8-5.4-2.4-6.7-1.6-1.3-3.8-2-6.5-2h-7v-11zM504.4 626.2h-15.1v-50.9h-22.5v50.9h-15.1v-62.6h52.6v62.6zm31.2.9c-7.1 0-12.9-2.1-17.3-6.4s-6.6-9.8-6.6-16.6v-1.2c0-4.8.9-9 2.6-12.6 1.8-3.6 4.3-6.5 7.7-8.4 3.4-2 7.4-3 12-3 6.5 0 11.7 2 15.5 6.1 3.8 4.1 5.7 9.7 5.7 17v5.6h-28.8c.5 2.6 1.6 4.7 3.4 6.1 1.7 1.5 4 2.2 6.8 2.2 4.6 0 8.2-1.6 10.7-4.8l6.6 7.8c-1.8 2.5-4.4 4.5-7.7 6s-6.8 2.2-10.6 2.2zm-1.7-37.1c-4.2 0-6.8 2.8-7.6 8.4H541v-1.1c.1-2.3-.5-4.1-1.8-5.4-1.2-1.2-3-1.9-5.3-1.9zm67.3.8h-14.7v35.4H572v-35.4h-14.4v-11.1h43.7v11.1zm24.5 15.1 7.7-26.2h15.5L630 634l-.8 2c-2.7 6-7.4 9-14.3 9-1.9 0-3.9-.3-6-.9v-10.3h1.9c2 0 3.6-.3 4.7-.9s1.9-1.6 2.4-3.2l1.2-3.1-16.2-47h15.5l7.3 26.3zm45.8-13.4 6.7-12.8h15L681 602.3l12.8 23.8h-15.1l-7.3-13.8-7.2 13.8H649l12.9-23.8-12.2-22.6H665l6.5 12.8zm108.4 8.9h-60.4V590h60.4v11.4zm38.8 5c0-4.2.5-7.5 1.4-9.9.9-2.4 2.5-4.5 4.6-6.3 2.1-1.8 3.7-3.4 4.8-4.9 1.1-1.5 1.7-3.1 1.7-4.9 0-4.3-1.9-6.5-5.6-6.5-1.7 0-3.1.6-4.2 1.9-1.1 1.3-1.6 3-1.7 5.1h-14.5c.1-5.7 1.9-10.2 5.4-13.4 3.6-3.2 8.5-4.8 15-4.8 6.4 0 11.3 1.5 14.8 4.4 3.5 3 5.3 7.1 5.3 12.6 0 2.4-.5 4.5-1.4 6.5-.9 1.9-2.5 3.9-4.6 6l-4.9 4.6c-1.4 1.3-2.4 2.7-2.9 4.1s-.8 3.2-.9 5.4h-12.3zm-1.7 13.1c0-2.1.8-3.9 2.3-5.2 1.5-1.4 3.4-2 5.7-2s4.2.7 5.7 2c1.5 1.4 2.3 3.1 2.3 5.2s-.8 3.9-2.3 5.2c-1.5 1.4-3.4 2-5.7 2s-4.2-.7-5.7-2c-1.6-1.4-2.3-3.1-2.3-5.2z"/><path d="M1237.5 128c-78 0-141.3 63.3-141.3 141.3l51.1 222.1c2.9 12.7 10.4 23.9 21.2 31.2 15 10.3 39.1 22.4 69.1 22.4 30 0 54.1-12.1 69.1-22.4 10.8-7.3 18.2-18.5 21.2-31.2l51.1-222.1c-.1-78-63.4-141.3-141.5-141.3z" fill="#ddd"/><path class="st3" d="m1330.9 477.9 24.3-105.3-58.2-45.8 33.9 151.1zm-186.7 0 33.9-151.1-58.2 45.8 24.3 105.3z"/><path class="st4" d="m1096.2 269.3 31 134.7c52.9-38.9 87.1-101.6 87.1-172.2 0-34.6-8.2-67.3-22.8-96.2-55.5 19.2-95.3 71.8-95.3 133.7zm187.4-133.6c-14.6 28.9-22.8 61.6-22.8 96.2 0 70.6 34.3 133.4 87.1 172.2l31-134.7c0-62-39.9-114.6-95.3-133.7zm6.5 327.1c0-19.8-23.5-35.8-52.5-35.8s-52.5 16-52.5 35.8c0 11 7.3 20.9 18.7 27.4 2.4 9.9 16.6 17.4 33.9 17.4s31.4-7.6 33.9-17.4c11.2-6.5 18.5-16.4 18.5-27.4zm-52.6 61.1c5.4 0 10.6-.5 15.6-1.5-4.2-3.6-9.7-5.8-15.6-5.8s-11.5 2.2-15.6 5.8c5.1 1 10.3 1.5 15.6 1.5z"/><path class="st1" d="M1289.3 288.2c0 5.1.9 10.1 2.5 14.7 7.3 5.2 16.2 8.3 25.8 8.3 24.4 0 44.2-19.8 44.2-44.2 0-5.1-.9-10.1-2.5-14.7-7.3-5.2-16.2-8.3-25.8-8.3-24.4.1-44.2 19.9-44.2 44.2z"/><ellipse class="st4" cx="1324.7" cy="277.9" rx="23.6" ry="35"/><path class="st1" d="M1315.9 278h-.4c-1.8-.2-3.1-1.9-2.9-3.6.5-4.2 2-8.4 4.5-11.9 1.1-1.5 3-1.9 4.6-.8 1.5 1.1 1.9 3.1.8 4.6-1.9 2.7-3 5.8-3.4 9-.2 1.4-1.6 2.7-3.2 2.7zm-130.1 10.2c0 5.1-.9 10.1-2.5 14.7-7.3 5.2-16.2 8.3-25.8 8.3-24.4 0-44.2-19.8-44.2-44.2 0-5.1.9-10.1 2.5-14.7 7.3-5.2 16.2-8.3 25.8-8.3 24.4.1 44.2 19.9 44.2 44.2z"/><ellipse class="st4" cx="1150.4" cy="277.9" rx="23.6" ry="35"/><path class="st1" d="M1159.2 278c-1.6 0-3-1.2-3.3-2.9-.4-3.2-1.5-6.3-3.4-9-1.1-1.5-.7-3.5.8-4.6s3.5-.7 4.6.8c2.4 3.5 4 7.7 4.5 11.9.2 1.8-1.1 3.4-2.9 3.6-.1.2-.2.2-.3.2z"/><path class="st4" d="M1405.7 210.8c-12.1-22.2-33.1-38.2-57.8-43.4-.2 0-.2-.1-.4-.1-10.8-2.3-21.9-3.4-33.3-3.4-5.5 0-10.9.2-16.3.8v1.2c0 18 7.7 34.2 19.8 45.5 15 2.4 29 8.1 41.4 16.7h1.1c3.3 0 6.4-.2 9.6-.7 1.1 3.9 2 7.9 2.9 11.9 22.5 21.9 36.7 54.1 36.7 89.9 0 41.9-19.5 78.8-48.8 100-3.8 10.4-8.1 20.5-12.9 30.5-4.4 9.1-6.1 19.3-4.8 29.2.4 3.2 1.1 6.3 2.1 9.4 7 20.9 22.2 35.5 39.9 35.5h1.2c11.7-.5 22.2-7.7 27.3-18.2 5.9-12.3 11-24.9 15.3-38 5-14.8 8.9-30.1 11.7-45.8 3.6-19.7 5.5-40.1 5.5-60.9.2-58.1-14.5-112.6-40.2-160.1z"/><path class="st5" d="M1409.4 329.2c0-35.8-14.3-68-36.7-89.9 5.4 23.9 8.2 48.8 8.2 74.4 0 36.7-5.9 71.9-16.7 105-1.1 3.5-2.4 7-3.6 10.4 29.4-21.1 48.8-58 48.8-99.9z"/><path class="st4" d="M1069.4 210.8c12.1-22.2 33.1-38.2 57.8-43.4.2 0 .2-.1.4-.1 10.8-2.3 21.9-3.4 33.3-3.4 5.5 0 10.9.2 16.3.8v1.2c0 18-7.7 34.2-19.8 45.5-15 2.4-29 8.1-41.4 16.7h-1.1c-3.3 0-6.4-.2-9.6-.7-1.1 3.9-2 7.9-2.9 11.9-22.5 21.9-36.7 54.1-36.7 89.9 0 41.9 19.5 78.8 48.8 100 3.8 10.4 8.1 20.5 12.9 30.5 4.4 9.1 6.1 19.3 4.8 29.2-.4 3.2-1.1 6.3-2.1 9.4-7 20.9-22.2 35.5-39.9 35.5h-1.2c-11.7-.5-22.2-7.7-27.3-18.2-5.9-12.3-11-24.9-15.3-38-5-14.8-8.9-30.1-11.7-45.8-3.7-19.9-5.5-40.2-5.5-60.9-.2-58.1 14.5-112.6 40.2-160.1z"/><path class="st5" d="M1065.7 329.2c0-35.8 14.3-68 36.7-89.9-5.4 23.9-8.2 48.8-8.2 74.4 0 36.7 5.9 71.9 16.7 105 1.1 3.5 2.4 7 3.6 10.4-29.4-21.1-48.8-58-48.8-99.9zm278.5-97c-5 2.9-11.5 2.2-15.7-2.1-3.9-3.9-8.2-7.5-12.8-10.5-5.9-4-7.6-12.1-3.5-18.1 4-5.9 12.1-7.6 18.1-3.5 6 4.1 11.6 8.7 16.7 13.8 5.1 5.1 5.1 13.4-.1 18.4-.9.8-1.7 1.5-2.7 2zm-205.1 0c-1-.6-1.9-1.2-2.7-2-5.1-5.1-5.1-13.4-.1-18.4 5.1-5.1 10.8-9.8 16.7-13.8 5.9-4 14.1-2.4 18.1 3.5 4 5.9 2.4 14.1-3.5 18.1-4.6 3.1-8.9 6.6-12.8 10.5-4.3 4.3-10.8 5-15.7 2.1z"/><path class="st3" d="M1191.5 135.7c-2.4.8-4.9 1.8-7.3 2.8-.2.1-.4.2-.6.2l-2.1.9c-.2.1-.4.2-.6.2-2.4 1.1-4.6 2.1-6.9 3.3-.1 0-.1.1-.2.1-.7.3-1.4.7-2 1.1-.2.1-.4.2-.7.3-.7.3-1.3.7-2 1.1l-.6.3c-2.1 1.2-4.2 2.4-6.3 3.7-.2.1-.2.2-.4.2-.7.4-1.2.8-1.9 1.2-.2.2-.4.3-.7.4l-1.8 1.2c-.2.2-.4.2-.6.4-2 1.3-3.8 2.7-5.7 4.2-.2.2-.4.3-.6.5-.6.4-1.1.8-1.6 1.3-.2.2-.5.4-.7.6-.5.4-1.1.8-1.5 1.3-.2.2-.4.3-.7.6-1.4 1.1-2.8 2.4-4.1 3.6-5 .6-9.9 1.3-14.7 2.4-.2 0-.2.1-.4.1-24.7 5.2-45.8 21.2-57.8 43.4-25.6 47.3-40.2 101.8-40.2 159.7 0 20.8 1.9 41.1 5.5 60.9 2.9 15.6 6.8 31 11.7 45.8 4.3 13 9.4 25.7 15.3 38 5.1 10.6 15.6 17.8 27.3 18.2h1.2c17.7 0 33-14.6 39.9-35.5 1.1-3.1 1.7-6.2 2.1-9.4 1.3-9.9-.4-20-4.8-29.2-4.8-9.9-9-20-12.9-30.5-1.2-3.4-2.4-6.9-3.6-10.4-10.8-33-16.6-68.3-16.6-104.9 0-14.2.9-28.2 2.6-42l23.2 100.8 24.2 105.3 3.1 13.5c2.9 12.7 10.4 23.9 21.2 31.2 15 10.3 39.1 22.4 69.1 22.4V128c-15.9 0-31.4 2.7-45.8 7.7z"/></svg>