<svg xmlns="http://www.w3.org/2000/svg" viewBox="0 0 1920 673" xml:space="preserve"><path fill="#df7148" d="M0 0h1920v673H0z"/><path d="M521.3 353.3h15.4v21.8h-15.4v29.5h-27v-29.5h-55.9l-1.2-17 56.8-89.7h27.3v84.9zm-57.2 0h30.1v-48.1l-1.8 3.1-28.3 45zm162.4-28.8h14.4c6.9 0 11.9-1.7 15.3-5.1 3.3-3.4 5-8 5-13.7 0-5.5-1.6-9.8-4.9-12.8s-7.8-4.6-13.5-4.6c-5.2 0-9.5 1.4-13 4.3-3.5 2.8-5.2 6.5-5.2 11.1h-27c0-7.1 1.9-13.5 5.8-19.1 3.8-5.6 9.2-10.1 16.1-13.2 6.9-3.2 14.5-4.8 22.8-4.8 14.4 0 25.7 3.4 33.9 10.3s12.3 16.4 12.3 28.5c0 6.2-1.9 12-5.7 17.2-3.8 5.2-8.8 9.3-15 12.1 7.7 2.7 13.4 6.9 17.2 12.4 3.8 5.5 5.7 12 5.7 19.5 0 12.1-4.4 21.8-13.2 29.1-8.8 7.3-20.5 11-35 11-13.6 0-24.7-3.6-33.4-10.8-8.6-7.2-13-16.7-13-28.4h27c0 5.1 1.9 9.3 5.8 12.5 3.8 3.2 8.6 4.9 14.2 4.9 6.4 0 11.5-1.7 15.1-5.1 3.6-3.4 5.5-7.9 5.5-13.5 0-13.6-7.5-20.4-22.5-20.4h-14.3v-21.4zm157.7 0h14.4c6.9 0 11.9-1.7 15.3-5.1 3.3-3.4 5-8 5-13.7 0-5.5-1.6-9.8-4.9-12.8s-7.8-4.6-13.5-4.6c-5.2 0-9.5 1.4-13 4.3-3.5 2.8-5.2 6.5-5.2 11.1h-27c0-7.1 1.9-13.5 5.8-19.1 3.8-5.6 9.2-10.1 16.1-13.2 6.9-3.2 14.5-4.8 22.8-4.8 14.4 0 25.7 3.4 33.9 10.3s12.3 16.4 12.3 28.5c0 6.2-1.9 12-5.7 17.2-3.8 5.2-8.8 9.3-15 12.1 7.7 2.7 13.4 6.9 17.2 12.4 3.8 5.5 5.7 12 5.7 19.5 0 12.1-4.4 21.8-13.2 29.1-8.8 7.3-20.5 11-35 11-13.6 0-24.7-3.6-33.4-10.8-8.6-7.2-13-16.7-13-28.4h27c0 5.1 1.9 9.3 5.8 12.5 3.8 3.2 8.6 4.9 14.2 4.9 6.4 0 11.5-1.7 15.1-5.1 3.6-3.4 5.5-7.9 5.5-13.5 0-13.6-7.5-20.4-22.5-20.4h-14.3v-21.4zM987.7 267v22.3h-2.6c-12.2.2-22.1 3.4-29.5 9.5-7.5 6.2-11.9 14.8-13.4 25.7 7.2-7.4 16.4-11 27.4-11 11.9 0 21.3 4.2 28.3 12.7s10.5 19.7 10.5 33.5c0 8.9-1.9 16.9-5.8 24.1-3.8 7.2-9.3 12.8-16.3 16.8s-15 6-23.8 6c-14.4 0-25.9-5-34.8-15-8.8-10-13.2-23.3-13.2-40v-9.7c0-14.8 2.8-27.8 8.4-39.2 5.6-11.3 13.6-20.1 24.1-26.3 10.4-6.2 22.6-9.3 36.4-9.4h4.3zm-26.4 68.3c-4.4 0-8.3 1.1-11.9 3.4-3.6 2.3-6.2 5.3-7.9 9v8.2c0 9 1.8 16.1 5.3 21.2 3.6 5.1 8.5 7.6 15 7.6 5.8 0 10.5-2.3 14.1-6.9 3.6-4.6 5.4-10.5 5.4-17.8 0-7.4-1.8-13.4-5.4-17.9-3.6-4.5-8.5-6.8-14.6-6.8zm190.7 18h15.4v21.8H1152v29.5h-27v-29.5h-55.9l-1.2-17 56.8-89.7h27.3v84.9zm-57.1 0h30.1v-48.1l-1.8 3.1-28.3 45zm138.8-15.7 7.9-69.3h76.4v22.6h-54.2l-3.4 29.3c6.4-3.4 13.3-5.1 20.5-5.1 13 0 23.1 4 30.5 12.1 7.4 8 11 19.3 11 33.8 0 8.8-1.9 16.7-5.6 23.6-3.7 7-9 12.4-16 16.2-6.9 3.8-15.1 5.8-24.5 5.8-8.2 0-15.9-1.7-22.9-5-7.1-3.3-12.6-8-16.7-14.1s-6.3-12.9-6.5-20.7h26.8c.6 5.7 2.5 10.1 5.9 13.2 3.4 3.2 7.8 4.7 13.3 4.7 6.1 0 10.8-2.2 14.1-6.6 3.3-4.4 5-10.6 5-18.7 0-7.7-1.9-13.7-5.7-17.8-3.8-4.1-9.2-6.2-16.2-6.2-6.4 0-11.6 1.7-15.6 5.1l-2.6 2.4-21.5-5.3zm233.7 15.7h15.4v21.8h-15.4v29.5h-27v-29.5h-55.9l-1.2-17 56.8-89.7h27.3v84.9zm-57.2 0h30.1v-48.1l-1.8 3.1-28.3 45z" fill="#fff" opacity=".75"/></svg>