<svg xmlns="http://www.w3.org/2000/svg" viewBox="0 0 1920 673" xml:space="preserve"><style>.st1{fill:#cc584c}.st2{fill:#2e86b7}</style><path fill="#caead0" d="M0 0h1920v673H0z"/><path class="st1" d="M499.7 301.8h-.3l-47.4.2v.1h-1.6c-22.1 1-39.4 19.6-38.4 41.8 1 22.1 19.6 39.4 41.8 38.5 2.4-.1 4.6-.4 6.8-.9l27.3-5.3c5.8-1.1 11.6-1.9 17.4-2.4-6.5-11.2-10.5-24.2-11-38.4-.5-12 1.4-23.3 5.4-33.6zm-65.9 63.7c-.3-.5-1-1.1-1.7-1.7l1.5-1.6-4.9-4.5 4.5-4.9-4.9-4.5 4.5-4.9-4.9-4.5 4.5-4.9-4.9-4.5 4.5-4.9-2-1.8c.6-.7 1.2-1.3 1.8-2l1.9 1.8v-.1l2 1.8-4.6 5 2.9 2.6v-.1l2 1.8-4.6 5 2.9 2.6v-.1l2 1.8-4.6 5 2.9 2.6v-.1l2 1.8-4.6 5 2.9 2.6v-.1l2 1.8-3.1 4zm14.3 5.7c-.8 0-2-.2-3.1-.5l-4.6-4.2 4.5-4.9-4.9-4.5 4.5-4.9-4.9-4.5 4.5-4.9-4.9-4.5 4.5-4.9-4.9-4.5 4.5-4.9-4.9-4.5 4.5-4.9-.4-.3c1-.4 2-.6 3.1-.9l1.1 1-4.6 5 2.9 2.6v-.1l2 1.8-4.6 5 2.9 2.6v-.1l2 1.8-4.6 5 2.9 2.6v-.1l2 1.8-4.6 5 2.9 2.6v-.1l2 1.8-4.6 5 2.9 2.6v-.1l2 1.8-4.6 5 2.9 2.6v-.1l2 1.8-.4 1zm11.6-.7-1.6.3c-.9.2-1.9.4-2.8.5l.8-.9-4.9-4.5 4.5-4.9-4.9-4.5 4.5-4.9-4.9-4.5 4.5-4.9-4.9-4.5 4.5-4.9-4.9-4.5 4.5-4.9-4.9-4.5 4.5-4.9-1.1-1.4h4.1l1.4 1.3-4.6 5 2.9 2.6v-.1l2 1.8-4.6 5 2.9 2.6v-.1l2 1.8-4.6 5 2.9 2.6v-.1l2 1.8-4.6 5 2.9 2.6v-.1l2 1.8-4.6 5 2.9 2.6v-.1l2 1.8-4.6 5 2.9 2.6v-.1l2 1.8-.2.8zm9.5-2.6.7.6-2.3.4-.1-.2-1.2.3-3.9-3.6 4.5-4.9-4.9-4.5 4.5-4.9-4.9-4.5 4.5-4.9-4.9-4.5 4.5-4.9-4.9-4.5 4.5-4.9-4.9-4.5 4.5-4.9-.7-1h4.1l1 .9-4.6 5 2.9 2.6v-.1l2 1.8-4.6 5 2.9 2.6v-.1l2 1.8-4.6 5 2.9 2.6v-.1l2 1.8-4.6 5 2.9 2.6v-.1l2 1.8-4.6 5 2.9 2.6v-.1l2 1.8-4.6 5 3 3zm10.4-1.1-3.3.6-2.6-2.4 4.5-4.9-4.9-4.5 4.5-4.9-4.9-4.5 4.5-4.9-4.9-4.5 4.5-4.9-4.9-4.5 4.5-4.9-4.9-4.5 4.5-4.9-.3-.6h4.1l.5.4-4.6 5 2.9 2.6v-.1l2 1.8-4.6 5 2.9 2.6v-.1l2 1.8-4.6 5 2.9 2.6v-.1l2 1.8-4.6 5 2.9 2.6v-.1l2 1.8-4.6 5 2.9 2.6v-.1l2 1.8-4.6 5 2.2 2.4zm206.3-26c-.2-4.2-.9-8.3-1.9-12.2-1.5-5.5-5.1-10.2-9.9-13.2-16.7-10.7-35.2-18.7-54.9-23.6-16.7-4.1-34.3-6.1-52.4-5.2-15.8.7-27.2 6.2-41.8 10.6-5.2 1.6-10.6 2.8-16 3.7l-1.6 4.1c-3.5 9.5-5.1 19.7-4.7 30.2.5 12.3 3.9 24.2 9.9 34.5l2.2 3.8c8.4-.2 16.8.3 25.1 1.4l2.6.4c8.4 1.1 16.8 3 24.9 5.4 11.7 3.6 24.1 5.7 36.8 6.1 3.8.2 7.6.1 11.4 0 20.2-.9 39.2-5.9 56.3-14.1 5.8-2.8 10.2-7.9 11.9-14.1 1.7-5.7 2.4-11.7 2.1-17.8zm-161.5 1.1c-3.3.1-6-2.5-6.1-5.7-.1-3.3 2.4-6 5.7-6.1 3.3-.1 6 2.4 6.1 5.7.1 3.2-2.4 5.9-5.7 6.1zm35.1 22.2 1.6 1.4-5.4-1.2-2.6-2.4c0-.1-.1-.3-.2-.4l4.4-4.7-4.9-4.5 4.5-4.9-4.9-4.5 4.5-4.9-4.9-4.5 4.5-4.9-4.9-4.5 4.5-4.9-4.7-4.4c0-.1 0-.3.1-.5l4.2-4.6-1.6-1.7c.4-.9.7-1.7 1.1-2.6l2.6 2.4v-.1l2 1.8-4.6 5 2.9 2.6v-.1l2 1.8-4.6 5 2.9 2.6v-.1l2 1.8-4.6 5 2.9 2.6v-.1l2 1.8-4.6 5 2.9 2.6v-.1l2 1.8-4.6 5 2.9 2.6v-.1l2 1.8-4.6 5 3.2 3.1zm10.8 3.9c-1-.3-1.9-.6-2.9-.8l1.4-1.6-4.9-4.5 4.5-4.9-4.9-4.5 4.5-4.9-4.9-4.5 4.5-4.9-4.9-4.5 4.5-4.9-4.9-4.5 4.5-4.9-4.9-4.5 4.5-4.9-4.9-4.5 4.9-4.8-.8-.7c.6 0 1.3-.1 1.9-.1.6 0 1.3-.1 1.9-.1l.7.7-4.6 5 2.9 2.6v-.1l2 1.8-4.6 5 2.9 2.6v-.1l2 1.8-4.6 5 2.9 2.6v-.1l2 1.8-4.6 5 2.9 2.6v-.1l2 1.8-4.6 5 2.9 2.6v-.1l2 1.8-4.6 5 2.9 2.6v-.1l2 1.8-4.6 5 2.9 2.6v-.1l2 1.8-1.9 3.2zm9.9 2.6c-1.4-.3-2.8-.7-4.2-1.1l4.1-4.4-4.9-4.5 4.5-4.9-4.9-4.5 4.5-4.9-4.9-4.5 4.5-4.9-4.9-4.5 4.5-4.9-4.9-4.5 4.5-4.9-4.9-4.5 4.5-4.9-4.9-4.5 4.5-4.9v-.4c1.4 0 2.8.1 4.2.1l.2.2-4.6 5 2.9 2.6v-.1l2 1.8-4.6 5 2.9 2.6v-.1l2 1.8-4.6 5 2.9 2.6v-.1l2 1.8-4.6 5 2.9 2.6v-.1l2 1.8-4.6 5 2.9 2.6v-.1l2 1.8-4.6 5 2.9 2.6v-.1l2 1.8-4.6 5 2.9 2.6v-.1l2 1.8-4.6 5 1 1.3zm13.4 1.4 1.1 1c-1.6-.2-3.2-.4-4.7-.6l-3.2-2.9 4.8-4.8-4.9-4.5 4.5-4.9-4.9-4.5 4.5-4.9-4.9-4.5 4.5-4.9-4.9-4.5 4.5-4.9-4.9-4.5 4.5-4.9-4.9-4.5 4.5-4.9-4.9-4.5 4-4.4c1.3 0 2.4.1 3.5.3l-3.6 3.9 2.9 2.6v-.1l2 1.8-4.6 5 2.9 2.6v-.1l2 1.8-4.6 5 2.9 2.6v-.1l2 1.8-4.6 5 2.9 2.6v-.1l2 1.8-4.6 5 2.9 2.6v-.1l2 1.8-4.6 5 2.9 2.6v-.1l2 1.8-4.6 5 2.9 2.6v-.1l2 1.8-4.6 5 3.3 3.3zm12.8 1.9h-1.9l-1.6-.1.1-.1-4.9-4.5 4.5-4.9-4.9-4.5 4.5-4.9-4.9-4.5 4.5-4.9-4.9-4.5 4.5-4.9-4.9-4.5 4.5-4.9-4.9-4.5 4.5-4.9-4.9-4.5 4.5-4.9-4.9-4.5 2.6-2.9c1.6.2 2.7.3 3.8.5l-2 2.2 2.9 2.7v-.1l2 1.8-4.6 5 2.9 2.6v-.1l2 1.8-4.6 5 2.9 2.6v-.1l2 1.8-4.6 5 2.9 2.6v-.1l2 1.8-4.6 5 2.9 2.6v-.1l2 1.8-4.6 5 2.9 2.6v-.1l2 1.8-4.6 5 2.9 2.6v-.1l2 1.8-4.6 5 2.9 2.6v-.1l2 1.8-.3 1.2zm10.9-.3c-.8.1-1.7.1-2.5.1-.4 0-.9.1-1.3.1l.6-.7-4.9-4.5 4.5-4.9-4.9-4.5 4.5-4.9-4.9-4.5 4.5-4.9-4.9-4.5 4.5-4.9-4.9-4.5 4.5-4.9-4.9-4.5 4.5-4.9-4.9-4.5 4.5-4.9-4.9-4.5.8-.8c1.6.3 2.7.6 3.7.8l2.9 2.7v-.1l2 1.8-4.6 5 2.9 2.6v-.1l2 1.8-4.6 5 2.9 2.6v-.1l2 1.8-4.6 5 2.9 2.6v-.1l2 1.8-4.6 5 2.9 2.6v-.1l2 1.8-4.6 5 2.9 2.6v-.1l2 1.8-4.6 5 2.9 2.6v-.1l2 1.8-4.6 5 2.9 2.6v-.1l2 1.8-.6 1.3zm7.8-.8.3-.3-4.9-4.5 4.5-4.9-4.9-4.5 4.5-4.9-4.9-4.5 4.5-4.9-4.9-4.5 4.5-4.9-4.9-4.5 4.5-4.9-4.9-4.5 4.5-4.9-4.9-4.5 4.5-4.9-1.8-1.6c2.3.7 4.1 1.2 6 1.8l-4.4 4.7 2.9 2.6v-.1l2 1.8-4.6 5 2.9 2.6v-.1l2 1.8-4.6 5 2.9 2.6v-.1l2 1.8-4.6 5 2.9 2.6v-.1l2 1.8-4.6 5 2.9 2.6v-.1l2 1.8-4.6 5 2.9 2.6v-.1l2 1.8-4.6 5 2.9 2.6v-.1l1.9 1.8c-1.1.7-2.5.9-3.9 1.1zm13.5-2.7.4.3c-1.1.2-2.2.5-3.3.8l-3.9-3.5 4.5-4.9-4.9-4.5 4.5-4.9-4.9-4.5 4.5-4.9-4.9-4.5 4.5-4.9-4.9-4.5 4.5-4.9-4.9-4.5 4.5-4.9-4.9-4.5 2.8-2.6c.9.4 1.8.7 2.8 1l-1.3 1.4 2.9 2.6v-.1l2 1.8-4.6 5 2.9 2.6v-.1l2 1.8-4.6 5 2.9 2.6v-.1l2 1.8-4.6 5 2.9 2.6v-.1l2 1.8-4.6 5 2.9 2.6v-.1l2 1.8-4.6 5 2.9 2.6v-.1l2 1.8-4.6 5 3.1 3.2zm9.4-2-3 .9-2-1.8 4.5-4.9-4.9-4.5 4.5-4.9-4.9-4.5 4.5-4.9-4.9-4.5 4.5-4.9-4.9-4.5 4.5-4.9-4.9-4.5 4.5-4.9-2.3-2.1c2.3.9 4.1 1.7 6 2.6l-4 4.3 2.9 2.6v-.1l2 1.8-4.6 5 2.9 2.6v-.1l2 1.8-4.6 5 2.9 2.6v-.1l2 1.8-4.6 5 2.9 2.6v-.1l2 1.8-4.6 5 2.9 2.6v-.1l2 1.8-4.6 5 1.3 1.5zm13.1-4.9c-1.9.8-3.9 1.6-5.8 2.3l3.5-3.8-4.9-4.5 4.5-4.9-4.9-4.5 4.5-4.9-4.9-4.5 4.5-4.9-4.9-4.5 4.5-4.9-4.9-4.5 1.4-1.6c1.1.5 2 1 2.8 1.4l2.9 2.7v-.1l2 1.8-4.6 5 2.9 2.6v-.1l2 1.8-4.6 5 2.9 2.6v-.1l2 1.8-4.6 5 2.9 2.6v-.1l2 1.8-4.6 5 2.9 2.6v-.1l2 1.8-1.5 2.2zm12.2-20.8-4.5 4.9 2.9 2.6v-.1l.9.8c-.2 1-.4 1.9-.6 2.9l-2.8 3 1.1 1c-.5.7-1.1 1.4-1.8 2l-3.1-2.8 4.5-4.9-4.9-4.5 4.5-4.9-4.9-4.5 4.5-4.9-4.9-4.5 2.7-3c.2.2.4.3.6.4.6.4 1.2.8 1.7 1.3l-1.1 1.2 2.9 2.6v-.1l.9.8c.2.6.3 1.2.4 1.7l-3.9 4.2 2.9 2.6v-.1l2 2.3z"/><path class="st1" d="M768.3 337.7c.6-14.2 4.6-27.2 11-38.4-5.8-.5-11.7-1.3-17.4-2.4l-27.3-5.3c-2.2-.5-4.5-.8-6.8-.9-22.1-1-40.8 16.3-41.8 38.5-1 22.1 16.2 40.8 38.4 41.8h1.6v.1l47.4.2h.3c-4-10.4-5.9-21.7-5.4-33.6zM711 311.1l-2 1.8v-.1l-2.9 2.6 4.6 5-2 1.8v-.1l-2.9 2.6 4.6 5-2 1.8v-.1l-2.9 2.6 4.6 5-2 1.8v-.1l-2.9 2.6 4.6 5-2 1.8v-.1l-1.9 1.8c-.7-.6-1.3-1.3-1.8-2l2-1.8-4.5-4.9 4.9-4.5-4.5-4.9 4.9-4.5-4.5-4.9 4.9-4.5-4.5-4.9 4.9-4.5-1.5-1.6c.7-.6 1.4-1.2 1.7-1.7l3.1 4zm11.7-8.8-2 1.8v-.1l-2.9 2.6 4.6 5-2 1.8v-.1l-2.9 2.6 4.6 5-2 1.8v-.1l-2.9 2.6 4.6 5-2 1.8v-.1l-2.9 2.6 4.6 5-2 1.8v-.1l-2.9 2.6 4.6 5-2 1.8v-.1l-2.9 2.6 4.6 5-1.1 1c-1.1-.3-2.1-.5-3.1-.9l.4-.3-4.5-4.9 4.9-4.5-4.5-4.9 4.9-4.5-4.5-4.9 4.9-4.5-4.5-4.9 4.9-4.5-4.5-4.9 4.9-4.5-4.5-4.9 4.6-4.2c1.1-.3 2.3-.5 3.1-.5l.4 1zm11.3.5-2 1.8v-.1l-2.9 2.6 4.6 5-2 1.8v-.1l-2.9 2.6 4.6 5-2 1.8v-.1l-2.9 2.6 4.6 5-2 1.8v-.1l-2.9 2.6 4.6 5-2 1.8v-.1l-2.9 2.6 4.6 5-2 1.8v-.1l-2.9 2.6 4.6 5-1.4 1.3h-4.1l1.1-1.4-4.5-4.9 4.9-4.5-4.5-4.9 4.9-4.5-4.5-4.9 4.9-4.5-4.5-4.9 4.9-4.5-4.5-4.9 4.9-4.5-4.5-4.9 4.9-4.5-.8-.9c1 .1 1.9.3 2.8.5l1.6.3.2.8zm6.3 4.9 4.6 5-2 1.8v-.1L740 317l4.6 5-2 1.8v-.1l-2.9 2.6 4.6 5-2 1.8v-.1l-2.9 2.6 4.6 5-2 1.8v-.1l-2.9 2.6 4.6 5-2 1.8v-.1l-2.9 2.6 4.6 5-1 .9h-4.1l.7-1-4.5-4.9 4.9-4.5-4.5-4.9 4.9-4.5-4.5-4.9 4.9-4.5-4.5-4.9 4.9-4.5-4.6-4.5 4.9-4.5-4.5-4.9 3.9-3.6 1.2.3.1-.2 2.3.4-.7.7v-.1l-2.9 2.6zm11.3.5 4.6 5-2 1.8v-.1l-2.9 2.6 4.6 5-2 1.8v-.1l-2.9 2.6 4.6 5-2 1.8v-.1l-2.9 2.6 4.6 5-2 1.8v-.1l-2.9 2.6 4.6 5-2 1.8v-.1l-2.9 2.6 4.6 5-.5.4h-4.1l.3-.6-4.5-4.9 4.9-4.5-4.5-4.9 4.9-4.5-4.5-4.9 4.9-4.5-4.5-4.9 4.9-4.5-4.5-4.9 4.9-4.5-4.5-4.9 2.6-2.4 3.3.6-2.2 2.4zm206.3 6.4c-1.7-6.2-6.1-11.3-11.9-14.1-17.1-8.2-36.1-13.2-56.3-14.1-3.8-.1-7.6-.2-11.4 0-12.7.4-25.1 2.6-36.8 6.1-8.1 2.5-16.5 4.3-24.9 5.4l-2.6.4c-8.3 1.1-16.7 1.6-25.1 1.4l-2.2 3.8c-6 10.3-9.4 22.2-9.9 34.5-.4 10.5 1.2 20.6 4.7 30.2l1.6 4.1c5.4.9 10.8 2.1 16 3.7 14.5 4.4 25.9 9.9 41.8 10.6 18.1.8 35.7-1.1 52.4-5.2 19.7-4.9 38.2-13 54.9-23.6 4.8-3.1 8.4-7.8 9.9-13.2 1.1-3.9 1.8-8 1.9-12.2.2-6.3-.5-12.3-2.1-17.8zm-153.8 22.7c-.1 3.3-2.9 5.8-6.1 5.7-3.3-.1-5.8-2.9-5.7-6.1.2-3.2 2.9-5.7 6.1-5.7 3.3.1 5.8 2.8 5.7 6.1zm26.5-25.8 4.6 5-2 1.8v-.1l-2.9 2.6 4.6 5-2 1.8v-.1l-2.9 2.6 4.6 5-2 1.8v-.1l-2.9 2.6 4.6 5-2 1.8v-.1l-2.9 2.6 4.6 5-2 1.8v-.1l-2.9 2.6 4.6 5-2 1.8v-.1l-2.6 2.4c-.4-.9-.8-1.7-1.1-2.6l1.6-1.7-4.2-4.6c-.1-.2-.1-.3-.1-.5l4.7-4.4-4.5-4.9 4.9-4.5-4.5-4.9 4.9-4.5-4.5-4.9 4.9-4.5-4.5-4.9 4.9-4.5-4.4-4.7c.1-.2.2-.3.2-.4l2.6-2.4c1.8-.4 3.6-.7 5.4-1.2l-1.6 1.4v-.1l-3.2 3.2zm16.1-3.9-2 1.8v-.1l-2.9 2.6 4.6 5-2 1.8v-.1l-2.9 2.6 4.6 5-2 1.8v-.1l-2.9 2.6 4.6 5-2 1.8v-.1l-2.9 2.6 4.6 5-2 1.8v-.1l-2.9 2.6 4.6 5-2 1.8v-.1l-2.9 2.6 4.6 5-2 1.8v-.1l-2.9 2.6 4.6 5-.7.7c-.6 0-1.3-.1-1.9-.1-.7 0-1.3-.1-1.9-.1l.8-.7-4.9-4.8 4.9-4.5-4.5-4.9 4.9-4.5-4.5-4.9 4.9-4.5-4.5-4.9 4.9-4.5-4.5-4.9 4.9-4.5-4.5-4.9 4.9-4.5-4.5-4.9 4.9-4.5-1.4-1.6c1-.2 1.9-.5 2.9-.8l1.9 3.2zm6.7-4.5 4.6 5-2 1.8v-.1l-2.9 2.6 4.6 5-2 1.8v-.1l-2.9 2.6 4.6 5-2 1.8v-.1l-2.9 2.6 4.6 5-2 1.8v-.1l-2.9 2.6 4.6 5-2 1.8v-.1l-2.9 2.6 4.6 5-2 1.8v-.1l-2.9 2.6 4.6 5-2 1.8v-.1l-2.9 2.6 4.6 5-.2.2c-1.4 0-2.8.1-4.2.1v-.4l-4.5-4.9 4.9-4.5-4.5-4.9 4.9-4.5-4.5-4.9 4.9-4.5-4.5-4.9 4.9-4.5-4.5-4.9 4.9-4.5-4.5-4.9 4.9-4.5-4.5-4.9 4.9-4.5-4.1-4.4c1.4-.4 2.8-.8 4.2-1.1l-1 1.3zm11.2.5 4.6 5-2 1.8v-.1l-2.9 2.6 4.6 5-2 1.8v-.1l-2.9 2.6 4.6 5-2 1.8v-.1l-2.9 2.6 4.6 5-2 1.8v-.1l-2.9 2.6 4.6 5-2 1.8v-.1l-2.9 2.6 4.6 5-2 1.8v-.1l-2.9 2.6 4.6 5-2 1.8v-.1l-2.9 2.6 3.6 3.9c-1.2.1-2.2.2-3.5.3l-4-4.4 4.9-4.5-4.5-4.9 4.9-4.5-4.5-4.9 4.9-4.5-4.5-4.9 4.9-4.5-4.5-4.9 4.9-4.5-4.5-4.9 4.9-4.5-4.5-4.9 4.9-4.5-4.8-4.8 3.2-2.9c1.6-.2 3.2-.4 4.7-.6l-1.1 1v-.1l-3.3 3.4zm16.2-4-2 1.8v-.1l-2.9 2.6 4.6 5-2 1.8v-.1l-2.9 2.6 4.6 5-2 1.8v-.1l-2.9 2.6 4.6 5-2 1.8v-.1l-2.9 2.6 4.6 5-2 1.8v-.1l-2.9 2.6 4.6 5-2 1.8v-.1l-2.9 2.6 4.6 5-2 1.8v-.1l-2.9 2.6 4.6 5-2 1.8v-.1l-2.9 2.7 2 2.2c-1.1.2-2.2.3-3.8.5l-2.6-2.9 4.9-4.5-4.5-4.9 4.9-4.5-4.5-4.9 4.9-4.5-4.5-4.9 4.9-4.5-4.5-4.9 4.9-4.5-4.5-4.9 4.9-4.5-4.5-4.9 4.9-4.5-4.5-4.9 4.9-4.5-.1-.1 1.6-.1h1.9l.3 1.2zm11.2.6-2 1.8v-.1l-2.9 2.6 4.6 5-2 1.8v-.1l-2.9 2.6 4.6 5-2 1.8v-.1l-2.9 2.6 4.6 5-2 1.8v-.1l-2.9 2.6 4.6 5-2 1.8v-.1l-2.9 2.6 4.6 5-2 1.8v-.1l-2.9 2.6 4.6 5-2 1.8v-.1l-2.9 2.6 4.6 5-2 1.8v-.1l-2.9 2.7c-1 .2-2.1.4-3.7.8l-.8-.8 4.9-4.5-4.5-4.9 4.9-4.5-4.5-4.9 4.9-4.5-4.5-4.9 4.9-4.5-4.5-4.9 4.9-4.5-4.5-4.9 4.9-4.5-4.5-4.9 4.9-4.5-4.5-4.9 4.9-4.5-.6-.7c.4 0 .9.1 1.3.1.8 0 1.7.1 2.5.1l.6 1.3zm11.2.5-1.9 1.8v-.1l-2.9 2.6 4.6 5-2 1.8v-.1l-2.9 2.6 4.6 5-2 1.8v-.1l-2.9 2.6 4.6 5-2 1.8v-.1l-2.9 2.6 4.6 5-2 1.8v-.1l-2.9 2.6 4.6 5-2 1.8v-.1l-2.9 2.6 4.6 5-2 1.8v-.1l-2.9 2.6 4.4 4.7c-1.8.6-3.7 1.1-6 1.8l1.8-1.6-4.5-4.9 4.9-4.5-4.5-4.9 4.9-4.5-4.5-4.9 4.9-4.5-4.5-4.9 4.9-4.5-4.5-4.9 4.9-4.5-4.5-4.9 4.9-4.5-4.5-4.9 4.9-4.5-.3-.3c1.2.8 2.6 1 3.9 1.1zm6.4 4.8 4.6 5-2 1.8v-.1l-2.9 2.6 4.6 5-2 1.8v-.1l-2.9 2.6 4.6 5-2 1.8v-.1l-2.9 2.6 4.6 5-2 1.8v-.1l-2.9 2.6 4.6 5-2 1.8v-.1l-2.9 2.6 4.6 5-2 1.8v-.1l-2.9 2.6 1.3 1.4c-1 .4-1.9.7-2.8 1l-2.8-2.6 4.9-4.5-4.5-4.9 4.9-4.5-4.5-4.9 4.9-4.5-4.5-4.9 4.9-4.5-4.5-4.9 4.9-4.5-4.5-4.9 4.9-4.5-4.5-4.9 3.9-3.5c1.1.2 2.2.5 3.3.8l-.4.4v-.1l-3.1 3.2zm11.3.5 4.6 5-2 1.8v-.1l-2.9 2.6 4.6 5-2 1.8v-.1l-2.9 2.6 4.6 5-2 1.8v-.1l-2.9 2.6 4.6 5-2 1.8v-.1l-2.9 2.6 4.6 5-2 1.8v-.1l-2.9 2.6 4 4.3c-1.9.9-3.7 1.7-6 2.6l2.3-2.1-4.5-4.9 4.9-4.5-4.5-4.9 4.9-4.5-4.5-4.9 4.9-4.5-4.5-4.9 4.9-4.5-4.5-4.9 4.9-4.5-4.5-4.9 2-1.8c1 .2 2 .6 3 .9l-1.3 1.5zm15.8 5.4-2 1.8v-.1l-2.9 2.6 4.6 5-2 1.8v-.1l-2.9 2.6 4.6 5-2 1.8v-.1l-2.9 2.6 4.6 5-2 1.8v-.1l-2.9 2.6 4.6 5-2 1.8v-.1l-2.9 2.7c-.8.5-1.6.9-2.8 1.4l-1.4-1.6 4.9-4.5-4.5-4.9 4.9-4.5-4.5-4.9 4.9-4.5-4.5-4.9 4.9-4.5-4.5-4.9 4.9-4.5-3.5-3.8c2 .7 3.9 1.5 5.8 2.3l1.5 2.2zm10.6 19.3-2 1.8v-.1l-2.9 2.6 3.9 4.2c-.1.6-.2 1.1-.4 1.7l-.9.8v-.1l-2.9 2.6 1.1 1.2c-.5.5-1.1.9-1.7 1.3-.2.1-.4.2-.6.4l-2.7-3 4.9-4.5-4.5-4.9 4.9-4.5-4.5-4.9 4.9-4.5-4.5-4.9 3.1-2.8c.7.6 1.3 1.2 1.8 2l-1.1 1 2.8 3c.2 1 .5 1.9.6 2.9l-.9.8v-.1l-2.9 2.6 4.5 5.4z"/><path class="st2" d="M1425.7 335.3c-.6 14.2-4.6 27.2-11 38.4 5.8.5 11.7 1.3 17.4 2.4l27.3 5.3c2.2.5 4.5.8 6.8.9 22.1 1 40.8-16.3 41.8-38.5 1-22.1-16.2-40.8-38.4-41.8h-1.6v-.1l-47.4-.2h-.3c4 10.4 5.9 21.7 5.4 33.6zm57.3 26.6 2-1.8v.1l2.9-2.6-4.6-5 2-1.8v.1l2.9-2.6-4.6-5 2-1.8v.1l2.9-2.6-4.6-5 2-1.8v.1l2.9-2.6-4.6-5 2-1.8v.1l1.9-1.8c.7.6 1.3 1.3 1.8 2l-2 1.8 4.5 4.9-4.9 4.5 4.5 4.9-4.9 4.5 4.5 4.9-4.9 4.5 4.5 4.9-4.9 4.5 1.5 1.6c-.7.6-1.4 1.2-1.7 1.7l-3.1-4zm-11.7 8.8 2-1.8v.1l2.9-2.6-4.6-5 2-1.8v.1l2.9-2.6-4.6-5 2-1.8v.1l2.9-2.6-4.6-5 2-1.8v.1l2.9-2.6-4.6-5 2-1.8v.1l2.9-2.6-4.6-5 2-1.8v.1l2.9-2.6-4.6-5 1.1-1c1.1.3 2.1.5 3.1.9l-.4.3 4.5 4.9-4.9 4.5 4.5 4.9-4.9 4.5 4.5 4.9-4.9 4.5 4.5 4.9-4.9 4.5 4.5 4.9-4.9 4.5 4.5 4.9-4.6 4.2c-1.1.3-2.3.5-3.1.5l-.4-1zm-11.3-.5 2-1.8v.1l2.9-2.6-4.6-5 2-1.8v.1l2.9-2.6-4.6-5 2-1.8v.1l2.9-2.6-4.6-5 2-1.8v.1l2.9-2.6-4.6-5 2-1.8v.1l2.9-2.6-4.6-5 2-1.8v.1l2.9-2.6-4.6-5 1.4-1.3h4.1l-1.1 1.4 4.5 4.9-4.9 4.5 4.5 4.9-4.9 4.5 4.5 4.9-4.9 4.5 4.5 4.9-4.9 4.5 4.5 4.9-4.9 4.5 4.5 4.9-4.9 4.5.8.9c-1-.1-1.9-.3-2.8-.5l-1.6-.3-.2-.8zm-6.3-4.9-4.6-5 2-1.8v.1l2.9-2.6-4.6-5 2-1.8v.1l2.9-2.6-4.6-5 2-1.8v.1l2.9-2.6-4.6-5 2-1.8v.1l2.9-2.6-4.6-5 2-1.8v.1l2.9-2.6-4.6-5 1-.9h4.1l-.7 1 4.5 4.9-4.9 4.5 4.5 4.9-4.9 4.5 4.5 4.9-4.9 4.5 4.5 4.9-4.9 4.5 4.5 4.9-4.9 4.5 4.5 4.9-3.9 3.6-1.2-.3-.1.2-2.3-.4.7-.7v.1l3-3zm-11.3-.5-4.6-5 2-1.8v.1l2.9-2.6-4.6-5 2-1.8v.1l2.9-2.6-4.6-5 2-1.8v.1l2.9-2.6-4.6-5 2-1.8v.1l2.9-2.6-4.6-5 2-1.8v.1l2.9-2.6-4.6-5 .5-.4h4.1l-.3.6 4.5 4.9-4.9 4.5 4.5 4.9-4.9 4.5 4.5 4.9-4.9 4.5 4.5 4.9-4.9 4.5 4.5 4.9-4.9 4.5 4.5 4.9-2.6 2.4-3.3-.6 2.2-2.4zm-206.3-6.4c1.7 6.2 6.1 11.3 11.9 14.1 17.1 8.2 36.1 13.2 56.3 14.1 3.8.1 7.6.2 11.4 0 12.7-.4 25.1-2.6 36.8-6.1 8.1-2.5 16.5-4.3 24.9-5.4l2.6-.4c8.3-1.1 16.7-1.6 25.1-1.4l2.2-3.8c6-10.3 9.4-22.2 9.9-34.5.4-10.5-1.2-20.6-4.7-30.2l-1.6-4.1c-5.4-.9-10.8-2.1-16-3.7-14.5-4.4-25.9-9.9-41.8-10.6-18.1-.8-35.6 1.1-52.4 5.2-19.7 4.9-38.2 13-54.9 23.6-4.8 3.1-8.4 7.8-9.9 13.2-1.1 3.9-1.8 8-1.9 12.2-.2 6.3.5 12.3 2.1 17.8zm153.8-22.7c.1-3.3 2.9-5.8 6.1-5.7 3.3.1 5.8 2.9 5.7 6.1-.2 3.2-2.9 5.7-6.1 5.7-3.3-.1-5.8-2.8-5.7-6.1zm-26.5 25.8-4.6-5 2-1.8v.1l2.9-2.6-4.6-5 2-1.8v.1l2.9-2.6-4.6-5 2-1.8v.1l2.9-2.6-4.6-5 2-1.8v.1l2.9-2.6-4.6-5 2-1.8v.1l2.9-2.6-4.6-5 2-1.8v.1l2.6-2.4c.4.9.8 1.7 1.1 2.6l-1.6 1.7 4.2 4.6c.1.2.1.3.1.5l-4.7 4.4 4.5 4.9-4.9 4.5 4.5 4.9-4.9 4.5 4.5 4.9-4.9 4.5 4.5 4.9-4.9 4.5 4.4 4.7c-.1.2-.2.3-.2.4l-2.6 2.4c-1.8.4-3.6.7-5.4 1.2l1.6-1.4v.1l3.2-3.2zm-16.1 3.9 2-1.8v.1l2.9-2.6-4.6-5 2-1.8v.1l2.9-2.6-4.6-5 2-1.8v.1l2.9-2.6-4.6-5 2-1.8v.1l2.9-2.6-4.6-5 2-1.8v.1l2.9-2.6-4.6-5 2-1.8v.1l2.9-2.6-4.6-5 2-1.8v.1l2.9-2.6-4.6-5 .7-.7c.6 0 1.3.1 1.9.1.7 0 1.3.1 1.9.1l-.8.7 4.9 4.8-4.9 4.5 4.5 4.9-4.9 4.5 4.5 4.9-4.9 4.5 4.5 4.9-4.9 4.5 4.5 4.9-4.9 4.5 4.5 4.9-4.9 4.5 4.5 4.9-4.9 4.5 1.4 1.6c-1 .2-1.9.5-2.9.8l-1.9-3.2zm-6.7 4.5-4.6-5 2-1.8v.1l2.9-2.6-4.6-5 2-1.8v.1l2.9-2.6-4.6-5 2-1.8v.1l2.9-2.6-4.6-5 2-1.8v.1l2.9-2.6-4.6-5 2-1.8v.1l2.9-2.6-4.6-5 2-1.8v.1l2.9-2.6-4.6-5 2-1.8v.1l2.9-2.6-4.6-5 .2-.2c1.4 0 2.8-.1 4.2-.1v.4l4.5 4.9-4.9 4.5 4.5 4.9-4.9 4.5 4.5 4.9-4.9 4.5 4.5 4.9-4.9 4.5 4.5 4.9-4.9 4.5 4.5 4.9-4.9 4.5 4.5 4.9-4.9 4.5 4.1 4.4c-1.4.4-2.8.8-4.2 1.1l1-1.3zm-11.2-.5-4.6-5 2-1.8v.1l2.9-2.6-4.6-5 2-1.8v.1l2.9-2.6-4.6-5 2-1.8v.1l2.9-2.6-4.6-5 2-1.8v.1l2.9-2.6-4.6-5 2-1.8v.1l2.9-2.6-4.6-5 2-1.8v.1l2.9-2.6-4.6-5 2-1.8v.1l2.9-2.6-3.6-3.9c1.2-.1 2.2-.2 3.5-.3l4 4.4-4.9 4.5 4.5 4.9-4.9 4.5 4.5 4.9-4.9 4.5 4.5 4.9-4.9 4.5 4.5 4.9-4.9 4.5 4.5 4.9-4.9 4.5 4.5 4.9-4.9 4.5 4.8 4.8-3.2 2.9c-1.6.2-3.2.4-4.7.6l1.1-1v.1l3.3-3.4zm-16.2 4 2-1.8v.1l2.9-2.6-4.6-5 2-1.8v.1l2.9-2.6-4.6-5 2-1.8v.1l2.9-2.6-4.6-5 2-1.8v.1l2.9-2.6-4.6-5 2-1.8v.1l2.9-2.6-4.6-5 2-1.8v.1l2.9-2.6-4.6-5 2-1.8v.1l2.9-2.6-4.6-5 2-1.8v.1l2.9-2.7-2-2.2c1.1-.2 2.2-.3 3.8-.5l2.6 2.9-4.9 4.5 4.5 4.9-4.9 4.5 4.5 4.9-4.9 4.5 4.5 4.9-4.9 4.5 4.5 4.9-4.9 4.5 4.5 4.9-4.9 4.5 4.5 4.9-4.9 4.5 4.5 4.9-4.9 4.5.1.1-1.6.1h-1.9l-.3-1.2zm-11.2-.6 2-1.8v.1l2.9-2.6-4.6-5 2-1.8v.1l2.9-2.6-4.6-5 2-1.8v.1l2.9-2.6-4.6-5 2-1.8v.1l2.9-2.6-4.6-5 2-1.8v.1l2.9-2.6-4.6-5 2-1.8v.1l2.9-2.6-4.6-5 2-1.8v.1l2.9-2.6-4.6-5 2-1.8v.1l2.9-2.7c1-.2 2.1-.4 3.7-.8l.8.8-4.9 4.5 4.5 4.9-4.9 4.5 4.5 4.9-4.9 4.5 4.5 4.9-4.9 4.5 4.5 4.9-4.9 4.5 4.5 4.9-4.9 4.5 4.5 4.9-4.9 4.5 4.5 4.9-4.9 4.5.6.7c-.4 0-.9-.1-1.3-.1-.8 0-1.7-.1-2.5-.1l-.6-1.3zm-11.2-.5 1.9-1.8v.1l2.9-2.6-4.6-5 2-1.8v.1l2.9-2.6-4.6-5 2-1.8v.1l2.9-2.6-4.6-5 2-1.8v.1l2.9-2.6-4.6-5 2-1.8v.1l2.9-2.6-4.6-5 2-1.8v.1l2.9-2.6-4.6-5 2-1.8v.1l2.9-2.6-4.4-4.7c1.8-.6 3.7-1.1 6-1.8l-1.8 1.6 4.5 4.9-4.9 4.5 4.5 4.9-4.9 4.5 4.5 4.9-4.9 4.5 4.5 4.9-4.9 4.5 4.5 4.9-4.9 4.5 4.5 4.9-4.9 4.5 4.5 4.9-4.9 4.5.3.3c-1.2-.8-2.6-1-3.9-1.1zm-6.4-4.8-4.6-5 2-1.8v.1l2.9-2.6-4.6-5 2-1.8v.1l2.9-2.6-4.6-5 2-1.8v.1l2.9-2.6-4.6-5 2-1.8v.1l2.9-2.6-4.6-5 2-1.8v.1l2.9-2.6-4.6-5 2-1.8v.1l2.9-2.6-1.3-1.4c1-.4 1.9-.7 2.8-1l2.8 2.6-4.9 4.5 4.5 4.9-4.9 4.5 4.5 4.9-4.9 4.5 4.5 4.9-4.9 4.5 4.5 4.9-4.9 4.5 4.5 4.9-4.9 4.5 4.5 4.9-3.9 3.5c-1.1-.2-2.2-.5-3.3-.8l.4-.4v.1l3.1-3.2zm-11.3-.5-4.6-5 2-1.8v.1l2.9-2.6-4.6-5 2-1.8v.1l2.9-2.6-4.6-5 2-1.8v.1l2.9-2.6-4.6-5 2-1.8v.1l2.9-2.6-4.6-5 2-1.8v.1l2.9-2.6-4-4.3c1.9-.9 3.7-1.7 6-2.6l-2.3 2.1 4.5 4.9-4.9 4.5 4.5 4.9-4.9 4.5 4.5 4.9-4.9 4.5 4.5 4.9-4.9 4.5 4.5 4.9-4.9 4.5 4.5 4.9-2 1.8c-1-.2-2-.6-3-.9l1.3-1.5zm-15.8-5.4 2-1.8v.1l2.9-2.6-4.6-5 2-1.8v.1l2.9-2.6-4.6-5 2-1.8v.1l2.9-2.6-4.6-5 2-1.8v.1l2.9-2.6-4.6-5 2-1.8v.1l2.9-2.7c.8-.5 1.6-.9 2.8-1.4l1.4 1.6-4.9 4.5 4.5 4.9-4.9 4.5 4.5 4.9-4.9 4.5 4.5 4.9-4.9 4.5 4.5 4.9-4.9 4.5 3.5 3.8c-2-.7-3.9-1.5-5.8-2.3l-1.5-2.2zm-10.6-19.3 2-1.8v.1l2.9-2.6-3.9-4.2c.1-.6.2-1.1.4-1.7l.9-.8v.1l2.9-2.6-1.1-1.2c.5-.5 1.1-.9 1.7-1.3.2-.1.4-.2.6-.4l2.7 3-4.9 4.5 4.5 4.9-4.9 4.5 4.5 4.9-4.9 4.5 4.5 4.9-3.1 2.8c-.7-.6-1.3-1.2-1.8-2l1.1-1-2.8-3c-.2-1-.5-1.9-.6-2.9l.9-.8v.1l2.9-2.6-4.5-5.4z"/><path class="st2" d="M1146.3 371.2h.3l47.4-.2v-.1h1.6c22.1-1 39.4-19.6 38.4-41.8-1-22.1-19.6-39.4-41.8-38.5-2.4.1-4.6.4-6.8.9l-27.3 5.3c-5.8 1.1-11.6 1.9-17.4 2.4 6.5 11.2 10.5 24.2 11 38.4.5 12-1.4 23.3-5.4 33.6zm65.9-63.7c.3.5 1 1.1 1.7 1.7l-1.5 1.6 4.9 4.5-4.5 4.9 4.9 4.5-4.5 4.9 4.9 4.5-4.5 4.9 4.9 4.5-4.5 4.9 2 1.8c-.6.7-1.2 1.3-1.8 2l-1.9-1.8v.1l-2-1.8 4.6-5-2.9-2.6v.1l-2-1.8 4.6-5-2.9-2.6v.1l-2-1.8 4.6-5-2.9-2.6v.1l-2-1.8 4.6-5-2.9-2.6v.1l-2-1.8 3.1-4zm-14.3-5.7c.8 0 2 .2 3.1.5l4.6 4.2-4.5 4.9 4.9 4.5-4.5 4.9 4.9 4.5-4.5 4.9 4.9 4.5-4.5 4.9 4.9 4.5-4.5 4.9 4.9 4.5-4.5 4.9.4.3c-1 .4-2 .6-3.1.9l-1.1-1 4.6-5-2.9-2.6v.1l-2-1.8 4.6-5-2.9-2.6v.1l-2-1.8 4.6-5-2.9-2.6v.1l-2-1.8 4.6-5-2.9-2.6v.1l-2-1.8 4.6-5-2.9-2.6v.1l-2-1.8 4.6-5-2.9-2.6v.1l-2-1.8.4-1zm-11.6.7 1.6-.3c.9-.2 1.9-.4 2.8-.5l-.8.9 4.9 4.5-4.5 4.9 4.9 4.5-4.5 4.9 4.9 4.5-4.5 4.9 4.9 4.5-4.5 4.9 4.9 4.5-4.5 4.9 4.9 4.5-4.5 4.9 1.1 1.4h-4.1l-1.4-1.3 4.6-5-2.9-2.6v.1l-2-1.8 4.6-5-2.9-2.6v.1l-2-1.8 4.6-5-2.9-2.6v.1l-2-1.8 4.6-5-2.9-2.6v.1l-2-1.8 4.6-5-2.9-2.6v.1l-2-1.8 4.6-5-2.9-2.6v.1l-2-1.8.2-.8zm-9.5 2.6-.7-.6 2.3-.4.1.2 1.2-.3 3.9 3.6-4.5 4.9 4.9 4.5-4.5 4.9 4.9 4.5-4.5 4.9 4.9 4.5-4.5 4.9 4.9 4.5-4.5 4.9 4.9 4.5-4.5 4.9.7 1h-4.1l-1-.9 4.6-5-2.9-2.6v.1l-2-1.8 4.6-5-2.9-2.6v.1l-2-1.8 4.6-5-2.9-2.6v.1l-2-1.8 4.6-5-2.9-2.6v.1l-2-1.8 4.6-5-2.9-2.6v.1l-2-1.8 4.6-5-3-3zm-10.4 1.1 3.3-.6 2.6 2.4-4.5 4.9 4.9 4.5-4.5 4.9 4.9 4.5-4.5 4.9 4.9 4.5-4.5 4.9 4.9 4.5-4.5 4.9 4.9 4.5-4.5 4.9.3.6h-4.1l-.5-.4 4.6-5-2.9-2.6v.1l-2-1.8 4.6-5-2.9-2.6v.1l-2-1.8 4.6-5-2.9-2.6v.1l-2-1.8 4.6-5-2.9-2.6v.1l-2-1.8 4.6-5-2.9-2.6v.1l-2-1.8 4.6-5-2.2-2.4zm-206.3 26c.2 4.2.9 8.3 1.9 12.2 1.5 5.5 5.1 10.2 9.9 13.2 16.7 10.7 35.2 18.7 54.9 23.6 16.7 4.1 34.3 6.1 52.4 5.2 15.8-.7 27.2-6.2 41.8-10.6 5.2-1.6 10.6-2.8 16-3.7l1.6-4.1c3.5-9.5 5.1-19.7 4.7-30.2-.5-12.3-3.9-24.2-9.9-34.5l-2.2-3.8c-8.4.2-16.8-.3-25.1-1.4l-2.6-.4c-8.4-1.1-16.8-3-24.9-5.4-11.7-3.6-24.1-5.7-36.8-6.1-3.8-.2-7.6-.1-11.4 0-20.2.9-39.2 5.9-56.3 14.1-5.8 2.8-10.2 7.9-11.9 14.1-1.7 5.7-2.4 11.7-2.1 17.8zm161.5-1.1c3.3-.1 6 2.5 6.1 5.7.1 3.3-2.4 6-5.7 6.1-3.3.1-6-2.4-6.1-5.7s2.4-5.9 5.7-6.1zm-35.1-22.2-1.6-1.4 5.4 1.2 2.6 2.4c0 .1.1.3.2.4l-4.4 4.7 4.9 4.5-4.5 4.9 4.9 4.5-4.5 4.9 4.9 4.5-4.5 4.9 4.9 4.5-4.5 4.9 4.7 4.4c0 .1 0 .3-.1.5l-4.2 4.6 1.6 1.7c-.4.9-.7 1.7-1.1 2.6l-2.6-2.4v.1l-2-1.8 4.6-5-2.9-2.6v.1l-2-1.8 4.6-5-2.9-2.6v.1l-2-1.8 4.6-5-2.9-2.6v.1l-2-1.8 4.6-5-2.9-2.6v.1l-2-1.8 4.6-5-2.9-2.6v.1l-2-1.8 4.6-5-3.2-3.1zm-10.8-3.9c1 .3 1.9.6 2.9.8l-1.4 1.6 4.9 4.5-4.5 4.9 4.9 4.5-4.5 4.9 4.9 4.5-4.5 4.9 4.9 4.5-4.5 4.9 4.9 4.5-4.5 4.9 4.9 4.5-4.5 4.9 4.9 4.5-4.9 4.8.8.7c-.6 0-1.3.1-1.9.1-.6 0-1.3.1-1.9.1l-.7-.7 4.6-5-2.9-2.6v.1l-2-1.8 4.6-5-2.9-2.6v.1l-2-1.8 4.6-5-2.9-2.6v.1l-2-1.8 4.6-5-2.9-2.6v.1l-2-1.8 4.6-5-2.9-2.6v.1l-2-1.8 4.6-5-2.9-2.6v.1l-2-1.8 4.6-5-2.9-2.6v.1l-2-1.8 1.9-3.2zm-9.9-2.6c1.4.3 2.8.7 4.2 1.1l-4.1 4.4 4.9 4.5-4.5 4.9 4.9 4.5-4.5 4.9 4.9 4.5-4.5 4.9 4.9 4.5-4.5 4.9 4.9 4.5-4.5 4.9 4.9 4.5-4.5 4.9 4.9 4.5-4.5 4.9v.4c-1.4 0-2.8-.1-4.2-.1l-.2-.2 4.6-5-2.9-2.6v.1l-2-1.8 4.6-5-2.9-2.6v.1l-2-1.8 4.6-5-2.9-2.6v.1l-2-1.8 4.6-5-2.9-2.6v.1l-2-1.8 4.6-5-2.9-2.6v.1l-2-1.8 4.6-5-2.9-2.6v.1l-2-1.8 4.6-5-2.9-2.6v.1l-2-1.8 4.6-5-1-1.3zm-13.4-1.4-1.1-1c1.6.2 3.2.4 4.7.6l3.2 2.9-4.8 4.8 4.9 4.5-4.5 4.9 4.9 4.5-4.5 4.9 4.9 4.5-4.5 4.9 4.9 4.5-4.5 4.9 4.9 4.5-4.5 4.9 4.9 4.5-4.5 4.9 4.9 4.5-4 4.4c-1.3 0-2.4-.1-3.5-.3l3.6-3.9-2.9-2.6v.1l-2-1.8 4.6-5-2.9-2.6v.1l-2-1.8 4.6-5-2.9-2.6v.1l-2-1.8 4.6-5-2.9-2.6v.1l-2-1.8 4.6-5-2.9-2.6v.1l-2-1.8 4.6-5-2.9-2.6v.1l-2-1.8 4.6-5-2.9-2.6v.1l-2-1.8 4.6-5-3.3-3.3zm-12.8-1.9h1.9l1.6.1-.1.1 4.9 4.5-4.5 4.9 4.9 4.5-4.5 4.9 4.9 4.5-4.5 4.9 4.9 4.5-4.5 4.9 4.9 4.5-4.5 4.9 4.9 4.5-4.5 4.9 4.9 4.5-4.5 4.9 4.9 4.5-2.6 2.9c-1.6-.2-2.7-.3-3.8-.5l2-2.2-2.9-2.7v.1l-2-1.8 4.6-5-2.9-2.6v.1l-2-1.8 4.6-5-2.9-2.6v.1l-2-1.8 4.6-5-2.9-2.6v.1l-2-1.8 4.6-5-2.9-2.6v.1l-2-1.8 4.6-5-2.9-2.6v.1l-2-1.8 4.6-5-2.9-2.6v.1l-2-1.8 4.6-5-2.9-2.6v.1l-2-1.8.3-1.2zm-10.9.3c.8-.1 1.7-.1 2.5-.1.4 0 .9-.1 1.3-.1l-.6.7 4.9 4.5-4.5 4.9 4.9 4.5-4.5 4.9 4.9 4.5-4.5 4.9 4.9 4.5-4.5 4.9 4.9 4.5-4.5 4.9 4.9 4.5-4.5 4.9 4.9 4.5-4.5 4.9 4.9 4.5-.8.8c-1.6-.3-2.7-.6-3.7-.8l-2.9-2.7v.1l-2-1.8 4.6-5-2.9-2.6v.1l-2-1.8 4.6-5-2.9-2.6v.1l-2-1.8 4.6-5-2.9-2.6v.1l-2-1.8 4.6-5-2.9-2.6v.1l-2-1.8 4.6-5-2.9-2.6v.1l-2-1.8 4.6-5-2.9-2.6v.1l-2-1.8 4.6-5-2.9-2.6v.1l-2-1.8.6-1.3zm-7.8.8-.3.3 4.9 4.5-4.5 4.9 4.9 4.5-4.5 4.9 4.9 4.5-4.5 4.9 4.9 4.5-4.5 4.9 4.9 4.5-4.5 4.9 4.9 4.5-4.5 4.9 4.9 4.5-4.5 4.9 1.8 1.6c-2.3-.7-4.1-1.2-6-1.8l4.4-4.7-2.9-2.6v.1l-2-1.8 4.6-5-2.9-2.6v.1l-2-1.8 4.6-5-2.9-2.6v.1l-2-1.8 4.6-5-2.9-2.6v.1l-2-1.8 4.6-5-2.9-2.6v.1l-2-1.8 4.6-5-2.9-2.6v.1l-2-1.8 4.6-5-2.9-2.6v.1l-1.9-1.8c1.1-.7 2.5-.9 3.9-1.1zm-13.5 2.7-.4-.3c1.1-.2 2.2-.5 3.3-.8l3.9 3.5-4.5 4.9 4.9 4.5-4.5 4.9 4.9 4.5-4.5 4.9 4.9 4.5-4.5 4.9 4.9 4.5-4.5 4.9 4.9 4.5-4.5 4.9 4.9 4.5-2.8 2.6c-.9-.4-1.8-.7-2.8-1l1.3-1.4-2.9-2.6v.1l-2-1.8 4.6-5-2.9-2.6v.1l-2-1.8 4.6-5-2.9-2.6v.1l-2-1.8 4.6-5-2.9-2.6v.1l-2-1.8 4.6-5-2.9-2.6v.1l-2-1.8 4.6-5-2.9-2.6v.1l-2-1.8 4.6-5-3.1-3.2zm-9.4 2 3-.9 2 1.8-4.5 4.9 4.9 4.5-4.5 4.9 4.9 4.5-4.5 4.9 4.9 4.5-4.5 4.9 4.9 4.5-4.5 4.9 4.9 4.5-4.5 4.9 2.3 2.1c-2.3-.9-4.1-1.7-6-2.6l4-4.3-2.9-2.6v.1l-2-1.8 4.6-5-2.9-2.6v.1l-2-1.8 4.6-5-2.9-2.6v.1l-2-1.8 4.6-5-2.9-2.6v.1l-2-1.8 4.6-5-2.9-2.6v.1l-2-1.8 4.6-5-1.3-1.5zm-13.1 4.9c1.9-.8 3.9-1.6 5.8-2.3l-3.5 3.8 4.9 4.5-4.5 4.9 4.9 4.5-4.5 4.9 4.9 4.5-4.5 4.9 4.9 4.5-4.5 4.9 4.9 4.5-1.4 1.6c-1.1-.5-2-1-2.8-1.4l-2.9-2.7v.1l-2-1.8 4.6-5-2.9-2.6v.1l-2-1.8 4.6-5-2.9-2.6v.1l-2-1.8 4.6-5-2.9-2.6v.1l-2-1.8 4.6-5-2.9-2.6v.1l-2-1.8 1.5-2.2zm-12.2 20.8 4.5-4.9-2.9-2.6v.1l-.9-.8c.2-1 .4-1.9.6-2.9l2.8-3-1.1-1c.5-.7 1.1-1.4 1.8-2l3.1 2.8-4.5 4.9 4.9 4.5-4.5 4.9 4.9 4.5-4.5 4.9 4.9 4.5-2.7 3c-.2-.2-.4-.3-.6-.4-.6-.4-1.2-.8-1.7-1.3l1.1-1.2-2.9-2.6v.1l-.9-.8c-.2-.6-.3-1.2-.4-1.7l3.9-4.2-2.9-2.6v.1l-2-2.3z"/></svg>