<svg xmlns="http://www.w3.org/2000/svg" viewBox="0 0 1920 673" xml:space="preserve"><style>.st1{fill:#ffcc80}.st4{fill:#df7148}</style><path fill="#2e86b7" d="M0 0h1920v673H0z"/><path class="st1" d="m701.2 351-6.7-11c-6.3-10.2-10.3-21.7-11.5-33.6l-9.1-81.8c-3-26.5-17.7-50.3-40.1-64.8L603 133.5l-21.1-1.2-21.1 1.2-30.8 26.3c-22.4 14.5-37.1 38.3-40.1 64.8l-9.1 81.8c-1.3 11.9-5.3 23.4-11.5 33.6l-6.7 11c-5.2 8.4.9 19.2 10.7 19.2h217.4c9.7 0 15.7-10.8 10.5-19.2zM623.8 71.1l-15.6-.9c-3.2-.2-6.1 1.7-7.3 4.6l-1.8 4.5c-.5 1.3-1.9 2.1-3.3 1.8l-7.3-1.5c-4.5-.9-9.1-.9-13.5 0l-7.3 1.6c-1.3.3-2.8-.5-3.3-1.8l-1.8-4.5c-1.2-2.9-4.1-4.8-7.3-4.6l-15.6.8c-9.3.5-14.1 11.4-8.2 18.6l29.1 35.6.6.9h41l.6-.9L632 89.7c5.9-7.2 1.2-18.1-8.2-18.6z"/><path d="M560.7 125.3h42.2v8.2h-42.2v-8.2z" fill="#cc584c"/><path d="M632.2 80.6c-4.1 4.1-10.1 6.7-16.9 6.7-6.2 0-11.7-2.1-15.8-5.6-.6-.5-.8-1.3-.4-2.1 0-.1.1-.1.1-.2l1.8-4.5c1.2-2.9 4.1-4.8 7.3-4.6l15.6.8c3.9.2 6.9 2.2 8.8 4.9.9 1.5.7 3.3-.5 4.6zm-67.6-1.1-1.8-4.5c-1.2-2.9-4.1-4.8-7.3-4.6l-15.6.8c-3.9.2-6.9 2.2-8.8 4.9-.9 1.4-.8 3.3.5 4.5 4.1 4.1 10.1 6.7 16.9 6.7 6.2 0 11.7-2.1 15.8-5.6.6-.5.8-1.3.4-2.1-.1 0-.1-.1-.1-.1z" opacity=".3" fill="#fff"/><path class="st4" d="M595.3 294c0-4.3-1.1-7.6-3.2-10.1-2.1-2.4-5.8-4.7-11.1-6.9s-10.2-4.3-14.7-6.6c-4.5-2.2-8.3-4.8-11.6-7.7-3.2-2.9-5.7-6.3-7.5-10.1-1.7-3.8-2.6-8.5-2.6-13.9 0-9.1 3.1-16.7 9.2-22.6 6.2-5.9 14.4-9.4 24.6-10.3v-17.1h12.9v17.4c9.9 1.5 17.7 5.5 23.3 12.2 5.6 6.7 8.5 15.1 8.5 25.4h-27.4c0-5.6-1.1-9.9-3.2-13-2.2-3-5.2-4.5-9.2-4.5-3.6 0-6.3 1.1-8.3 3.4-2 2.2-3 5.3-3 9.3 0 4 1.1 7.2 3.4 9.5 2.3 2.4 5.9 4.6 10.9 6.7 5 2.1 9.8 4.4 14.2 6.6 4.5 2.3 8.3 4.9 11.6 7.8 3.2 2.9 5.8 6.3 7.6 10.2 1.8 3.9 2.8 8.6 2.8 14 0 9.2-2.9 16.8-8.8 22.6-5.9 5.8-13.8 9.2-24 10.2v16.3H577v-16.4c-11.8-1.2-20.8-5.3-27.1-12.1-6.3-6.8-9.4-15.8-9.4-27h27.3c0 6.2 1.4 10.8 4.1 14.1 2.7 3.2 6.6 4.8 11.6 4.8 3.7 0 6.6-1.1 8.7-3.3 2-2.1 3.1-5.1 3.1-8.9z"/><path class="st1" d="m1261.9 321 4.1-2.3 136.1-78.6 4.1-2.3c7.6-4.3 12.8-11.6 15.2-20 1.1-3.8 3.7-7.1 7.8-8.9 5.9-2.6 12.9-.6 16.6 4.6 2.9 4.1 3.3 9.1 1.5 13.4 4.5.6 8.7 3.4 10.8 8 2.7 5.9.9 12.9-4.3 16.8-3.5 2.6-7.8 3.3-11.6 2.3-8.4-2.1-17.3-1.2-24.9 3.2l-4.1 2.3-136.1 78.6-4.1 2.3c-7.6 4.3-12.8 11.6-15.2 20-1.1 3.8-3.7 7.1-7.8 8.9-5.9 2.6-12.9.6-16.6-4.6-2.9-4.1-3.3-9.1-1.5-13.4-4.5-.6-8.7-3.4-10.8-8-2.7-5.9-.9-12.9 4.3-16.8 3.5-2.6 7.8-3.3 11.6-2.3 8.5 2 17.4 1.1 24.9-3.2z"/><path d="m1334.9 304.6 31.7-18.3-22.3-12.9-31.7 18.3 22.3 12.9z" opacity=".15" fill="#444"/><path class="st1" d="m1417.3 321-4.1-2.3-136-78.7-4.1-2.3c-7.6-4.3-12.8-11.6-15.2-20-1.1-3.8-3.7-7.1-7.8-8.9-5.9-2.6-12.9-.6-16.6 4.6-2.9 4.1-3.3 9.1-1.5 13.4-4.5.6-8.7 3.4-10.8 8-2.7 5.9-.9 12.9 4.3 16.8 3.5 2.6 7.8 3.3 11.6 2.3 8.4-2.1 17.3-1.2 24.9 3.2l4.1 2.3 136.1 78.6 4.1 2.3c7.6 4.3 12.8 11.6 15.2 20 1.1 3.8 3.7 7.1 7.8 8.9 5.9 2.6 12.9.6 16.6-4.6 2.9-4.1 3.3-9.1 1.5-13.4 4.5-.6 8.7-3.4 10.8-8 2.7-5.9.9-12.9-4.3-16.8-3.5-2.6-7.8-3.3-11.6-2.3-8.5 2.1-17.4 1.2-25-3.1z"/><path class="st1" d="M1339.6 70.2c-38.8 0-70.3 30.2-70.3 67.4l4.7 46.1c1.1 11.1 9.3 20.1 20.2 22.4l3 .6c3.3.7 5.5 3.8 5.1 7.2l-1.9 13.9c-1.4 10.4 6 19.8 16.4 21l8.8 1c9.3 1.1 18.7 1.1 28 0l8.8-1c10.4-1.2 17.8-10.7 16.4-21l-1.9-13.9c-.5-3.3 1.8-6.5 5.1-7.2l3-.6c10.9-2.3 19-11.3 20.2-22.4l4.7-46.1c0-14.9-5-28.7-13.5-39.8-12.8-16.7-33.5-27.6-56.8-27.6z"/><path class="st4" d="m1294.6 176.2-.6 8.3c-.6 8 7.1 14.1 14.8 11.5l10.1-3.3c4.9-1.6 8.6-5.6 10-10.4.1-.1.1-.3.1-.5.8-6.6-3.9-12.6-10.4-13.5l-12.2-1.6c-6-.7-11.4 3.6-11.8 9.5zm90 0 .6 8.3c.6 8-7.1 14.1-14.8 11.5l-10.1-3.3c-4.9-1.6-8.6-5.6-10-10.4-.1-.1-.1-.3-.1-.5-.8-6.6 3.9-12.6 10.4-13.5l12.2-1.6c6.1-.7 11.4 3.6 11.8 9.5zm-36 38.6c0 3.9-4 7-9 7s-9-3.2-9-7 7.6-18 9-18c1.4-.1 9 14.1 9 18z"/><path d="M862 291 461 673h305l113-382zm196 0 401 382h-305l-113-382z" fill="#ddc4b0"/></svg>