<svg xmlns="http://www.w3.org/2000/svg" viewBox="0 0 1920 673" xml:space="preserve"><style>.st1{fill:#bbb}.st2{fill:#cc584c}.st4{fill:#ddd}.st5{fill:#36434f}</style><path fill="#e0ac7e" d="M0 0h1920v673H0z"/><path class="st1" d="M724.2 336.5v-.9l-23.5-.4c-.3 0-.7.3-.7.7s.3.7.7.7l23.5.4v-.5zm-23.6-9.3 23.9 5.9c.1-.4.3-.9.3-1.3l-23.9-5.9c-.4-.1-.7.1-.8.5-.1.4.1.7.5.8zm1.3-9.3 23.8 11.8c.1-.4.4-.8.5-1.2l-23.8-11.8c-.3-.1-.7 0-.9.3-.2.2 0 .6.4.9zm29.8 4.7c.4-.3.8-.5 1.2-.7l-17.5-30c-.1-.3-.5-.4-.9-.3-.3.1-.4.5-.3.9l17.5 30.1zm-2.2 1.8c.3-.3.7-.5 1.1-.9l-20.8-24c-.3-.3-.7-.3-.9-.1-.3.3-.3.7-.1.9l20.7 24.1zm-2.1 2.4c.3-.4.5-.7.8-1.1l-22.7-18c-.3-.3-.7-.1-.9.1-.3.3-.1.7.1.9l22.7 18.1z"/><path class="st2" d="M1072.7 431.8c5.5.3 10.8.7 16.2 1.2 5.4.5 10.7 1.1 16.1 1.8 10.7 1.4 21.3 3.1 31.9 5.4 10.6 2.3 21.1 5.1 31.5 9 5.2 2 10.3 4.2 15.3 6.9s9.9 5.8 14.4 9.8 8.6 8.9 11.2 15c1.3 3 2.1 6.3 2.5 9.6.4 3.3.2 6.6-.3 9.7s-1.5 6.4-2.8 9.3c-1.3 3-3.2 5.7-5.2 8.2-4.2 4.9-9.2 8.6-14.4 11.4-10.5 5.6-21.6 8.4-32.5 10.1-11 1.6-22 2.2-33 2-10.9-.2-21.8-1.2-32.6-2.7-10.8-1.6-21.4-3.8-31.9-6.4-10.5-2.6-20.8-5.7-31-8.9-10.2-3.3-20.3-6.7-30.3-10.1-5-1.7-10-3.4-14.9-5-5-1.6-9.9-3.1-14.7-4.2-1.2-.2-2.3-.5-3.5-.7l-3.8-.6c-2.5-.4-5-.8-7.6-1.1-5.1-.7-10.1-1-15.3-1.3-10.2-.5-20.6-.3-31 .4l-3.9.3-3.9.4c-2.6.2-5.2.6-7.8.9-5.2.7-10.4 1.5-15.6 2.5-.4.1-.7-.2-.8-.5-.1-.3.1-.6.3-.7 4.7-2.7 9.7-4.8 14.8-6.7 5.1-1.8 10.3-3.5 15.6-4.8 10.6-2.6 21.4-4.2 32.4-4.7 2.7-.1 5.5-.1 8.2-.1h2.1l2.1.1 4.1.2c2.8.1 5.5.4 8.2.7l4.1.5c1.4.2 2.8.5 4.3.8 5.6 1.1 10.9 2.6 16.1 4.1s10.3 3.1 15.4 4.7c10.1 3.3 20.2 6.6 30.2 9.7s20.1 6.2 30.1 8.7c10.1 2.6 20.2 4.9 30.3 6.6 10.2 1.7 20.4 2.8 30.7 3.2 10.3.4 20.5.1 30.5-1.2 9.9-1.4 19.8-3.8 28.1-8.2 4.2-2.2 7.7-4.9 10.5-8.1 2.7-3.3 4.5-6.9 5.1-11 .7-4.2.3-8.2-1.3-11.9-1.5-3.7-4.3-7.2-7.7-10.2s-7.5-5.7-11.8-8c-4.3-2.3-9-4.3-13.7-6.1-9.5-3.6-19.5-6.3-29.6-8.5-10.1-2.2-20.4-3.9-30.8-5.2-5.2-.7-10.4-1.2-15.6-1.7-5.2-.5-10.5-.9-15.5-1.1h-.1c-3.7-.2-6.6-3.3-6.4-7 .2-3.8 3.3-6.7 7-6.5z"/><circle cx="835.7" cy="205.7" r="57.7" fill="#999"/><path class="st4" d="M813.4 267c-5.9 12.1-9.3 25.7-9.3 40.1 0 50.6 40.9 91.4 91.4 91.4 38.2 0 70.9-23.4 84.6-56.6L813.4 267z"/><path class="st4" d="M1121.9 277.1c2.3 8.1 3.8 16.5 4.4 25.1v.9c.3 3.1.3 6.2.3 9.4 0 69.2-52.8 126.1-120.5 132.6-4.2.4-8.3.5-12.6.5-73.5 0-133.1-59.6-133.1-133.1S920 179.4 993.5 179.4c61.3 0 113 41.3 128.4 97.7z"/><path class="st4" d="M993.7 445.7h73.3l74.5-98-19.5-70.6-128.3 168.6zM851.6 331c-41.9 36.1-112.2 63.4-132.6 39.8-20.4-23.7 16.8-89.3 58.6-125.3s72.5-29.2 92.9-5.5c20.4 23.7 23 54.8-18.9 91z"/><circle class="st5" cx="790" cy="298.4" r="22.2"/><circle class="st2" cx="718.1" cy="362.3" r="13.4"/><path class="st4" d="M1141.4 347.6c1.3 4.7 2.2 9.5 2.6 14.7v.5c.1 1.7.1 3.6.1 5.5 0 40.2-30.7 73.3-69.9 76.9-2.4.3-4.8.4-7.4.4-42.8 0-77.3-34.6-77.3-77.3 0-42.8 34.6-77.3 77.3-77.3 35.6 0 65.6 24 74.6 56.6z"/><circle class="st1" cx="865.3" cy="194.9" r="63.2"/><path class="st4" d="M894.8 426.8h125v18.8h-125c-5.2 0-9.4-4.2-9.4-9.4s4.3-9.4 9.4-9.4zm-78.9-27.1 115.8-47.2 7.1 17.5L823 417.2c-4.8 2-10.4-.4-12.2-5.1-2-4.9.3-10.4 5.1-12.4zm-37.6-13.5L894 339l7.1 17.5-115.7 47.2c-4.8 2-10.4-.4-12.2-5.1-2-4.8.2-10.4 5.1-12.4z"/><circle cx="776.5" cy="298.4" r="4.7" fill="#f4f4f4"/><path class="st1" d="M746.9 352c-.4.3-.8.4-1.2.7l13.9 38.6c.1.3.4.4.7.4h.3c.4-.1.5-.5.4-.8L746.9 352zm2.1-1.3c-.4.3-.8.4-1.2.7l21.2 39.1c.1.3.4.4.5.4.1 0 .3 0 .3-.1.3-.1.4-.5.3-.9L749 350.7zm-5.7 3.2 7 36.5c0 .3.4.5.7.5.4-.1.5-.4.5-.8l-7.1-36.9c-.4.3-.7.5-1.1.7zm7.7-4.4c-.4.3-.8.5-1.2.7l28.2 38.2c.1.1.3.3.5.3.1 0 .3 0 .4-.1.3-.3.4-.7.1-.9.1-.1-28-38.2-28-38.2zm-14.2 6.9-4.3 28c0 .4.1.7.5.8h.1c.3 0 .7-.3.7-.5l4.5-28.6c-.6 0-1 .1-1.5.3zm3.6-1.2.8 33c0 .4.3.7.7.7s.7-.3.7-.7l-.8-33.5c-.5.1-1 .2-1.4.5zm73.4 2.5-52.4-15.8c-.4.4-.8.7-1.2 1.1l53.3 16h.1c.3 0 .5-.1.7-.5 0-.3-.2-.7-.5-.8zm-10.9 15.2-46-27.5-1.2.8 46.4 27.7c.1 0 .3.1.4.1.3 0 .4-.1.5-.3.3-.3.2-.7-.1-.8zm6-7.2-49.9-22c-.4.3-.8.7-1.2.9l50.6 22.2h.3c.3 0 .5-.1.7-.4-.1-.2-.2-.6-.5-.7zM755 346.9l-1.2.8L795 380c.1.1.3.1.4.1s.4-.1.5-.3c.3-.3.1-.7-.1-.9l-40.8-32zm-2 1.3-1.2.8 35.1 36c.1.1.3.3.5.3.1 0 .4 0 .4-.1.3-.3.3-.7 0-.9 0-.1-34.8-36.1-34.8-36.1z"/><path class="st5" d="M1127.6 549.3h-4.1c-10.5-.2-21.5-1.1-33.6-2.8-10.5-1.5-21.1-3.7-32.7-6.6-11.2-2.8-22.2-6.1-31.5-9-10.9-3.5-21.5-7.1-30.5-10.2-4.9-1.7-10-3.4-14.8-5-4.5-1.4-9.3-2.9-13.8-4-.6-.1-1.3-.2-1.9-.4-.4-.1-.9-.2-1.4-.3l-3.7-.6c-2.5-.4-4.9-.8-7.3-1.1h-.2c-4.9-.7-9.9-1-14.7-1.2-4.4-.3-7.8-4-7.5-8.4.3-4.4 4-7.8 8.4-7.5 4.8.3 10.3.6 15.8 1.3 2.7.3 5.3.7 7.8 1.1l3.8.6c.8.1 1.5.3 2.2.4.5.1.9.2 1.4.3l.5.1c5.2 1.2 10.4 2.8 15.4 4.4 5 1.6 10.1 3.4 15 5 8.9 3 19.5 6.6 30.2 10.1 9 2.8 19.7 6.1 30.5 8.7 11.1 2.7 21.3 4.8 31.1 6.3 11.3 1.6 21.7 2.4 31.6 2.6 10.9.2 21.6-.4 31.7-1.9 12.1-1.9 21.6-4.8 29.9-9.2 4.8-2.6 8.8-5.7 12-9.4 2-2.5 3.2-4.4 4-6.3v-.1c1-2.3 1.8-4.9 2.2-7.3.4-2.7.5-5.2.3-7.5-.3-2.8-1-5.2-1.9-7.4-1.9-4.4-4.9-8.4-9.2-12.2-3.5-3.1-7.6-5.9-12.9-8.7-4.2-2.2-8.7-4.3-14.4-6.5-8.9-3.3-18.6-6.1-30.3-8.6-9.1-2-19-3.7-30.3-5.2l-23-3.1 20-11.8c21.1-12.4 34.2-35.3 34.2-59.7 0-1.8 0-3.6-.1-5v-.7c-.4-4.3-1.1-8.5-2.3-12.9-2.6-9.4-7.1-18-13.4-25.6l-2-2.4.2-3.1c.1-2 .1-4.1.1-6.1 0-3 0-5.9-.3-8.6v-1.4c-.6-7.8-1.9-15.6-4.1-23.2-14.8-54.1-64.4-91.9-120.7-91.9-21.4 0-42.5 5.5-61.1 15.9l-12.2 6.9.3-14.6v-.7c0-30.4-24.8-55.2-55.2-55.2-4.4 0-8-3.6-8-8s3.6-8 8-8c35.5 0 65 26.1 70.3 60.1 18.1-8.1 37.9-12.4 57.9-12.4 63.5 0 119.5 42.6 136.1 103.6 2.5 8.7 4 17.7 4.7 26.7v1.1c.3 3.3.3 6.6.3 9.8 0 1.3 0 2.6-.1 3.9 6.7 8.7 11.6 18.5 14.6 29.1 1.5 5.4 2.4 10.8 2.9 16.2v.9c.1 1.9.1 3.8.1 5.7 0 23.4-9.8 45.7-26.3 61.6 4.5.8 8.7 1.6 12.8 2.5 12.5 2.7 22.9 5.7 32.6 9.3 6.4 2.5 11.5 4.8 16.3 7.4 6.4 3.5 11.5 6.9 15.9 10.9 6 5.4 10.5 11.4 13.2 17.8 1.5 3.5 2.6 7.5 3.1 11.8.5 3.7.3 7.7-.3 11.9-.6 3.7-1.8 7.7-3.4 11.3-1.8 4.2-4.4 7.7-6.3 10l-.2.2c-4.5 5.2-10.1 9.7-16.7 13.2-9.9 5.3-21.1 8.8-35.1 11-9.4 1.4-19.6 2.1-29.9 2.1z"/></svg>