<svg version="1.1" xmlns="http://www.w3.org/2000/svg" x="0" y="0" viewBox="0 0 512 68" xml:space="preserve"><path d="M41.2.9H27.8L0 44.8l.6 8.3H28v14.4h13.2V53.1h7.5V42.5h-7.5V.9zM27.9 42.5H13.2l13.9-22L28 19v23.5zm85-9.2c3-1.4 5.5-3.4 7.3-5.9 1.9-2.5 2.8-5.4 2.8-8.4 0-5.9-2-10.6-6-14-4-3.4-9.5-5-16.6-5-4.1 0-7.8.8-11.2 2.4-3.4 1.5-6 3.7-7.9 6.5-1.9 2.7-2.8 5.9-2.8 9.4h13.2c0-2.3.8-4.1 2.5-5.4 1.7-1.4 3.8-2.1 6.4-2.1 2.8 0 5 .8 6.6 2.3s2.4 3.6 2.4 6.3c0 2.8-.8 5-2.4 6.7-1.7 1.7-4.1 2.5-7.5 2.5h-6.9v10.5h7c7.3 0 11 3.3 11 10 0 2.7-.9 4.9-2.7 6.6-1.8 1.7-4.3 2.5-7.4 2.5-2.7 0-5.1-.8-7-2.4C92 54 91 51.9 91 49.4H77.8c0 5.7 2.2 10.4 6.4 13.9 4.3 3.5 9.7 5.3 16.4 5.3 7.1 0 12.8-1.8 17.1-5.4 4.3-3.6 6.5-8.3 6.5-14.2 0-3.7-.9-6.9-2.8-9.5-1.9-2.8-4.7-4.8-8.5-6.2zm77.2 0c3-1.4 5.5-3.4 7.3-5.9 1.9-2.5 2.8-5.4 2.8-8.4 0-5.9-2-10.6-6-14-4-3.4-9.5-5-16.6-5-4.1 0-7.8.8-11.2 2.4-3.4 1.5-6 3.7-7.9 6.5-1.9 2.7-2.8 5.9-2.8 9.4H169c0-2.3.8-4.1 2.5-5.4 1.7-1.4 3.8-2.1 6.4-2.1 2.8 0 5 .8 6.6 2.3s2.4 3.6 2.4 6.3c0 2.8-.8 5-2.4 6.7-1.7 1.7-4.1 2.5-7.5 2.5h-6.9v10.5h7c7.3 0 11 3.3 11 10 0 2.7-.9 4.9-2.7 6.6-1.8 1.7-4.3 2.5-7.4 2.5-2.7 0-5.1-.8-7-2.4-1.9-1.6-2.8-3.6-2.8-6.1H155c0 5.7 2.2 10.4 6.4 13.9 4.3 3.5 9.7 5.3 16.4 5.3 7.1 0 12.8-1.8 17.1-5.4 4.3-3.6 6.5-8.3 6.5-14.2 0-3.7-.9-6.9-2.8-9.5-1.9-3.1-4.7-5.1-8.5-6.5zM260.7 23c-5.4 0-9.9 1.8-13.4 5.4.7-5.3 2.9-9.5 6.6-12.6 3.6-3 8.5-4.6 14.4-4.7h1.3V.2h-2.1c-6.8 0-12.7 1.6-17.8 4.6-5.1 3-9.1 7.3-11.8 12.9-2.7 5.6-4.1 11.9-4.1 19.2v4.7c0 8.2 2.2 14.7 6.5 19.6 4.4 4.9 10 7.3 17 7.3 4.3 0 8.2-1 11.7-2.9 3.4-2 6.1-4.7 8-8.2 1.9-3.5 2.8-7.4 2.8-11.8 0-6.8-1.7-12.2-5.1-16.4-3.6-4.2-8.2-6.2-14-6.2zm3.1 31.5c-1.8 2.3-4.1 3.4-6.9 3.4-3.2 0-5.6-1.2-7.3-3.7-1.7-2.5-2.6-6-2.6-10.4v-4c.8-1.8 2.1-3.3 3.9-4.4 1.8-1.1 3.7-1.7 5.8-1.7 3 0 5.4 1.1 7.1 3.3 1.8 2.2 2.6 5.1 2.6 8.8 0 3.5-.9 6.4-2.6 8.7zM350 .9h-13.4l-27.8 43.9.6 8.3h27.4v14.4H350V53.1h7.5V42.5H350V.9zm-13.2 41.6h-14.7l13.9-22 .9-1.5v23.5zm76.3-18.8c-3.5 0-6.9.8-10 2.5l1.7-14.3h26.5V.8h-37.4l-3.9 34 10.5 2.6 1.3-1.2c2-1.7 4.5-2.5 7.6-2.5 3.4 0 6.1 1 7.9 3 1.9 2 2.8 4.9 2.8 8.7 0 4-.8 7-2.4 9.2-1.6 2.2-3.9 3.2-6.9 3.2-2.7 0-4.8-.7-6.5-2.3-1.7-1.5-2.6-3.7-2.9-6.5h-13.1c.1 3.8 1.2 7.1 3.2 10.1s4.7 5.3 8.2 6.9c3.4 1.6 7.2 2.4 11.2 2.4 4.6 0 8.6-1 12-2.8 3.4-1.9 6-4.5 7.8-7.9 1.8-3.4 2.7-7.2 2.7-11.6 0-7.1-1.8-12.6-5.4-16.6-3.6-3.8-8.5-5.8-14.9-5.8zm91.4 18.8V.9h-13.4l-27.8 43.9.6 8.3h27.4v14.4h13.2V53.1h7.5V42.5h-7.5zm-13.3 0h-14.7l13.9-22 .9-1.5v23.5z" fill="#36434f"/></svg>