<svg xmlns="http://www.w3.org/2000/svg" viewBox="0 0 1920 673" xml:space="preserve"><path fill="#cc584c" d="M0 0h1920v673H0z"/><path d="M712.7 60.2c24.6 0 44.8 20.2 44.8 44.8s-20.2 44.8-44.8 44.8c-24.6 0-44.8-20.2-44.8-44.8s20.1-44.8 44.8-44.8m0-14.9c-33 0-59.7 26.7-59.7 59.7s26.7 59.7 59.7 59.7 59.7-26.7 59.7-59.7-26.7-59.7-59.7-59.7zm188.5 14.9c24.6 0 44.8 20.2 44.8 44.8s-20.2 44.8-44.8 44.8c-20.5 0-38.3-13.8-43.5-33.6l-2.8-11.2 2.8-11.2c5.2-19.8 23-33.6 43.5-33.6m0-14.9c-27.8 0-51.3 19-57.9 44.8V45.3h-14.9v201.6h14.9V120c6.5 25.8 30.1 44.8 57.9 44.8 33 0 59.7-26.7 59.7-59.7s-26.7-59.8-59.7-59.8zm306.1 14.9c24.6 0 44.8 20.2 44.8 44.8s-20.2 44.8-44.8 44.8c-20.5 0-38.3-13.8-43.5-33.6L1161 105l2.8-11.2c5.3-19.8 23-33.6 43.5-33.6m-130.6 0c20.5 0 38.3 13.8 43.5 33.6l2.8 11.2-2.8 11.2c-5.2 19.8-23 33.6-43.5 33.6-24.6 0-44.8-20.2-44.8-44.8s20.1-44.8 44.8-44.8m130.6-14.9c-27.8 0-51.3 19-57.9 44.8V45.3h-14.9v44.8c-6.5-25.8-30.1-44.8-57.9-44.8-33 0-59.7 26.7-59.7 59.7s26.7 59.7 59.7 59.7c27.8 0 51.3-19 57.9-44.8v126.9h14.9V120c6.5 25.8 30.1 44.8 57.9 44.8 33 0 59.7-26.7 59.7-59.7s-26.6-59.8-59.7-59.8zM772.4 302.9H652.9v119.5h15V317.8h104.5zm175.5 0H828.4v119.5h14.9V317.8h89.6v104.6h15V317.8zm253.8 0h-119.4v104.5h-33.6v44.8h14.9v-29.9h156.8v29.9h14.9v-44.8h-33.6V302.9zm-104.5 104.5v-89.6h89.6v89.6h-89.6zM953.3 508.2h-15l-89.6 97.3v-97.3h-14.9v119.5h14.9l89.6-97.2v97.2h15zm-175.5 0h-14.9l-110 119.5h20.4l89.6-97.2v97.2h14.9z" fill="#f4f4f4"/></svg>