<svg xmlns="http://www.w3.org/2000/svg" viewBox="0 0 1920 673" xml:space="preserve"><path fill="#91aed3" d="M0 0h1920v673H0z"/><path d="M842.7 672.9c0-29.1.4-58.1-.2-87.2-.1-8.6-1.7-17.5-4.3-25.8-7.8-24.9-17.4-49.1-24.2-74.2-5.2-19.2-9.3-39.3-10.5-59.2-3.2-53-16.3-103.8-30.5-154.5-2.9-10.4-5.1-21.1-9.5-30.9-8.9-19.9-9-41.2-11.9-62-1.1-7.4 1.2-14.9 9.1-18.5 6.2-2.9 16.4.2 21.8 7.6 3.9 5.5 7.6 11.6 9.4 18 5 16.9 9.1 34.2 13.3 51.4 2.7 11.1 7.4 20.7 13.5 30.6 5.4 8.6 7.4 18.8 10.1 28.5 2.9 10.5 6.7 29.4 9.7 31.2 3 1.8 7.9-7.1 9-12.2 1.3-6.1-.2-11.9-1-18-1-6.8-1.8-13.5-2.8-20.3-1.8-13.5-3.7-27-5.6-40.7-3.7-27-7.4-54.2-11.1-81.3-2.2-16.2-4.4-32.5-6.6-48.7-.5-3.8-1.2-7.9-.2-11.6 2.6-10.7 12.7-19.5 21.2-19.4 8.5.1 17.4 8.9 19.5 20.7 3.8 22.3 6.5 44.8 10.5 67 3.4 18.3 8.4 36.3 12.3 54.5 5.4 24.4 10.2 48.9 15.1 73.3.1.9.5 1.9 1.2 2.4.9.5 1.9.1 2.7-.7.6-.7.9-1.7 1.1-2.7 1.7-10-.6-21.1-1.6-31.1-1.1-11.1-2.1-22.2-2.7-33.4-.6-12.7.6-25.3 1.2-38.1.2-4.9 1.1-9.7 1.1-14.6.1-31.1 0-62 0-93.1 0-3.4-.2-6.9.1-10.4 1-11.8 8.9-20.2 18.8-20.3 14.4-.1 24.6 7.8 25.5 21 2.2 38.3 4.1 76.6 5.8 115 1.3 30.5 1.9 61 2.9 91.5.2 7.1-.1 14.5 9.9 14.9 7.1.2 16.6-7.9 17.2-15 2.1-21.6 3.5-43.1 5.6-64.7 3.5-37.8 7.1-75.4 11.2-113.1 1.7-15.1 15.1-24.1 27.8-20.3 10.1 2.9 13.8 11.7 13.9 20.2.4 43.9-.5 87.6-.5 131.4 0 38.9-.9 77.7 1.2 116.5.9 15.8 10.4 44.1 13.9 45.8 3.4 1.8 10-3.4 14.9-6 .7-.2 1.5-.6 2.1-1.2.5-.5.7-1 1-1.6 3.8-8 7.3-16.2 11.6-23.9 6.9-12.8 15.6-24 16.3-40.2.4-9.7 7.7-20.2 14.4-28.4 10.4-12.8 21.9-25.2 39.2-29.2 9.5-2.2 17.3 4.5 12.7 12.5-13.6 23.5-14.9 49.6-18.2 75.3-.6 4.8-2.7 9.6-5.2 13.6-15.8 24.9-22.9 53.1-32.3 80.5-2.6 7.3-5.8 14.6-10.2 21-20.3 29-40.8 57.9-61.9 86.3-11.6 15.6-17.4 32.5-19.4 51.7-2.3 23.5-5.8 46.9-8.9 70.3-56.1-.2-112.3-.2-168.5-.2z" fill="#ffcc80"/></svg>