<svg version="1.1" xmlns="http://www.w3.org/2000/svg" x="0" y="0" viewBox="0 0 224 224" xml:space="preserve"><style type="text/css">.st2{fill:#36434f}</style><path d="M202 0v224M166 0v224M130 0v224M94 0v224M58 0v224M22 0v224M0 22h224M0 58h224M0 94h224M0 130h224M0 166h224M0 202h224" fill="none" stroke="#ddd" stroke-width="4" stroke-miterlimit="10"/><path fill="none" stroke="#36434f" stroke-width="4" stroke-miterlimit="10" d="M22 22h180v180H22z"/><path class="st2" d="M44.4 107.3h-6.5v2.4h1.9c1.2 0 2.2.2 3.1.6s1.6 1 2.1 1.7.7 1.6.7 2.5c0 1.5-.5 2.7-1.6 3.6s-2.6 1.4-4.4 1.4h-5.4v-14.9h10.1v2.7zm-6.5 5.1v4.3h1.8c.7 0 1.3-.2 1.7-.6s.6-.9.6-1.6c0-.6-.2-1.1-.6-1.5s-1-.6-1.8-.6h-1.7zm40.6 4.3h-4.9l-.9 2.8h-3.8l5.5-14.9h3.4l5.5 14.9h-3.9l-.9-2.8zm-4.1-2.8h3.2l-1.6-5.2-1.6 5.2zm44.3-9.4v14.9h-3.6v-12.2h-3.4l-.2 5c-.1 1.7-.3 3.1-.7 4.1s-.9 1.8-1.6 2.3c-.7.5-1.6.7-2.8.7h-1v-2.8l.5-.1c.7-.1 1.2-.5 1.6-1.3.3-.8.5-2.1.6-3.9l.3-6.9h10.3zm36.6 18.6h-3.2v-3.7H144v3.7h-3.3l-.3-6.4h1.1c.6-.4 1-1 1.3-1.9.3-.9.6-2.2.7-3.9l.5-6.4h10.2v12.2h1.6l-.5 6.4zm-9.8-6.4h5v-9.4h-3.2l-.3 3.7c-.2 2.5-.7 4.3-1.5 5.7zm41 0h-4.9l-.9 2.8h-3.8l5.5-14.9h3.4l5.5 14.9h-3.9l-.9-2.8zm-4.1-2.8h3.2l-1.6-5.2-1.6 5.2zM46.5 148.3c0 1.5-.3 2.7-.8 3.9s-1.3 2-2.3 2.6c-1 .6-2.1.9-3.4.9s-2.4-.3-3.4-.9c-1-.6-1.8-1.4-2.3-2.5-.6-1.1-.8-2.3-.9-3.7v-.8c0-1.5.3-2.8.8-3.9s1.3-2 2.3-2.6 2.1-.9 3.4-.9c1.3 0 2.4.3 3.4.9s1.8 1.5 2.3 2.6c.5 1.1.8 2.4.8 3.8v.6zm-3.6-.6c0-1.5-.2-2.6-.7-3.4-.5-.8-1.2-1.2-2.1-1.2-1.8 0-2.8 1.4-2.9 4.1v1.1c0 1.5.2 2.6.7 3.4s1.2 1.2 2.2 1.2c.9 0 1.6-.4 2.1-1.2s.7-1.9.7-3.3v-.7zm30.8 2.7v5.1h-3.6v-14.9h6c1.1 0 2.2.2 3 .6.9.4 1.6 1 2 1.8.5.8.7 1.7.7 2.6 0 1.5-.5 2.6-1.6 3.5-1 .9-2.5 1.3-4.3 1.3h-2.2zm0-2.8h2.4c.7 0 1.2-.2 1.6-.5s.5-.8.5-1.5-.2-1.3-.6-1.7-.9-.6-1.5-.6h-2.4v4.3z"/><path class="st2" d="M28.6 101.5h42.5l-.9 1.5 6.9-2.5-6.9-2.5.9 1.5H26.6v61.8h45.5v-2H28.6z"/></svg>