<svg xmlns="http://www.w3.org/2000/svg" viewBox="0 0 1920 673" xml:space="preserve"><style>.st1{fill:#ddd}.st2{fill:#cc584c}</style><path fill="#7193ad" d="M0 0h1920v673H0z"/><path class="st1" d="M914 204.5v-69h92v69l42 388H872l42-388z"/><path class="st2" d="m1016.1 297.5 4.3 40H899.6l4.3-40h112.2zm-4.9-45-3.8-35.5h-94.7l-3.8 35.5h102.3zm14.1 130H894.7l-4.3 40h139.2l-4.3-40zM872 592.5h176l-4.3-40H876.3l-4.3 40zm9.2-85h157.6l-4.3-40h-149l-4.3 40zm82.8-406h-8v-10h8v10z"/><path class="st2" d="M911.1 131.5c8.6-18.3 27.3-31 48.9-31s40.2 12.7 48.9 31h-97.8z"/><path d="M908 135.5h104c1.1 0 2-.9 2-2v-1c0-1.1-.9-2-2-2H908c-1.1 0-2 .9-2 2v1c0 1.1.9 2 2 2z" fill="#bbb"/><circle class="st1" cx="960" cy="87.5" r="7"/><path d="M984 174.8h22v-32h-22c-2.2 0-4 1.8-4 4v24c0 2.2 1.8 4 4 4z" fill="#ffa000"/><path d="M1039 214.5h-1.5v-30c0-1.4-1.1-2.5-2.5-2.5H885c-1.4 0-2.5 1.1-2.5 2.5v30H881c-1.1 0-2 .9-2 2v1c0 1.1.9 2 2 2h158c1.1 0 2-.9 2-2v-1c0-1.1-.9-2-2-2zm-151.5 0V187h5v27.5h-5zm10 0V187h5v27.5h-5zm10 0V187h5v27.5h-5zm10 0V187h5v27.5h-5zm10 0V187h5v27.5h-5zm10 0V187h5v27.5h-5zm10 0V187h5v27.5h-5zm10 0V187h5v27.5h-5zm10 0V187h5v27.5h-5zm10 0V187h5v27.5h-5zm10 0V187h5v27.5h-5zm10 0V187h5v27.5h-5zm10 0V187h5v27.5h-5zm10 0V187h5v27.5h-5zm10 0V187h5v27.5h-5z" fill="#b8554b"/><path d="M953 87.5c0 2.4 1.2 4.5 3 5.7v7.4c-19.5 1.4-36.1 13.2-44.4 29.9H908c-1.1 0-2 .9-2 2v1c0 1.1.9 2 2 2h6V182h-29c-1.4 0-2.5 1.1-2.5 2.5v30H881c-1.1 0-2 .9-2 2v1c0 1.1.9 2 2 2h31.4l-8.4 78-4.3 40-4.9 45-4.3 40-14.1 130-4.3 40h88v-512c-4 0-7.1 3.1-7.1 7zm-60.5 127h-5V187h5v27.5zm10 0h-5V187h5v27.5zm10 0h-5V187h5v27.5z" opacity=".15" fill="#444"/><path d="M1284.4 673c-59.6-53.7-182.5-90.5-324.4-90.5S695.2 619.3 635.6 673h648.8z" fill="#36434f"/></svg>