<svg xmlns="http://www.w3.org/2000/svg" viewBox="0 0 1920 673" xml:space="preserve"><style>.st1{fill:#36434f}.st2{fill:#ffcc80}.st3{fill:#f4f4f4}.st4{fill:#e3b877}.st5{opacity:.15;fill:#444;enable-background:new}</style><path fill="#e09273" d="M0 0h1920v673H0z"/><path class="st1" d="M780.4 287.4h96.3c5.4 0 10.8-1.6 15.3-4.6 8.4-5.6 17.8-11.9 25.8-17.3 9.1-6.2 13.7-17.1 11.7-27.9l-8.2-43.8c-9.7-59.8-47.5-104.4-92.8-104.4-45.2 0-83.1 44.6-92.8 104.4l-8.2 43.8c-2 10.8 2.6 21.7 11.7 27.9 8 5.4 17.5 11.8 25.8 17.3 4.7 3 10 4.6 15.4 4.6z"/><path class="st2" d="M891.5 176.7c0-31.2-28.2-56.4-62.9-56.4s-62.9 25.3-62.9 56.4l7.5 78.8c1.4 14.7 9 28.3 21.1 38.2l10.9 8.8c5.8 4.7 13.3 7.3 21.1 7.3h4.6c7.8 0 15.3-2.6 21.1-7.3l10.9-8.8c12.2-9.9 19.7-23.5 21.1-38.2l7.5-78.8z"/><circle class="st1" cx="802.2" cy="212.8" r="11.4"/><ellipse class="st3" cx="808.5" cy="210.7" rx="3.2" ry="3.7"/><circle class="st1" cx="855" cy="212.8" r="11.4"/><ellipse class="st3" cx="861.3" cy="210.7" rx="3.2" ry="3.7"/><path class="st4" d="M829.3 253.1h-1.4c-3.8 0-6.9-3.1-6.9-6.9v-7.1c0-3.8 3.1-6.9 6.9-6.9h1.4c3.8 0 6.9 3.1 6.9 6.9v7.1c0 3.8-3.1 6.9-6.9 6.9zm16.8 19c0 3.4-2.8 6.2-6.2 6.2h-22.7c-3.4 0-6.2-2.8-6.2-6.2 0-3.4 2.8-6.2 6.2-6.2h22.7c3.5 0 6.2 2.7 6.2 6.2z"/><path class="st1" d="M916.7 172.7c-14.3-49-48.3-83.5-88.1-83.5-41.4 0-76.6 37.3-89.7 89.5 10.6 6.3 23 9.9 36.3 9.9 28.4 0 52.8-16.6 64.3-40.7 13 16.8 33.4 27.7 56.3 27.7 7.2.2 14.2-.8 20.9-2.9z"/><path class="st5" d="M826.6 89.3h-2.8c-.4 0-.8 0-1.2.1-.3 0-.6 0-.9.1l-1.2.1c-.3 0-.6.1-.9.1-.4 0-.7.1-1.1.2-.3 0-.6.1-.9.1-.4 0-.7.1-1.1.2-.3 0-.6.1-.9.2-.4.1-.7.1-1.1.2-.3 0-.6.1-.9.2-.4.1-.7.2-1.1.3-.3.1-.6.1-.8.2-.4.1-.8.2-1.1.3-.3.1-.5.1-.8.2-.4.1-.8.3-1.2.3-.2.1-.5.1-.7.2-.6.2-1.2.4-1.9.6-.2.1-.4.1-.6.2-.4.2-.9.3-1.3.5-.3.1-.5.2-.8.3-.3.1-.7.3-1.1.4-.3.1-.6.3-.9.3-.3.1-.6.3-1 .4l-.9.4c-.3.1-.6.3-.9.4-.3.1-.6.3-.9.4-.3.1-.6.3-.9.4-.3.2-.6.3-.9.5-.3.2-.6.3-.9.5l-.9.5c-.3.2-.6.3-.9.5-.3.2-.6.3-.9.5-.3.2-.6.3-.8.5l-.9.6c-.3.2-.5.3-.8.5l-.9.6c-.2.1-.4.3-.6.4-1.3.9-2.6 1.8-3.8 2.7-.2.1-.3.3-.5.3-.3.3-.7.6-1.1.8-.2.2-.4.3-.6.5-.3.3-.7.6-1 .8-.2.2-.4.3-.6.5-.3.3-.7.6-1 .9-.2.2-.4.3-.6.5l-1 .9c-.2.2-.4.3-.6.5-.3.3-.7.6-1 .9l-.5.5c-.3.3-.7.6-1 1l-.5.5-1.1 1.1-.4.4c-.4.4-.7.8-1.1 1.2-.1.1-.1.2-.2.2-2.3 2.5-4.5 5-6.7 7.8l-.1.1-1.2 1.5c-.1.1-.1.2-.2.3-.4.5-.7 1-1.1 1.5-.1.1-.2.2-.2.3-.3.5-.7 1-1.1 1.5-.1.1-.1.2-.2.3-.3.5-.7 1-1.1 1.6 0 .1-.1.2-.2.3-.3.6-.7 1.1-1.1 1.6 0 0-.1.1-.1.2-3.6 5.6-6.9 11.6-9.8 18l-.9 2.1v.1c-.3.7-.6 1.4-.9 2.2-4.9 11.7-8.6 24.5-10.8 38.2l-8.2 43.8c-2 10.8 2.6 21.7 11.7 27.9 8 5.4 17.5 11.8 25.8 17.3 4.5 3 9.9 4.6 15.3 4.6h7.1c2 2.2 4.3 4.3 6.7 6.3l10.9 8.8c5.8 4.7 13.3 7.3 21.1 7.3h2.3V89.3h-2z"/><path class="st2" d="M660.4 204.6c-2.4-.6-4.9.5-7.3 2.8l5-49.3c0-37-31.5-66.9-70.3-66.9s-70.3 29.9-70.3 66.9l5 49.3c-2.4-2.2-5-3.2-7.3-2.7-6 1.4-8.5 12.6-5.6 24.9 2.9 12.4 10.1 21.3 16.1 19.9.3-.1.7-.2 1-.3l.5 5c1.8 17.5 11.7 33.3 27 43.2l11.6 7.5c5.1 3.3 11.2 5.1 17.4 5.1h9c6.2 0 12.3-1.8 17.4-5.1l11.6-7.5c15.3-9.9 25.2-25.7 27-43.2l.5-5c.3.2.7.3 1.1.4 6 1.4 13.2-7.5 16.1-19.9 2.9-12.6.4-23.7-5.5-25.1z"/><path class="st1" d="M663.9 146.5c-.3-31.7-34.2-57.2-76.1-57.2-41.9 0-75.9 25.6-76.1 57.2l12 72.6 3.5-71.7c15.5 6.9 36.9 11.2 60.6 11.2s45.1-4.3 60.6-11.2l3.5 71.7 12-72.6z"/><path class="st4" d="M588.4 247.9H587c-3.8 0-6.9-3.1-6.9-6.9v-7.1c0-3.8 3.1-6.9 6.9-6.9h1.4c3.8 0 6.9 3.1 6.9 6.9v7.1c0 3.8-3 6.9-6.9 6.9zm16.9 22v1.4c0 3.8-3.1 6.9-6.9 6.9h-21.3c-3.8 0-6.9-3.1-6.9-6.9v-1.4c0-3.8 3.1-6.9 6.9-6.9h21.3c3.8 0 6.9 3.1 6.9 6.9z"/><circle class="st1" cx="558.8" cy="208" r="11.4"/><ellipse class="st3" cx="565" cy="205.9" rx="3.2" ry="3.7"/><circle class="st1" cx="616.7" cy="208" r="11.4"/><ellipse class="st3" cx="623" cy="205.9" rx="3.2" ry="3.7"/><path class="st5" d="m511.6 146.5 9.9 60.1c-2.1-1.7-4.3-2.4-6.4-1.9-6 1.4-8.5 12.6-5.6 24.9 2.9 12.4 10.1 21.3 16.1 19.9.3-.1.7-.2 1-.3l.5 5c1.8 17.5 11.7 33.3 27 43.2l11.6 7.5c5.1 3.3 11.2 5.1 17.4 5.1h4.5V89.2c-41.8 0-75.7 25.6-76 57.3z"/><path class="st1" d="M1043.3 287.4h96.3c5.4 0 10.8-1.6 15.3-4.6 8.4-5.6 17.8-11.9 25.8-17.3 9.1-6.2 13.7-17.1 11.7-27.9l-8.2-43.8c-9.7-59.8-47.5-104.4-92.8-104.4s-83.1 44.6-92.8 104.4l-8.2 43.8c-2 10.8 2.6 21.7 11.7 27.9 8 5.4 17.5 11.8 25.8 17.3 4.6 3 9.9 4.6 15.4 4.6z"/><path class="st2" d="M1154.3 176.7c0-31.2-28.2-56.4-62.9-56.4s-62.9 25.3-62.9 56.4l7.5 78.8c1.4 14.7 9 28.3 21.1 38.2l10.9 8.8c5.8 4.7 13.3 7.3 21.1 7.3h4.6c7.8 0 15.3-2.6 21.1-7.3l10.9-8.8c12.2-9.9 19.7-23.5 21.1-38.2l7.5-78.8z"/><circle class="st1" cx="1065" cy="212.8" r="11.4"/><ellipse class="st3" cx="1071.3" cy="210.7" rx="3.2" ry="3.7"/><circle class="st1" cx="1117.8" cy="212.8" r="11.4"/><ellipse class="st3" cx="1124.1" cy="210.7" rx="3.2" ry="3.7"/><path class="st4" d="M1092.1 253.1h-1.4c-3.8 0-6.9-3.1-6.9-6.9v-7.1c0-3.8 3.1-6.9 6.9-6.9h1.4c3.8 0 6.9 3.1 6.9 6.9v7.1c0 3.8-3.1 6.9-6.9 6.9zm16.9 19c0 3.4-2.8 6.2-6.2 6.2h-22.7c-3.4 0-6.2-2.8-6.2-6.2 0-3.4 2.8-6.2 6.2-6.2h22.7c3.4 0 6.2 2.7 6.2 6.2z"/><path class="st1" d="M1179.5 172.7c-14.3-49-48.3-83.5-88.1-83.5-41.4 0-76.6 37.3-89.7 89.5 10.6 6.3 23 9.9 36.3 9.9 28.4 0 52.8-16.6 64.3-40.7 13 16.8 33.4 27.7 56.3 27.7 7.3.2 14.3-.8 20.9-2.9z"/><path class="st5" d="M1089.4 89.3h-2.8c-.4 0-.8 0-1.2.1-.3 0-.6 0-.9.1l-1.2.1c-.3 0-.6.1-.9.1-.4 0-.7.1-1.1.2-.3 0-.6.1-.9.1-.4 0-.7.1-1.1.2-.3 0-.6.1-.9.2-.4.1-.7.1-1.1.2-.3 0-.6.1-.9.2-.4.1-.7.2-1.1.3-.3.1-.6.1-.8.2-.4.1-.8.2-1.1.3-.3.1-.5.1-.8.2-.4.1-.8.3-1.2.3-.2.1-.5.1-.7.2-.6.2-1.2.4-1.9.6-.2.1-.4.1-.6.2-.4.2-.9.3-1.3.5-.3.1-.5.2-.8.3-.3.1-.7.3-1.1.4-.3.1-.6.3-.9.3-.3.1-.6.3-1 .4l-.9.4c-.3.1-.6.3-.9.4-.3.1-.6.3-.9.4-.3.1-.6.3-.9.4-.3.2-.6.3-.9.5-.3.2-.6.3-.9.5l-.9.5c-.3.2-.6.3-.9.5-.3.2-.6.3-.9.5-.3.2-.6.3-.8.5l-.9.6c-.3.2-.5.3-.8.5l-.9.6c-.2.1-.4.3-.6.4-1.3.9-2.6 1.8-3.8 2.7-.2.1-.3.3-.5.3-.3.3-.7.6-1.1.8-.2.2-.4.3-.6.5-.3.3-.7.6-1 .8-.2.2-.4.3-.6.5-.3.3-.7.6-1 .9-.2.2-.4.3-.6.5l-1 .9c-.2.2-.4.3-.6.5-.3.3-.7.6-1 .9l-.5.5c-.3.3-.7.6-1 1l-.5.5-1.1 1.1-.4.4c-.4.4-.7.8-1.1 1.2-.1.1-.1.2-.2.2-2.3 2.5-4.5 5-6.7 7.8l-.1.1-1.2 1.5c-.1.1-.1.2-.2.3-.4.5-.7 1-1.1 1.5-.1.1-.2.2-.2.3-.3.5-.7 1-1.1 1.5-.1.1-.1.2-.2.3-.3.5-.7 1-1.1 1.6 0 .1-.1.2-.2.3-.3.6-.7 1.1-1.1 1.6 0 0-.1.1-.1.2-3.6 5.6-6.9 11.6-9.8 18l-.9 2.1v.1c-.3.7-.6 1.4-.9 2.2-4.9 11.7-8.6 24.5-10.8 38.2l-8.2 43.8c-2 10.8 2.6 21.7 11.7 27.9 8 5.4 17.5 11.8 25.8 17.3 4.5 3 9.9 4.6 15.3 4.6h7.1c2 2.2 4.3 4.3 6.7 6.3l10.9 8.8c5.8 4.7 13.3 7.3 21.1 7.3h2.3V89.3h-2z"/><path class="st2" d="M1404.8 204.6c-2.4-.6-4.9.5-7.3 2.8l5-49.3c0-37-31.5-66.9-70.3-66.9s-70.3 29.9-70.3 66.9l5 49.3c-2.4-2.2-5-3.2-7.3-2.7-6 1.4-8.5 12.6-5.6 24.9 2.9 12.4 10.1 21.3 16.1 19.9.3-.1.7-.2 1-.3l.5 5c1.8 17.5 11.7 33.3 27 43.2l11.6 7.5c5.1 3.3 11.2 5.1 17.4 5.1h9c6.2 0 12.3-1.8 17.4-5.1l11.6-7.5c15.3-9.9 25.2-25.7 27-43.2l.5-5c.3.2.7.3 1.1.4 6 1.4 13.2-7.5 16.1-19.9 3-12.6.5-23.7-5.5-25.1z"/><path class="st1" d="M1408.4 146.5c-.3-31.7-34.2-57.2-76.1-57.2s-75.9 25.6-76.1 57.2l12 72.6 3.5-71.7c15.5 6.9 36.9 11.2 60.6 11.2s45.1-4.3 60.6-11.2l3.5 71.7 12-72.6z"/><path class="st4" d="M1332.9 247.9h-1.4c-3.8 0-6.9-3.1-6.9-6.9v-7.1c0-3.8 3.1-6.9 6.9-6.9h1.4c3.8 0 6.9 3.1 6.9 6.9v7.1c0 3.8-3 6.9-6.9 6.9zm16.9 22v1.4c0 3.8-3.1 6.9-6.9 6.9h-21.3c-3.8 0-6.9-3.1-6.9-6.9v-1.4c0-3.8 3.1-6.9 6.9-6.9h21.3c3.8 0 6.9 3.1 6.9 6.9z"/><circle class="st1" cx="1303.2" cy="208" r="11.4"/><ellipse class="st3" cx="1309.5" cy="205.9" rx="3.2" ry="3.7"/><circle class="st1" cx="1361.2" cy="208" r="11.4"/><ellipse class="st3" cx="1367.5" cy="205.9" rx="3.2" ry="3.7"/><path class="st5" d="m1256.1 146.5 9.9 60.1c-2.1-1.7-4.3-2.4-6.4-1.9-6 1.4-8.5 12.6-5.6 24.9 2.9 12.4 10.1 21.3 16.1 19.9.3-.1.7-.2 1-.3l.5 5c1.8 17.5 11.7 33.3 27 43.2l11.6 7.5c5.1 3.3 11.2 5.1 17.4 5.1h4.5V89.2c-41.8 0-75.8 25.6-76 57.3z"/><path class="st1" d="M561.6 561.4h96.3c5.4 0 10.8-1.6 15.3-4.6 8.4-5.6 17.8-11.9 25.8-17.3 9.1-6.2 13.7-17.1 11.7-27.9l-8.2-43.8c-9.7-59.8-47.5-104.4-92.8-104.4s-83.1 44.6-92.8 104.4l-8.2 43.8c-2 10.8 2.6 21.7 11.7 27.9 8 5.4 17.5 11.8 25.8 17.3 4.7 3 10 4.6 15.4 4.6z"/><path class="st2" d="M672.7 450.7c0-31.2-28.2-56.4-62.9-56.4s-62.9 25.3-62.9 56.4l7.5 78.8c1.4 14.7 9 28.3 21.1 38.2l10.9 8.8c5.8 4.7 13.3 7.3 21.1 7.3h4.6c7.8 0 15.3-2.6 21.1-7.3l10.9-8.8c12.2-9.9 19.7-23.5 21.1-38.2l7.5-78.8z"/><circle class="st1" cx="583.4" cy="486.8" r="11.4"/><ellipse class="st3" cx="589.7" cy="484.7" rx="3.2" ry="3.7"/><circle class="st1" cx="636.2" cy="486.8" r="11.4"/><ellipse class="st3" cx="642.5" cy="484.7" rx="3.2" ry="3.7"/><path class="st4" d="M610.5 527h-1.4c-3.8 0-6.9-3.1-6.9-6.9V513c0-3.8 3.1-6.9 6.9-6.9h1.4c3.8 0 6.9 3.1 6.9 6.9v7.1c0 3.8-3.1 6.9-6.9 6.9zm16.8 19c0 3.4-2.8 6.2-6.2 6.2h-22.7c-3.4 0-6.2-2.8-6.2-6.2 0-3.4 2.8-6.2 6.2-6.2h22.7c3.5 0 6.2 2.8 6.2 6.2z"/><path class="st1" d="M697.9 446.7c-14.3-49-48.3-83.5-88.1-83.5-41.4 0-76.6 37.3-89.7 89.5 10.6 6.3 23 9.9 36.3 9.9 28.4 0 52.8-16.6 64.3-40.7 13 16.8 33.4 27.7 56.3 27.7 7.2.2 14.2-.9 20.9-2.9z"/><path class="st5" d="M607.8 363.3H605c-.4 0-.8 0-1.2.1-.3 0-.6 0-.9.1l-1.2.1c-.3 0-.6.1-.9.1-.4 0-.7.1-1.1.2-.3 0-.6.1-.9.1-.4 0-.7.1-1.1.2-.3 0-.6.1-.9.2-.4.1-.7.1-1.1.2-.3 0-.6.1-.9.2-.4.1-.7.2-1.1.3-.3.1-.6.1-.8.2-.4.1-.8.2-1.1.3-.3.1-.5.1-.8.2-.4.1-.8.3-1.2.3-.2.1-.5.1-.7.2-.6.2-1.2.4-1.9.6-.2.1-.4.1-.6.2-.4.2-.9.3-1.3.5-.3.1-.5.2-.8.3-.3.1-.7.3-1.1.4-.3.1-.6.3-.9.3-.3.1-.6.3-1 .4l-.9.4c-.3.1-.6.3-.9.4-.3.1-.6.3-.9.4-.3.1-.6.3-.9.4-.3.2-.6.3-.9.5-.3.2-.6.3-.9.5l-.9.5c-.3.2-.6.3-.9.5s-.6.3-.9.5c-.3.2-.6.3-.8.5l-.9.6c-.3.2-.5.3-.8.5l-.9.6c-.2.1-.4.3-.6.4-1.3.9-2.6 1.8-3.8 2.7-.2.1-.3.3-.5.3-.3.3-.7.6-1.1.8-.2.2-.4.3-.6.5-.3.3-.7.6-1 .8-.2.2-.4.3-.6.5-.3.3-.7.6-1 .9-.2.2-.4.3-.6.5l-1 .9c-.2.2-.4.3-.6.5-.3.3-.7.6-1 .9l-.5.5c-.3.3-.7.6-1 1l-.5.5-1.1 1.1-.4.4c-.4.4-.7.8-1.1 1.2-.1.1-.1.2-.2.2-2.3 2.5-4.5 5-6.7 7.8l-.1.1-1.2 1.5c-.1.1-.1.2-.2.3-.4.5-.7 1-1.1 1.5-.1.1-.2.2-.2.3-.3.5-.7 1-1.1 1.5-.1.1-.1.2-.2.3-.3.5-.7 1-1.1 1.6 0 .1-.1.2-.2.3-.3.6-.7 1.1-1.1 1.6 0 0-.1.1-.1.2-3.6 5.6-6.9 11.6-9.8 18l-.9 2.1v.1c-.3.7-.6 1.4-.9 2.2-4.9 11.7-8.6 24.5-10.8 38.2l-8.2 43.8c-2 10.8 2.6 21.7 11.7 27.9 8 5.4 17.5 11.8 25.8 17.3 4.5 3 9.9 4.6 15.3 4.6h7.1c2 2.2 4.3 4.3 6.7 6.3l10.9 8.8c5.8 4.7 13.3 7.3 21.1 7.3h2.3V363.3h-2z"/><path class="st2" d="M923.2 478.5c-2.4-.6-4.9.5-7.3 2.8l5-49.3c0-37-31.5-66.9-70.3-66.9S780.3 395 780.3 432l5 49.3c-2.4-2.2-5-3.2-7.3-2.7-6 1.4-8.5 12.6-5.6 24.9 2.9 12.4 10.1 21.3 16.1 19.9.3-.1.7-.2 1-.3l.5 5c1.8 17.5 11.7 33.3 27 43.2l11.6 7.5c5.1 3.3 11.2 5.1 17.4 5.1h9c6.2 0 12.3-1.8 17.4-5.1l11.6-7.5c15.3-9.9 25.2-25.7 27-43.2l.5-5c.3.2.7.3 1.1.4 6 1.4 13.2-7.5 16.1-19.9 3-12.5.5-23.6-5.5-25.1z"/><path class="st1" d="M926.7 420.5c-.3-31.7-34.2-57.2-76.1-57.2-41.9 0-75.9 25.6-76.1 57.2l12 72.6 3.5-71.7c15.5 6.9 36.9 11.2 60.6 11.2 23.7 0 45.1-4.3 60.6-11.2l3.5 71.7 12-72.6z"/><path class="st4" d="M851.3 521.8h-1.4c-3.8 0-6.9-3.1-6.9-6.9v-7.1c0-3.8 3.1-6.9 6.9-6.9h1.4c3.8 0 6.9 3.1 6.9 6.9v7.1c0 3.8-3.1 6.9-6.9 6.9zm16.8 22.1v1.4c0 3.8-3.1 6.9-6.9 6.9h-21.3c-3.8 0-6.9-3.1-6.9-6.9v-1.4c0-3.8 3.1-6.9 6.9-6.9h21.3c3.9 0 6.9 3.1 6.9 6.9z"/><circle class="st1" cx="821.6" cy="482" r="11.4"/><ellipse class="st3" cx="827.9" cy="479.9" rx="3.2" ry="3.7"/><circle class="st1" cx="879.6" cy="482" r="11.4"/><ellipse class="st3" cx="885.9" cy="479.9" rx="3.2" ry="3.7"/><path class="st5" d="m774.4 420.5 9.9 60.1c-2.1-1.7-4.3-2.4-6.4-1.9-6 1.4-8.5 12.6-5.6 24.9 2.9 12.4 10.1 21.3 16.1 19.9.3-.1.7-.2 1-.3l.5 5c1.8 17.5 11.7 33.3 27 43.2l11.6 7.5c5.1 3.3 11.2 5.1 17.4 5.1h4.5V363.2c-41.7 0-75.7 25.6-76 57.3z"/><path class="st2" d="M1142 478.5c-2.4-.6-4.9.5-7.3 2.8l5-49.3c0-37-31.5-66.9-70.3-66.9S999.1 395 999.1 432l5 49.3c-2.4-2.2-5-3.2-7.3-2.7-6 1.4-8.5 12.6-5.6 24.9 2.9 12.4 10.1 21.3 16.1 19.9.3-.1.7-.2 1-.3l.5 5c1.8 17.5 11.7 33.3 27 43.2l11.6 7.5c5.1 3.3 11.2 5.1 17.4 5.1h9c6.2 0 12.3-1.8 17.4-5.1l11.6-7.5c15.3-9.9 25.2-25.7 27-43.2l.5-5c.3.2.7.3 1.1.4 6 1.4 13.2-7.5 16.1-19.9 3-12.5.5-23.6-5.5-25.1z"/><path class="st1" d="M1145.5 420.5c-.3-31.7-34.2-57.2-76.1-57.2s-75.9 25.6-76.1 57.2l12 72.6 3.5-71.7c15.5 6.9 36.9 11.2 60.6 11.2s45.1-4.3 60.6-11.2l3.5 71.7 12-72.6z"/><path class="st4" d="M1070.1 521.8h-1.4c-3.8 0-6.9-3.1-6.9-6.9v-7.1c0-3.8 3.1-6.9 6.9-6.9h1.4c3.8 0 6.9 3.1 6.9 6.9v7.1c0 3.8-3.1 6.9-6.9 6.9zm16.8 22.1v1.4c0 3.8-3.1 6.9-6.9 6.9h-21.3c-3.8 0-6.9-3.1-6.9-6.9v-1.4c0-3.8 3.1-6.9 6.9-6.9h21.3c3.9 0 6.9 3.1 6.9 6.9z"/><circle class="st1" cx="1040.4" cy="482" r="11.4"/><ellipse class="st3" cx="1046.7" cy="479.9" rx="3.2" ry="3.7"/><circle class="st1" cx="1098.4" cy="482" r="11.4"/><ellipse class="st3" cx="1104.7" cy="479.9" rx="3.2" ry="3.7"/><path class="st5" d="m993.2 420.5 9.9 60.1c-2.1-1.7-4.3-2.4-6.4-1.9-6 1.4-8.5 12.6-5.6 24.9 2.9 12.4 10.1 21.3 16.1 19.9.3-.1.7-.2 1-.3l.5 5c1.8 17.5 11.7 33.3 27 43.2l11.6 7.5c5.1 3.3 11.2 5.1 17.4 5.1h4.5V363.2c-41.7 0-75.7 25.6-76 57.3z"/><path class="st1" d="M1262.1 561.4h96.3c5.4 0 10.8-1.6 15.3-4.6 8.4-5.6 17.8-11.9 25.8-17.3 9.1-6.2 13.7-17.1 11.7-27.9l-8.2-43.8c-9.7-59.8-47.5-104.4-92.8-104.4-45.2 0-83.1 44.6-92.8 104.4l-8.2 43.8c-2 10.8 2.6 21.7 11.7 27.9 8 5.4 17.5 11.8 25.8 17.3 4.6 3 9.9 4.6 15.4 4.6z"/><path class="st2" d="M1373.1 450.7c0-31.2-28.2-56.4-62.9-56.4s-62.9 25.3-62.9 56.4l7.5 78.8c1.4 14.7 9 28.3 21.1 38.2l10.9 8.8c5.8 4.7 13.3 7.3 21.1 7.3h4.6c7.8 0 15.3-2.6 21.1-7.3l10.9-8.8c12.2-9.9 19.7-23.5 21.1-38.2l7.5-78.8z"/><circle class="st1" cx="1283.8" cy="486.8" r="11.4"/><ellipse class="st3" cx="1290.1" cy="484.7" rx="3.2" ry="3.7"/><circle class="st1" cx="1336.6" cy="486.8" r="11.4"/><ellipse class="st3" cx="1342.9" cy="484.7" rx="3.2" ry="3.7"/><path class="st4" d="M1310.9 527h-1.4c-3.8 0-6.9-3.1-6.9-6.9V513c0-3.8 3.1-6.9 6.9-6.9h1.4c3.8 0 6.9 3.1 6.9 6.9v7.1c0 3.8-3.1 6.9-6.9 6.9zm16.8 19c0 3.4-2.8 6.2-6.2 6.2h-22.7c-3.4 0-6.2-2.8-6.2-6.2 0-3.4 2.8-6.2 6.2-6.2h22.7c3.5 0 6.2 2.8 6.2 6.2z"/><path class="st1" d="M1398.3 446.7c-14.3-49-48.3-83.5-88.1-83.5-41.4 0-76.6 37.3-89.7 89.5 10.6 6.3 23 9.9 36.3 9.9 28.4 0 52.8-16.6 64.3-40.7 13 16.8 33.4 27.7 56.3 27.7 7.3.2 14.3-.9 20.9-2.9z"/><path class="st5" d="M1308.2 363.3h-2.8c-.4 0-.8 0-1.2.1-.3 0-.6 0-.9.1l-1.2.1c-.3 0-.6.1-.9.1-.4 0-.7.1-1.1.2-.3 0-.6.1-.9.1-.4 0-.7.1-1.1.2-.3 0-.6.1-.9.2-.4.1-.7.1-1.1.2-.3 0-.6.1-.9.2-.4.1-.7.2-1.1.3-.3.1-.6.1-.8.2-.4.1-.8.2-1.1.3-.3.1-.5.1-.8.2-.4.1-.8.3-1.2.3-.2.1-.5.1-.7.2-.6.2-1.2.4-1.9.6-.2.1-.4.1-.6.2-.4.2-.9.3-1.3.5-.3.1-.5.2-.8.3-.3.1-.7.3-1.1.4-.3.1-.6.3-.9.3-.3.1-.6.3-1 .4l-.9.4c-.3.1-.6.3-.9.4s-.6.3-.9.4c-.3.1-.6.3-.9.4-.3.2-.6.3-.9.5-.3.2-.6.3-.9.5l-.9.5c-.3.2-.6.3-.9.5-.3.2-.6.3-.9.5-.3.2-.6.3-.8.5l-.9.6c-.3.2-.5.3-.8.5l-.9.6c-.2.1-.4.3-.6.4-1.3.9-2.6 1.8-3.8 2.7-.2.1-.3.3-.5.3-.3.3-.7.6-1.1.8-.2.2-.4.3-.6.5-.3.3-.7.6-1 .8-.2.2-.4.3-.6.5-.3.3-.7.6-1 .9-.2.2-.4.3-.6.5l-1 .9c-.2.2-.4.3-.6.5-.3.3-.7.6-1 .9l-.5.5c-.3.3-.7.6-1 1l-.5.5-1.1 1.1-.4.4c-.4.4-.7.8-1.1 1.2-.1.1-.1.2-.2.2-2.3 2.5-4.5 5-6.7 7.8l-.1.1-1.2 1.5c-.1.1-.1.2-.2.3-.4.5-.7 1-1.1 1.5-.1.1-.2.2-.2.3-.3.5-.7 1-1.1 1.5-.1.1-.1.2-.2.3-.3.5-.7 1-1.1 1.6 0 .1-.1.2-.2.3-.3.6-.7 1.1-1.1 1.6 0 0-.1.1-.1.2-3.6 5.6-6.9 11.6-9.8 18l-.9 2.1v.1c-.3.7-.6 1.4-.9 2.2-4.9 11.7-8.6 24.5-10.8 38.2l-8.2 43.8c-2 10.8 2.6 21.7 11.7 27.9 8 5.4 17.5 11.8 25.8 17.3 4.5 3 9.9 4.6 15.3 4.6h7.1c2 2.2 4.3 4.3 6.7 6.3l10.9 8.8c5.8 4.7 13.3 7.3 21.1 7.3h2.3V363.3h-2z"/></svg>