<svg xmlns="http://www.w3.org/2000/svg" viewBox="0 0 1920 673" xml:space="preserve"><path fill="#df7148" d="M0 0h1920v673H0z"/><path d="M562.9 368.8h-56.1l-9.8 31.7h-43.7l62.3-169.8h38.5l62.7 169.8h-44l-9.9-31.7zm-46.3-31.6h36.5l-18.3-58.9-18.2 58.9zm286.8-75h-73.6v26.9h21.1c13.5 0 25.3 2.3 35.7 6.9 10.3 4.6 18.3 11.1 23.9 19.4 5.6 8.4 8.3 17.9 8.3 28.8 0 16.7-6.2 30.3-18.6 40.7-12.4 10.4-29.1 15.6-50 15.6h-61.6V230.7h114.8v31.5zm-73.6 58.4V369h21c8.3 0 14.9-2.3 19.8-7s7.3-10.7 7.3-18.1c0-7-2.4-12.6-7.2-16.9-4.8-4.3-11.5-6.4-20.1-6.4h-20.8zm167.5 79.9V230.7h61c21.8 0 38.5 4 49.9 12 11.4 8 17.1 19.6 17.1 34.9 0 8.8-2 16.3-6.1 22.5-4 6.2-10 10.8-17.8 13.8 8.9 2.3 15.7 6.7 20.4 13.1 4.7 6.4 7.1 14.2 7.1 23.3 0 16.6-5.3 29.1-15.8 37.5-10.5 8.4-26.1 12.6-46.8 12.8h-69zm40.9-99h21.3c8.9-.1 15.3-1.7 19.1-4.9 3.8-3.2 5.7-7.9 5.7-14.2 0-7.2-2.1-12.3-6.2-15.5-4.1-3.2-10.8-4.7-19.9-4.7h-20.1v39.3zm0 26.8V369H965c7.4 0 13.1-1.7 17-5.1 4-3.4 5.9-8.1 5.9-14.3 0-14.2-7-21.3-21.1-21.3h-28.6zm287.2-66h-73.8v138.2h-40.9V230.7h114.8v31.6zm237 180h-36.7v-41.8h-92.5v41.6h-37.9l-2.9-73.1h12c6.3-4.2 11.4-11.4 15.2-21.6 3.8-10.2 6.6-24.9 8.2-44l5.2-72.7h115.6V369h18.1l-4.3 73.3zM1350.7 369h57.2V262.3h-36.2l-3.1 42.5c-2.4 27.5-8.4 48.9-17.9 64.2z" fill="#a53934"/></svg>