<svg xmlns="http://www.w3.org/2000/svg" viewBox="0 0 1920 673" xml:space="preserve"><style>.st2{opacity:.2;fill:#79b1d1}.st3{fill:#35965f}.st4{fill:#e3c672}</style><path fill="#ddd" d="M0 0h1920v673H0z"/><circle cx="960" cy="336.5" r="300" fill="#79b1d1"/><path class="st2" d="M1258.8 0H661.2C568.4 82.4 510 202.6 510 336.5S568.4 590.6 661.2 673h597.6c92.8-82.4 151.2-202.6 151.2-336.5S1351.6 82.4 1258.8 0z"/><path class="st2" d="M863.4 673h193.2c146.3-41.9 253.4-176.7 253.4-336.5S1202.9 41.9 1056.6 0H863.4C717.1 41.9 610 176.7 610 336.5S717.1 631.1 863.4 673z"/><path class="st2" d="M1176.3 0H743.7C633.2 71.2 560 195.3 560 336.5S633.2 601.8 743.7 673h432.7c110.5-71.2 183.7-195.3 183.7-336.5S1286.8 71.2 1176.3 0z"/><path class="st3" d="M1259.4 354.6c-30.1-13.8-59.3-24.4-85.4-31.5-1.3-19.8-15.2-37.3-35.5-42.5-11.6-3-23.4-1.4-33.5 3.8-23.5-3.5-47.2-2.5-70.2 3.3l-26.5 6.6c-14.7 3.7-29.8 3.6-44.5-.2l-96.5-24.8c-21.5-5.5-40.2-18.6-52.5-37-9.3-13.8-23.8-24.2-41.7-27.9-33.7-7-67.5 13.3-77.1 46.3-7 23.9 0 48.4 16 65 8.1 8.8 17 16.8 26.8 23.7L1107 598.2c86.3-48.7 146.2-138.9 152.4-243.6z"/><path class="st4" d="m879.7 348.5-1.5 33.2c-.2 3 3.8 4.3 5.5 1.7l17.5-27.9-21.5-7zm-27.3-18.7-1.5 33.2c-.2 3 3.8 4.3 5.5 1.7l17.5-27.9-21.5-7zm-100.5-46.2-3.2 39.6c-.4 3.7 3.7 5 5.5 1.9l19.1-33.9c0-.1-21.4-7.6-21.4-7.6zM723.8 254l-11 42.9c-1 4 2.6 5.8 4.9 2.4l24.9-35.2c.1 0-18.8-10.1-18.8-10.1zM909 341.3l1.8 33.2c.2 3.1 4.4 3.9 5.7 1.2l14.6-29.5-22.1-4.9zm25.7 2.2 1.8 33.2c.2 3.1 4.4 3.9 5.7 1.2l14.6-29.5-22.1-4.9zm40.8 29.6-1.5 33.2c-.2 3 3.8 4.3 5.5 1.7l17.5-27.9-21.5-7zm-15.1-16.8-5.9 32.6c-.5 3.1 3.3 4.8 5.3 2.5l20.9-25.3-20.3-9.8z"/><path class="st4" d="m995.4 381.1-1.5 33.2c-.2 3 3.8 4.3 5.5 1.7l17.5-27.9-21.5-7zm21.9 5.7-1.5 33.2c-.2 3 3.8 4.3 5.5 1.7l17.5-27.9-21.5-7z"/><path class="st4" d="m1036.4 391.7-1.5 33.2c-.2 3 3.8 4.3 5.5 1.7l17.5-27.9-21.5-7z"/><path class="st4" d="m1054.2 396.3-1.5 33.2c-.2 3 3.8 4.3 5.5 1.7l17.5-27.9-21.5-7z"/><path class="st4" d="m1070.7 400.5-1.5 33.2c-.2 3 3.8 4.3 5.5 1.7l17.5-27.9-21.5-7z"/><path class="st4" d="m1089.9 399.6-1.5 33.2c-.2 3 3.8 4.3 5.5 1.7l17.5-27.9-21.5-7z"/><path class="st4" d="m1103.9 401.7-1.5 33.2c-.2 3 3.8 4.3 5.5 1.7l17.5-27.9-21.5-7zm-261.8-97.4-10.3 31.5c-.9 3 2.6 5.2 4.9 3.2l24.2-22.2-18.8-12.5zm-13.2-19.6-14.1 29.9c-1.3 2.7 1.8 5.4 4.2 3.6l26.3-19.5-16.4-14zm-42.5-7.7 3 33c.2 3.1 4.3 3.7 5.5.8l12.7-30.2-21.2-3.6z"/><path class="st3" d="m1178.7 388.8-113.6-35-138.6-40-143.6-60.2-34-49.6c-15 2.6-28.7 10.1-38.8 21.4 5.3 15.4 21.2 58 38.2 66 20.9 9.7 43.9-6.2 66.5 2.5s40.1 48.3 63.4 60.1c23.2 11.8 44.6 2.7 86.3 16.3s64.2 45.7 94.3 53.4c30.1 7.7 111.8 2.4 149.1 10.6 12 2.6 22.3 6.3 31.8 10.7 3.6-9.4 6.8-19 9.5-28.8-28.2-11.2-70.5-27.4-70.5-27.4z"/><path class="st4" d="M1137.2 297.9c-22.5-5.8-45-2.5-64.1 7.5 4.7-.1 9.5.4 14.3 1.6 9.3 2.4 17.3 7.1 23.7 13.4 3.7 3.6 8.1 6.5 13.2 7.8l.8.2c7.7 2 15.4 2.5 22.9 1.7 14.1-1.5 17.1-21 4.2-27-4.9-2.2-9.8-3.9-15-5.2z"/><path d="M1158.1 308.4c-1.3-2.2-3.5-4.1-6.2-5.4-4.7-2.1-9.6-3.9-14.8-5.3-9.7-2.5-19.5-3.2-28.8-2.6-.6 1.3-1.1 2.8-1.5 4.3-1.7 6.7-.7 13.5 2.4 19.1.6.6 1.2 1 1.8 1.6 3.7 3.6 8.1 6.5 13.2 7.8l.8.2c5.6 1.4 11.3 2 16.9 2 7.5-3 13.5-9.4 15.6-17.7.3-1.2.5-2.6.6-4z" fill="#4caf50"/><path d="M1148 315.3c1.3-5.1.9-10.1-.9-14.2-3.2-1.3-6.6-2.3-10-3.2-4.5-1.2-9-1.9-13.4-2.4-3.3 2.8-6 6.8-7.2 11.7-2 7.9.2 15.7 4.9 20.1.9.4 1.7.6 2.7.8l.8.2c3.4.9 6.8 1.4 10.2 1.7 5.9-1.8 11-7.4 12.9-14.7z" fill="#36434f"/><path d="M1208.5 431.5c-19.1-4.2-49.3-4.8-78.4-5.5-28.7-.7-55.9-1.2-70.5-5-14-3.6-26.6-12.8-40-22.7-15-11-31.9-23.4-54.1-30.7-21.6-7-37.3-8.1-51.4-9-13.2-.9-23.7-1.6-34.5-7.1-10.7-5.4-20.6-17.6-30.1-29.3-10.4-12.9-21.3-26.2-33.5-30.9-11.8-4.5-23.5-2.8-34.9-1.1-11.1 1.7-21.7 3.3-31.5-1.4-15-7.1-30.8-46.6-37.1-65.7-1.6 1.5-3 3.2-4.3 4.9 5.9 17 21.6 57.8 39.1 66.1 11.3 5.3 23.2 3.5 34.7 1.8 10.6-1.6 21.6-3.2 31.9.8 10.9 4.3 21.2 17 31.2 29.2 9.9 12.2 20.1 24.7 31.9 30.8 12 6.1 23.5 6.9 36.7 7.7 13.6.9 29.1 1.9 50 8.8 21.3 6.9 37.9 19.1 52.5 29.8 13.9 10.1 27 19.8 42 23.6 15.2 3.9 42.8 4.6 71.8 5.2 28.9.7 58.9 1.4 77.4 5.4 11.8 2.6 22 6.3 31.5 10.7.7-1.8 1.4-3.5 2.1-5.3-9.9-4.7-20.3-8.5-32.5-11.1z" fill="#227a46"/></svg>