<svg version="1.1" xmlns="http://www.w3.org/2000/svg" x="0" y="0" viewBox="0 0 304 448" xml:space="preserve"><style type="text/css">.st2,.st3{fill:none;stroke-width:4;stroke-miterlimit:10;stroke:#cc584c}.st3{stroke:#2e86b7}.st5{fill:#2e86b7}.st6{fill:#cc584c}.st7{fill:#999}.st8{fill:#fff}</style><path d="M8 44h288M8 80h288M8 116h288M8 152h288M8 188h288M8 224h288M8 260h288M8 296h288M8 332h288M8 368h288M8 404h288M44 440V8m36 432V8m36 396V44m36 360V44m36 360V44m36 396V8m36 432V8" fill="none" stroke-width="4" stroke-miterlimit="10" stroke="#ddd"/><path d="M8 44l36 36m0-36L8 80m36-36l36 36m0-36L44 80m36-36l36 36m0-36L80 80m36-36l36 36m0-36l-36 36m36-36l36 36m0-36l-36 36m36-36l36 36m0-36l-36 36m36-36l36 36m0-36l-36 36m36-36l36 36m0-36l-36 36M44 8L8 44M44 8l36 36m0-36L44 44M80 8l36 36M224 8l-36 36m36-36l36 36m0-36l-36 36m36-36l36 36M8 80l36 36m0-36L8 116m36-36l36 36m0-36l-36 36m36-36l36 36m0-36l-36 36m36-36l36 36m0-36l-36 36m36-36l36 36m0-36l-36 36m36-36l36 36m0-36l-36 36m36-36l36 36m0-36l-36 36m36-36l36 36m0-36l-36 36M8 116l36 36m0-36L8 152m36-36l36 36m0-36l-36 36m36-36l36 36m0-36l-36 36m36-36l36 36m0-36l-36 36m36-36l36 36m0-36l-36 36m36-36l36 36m0-36l-36 36m36-36l36 36m0-36l-36 36m36-36l36 36m0-36l-36 36M8 152l36 36m0-36L8 188m36-36l36 36m0-36l-36 36m36-36l36 36m0-36l-36 36m36-36l36 36m0-36l-36 36m36-36l36 36m0-36l-36 36m36-36l36 36m0-36l-36 36m36-36l36 36m0-36l-36 36m36-36l36 36m0-36l-36 36M8 188l36 36m0-36L8 224m36-36l36 36m0-36l-36 36m36-36l36 36m0-36l-36 36m36-36l36 36m0-36l-36 36m36-36l36 36m0-36l-36 36m36-36l36 36m0-36l-36 36m36-36l36 36m0-36l-36 36m36-36l36 36m0-36l-36 36M8 224l36 36m0-36L8 260m36-36l36 36m0-36l-36 36m36-36l36 36m0-36l-36 36m36-36l36 36m0-36l-36 36m36-36l36 36m0-36l-36 36m36-36l36 36m0-36l-36 36m36-36l36 36m0-36l-36 36m36-36l36 36m0-36l-36 36M8 260l36 36m0-36L8 296m36-36l36 36m0-36l-36 36m36-36l36 36m0-36l-36 36m36-36l36 36m0-36l-36 36m36-36l36 36m0-36l-36 36m36-36l36 36m0-36l-36 36m36-36l36 36m0-36l-36 36m36-36l36 36m0-36l-36 36M8 296l36 36m0-36L8 332m36-36l36 36m0-36l-36 36m36-36l36 36m0-36l-36 36m36-36l36 36m0-36l-36 36m36-36l36 36m0-36l-36 36m36-36l36 36m0-36l-36 36m36-36l36 36m0-36l-36 36m36-36l36 36m0-36l-36 36M8 332l36 36m0-36L8 368m36-36l36 36m0-36l-36 36m36-36l36 36m0-36l-36 36m36-36l36 36m0-36l-36 36m36-36l36 36m0-36l-36 36m36-36l36 36m0-36l-36 36m36-36l36 36m0-36l-36 36m36-36l36 36m0-36l-36 36M8 368l36 36m0-36L8 404m36-36l36 36m0-36l-36 36m36-36l36 36m0-36l-36 36m36-36l36 36m0-36l-36 36m36-36l36 36m0-36l-36 36m36-36l36 36m0-36l-36 36m36-36l36 36m0-36l-36 36m36-36l36 36m0-36l-36 36M8 404l36 36m0-36l36 36m0-36l-36 36m72-36l-36 36m108-36l36 36m0-36l36 36m0-36l-36 36m72-36l-36 36" stroke="#ddd" stroke-linecap="square" fill="none" stroke-width="4" stroke-miterlimit="10"/><path class="st2" d="M116 8v36m36-36v36m36-36v36"/><path class="st3" d="M116 440v-36m36 0v36m36-36v36"/><circle cx="152" cy="224" r="8" fill="#4caf50"/><path class="st2" d="M116 8L80 44m36-36l36 36m0-36l-36 36m36-36l36 36m0-36l-36 36m36-36l36 36"/><path class="st3" d="M80 404l36 36m0-36l36 36m0-36l-36 36m36-36l36 36m0-36l-36 36m72-36l-36 36"/><circle class="st5" cx="116" cy="440" r="8"/><circle class="st5" cx="152" cy="440" r="8"/><circle class="st5" cx="188" cy="440" r="8"/><circle class="st6" cx="116" cy="8" r="8"/><circle class="st6" cx="152" cy="8" r="8"/><circle class="st6" cx="188" cy="8" r="8"/><circle class="st7" cx="44" cy="44" r="8"/><circle class="st7" cx="44" cy="80" r="8"/><circle class="st7" cx="44" cy="116" r="8"/><circle class="st7" cx="44" cy="152" r="8"/><circle class="st7" cx="44" cy="188" r="8"/><circle class="st7" cx="44" cy="224" r="8"/><circle class="st7" cx="44" cy="260" r="8"/><circle class="st7" cx="44" cy="296" r="8"/><circle class="st7" cx="44" cy="332" r="8"/><circle class="st7" cx="44" cy="368" r="8"/><circle class="st7" cx="44" cy="404" r="8"/><circle class="st7" cx="80" cy="44" r="8"/><circle class="st7" cx="80" cy="80" r="8"/><circle class="st7" cx="80" cy="116" r="8"/><circle class="st7" cx="80" cy="152" r="8"/><circle class="st7" cx="80" cy="188" r="8"/><circle class="st7" cx="80" cy="224" r="8"/><circle class="st7" cx="80" cy="260" r="8"/><circle class="st7" cx="80" cy="296" r="8"/><circle class="st7" cx="80" cy="332" r="8"/><circle class="st7" cx="80" cy="368" r="8"/><circle class="st7" cx="80" cy="404" r="8"/><circle class="st7" cx="116" cy="44" r="8"/><circle class="st7" cx="116" cy="80" r="8"/><circle class="st7" cx="116" cy="116" r="8"/><circle class="st7" cx="116" cy="152" r="8"/><circle class="st7" cx="116" cy="188" r="8"/><circle class="st7" cx="116" cy="224" r="8"/><circle class="st7" cx="116" cy="260" r="8"/><circle class="st7" cx="116" cy="296" r="8"/><circle class="st7" cx="116" cy="332" r="8"/><circle class="st7" cx="116" cy="368" r="8"/><circle class="st7" cx="116" cy="404" r="8"/><circle class="st7" cx="152" cy="44" r="8"/><circle class="st7" cx="152" cy="80" r="8"/><circle class="st7" cx="152" cy="116" r="8"/><circle class="st7" cx="152" cy="152" r="8"/><circle class="st7" cx="152" cy="188" r="8"/><circle class="st7" cx="152" cy="260" r="8"/><circle class="st7" cx="152" cy="296" r="8"/><circle class="st7" cx="152" cy="332" r="8"/><circle class="st7" cx="152" cy="368" r="8"/><circle class="st7" cx="152" cy="404" r="8"/><circle class="st7" cx="188" cy="44" r="8"/><circle class="st7" cx="188" cy="80" r="8"/><circle class="st7" cx="188" cy="116" r="8"/><circle class="st7" cx="188" cy="152" r="8"/><circle class="st7" cx="188" cy="188" r="8"/><circle class="st7" cx="188" cy="224" r="8"/><circle class="st7" cx="188" cy="260" r="8"/><circle class="st7" cx="188" cy="296" r="8"/><circle class="st7" cx="188" cy="332" r="8"/><circle class="st7" cx="188" cy="368" r="8"/><circle class="st7" cx="188" cy="404" r="8"/><circle class="st7" cx="224" cy="44" r="8"/><circle class="st7" cx="224" cy="80" r="8"/><circle class="st7" cx="224" cy="116" r="8"/><circle class="st7" cx="224" cy="152" r="8"/><circle class="st7" cx="224" cy="188" r="8"/><circle class="st7" cx="224" cy="224" r="8"/><circle class="st7" cx="224" cy="260" r="8"/><circle class="st7" cx="224" cy="296" r="8"/><circle class="st7" cx="224" cy="332" r="8"/><circle class="st7" cx="224" cy="368" r="8"/><circle class="st7" cx="224" cy="404" r="8"/><circle class="st7" cx="260" cy="44" r="8"/><circle class="st7" cx="260" cy="80" r="8"/><circle class="st7" cx="260" cy="116" r="8"/><circle class="st7" cx="260" cy="152" r="8"/><circle class="st7" cx="260" cy="188" r="8"/><circle class="st7" cx="260" cy="224" r="8"/><circle class="st7" cx="260" cy="260" r="8"/><circle class="st7" cx="260" cy="296" r="8"/><circle class="st7" cx="260" cy="332" r="8"/><circle class="st7" cx="260" cy="368" r="8"/><circle class="st7" cx="260" cy="404" r="8"/><circle class="st8" cx="8" cy="44" r="7"/><path class="st7" d="M8 38c3.3 0 6 2.7 6 6s-2.7 6-6 6-6-2.7-6-6 2.7-6 6-6m0-2c-4.4 0-8 3.6-8 8s3.6 8 8 8 8-3.6 8-8-3.6-8-8-8z"/><circle class="st8" cx="8" cy="80" r="7"/><path class="st7" d="M8 74c3.3 0 6 2.7 6 6s-2.7 6-6 6-6-2.7-6-6 2.7-6 6-6m0-2c-4.4 0-8 3.6-8 8s3.6 8 8 8 8-3.6 8-8-3.6-8-8-8z"/><circle class="st8" cx="8" cy="116" r="7"/><path class="st7" d="M8 110c3.3 0 6 2.7 6 6s-2.7 6-6 6-6-2.7-6-6 2.7-6 6-6m0-2c-4.4 0-8 3.6-8 8s3.6 8 8 8 8-3.6 8-8-3.6-8-8-8z"/><circle class="st8" cx="8" cy="152" r="7"/><path class="st7" d="M8 146c3.3 0 6 2.7 6 6s-2.7 6-6 6-6-2.7-6-6 2.7-6 6-6m0-2c-4.4 0-8 3.6-8 8s3.6 8 8 8 8-3.6 8-8-3.6-8-8-8z"/><circle class="st8" cx="8" cy="188" r="7"/><path class="st7" d="M8 182c3.3 0 6 2.7 6 6s-2.7 6-6 6-6-2.7-6-6 2.7-6 6-6m0-2c-4.4 0-8 3.6-8 8s3.6 8 8 8 8-3.6 8-8-3.6-8-8-8z"/><circle class="st8" cx="8" cy="224" r="7"/><path class="st7" d="M8 218c3.3 0 6 2.7 6 6s-2.7 6-6 6-6-2.7-6-6 2.7-6 6-6m0-2c-4.4 0-8 3.6-8 8s3.6 8 8 8 8-3.6 8-8-3.6-8-8-8z"/><circle class="st8" cx="8" cy="260" r="7"/><path class="st7" d="M8 254c3.3 0 6 2.7 6 6s-2.7 6-6 6-6-2.7-6-6 2.7-6 6-6m0-2c-4.4 0-8 3.6-8 8s3.6 8 8 8 8-3.6 8-8-3.6-8-8-8z"/><circle class="st8" cx="8" cy="296" r="7"/><path class="st7" d="M8 290c3.3 0 6 2.7 6 6s-2.7 6-6 6-6-2.7-6-6 2.7-6 6-6m0-2c-4.4 0-8 3.6-8 8s3.6 8 8 8 8-3.6 8-8-3.6-8-8-8z"/><circle class="st8" cx="8" cy="332" r="7"/><path class="st7" d="M8 326c3.3 0 6 2.7 6 6s-2.7 6-6 6-6-2.7-6-6 2.7-6 6-6m0-2c-4.4 0-8 3.6-8 8s3.6 8 8 8 8-3.6 8-8-3.6-8-8-8z"/><circle class="st8" cx="8" cy="368" r="7"/><path class="st7" d="M8 362c3.3 0 6 2.7 6 6s-2.7 6-6 6-6-2.7-6-6 2.7-6 6-6m0-2c-4.4 0-8 3.6-8 8s3.6 8 8 8 8-3.6 8-8-3.6-8-8-8z"/><circle class="st8" cx="8" cy="404" r="7"/><path class="st7" d="M8 398c3.3 0 6 2.7 6 6s-2.7 6-6 6-6-2.7-6-6 2.7-6 6-6m0-2c-4.4 0-8 3.6-8 8s3.6 8 8 8 8-3.6 8-8-3.6-8-8-8z"/><circle class="st8" cx="44" cy="440" r="7"/><path class="st7" d="M44 434c3.3 0 6 2.7 6 6s-2.7 6-6 6-6-2.7-6-6 2.7-6 6-6m0-2c-4.4 0-8 3.6-8 8s3.6 8 8 8 8-3.6 8-8-3.6-8-8-8z"/><circle class="st8" cx="44" cy="8" r="7"/><path class="st7" d="M44 2c3.3 0 6 2.7 6 6s-2.7 6-6 6-6-2.7-6-6 2.7-6 6-6m0-2c-4.4 0-8 3.6-8 8s3.6 8 8 8 8-3.6 8-8-3.6-8-8-8z"/><circle class="st8" cx="80" cy="440" r="7"/><path class="st7" d="M80 434c3.3 0 6 2.7 6 6s-2.7 6-6 6-6-2.7-6-6 2.7-6 6-6m0-2c-4.4 0-8 3.6-8 8s3.6 8 8 8 8-3.6 8-8-3.6-8-8-8z"/><circle class="st8" cx="80" cy="8" r="7"/><path class="st7" d="M80 2c3.3 0 6 2.7 6 6s-2.7 6-6 6-6-2.7-6-6 2.7-6 6-6m0-2c-4.4 0-8 3.6-8 8s3.6 8 8 8 8-3.6 8-8-3.6-8-8-8z"/><circle class="st8" cx="224" cy="440" r="7"/><path class="st7" d="M224 434c3.3 0 6 2.7 6 6s-2.7 6-6 6-6-2.7-6-6 2.7-6 6-6m0-2c-4.4 0-8 3.6-8 8s3.6 8 8 8 8-3.6 8-8-3.6-8-8-8z"/><circle class="st8" cx="224" cy="8" r="7"/><path class="st7" d="M224 2c3.3 0 6 2.7 6 6s-2.7 6-6 6-6-2.7-6-6 2.7-6 6-6m0-2c-4.4 0-8 3.6-8 8s3.6 8 8 8 8-3.6 8-8-3.6-8-8-8z"/><circle class="st8" cx="260" cy="440" r="7"/><path class="st7" d="M260 434c3.3 0 6 2.7 6 6s-2.7 6-6 6-6-2.7-6-6 2.7-6 6-6m0-2c-4.4 0-8 3.6-8 8s3.6 8 8 8 8-3.6 8-8-3.6-8-8-8z"/><circle class="st8" cx="260" cy="8" r="7"/><path class="st7" d="M260 2c3.3 0 6 2.7 6 6s-2.7 6-6 6-6-2.7-6-6 2.7-6 6-6m0-2c-4.4 0-8 3.6-8 8s3.6 8 8 8 8-3.6 8-8-3.6-8-8-8z"/><circle class="st8" cx="296" cy="44" r="7"/><path class="st7" d="M296 38c3.3 0 6 2.7 6 6s-2.7 6-6 6-6-2.7-6-6 2.7-6 6-6m0-2c-4.4 0-8 3.6-8 8s3.6 8 8 8 8-3.6 8-8-3.6-8-8-8z"/><circle class="st8" cx="296" cy="80" r="7"/><path class="st7" d="M296 74c3.3 0 6 2.7 6 6s-2.7 6-6 6-6-2.7-6-6 2.7-6 6-6m0-2c-4.4 0-8 3.6-8 8s3.6 8 8 8 8-3.6 8-8-3.6-8-8-8z"/><circle class="st8" cx="296" cy="116" r="7"/><path class="st7" d="M296 110c3.3 0 6 2.7 6 6s-2.7 6-6 6-6-2.7-6-6 2.7-6 6-6m0-2c-4.4 0-8 3.6-8 8s3.6 8 8 8 8-3.6 8-8-3.6-8-8-8z"/><circle class="st8" cx="296" cy="152" r="7"/><path class="st7" d="M296 146c3.3 0 6 2.7 6 6s-2.7 6-6 6-6-2.7-6-6 2.7-6 6-6m0-2c-4.4 0-8 3.6-8 8s3.6 8 8 8 8-3.6 8-8-3.6-8-8-8z"/><circle class="st8" cx="296" cy="188" r="7"/><path class="st7" d="M296 182c3.3 0 6 2.7 6 6s-2.7 6-6 6-6-2.7-6-6 2.7-6 6-6m0-2c-4.4 0-8 3.6-8 8s3.6 8 8 8 8-3.6 8-8-3.6-8-8-8z"/><circle class="st8" cx="296" cy="224" r="7"/><path class="st7" d="M296 218c3.3 0 6 2.7 6 6s-2.7 6-6 6-6-2.7-6-6 2.7-6 6-6m0-2c-4.4 0-8 3.6-8 8s3.6 8 8 8 8-3.6 8-8-3.6-8-8-8z"/><circle class="st8" cx="296" cy="260" r="7"/><path class="st7" d="M296 254c3.3 0 6 2.7 6 6s-2.7 6-6 6-6-2.7-6-6 2.7-6 6-6m0-2c-4.4 0-8 3.6-8 8s3.6 8 8 8 8-3.6 8-8-3.6-8-8-8z"/><circle class="st8" cx="296" cy="296" r="7"/><path class="st7" d="M296 290c3.3 0 6 2.7 6 6s-2.7 6-6 6-6-2.7-6-6 2.7-6 6-6m0-2c-4.4 0-8 3.6-8 8s3.6 8 8 8 8-3.6 8-8-3.6-8-8-8z"/><circle class="st8" cx="296" cy="332" r="7"/><path class="st7" d="M296 326c3.3 0 6 2.7 6 6s-2.7 6-6 6-6-2.7-6-6 2.7-6 6-6m0-2c-4.4 0-8 3.6-8 8s3.6 8 8 8 8-3.6 8-8-3.6-8-8-8z"/><circle class="st8" cx="296" cy="368" r="7"/><path class="st7" d="M296 362c3.3 0 6 2.7 6 6s-2.7 6-6 6-6-2.7-6-6 2.7-6 6-6m0-2c-4.4 0-8 3.6-8 8s3.6 8 8 8 8-3.6 8-8-3.6-8-8-8z"/><circle class="st8" cx="296" cy="404" r="7"/><path class="st7" d="M296 398c3.3 0 6 2.7 6 6s-2.7 6-6 6-6-2.7-6-6 2.7-6 6-6m0-2c-4.4 0-8 3.6-8 8s3.6 8 8 8 8-3.6 8-8-3.6-8-8-8z"/></svg>