<svg version="1.1" xmlns="http://www.w3.org/2000/svg" x="0" y="0" viewBox="0 0 916 916" xml:space="preserve"><style type="text/css">.st0{fill:none;stroke:#ddd;stroke-width:4;stroke-miterlimit:10}.st1{fill:#36434f}.st2,.st3{fill:#2e86b7;stroke:#fff;stroke-miterlimit:10}.st3{fill:#cc584c}</style><path class="st0" d="M2 44h288M2 80h288M2 116h288M2 152h288M2 188h288M2 224h288M2 260h288M2 296h288M2 332h288M2 368h288M2 404h288M38 440V8m36 432V8m36 432V8m36 432V8m36 432V8m36 432V8m36 432V8"/><circle class="st1" cx="146" cy="8" r="8"/><circle class="st1" cx="182" cy="8" r="8"/><circle class="st1" cx="110" cy="8" r="8"/><circle class="st1" cx="146" cy="440" r="8"/><circle class="st1" cx="182" cy="440" r="8"/><circle class="st1" cx="110" cy="440" r="8"/><path class="st1" d="M288 10v428H4V10h284m4-4H0v436h292V6z"/><path class="st2" d="M184.1 185.9c-1.2-1.2-3.1-1.2-4.2 0l-36 36c-1.2 1.2-1.2 3.1 0 4.2.6.6 1.4.9 2.1.9s1.5-.3 2.1-.9l36-36c1.2-1.2 1.2-3 0-4.2z"/><circle class="st1" cx="182" cy="188" r="12"/><path class="st0" d="M314 44h288M314 80h288m-288 36h288m-288 36h288m-288 36h288m-288 36h288m-288 36h288m-288 36h288m-288 36h288m-288 36h288m-288 36h288m-252 36V8m36 432V8m36 432V8m36 432V8m36 432V8m36 432V8m36 432V8"/><circle class="st1" cx="458" cy="8" r="8"/><circle class="st1" cx="494" cy="8" r="8"/><circle class="st1" cx="422" cy="8" r="8"/><circle class="st1" cx="458" cy="440" r="8"/><circle class="st1" cx="494" cy="440" r="8"/><circle class="st1" cx="422" cy="440" r="8"/><path class="st1" d="M600 10v428H316V10h284m4-4H312v436h292V6z"/><path class="st2" d="M496.1 185.9c-1.2-1.2-3.1-1.2-4.2 0l-36 36c-1.2 1.2-1.2 3.1 0 4.2.6.6 1.4.9 2.1.9s1.5-.3 2.1-.9l36-36c1.2-1.2 1.2-3 0-4.2z"/><path class="st3" d="M494 185h-36c-1.7 0-3 1.3-3 3s1.3 3 3 3h36c1.7 0 3-1.3 3-3s-1.3-3-3-3z"/><circle class="st1" cx="458" cy="188" r="12"/><path class="st0" d="M626 44h288M626 80h288m-288 36h288m-288 36h288m-288 36h288m-288 36h288m-288 36h288m-288 36h288m-288 36h288m-288 36h288m-288 36h288m-252 36V8m36 432V8m36 432V8m36 432V8m36 432V8m36 432V8m36 432V8"/><circle class="st1" cx="770" cy="8" r="8"/><circle class="st1" cx="806" cy="8" r="8"/><circle class="st1" cx="734" cy="8" r="8"/><circle class="st1" cx="770" cy="440" r="8"/><circle class="st1" cx="806" cy="440" r="8"/><circle class="st1" cx="734" cy="440" r="8"/><path class="st1" d="M912 10v428H628V10h284m4-4H624v436h292V6z"/><path class="st2" d="M808.1 185.9c-1.2-1.2-3.1-1.2-4.2 0l-36 36c-1.2 1.2-1.2 3.1 0 4.2.6.6 1.4.9 2.1.9s1.5-.3 2.1-.9l36-36c1.2-1.2 1.2-3 0-4.2z"/><path class="st3" d="M806 185h-36c-1.7 0-3 1.3-3 3s1.3 3 3 3h36c1.7 0 3-1.3 3-3s-1.3-3-3-3z"/><circle class="st1" cx="842" cy="260" r="12"/><path class="st2" d="M844.1 257.9l-72-72c-1.2-1.2-3.1-1.2-4.2 0-1.2 1.2-1.2 3.1 0 4.2l72 72c.6.6 1.4.9 2.1.9s1.5-.3 2.1-.9c1.2-1.2 1.2-3 0-4.2z"/><path class="st0" d="M2 512h288M2 548h288M2 584h288M2 620h288M2 656h288M2 692h288M2 728h288M2 764h288M2 800h288M2 836h288M2 872h288M38 908V476m36 432V476m36 432V476m36 432V476m36 432V476m36 432V476m36 432V476"/><circle class="st1" cx="146" cy="476" r="8"/><circle class="st1" cx="182" cy="476" r="8"/><circle class="st1" cx="110" cy="476" r="8"/><circle class="st1" cx="146" cy="908" r="8"/><circle class="st1" cx="182" cy="908" r="8"/><circle class="st1" cx="110" cy="908" r="8"/><path class="st1" d="M288 478v428H4V478h284m4-4H0v436h292V474z"/><path class="st2" d="M184.1 653.9c-1.2-1.2-3.1-1.2-4.2 0l-36 36c-1.2 1.2-1.2 3.1 0 4.2.6.6 1.4.9 2.1.9s1.5-.3 2.1-.9l36-36c1.2-1.2 1.2-3 0-4.2z"/><path class="st3" d="M182 653h-36c-1.7 0-3 1.3-3 3s1.3 3 3 3h36c1.7 0 3-1.3 3-3s-1.3-3-3-3z"/><path class="st2" d="M220.1 725.9l-72-72c-1.2-1.2-3.1-1.2-4.2 0-1.2 1.2-1.2 3.1 0 4.2l72 72c.6.6 1.4.9 2.1.9s1.5-.3 2.1-.9c1.2-1.2 1.2-3 0-4.2z"/><path class="st3" d="M254 725h-36c-1.7 0-3 1.3-3 3s1.3 3 3 3h36c1.7 0 3-1.3 3-3s-1.3-3-3-3z"/><circle class="st1" cx="254" cy="728" r="12"/><path class="st0" d="M314 512h288m-288 36h288m-288 36h288m-288 36h288m-288 36h288m-288 36h288m-288 36h288m-288 36h288m-288 36h288m-288 36h288m-288 36h288m-252 36V476m36 432V476m36 432V476m36 432V476m36 432V476m36 432V476m36 432V476"/><circle class="st1" cx="458" cy="476" r="8"/><circle class="st1" cx="494" cy="476" r="8"/><circle class="st1" cx="422" cy="476" r="8"/><circle class="st1" cx="458" cy="908" r="8"/><circle class="st1" cx="494" cy="908" r="8"/><circle class="st1" cx="422" cy="908" r="8"/><path class="st1" d="M600 478v428H316V478h284m4-4H312v436h292V474z"/><path class="st2" d="M496.1 653.9c-1.2-1.2-3.1-1.2-4.2 0l-36 36c-1.2 1.2-1.2 3.1 0 4.2.6.6 1.4.9 2.1.9s1.5-.3 2.1-.9l36-36c1.2-1.2 1.2-3 0-4.2z"/><path class="st3" d="M494 653h-36c-1.7 0-3 1.3-3 3s1.3 3 3 3h36c1.7 0 3-1.3 3-3s-1.3-3-3-3z"/><path class="st2" d="M532.1 725.9l-72-72c-1.2-1.2-3.1-1.2-4.2 0-1.2 1.2-1.2 3.1 0 4.2l72 72c.6.6 1.4.9 2.1.9s1.5-.3 2.1-.9c1.2-1.2 1.2-3 0-4.2z"/><path class="st3" d="M566 725h-36c-1.7 0-3 1.3-3 3s1.3 3 3 3h36c1.7 0 3-1.3 3-3s-1.3-3-3-3z"/><path class="st2" d="M602.8 690.8c-.5-1.1-1.6-1.8-2.8-1.8h-34c-1.7 0-3 1.3-3 3s1.3 3 3 3h27l-29.2 30.9c-1.1 1.2-1.1 3.1.1 4.2.6.5 1.3.8 2.1.8s1.6-.3 2.2-.9l34-36c.8-.8 1-2.1.6-3.2z"/><circle class="st1" cx="566" cy="692" r="12"/><path class="st0" d="M626 512h288m-288 36h288m-288 36h288m-288 36h288m-288 36h288m-288 36h288m-288 36h288m-288 36h288m-288 36h288m-288 36h288m-288 36h288m-252 36V476m36 432V476m36 432V476m36 432V476m36 432V476m36 432V476m36 432V476"/><circle class="st1" cx="770" cy="476" r="8"/><circle class="st1" cx="806" cy="476" r="8"/><circle class="st1" cx="734" cy="476" r="8"/><circle class="st1" cx="770" cy="908" r="8"/><circle class="st1" cx="806" cy="908" r="8"/><circle class="st1" cx="734" cy="908" r="8"/><path class="st1" d="M912 478v428H628V478h284m4-4H624v436h292V474z"/><path class="st2" d="M808.1 653.9c-1.2-1.2-3.1-1.2-4.2 0l-36 36c-1.2 1.2-1.2 3.1 0 4.2.6.6 1.4.9 2.1.9s1.5-.3 2.1-.9l36-36c1.2-1.2 1.2-3 0-4.2z"/><path class="st3" d="M806 653h-36c-1.7 0-3 1.3-3 3s1.3 3 3 3h36c1.7 0 3-1.3 3-3s-1.3-3-3-3z"/><path class="st2" d="M844.1 725.9l-72-72c-1.2-1.2-3.1-1.2-4.2 0-1.2 1.2-1.2 3.1 0 4.2l72 72c.6.6 1.4.9 2.1.9s1.5-.3 2.1-.9c1.2-1.2 1.2-3 0-4.2z"/><path class="st3" d="M878 725h-36c-1.7 0-3 1.3-3 3s1.3 3 3 3h36c1.7 0 3-1.3 3-3s-1.3-3-3-3z"/><path class="st2" d="M914.8 690.8c-.5-1.1-1.6-1.8-2.8-1.8h-34c-1.7 0-3 1.3-3 3s1.3 3 3 3h27l-29.2 30.9c-1.1 1.2-1.1 3.1.1 4.2.6.5 1.3.8 2.1.8s1.6-.3 2.2-.9l34-36c.8-.8 1-2.1.6-3.2z"/><path class="st3" d="M912 731h-34c-.8 0-1.6-.3-2.1-.9l-36-36c-1.2-1.2-1.2-3.1 0-4.2 1.2-1.2 3.1-1.2 4.2 0l35.1 35.1H905l-29.2-30.9c-1.1-1.2-1.1-3.1.1-4.2 1.2-1.1 3.1-1.1 4.2.1l34 36c.8.9 1 2.1.6 3.2s-1.5 1.8-2.7 1.8z"/><circle class="st1" cx="842" cy="692" r="12"/></svg>