<svg version="1.1" xmlns="http://www.w3.org/2000/svg" x="0" y="0" viewBox="0 0 107.3 107.3" xml:space="preserve"><style type="text/css">.st1{fill:#2e86b7}.st2{fill:#fff}</style><path d="M107.3 88H92V56h15.3v-4H92V20h15.3v-4H92V0h-4v16H56V0h-4v16H20V0h-4v16H0v4h16v32H0v4h16v32H0v4h16v15.3h4V92h32v15.3h4V92h32v15.3h4V92h15.3v-4zM52 88H20V56h32v32zm0-36H20V20h32v32zm36 36H56V56h32v32zm0-36H56V20h32v32z" fill="#ddd"/><path class="st1" d="M15 0v18c0 1.7 1.3 3 3 3s3-1.3 3-3V0h-6z"/><path class="st2" d="M20.5 0v18c0 1.4-1.1 2.5-2.5 2.5s-2.5-1.1-2.5-2.5V0h-1v18c0 1.9 1.6 3.5 3.5 3.5s3.5-1.6 3.5-3.5V0h-1z"/><circle cx="18" cy="18" r="12" fill="#36434f"/><path class="st1" d="M0 74.8L74.8 0h-8.5L0 66.3z"/><path class="st2" d="M65.6 0L0 65.6V67L67 0zm9.9 0h-1.4L0 74.1v1.4z"/></svg>