<svg xmlns="http://www.w3.org/2000/svg" viewBox="0 0 1920 673" xml:space="preserve"><style>.st4{fill:#2e86b7}</style><path fill="#ddd" d="M0 0h1920v673H0z"/><path d="M879.4 90.7c-38 12.4-72.8 33.6-101.9 62.6-.4 4.7-1.1 9.3-2.1 13.9 29.7-32.3 67.7-56.9 110.6-70.1-.4-.2-.8-.4-1.3-.6-2.3-1.3-4.2-3.3-5.3-5.8zm-46.9 461.4c-.3 1-.7 1.9-1.1 2.8-.7 1.6-1.4 3.2-2.2 4.7 4 2.3 8 4.6 12.1 6.7 1.1-2 2-4 2.9-6.1.2-.4.3-.9.5-1.3-4.1-2.1-8.2-4.4-12.2-6.8zM1009 82.6c-4.5-.9-9.1-1.6-13.7-2.2-.4 2.7-1 5.3-1.8 7.9 4.6.6 9.2 1.4 13.8 2.2.7-2.6 1.3-5.3 1.7-7.9zm140.6 425.5c-1.4-1.1-2.7-2.3-3.9-3.6-3.1 3.4-6.3 6.8-9.6 10 1.5 1.5 3.2 3 4.9 4.4.4.3.9.7 1.3 1l.6-.6c3.1-3.1 6.1-6.3 9.1-9.5-.9-.5-1.6-1.1-2.4-1.7zM723.7 231.3c-1.9 4.3-3.7 8.6-5.3 12.9.2.1.5.1.7.2 2.4.7 4.9 1.1 7.4 1.5 1.8-4.5 3.6-9 5.6-13.3-2.9-.2-5.7-.7-8.4-1.3zM762.8 491c-33.4-42.6-53.4-96.2-53.4-154.5 0-14.8 1.3-29.4 3.8-43.5-1.1-.1-2.3-.3-3.4-.6-1.5-.4-3-1-4.4-1.6-2.7 15-4 30.3-4 45.8 0 55.6 17.5 108.6 49.8 152.6 3.9.2 7.8.9 11.6 1.8zm337.4 53c-40 27.1-88.3 43-140.2 43-24.3 0-47.9-3.5-70.1-10-1.3 2.7-3.1 5-5.2 6.9 24.1 7.3 49.4 11.1 75.3 11.1 52.2 0 101.9-15.3 144.2-43.9-1.7-2.1-3.1-4.5-4-7.1zm-52.3-442.1c39 14.6 73.4 38.7 100.4 69.5-.8-3.9-.6-7.8.5-11.5-1.9-2.1-3.9-4.1-5.9-6.2-25.7-25.7-55.9-45.3-88.8-58.2-1.7 2.5-3.8 4.7-6.2 6.4zm169.8 213h-.4c-2.9 0-5.6-1.1-7.8-3.1l-.1-.1c.8 8.2 1.2 16.4 1.2 24.8 0 23.7-3.3 46.7-9.5 68.4.6-.1 1.2-.2 1.8-.2 1.4 0 2.7.2 4 .7.7.3 1.5.6 2.2.9 6.3-22.5 9.5-46 9.5-69.9 0-7.1-.4-14.3-.9-21.5zm-41.4-104.8c2-1.9 4.1-3.6 6.4-5.1-2.4-4-4.8-7.9-7.4-11.7-2.3 1.5-4.5 3.2-6.5 4.9 2.6 3.9 5.1 7.8 7.5 11.9z" opacity=".5" fill="#444"/><path d="M742.6 276.7c.4-1.6.7-3.1.8-4.7l2.1-19c.5-4 1.1-8 2-11.9-8.6 2-18 1.9-27.4-.6-7.9-2.1-15-5.7-20.9-10.4v.2l-9.6 31.1c-.1.4-.2.7-.3 1-3.9 14.7 4.8 29.8 19.5 33.7s29.9-4.7 33.8-19.4zM701.4 248l.8-2.7.4-.2 2.3 4 2.3-1.4 1.6-.9 2.3 4 2.3-1.4 1.6-.9 2.3 4 2.3-1.4 1.6-.9 2.3 4 2.3-1.4 1.6-.9 2.3 4 2.3-1.4 1.6-.9 2.3 4 1.7-1-.3 2.3-2.1 1.2-2.3-3.9-3.9 2.3-2.3-3.9-3.9 2.3-2.3-3.9-3.9 2.3-2.3-3.9-3.9 2.3-2.3-3.9-3.9 2.3-2.3-3.9-.5-.2zm-2.4 7.7.8-2.7.8-.5 2.3 4 2.3-1.4 1.6-.9 2.3 4 2.3-1.4 1.6-.9 2.3 4 2.3-1.4 1.6-.9 2.3 4 2.3-1.4 1.6-.9 2.3 4 2.3-1.4 1.6-.9 2.3 4 2.3-1.4.6-.3-.2 1.6h-.2l-.1.9-3.2 1.8-2.3-3.9-3.9 2.3-2.3-3.9-3.9 2.3-2.3-3.9-3.9 2.3-2.3-3.9-3.9 2.3-2.3-3.9-3.9 2.3-2.3-3.9h-.8zm-2.3 7.7.8-2.7 1.1-.6 2.3 4 2.3-1.4 1.6-.9 2.3 4 2.3-1.4 1.6-.9 2.3 4 2.3-1.4 1.6-.9 2.3 4 2.3-1.4 1.6-.9 2.3 4 2.3-1.4 1.6-.9 2.3 4 2.3-1.4 1.6-.9.1.2-.1 1.1c-.1.6-.1 1.3-.3 2l-.4-.7-3.9 2.3-2.3-3.9-3.9 2.3-2.3-3.9-3.9 2.3-2.3-3.9-3.9 2.3-2.3-3.9-3.9 2.3-2.3-3.9-3.9 2.3-2.3-3.9-1.2.1zm29.2 23.8-.7-1.3-3.9 2.3-2.3-3.9-3.9 2.3-2.3-3.9-3.9 2.3-2.3-3.9-3.9 2.3-2.3-3.9-1.6.9c-.3-.5-.6-1-.9-1.6l1.5-.9 1.6-.9 2.3 4 2.3-1.4 1.6-.9 2.3 4 2.3-1.4 1.6-.9 2.3 4 2.3-1.4 1.6-.9 2.3 4 2.3-1.4 1.6-.9 1.7 2.9c-.5-.2-1 .2-1.6.5zm7.3-7-3.7 2.1-2.3-3.9-3.9 2.3-2.3-3.9-4 2.2-2.3-3.9-3.9 2.3-2.3-3.9-3.9 2.3-2.3-3.9-3.9 2.3-2.3-3.9-.3.2v-2.2l.9-.5 2.3 4 2.3-1.4 1.6-.9 2.3 4 2.3-1.4 1.6-.9 2.3 4 2.3-1.4 1.6-.9 2.3 4 2.3-1.4 1.6-.9 2.3 4 2.3-1.4 1.6-.9 2.3 4 2.3-1.4 1.6-.9.3.5c-.2.2-.6 1-1 1.7zm-11.6-45.3c8.2 2.2 16.6 2.4 24.6.6l2.9-.7c1.6-5.5 3.6-10.9 6-16.1l.8-1.6c2.5-5.3 5.4-10.4 8.7-15.2 4.7-7 8.7-14.6 11.5-22.9.9-2.4 1.6-4.9 2.3-7.5 3.6-13.4 4.2-26.9 2.3-39.8-.7-4.4-3.1-8.3-6.8-10.7-3.3-2.2-7.1-3.9-11.1-5-2.8-.7-5.6-1.1-8.4-1.2-3.9-.1-7.7 1.3-10.7 3.8-10.4 8.7-19.5 19.2-26.7 31.1-6.1 10.1-11 21.3-14.1 33.3-2.8 10.5-1.5 19.1-1.6 29.5 0 3.8-.3 7.5-.8 11.2l2.4 1.9c5.5 4.3 11.8 7.4 18.7 9.3zm3.9-9.9c-2.2-.6-3.4-2.8-2.9-5 .6-2.2 2.8-3.4 5-2.9 2.2.6 3.4 2.8 2.9 5-.6 2.2-2.8 3.5-5 2.9zm23.9-99.8c.4-.3.8-.6 1.2-.8l.6 1 2.3-1.4.7-.4c.4 0 .8 0 1.2.1l2 3.4 2.3-1.4 1.6-.9 2.3 3.9 2.3-1.4.7-.4c.6.3 1.2.7 1.8 1l1.4 2.4.9-.5c.4.5.7 1 .9 1.6l-2.5 1.5-2.3-3.9-3.9 2.3-2.3-3.9-3.9 2.3-2.3-3.9-3.9 2.3-1.4-2.4c.1-.3.2-.4.3-.5zm-6.4 5.9 2.3-1.3 1.6-.9 2.3 4 2.3-1.4 1.6-.9 2.3 4 2.3-1.4 1.6-.9 2.3 4 2.3-1.4 1.6-.9 2.3 4 2.3-1.4 1.6-.9.7 1.3c.2 1.4.3 2.9.3 4.3l-1.8-3-3.9 2.3-2.3-3.9-3.9 2.3-2.3-3.9-3.9 2.3-2.3-3.9-3.9 2.3-2.3-3.9-3.9 2.3-.7-1.3c.5-.9 1-1.4 1.5-1.8zm-4 4 2 3.5 2.3-1.4 1.6-.9 2.3 4 2.3-1.4 1.6-.9 2.3 4 2.3-1.4 1.6-.9 2.3 4 2.3-1.4 1.6-.9 2.3 4 2.3-1.4 1.6-.9 2.3 4 .9-.5c0 .7 0 1.5-.1 2.2l-1.6.9-2.3-3.9-3.9 2.3-2.3-3.9-3.9 2.3-2.3-3.9-3.9 2.3-2.3-3.9-3.9 2.3-2.3-3.9-3.9 2.3-2.3-3.9-1.8 1.1c1-1.7 1.9-2.7 2.9-3.8zm-6.9 8.1.7 1.2 2.3-1.4 1.6-.9 2.3 4 2.3-1.4 1.6-.9 2.3 4 2.3-1.4 1.6-.9 2.3 4 2.3-1.4 1.6-.9 2.3 4 2.3-1.4 1.6-.9 2.3 4 2.3-1.4 1.6-.9 2.3 4 2.3-1.4.4-.2c-.1.8-.1 1.6-.2 2.3l-3.1 1.8-2.3-3.9-3.9 2.3-2.3-3.9-3.9 2.3-2.3-3.9-3.9 2.3-2.3-3.9-3.9 2.3-2.3-3.9-3.9 2.3-2.3-3.9-3.9 2.3-1.1-2.3c.2-.9.6-1.4 1-2zm-3.5 4.8 2.2 3.8 2.3-1.4 1.6-.9 2.3 4 2.3-1.4 1.6-.9 2.3 4 2.3-1.4 1.6-.9 2.3 4 2.3-1.4 1.6-.9 2.3 4 2.3-1.4 1.6-.9 2.3 4 2.3-1.4 1.6-.9 2.3 4 2.3-1.4 1.5-.9c-.2.9-.3 1.8-.5 2.8l-.1-.2-3.9 2.3-2.3-3.9-3.9 2.3-2.3-3.9-3.9 2.3-2.3-3.9-3.9 2.3-2.3-3.9-3.9 2.3-2.3-3.9-3.9 2.3-2.3-3.9-3.9 2.3-2.3-3.9-1.4.8c.7-1.7 1.4-2.8 2.2-3.9zm-6 9.6 2.3-1.3 1.6-.9 2.3 4 2.3-1.4 1.6-.9 2.3 4 2.3-1.4 1.6-.9 2.3 4 2.3-1.4 1.6-.9 2.3 4 2.3-1.4 1.6-.9 2.3 4 2.3-1.4 1.6-.9 2.3 4 2.3-1.4 1.6-.9 2.3 4 2.3-1.4 1.6-.9.3.6c-.1.6-.3 1.1-.4 1.7-.1.3-.1.6-.2.9l-.4-.5-3.9 2.3-2.3-3.9-3.9 2.3-2.3-3.9-3.9 2.3-2.3-3.9-3.9 2.3-2.3-3.9-3.9 2.3-2.3-3.9-3.9 2.3-2.3-3.9-3.9 2.3-2.3-3.9-3.9 2.3-.4-.7c.4-1.5.7-2.2 1.1-2.8zm-3 5.7 1 1.8 2.4-1.4 1.6-.9 2.3 4 2.3-1.4 1.6-.9 2.3 4 2.3-1.4 1.6-.9 2.3 4 2.3-1.4 1.6-.9 2.3 4 2.3-1.4 1.6-.9 2.3 4 2.3-1.4 1.6-.9 2.3 4 2.3-1.4 1.6-.9 2.3 4 2.3-1.4 1.6-.9.2.4c-.1.4-.3.9-.4 1.2l-.4 1.1-.1-.1-3.9 2.3-2.3-3.9-3.9 2.3-2.3-3.9-3.9 2.3-2.3-3.9-3.9 2.3-2.3-3.9-3.9 2.3-2.3-3.9-3.9 2.3-2.3-3.9-3.9 2.3-2.3-3.9-3.9 2.3-1.3-2.3c.2-1.4.5-2.1.9-2.8zm-2.8 6.1 1.8 3.2 2.3-1.4 1.6-.9 2.3 4 2.3-1.4 1.6-.9 2.3 4 2.3-1.4 1.6-.9 2.3 4 2.3-1.4 1.6-.9 2.3 4 2.3-1.4 1.6-.9 2.3 4 2.3-1.4 1.6-.9 2.3 4 2.3-1.4 1.6-.9 2.3 4 2.3-1.4.9-.5c-.4 1-.9 2-1.4 3l-2.5 1.5-2.1-4.1-3.9 2.3-2.3-3.9-3.9 2.3-2.3-3.9-3.9 2.3-2.3-3.9-3.9 2.3-2.3-3.9-3.9 2.3-2.3-3.9-3.9 2.3-2.3-3.9-3.9 2.3-2-3.5c.1-1.4.4-2.1.7-2.8zm-3.5 9.5.9-2.7.1-.1 2.3 4 2.3-1.4 1.6-.9 2.3 4 2.3-1.4 1.6-.9 2.3 4 2.3-1.4 1.6-.9 2.3 4 2.3-1.4 1.6-.9 2.3 4 2.3-1.4 1.6-.9 2.3 4 2.3-1.4 1.6-.9 2.3 4 2.3-1.4 1.6-.9 2.3 4 .7-.4c-.5.9-1 1.7-1.6 2.6l-2.1-3.6-3.9 2.3-2.3-3.9-3.9 2.3-2.3-3.9-3.9 2.3-2.3-3.9-3.9 2.3-2.3-3.9-3.9 2.3-2.3-3.9-3.9 2.3-2.3-3.9-3.9 2.3-2.3-3.9-.3-.5zm-1.6 7.2-.6.4c.1-.4.2-.8.3-1.3.1-.4.2-.9.3-1.3l.6-.3 2.3 4 2.3-1.4 1.6-.9 2.3 4 2.3-1.4 1.6-.9 2.3 4 2.3-1.4 1.6-.9 2.3 4 2.3-1.4 1.6-.9 2.3 4 2.3-1.4 1.6-.9 2.3 4 2.3-1.4 1.6-.9 2.3 4 2.3-1.4 1.6-.9 1.2 2.1c-.4.6-.8 1.1-1.1 1.7l-.7-1.3-3.9 2.3-2.3-3.9-3.9 2.3-2.3-3.9-3.9 2.3-2.3-3.9-3.9 2.3-2.3-3.9-3.9 2.3-2.3-3.9-3.9 2.3-2.3-3.9-3.9 2.3-2.3-4.6zm2.7 10c-.5-.4-1-.8-1.5-1.3l2.1-1.2 1.6-.9 2.3 4 2.3-1.4 1.6-.9 2.3 4 2.3-1.4 1.6-.9 2.3 4 2.3-1.4 1.6-.9 2.3 4 2.3-1.4 1.6-.9 2.3 4 2.3-1.4 1.6-.9 2.3 4 2.3-1.4 1.3-.7c-.7 1.1-1.3 2.2-1.9 3.3l-2.1 1.2h-.3l-2.2-3.8-3.9 2.3-2.3-3.9-3.9 2.3-2.3-3.9-3.9 2.3-2.3-3.9-3.9 2.3-2.3-3.9-3.8 2.2c-.1 0-.2-.1-.3-.2l-2.2-3.7-1.5.4zm239.9 313c-14.6 4.2-23.1 19.5-18.9 34.1 4.2 14.6 19.4 23.1 34.1 18.9.4-.1.7-.2 1-.3l30.9-10.1h.2c-4.8-5.9-8.5-12.8-10.8-20.7-2.7-9.4-2.9-18.7-1.1-27.4-3.9.9-7.9 1.7-11.9 2.2l-18.9 2.5c-1.5.1-3 .4-4.6.8zm29.5 40.2-4-2.2 2.2-4-4-2.2 2.2-4-4-2.2 2.2-4-4-2.2 2.2-4-4-2.2 2.2-4-4-2.2 1.2-2.1 2.3-.3-.9 1.7 4 2.2-.9 1.6-1.3 2.3 4 2.2-.9 1.6-1.3 2.3 4 2.2-.9 1.6-1.3 2.3 4 2.2-.9 1.6-1.3 2.3 4 2.2-.9 1.6-1.3 2.3 4 2.2-.2.4-2.7.9.3-.1zm-7.5 2.2-4-2.2 2.2-4-4-2.2 2.2-4-4-2.2 2.2-4-4-2.2 2.2-4-4-2.2 2.2-4-4-2.2 1.8-3.2.9-.1v-.2l1.6-.2-.3.6-1.3 2.3 4 2.2-.9 1.6-1.3 2.3 4 2.2-.9 1.6-1.3 2.3 4 2.2-.9 1.6-1.3 2.3 4 2.2-.9 1.6-1.3 2.3 4 2.2-.9 1.6-1.3 2.3 4 2.2-.4.8-2.7.9.4-.4zm-7.5 2.1-4-2.2 2.2-4-4-2.2 2.2-4-4-2.2 2.2-4-4-2.2 2.2-4-4-2.2 2.2-4-4-2.2 2.2-4-.7-.4c.7-.1 1.3-.2 2-.3l1.1-.1.2.1-.9 1.6-1.3 2.3 4 2.2-.9 1.6-1.3 2.3 4 2.2-.9 1.6-1.3 2.3 4 2.2-.9 1.6-1.3 2.3 4 2.2-.9 1.6-1.3 2.3 4 2.2-.9 1.6-1.3 2.3 4 2.2-.6 1.1-2.7.9.7-.7zm-23.9-29.2 2.9 1.6-.9 1.6-1.3 2.3 4 2.2-.9 1.6-1.3 2.3 4 2.2-.9 1.6-1.3 2.3 4 2.2-.9 1.6-1.3 2.3 4 2.2-.9 1.6-.9 1.6c-.6-.3-1.1-.6-1.6-.9l.9-1.6-4-2.2 2.2-4-4-2.2 2.2-4-4-2.2 2.2-4-4-2.2 2.2-4-1.3-.7c.4-.2.8-.7.9-1.2zm8.1-6.8.5.3-.9 1.6-1.3 2.3 4 2.2-.9 1.6-1.3 2.3 4 2.2-.9 1.6-1.3 2.3 4 2.2-.9 1.8-1.3 2.3 4 2.2-.9 1.6-1.3 2.3 4 2.2-.9 1.6-1.3 2.3 4 2.2-.5.9c-.8 0-1.5.1-2.2.1l.2-.3-4-2.2 2.2-4-4-2.2 2.2-4-4-2.2 2.2-4-4-2.2 2.2-4-4-2.2 2.2-4-4-2.2 2.1-3.7c.8-.4 1.5-.8 2.1-.9zm53 30.4 1.9 2.4c3.7-.6 7.5-.9 11.2-1 10.4-.3 19 .9 29.5-2.1 11.9-3.4 23-8.4 33-14.7 11.8-7.5 22.1-16.7 30.7-27.3 2.5-3 3.8-6.9 3.6-10.8-.1-2.8-.6-5.6-1.4-8.4-1.1-4-2.9-7.8-5.2-11-2.5-3.7-6.4-6.1-10.8-6.6-12.9-1.7-26.4-.8-39.8 3-2.5.7-5 1.5-7.4 2.4-8.2 3-15.8 7.1-22.7 11.9-4.8 3.4-9.8 6.4-15.1 8.9l-1.6.8c-5.2 2.5-10.5 4.6-16 6.3l-.6 3c-1.7 8-1.3 16.5 1 24.6 2.1 6.9 5.4 13.1 9.7 18.6zm3.1-27.8c2.2-.6 4.4.6 5 2.8.6 2.2-.6 4.4-2.8 5-2.2.6-4.4-.6-5-2.8-.6-2.1.6-4.3 2.8-5zm96.2-20.2-2.4-1.4 2.2-4-4-2.2 2.2-4-4-2.2 2.2-4-4-2.2 1.4-2.5c.6.2 1.1.5 1.6.9l-.5.9 2.5 1.4c.4.6.7 1.2 1 1.8l-.4.7-1.3 2.3 4 2.2-.9 1.6-1.3 2.3 3.4 1.9c.1.4.1.8.1 1.2l-.4.7-1.3 2.3 1 .5c-.2.4-.5.8-.8 1.2 0 .3-.1.4-.3.6zm-6.9 7.7-1.3-.7 2.2-4-4-2.2 2.2-4-4-2.2 2.2-4-4-2.2 2.2-4-4-2.2 2.2-4-3.1-1.7c1.4 0 2.9.1 4.3.3l1.3.7-.9 1.6-1.3 2.3 4 2.2-.9 1.6-1.3 2.3 4 2.2-.9 1.6-1.3 2.3 4 2.2-.9 1.6-1.3 2.3 4 2.2-.9 1.6-1.3 2.4c-.1.7-.6 1.2-1.2 1.8zm-5.8 5.5 1-1.9-4-2.2 2.2-4-4-2.2 2.2-4-4-2.2 2.2-4-4-2.2 2.2-4-4-2.2 2.2-4-4-2.2.9-1.6c.7-.1 1.4-.1 2.2-.1l-.5 1 4 2.2-.9 1.6-1.3 2.3 4 2.2-.9 1.6-1.3 2.3 4 2.2-.9 1.6-1.3 2.3 4 2.2-.9 1.6-1.3 2.3 4 2.2-.9 1.6-1.3 2.3 3.5 1.9c-.8 1.4-1.8 2.3-3.1 3.4zm-6.2 5.3-2.4-1.1 2.2-4-4-2.2 2.2-4-4-2.2 2.2-4-4-2.2 2.2-4-4-2.2 2.2-4-4-2.2 2.2-4-4-2.2 1.8-3.2c.7-.1 1.6-.1 2.3-.2l-.2.4-1.3 2.3 4 2.2-.9 1.6-1.3 2.3 4 2.2-.9 1.6-1.3 2.3 4 2.2-.9 1.6-1.3 2.3 4 2.2-.9 1.6-1.3 2.3 4 2.2-.9 1.6-1.3 2.3 4 2.2-.9 1.6-1.3 2.3 1.2.6c-.4 1-.9 1.4-1.4 1.8zm-6.7 4.8.8-1.4-4-2.2 2.2-4-4-2.2 2.2-4-4-2.2 2.2-4-4-2.2 2.2-4-4-2.2 2.2-4-4-2.2 2.2-4-4-2.2 2.2-4-.2-.1c1-.2 1.9-.4 2.8-.5l-.9 1.6-1.3 2.3 4 2.2-.9 1.6-1.3 2.3 4 2.2-.9 1.6-1.3 2.3 4 2.2-.9 1.6-1.3 2.3 4 2.2-.9 1.6-1.3 2.3 4 2.2-.9 1.6-1.3 2.3 4 2.2-.9 1.6-1.3 2.3 3.9 2.1c-.8 1.1-1.9 1.8-3.3 2.8zm-8.2 5-.7-.4 2.2-4-4-2.2 2.2-4-4-2.2 2.2-4-4-2.2 2.2-4-4-2.2 2.2-4-4-2.2 2.2-4-4-2.2 2.2-4-4-2.2 2.2-4-.6-.3c.3-.1.6-.2.9-.2.5-.2 1.1-.3 1.7-.5l.6.3-.9 1.6-1.3 2.3 4 2.2-.9 1.6-1.3 2.3 4 2.2-.9 1.6-1.3 2.3 4 2.2-.9 1.6-1.3 2.3 4 2.2-.9 1.6-1.3 2.3 4 2.2-.9 1.6-1.3 2.3 4 2.2-.9 1.6-1.3 2.3 4 2.2-.9 1.6-1.3 2.4c-.3.9-.9 1.2-1.9 1.8zm-5.8 3-2.3-1.3 2.2-4-4-2.2 2.2-4-4-2.2 2.2-4-4-2.2 2.2-4-4-2.2 2.2-4-4-2.2 2.2-4-4-2.2 2.2-4-4-2.2 2.2-4-.1-.1 1.1-.4c.4-.2.8-.3 1.2-.4l.4.2-.9 1.6-1.3 2.3 4 2.2-.9 1.6-1.3 2.3 4 2.2-.9 1.6-1.3 2.3 4 2.2-.9 1.6-1.3 2.3 4 2.2-.9 1.6-1.3 2.3 4 2.2-.9 1.6-1.3 2.3 4 2.2-.9 1.6-1.3 2.3 4 2.2-.9 1.6-1.3 2.4 1.8 1c-.4.9-1.1 1.2-2.1 1.7zm-5.9 2.6-3.6-2 2.2-4-4-2.2 2.2-4-4-2.2 2.2-4-4-2.2 2.2-4-4-2.2 2.2-4-4-2.2 2.2-4-4-2.2 2.2-4-4.2-2.1 1.4-2.6c1-.5 2-.9 3-1.4l-.5.9-1.3 2.3 4 2.2-.9 1.6-1.3 2.3 4 2.2-.9 1.6-1.3 2.3 4 2.2-.9 1.6-1.3 2.3 4 2.2-.9 1.6-1.3 2.3 4 2.2-.9 1.6-1.3 2.3 4 2.2-.9 1.6-1.3 2.3 4 2.2-.9 1.6-1.3 2.3 3.2 1.8c-.5 1-1.2 1.3-2 1.6zm-7.2 2.5-4-2.2 2.2-4-4-2.2 2.2-4-4-2.2 2.2-4-4-2.2 2.2-4-4-2.2 2.2-4-4-2.2 2.2-4-4-2.2 2.2-4-3.6-2c.8-.5 1.7-1.1 2.5-1.6l-.4.7 4 2.2-.9 1.6-1.3 2.3 4 2.2-.9 1.6-1.3 2.3 4 2.2-.9 1.6-1.3 2.3 4 2.2-.9 1.6-1.3 2.3 4 2.2-.9 1.6-1.3 2.3 4 2.2-.9 1.6-1.3 2.3 4 2.2-.9 1.6-1.3 2.3 4 2.2-.1.1c-.9.3-1.8.6-2.7 1l.3.3zm-11.4-.1 2.2-4-4-2.2 2.2-4-4-2.2 2.2-4-4-2.2 2.2-4-4-2.2 2.2-4-4-2.2 2.2-4-4-2.2 2.2-4-1.3-.7c.6-.4 1.1-.8 1.7-1.2l2.1 1.2-.9 1.6-1.3 2.3 4 2.2-.9 1.6-1.3 2.3 4 2.2-.9 1.6-1.3 2.3 4 2.2-.9 1.6-1.3 2.3 4 2.2-.9 1.6-1.3 2.3 4 2.2-.9 1.6-1.3 2.3 4 2.2-.9 1.6-1.3 2.3 4 2.2-.3.6c-.4.1-.9.3-1.3.4-.5.1-.9.3-1.3.4l.4-.6-4-1.6zm-5.1-1.9-3.7-2.1c-.1-.1-.2-.2-.2-.3l2.1-3.9-4-2.2 2.2-4-4-2.2 2.2-4-4-2.2 2.2-4-4-2.2 2.2-4-3.9-2.1v-.3l1.2-2.1c1.1-.6 2.2-1.3 3.3-1.9l-.7 1.3-1.3 2.3 4 2.2-.9 1.6-1.3 2.3 4 2.2-.9 1.6-1.3 2.3 4 2.2-.9 1.6-1.3 2.3 4 2.2-.9 1.6-1.3 2.3 4 2.2-.9 1.6-1.3 2.3 4 2.2-.9 1.6-1.2 2.2c-.5-.5-.9-1-1.3-1.5l.8-1.1z" fill="#cc584c"/><path d="M1146.1 177.6c.6 1.5 1.4 2.9 2.3 4.1l10.2 16.1c2.1 3.4 4.1 7 5.9 10.6 5.5-6.9 12.9-12.7 21.8-16.6 7.5-3.3 15.2-4.9 22.8-4.9 0 0-.1-.1-.1-.2l-11.9-30.3c-.1-.4-.3-.7-.4-1-6.1-13.9-22.4-20.3-36.3-14.1-14.1 6.1-20.5 22.4-14.3 36.3zm50-3.3 1 2.6-.2.4-4.3-1.7-1 2.5-.7 1.7-4.3-1.7-1 2.5-.7 1.7-4.3-1.7-1 2.5-.7 1.7-4.3-1.7-1 2.5-.7 1.7-4.3-1.7-1 2.5-.7 1.7-4.3-1.7-.7 1.8-1.2-1.9.9-2.3 4.3 1.6 1.6-4.3 4.3 1.6 1.6-4.3 4.3 1.6 1.6-4.3 4.3 1.6 1.6-4.3 4.3 1.6 1.6-4.3 4.3 1.6.7.5zm-2.9-7.5 1 2.6-.3.8-4.3-1.7-1 2.5-.7 1.7-4.3-1.7-1 2.5-.7 1.7-4.3-1.7-1 2.5-.7 1.7-4.3-1.7-1 2.5-.7 1.7-4.3-1.7-1 2.5-.7 1.7-4.3-1.7-1 2.5-.3.6-.9-1.3.1-.1-.5-.7 1.3-3.4 4.3 1.6 1.6-4.3 4.3 1.6 1.6-4.3 4.3 1.6 1.6-4.3 4.3 1.6 1.6-4.3 4.3 1.6 1.6-4.3 4.3 1.6 1.1.1zm-3-7.4 1 2.6-.5 1.2-4.3-1.7-1 2.5-.7 1.7-4.3-1.7-1 2.5-.7 1.7-4.3-1.7-1 2.5-.7 1.7-4.3-1.7-1 2.5-.7 1.7-4.3-1.7-1 2.5-.7 1.7-4.3-1.7-1 2.5-.7 1.7-.3-.1-.6-1c-.4-.5-.7-1.1-1-1.7l.8.3 1.6-4.3 4.3 1.6 1.6-4.3 4.3 1.6 1.6-4.3 4.3 1.6 1.6-4.3 4.3 1.6 1.6-4.3 4.3 1.6 1.6-4.3 4.3 1.6 1.2-.1zm-37.7-.3 1.4.6 1.6-4.3 4.3 1.6 1.6-4.3 4.3 1.6 1.6-4.3 4.3 1.6 1.6-4.3 4.3 1.6.6-1.7c.6.2 1.1.4 1.7.7l-.7 1.7-.7 1.7-4.3-1.7-1 2.5-.7 1.7-4.3-1.7-1 2.5-.7 1.7-4.3-1.7-1 2.5-.7 1.7-4.3-1.7-1 2.5-.7 1.7-3.1-1.2c.8.2 1-.5 1.2-1zm-1.2 10 1.6-4 4.3 1.6 1.6-4.3 4.3 1.6 1.6-4.3 4.3 1.6 1.6-4.3 4.3 1.6 1.6-4.3 4.3 1.6 1.6-4.3 4.3 1.6.1-.3c.5.6.9 1.1 1.4 1.8l-.4.9-4.3-1.7-1 2.5-.7 1.7-4.3-1.7-1 2.5-.7 1.7-4.3-1.7-1 2.5-.7 1.7-4.3-1.7-1 2.5-.7 1.7-4.3-1.7-1 2.5-.7 1.7-4.3-1.7-1 2.5-.7 1.7-.5-.2c.2.3 0-.5 0-1.3zm37.2 28.1c-7.7 3.4-14.5 8.5-19.6 14.9l-1.9 2.3c2.2 5.3 4 10.8 5.4 16.4l.4 1.7c1.4 5.7 2.3 11.5 2.7 17.3.6 8.4 2.4 16.8 5.3 25.1.8 2.4 1.8 4.9 2.8 7.3 5.6 12.7 13.5 23.6 23.1 32.5 3.2 3 7.6 4.5 12 4.1 4-.4 8-1.4 11.8-3.1 2.7-1.2 5.1-2.6 7.4-4.3 3.1-2.3 5.2-5.8 6-9.6 2.7-13.3 3.2-27.2 1.4-41-1.5-11.7-4.7-23.5-9.7-34.8-4.4-10-10.8-15.9-17.2-24.1-2.3-2.9-4.5-6.1-6.4-9.3h-3c-7 .2-13.9 1.7-20.5 4.6zm3.1 10.2c2.1-.9 4.4 0 5.3 2.1s0 4.4-2.1 5.3c-2.1.9-4.4 0-5.3-2.1-.8-2 .1-4.4 2.1-5.3zm43.7 92.9c-.1.5-.2 1-.4 1.4l-1-.4-1 2.5-.3.8c-.3.3-.7.5-1 .7l-3.7-1.4-1 2.5-.6 1.7-4.3-1.6-1 2.5-.3.8c-.7.1-1.3.2-2 .3l-2.6-1-.4.9c-.6-.2-1.2-.4-1.7-.7l1-2.7 4.3 1.6 1.6-4.3 4.3 1.6 1.6-4.3 4.3 1.6 1.6-4.3 2.6 1c.1.5 0 .6 0 .8zm1.4-8.7-1 2.5-.7 1.7-4.3-1.7-1 2.5-.7 1.7-4.3-1.7-1 2.5-.7 1.7-4.3-1.7-1 2.5-.7 1.7-4.3-1.7-1 2.5-.7 1.7-1.4-.6c-1-1-2-2.1-2.9-3.2l3.3 1.3 1.6-4.3 4.3 1.6 1.6-4.3 4.3 1.6 1.6-4.3 4.3 1.6 1.6-4.3 4.3 1.6 1.6-4.3 1.3.5c.3 1.7.3 2.3.2 2.9zm.6-5.6-3.7-1.5-1 2.5-.7 1.7-4.3-1.7-1 2.5-.7 1.7-4.3-1.7-1 2.5-.7 1.7-4.3-1.7-1 2.5-.7 1.7-4.3-1.7-1 2.5-.7 1.7-4.3-1.7-.4 1c-.5-.6-.9-1.1-1.3-1.7l.6-1.7 4.3 1.6 1.6-4.3 4.3 1.6 1.6-4.3 4.3 1.6 1.6-4.3 4.3 1.6 1.6-4.3 4.3 1.6 1.6-4.3 4.3 1.6.8-2c.3 2.5.2 3.9.2 5.3zm.3-10.6-1.2-.5-1 2.5-.7 1.7-4.3-1.7-1 2.5-.7 1.7-4.3-1.7-1 2.5-.7 1.7-4.3-1.7-1 2.5-.7 1.7-4.3-1.7-1 2.5-.7 1.7-4.3-1.7-1 2.5-.7 1.7-4.3-1.7-1 2.5-.2.4c-.4-.6-.9-1.3-1.3-1.9l1.3-3.4 4.3 1.6 1.6-4.3 4.3 1.6 1.6-4.3 4.3 1.6 1.6-4.3 4.3 1.6 1.6-4.3 4.3 1.6 1.6-4.3 4.3 1.6 1.6-4.3 2.3 1.1c.6 1.6.7 2.3.7 3zm-.3-6-4.1-1.6-1 2.5-.7 1.7-4.3-1.7-1 2.5-.7 1.7-4.3-1.7-1 2.5-.7 1.7-4.3-1.7-1 2.5-.7 1.7-4.3-1.7-1 2.5-.7 1.7-4.3-1.7-1 2.5-.7 1.7-4.3-1.7-1 2.5-.7 1.7c-.5-.8-.9-1.6-1.4-2.5l.3.1 1.6-4.3 4.3 1.6 1.6-4.3 4.3 1.6 1.6-4.3 4.3 1.6 1.6-4.3 4.3 1.6 1.6-4.3 4.3 1.6 1.6-4.3 4.3 1.6 1.6-4.3 4.3 1.6.6-1.6c.8 2.7 1 4 1 5.3zm-1.3-11.2-1 2.5-.7 1.7-4.3-1.7-1 2.5-.7 1.7-4.3-1.7-1 2.5-.7 1.7-4.3-1.7-1 2.5-.7 1.7-4.3-1.7-1 2.5-.7 1.7-4.3-1.7-1 2.5-.7 1.7-4.3-1.7-1 2.5-.7 1.7-4.3-1.7-1 2.5-.7 1.7-.6-.3c-.3-.5-.5-1-.7-1.6-.1-.3-.3-.6-.4-.8l.6.2 1.6-4.3 4.3 1.6 1.6-4.3 4.3 1.6 1.6-4.3 4.3 1.6 1.6-4.3 4.3 1.6 1.6-4.3 4.3 1.6 1.6-4.3 4.3 1.6 1.6-4.3 4.3 1.6 1.6-4.3.7.3c1 2.2 1.1 3 1.2 3.7zm-1.2-6.4-1.9-.7-1 2.5-.7 1.7-4.3-1.7-1 2.5-.7 1.7-4.3-1.7-1 2.5-.7 1.7-4.3-1.7-1 2.5-.7 1.7-4.3-1.7-1 2.5-.7 1.7-4.3-1.7-1 2.5-.7 1.7-4.3-1.7-1 2.5-.7 1.7-4.3-1.7-1 2.5-.7 1.7-.4-.2c-.1-.4-.3-.8-.4-1.2l-.4-1.1h.1l1.6-4.3 4.3 1.6 1.6-4.3 4.3 1.6 1.6-4.3 4.3 1.6 1.6-4.3 4.3 1.6 1.6-4.3 4.3 1.6 1.6-4.3 4.3 1.6 1.6-4.3 4.3 1.6 1.6-4.3 2.5 1c1 2.3 1.2 3 1.3 3.7zm-1.6-6.4-3.4-1.3-1 2.5-.7 1.7-4.3-1.7-1 2.5-.7 1.7-4.3-1.7-1 2.5-.7 1.7-4.3-1.7-1 2.5-.7 1.7-4.3-1.7-1 2.5-.7 1.7-4.3-1.7-1 2.5-.7 1.7-4.3-1.7-1 2.5-.7 1.7-4.3-1.7-1 2.5-.4 1c-.3-1-.5-2.1-.8-3.2l1-2.7 4.3 1.9 1.6-4.3 4.3 1.6 1.6-4.3 4.3 1.6 1.6-4.3 4.3 1.6 1.6-4.3 4.3 1.6 1.6-4.3 4.3 1.6 1.6-4.3 4.3 1.6 1.6-4.3 3.8 1.5c1.1 1.8 1.3 2.5 1.5 3.3zm-3.1-9.6c.3.9.7 1.8 1 2.7l-.1.2-4.3-1.7-1 2.5-.7 1.7-4.3-1.7-1 2.5-.7 1.7-4.3-1.7-1 2.5-.7 1.7-4.3-1.7-1 2.5-.7 1.7-4.3-1.7-1 2.5-.7 1.7-4.3-1.7-1 2.5-.7 1.7-4.3-1.7-1 2.5-.7 1.7-4.3-1.7-.3.7c-.2-1-.3-2-.4-3l3.8 1.5 1.6-4.3 4.3 1.6 1.6-4.3 4.3 1.6 1.6-4.3 4.3 1.6 1.6-4.3 4.3 1.6 1.6-4.3 4.3 1.6 1.6-4.3 4.3 1.6 1.6-4.3 4.3 1.6 1 1zm-3.3-6.6.2-.7c.2.4.4.8.5 1.2.2.4.4.8.5 1.2l-.3.6-4.3-1.7-1 2.5-.7 1.7-4.3-1.7-1 2.5-.7 1.7-4.3-1.7-1 2.5-.7 1.7-4.3-1.7-1 2.5-.7 1.7-4.3-1.7-1 2.5-.7 1.7-4.3-1.7-1 2.5-.7 1.7-4.3-1.7-1 2.5-.7 1.7-2.2-.9c-.1-.7-.1-1.4-.2-2.1l1.3.5 1.6-4.3 4.3 1.6 1.6-4.3 4.3 1.6 1.6-4.3 4.3 1.6 1.6-4.3 4.3 1.6 1.6-4.3 4.3 1.6 1.6-4.3 4.3 1.6 1.6-4.3 5.2 3.2zm-8.4-6.2c.7 0 1.3 0 2 .1l-.9 2.3-.7 1.7-4.3-1.7-1 2.5-.7 1.7-4.3-1.7-1 2.5-.7 1.7-4.3-1.7-1 2.5-.7 1.7-4.3-1.7-1 2.5-.7 1.7-4.3-1.7-1 2.5-.7 1.7-4.3-1.7-1 2.5-.5 1.3c-.2-1.3-.4-2.5-.6-3.7l.9-2.2c.1-.1.2-.1.2-.2l4.1 1.6 1.6-4.3 4.3 1.6 1.6-4.3 4.3 1.6 1.6-4.3 4.3 1.6 1.6-4.3 4.3 1.6 1.6-4.1h.3l4 1.6 1.3-.9zm-185.8-112.9c15.2 1 28.3-10.6 29.3-25.8 1-15.2-10.5-28.3-25.7-29.3h-1.1l-32.5-.8h-.2c2.5 7.1 3.7 14.9 3.2 23.1-.6 9.7-3.6 18.6-8.2 26.2 4 .4 8 1.1 11.9 1.9l18.6 4c1.5.3 3.1.6 4.7.7zm-14.2-47.8 3 3.4-3.4 3 3 3.4-3.4 3 3 3.4-3.4 3 3 3.4-3.4 3 3 3.4-3.4 3 3 3.4-1.8 1.6-2.2-.5 1.5-1.3-3.1-3.5 1.4-1.2 2.1-1.8-3.1-3.5 1.4-1.2 2.1-1.8-3.1-3.5 1.4-1.2 2.1-1.8-3.1-3.5 1.4-1.2 2.1-1.8-3.1-3.5 1.4-1.2 2.1-1.8-3.1-3.5.3-.3 2.8.1-.5 1zm7.7.5 3 3.4-3.4 3 3 3.4-3.4 3 3 3.4-3.4 3 3 3.4-3.4 3 3 3.4-3.4 3 3 3.4-2.8 2.4-.8-.2-.1.2-1.6-.3.5-.4 2.1-1.8-3.1-3.5 1.4-1.2 2.1-1.8-3.1-3.5 1.4-1.2 2.1-1.8-3.1-3.5 1.4-1.2 2.1-1.8-3.1-3.5 1.4-1.2 2.1-1.8-3.1-3.5 1.4-1.2 2.1-1.8-3.1-3.5.7-.6 2.8.1-.7 1.2zm7.7.6 3 3.4-3.4 3 3 3.4-3.4 3 3 3.4-3.4 3 3 3.4-3.4 3 3 3.4-3.4 3 3 3.4-3.4 3 .6.6c-.7-.1-1.3-.2-1.9-.4l-1.1-.3-.2-.2 1.4-1.2 2.1-1.8-3.1-3.5 1.4-1.2 2.1-1.8-3.1-3.5 1.4-1.2 2.1-1.8-3.1-3.5 1.4-1.2 2.1-1.8-3.1-3.5 1.4-1.2 2.1-1.8-3.1-3.5 1.4-1.2 2.1-1.8-3.1-3.5 1-.8 2.8.1-1.2 1.6zm12.8 35.4-2.2-2.5 1.4-1.2 2.1-1.8-3.1-3.5 1.4-1.2 2.1-1.8-3.1-3.5 1.4-1.2 2.1-1.8-3.1-3.5 1.4-1.2 2.1-1.8-3.1-3.5 1.4-1.2 1.3-1.2c.4.5.8.9 1.2 1.4l-1.4 1.2 3 3.4-3.4 3 3 3.4-3.4 3 3 3.4-3.4 3 3 3.4-3.4 3 1 1.1c-.5.9-1.1 1.3-1.3 1.6zm-9.9 3.8-.4-.4 1.4-1.2 2.1-1.8-3.1-3.5 1.4-1.2 2.1-1.8-3.1-3.5 1.4-1.2 2.1-1.8-3.1-3.5 1.4-1.2 2.1-1.8-3.1-3.5 1.4-1.2 2.1-1.8-3.1-3.5 1.4-1.2 2.1-1.8-3.1-3.5.8-.7c.7.2 1.4.4 2.1.7l-.3.2 3 3.4-3.4 3 3 3.4-3.4 3 3 3.4-3.4 3 3 3.4-3.4 3 3 3.4-3.4 3 3 3.4-3.2 2.8c-1 .9-1.8 1-2.4 1zm-39.8-46.5-1-2.9c-3.7-.7-7.4-1.6-10.9-2.8-9.9-3.2-17.6-7.2-28.5-7.9-12.4-.8-24.5.2-36 2.8-13.6 3.1-26.4 8.3-38 15.4-3.3 2-5.9 5.2-7 8.9-.8 2.7-1.3 5.5-1.5 8.4-.3 4.2.1 8.3 1.2 12.1 1.1 4.3 4 7.9 7.9 9.9 11.6 5.9 24.6 9.6 38.5 10.5 2.6.1 5.2.2 7.8.2 8.8-.1 17.2-1.4 25.4-3.6 5.6-1.6 11.4-2.7 17.2-3.3l1.8-.2c5.7-.6 11.5-.8 17.2-.6l1.6-2.6c4.3-7 6.8-15.1 7.3-23.5.2-7.2-.7-14.2-3-20.8zm-12.2 25.1c-2.2-.1-3.9-2.1-3.8-4.3.1-2.2 2.1-3.9 4.3-3.8 2.2.1 3.9 2.1 3.8 4.3-.1 2.2-2 3.9-4.3 3.8zm-97.4-13.3 1.8 2.1-3.4 3 3 3.4-3.4 3 3 3.4-3.4 3 3 3.4-2.2 1.9c-.5-.4-.9-.9-1.2-1.4l.8-.7-1.9-2.1c-.1-.7-.3-1.3-.4-2l.6-.6 2.1-1.8-3-3.4 1.4-1.2 2.1-1.8-2.6-3 .3-1.2.6-.6 2.1-1.8-.7-.8 1.2-.9c-.1.3 0 .3.2.1zm9.1-4.9 1 1.1-3.4 3 3 3.4-3.4 3 3 3.4-3.4 3 3 3.4-3.4 3 3 3.4-3.4 3 2.3 2.6c-1.3-.5-2.7-1.1-4-1.7l-1-1.1 1.4-1.2 2.1-1.8-3.1-3.5 1.4-1.2 2.1-1.8-3.1-3.5 1.4-1.2 2.1-1.8-3.1-3.5 1.4-1.2 2.1-1.8-3.1-3.5 1.4-1.2 2-1.8c.3.2.9-.1 1.7-.5zm7.3-3.2-1.6 1.4 3 3.4-3.4 3 3 3.4-3.4 3 3 3.4-3.4 3 3 3.4-3.4 3 3 3.4-3.4 3 3 3.4-1.4 1.2-2.1-.6.8-.7-3.1-3.5 1.4-1.2 2.1-1.8-3.1-3.5 1.4-1.2 2.1-1.8-3.1-3.5 1.4-1.2 2.1-1.8-3.1-3.5 1.4-1.2 2.1-1.8-3.1-3.5 1.4-1.2 2.1-1.8-2.7-3c1.2-.1 2.4-.6 4-1.2zm7.7-2.9 1.9 1.8-3.4 3 3 3.4-3.4 3 3 3.4-3.4 3 3 3.4-3.4 3 3 3.4-3.4 3 3 3.4-3.4 3 3 3.4-2.7 2.4c-.7-.2-1.5-.4-2.3-.6l.3-.3 2.1-1.8-3.1-3.5 1.4-1.2 2.1-1.8-3.1-3.5 1.4-1.2 2.1-1.8-3.1-3.5 1.4-1.2 2.1-1.8-3.1-3.5 1.4-1.2 2.1-1.8-3.1-3.5 1.4-1.2 2.1-1.8-3.1-3.5 1.4-1.2 2.1-1.8-.9-1c.3.5.9.3 1.6.1zm7.8-2.3-1.3 1.1 3 3.4-3.4 3 3 3.4-3.4 3 3 3.4-3.4 3 3 3.4-3.4 3 3 3.4-3.4 3 3 3.4-3.4 3 3 3.4-3.4 3 .2.2c-1-.1-1.9-.3-2.8-.4l1.3-1.2 2.1-1.8-3.1-3.5 1.4-1.2 2.1-1.8-3.1-3.5 1.4-1.2 2.1-1.8-3.1-3.5 1.4-1.2 2.1-1.8-3.1-3.5 1.4-1.2 2.1-1.8-3.1-3.5 1.4-1.2 2.1-1.8-3.1-3.5 1.4-1.2L918 59l-2.9-3.3c1.3-.3 2.5-.7 4.1-1.1zm9.5-2 .5.6-3.4 3 3 3.4-3.4 3 3 3.4-3.4 3 3 3.4-3.4 3 3 3.4-3.4 3 3 3.4-3.4 3 3 3.4-3.4 3 3 3.4-3.4 3 .4.5c-.3 0-.6-.1-.9-.1-.6 0-1.1-.1-1.7-.1l-.4-.5 1.4-1.2 2.1-1.8-3.1-3.5 1.4-1.2 2.1-1.8-3.1-3.5 1.4-1.2 2.1-1.8-3.1-3.5 1.4-1.2 2.1-1.8-3.1-3.5 1.4-1.2 2.1-1.8-3.1-3.5 1.4-1.2 2.1-1.8-3.1-3.5 1.4-1.2 2.1-1.8-3.1-3.5 1.4-1.2 2-1.8c.2.7 1 .5 2.1.3zm6.4-.8 1.8 2-3.4 3 3 3.4-3.4 3 3 3.4-3.4 3 3 3.4-3.4 3 3 3.4-3.4 3 3 3.4-3.4 3 3 3.4-3.4 3 3 3.4-3.4 3 .1.1h-2.4l-.3-.3 1.4-1.2 2.1-1.8-3.1-3.5 1.4-1.2 2.1-1.8-3.1-3.5 1.4-1.2 2.1-1.8-3.1-3.5 1.4-1.2 2.1-1.8-3.1-3.5 1.4-1.2 2.1-1.8-3.1-3.5 1.4-1.2 2.1-1.8-3.1-3.5 1.4-1.2 2.1-1.8-3.1-3.5 1.4-1.2 2-1.8-1.4-1.5c.3.6 1.1.5 2.2.4zm6.5-.5 2.7 3-3.4 3 3 3.4-3.4 3 3 3.4-3.4 3 3 3.4-3.4 3 3 3.4-3.4 3 3 3.4-3.4 3 3 3.4-3.4 3 3.2 3.4-2.2 1.9-3.3.3.8-.7 2.1-1.8-3.1-3.5 1.4-1.2 2.1-1.8-3.1-3.5 1.4-1.2 2.1-1.8-3.1-3.5 1.4-1.2 2.1-1.8-3.1-3.5 1.4-1.2 2.1-1.8-3.1-3.5 1.4-1.2 2.1-1.8-3.1-3.5 1.4-1.2 2.1-1.8-3.1-3.5 1.4-1.2 2.1-1.8-2.4-2.8c.4.8 1.2.8 2.1.8zm7.6.1 3 3.4-3.4 3 3 3.4-3.4 3 3 3.4-3.4 3 3 3.4-3.4 3 3 3.4-3.4 3 3 3.4-3.4 3 3 3.4-3.4 3 2.7 3.1c-1 .2-2 .5-2.9.7l.6-.5-3.1-3.5 1.4-1.2 2.1-1.8-3.1-3.5 1.4-1.2 2.1-1.8-3.1-3.5 1.4-1.2L948 80l-3.1-3.5 1.4-1.2 2.1-1.8-3.1-3.5 1.4-1.2 2.1-1.8-3.1-3.5 1.4-1.2 2.1-1.8-3.1-3.5 1.4-1.2 2.1-1.8-3.1-3.5.1-.1h2.9l-.3 1zm10.7 3.9-3.4 3 3 3.4-3.4 3 3 3.4-3.4 3 3 3.4-3.4 3 3 3.4-3.4 3 3 3.4-3.4 3 3 3.4-3.4 3 1 1.1c-.7.1-1.3.3-2 .5l-1.6-1.8 1.4-1.2 2.1-1.8-3.1-3.5 1.1-1 2.1-1.8-3.1-3.5 1.4-1.2 2.1-1.8-3.1-3.5 1.4-1.2 2.1-1.8-3.1-3.5 1.4-1.2 2.1-1.8-3.1-3.5 1.4-1.2 2.1-1.8-3.1-3.5 1.4-1.2 2.1-1.8-3.1-3.5.5-.4c.4 0 .9.1 1.3.1.5 0 .9.1 1.3.1l-.5.5 3.3 3.8zm4.1 3.5 2.8 3.2c.1.1.1.2.1.3l-3.3 2.9 3 3.4-3.4 3 3 3.4-3.4 3 3 3.4-3.4 3 3 3.4-3.4 3 2.9 3.3c-.1.1-.1.2-.1.3L963 96c-1.2.2-2.5.5-3.7.7l1.1-1 2.1-1.8-3.1-3.5 1.4-1.2 2.1-1.8-3.1-3.5 1.4-1.2 2.1-1.8-3.1-3.5 1.4-1.2 2.1-1.8-3.1-3.5 1.4-1.2 2.1-1.8-3.1-3.5 1.4-1.2 2.1-1.8-3.1-3.5 1.4-1.2 1.8-1.6c.3.6.5 1.2.7 1.8l-1.3 1.9z" fill="#36434f"/><path class="st4" d="M879.2 541c-1.5-.6-3-1.1-4.5-1.4l-18.5-4.5c-3.9-1-7.8-2.1-11.6-3.5.8 8.8-.4 18.1-4.1 27.1-3.1 7.6-7.6 14.1-13 19.4 0 0 .1 0 .2.1l29.6 13.5c.3.2.7.3 1 .4 14.1 5.7 30.2-1 35.9-15.1s-.9-30.3-15-36zm-33.6 37.2L843 577l-.2-.4 4.3-1.8-1.1-2.5-.7-1.7 4.3-1.8-1.1-2.5-.7-1.7 4.3-1.8-1.1-2.5-.7-1.7 4.3-1.8-1.1-2.5-.7-1.7 4.3-1.8-1.1-2.5-.7-1.7 4.3-1.8-.7-1.8 2.2.5 1 2.2-4.2 1.8 1.8 4.2-4.2 1.8 1.8 4.2-4.2 1.8 1.8 4.2-4.2 1.8 1.8 4.2-4.2 1.8 1.8 4.2-4.2 1.8-.3.7zm7.3 3.3-2.5-1.2-.4-.8 4.3-1.8-1.1-2.5-.7-1.7 4.3-1.8-1.1-2.5-.7-1.7 4.3-1.8-1.1-2.5-.7-1.7 4.3-1.8-1.1-2.5-.7-1.7 4.3-1.8-1.1-2.5-.7-1.7 4.3-1.8-1.1-2.5-.3-.6 1.6.4v.2l.8.2 1.4 3.4-4.2 1.8 1.8 4.2-4.2 1.8 1.8 4.2-4.2 1.8 1.8 4.2-4.2 1.8 1.8 4.2-4.2 1.8 1.8 4.2-4.2 1.8-.1.9zm7.3 3.3-2.5-1.2-.5-1.2 4.3-1.8-1.1-2.5-.7-1.7 4.3-1.8-1.1-2.5-.7-1.7 4.3-1.8-1.1-2.5-.7-1.7 4.3-1.8-1.1-2.5-.7-1.7 4.3-1.8-1.1-2.5-.7-1.7 4.3-1.8-1.1-2.5-.7-1.7.2-.1 1.1.3c.6.1 1.3.3 1.9.5l-.8.3 1.8 4.2-4.2 1.8 1.8 4.2-4.2 1.8 1.8 4.2-4.2 1.8 1.8 4.2-4.2 1.8 1.8 4.2-4.2 1.8 1.8 4.2-4.2 1.8v1.4zm27.3-26-1.4.6 1.8 4.2-4.2 1.8 1.8 4.2-4.2 1.8 1.8 4.2-4.2 1.8 1.8 4.2-4.2 1.8.7 1.7c-.6.2-1.1.5-1.7.7l-.7-1.6-.7-1.7 4.3-1.8-1.1-2.5-.7-1.7 4.3-1.8-1.1-2.5-.7-1.7 4.3-1.8-1.1-2.5-.7-1.7 4.3-1.8-1.1-2.5-.7-1.7 3.1-1.3c-.2.5.1 1 .3 1.6zm-6-8.1 1.7 3.9-4.2 1.8 1.8 4.2-4.2 1.8 1.8 4.2-4.2 1.8 1.8 4.2-4.2 1.8 1.8 4.2-4.2 1.8 1.8 4.2-4.2 1.8.1.3c-.8-.1-1.4-.2-2.2-.3l-.4-.9 4.3-1.8-1.1-2.5-.7-1.7 4.3-1.8-1.1-2.5-.7-1.7 4.3-1.8-1.1-2.5-.7-1.7 4.3-1.8-1.1-2.5-.7-1.7 4.3-1.8-1.1-2.5-.7-1.7 4.3-1.8-1.1-2.5-.7-1.7.5-.2c.2.5.9.9 1.5 1.4zm-46.4 5.7c3.2-7.8 4.5-16.2 3.7-24.4l-.3-3c-5.3-2.3-10.4-5-15.2-8l-1.5-1c-4.9-3.1-9.6-6.7-14-10.5-6.3-5.6-13.4-10.4-21.2-14.4-2.3-1.2-4.7-2.2-7.1-3.2-12.9-5.2-26.2-7.6-39.2-7.3-4.4.1-8.6 2-11.5 5.4-2.6 3-4.8 6.5-6.3 10.4-1.1 2.7-1.8 5.5-2.3 8.2-.6 3.9.3 7.8 2.4 11.1 7.4 11.4 16.6 21.8 27.5 30.5 9.3 7.4 19.7 13.6 31.2 18.3 10.1 4.1 18.8 3.9 29.1 5.3 3.7.5 7.4 1.3 11 2.3l2.2-2.1c4.9-5 8.8-10.9 11.5-17.6zm-9.3-5.1c-.8 2.1-3.2 3.1-5.3 2.2-2.1-.8-3.1-3.2-2.2-5.3.8-2.1 3.2-3.1 5.3-2.2 2 .9 3 3.3 2.2 5.3zm-96-36.3c-.3-.4-.5-.8-.7-1.3l1-.4-1.1-2.5-.3-.8c.1-.4.1-.8.2-1.2l3.6-1.5-1.1-2.5-.7-1.7 4.2-1.8-1.1-2.5-.3-.8c.4-.6.8-1.1 1.2-1.6l2.6-1.1-.4-.9c.5-.3 1.1-.5 1.7-.7l1.1 2.6-4.2 1.8 1.8 4.2-4.2 1.8 1.8 4.2-4.2 1.8 1.8 4.2-2.5 1.1c0-.2-.1-.3-.2-.4zm5 7.1-1-2.5-.7-1.7 4.3-1.8-1.1-2.5-.7-1.7 4.3-1.8-1.1-2.5-.8-1.6 4.3-1.8-1.1-2.5-.7-1.7 4.3-1.8-1.1-2.5-.7-1.7 1.4-.6c1.4 0 2.9.1 4.3.2l-3.2 1.4 1.8 4.2-4.2 1.8 1.8 4.2-4.2 1.8 1.8 4.2-4.2 1.8 1.8 4.2-4.2 1.8 1.8 4.2-1.3.6c-.8-.7-1.2-1.2-1.6-1.7zm3.6 4.5 3.7-1.5-1.1-2.5-.7-1.7 4.3-1.8-1.1-2.5-.7-1.7 4.3-1.8-1.1-2.5-.7-1.7 4.3-1.8-1.1-2.5-.7-1.7 4.3-1.8-1.1-2.5-.7-1.7 4.3-1.8-.4-1 2.1.3.7 1.7-4.2 1.8 1.8 4.2-4.2 1.8 1.8 4.2-4.2 1.8 1.8 4.2-4.2 1.8 1.8 4.2-4.2 1.8 1.8 4.2-4.2 1.8.8 2c-1.4-1.2-2.3-2.3-3.2-3.3zm7.1 7.8 1.2-.5-1.1-2.5-.7-1.7 4.3-1.8-1.1-2.5-.7-1.7 4.3-1.8-1.1-2.5-.7-1.7 4.3-1.8-1.1-2.5-.7-1.7 4.3-1.8-1.1-2.5-.7-1.7 4.3-1.8-1.1-2.5-.7-1.7 4.3-1.8-1.1-2.5-.1-.4c.7.2 1.5.3 2.3.5l1.4 3.3-4.2 1.8 1.8 4.2-4.2 1.8 1.8 4.2-4.2 1.8 1.8 4.2-4.2 1.8 1.8 4.2-4.2 1.8 1.8 4.2-4.2 1.8 1.8 4.2-2.5.8c-.8-.2-1.3-.7-1.8-1.2zm4.3 4.1 4.1-1.7-1.1-2.5-.7-1.7 4.3-1.8-1.1-2.5-.7-1.7 4.3-1.8-1.1-2.5-.7-1.7 4.3-1.8-1.1-2.5-.7-1.7 4.3-1.8-1.1-2.5-.7-1.7 4.3-1.8-1.1-2.5-.7-1.7 4.3-1.8-1.1-2.5-.7-1.6c.9.3 1.8.5 2.7.8l-.2.1 1.8 4.2-4.2 1.8 1.8 4.2-4.2 1.8 1.8 4.2-4.2 1.8 1.8 4.2-4.2 1.8 1.8 4.2-4.2 1.8 1.8 4.2-4.2 1.8 1.8 4.2-4.2 1.8.7 1.5c-1.7-.8-2.7-1.7-3.7-2.6zm8.8 7.2-1-2.5-.7-1.7 4.3-1.8-1.1-2.5-.7-1.7 4.3-1.8-1.1-2.5-.7-1.7 4.3-1.8-1.1-2.5-.7-1.7 4.3-1.8-1.1-2.5-.7-1.7 4.3-1.8-1.1-2.5-.7-1.7 4.3-1.8-1.1-2.5-.7-1.7 4.3-1.8-1.1-2.5-.7-1.7.6-.3c.5.2 1.1.4 1.6.6.3.1.6.2.8.3l-.6.3 1.8 4.2-4.2 1.8 1.8 4.2-4.2 1.8 1.8 4.2-4.2 1.8 1.8 4.2-4.2 1.8 1.8 4.2-4.2 1.8 1.8 4.2-4.2 1.8 1.8 4.2-4.2 1.8 1.8 4.2-.7.3c-1.4-.3-1.9-.8-2.5-1.2zm5.3 3.7 1.9-.8-1.1-2.5-.7-1.7 4.3-1.8-1.1-2.5-.7-1.7 4.3-1.8-1.1-2.5-.7-1.7 4.3-1.8-1.1-2.5-.7-1.7 4.3-1.8-1.1-2.5-.7-1.7 4.3-1.8-1.1-2.5-.7-1.7 4.3-1.8-1.1-2.5-.7-1.7 4.3-1.8-1.1-2.5-.7-1.7.4-.2 1.2.6 1 .5-.1.1 1.8 4.2-4.2 1.8 1.8 4.2-4.2 1.8 1.8 4.2-4.2 1.8 1.8 4.2-4.2 1.8 1.8 4.2-4.2 1.8 1.8 4.2-4.2 1.8 1.8 4.2-4.2 1.8 1.8 4.2-2.5 1c-1.4-.4-2-.8-2.6-1.2zm5.6 3.5 3.4-1.4-1.1-2.5-.7-1.7 4.3-1.8-1.1-2.5-.7-1.7 4.3-1.8-1.1-2.5-.7-1.7 4.3-1.8-1.1-2.5-.7-1.7 4.3-1.8-1.1-2.5-.7-1.7 4.3-1.8-1.1-2.5-.7-1.7 4.3-1.8-1.1-2.5-.7-1.7 4.3-1.8-1.1-2.5-.4-1c.9.6 1.9 1.2 2.8 1.7l1.2 2.7-4.4 1.6 1.8 4.2-4.2 1.8 1.8 4.2-4.2 1.8 1.8 4.2-4.2 1.8 1.8 4.2-4.2 1.8 1.8 4.2-4.2 1.8 1.8 4.2-4.2 1.8 1.8 4.2-3.8 1.6c-1.2-.1-1.9-.5-2.6-.9zm9 4.7c-.9-.4-1.7-.8-2.6-1.3l-.1-.2 4.3-1.8-1.1-2.3-.7-1.7 4.3-1.8-1.1-2.5-.7-1.7 4.3-1.8-1.1-2.5-.7-1.7 4.3-1.8-1.1-2.5-.7-1.7 4.3-1.8-1.1-2.5-.7-1.7 4.3-1.8-1.1-2.5-.7-1.7 4.3-1.8-1.1-2.5-.7-1.7 4.3-1.8-.3-.7c.8.6 1.6 1.2 2.3 1.9l-3.8 1.6 1.8 4.2-4.2 1.8 1.8 4.2-4.2 1.8 1.8 4.2-4.2 1.8 1.8 4.2-4.2 1.8 1.8 4.2-4.2 1.8 1.8 4.2-4.2 1.8 1.8 4.2-4.2 1.8-.5.3zm6.9 2.5.3.6c-.4-.2-.8-.3-1.2-.5-.4-.2-.8-.3-1.2-.5l-.3-.6 4.3-1.8-1.1-2.5-.7-1.7 4.3-1.8-1.1-2.5-.7-1.7 4.3-1.8-1.1-2.5-.7-1.7 4.3-1.8-1.1-2.5-.7-1.7 4.3-1.8-1.1-2.5-.7-1.7 4.3-1.8-1.1-2.5-.7-1.7 4.3-1.8-1.1-2.5-.7-1.7 2.2-.9c.5.5 1 .9 1.6 1.3l-1.3.6 1.8 4.2-4.2 1.8 1.8 4.2-4.2 1.8 1.8 4.2-4.2 1.8 1.8 4.2-4.2 1.8 1.8 4.2-4.2 1.8 1.8 4.2-4.2 1.8 1.8 4.2-5 1.8zm10.3-1.4c-.5.5-.9.9-1.5 1.3l-.9-2.3-.7-1.7 4.3-1.8-1.1-2.5-.7-1.7 4.3-1.8-1.1-2.5-.7-1.7 4.3-1.8-1.1-2.5-.7-1.7 4.3-1.8-1.1-2.5-.7-1.7 4.3-1.8-1.1-2.5-.7-1.7 4.3-1.8-1.1-2.5-.6-1.3c1 .8 2 1.5 3 2.3l.9 2.2v.3l-4.1 1.7 1.8 4.2-4.2 1.8 1.8 4.2-4.2 1.8 1.8 4.2-4.2 1.8 1.8 4.2-4.2 1.8 1.7 4.1c-.1.1-.1.2-.2.2l-3.9 1.7.2 1.8zm305.3-39.8c-9.6 11.8-7.7 29.2 4.1 38.8 11.8 9.6 29.2 7.7 38.7-4.1.2-.3.4-.6.7-.9l19.5-26.1c0-.1.1-.1.1-.1-7.3-2-14.3-5.6-20.7-10.8-7.6-6.1-13.2-13.7-16.7-21.8-2.6 3-5.5 5.9-8.4 8.6l-14.1 12.9c-1.1 1.2-2.2 2.3-3.2 3.5zm47.2 16-4.5.5-.5-4.5-4.5.5-.5-4.5-4.5.5-.5-4.5-4.5.5-.5-4.5-4.5.5-.5-4.5-4.5.5-.2-2.4 1.7-1.6.2 1.9 4.6-.5.2 1.8.3 2.7 4.6-.5.2 1.8.3 2.7 4.6-.5.2 1.8.3 2.7 4.6-.5.2 1.8.3 2.7 4.6-.5.2 1.8.3 2.7 4.6-.5v.4l-1.7 2.2-.6-.5zm-4.8 6-4.5.5-.5-4.5-4.5.5-.5-4.5-4.5.5-.5-4.5-4.5.5-.5-4.5-4.5.5-.5-4.5-4.5.5-.4-3.7.7-.6-.1-.1 1.2-1.1.1.7.3 2.7 4.6-.5.2 1.8.3 2.7 4.6-.5.2 1.8.3 2.7 4.6-.5.2 1.8.3 2.7 4.6-.5.2 1.8.3 2.7 4.6-.5.2 1.8.3 2.7 4.6-.5.1.9-1.7 2.2-.8-1zm-4.9 6-4.5.5-.5-4.5-4.5.5-.5-4.5-4.5.5-.5-4.5-4.5.5-.5-4.5-4.5.5-.5-4.5-4.5.5-.5-4.5-.8.1 1.4-1.4.9-.8h.3l.2 1.8.3 2.7 4.6-.5.2 1.8.3 2.7 4.6-.5.2 1.8.3 2.7 4.6-.5.2 1.8.3 2.7 4.6-.5.2 1.8.3 2.7 4.6-.5.2 1.8.3 2.7 4.6-.5.1 1.3-1.7 2.2-.8-1.4zm-36.4-10 3.3-.4.2 1.8.3 2.7 4.6-.5.2 1.8.3 2.7 4.6-.5.2 1.8.3 2.7 4.6-.5.2 1.8.3 2.7 4.6-.5.2 1.8.2 1.8c-.6.1-1.2.2-1.8.2l-.2-1.8-4.5.5-.5-4.5-4.5.5-.5-4.5-4.5.5-.5-4.5-4.5.5-.5-4.5-1.5.2c-.4-.8-.4-1.4-.6-1.8zm2.7-10.3.6-.1.2 1.8.3 2.7 4.6-.5.2 1.8.3 2.7 4.6-.5.2 1.8.3 2.7 4.6-.5.2 1.8.3 2.7 4.6-.5.2 1.8.3 2.7 4.6-.5.2 1.8.3 2.7 4.6-.5.1 1c-.6.5-1.2.9-1.8 1.3v-.3l-4.5.5-.5-4.5-4.5.5-.5-4.5-4.5.5-.5-4.5-4.5.5-.5-4.5-4.5.5-.5-4.5-4.5.5-.4-4.3c-.4-.9 0-1.6.4-2.1z"/><path class="st4" d="m1165.7 521 2.9.8c2.7-2.6 5.6-5.1 8.6-7.3 8.4-6.2 16.1-10.3 22.9-18.7 7.8-9.6 14-20.1 18.5-31 5.4-12.9 8.5-26.4 9.4-39.9.3-3.9-.8-7.8-3.3-10.9-1.7-2.2-3.7-4.2-6-6.1-3.3-2.7-6.8-4.7-10.6-6.1-4.1-1.6-8.7-1.3-12.7.8-11.5 6.1-22.1 14.5-30.8 25.3-1.6 2.1-3.2 4.1-4.7 6.3-5 7.2-8.8 14.9-11.7 22.8-2 5.5-4.4 10.9-7.2 16l-.8 1.6c-2.8 5-6 9.8-9.5 14.4l1.2 2.8c3.2 7.5 8.4 14.2 15 19.6 5.8 4.3 12.1 7.6 18.8 9.6zm-13.5-24.5c1.4-1.7 4-2 5.7-.6s2 4 .6 5.7c-1.4 1.7-4 2-5.7.6-1.7-1.4-2-3.9-.6-5.7zm67.1-71.9-2.8.3-.5-4.5-4.5.5-.5-4.5-4.5.5-.5-4.5-4.5.5-.3-2.9c.6-.2 1.2-.2 1.8-.2l.1 1 2.8-.3c.6.3 1.2.5 1.9.8l.1.8.3 2.7 4.5-.5.2 1.8.3 2.7 3.9-.4c.3.3.5.6.8.9l.1.8.3 2.7 1.1-.1c.1.5.1 1 0 1.5-.1 0-.1.2-.1.4zm-1.3 10.3-1.4.2-.5-4.5-4.5.5-.5-4.5-4.5.5-.5-4.5-4.5.5-.5-4.5-4.5.5-.5-4.5-3.5.4c1.2-.8 2.4-1.5 3.7-2.3l1.5-.2.2 1.8.3 2.7 4.6-.5.2 1.8.3 2.7 4.6-.5.2 1.8.3 2.7 4.6-.5.2 1.8.3 2.7 4.6-.5.2 1.8.3 2.7c-.4.4-.5 1-.7 1.9zm-1.5 7.8-.2-2.1-4.5.5-.5-4.5-4.5.5-.5-4.5-4.5.5-.5-4.5-4.5.5-.5-4.5-4.5.5-.5-4.5-4.5.5-.2-1.8c.5-.5 1.1-.9 1.7-1.3l.1 1.1 4.6-.5.2 1.8.3 2.7 4.6-.5.2 1.8.3 2.7 4.6-.5.2 1.8.3 2.7 4.6-.5.2 1.8.3 2.7 4.6-.5.2 1.8.3 2.7 4-.4c-.7 1-1 2.4-1.4 4zm-2.1 7.9-2.5.5-.5-4.5-4.5.5-.5-4.5-4.5.5-.5-4.5-4.5.5-.5-4.5-4.5.5-.5-4.5-4.5.5-.5-4.5-4.5.5-.4-3.6 1.8-1.5.1.4.3 2.7 4.6-.5.2 1.8.3 2.7 4.6-.5.2 1.8.3 2.7 4.6-.5.2 1.8.3 2.7 4.6-.5.2 1.8.3 2.7 4.6-.5.2 1.8.3 2.7 4.6-.5.2 1.8.3 2.7 1.3-.2c-.8.5-1 1.1-1.2 1.7zm-2.7 7.8-.2-1.6-4.5.5-.5-4.5-4.5.5-.5-4.5-4.5.5-.5-4.5-4.5.5-.5-4.5-4.5.5-.5-4.5-4.5.5-.5-4.5-4.5.5-.5-4.5h-.3c.7-.7 1.3-1.4 2-2l.2 1.8.3 2.7 4.6-.5.2 1.8.3 2.7 4.6-.5.2 1.8.3 2.7 4.6-.5.2 1.8.3 2.7 4.6-.5.2 1.8.3 2.7 4.6-.5.2 1.8.3 2.7 4.6-.5.2 1.8.3 2.7 4.4-.5c-.9.8-1.4 2-2 3.6zm-3.8 8.8-.8.1-.5-4.5-4.5.5-.5-4.5-4.5.5-.5-4.5-4.5.5-.5-4.5-4.5.5-.5-4.5-4.5.5-.5-4.5-4.5.5-.5-4.5-4.5.5-.5-4.5h-.6c.2-.2.4-.5.6-.7.3-.5.7-.9 1.1-1.3l.7-.1.2 1.8.3 2.7 4.6-.5.2 1.8.3 2.7 4.6-.5.2 1.8.3 2.7 4.6-.5.2 1.8.3 2.7 4.6-.5.2 1.8.3 2.7 4.6-.5.2 1.8.3 2.7 4.6-.5.2 1.8.3 2.7 4.6-.5.2 1.8.3 2.7c-.9.3-1.2 1-1.7 2zm-3 5.8-2.7.3-.5-4.5-4.5.5-.5-4.5-4.5.5-.5-4.5-4.5.5-.5-4.5-4.5.5-.5-4.5-4.5.5-.5-4.5-4.5.5-.5-4.5-4.5.5-.5-4.5h-.1l.6-.9c.2-.4.5-.7.8-1.1h.4l.2 1.8.3 2.7 4.6-.5.2 1.8.3 2.7 4.6-.5.2 1.8.3 2.7 4.6-.5.2 1.8.3 2.7 4.6-.5.2 1.8.3 2.7 4.6-.5.2 1.8.3 2.7 4.6-.5.2 1.8.3 2.7 4.6-.5.2 1.8.3 2.7 2-.2c-.8.2-1.2.9-1.7 1.9zm-3.3 5.6-4.1.5-.5-4.5-4.5.5-.5-4.5-4.5.5-.5-4.5-4.5.5-.5-4.5-4.5.5-.5-4.5-4.5.5-.5-4.5-4.5.5-.5-4.5-4.6.7-.3-2.9c.5-.9 1.1-1.9 1.6-2.8l.1 1 .3 2.7 4.6-.5.2 1.8.3 2.7 4.6-.5.2 1.8.3 2.7 4.6-.5.2 1.8.3 2.7 4.6-.5.2 1.8.3 2.7 4.6-.5.2 1.8.3 2.7 4.6-.5.2 1.8.3 2.7 4.6-.5.2 1.8.3 2.7 3.7-.4c-1 .3-1.4.9-1.9 1.7zm-4.5 6.2-4.5.5-.5-4.5-4.5.5-.5-4.5-4.5.5-.5-4.5-4.5.5-.5-4.5-4.5.5-.5-4.5-4.5.5-.5-4.5-4.5.5-.5-4.5-4.1.4c.4-.9.7-1.9 1.1-2.8l.1.8 4.6-.5.2 1.8.3 2.7 4.6-.5.2 1.8.3 2.7 4.6-.5.2 1.8.3 2.7 4.6-.5.2 1.8.3 2.7 4.6-.5.2 1.8.3 2.7 4.6-.5.2 1.8.3 2.7 4.6-.5.2 1.8.3 2.7 4.6-.5v.2c-.5.8-1.1 1.6-1.7 2.3l-.7-.4zm-9.4 6.4-.5-4.5-4.5.5-.5-4.5-4.5.5-.5-4.5-4.5.5-.5-4.5-4.5.5-.5-4.5-4.5.5-.5-4.5-4.5.5-.5-4.5-1.4.2c.3-.6.5-1.3.7-1.9l2.4-.3.2 1.8.3 2.7 4.6-.5.2 1.8.3 2.7 4.6-.5.2 1.8.3 2.7 4.6-.5.2 1.8.3 2.7 4.6-.5.2 1.8.3 2.7 4.6-.5.2 1.8.3 2.7 4.6-.5.2 1.8.3 2.7 4.6-.5.1.7c-.3.3-.6.7-.8 1-.3.4-.6.7-.8 1l-.1-.7-5.3.5zm-5.2 1.4-4.3.4c-.1 0-.2-.1-.3-.1l-.5-4.4-4.5.5-.5-4.5-4.5.5-.5-4.5-4.5.5-.5-4.5-4.5.5-.5-4.5-4.4.5c0-.1-.1-.2-.2-.3l-.3-2.4c.5-1.1 1.1-2.3 1.5-3.5l.2 1.4.3 2.7 4.6-.5.2 1.8.3 2.7 4.6-.5.2 1.8.3 2.7 4.6-.5.2 1.8.3 2.7 4.6-.5.2 1.8.3 2.7 4.6-.5.2 1.8.3 2.7 4.6-.5.2 1.8.3 2.4c-.7-.1-1.3-.3-1.9-.5l-.7-1.5z"/></svg>