<svg xmlns="http://www.w3.org/2000/svg" viewBox="0 0 1920 673" xml:space="preserve"><style>.st2{fill:#36434f}.st4{opacity:.15;fill:#444;enable-background:new}</style><path fill="#35965f" d="M0 0h1920v673H0z"/><path d="M564.6 652.8V20.2m79.1 632.6V20.2m79.1 632.6V20.2m79.1 632.6V20.2m79 632.6V20.2M960 652.8V20.2m79.1 632.6V20.2m79 632.6V20.2m79.1 632.6V20.2m79.1 632.6V20.2m79.1 632.6V20.2m79 553.5H485.6m948.8-79.1H485.6m948.8-79H485.6m948.8-79.1H485.6m948.8-79.1H485.6m948.8-79H485.6m948.8-79.1H485.6" fill="none" stroke="#ddd" stroke-width="4" stroke-miterlimit="10"/><circle class="st2" cx="485.6" cy="336.5" r="17.6"/><circle class="st2" cx="485.6" cy="257.4" r="17.6"/><circle class="st2" cx="485.6" cy="415.6" r="17.6"/><circle class="st2" cx="1434.4" cy="336.5" r="17.6"/><circle class="st2" cx="1434.4" cy="257.4" r="17.6"/><circle class="st2" cx="1434.4" cy="415.6" r="17.6"/><path class="st2" d="M490 24.6h940v623.8H490V24.6m-8.8-8.8v641.4h957.6V15.8H481.2z"/><path d="M1141.8 507.8c1.8-2.4 20.3-26.9 32.6-53.4 12.1-26.2 18.9-41.3 19.7-43.1l13.8-15 1.3-1.1c4.4-18.8 6.7-38.4 6.7-58.6 0-118.8-81-218.7-190.7-247.6l-16.7 12c-3.5-.5-29.8-4-49.7-4-20 0-46.2 3.5-49.7 4L893 89.5C784.2 119 704 218.4 704 336.6c0 20.1 2.3 39.6 6.7 58.3l14.8 14.7c.8 1.8 7.8 17.7 19.9 43.8 12.3 26.5 30.7 51.6 32.5 54l2.7 11.7c46.2 45.4 109.5 73.4 179.4 73.4 69.5 0 132.4-27.7 178.6-72.6l3.2-12.1z" fill="#ddd"/><path class="st4" d="M815.2 531.5c19.5 6.2 51.7 9.7 53.1 9.8l22 1.5 1.1-16-21.5-1.5c-2.3-.3-32.4-3.7-49.8-9.2-16.6-5.3-33.2-13.9-35.8-15.2l-32.5-22.2-2.3 3.3c8.1 11.7 17.2 22.8 27.1 33 2.9 1.6 20.4 10.8 38.6 16.5zm-96.4-109.2 13.7 2.9 2.9-13.6c.4-1.8 6.2-25.2 12.7-41.9 6.8-17.6 14.8-35.5 14.9-35.7l16.1-43.1-15-5.6-15.8 42.4c-1 2.2-8.5 19.2-15 36.1-7.1 18.3-13.1 43-13.3 44l-2.3 10.7c.3 1.4.6 2.6 1.1 3.8zM867.3 134c-11.4 14.7-27.4 41.7-28.1 42.8l-7.4 13.7 14.1 7.7 7.2-13.3c1.2-1.9 16.4-27.6 26.9-41.1 10.6-13.7 35.1-34.6 35.4-34.8l10.7-9.1-10.5-12.2-10.7 9.1c-1.1.9-26.1 22.2-37.6 37.2zm6.4 267.1c-14.6-27.2-22.4-47.2-22.4-47.4L836 318.6l-14.7 6.3 14.9 34.8c.8 2 8.6 21.8 23.2 49 15.2 28.4 35.4 52.8 36.2 53.8l32.2 35.9 11.9-10.7-31.9-35.5c-1.3-1.8-20.3-25.1-34.1-51.1zM757.8 235.5l32.2 25.4 10-12.5-31.9-25.2-25.5-21.8c-2.9 4.6-5.6 9.3-8.2 14.1.1 0 23.4 20 23.4 20zm266.4 227.2.2-.2c.9-1 21-25.4 36.2-53.8 14.6-27.2 22.4-47 23.2-49l14.9-34.8-14.7-6.3-15 34.9-.1.3c-.1.2-7.8 20.1-22.4 47.4-13.9 26-32.9 49.3-34.3 51.1l-31.9 35.5 11.9 10.7 32-35.8zM886.3 247.9h147.5v16H886.3v-16zm284.4 234.3-2.3-3.3-32.5 22.2c-2.6 1.4-19.1 10-35.8 15.2-17.4 5.5-47.5 8.9-49.8 9.2l-21.5 1.5 1.1 16 21.7-1.5h.3c1.4-.1 33.5-3.7 53.1-9.8 18.2-5.8 35.7-14.9 38.5-16.4 10-10.4 19-21.4 27.2-33.1zm29.6-73.9v-.2c-.3-1-6.2-25.7-13.3-44-6.6-16.9-14.1-33.9-15-36.1l-15.8-42.4-15 5.6 15.9 42.6.2.5c.1.2 8 18 14.9 35.7 6.5 16.7 12.2 40.1 12.7 41.9l2.9 13.6 13.7-2.9c.4-1.2.9-2.4 1.3-3.6l-2.5-10.7zm-160-264.5c10.4 13.5 25.7 39.1 26.9 41.1l7.2 13.3 14.1-7.7-7.4-13.4-.1-.2c-.7-1.1-16.6-28.1-28.1-42.8-11.6-15-36.6-36.3-37.6-37.2l-10.7-9.1-10.4 12.2 10.7 9.1c.3.1 24.8 21 35.4 34.7zm89.8 117.1 32-25.3 23.6-20.2c-2.6-4.8-5.3-9.5-8.2-14.1l-25.5 21.8-31.9 25.3 10 12.5zM952 592.5c2.7.1 5.3.1 8 .1s5.3-.1 8-.1v-47.4h-16v47.4z"/><path class="st2" d="m1018.3 457.4 32.8 76s-24.5 15.5-45.5 25.5-45.5 17.5-45.5 17.5-24.5-7.5-45.5-17.5-45.6-25.5-45.6-25.5l32.8-76h116.5zm174.3-47.5s-7 16-20 44-32.5 54-32.5 54l-2.3 12.8c35.4-34.1 61-78.4 72.1-128.1l-17.3 17.3zm-35.5-180.5-83-48.5-55.8 75s16.3 21 31.3 48 26.8 52.8 26.8 52.8 27.2-11.8 48.2-17.8 40-8 40-8l-7.5-101.5zM960 98.9c21.5 0 50 4 50 4l18.5-13c-21.8-6.1-44.8-9.5-68.5-9.5s-46.7 3.4-68.5 9.5l18.5 13s28.5-4 50-4zm-212.5 355c-13-28-20-44-20-44l-17.3-17.3c11.1 49.7 36.7 93.9 72.1 128.1l-2.3-12.8s-19.5-26-32.5-54zm154.3-198-55.8-75-83 48.5-7.5 101.5s19 2 40 8 48.2 17.8 48.2 17.8 11.8-25.8 26.8-52.8 31.3-48 31.3-48z"/><path class="st4" d="M950.8 592.4h9.3V80.6c-141.4 0-256 114.6-256 256-.1 138.2 109.6 250.9 246.7 255.8z"/></svg>