<svg xmlns="http://www.w3.org/2000/svg" viewBox="0 0 1920 673" xml:space="preserve"><style>.st1{fill:#2e86b7}.st3{fill:#444}</style><path fill="#ddd" d="M0 0h1920v673H0z"/><path class="st1" d="M890.7 78c34.9-9.3 70.5-11.6 106-6.6 34.3 4.8 66.9 16 97 33.3 30 17.3 56.2 40 77.4 67.3 22 28.3 38 60.2 47.3 95.1s11.6 70.5 6.6 106c-4.8 34.3-16 66.9-33.3 97-17.3 30-40 56.2-67.3 77.4-28.3 22-60.2 38-95.1 47.3-34.9 9.3-70.5 11.6-106 6.6-34.3-4.8-66.9-16-97-33.3-30-17.3-56.2-40-77.4-67.3-22.1-28.2-38-60.2-47.3-95.1-9.3-34.9-11.6-70.5-6.6-106 4.8-34.3 16-66.9 33.3-97 17.3-30 40-56.2 67.3-77.4 28.3-22.1 60.2-37.9 95.1-47.3m-4.6-17.2c-152.3 40.8-242.6 197.3-201.8 349.6S881.6 653 1033.9 612.2s242.6-197.3 201.8-349.6C1194.9 110.3 1038.4 20 886.1 60.8z"/><path class="st1" d="M913.5 163.1c46.3-12.4 94.6-6.1 136.2 18 41.5 24.1 71.3 62.6 83.7 108.9s6.1 94.6-18 136.2-62.6 71.3-108.9 83.7c-46.3 12.4-94.6 6.1-136.2-18-41.5-24.1-71.3-62.6-83.7-108.9s-6.1-94.6 18-136.2 62.6-71.3 108.9-83.7m-2.3-8.6C810.8 181.4 751.1 284.8 778 385.3c26.9 100.5 130.3 160.2 230.8 133.2 100.5-26.9 160.2-130.3 133.2-230.8s-130.3-160.1-230.8-133.2z"/><path class="st1" d="M913.5 163.1c46.3-12.4 94.6-6.1 136.2 18 41.5 24.1 71.3 62.6 83.7 108.9s6.1 94.6-18 136.2-62.6 71.3-108.9 83.7c-46.3 12.4-94.6 6.1-136.2-18-41.5-24.1-71.3-62.6-83.7-108.9s-6.1-94.6 18-136.2 62.6-71.3 108.9-83.7m-2.3-8.6C810.8 181.4 751.1 284.8 778 385.3c26.9 100.5 130.3 160.2 230.8 133.2 100.5-26.9 160.2-130.3 133.2-230.8s-130.3-160.1-230.8-133.2z"/><path class="st1" d="M897.7 103.9c31.4-8.4 63.6-10.5 95.5-6 30.8 4.3 60.2 14.5 87.3 30 27 15.6 50.5 36 69.7 60.6 19.8 25.4 34.2 54.2 42.6 85.7 8.4 31.4 10.5 63.6 6 95.5-4.3 30.8-14.5 60.2-30 87.3-15.6 27-36 50.5-60.6 69.7-25.4 19.8-54.2 34.2-85.7 42.6-31.4 8.4-63.6 10.5-95.5 6-30.8-4.3-60.2-14.5-87.3-30-27-15.6-50.5-36-69.7-60.6-19.8-25.4-34.2-54.2-42.6-85.7-8.4-31.4-10.5-63.6-6-95.5 4.3-30.8 14.5-60.2 30-87.3 15.6-27 36-50.5 60.6-69.7 25.4-19.9 54.2-34.2 85.7-42.6m-2.3-8.6C762.1 131 683.1 267.9 718.8 401.1c35.7 133.2 172.7 212.3 305.9 176.6C1157.9 542 1237 405 1201.3 271.8S1028.6 59.6 895.4 95.3zm-285 39.4"/><circle class="st1" cx="807.6" cy="487" r="11.1"/><circle class="st1" cx="1167.3" cy="390.6" r="11.1"/><path class="st1" d="M829.5 302.2c-7.7-6.8-9.5-11.2-8.8-13 .4-1.4 2.7-2.7 6.2-3.6 3.1-.8 6.9-1.3 11.4-1.4 3.4 3.9 7.4 8.2 12 12.6l5.1-1.4c-4.6-4.2-8.2-7.9-11.2-11.3 6.8.1 14.8.8 23.5 2 1.2 1.6 2.6 3.3 4 4.9l4.7-1.3c-.7-1-1.5-1.9-2.2-2.7 2.5.4 5.1.8 7.7 1.3l11.3-3c-2.8-4.8-5.3-9.5-7.7-14 5 1.8 10.3 3.8 15.7 6.2.6 1.7 1.2 3.5 1.9 5.3l4.3-1.2c-.1-.5-.4-1.2-.6-1.7.9.3 1.8.8 2.7 1.1l10.6-2.8c-.4-2.5-.8-5.1-1.1-7.7 2.7 1.8 5.4 3.7 8.2 5.8l5.6-1.5c-.1-.1-.3-.3-.4-.3.1-3.6.3-7.2.5-10.7 2.4 2.5 5 5.1 7.4 7.7-.1.5-.2 1-.3 1.4l6.1-1.6c-.3-.4-.7-.7-1-1 .8-3.6 1.7-7 2.5-10.4 1.9 2.9 3.8 5.9 5.8 9.1-.1.1-.1.4-.2.5l5.6-1.5c1.4-3.1 2.7-6.2 4.3-9.1 1 2.4 1.9 4.8 2.9 7.2l10.6-2.8c.6-.8 1.2-1.6 1.8-2.3.1.5.2 1.2.4 1.8l4.3-1.2c-.4-1.9-.6-3.6-1-5.5 3.6-4.8 7.1-9.2 10.5-13.2.2 5.1.3 10.4.3 16l11.3-3c2.1-1.7 4.1-3.4 6.1-5-.1 1.2-.4 2.3-.6 3.5l4.7-1.3c.3-2.2.7-4.2 1-6.3 7-5.4 13.5-10 19.4-13.5-.9 4.4-2.3 9.5-4.1 15.4l5.1-1.4c1.8-6.3 3.3-12 4.1-16.9 3.9-2.1 7.6-3.6 10.6-4.5 3.4-.9 6.1-.9 7.2 0 1.5 1.2 2.1 6-1.1 15.7l5.1-1.4c2.4-8.6 2.3-14.8-1.1-17.7-2.4-2.1-6.3-2.4-11.2-1-2.6.7-5.5 1.8-8.7 3.4 1.3-10.3 0-17.2-4.2-19.6-1.9-1.1-4.2-1.2-7-.4-3.4.9-7.6 3.2-12.1 6.6-.8-10.4-3.4-16.9-7.9-18.4-1.4-.4-2.9-.5-4.5-.1-3.8 1-8.2 4.4-13.1 9.8-2.8-10-6.7-15.9-11.5-16.5-.8-.1-1.8-.1-2.7.2-4 1.1-8.3 5.6-12.6 12.8-4.7-9.3-9.6-14.3-14.4-14-.5 0-.9.1-1.3.2-4.3 1.2-8 6.7-11.2 15.5-6.5-8.2-12.2-12.1-16.9-10.8-4.6 1.2-7.7 7.6-9.2 17.8-7.2-6.2-13.2-9.1-17.5-7.9-.4.1-.9.2-1.3.5-4.3 2.1-6 8.9-5.4 19.3-7.3-4.1-13.2-5.9-17.3-4.8-1 .3-1.8.7-2.4 1.2-3.8 3-4.1 10-1.7 20.1-7-2.3-12.5-3-16.2-2-1.6.4-2.9 1.2-3.9 2.3-3.2 3.6-2.1 10.6 2.3 19.9-5.7-.7-10.3-.6-13.8.3-2.8.8-4.8 2.1-5.9 3.9-2.4 4.2-.1 10.9 6.2 19.1-3.5.2-6.6.7-9.2 1.4-5.1 1.4-8.2 3.5-9.2 6.5-1.4 4.2 1.5 9.6 7.9 15.9l5-1.3-.2-.2zm150.7-52.3c-1.3-6.2-2.7-12.1-4-17.5 4.9-8.5 9.2-14.9 12.8-19.8 1 5.6 1.9 12.4 2.5 20.8.1.9.1 1.8.2 2.7-3.8 4.3-7.6 8.9-11.5 13.8zm36.7-33c5.2-4.3 9.7-7 13-7.9 1.1-.3 2.6-.6 3.6.1 1.8 1 3.5 6.2 1.6 18.3-5.8 3.3-12.5 7.6-19.6 13 1.1-9 1.6-16.9 1.4-23.5zm-24.4-8.9c7.1-8.5 11.3-10.4 12.9-10.8.8-.2 1.4-.3 1.9-.1 2 .6 4.7 5.4 5.1 17.7-5.1 4.4-10.7 9.9-16.7 16.6-.7-9-1.8-16.9-3.2-23.4zm20 12.7c-.1 5.7-.6 12.5-1.6 20.7-.1.8-.2 1.8-.3 2.6-4.5 3.5-9.1 7.3-13.9 11.5-.1-6.3-.2-12.3-.5-18 5.9-6.7 11.4-12.3 16.3-16.8zm-34.3-30c.3-.1.7-.1 1 0 2 .3 5.6 4.4 8.4 16.3-4.1 5.3-8.6 11.8-13.1 19.6-2.4-8.7-5-16.2-7.7-22.3 4.7-8.8 8.7-12.9 11.4-13.6zm-62.6 88c-3.7-1.7-7.3-3.2-10.8-4.7-1.9-5.6-3.6-10.9-5.1-16.2 4.6 2.8 9.3 5.8 14.2 9.1.4 3.8 1 7.8 1.7 11.8zm12.1-7.5c-3.3-2.4-6.5-4.6-9.8-6.7-.7-5.8-1.4-11.4-1.9-16.8 4 3.7 8 7.5 12.2 11.7-.1 3.7-.3 7.7-.5 11.8zm13.4-5.1c-2.8-3-5.5-5.8-8.3-8.5.4-5.9.9-11.4 1.5-16.9 3.1 4.4 6.5 9 9.7 13.9-1 3.7-2 7.5-2.9 11.5zm14.2-2.3c-2.2-3.5-4.3-6.8-6.4-10 1.5-5.7 3-11.1 4.6-16.3 2.2 4.9 4.6 10.1 6.8 15.5-1.7 3.4-3.3 7.1-5 10.8zm21.2-9.1c-2.3 3-4.7 6.2-7 9.5-1.5-3.8-2.9-7.4-4.4-11.1 2.6-5.3 5.2-10.3 7.8-15 1.3 5.3 2.5 10.8 3.6 16.6zm-5.9-25.4.7 2.6c-2.7 4.9-5.6 10.3-8.4 15.9-2.5-5.8-5-11.2-7.4-16.4 3-8.9 5.9-16.2 8.7-21.9 2.1 5.2 4.2 11.6 6.4 19.8zM950 189.7l.4-.1c2.1-.1 6.4 3.2 11.5 14.4-3 6-6.1 13.3-9.1 21.7-4.1-8-8-14.8-11.9-20.4 3.3-10.8 6.9-15 9.1-15.6zm-.5 39.5 1.2 2.4c-1.8 5.3-3.5 11.1-5.2 17.2-3.6-5.3-7.1-10.1-10.4-14.6 0-.2 0-.4.1-.6 1.2-9.2 2.6-16.6 4.1-22.6 3 4.8 6.5 10.8 10.2 18.2zm-27.6-34.9c2-.5 6.8 1.9 14 11.8-1.8 6.5-3.5 14.2-4.7 23.1-5.6-7-10.8-13-15.6-17.6 1.3-12.2 4.3-16.7 6.3-17.3zm-6.7 23.2c4.3 4.4 9.2 10.1 14.8 17.5.2.2.2.3.4.5-.7 5.6-1.3 11.7-1.7 17.9-4.5-4.4-8.9-8.6-13.1-12.3 0-.9-.1-1.8-.2-2.7-.4-8.4-.4-15.3-.2-20.9zm-20.4-13 .4-.1c2.2-.6 7.3 1.3 15.7 9-.5 6.7-.6 14.6-.1 23.6-6.8-5.8-13.1-10.6-18.7-14.3-1.1-12.2.9-17.3 2.7-18.2zm-2 23.9c5.3 3.7 11.4 8.5 18.5 14.7.5 5.6 1 11.6 1.8 17.9-5.3-3.4-10.3-6.7-15.3-9.5l-.7-2.6c-2.1-8.1-3.4-14.8-4.3-20.5zm-10.3 36.9-1.2-2.4c-3.6-7.6-6.3-13.9-8.3-19.3 5.6 2.4 12.5 5.9 21 10.8 1.5 5.5 3.2 11.3 5.3 17.2-5.9-2.3-11.5-4.4-16.8-6.3zm-12.1-45.6c.3-.2.5-.4.9-.5 2.8-.8 8.3.8 16.6 5.9.8 6.7 2.3 14.5 4.5 23.2-7.9-4.4-14.9-7.9-21.1-10.4-3.5-11.6-2.5-16.9-.9-18.2zm17.4 65c-6.2-1.2-12.1-2.2-17.8-3-.5-.7-1.1-1.4-1.6-2.1-5-6.6-8.9-12.4-11.8-17.2 6.5 1.4 14.1 3.6 22.6 6.5 2.6 5.1 5.4 10.3 8.6 15.8zm-38.4-45.3c.3-.4.9-.7 1.7-.9 1.6-.4 6.2-.9 16.6 2.9 2.1 6.4 5.1 13.8 9 21.8-8.5-2.8-16.2-4.8-22.7-6-6-10.7-6-16.2-4.6-17.8zm-16.8 23.5c.6-1 2-1.6 3.1-1.9 3.3-.9 8.6-.8 15.2.3 3.3 5.8 7.6 12.5 13 19.6-8.9-1.1-16.8-1.5-23.5-1.4-7.8-9.5-8.9-14.8-7.8-16.6zm257.9 107.9c7.7 6.8 9.5 11.2 8.8 13-.4 1.4-2.7 2.7-6.2 3.6-3.1.8-6.9 1.3-11.4 1.4-3.4-3.9-7.4-8.2-12-12.6l-5.2 1.4c4.6 4.2 8.2 7.9 11.2 11.3-6.8-.1-14.8-.8-23.5-2-1.2-1.6-2.6-3.3-4-4.9l-4.7 1.3c.7 1 1.5 1.9 2.2 2.7-2.5-.4-5.1-.8-7.7-1.3l-11.2 3c2.8 4.8 5.3 9.5 7.7 14-5-1.8-10.3-3.8-15.7-6.2-.6-1.7-1.2-3.5-1.9-5.3l-4.3 1.2c.1.5.4 1.2.6 1.7-.9-.3-1.8-.8-2.7-1.1l-10.6 2.8c.4 2.5.8 5.1 1.1 7.7-2.7-1.8-5.4-3.7-8.2-5.8l-5.6 1.5c.1.1.3.3.4.3-.1 3.6-.3 7.2-.5 10.7-2.4-2.5-5-5.1-7.4-7.7.1-.5.2-1 .3-1.4l-6.1 1.6c.3.4.7.7 1 1-.8 3.6-1.7 7-2.5 10.4-1.9-2.9-3.8-5.9-5.8-9.1.1-.1.1-.4.2-.5l-5.6 1.5c-1.4 3.1-2.7 6.2-4.3 9.1-1-2.4-1.9-4.8-2.9-7.2l-10.6 2.8c-.6.8-1.2 1.6-1.8 2.3-.1-.5-.2-1.2-.4-1.8l-4.3 1.2c.4 1.9.6 3.6 1 5.5-3.6 4.8-7.1 9.2-10.5 13.2-.2-5.1-.3-10.4-.3-16l-11.3 3c-2.1 1.7-4.1 3.4-6.1 5 .1-1.2.4-2.3.6-3.5l-4.2 1.1c-.3 2.2-.7 4.2-1 6.3-7 5.4-13.5 10-19.4 13.5.9-4.4 2.3-9.5 4.1-15.4l-5.1 1.4c-1.8 6.3-3.3 12-4.1 16.9-3.9 2.1-7.6 3.6-10.6 4.5-3.4.9-6.1.9-7.2 0-1.5-1.2-2.1-6 1.1-15.7l-5.1 1.4c-2.4 8.6-2.3 14.8 1.1 17.7 2.4 2.1 6.3 2.4 11.2 1 2.6-.7 5.5-1.8 8.7-3.4-1.3 10.3 0 17.2 4.2 19.6 1.9 1.1 4.2 1.2 7 .4 3.4-.9 7.6-3.2 12.1-6.6.8 10.4 3.4 16.9 7.9 18.4 1.4.4 2.9.5 4.5.1 3.8-1 8.2-4.4 13.1-9.8 2.8 10 6.7 15.9 11.5 16.5.8.1 1.8.1 2.7-.2 4-1.1 8.3-5.6 12.6-12.8 4.7 9.3 9.6 14.3 14.4 14 .5 0 .9-.1 1.3-.2 4.3-1.2 8-6.7 11.2-15.6 6.5 8.2 12.2 12.1 16.9 10.8 4.6-1.2 7.7-7.6 9.2-17.8 7.2 6.2 13.1 8.9 17.4 7.8.4-.1.9-.2 1.3-.5 4.3-2.1 6-8.9 5.4-19.3 7.3 4.1 13.2 5.9 17.3 4.8 1-.3 1.8-.7 2.4-1.2 3.8-3 4.1-10 1.7-20.1 7 2.3 12.5 3 16.2 2 1.6-.4 2.9-1.2 3.9-2.3 3.2-3.6 2.1-10.6-2.3-19.9 5.7.7 10.3.6 13.8-.3 2.8-.8 4.8-2.1 5.9-3.9 2.4-4.2.1-10.9-6.2-19.1 3.5-.2 6.6-.7 9.2-1.4 5.1-1.4 8.2-3.5 9.2-6.5 1.4-4.2-1.5-9.6-7.9-15.9l-5.5 1.5.3.4zm-150.7 52.3c1.3 6.2 2.7 12.1 4 17.5-4.9 8.5-9.2 14.9-12.8 19.8-1-5.6-1.9-12.4-2.5-20.8-.1-.9-.1-1.8-.2-2.7 3.8-4.3 7.6-8.9 11.5-13.8zm-36.7 33c-5.2 4.3-9.7 7-13 7.9-1.1.3-2.6.6-3.6-.1-1.8-1-3.5-6.2-1.6-18.3 5.8-3.3 12.5-7.6 19.6-13-1.1 9-1.6 16.9-1.4 23.5zm24.4 8.9c-7.1 8.5-11.3 10.4-12.9 10.8-.8.2-1.4.3-1.9.1-2-.6-4.7-5.4-5.1-17.7 5.1-4.4 10.7-9.9 16.7-16.6.7 9 1.8 16.9 3.2 23.4zm-20-12.7c.1-5.7.6-12.5 1.6-20.7.1-.8.2-1.8.3-2.6 4.5-3.5 9.1-7.3 13.9-11.5.1 6.3.2 12.3.5 18-5.9 6.7-11.4 12.3-16.3 16.8zm34.3 30c-.3.1-.7.1-1 0-2-.3-5.6-4.4-8.4-16.3 4.1-5.3 8.6-11.8 13.1-19.6 2.4 8.7 5 16.2 7.7 22.3-4.7 8.8-8.7 12.9-11.4 13.6zm62.6-88c3.7 1.7 7.3 3.2 10.8 4.7 1.9 5.6 3.6 10.9 5.1 16.2-4.6-2.8-9.3-5.8-14.2-9.1-.4-3.8-1-7.8-1.7-11.8zm-12.1 7.5c3.3 2.4 6.5 4.6 9.8 6.7.7 5.8 1.4 11.4 1.9 16.8-4-3.7-8-7.5-12.2-11.7.1-3.7.3-7.7.5-11.8zm-13.4 5.1c2.8 3 5.5 5.8 8.3 8.5-.4 5.9-.9 11.4-1.5 16.9-3.1-4.4-6.5-9-9.7-13.9 1-3.7 2-7.5 2.9-11.5zm-14.2 2.3c2.2 3.5 4.3 6.8 6.4 10-1.5 5.7-3 11.1-4.6 16.3-2.2-4.9-4.6-10.1-6.8-15.5 1.7-3.4 3.3-7.1 5-10.8zm-21.2 9.1c2.3-3 4.7-6.2 7-9.5 1.5 3.8 2.9 7.4 4.4 11.1-2.6 5.3-5.2 10.3-7.8 15-1.3-5.3-2.5-10.8-3.6-16.6zm5.9 25.4-.7-2.6c2.7-4.9 5.6-10.3 8.4-15.9 2.5 5.8 5 11.2 7.4 16.4-3 8.9-5.9 16.2-8.7 21.9-2.1-5.2-4.2-11.6-6.4-19.8zm20.6 39.6-.4.1c-2.1.1-6.4-3.2-11.5-14.4 3-6 6.1-13.3 9.1-21.7 4.1 8 8 14.8 11.9 20.4-3.3 10.8-6.9 15-9.1 15.6zm.5-39.5-1.2-2.4c1.8-5.3 3.5-11.1 5.2-17.2 3.6 5.3 7.1 10.1 10.4 14.6 0 .2 0 .4-.1.6-1.2 9.2-2.6 16.6-4.1 22.6-3-4.8-6.5-10.8-10.2-18.2zm27.6 34.9c-2 .5-6.8-1.9-14-11.8 1.8-6.5 3.5-14.2 4.7-23.1 5.6 7 10.8 13 15.6 17.6-1.3 12.2-4.3 16.7-6.3 17.3zm6.7-23.2c-4.3-4.4-9.2-10.1-14.8-17.5-.2-.2-.2-.3-.4-.5.7-5.6 1.3-11.7 1.7-17.9 4.5 4.4 8.9 8.6 13.1 12.3 0 .9.1 1.8.2 2.7.4 8.4.4 15.3.2 20.9zm20.4 13-.4.1c-2.2.6-7.3-1.3-15.7-9 .5-6.7.6-14.6.1-23.6 6.8 5.8 13.1 10.6 18.7 14.3 1.1 12.2-.9 17.3-2.7 18.2zm2-23.9c-5.3-3.7-11.4-8.5-18.5-14.7-.5-5.6-1-11.6-1.8-17.9 5.3 3.4 10.3 6.7 15.3 9.5l.7 2.6c2.1 8.1 3.4 14.8 4.3 20.5zm10.3-36.9 1.2 2.4c3.6 7.6 6.3 13.9 8.3 19.3-5.6-2.4-12.5-5.9-21-10.8-1.5-5.5-3.2-11.3-5.3-17.2 5.9 2.3 11.5 4.4 16.8 6.3zm12.1 45.6c-.3.2-.5.4-.9.5-2.8.8-8.3-.8-16.6-5.9-.8-6.7-2.3-14.5-4.5-23.2 7.9 4.4 14.9 7.9 21.1 10.4 3.5 11.6 2.5 16.9.9 18.2zm-17.4-65c6.2 1.2 12.1 2.2 17.8 3 .5.7 1.1 1.4 1.6 2.1 5 6.6 8.9 12.4 11.8 17.2-6.5-1.4-14.1-3.6-22.6-6.5-2.6-5.1-5.4-10.3-8.6-15.8zm38.4 45.3c-.3.4-.9.7-1.7.9-1.6.4-6.2.9-16.6-2.9-2.1-6.4-5.1-13.8-9-21.8 8.5 2.8 16.2 4.8 22.7 6 6 10.7 6 16.2 4.6 17.8zm16.8-23.5c-.6 1-2 1.6-3.1 1.9-3.3.9-8.6.8-15.2-.3-3.3-5.8-7.6-12.5-13-19.6 8.9 1.1 16.8 1.5 23.5 1.4 7.8 9.5 8.9 14.8 7.8 16.6z"/><path class="st1" d="M1105.7 231.7c12.7 17.6 22 37.2 27.6 58.4 5.7 21.2 7.4 42.8 5.2 64.4l-324.4 86.9c-12.7-17.6-22-37.2-27.6-58.4-5.7-21.2-7.4-42.8-5.2-64.4l324.4-86.9m3.5-10.2-336 90c-3.2 23.9-1.9 49 4.8 73.8s17.9 47.1 32.8 66.3l336-90c3.2-23.9 1.9-49-4.8-73.8-6.6-24.8-17.9-47.2-32.8-66.3z"/><path class="st1" d="m895.4 331.4-19.6 5.2 14.2 53.1-15.7 4.2-14.2-53.1-19.2 5.2-3.3-12.1 54.5-14.6 3.3 12.1zm38.9 21.7-8.5 2.3 6.2 23.1-15.7 4.2-17.5-65.2 25.7-6.9c7.7-2.1 14.2-2 19.5.3 5.3 2.3 8.8 6.5 10.4 12.8 1.2 4.5 1.3 8.5.3 12s-3.3 6.7-6.7 9.6l20.7 22.7.2.7-16.8 4.5-17.8-20.1zm-11.7-9.8 9.9-2.7c3-.8 5-2.2 6.1-4.2 1.1-2 1.3-4.4.5-7.2s-2.1-4.8-4.1-6c-2-1.2-4.4-1.4-7.4-.6l-9.9 2.7 4.9 18zm87.2-55.6 11.4 42.7c1.3 4.8 1.4 9.3.3 13.4-1.1 4.1-3.3 7.6-6.7 10.5-3.4 2.9-7.7 5-12.9 6.4-7.9 2.1-14.8 1.7-20.4-1.2-5.7-2.9-9.5-7.9-11.5-15.1l-11.5-43 15.8-4.2 11.6 43.3c2.1 7.1 6.4 9.8 12.8 8 3.3-.9 5.5-2.4 6.7-4.7 1.2-2.2 1.2-5.4.2-9.4l-11.4-42.6 15.6-4.1zm60.3 24.1-24.7 6.6 4.2 15.6 29.2-7.8 3.2 12.1-44.9 12-17.5-65.2 45-12.1 3.3 12.1-29.3 7.9 3.7 13.8 24.7-6.6 3.1 11.6z"/><g opacity=".15"><path class="st3" d="M1029.2 595c-34.9 9.3-70.5 11.6-106 6.6-34.3-4.8-66.9-16-97-33.3-30-17.3-56.2-40-77.4-67.3-22.1-28.2-38-60.2-47.3-95.1-9.3-34.9-11.6-70.5-6.6-106 4.8-34.3 16-66.9 33.3-97 17.3-30 40-56.2 67.3-77.4 28.2-22.1 60.2-37.9 95.1-47.3L886 61c-152.3 40.8-242.6 197.3-201.8 349.6 40.8 152.3 197.3 242.6 349.5 201.8l-4.5-17.4z"/><circle transform="rotate(-60 807.573 487.024)" class="st3" cx="807.6" cy="487" r="11.1"/><path class="st3" d="m1008.7 518.5-2.3-8.6c-46.3 12.4-94.6 6.1-136.1-18-19.5-11.3-36.5-25.9-50.2-42.9l37.6-10.1c-.8 5.4-.1 9.4 2.4 11.6 2.4 2.1 6.3 2.4 11.2 1 2.6-.7 5.5-1.8 8.7-3.4-1.3 10.3 0 17.2 4.2 19.6 1.9 1.1 4.2 1.2 7 .4 3.4-.9 7.6-3.2 12.1-6.6.8 10.4 3.4 16.9 7.9 18.4 1.4.4 2.9.5 4.5.1 3.8-1 8.2-4.4 13.1-9.8 2.8 10 6.7 15.9 11.5 16.5.8.1 1.8.1 2.7-.2 4-1.1 8.3-5.6 12.6-12.8 4.7 9.3 9.6 14.3 14.4 14 .5 0 .9-.1 1.3-.2 4.3-1.2 8-6.7 11.2-15.6 6.4 8 12 11.9 16.6 10.9l-1.2-4.3c-2.1.5-6.8-1.9-14-11.8 1.8-6.5 3.5-14.2 4.7-23l-3.1-11.6c-3.1-4.3-6.4-9-9.7-13.8 1.1-3.7 2-7.5 2.9-11.5l-2.4-9.1-162.2 43.5c-5.4-7.5-10.1-15.3-14.3-23.4-.2-.4-.4-.7-.5-1-.4-.7-.7-1.5-1.1-2.3-.3-.6-.5-1.1-.8-1.7-.3-.6-.6-1.3-.9-1.9l-.9-2.1c-.2-.6-.5-1.1-.7-1.7-.3-.8-.7-1.6-1-2.4l-.6-1.5c-.3-.8-.7-1.7-1-2.5-.2-.5-.4-1-.5-1.4-.3-.9-.6-1.8-1-2.7-.2-.5-.3-.9-.5-1.4-.3-.9-.6-1.8-.9-2.8-.1-.4-.3-.9-.4-1.3-.3-1-.6-2-.9-2.9-.1-.4-.2-.8-.4-1.2l-1.2-4.2c-.4-1.4-.7-2.8-1.1-4.2-.1-.5-.2-.9-.3-1.4-.2-.9-.4-1.8-.6-2.8-.1-.6-.2-1.2-.4-1.8-.2-.8-.3-1.6-.5-2.4-.1-.7-.3-1.4-.4-2.1-.1-.7-.2-1.3-.4-2-.1-.8-.3-1.6-.4-2.4-.1-.5-.2-1-.2-1.6-.1-1-.3-1.9-.4-2.9 0-.3-.1-.6-.1-.9-.1-1.2-.3-2.4-.4-3.5v-.1c-1.3-12.1-1.3-24.2 0-36.3l162.2-43.5-2.4-9.1c-2.7-2.9-5.4-5.8-8.2-8.5.4-5.8.9-11.4 1.5-16.8l-3.1-11.6c-5.6-7-10.7-13-15.5-17.6 1.2-12.2 4.2-16.7 6.2-17.2l-1.2-4.4c-4.4 1.5-7.4 7.7-8.8 17.7-7.2-6.2-13.2-9.1-17.5-7.9-.4.1-.9.2-1.3.5-4.3 2.1-6 8.9-5.4 19.3-7.3-4.1-13.2-5.9-17.3-4.8-1 .3-1.8.7-2.4 1.2-3.8 3-4.1 10-1.7 20.1-7-2.3-12.5-3-16.2-2-1.6.4-2.9 1.2-3.9 2.3-3.2 3.6-2.1 10.6 2.3 19.9-5.7-.7-10.3-.6-13.8.3-2.8.8-4.8 2.1-5.9 3.9-2.4 4.2-.1 10.9 6.2 19.1-3.5.2-6.6.7-9.2 1.4-5.1 1.4-8.2 3.5-9.2 6.5-1.1 3.1.3 7 3.8 11.3l-38 10.5c3.4-21.6 10.8-42.7 22.1-62.2 24.1-41.5 62.6-71.3 108.9-83.7l-2.3-8.6C810.7 181.4 751.1 284.8 778 385.3c.4 1.6.9 3.1 1.3 4.6.1.5.3 1 .5 1.5.3 1 .6 2.1 1 3.1l.6 1.8c.3.9.6 1.9.9 2.8.2.6.5 1.2.7 1.9.3.9.6 1.7 1 2.6.2.6.5 1.3.8 1.9.3.8.6 1.7 1 2.5.3.7.6 1.3.8 2 .3.8.6 1.5 1 2.3.3.7.7 1.5 1 2.2l.9 2.1 1.2 2.4.9 1.8c.5.9.9 1.8 1.4 2.8.2.4.5.9.7 1.3l1.8 3.3c.1.2.3.5.4.7 40.9 73.2 127.9 112.4 212.8 89.6zM970 483.3l-.4.1c-2.1.1-6.4-3.2-11.5-14.4 3-6 6.1-13.3 9.1-21.7 4.1 8 8 14.8 11.9 20.4-3.3 10.8-6.9 15-9.1 15.6zm14.9-44.5c0 .2 0 .4-.1.6-1.2 9.2-2.6 16.6-4.1 22.6-3-4.7-6.5-10.7-10.2-18.2l-1.2-2.4c1.8-5.3 3.5-11.1 5.2-17.2 3.6 5.2 7.1 10.1 10.4 14.6zm-11.2-31c-.5 1.8-.9 3.7-1.4 5.4-.9-1.4-1.9-2.9-2.8-4.3l4.2-1.1zm-8.4 2.3c2 3.1 3.9 6.2 5.8 9.1-1.5 5.7-3 11.1-4.6 16.3-2.2-4.9-4.6-10.1-6.8-15.5 1.6-3 3.1-6.3 4.6-9.5l1-.4zm-7.2 1.9c-.4.8-.7 1.5-1.1 2.3-.2-.6-.5-1.2-.7-1.8l1.8-.5zm-14.6 6.3c.7-.9 1.4-1.9 2.2-2.9l6.7-1.8c.8 2.1 1.6 4.2 2.5 6.3-2.6 5.3-5.2 10.3-7.8 15-1.3-5.3-2.5-10.8-3.6-16.6zm5.2 22.8c2.7-4.9 5.6-10.3 8.4-15.9 2.5 5.8 5 11.2 7.4 16.4-3 8.9-5.9 16.2-8.7 21.9-2.1-5.2-4.3-11.7-6.5-19.9l-.6-2.5zm-45.6 15c-5.2 4.3-9.7 7-13 7.9-1.1.3-2.6.6-3.6-.1-1.8-1-3.5-6.2-1.6-18.3 5.8-3.3 12.5-7.6 19.6-13-1.1 9-1.6 16.9-1.4 23.5zm24.4 8.9c-7.1 8.5-11.3 10.4-12.9 10.8-.8.2-1.4.3-1.9.1-2-.6-4.7-5.4-5.1-17.7 5.1-4.4 10.7-9.9 16.7-16.6.7 9 1.8 16.9 3.2 23.4zm14.3 17.3c-.3.1-.7.1-1 0-2-.3-5.6-4.4-8.4-16.3 4.1-5.3 8.6-11.8 13.1-19.6 2.4 8.7 5 16.2 7.7 22.3-4.7 8.8-8.7 12.9-11.4 13.6zm-14.5-62 10.6-2.8c-3.5 4.7-7 9-10.3 12.9-.2-3.3-.2-6.7-.3-10.1zm1.1 16.6c3.7-4.2 7.6-8.8 11.4-13.8 1.3 6.2 2.7 12.1 4 17.5-4.9 8.5-9.2 14.9-12.8 19.8-1-5.6-1.9-12.4-2.5-20.8-.1-.9-.1-1.8-.1-2.7zm-19-8c2.3-1.8 4.7-3.7 7.1-5.7l6.8-1.8c.1 4.9.2 9.6.5 14.1-5.9 6.8-11.4 12.4-16.4 16.9.1-5.7.6-12.5 1.6-20.7.2-1 .3-2 .4-2.8zm-21.3 1.9 17.2-4.6v.1c-7 5.4-13.5 10-19.4 13.5.5-2.7 1.3-5.7 2.2-9zm-25.7 6.9 20.7-5.6c-1 3.8-1.8 7.3-2.4 10.6-3.9 2.1-7.6 3.6-10.6 4.5-3.4.9-6.1.9-7.2 0-1-1-1.6-4-.5-9.5zm52.4-164.1-6.7 1.8c-1.1-.5-2.2-1-3.3-1.4-1.9-5.6-3.6-10.9-5.1-16.2 4.6 2.8 9.3 5.8 14.2 9.1.2 2.2.5 4.4.9 6.7zm4.5-1.2c-.1-.6-.2-1.3-.3-1.9.7.5 1.4.9 2 1.4l-1.7.5zm8.5-2.3-1.1.3c-2.9-2.1-5.8-4.1-8.7-6-.7-5.8-1.4-11.4-1.9-16.8 4 3.7 8 7.5 12.2 11.7-.2 3.5-.4 7.1-.5 10.8zm9-2.4-4.2 1.1c.1-1.7.2-3.5.3-5.2 1.2 1.4 2.5 2.7 3.9 4.1zm-21.6-50.2c4.3 4.4 9.2 10.1 14.8 17.5.2.2.2.3.4.5-.7 5.6-1.3 11.7-1.7 17.9-4.5-4.4-8.9-8.6-13.1-12.3 0-.9-.1-1.8-.2-2.7-.4-8.4-.4-15.3-.2-20.9zm-20.4-13 .4-.1c2.2-.6 7.3 1.3 15.7 9-.5 6.7-.6 14.6-.1 23.6-6.8-5.8-13.1-10.6-18.7-14.3-1.1-12.2.9-17.3 2.7-18.2zm2.4 44.4c-2.2-8.1-3.5-14.8-4.3-20.4 5.3 3.7 11.4 8.5 18.5 14.7.5 5.6 1 11.6 1.8 17.9-5.3-3.4-10.3-6.7-15.3-9.5l-.7-2.7zm-46.7 41.9c-2.4-2.4-4.5-4.6-6.4-6.7 6.8.1 14.8.8 23.5 2l.1.1-17.2 4.6zm30.8-28c-3.6-7.6-6.3-13.9-8.3-19.3 5.6 2.4 12.5 5.9 21 10.8 1.5 5.5 3.2 11.3 5.3 17.2-5.9-2.2-11.5-4.3-16.8-6.2-.4-.8-.8-1.7-1.2-2.5zm9 17.4c-1.7-3-3.3-6-4.8-8.9 4.9 1.7 10 3.7 15.4 6l-10.6 2.9zm-19.9-60.5c.3-.2.5-.4.9-.5 2.8-.8 8.3.8 16.6 5.9.8 6.7 2.3 14.5 4.5 23.2-7.9-4.4-14.9-7.9-21.1-10.4-3.5-11.6-2.5-16.9-.9-18.2zm15.5 61.6-6.8 1.8c-3.1-.5-6.1-1-9-1.4-.5-.7-1.1-1.4-1.6-2.1-5-6.6-8.9-12.4-11.8-17.2 6.5 1.4 14.1 3.6 22.6 6.5 2 4 4.2 8.2 6.6 12.4zm-36.5-41.9c.3-.4.9-.7 1.7-.9 1.6-.4 6.2-.9 16.6 2.9 2.1 6.4 5.1 13.8 9 21.8-8.5-2.8-16.2-4.8-22.7-6-6-10.7-6-16.2-4.6-17.8zm-16.8 23.5c.6-1 2-1.6 3.1-1.9 3.3-.9 8.6-.8 15.2.3 3.3 5.8 7.6 12.5 13 19.6-8.9-1.1-16.8-1.5-23.5-1.4-7.8-9.5-8.9-14.8-7.8-16.6zm-11.9 26.3c.4-1.4 2.7-2.7 6.2-3.6 3.1-.8 6.9-1.3 11.4-1.4 2.2 2.5 4.6 5.2 7.3 8l-20.7 5.6c-3.8-4.4-4.7-7.2-4.2-8.6z"/><path class="st3" d="m890.1 389.7-14.3-53.1 19.6-5.2-3.2-12.2-54.6 14.6 3.3 12.2 19.2-5.2 14.2 53.1z"/><path class="st3" d="M718.8 401.1c35.7 133.2 172.6 212.3 305.8 176.6l-2.3-8.4c-31.4 8.4-63.6 10.4-95.4 6-30.8-4.3-60.2-14.5-87.3-30-27-15.6-50.5-36-69.7-60.6-19.8-25.4-34.2-54.2-42.6-85.7-8.4-31.4-10.5-63.6-6-95.5 4.3-30.8 14.5-60.2 30-87.3 15.6-27 36-50.5 60.6-69.7 25.4-19.8 54.2-34.1 85.6-42.6l-2.3-8.6C762.1 131 683.1 267.9 718.8 401.1z"/><path class="st3" d="M954.7 335.7c1-3.5.9-7.5-.3-12-1.7-6.3-5.2-10.5-10.4-12.8-5.3-2.3-11.8-2.4-19.5-.3l-25.7 6.9 17.5 65.2 15.7-4.2-6.2-23.1 8.5-2.3 17.7 20 16.6-4.4-.3-1.2-20.3-22.3c3.4-2.9 5.7-6 6.7-9.5zm-16.1.8c-1.1 2-3.1 3.4-6.1 4.2l-9.9 2.7-4.8-18 9.9-2.7c3-.8 5.4-.6 7.4.6s3.3 3.2 4.1 6 .5 5.2-.6 7.2z"/></g></svg>