<svg xmlns="http://www.w3.org/2000/svg" viewBox="0 0 1920 673" xml:space="preserve"><style>.st1{fill:#ffcc80}.st2{opacity:.15;fill:#444;enable-background:new}</style><path fill="#f4f4f4" d="M0 0h1920v673H0z"/><path class="st1" d="M1027.9 635.4H851.6c.2-9.2 2.5-18.9.5-27.7-3.3-13.9-2-27.3-1.8-41.2.4-19.6-.6-39.2-1.4-58.7-.6-14.2-3.2-28.4-2.7-42.5.8-27.1 3.2-54 4.9-81 1.9-27.4 5.3-55 5.1-82.4-.1-18.2-5.5-36.3-7.8-54.5-2.7-21.5-5.3-43-6.8-64.4-1.2-16.6-.5-33.4-.9-50.1-.6-21.5-2.2-43-2.1-64.3 0-9.9 7.8-16 17-17.6 5-.9 10.9.9 16 2.8 10.4 3.7 12.5 13.9 13.9 22.8 2.8 17.6 3.5 35.5 6 53.1 2.7 18.4 6.3 36.8 9.9 55 2 9.8 4.4 19.6 7.5 29.1 2.7 8.4 6.4 16.5 9.8 24.6.2.5 1.2.7 1.8.9.1 0 .5-.5.5-.7-.2-4-.5-8.1-.8-12-1.2-15.8-3.6-31.5-3.3-47.3.4-13.1 4.3-25.9 6.1-39 2.7-19.7 4.4-39.7 7.1-59.4 1.5-10.9 3-22.1 6.4-32.5 2.7-8.2 11.2-11.3 19.4-10.6 8.6.7 17.4 4.6 19.3 13.8 1.8 8.5 1.1 17.6.7 26.4-.8 19.8-2.8 39.6-2.9 59.3-.2 22.2.6 44.4 2 66.5.7 11.1 3.4 22.1 6 32.8.5 1.8 5.3 6.1 7.1 5.5 2.8-.7 3-8.4 3.5-10.4 2.1-10 4.1-20.1 7-30 5.6-19.5 12.6-38.8 18.2-58.3 3.6-12.7 5.7-25.9 9-38.8 2-7.9 3.2-16.9 7.7-23.3 7.4-10.5 22.1-9.7 31.5 2.2 3.9 4.9 4 14.2 3.2 21.1-2.2 17.6-5.8 35.1-9 52.8-3 17-6.1 34.2-9.3 51.2-1.5 7.9-3.3 15.9-4.8 23.8-1.6 8.4-3.3 12 6.2 13.8 17.4 3.3 32 21.2 29.9 38.9-1.9 16.1-.1 32.6.2 48.9.7 34.7-1.8 69.6-8.6 103.7-3.5 17.3-8.3 34.4-14.1 51.1-5.6 15.6-15.5 31.2-19.3 47.2-3.2 13.8-5.1 27.9-6.7 42-2.4 19.2-3.4 38.4-4.8 57.4z"/><path class="st2" d="M1081 334.2c-.2-13.3-1.5-26.7-.9-40-.7 1.9-1.5 3.9-2 5.8-1.2 5.4-1.6 11-2.8 16.3-2.7 13.3 2 29.3-11.2 38.9-2.9 2.1-7.5 3.2-11.8 3.2-2 0-4-.2-5.7-.7-2.6-.7-5.5-2.5-7.8-4.8.8-.5 1.6-.8 2.3-1.3 8.8-5 14.7-14.8 16.6-26.7 2-12.8-1.3-25.4-8.8-33.7-9.1-9.9-19.8-8.9-29.1-7.1-1.3-9.3-1.1-18.6 5.1-27.6 4.3-6.2 10.6-11.2 18.7-11.2 1.3 0 2-.2 2.9-.2-3.9-1.6-3.7-4.4-2.8-9.1h-.2c-10.3 0-19.6 5.4-26.4 15.2-8.1 11.7-8.2 23.8-6.7 34.7-6.3 1.4-12.5 3.3-18.4 5.3-6.9 2.2-13.4 4.2-20.1 5.5-1.1.2-2.1.4-3.2.6-10.9 2-22.2 4.1-32 12.5-4.4 3.7-9 7.4-13.5 11-17-9.5-32.7-15.5-33.9-16-2.5-.9-5.1.2-6.1 2.7s.2 5.1 2.7 6.1c.2.1 13.9 5.4 29.2 13.5-.7.6-1.4 1.1-2.1 1.6-6.1 4.7-12.3 9.5-18.3 14.4-13.7 11.1-25.9 21.7-37.7 32.5-2.6 2.3-4.4 5.1-6.2 7.9l-.1.8c-.4 4.8-.7 9.6-.9 14.2 4.6-3.4 4.8-3.5 5.1-4.1 1.2-1.6 2.2-3.4 3.2-5 1.6-2.7 3.2-5.3 5.1-7 11.7-10.6 23.8-21.1 37.4-32.1 6-4.8 12.1-9.6 18.1-14.2 7.9-6.2 16.2-12.5 24-19.1 7.9-6.8 17-8.4 27.6-10.4 1.1-.2 2.1-.4 3.3-.6 7.2-1.4 14.4-3.6 21.1-5.7 7.2-2.2 14-4.4 21-5.7 1.1-.2 2-.4 3-.6 8.9-1.8 16.5-3.2 22.9 3.9 5.5 6.1 8.1 16 6.4 26-1.4 9.1-5.8 16.3-12 20-8.9 5.1-18.8 9.1-28.4 13l-3.3 1.3c-4.7 1.9-9.6 3.5-14.4 5.1-6 2.1-12.3 4.2-18.2 6.8-5.4 2.3-9.9 6.7-13.9 10.4l-.6.6c-4.8 4.6-9.6 9.6-15.6 16.6-3.2 3.6-6.2 7.4-9.1 11-5.6 7-11 13.5-17.2 19.4-6.9 6.4-14.7 12.3-22.4 17.9-3.9 2.8-7.9 5.8-11.8 8.9-2 1.6-2.3 4.6-.8 6.5.9 1.2 2.3 1.8 3.7 1.8 1.1 0 2-.4 2.9-.9 3.7-2.9 7.7-5.8 11.6-8.6 7.8-5.7 16-11.7 23.2-18.6 6.7-6.3 12.5-13.4 18.1-20.3 2.9-3.5 5.8-7.2 8.9-10.6 5.8-6.7 10.5-11.6 15.1-15.9l.6-.6c.4-.4.7-.6 1.1-.9 6.4 24.2 8.5 50.3 8.5 50.7.2 2.5 2.2 4.3 4.7 4.3h.4c2.6-.2 4.6-2.5 4.3-5-.1-1.8-2.5-30.6-9.9-56.4.7-.5 1.5-.8 2.2-1.2 5.6-2.5 11.7-4.6 17.5-6.5 4.9-1.6 9.9-3.4 14.8-5.4l3.3-1.3c6.2-2.5 12.4-4.9 18.6-7.8 3.7 4.4 9 8.2 14.2 9.5 2.5.6 5.1.9 7.9.9 4 0 11.4-.7 17.3-4.9 6.3-4.6 9.7-10.2 11.4-15.9.4-5.1.4-9.3.3-13.6z"/><path class="st1" d="M1365.7 486.2h-87.3c.1-5.8 1.2-11.8.1-17.3-1.2-6.4-.2-12.7.4-19.1.6-7.2.4-14.4-.2-21.5-1.1-14.7-3.7-29.4-4.3-44.2-.8-19.8 4.4-38.4 5.8-58 2.5-37.6-2.2-75.3-.2-112.9.2-3.9 1.6-8 3.4-11.5 1.7-3.3 5.4-4.3 9.1-3.9 3.7.4 7.3 2.2 8.3 5.9 3.2 10.7 2.2 23 3.6 34.1 1.8 14.4 3.7 29.3 8.7 42.9 1.1 3 4 4 7 3.8.5 0 .7-2.8 1.1-4.3 0-.1.1-.2.1-.3 2.5-17.5 6.6-34.7 11.7-51.5 2.6-8.5 5.4-16.8 8.3-25.2 2.3-6.5 3.6-14.3 11.3-16.1 5.9-1.4 13.6 3.6 12.8 9.5-2 14-7.3 27.7-10.1 41.6-1.6 7.8-3 15.7-4.3 23.6-.8 5.5-4.6 17.8-2.2 22.5 2.8-2.3 4.6-7 6.6-10.1 2.2-3.5 7.5-6.4 10.4-5.6 11.3 3.5 19.2 13.1 14.7 25.4-.5 1.3-2.2 3.8-2.1 5.3.3 2.6.5 1.4 2.9 2.6 3.9 1.9 7.1 2.9 9.4 6.8 2 3.5 4.7 7.3 4.9 11.1.4 6.9-2.2 13.6-2.8 20.3-.8 8-.4 16.3-.8 24.4-.9 15.9-3 31.8-8.4 46.8-4.2 11.9-10.4 23.2-14.3 35.2-4.6 13.2-3.9 26-3.6 39.7z"/><path class="st2" d="M1391 333.5c-1.5 5.4-2.9 10.8-4.2 16.3-1.2 4.9-2.7 9.8-3.5 14.8-.9 6.9-5.9 11.7-11.9 11.7-1.5 0-3.2-.3-4.8-.9-3-1.2-4.6-4.9-4.5-8.5.3-8.2.7-16.6 1.2-24.8.2-3.7.4-7.5 1.1-11.2.1-.2.1-.4.1-.6.2-1.1.5-2.2.8-3.3.6-2 1.3-4.2 1.9-6.2l.5-1.8c1.1-3.5 2.2-7 3.2-10.6.6-2.2 1.5-4.7 3.2-6.3 1.2-1.1 2.7-1.4 4.3-1.2-.2-.2-.3-.7-.4-1.6-.1-.9.5-2.2 1.1-3.3-.1.1-.1.1-.2.1-.6.5-2.5.1-3.3.3-1.3.3-2.5.9-3.6 1.6-2.2 1.4-4.1 3.5-4.7 6-.9 3.2-1.9 6.4-2.8 9.5-1.5-3.4-4.2-6.2-8.1-8.1-3-1.5-6.8-1.1-10.2-.6.1-1.1.2-2.2.2-3.3.3-5.1 1.1-10.1 1.6-15.2.1-.9.4-1.7.7-2.5l-.4.4c-.9-1.8-.9-4.6-.5-7.7-.2.2-.4.5-.5.8l-.2.3-.6.9c-1.3 1.8-2.8 4.2-3.2 7.4-.2 1.9-.4 4-.6 5.9-.4 3.1-.8 6.3-1 9.5-.1 1.4-.2 2.7-.3 4.2-5 .6-9.9 1.3-14.8 2.1-1.6.2-3.2.5-4.8.7-1.1.2-2.2.2-3.5.3-3.3.2-6.7.4-9.1 2.4-2.8 2.4-5.3 5.1-7.5 8.1-4.4-3.7-7.4-5.6-7.7-5.7-1.1-.6-2.6-.3-3.2.8-.6 1.1-.3 2.6.8 3.2.1.1 2.9 1.8 7.3 5.5l-.9 1.2c-.6.8-1.2 1.6-1.8 2.5-2.2 2.9-4.3 6-6.3 8.9-2.6 3.7-5.2 7.6-8.1 11.2-.9 1.1-2.8 3.3-4.9 5.6-.1.2-.3.3-.4.5-.4 2.7-.8 5.6-1.2 8.3 1.6-1.9 3.5-3.9 5-5.6 2.2-2.5 4.1-4.6 5.1-5.8 2.9-3.7 5.7-7.7 8.2-11.5 2-2.9 4-5.9 6.1-8.7.6-.8 1.2-1.6 1.9-2.5 3.2-4.4 6.6-8.9 10.5-12.2 1.2-1.1 3.9-1.2 6.4-1.3 1.3-.1 2.6-.1 3.9-.4 1.6-.2 3.2-.5 4.9-.8 5.3-.8 10.8-1.6 16.3-2.3.8-.1 1.5-.2 2.3-.3 3.1-.4 6.3-.9 8.3.1 2.7 1.3 6.1 4 6.6 8.7.5 5.2-2 12.3-7 14.7l-3 1.5c-6.8 3.3-13.9 6.7-21.1 9.1-3.3 1.1-5.7 2.1-7.4 6.1-.8 1.9-2.1 3.6-3.5 5.5-.8 1.1-1.6 2.1-2.3 3.3-.6 1-1.1 2.1-1.4 3.1-.1.2-.2.5-.3.8l-.6 1.8c-.2.9-.5 1.7-.9 2.3-4.6 7.3-10.5 14-18.7 21.2-1 .8-1.1 2.3-.2 3.3.5.5 1.1.8 1.8.8.5 0 1.1-.2 1.5-.6 8.4-7.3 14.9-14.6 19.6-22.2.7-1.1 1.1-2.3 1.4-3.4.2-.5.3-1 .5-1.4.1-.3.2-.5.3-.8.3-.8.6-1.6.9-2.2.6-1 1.3-2 2.1-3 .6-.9 1.3-1.8 1.9-2.7.4.8.9 1.6 1.3 2.5 14 28.1 6.3 61.9 6.3 62.2-.3 1.2.5 2.5 1.8 2.8.2.1.4.1.5.1 1.1 0 2-.7 2.3-1.8.4-1.5 8.2-35.7-6.6-65.4-.9-1.8-1.9-3.6-2.8-5.3.8-1.2 1.7-1.6 4-2.4 3.5-1.1 6.9-2.5 10.3-4 1.3 1.5 2.9 2.3 4.5 2.7 2.3.6 4.6.7 6.6.7h.6c1.7 0 3.4-.4 5.1-1.2-.4 7.7-.7 14.3-.9 20.4-.2 5.9 2.8 11.1 7.4 13 2.2.9 4.3 1.3 6.6 1.3 8.5 0 15.3-6.5 16.6-15.7.5-3.4 1.3-6.8 2.3-10.4.4-1.3.7-2.6 1.1-4 .2-.9.4-1.8.6-2.6.1-2.7.2-5.4.5-8.1.5-4.6 1.8-9.1 2.5-13.7-.5.8-1.3 1.5-1.8 2.4-.9 1.1-1.7 2.6-2.2 4.3zm-32.2 7.2v.1c-1.7 1.2-3.6 2-5.4 2h-.1c-2-.1-4 0-5.9-.5-.4-.1-.7-.2-1-.4 2.2-1.1 4.4-2.1 6.6-3.2l3-1.5c1.1-.5 2.2-1.2 3.1-2-.1 1.8-.2 3.7-.3 5.5z"/><path class="st1" d="M642.9 361.6c-.2-1.6-.4-3.2-.6-4.9-.2-1.6-.4-3.2-.6-4.7l-3-4.3c.2-.6.4-1.3.5-2 0-.5.1-.9.1-1.3.1-.6.1-1.3.2-1.9.2-2.4.5-4.6.1-6.7-1.2-6.6-5.4-10.9-13.6-13.9-.5 0-1.1.1-1.5.1l-3.2-4.2-.1-.2c.1-.4.2-.6.3-.8 3-5.9 8.7-20.5-3.5-27.8-2.5-1.5-4.6-2.2-6.7-2.2h-.5c-1.7.1-3.6.5-5.7 1.4-.2.1-.7.3-.9.5-.1.1-.4.5-.5.8-.7 1.5-1.4 2.9-2 4.4 0 .1 0 .1-.1.2l-3.7-4.4-.1-.2c3.3-16.6 3.7-19.9 3.7-20.5.2-5.9-2.6-10.4-8.2-13.6-4.6-2.6-12.9-1.4-17 2.5-3.3 3.1-5 7.6-6.6 11.6-.3.8-1 4.2-1.7 8l-3.2-2.5c-.4-.4-.6-.8-.9-1.3-.2-.3-.4-.6-.5-.9v-.1c-.2-.4-.3-.7-.4-1.1v-.1c-.1-.4-.2-.8-.4-1.1-.5-1.6-.8-3.4-1-5.2-.1-.5-.1-.9-.2-1.3-.2-2.6-.4-5.3-.4-7.5v-.4c0-.4 0-.6-.1-.9v-.1c0-.4-.1-.6-.1-.9-.5-7.9-.4-15.8-.1-23.7.2-6.6 1.9-13 2.3-19.7.4-6.2 2.9-12.8-.6-18.6-1.4-2.3-4.7-4.3-7.5-5-7.6-1.9-12.4 4.6-13.7 11.3-1.6 8.2-2.6 16.6-4 24.9-1.1 6.4-2.6 12.8-3.7 19.2-2.9 15.7-3.3 32.7-4.6 48.7-1.4 17.1-2.5 34.2-3.2 51.4-.2 3.6-.3 7.2-.4 10.8-.2 5-.3 9.9-.4 15-.1 3.6-.2 7.1-.2 10.8-.1 3.6-.1 7.3-.1 10.9-.1 14.2 1.9 28 1.6 42.1-.1 7-1 14-1.2 21-.4 11.1.4 21.9-.1 32.9h89.4c0-7.7-.5-15.4.1-23 1.3-16.3 8.4-30.7 15.6-45.2 4.3-8.6 6.6-17.9 8.2-27.3.9-4.9 1.4-9.8 2.3-14.6.9-4.7 3-9.3 2.4-14.4z"/><path class="st2" d="M638.7 347.7c-.1.2-.1.3-.1.5-.3.8-1.1 1.8-1.9 2.7-.9 1-1.9 2.2-2.5 3.5-1.2 2.5-2 5.2-2.9 7.8l-1.2 3.6c-.7 1.9-1.4 3.9-2 5.9-1.8 5.1-3.6 10.4-5.7 15.3-2.2 5.4-4.7 9.2-9.6 10.7-1.9.6-4.1.1-5.9-1.3-2-1.6-3.1-4-2.9-6.3.4-5.4 1.3-10.8 2.5-16.3.4-2.2.9-4.4 1.3-6.6.7-1.9 1.3-3.7 1.9-5.6.5-1.6 1-3.2 1.5-4.7l.5-1.4c1.4-4 2.9-8.2 4.5-12.1.7-1.7 1.5-3.3 2.4-5 1.3-2.7 2.7-5.6 3.6-8.6.2-.7.4-1.5.6-2.2.5-1.9 1.1-3.7 1.8-5.4l-3.3-4.2-.1-.2c0 .1-.1.2-.1.4-1.4 2.7-2.2 5.5-3 8.2l-.6 2.1c-.8 2.6-2 5.1-3.3 7.8-.9 1.8-1.8 3.5-2.5 5.4-1.7 4.1-3.2 8.3-4.6 12.4l-.5 1.4c-.6 1.6-1.1 3.3-1.6 4.9-1.1 3.3-2 6.4-3.4 9.4-.4.7-2.3 1.8-4 2.1-3.7.6-7.7 1.1-11.4.6-.1-.4-.2-.7-.2-1.1-.8-3.3-1.8-6.7-2.9-10.1.4-2.1.9-4.3 1.5-6.3.4-1.4.7-2.8 1-4.3.2-.7.3-1.4.5-2.1.1-.4.2-.8.2-1.2 1.9-.9 3.8-2.3 5.6-4.3l.4-.4c2-2.1 4.5-4.7 5-7.8.9-5.7 1.5-11.5 2-17.1.6-.7 1.3-1.4 1.9-2.2 5.6-6.4 5.8-13.5.5-21.4l-3.9-4.4-.1-.2c0 .1 0 .1-.1.2-5.1-4.3-12.8-4.7-21.3-1.1-3.3 1.4-6.6 3-9.7 4.7-.1-1.2-.2-2.3-.2-3.4 0-2.6.7-7.8 1.5-12.3l-3.2-2.5c-.4-.4-.6-.8-.9-1.3 0-.1-.1-.1-.1-.1 0 .1.1.1.1.1-1.1 5.4-2.2 12.8-2.2 16.1 0 1.9.2 3.8.4 5.7-1.5.8-3 1.5-4.4 2.3-1.2.6-2.5 1.1-3.8 1.6-2.1.8-4.3 1.7-6.3 3-5.2 3.3-7 8.5-8.5 13.3-.7 2.1-1.3 4.1-2.2 5.9-2.3 4.5-3.8 9.4-5.2 14.2-.8 2.7-1.7 5.7-2.7 8.4-.4 1.2-1.1 2.7-1.7 4.4-.6 1.5-1.2 3.2-1.9 5-.2 5-.3 9.9-.4 15 2.2-6.5 4.9-13.5 6.7-18.3.7-1.8 1.3-3.3 1.8-4.5 1.1-2.9 1.9-5.8 2.8-8.7 1.5-4.7 2.8-9.2 4.9-13.4 1.1-2.1 1.8-4.4 2.5-6.6 1.4-4.3 2.7-8.4 6.5-10.8 1.7-1.1 3.6-1.8 5.6-2.6 1.3-.5 2.7-1.1 4.1-1.8 2.3-1.1 4.6-2.3 6.9-3.5 3.7-2 7.7-4 11.6-5.7 5.7-2.5 13.5-4 18.3 2.2 5.3 7 5.6 12.2 1.1 17.4-7.8 8.8-15.6 17.1-26.1 21.6-1.5.6-1.6 2.2-1.6 2.9v.2c-.9 2-1 3.7-.6 5.3-.4 2.5-2.4 15.4-7.4 23.9-1.5 2.5-3.9 5.4-7.4 8.6-.9.9-1 2.3-.1 3.3.5.5 1.1.8 1.7.8s1.2-.2 1.6-.6c3.8-3.6 6.6-6.8 8.2-9.7 3.7-6.3 5.9-14.5 7-20 .4.6.8 1.2 1.1 1.8 3.2 7.4 5.7 14.8 7.5 21.9 1.8 7.1 3.6 15.6 4 24.1.1 1.3 1.1 2.2 2.3 2.2h.1c1.3-.1 2.3-1.1 2.2-2.5-.2-6.7-1.4-13.2-2.7-19.2.6.1 1.3.1 1.9.1 3.1 0 6.1-.4 9.1-.9.8-.1 1.9-.4 3-.9-.9 4.8-1.7 9.5-2 14.4-.3 3.9 1.5 7.8 4.7 10.4 2.1 1.7 4.6 2.6 7.1 2.6 1.1 0 2-.2 3-.5 7.1-2.2 10.2-7.7 12.6-13.5 2.1-5.1 4-10.5 5.7-15.6.7-1.9 1.3-3.9 2-5.9.5-1.2.9-2.5 1.2-3.7.8-2.6 1.6-5 2.7-7.3.4-.8 1.1-1.6 1.8-2.4.5-.6 1.1-1.2 1.5-1.9l-3.1-4.3zm-57.8 1.8c-.3 1.2-.5 2.3-.8 3.5-.6-1.5-1.2-3-1.9-4.5l-.3-.6c1.1.3 2.1.5 3.2.5-.1.4-.1.8-.2 1.1zm.3-5.7c-2.3.1-4.8-1.2-7.3-3.8l-.1-.1c.1-.3.2-.6.4-1s.3-.8.3-1.1c7.5-3.5 13.7-8.6 19.4-14.4-.4 3.6-.8 7.2-1.3 10.8-.2 1.6-2.2 3.7-3.7 5.3l-.4.4c-2.5 2.5-4.9 3.8-7.3 3.9z"/></svg>