<svg xmlns="http://www.w3.org/2000/svg" viewBox="0 0 1920 673" xml:space="preserve"><style>.st1{fill:#ddd}.st2{fill:#bbb}.st3{opacity:.15;fill:#444;enable-background:new}</style><path fill="#2e86b7" d="M0 0h1920v673H0z"/><path class="st1" d="M922.9 38.1c0-2.6-2.1-4.7-4.7-4.7h-66.3c-2.6 0-4.7 2.1-4.7 4.7v7.1l17.8 8.9v540.1c0 6.5 1.7 13 5 18.7l15.2 26.8 15.2-26.9c3.2-5.7 5-12.1 5-18.7v-540l17.8-8.9v-7.1z"/><path class="st2" d="M905.1 104.4h-40.3c-1.3 0-2.4-1.1-2.4-2.4s1.1-2.4 2.4-2.4h40.3c1.3 0 2.4 1.1 2.4 2.4s-1.1 2.4-2.4 2.4zm0 16.6h-40.3c-1.3 0-2.4-1.1-2.4-2.4s1.1-2.4 2.4-2.4h40.3c1.3 0 2.4 1.1 2.4 2.4s-1.1 2.4-2.4 2.4zm0 16.6h-40.3c-1.3 0-2.4-1.1-2.4-2.4s1.1-2.4 2.4-2.4h40.3c1.3 0 2.4 1.1 2.4 2.4s-1.1 2.4-2.4 2.4zm0 16.5h-40.3c-1.3 0-2.4-1.1-2.4-2.4s1.1-2.4 2.4-2.4h40.3c1.3 0 2.4 1.1 2.4 2.4s-1.1 2.4-2.4 2.4zm0 16.6h-40.3c-1.3 0-2.4-1.1-2.4-2.4s1.1-2.4 2.4-2.4h40.3c1.3 0 2.4 1.1 2.4 2.4s-1.1 2.4-2.4 2.4zm0 16.6h-40.3c-1.3 0-2.4-1.1-2.4-2.4 0-1.3 1.1-2.4 2.4-2.4h40.3c1.3 0 2.4 1.1 2.4 2.4s-1.1 2.4-2.4 2.4zm0 16.6h-40.3c-1.3 0-2.4-1.1-2.4-2.4 0-1.3 1.1-2.4 2.4-2.4h40.3c1.3 0 2.4 1.1 2.4 2.4 0 1.3-1.1 2.4-2.4 2.4zm0 16.6h-40.3c-1.3 0-2.4-1.1-2.4-2.4 0-1.3 1.1-2.4 2.4-2.4h40.3c1.3 0 2.4 1.1 2.4 2.4 0 1.3-1.1 2.4-2.4 2.4zM854.2 48.8l10.7 5.3v5.3h40.3v-5.3l10.7-5.3h-61.7z"/><path class="st3" d="M851.8 33.4c-2.6 0-4.7 2.1-4.7 4.7v7.1l7.1 3.6 10.7 5.3v45.6c-1.3 0-2.4 1.1-2.4 2.4s1.1 2.4 2.4 2.4v11.8c-1.3 0-2.4 1.1-2.4 2.4s1.1 2.4 2.4 2.4v11.8c-1.3 0-2.4 1.1-2.4 2.4s1.1 2.4 2.4 2.4v11.8c-1.3 0-2.4 1.1-2.4 2.4s1.1 2.4 2.4 2.4V166c-1.3 0-2.4 1.1-2.4 2.4s1.1 2.4 2.4 2.4v11.8c-1.3 0-2.4 1.1-2.4 2.4s1.1 2.4 2.4 2.4v11.8c-1.3 0-2.4 1.1-2.4 2.4 0 1.3 1.1 2.4 2.4 2.4v11.8c-1.3 0-2.4 1.1-2.4 2.4 0 1.3 1.1 2.4 2.4 2.4v373.7c0 6.5 1.7 13 5 18.7l15.2 26.8V33.4h-33.3z"/><path class="st1" d="M1072.9 38.1c0-2.6-2.1-4.7-4.7-4.7h-66.3c-2.6 0-4.7 2.1-4.7 4.7v7.1l17.8 8.9v540.1c0 6.5 1.7 13 5 18.7l15.2 26.8 15.2-26.9c3.2-5.7 5-12.1 5-18.7v-540l17.8-8.9v-7.1z"/><path class="st2" d="M1055.1 104.4h-40.3c-1.3 0-2.4-1.1-2.4-2.4s1.1-2.4 2.4-2.4h40.3c1.3 0 2.4 1.1 2.4 2.4s-1.1 2.4-2.4 2.4zm0 16.6h-40.3c-1.3 0-2.4-1.1-2.4-2.4s1.1-2.4 2.4-2.4h40.3c1.3 0 2.4 1.1 2.4 2.4s-1.1 2.4-2.4 2.4zm0 16.6h-40.3c-1.3 0-2.4-1.1-2.4-2.4s1.1-2.4 2.4-2.4h40.3c1.3 0 2.4 1.1 2.4 2.4s-1.1 2.4-2.4 2.4zm0 16.5h-40.3c-1.3 0-2.4-1.1-2.4-2.4s1.1-2.4 2.4-2.4h40.3c1.3 0 2.4 1.1 2.4 2.4s-1.1 2.4-2.4 2.4zm0 16.6h-40.3c-1.3 0-2.4-1.1-2.4-2.4s1.1-2.4 2.4-2.4h40.3c1.3 0 2.4 1.1 2.4 2.4s-1.1 2.4-2.4 2.4zm0 16.6h-40.3c-1.3 0-2.4-1.1-2.4-2.4 0-1.3 1.1-2.4 2.4-2.4h40.3c1.3 0 2.4 1.1 2.4 2.4s-1.1 2.4-2.4 2.4zm0 16.6h-40.3c-1.3 0-2.4-1.1-2.4-2.4 0-1.3 1.1-2.4 2.4-2.4h40.3c1.3 0 2.4 1.1 2.4 2.4 0 1.3-1.1 2.4-2.4 2.4zm0 16.6h-40.3c-1.3 0-2.4-1.1-2.4-2.4 0-1.3 1.1-2.4 2.4-2.4h40.3c1.3 0 2.4 1.1 2.4 2.4 0 1.3-1.1 2.4-2.4 2.4zm-50.9-171.7 10.7 5.3v5.3h40.3v-5.3l10.7-5.3h-61.7z"/><path class="st3" d="M1001.8 33.4c-2.6 0-4.7 2.1-4.7 4.7v7.1l7.1 3.6 10.7 5.3v45.6c-1.3 0-2.4 1.1-2.4 2.4s1.1 2.4 2.4 2.4v11.8c-1.3 0-2.4 1.1-2.4 2.4s1.1 2.4 2.4 2.4v11.8c-1.3 0-2.4 1.1-2.4 2.4s1.1 2.4 2.4 2.4v11.8c-1.3 0-2.4 1.1-2.4 2.4s1.1 2.4 2.4 2.4V166c-1.3 0-2.4 1.1-2.4 2.4s1.1 2.4 2.4 2.4v11.8c-1.3 0-2.4 1.1-2.4 2.4s1.1 2.4 2.4 2.4v11.8c-1.3 0-2.4 1.1-2.4 2.4 0 1.3 1.1 2.4 2.4 2.4v11.8c-1.3 0-2.4 1.1-2.4 2.4 0 1.3 1.1 2.4 2.4 2.4v373.7c0 6.5 1.7 13 5 18.7l15.2 26.8V33.4h-33.3z"/></svg>