<svg xmlns="http://www.w3.org/2000/svg" viewBox="0 0 1920 673" xml:space="preserve"><style>.st1{fill:#36434f}.st3{fill:#4caf50}.st4{fill:#f4f4f4}.st5{fill:#424242}.st6{fill:#338738}.st7{opacity:.15;fill:#444;enable-background:new}.st8{fill:#ddd}.st9{fill:#e9e9e9}</style><path fill="#eeefb6" d="M0 0h1920v673H0z"/><path class="st1" d="M755.4 169.5v-37.2h-14.7l-17.9 37.2h-27.7l21.8-45.9c-9.5-6.2-14.2-15.2-14.2-27.2 0-10.5 3.4-18.6 10.3-24.4 6.9-5.8 16.8-8.6 29.8-8.6h38.3v106h-25.7zm-27.3-70.8c0 5.4 1.1 9.3 3.3 11.7 2.2 2.4 5.8 3.6 11 3.6h13V83.2h-12.9c-5.1 0-8.8 1.3-11 4-2.2 2.6-3.4 6.5-3.4 11.5zm27.3 217.5V279h-14.7l-17.9 37.2h-27.7l21.8-45.9c-9.5-6.2-14.2-15.2-14.2-27.2 0-10.5 3.4-18.6 10.3-24.4 6.9-5.8 16.8-8.6 29.8-8.6h38.3v106h-25.7zm-27.3-70.8c0 5.4 1.1 9.3 3.3 11.7 2.2 2.4 5.8 3.6 11 3.6h13v-30.9h-12.9c-5.1 0-8.8 1.3-11 4-2.2 2.7-3.4 6.5-3.4 11.6zm27.3 217.4v-37.2h-14.7l-17.9 37.2h-27.7l21.8-45.9c-9.5-6.2-14.2-15.2-14.2-27.2 0-10.5 3.4-18.6 10.3-24.4 6.9-5.8 16.8-8.6 29.8-8.6h38.3v106h-25.7zM728.1 392c0 5.4 1.1 9.3 3.3 11.7 2.2 2.4 5.8 3.6 11 3.6h13v-30.9h-12.9c-5.1 0-8.8 1.3-11 4-2.2 2.7-3.4 6.6-3.4 11.6z"/><path d="M755.4 609.5v-37.2h-14.7l-17.9 37.2h-27.7l21.8-45.9c-9.5-6.2-14.2-15.2-14.2-27.2 0-10.5 3.4-18.6 10.3-24.4 6.9-5.8 16.8-8.6 29.8-8.6h38.3v106h-25.7zm-27.3-70.8c0 5.4 1.1 9.3 3.3 11.7s5.8 3.6 11 3.6h13v-30.9h-12.9c-5.1 0-8.8 1.3-11 4-2.2 2.6-3.4 6.5-3.4 11.6z" fill="#fff"/><path class="st3" d="M912.6 234.7c15.5 19.3 16.4 65.4-27.3 63.7-41.5-1.6-39.7-45.4-25.1-63.7 6.9-8.7 17.2-12.9 25.9-13 8.8-.1 19.4 4.2 26.5 13z"/><circle class="st4" cx="871.6" cy="253.4" r="12"/><path class="st3" d="M861.7 246.2h19.9c-2.3-3-5.9-5-10-5s-7.6 2-9.9 5z"/><circle class="st5" cx="871.6" cy="253.4" r="5.2"/><circle class="st4" cx="869.7" cy="251.8" r="1.7"/><circle class="st4" cx="901.4" cy="253.4" r="12"/><path class="st3" d="M891.4 246.2h19.9c-2.3-3-5.9-5-10-5s-7.5 2-9.9 5z"/><circle class="st5" cx="901.4" cy="253.4" r="5.2"/><circle class="st4" cx="899.5" cy="251.8" r="1.7"/><path class="st6" d="M886.5 284.2c-4.5 0-8.8-1.9-11.8-5.2l3.3-3c2.2 2.4 5.2 3.7 8.4 3.7s6.3-1.4 8.4-3.7l3.3 3c-2.8 3.3-7.1 5.2-11.6 5.2z"/><path class="st3" d="m870 310.8 7.2-17.4 4.6 1.9-7.2 17.4-4.6-1.9z"/><circle class="st6" cx="872.4" cy="311.6" r="4.6"/><path class="st3" d="m891.3 295.3 4.6-1.9 7.2 17.4-4.6 1.9-7.2-17.4z"/><circle class="st6" cx="900.7" cy="311.6" r="4.6"/><path class="st3" d="m901.2 289.1 4.3-2.4 13.2 23.8-4.3 2.4-13.2-23.8z"/><circle class="st6" cx="916.4" cy="311.6" r="4.6"/><path class="st3" d="m854.3 310.5 13.2-23.8 4.4 2.4-13.2 23.8-4.4-2.4z"/><circle class="st6" cx="856.6" cy="311.6" r="4.6"/><path class="st3" d="m877.2 212.3 1.8-.7 5.3 13.2-1.8.7-5.3-13.2z"/><circle class="st6" cx="878.3" cy="212" r="1.9"/><path class="st3" d="m888.6 224.7 5.3-13.2 1.8.7-5.3 13.2-1.8-.7z"/><circle class="st6" cx="894.8" cy="212" r="1.9"/><path class="st3" d="M934.6 281.2c-.5 0-1-.2-1.5-.5l-16.6-12.2c-1.1-.8-1.3-2.4-.5-3.5s2.4-1.3 3.5-.5l16.6 12.2c1.1.8 1.3 2.4.5 3.5-.5.6-1.3 1-2 1zm-96.1 0c-.8 0-1.5-.4-2-1-.8-1.1-.6-2.6.5-3.5l16.6-12.2c1.1-.8 2.7-.6 3.5.5.8 1.1.6 2.6-.5 3.5L840 280.7c-.5.3-1 .5-1.5.5z"/><path class="st5" d="M887 221.7v10.4h-1v-10.4h1zm-3.3.1-4.7 10 .9.4 5-10.5c-.4.1-.8.1-1.2.1zm9.4 10.5.9-.4-4.7-10c-.4 0-.8-.1-1.2-.1l5 10.5z"/><circle class="st6" cx="915.1" cy="276.8" r="1.8"/><circle class="st6" cx="911" cy="281.4" r="2.2"/><path class="st7" d="M877 311.6c0-1-.3-1.9-.9-2.7l4.5-10.8c1.5.2 3.1.3 4.7.4h1.2v-76.8h-3.2l-3.5-8.7c.2-.3.4-.7.4-1.1 0-1-.8-1.9-1.9-1.9s-1.9.8-1.9 1.9c0 .9.6 1.6 1.4 1.8l3.4 8.3c-7.4 1.3-15.4 5.5-21 12.5-6.2 7.8-10.1 20.1-9.4 31.8L837 276.7c-1.1.8-1.3 2.4-.5 3.5.5.7 1.2 1 2 1 .5 0 1-.2 1.5-.5l11.6-8.5c1.6 8 5.6 15.2 12.8 20.1l-8.1 14.7c-2.4.2-4.2 2.2-4.2 4.6 0 2.5 2 4.6 4.6 4.6s4.6-2 4.6-4.6c0-.8-.2-1.6-.6-2.2l8.1-14.6c2.1 1 4.4 1.8 6.9 2.4l-4.1 9.9c-2.1.4-3.7 2.3-3.7 4.5 0 2.5 2 4.6 4.6 4.6 2.5 0 4.5-2.1 4.5-4.6z"/><path class="st3" d="M912.6 381.4c15.5 19.3 16.4 65.4-27.3 63.7-41.5-1.6-39.7-45.4-25.1-63.7 6.9-8.7 17.2-12.9 25.9-13 8.8-.1 19.4 4.1 26.5 13z"/><circle class="st4" cx="871.6" cy="400.1" r="12"/><path class="st3" d="M861.7 392.8h19.9c-2.3-3-5.9-5-10-5s-7.6 2-9.9 5z"/><circle class="st5" cx="871.6" cy="400.1" r="5.2"/><circle class="st4" cx="869.7" cy="398.4" r="1.7"/><circle class="st4" cx="901.4" cy="400.1" r="12"/><path class="st3" d="M891.4 392.8h19.9c-2.3-3-5.9-5-10-5s-7.5 2-9.9 5z"/><circle class="st5" cx="901.4" cy="400.1" r="5.2"/><circle class="st4" cx="899.5" cy="398.4" r="1.7"/><path class="st6" d="M886.5 430.8c-4.5 0-8.8-1.9-11.8-5.2l3.3-3c2.2 2.4 5.2 3.7 8.4 3.7s6.3-1.4 8.4-3.7l3.3 3c-2.8 3.3-7.1 5.2-11.6 5.2z"/><path class="st3" d="m870 457.4 7.2-17.4 4.6 1.9-7.2 17.4-4.6-1.9z"/><circle class="st6" cx="872.4" cy="458.2" r="4.6"/><path class="st3" d="m891.3 441.9 4.6-1.9 7.2 17.4-4.6 1.9-7.2-17.4z"/><circle class="st6" cx="900.7" cy="458.2" r="4.6"/><path class="st3" d="m901.2 435.7 4.3-2.4 13.2 23.8-4.3 2.4-13.2-23.8z"/><circle class="st6" cx="916.4" cy="458.2" r="4.6"/><path class="st3" d="m854.3 457.2 13.2-23.8 4.4 2.4-13.2 23.8-4.4-2.4z"/><circle class="st6" cx="856.6" cy="458.2" r="4.6"/><path class="st3" d="m877.2 358.9 1.8-.7 5.3 13.2-1.8.7-5.3-13.2z"/><circle class="st6" cx="878.3" cy="358.7" r="1.9"/><path class="st3" d="m888.6 371.3 5.3-13.2 1.8.7-5.3 13.2-1.8-.7z"/><circle class="st6" cx="894.8" cy="358.7" r="1.9"/><path class="st3" d="M934.6 427.8c-.5 0-1-.2-1.5-.5l-16.6-12.2c-1.1-.8-1.3-2.4-.5-3.5s2.4-1.3 3.5-.5l16.6 12.2c1.1.8 1.3 2.4.5 3.5-.5.7-1.3 1-2 1zm-96.1 0c-.8 0-1.5-.4-2-1-.8-1.1-.6-2.6.5-3.5l16.6-12.2c1.1-.8 2.7-.6 3.5.5.8 1.1.6 2.6-.5 3.5L840 427.3c-.5.4-1 .5-1.5.5z"/><path class="st5" d="M887 368.4v10.4h-1v-10.4h1zm-3.3.1-4.7 10 .9.4 5-10.5c-.4 0-.8.1-1.2.1zm9.4 10.5.9-.4-4.7-10c-.4 0-.8-.1-1.2-.1l5 10.5z"/><circle class="st6" cx="915.1" cy="423.5" r="1.8"/><circle class="st6" cx="911" cy="428" r="2.2"/><path class="st7" d="M877 458.2c0-1-.3-1.9-.9-2.7l4.5-10.8c1.5.2 3.1.3 4.7.4h1.2v-76.8h-3.2l-3.5-8.7c.2-.3.4-.7.4-1.1 0-1-.8-1.9-1.9-1.9s-1.9.8-1.9 1.9c0 .9.6 1.6 1.4 1.8l3.4 8.3c-7.4 1.3-15.4 5.5-21 12.5-6.2 7.8-10.1 20.1-9.4 31.8L837 423.3c-1.1.8-1.3 2.4-.5 3.5.5.7 1.2 1 2 1 .5 0 1-.2 1.5-.5l11.6-8.5c1.6 8 5.6 15.2 12.8 20.1l-8.1 14.7c-2.4.2-4.2 2.2-4.2 4.6 0 2.5 2 4.6 4.6 4.6s4.6-2 4.6-4.6c0-.8-.2-1.6-.6-2.2l8.1-14.6c2.1 1 4.4 1.8 6.9 2.4l-4.1 9.9c-2.1.4-3.7 2.3-3.7 4.5 0 2.5 2 4.6 4.6 4.6 2.5 0 4.5-2 4.5-4.6z"/><path class="st1" d="M755.4 609.5v-37.2h-14.7l-17.9 37.2h-27.7l21.8-45.9c-9.5-6.2-14.2-15.2-14.2-27.2 0-10.5 3.4-18.6 10.3-24.4 6.9-5.8 16.8-8.6 29.8-8.6h38.3v106h-25.7zm-27.3-70.8c0 5.4 1.1 9.3 3.3 11.7s5.8 3.6 11 3.6h13v-30.9h-12.9c-5.1 0-8.8 1.3-11 4-2.2 2.6-3.4 6.5-3.4 11.6z"/><path class="st3" d="M912.6 528c15.5 19.3 16.4 65.4-27.3 63.7-41.5-1.6-39.7-45.4-25.1-63.7 6.9-8.7 17.2-12.9 25.9-13 8.8-.1 19.4 4.2 26.5 13z"/><circle class="st4" cx="871.6" cy="546.7" r="12"/><path class="st3" d="M861.7 539.5h19.9c-2.3-3-5.9-5-10-5s-7.6 2-9.9 5z"/><circle class="st5" cx="871.6" cy="546.7" r="5.2"/><circle class="st4" cx="869.7" cy="545.1" r="1.7"/><circle class="st4" cx="901.4" cy="546.7" r="12"/><path class="st3" d="M891.4 539.5h19.9c-2.3-3-5.9-5-10-5s-7.5 2-9.9 5z"/><circle class="st5" cx="901.4" cy="546.7" r="5.2"/><circle class="st4" cx="899.5" cy="545.1" r="1.7"/><path class="st6" d="M886.5 577.4c-4.5 0-8.8-1.9-11.8-5.2l3.3-3c2.2 2.4 5.2 3.7 8.4 3.7s6.3-1.4 8.4-3.7l3.3 3c-2.8 3.3-7.1 5.2-11.6 5.2z"/><path class="st3" d="m870 604 7.2-17.4 4.6 1.9-7.2 17.4-4.6-1.9z"/><circle class="st6" cx="872.4" cy="604.9" r="4.6"/><path class="st3" d="m891.3 588.6 4.6-1.9 7.2 17.4-4.6 1.9-7.2-17.4z"/><circle class="st6" cx="900.7" cy="604.9" r="4.6"/><path class="st3" d="m901.2 582.4 4.3-2.4 13.2 23.8-4.3 2.4-13.2-23.8z"/><circle class="st6" cx="916.4" cy="604.9" r="4.6"/><path class="st3" d="m854.3 603.8 13.2-23.8 4.4 2.4-13.2 23.8-4.4-2.4z"/><circle class="st6" cx="856.6" cy="604.9" r="4.6"/><path class="st3" d="m877.2 505.6 1.8-.7 5.3 13.2-1.8.7-5.3-13.2z"/><circle class="st6" cx="878.3" cy="505.3" r="1.9"/><path class="st3" d="m888.6 518 5.3-13.2 1.8.7-5.3 13.2-1.8-.7z"/><circle class="st6" cx="894.8" cy="505.3" r="1.9"/><path class="st3" d="M934.6 574.5c-.5 0-1-.2-1.5-.5l-16.6-12.2c-1.1-.8-1.3-2.4-.5-3.5s2.4-1.3 3.5-.5L936 570c1.1.8 1.3 2.4.5 3.5-.4.6-1.2 1-1.9 1zm-96.1 0c-.8 0-1.5-.4-2-1-.8-1.1-.6-2.7.5-3.5l16.6-12.2c1.1-.8 2.7-.6 3.5.5.8 1.1.6 2.7-.5 3.5L840 574c-.5.3-1 .5-1.5.5z"/><path class="st5" d="M887 515v10.4h-1V515h1zm-3.3.1-4.7 10 .9.4 5-10.5c-.4.1-.8.1-1.2.1zm9.4 10.5.9-.4-4.7-10c-.4 0-.8-.1-1.2-.1l5 10.5z"/><circle class="st6" cx="915.1" cy="570.1" r="1.8"/><circle class="st6" cx="911" cy="574.6" r="2.2"/><path class="st7" d="M877 604.9c0-1-.3-1.9-.9-2.7l4.5-10.8c1.5.2 3.1.3 4.7.4h1.2V515h-3.2l-3.5-8.7c.2-.3.4-.7.4-1.1 0-1-.8-1.9-1.9-1.9s-1.9.8-1.9 1.9c0 .9.6 1.6 1.4 1.8l3.4 8.3c-7.4 1.3-15.4 5.5-21 12.5-6.2 7.8-10.1 20.1-9.4 31.8L837 570c-1.1.8-1.3 2.4-.5 3.5.5.7 1.2 1 2 1 .5 0 1-.2 1.5-.5l11.6-8.5c1.6 8 5.6 15.2 12.8 20.1l-8.1 14.7c-2.4.2-4.2 2.2-4.2 4.6 0 2.5 2 4.6 4.6 4.6s4.6-2 4.6-4.6c0-.8-.2-1.6-.6-2.2l8.1-14.6c2.1 1 4.4 1.8 6.9 2.4l-4.1 9.9c-2.1.4-3.7 2.3-3.7 4.5 0 2.5 2 4.6 4.6 4.6 2.5 0 4.5-2.1 4.5-4.6z"/><ellipse class="st8" cx="1038.6" cy="409.8" rx="53" ry="44.1"/><path class="st1" d="M1003.8 359.5c-6.9 3.9-10.7 10.7-9.2 16.1.3 1 .8 1.9 1.6 2.7l5.2 5.5c1 1.1 2.7 1.3 4 .6l9.3-5.2 9.3-5.2c1.3-.7 2-2.3 1.6-3.7l-1.9-7.4c-.3-1-.7-1.9-1.4-2.7-3.8-4.1-11.6-4.6-18.5-.7zm69.5 0c6.9 3.9 10.7 10.7 9.1 16.1-.3 1-.8 1.9-1.6 2.7l-5.2 5.5c-1 1.1-2.7 1.3-4 .6l-9.3-5.2-9.3-5.2c-1.3-.7-2-2.3-1.6-3.7l1.9-7.4c.3-1 .7-1.9 1.4-2.7 3.9-4.1 11.7-4.6 18.6-.7zm-38.8 53.2-8.6-7.8c-2.9-2.6-7.3-2.2-9.6.9l-9.7 12.8c-1.5 1.9-1.7 4.5-.7 6.7l2.8 6.1c1.4 3.1 4.5 5.1 7.9 5.1h14.6l3.3-23.8z"/><circle class="st4" cx="1021.4" cy="414.5" r="6.8"/><circle class="st1" cx="1021.4" cy="414.5" r="3"/><circle class="st4" cx="1020.3" cy="413.5" r="1"/><path class="st1" d="m1042.6 412.7 8.6-7.8c2.9-2.6 7.3-2.2 9.6.9l9.7 12.8c1.5 1.9 1.7 4.5.7 6.7l-2.8 6.1a8.68 8.68 0 0 1-7.9 5.1h-14.6l-3.3-23.8z"/><circle class="st4" cx="1055.7" cy="414.5" r="6.8"/><circle class="st1" cx="1055.7" cy="414.5" r="3"/><circle class="st4" cx="1054.6" cy="413.5" r="1"/><path class="st9" d="m1054.8 433.2-12.7-21.9c-.6-1.1-1.8-1.8-3.1-1.8h-.8c-1.3 0-2.5.7-3.1 1.8l-12.7 21.9c-2.6 4.4-2.6 9.9-.1 14.4l3.3 5.9c.5 1.6 1.4 3.1 2.4 4.4.5.6 1 1.1 1.6 1.6 2.4 2.1 5.6 3.4 9.1 3.4s6.6-1.3 9.1-3.4c.6-.5 1.1-1 1.6-1.6 1.1-1.3 1.9-2.8 2.4-4.4l3.3-5.9c2.3-4.5 2.3-9.9-.3-14.4z"/><path class="st1" d="M1028.2 444.5c-1.5 0-2.5 1.6-1.8 2.9 2.3 4.4 6.9 7.4 12.2 7.4 5.3 0 9.9-3 12.2-7.4.7-1.3-.3-2.9-1.8-2.9h-20.8z"/><path class="st7" d="m1024.8 367.2-1.1-4.2c-.3-1-.7-1.9-1.4-2.7-3.8-4.2-11.6-4.6-18.5-.8-6.9 3.9-10.6 10.7-9.1 16.1.3 1 .8 1.9 1.6 2.7l2.4 2.6c-8.1 7.7-13.1 17.9-13.1 29 0 20.4 16.7 37.6 39.3 42.6l.6 1c.5 1.6 1.4 3.1 2.4 4.4.5.6 1 1.1 1.6 1.6 2.4 2.1 5.6 3.4 9.1 3.4v-97.1c-4.8-.1-9.4.5-13.8 1.4z"/><ellipse class="st8" cx="1038.6" cy="556.5" rx="53" ry="44.1"/><path class="st1" d="M1003.8 506.1c-6.9 3.9-10.7 10.7-9.2 16.1.3 1 .8 1.9 1.6 2.7l5.2 5.5c1 1.1 2.7 1.3 4 .6l9.3-5.2 9.3-5.2c1.3-.7 2-2.3 1.6-3.7l-1.9-7.4c-.3-1-.7-1.9-1.4-2.7-3.8-4.1-11.6-4.5-18.5-.7zm69.5 0c6.9 3.9 10.7 10.7 9.1 16.1-.3 1-.8 1.9-1.6 2.7l-5.2 5.5c-1 1.1-2.7 1.3-4 .6l-9.3-5.2-9.3-5.2c-1.3-.7-2-2.3-1.6-3.7l1.9-7.4c.3-1 .7-1.9 1.4-2.7 3.9-4.1 11.7-4.5 18.6-.7zm-38.8 53.2-8.6-7.8c-2.9-2.6-7.3-2.2-9.6.9l-9.7 12.8c-1.5 1.9-1.7 4.5-.7 6.7l2.8 6.1c1.4 3.1 4.5 5.1 7.9 5.1h14.6l3.3-23.8z"/><circle class="st4" cx="1021.4" cy="561.1" r="6.8"/><circle class="st1" cx="1021.4" cy="561.1" r="3"/><circle class="st4" cx="1020.3" cy="560.2" r="1"/><path class="st1" d="m1042.6 559.3 8.6-7.8c2.9-2.6 7.3-2.2 9.6.9l9.7 12.8c1.5 1.9 1.7 4.5.7 6.7l-2.8 6.1a8.68 8.68 0 0 1-7.9 5.1h-14.6l-3.3-23.8z"/><circle class="st4" cx="1055.7" cy="561.1" r="6.8"/><circle class="st1" cx="1055.7" cy="561.1" r="3"/><circle class="st4" cx="1054.6" cy="560.2" r="1"/><path class="st9" d="m1054.8 579.9-12.7-21.9c-.6-1.1-1.8-1.8-3.1-1.8h-.8c-1.3 0-2.5.7-3.1 1.8l-12.7 21.9c-2.6 4.4-2.6 9.9-.1 14.4l3.3 5.9c.5 1.6 1.4 3.1 2.4 4.4.5.6 1 1.1 1.6 1.6 2.4 2.1 5.6 3.4 9.1 3.4s6.6-1.3 9.1-3.4c.6-.5 1.1-1 1.6-1.6 1.1-1.3 1.9-2.8 2.4-4.4l3.3-5.9c2.3-4.5 2.3-10-.3-14.4z"/><path class="st1" d="M1028.2 591.2c-1.5 0-2.5 1.6-1.8 2.9 2.3 4.4 6.9 7.4 12.2 7.4 5.3 0 9.9-3 12.2-7.4.7-1.3-.3-2.9-1.8-2.9h-20.8z"/><path class="st7" d="m1024.8 513.9-1.1-4.2c-.3-1-.7-1.9-1.4-2.7-3.8-4.2-11.6-4.6-18.5-.8-6.9 3.9-10.6 10.7-9.1 16.1.3 1 .8 1.9 1.6 2.7l2.4 2.6c-8.1 7.7-13.1 17.9-13.1 29 0 20.4 16.7 37.6 39.3 42.6l.6 1c.5 1.6 1.4 3.1 2.4 4.4.5.6 1 1.1 1.6 1.6 2.4 2.1 5.6 3.4 9.1 3.4v-97.1c-4.8-.1-9.4.4-13.8 1.4z"/><path class="st8" d="M1202.3 586.2c0 24.7-10.6 23.2-23.7 23.2s-23.7 1.4-23.7-23.2 10.6-66.2 23.7-66.2c13 0 23.7 41.5 23.7 66.2z"/><path d="M1178.6 503.5c-25.6 0-46.4 12.8-46.4 28.7v2.2c0 3.7 3 6.6 6.6 6.6h79.5c3.7 0 6.6-3 6.6-6.6v-2.2c0-15.9-20.7-28.7-46.3-28.7z" fill="#a18267"/><path class="st7" d="M1158.1 603.2c3.1 5.2 8.3 6.1 14.4 6.2h12.1c6.1-.1 11.3-1 14.4-6.2h-40.9zm-25.9-68.5c.2 3.5 3.1 6.2 6.6 6.2h24c-.7 2-1.3 4.1-2 6.2h35.5c-.6-2.1-1.3-4.2-2-6.2h23.9c3.5 0 6.4-2.8 6.6-6.2h-92.6z"/><path class="st7" d="M1132.2 532.1v2.6c.1 1.2.5 2.3 1.1 3.2 0 .1.1.1.1.2s.1.1.1.2v.1c0 .1.1.1.1.2l.1.1c0 .1.1.1.1.2l.1.1.1.1s.1 0 .1.1l.1.1s.1 0 .1.1l.1.1s.1 0 .1.1l.1.1s.1 0 .1.1.1.1.1.1.1 0 .1.1l.1.1.1.1.1.1.1.1s.1 0 .1.1c0 0 .1 0 .1.1 0 0 .1 0 .1.1s.1 0 .1.1c0 0 .1 0 .1.1s.1 0 .1.1.1 0 .1 0h25.8c-4.9 13.9-7.9 32-7.9 45.3 0 12.5 2.7 18.3 7.2 21 .1.1.3.2.4.2.1.1.3.1.4.2.1.1.3.1.4.2l.4.2c.1.1.3.1.4.2.1.1.3.1.4.1.1 0 .3.1.5.1.1 0 .3.1.5.1.1 0 .3.1.5.1.1 0 .3.1.5.1.1 0 .3.1.5.1.1 0 .3 0 .5.1h.1c.1 0 .3 0 .5.1h.1c.1 0 .3 0 .5.1h10.3V503.5c-25.1 0-45.8 12.8-45.8 28.6z"/><path d="M1214.2 529.3c-1 0-2-.4-2.6-1.3-2.1-2.8-5-5.2-8.7-7.4-1.6-.9-2.1-3-1.1-4.5.9-1.6 3-2.1 4.5-1.1 4.3 2.6 7.9 5.6 10.5 9 1.1 1.4.8 3.5-.6 4.6-.6.4-1.3.7-2 .7z" opacity=".5" fill="#fff"/></svg>