<svg version="1.1" xmlns="http://www.w3.org/2000/svg" x="0" y="0" viewBox="0 0 872 440" xml:space="preserve"><style type="text/css">.st0,.st1{fill:none;stroke:#ddd;stroke-width:4;stroke-miterlimit:10}.st1{fill-rule:evenodd;clip-rule:evenodd;stroke:#36434f}.st2{fill:#36434f}</style><path class="st0" d="M346 0v440M310 0v440M274 0v440M238 0v440M202 0v440M166 0v440M130 0v440M94 0v440M58 0v440M22 0v440M418 0v440M0 22h440M0 58h440M0 94h440M0 130h440M0 166h440M0 202h440M0 238h440M0 274h440M0 310h440M0 346h440M0 382h440M382 0v440M0 418h440"/><path class="st1" d="M58 22h360v360H58z"/><path class="st2" d="M36.1 371.3h-3.4v-10.8l-3.3 1v-2.6l6.4-2.2h.3v14.6zm14.5-6c0 2-.4 3.5-1.3 4.6-.9 1.1-2.1 1.6-3.7 1.6s-2.9-.5-3.8-1.6-1.3-2.6-1.3-4.6v-2.7c0-2 .4-3.5 1.3-4.6.9-1.1 2.1-1.6 3.8-1.6 1.6 0 2.9.5 3.8 1.6.9 1.1 1.3 2.6 1.3 4.6v2.7zm-3.4-3.1c0-1-.1-1.8-.4-2.4-.3-.5-.7-.8-1.3-.8-.6 0-1 .2-1.3.7-.3.5-.4 1.2-.4 2.2v3.7c0 1.1.1 1.9.4 2.4.3.5.7.8 1.3.8.6 0 1-.2 1.3-.7.3-.5.4-1.3.4-2.3v-3.6zM43.5 47.5H40V36.4l-3.4 1v-2.6l6.6-2.3h.3v15zm1.8 36H35v-2.2l4.8-5c1.2-1.3 1.8-2.4 1.8-3.2 0-.6-.1-1.1-.4-1.5s-.7-.5-1.2-.5-.9.2-1.3.7c-.3.4-.5 1-.5 1.7h-3.4c0-.9.2-1.7.7-2.5.5-.8 1.1-1.4 1.9-1.8s1.7-.6 2.7-.6c1.6 0 2.8.4 3.7 1.1.9.7 1.3 1.8 1.3 3.2 0 .6-.1 1.2-.3 1.7-.2.6-.6 1.1-1 1.7-.5.6-1.2 1.4-2.2 2.4l-1.9 2.2h5.8v2.6zm-7.1 27.1h1.6c1.3 0 1.9-.6 1.9-1.9 0-.5-.2-.9-.5-1.2-.3-.3-.7-.5-1.3-.5-.4 0-.8.1-1.2.4-.3.3-.5.6-.5 1h-3.4c0-.8.2-1.5.6-2.1.4-.6 1-1.1 1.8-1.4.8-.3 1.6-.5 2.5-.5 1.6 0 2.9.4 3.8 1.1.9.7 1.4 1.8 1.4 3.1 0 .6-.2 1.2-.6 1.8-.4.6-.9 1-1.7 1.4.8.3 1.4.7 1.8 1.3.4.6.7 1.3.7 2.1 0 1.3-.5 2.3-1.5 3.1-1 .8-2.3 1.2-3.9 1.2-1 0-1.8-.2-2.7-.5-.8-.4-1.4-.9-1.9-1.5-.4-.6-.6-1.4-.6-2.2h3.4c0 .4.2.8.5 1.2.4.3.8.5 1.3.5.6 0 1.1-.2 1.4-.5.4-.3.5-.8.5-1.3 0-.7-.2-1.3-.6-1.6-.4-.3-.9-.5-1.5-.5h-1.6v-2.5zm5.8 39h1.5v2.7H44v3.2h-3.5v-3.2h-5.8l-.2-2.1 6-9.7H44v9.1zm-6.2 0h2.7V145l-.2.3-2.5 4.3zm-2.7 34.5l.9-7.6h8.6v2.7h-5.9l-.3 2.9c.2-.1.6-.3 1-.4.4-.1.8-.2 1.2-.2 1.5 0 2.6.4 3.4 1.3.8.9 1.2 2.1 1.2 3.7 0 .9-.2 1.8-.6 2.6-.4.8-1 1.4-1.8 1.8-.8.4-1.7.6-2.7.6-.9 0-1.8-.2-2.6-.6s-1.4-.9-1.9-1.6c-.5-.7-.7-1.4-.7-2.3h3.4c0 .5.2 1 .5 1.3.3.3.7.5 1.2.5 1.2 0 1.7-.9 1.7-2.6 0-1.6-.7-2.4-2.1-2.4-.8 0-1.4.3-1.8.8l-2.7-.5zm7.9 28.4v2.7h-.2c-1.3 0-2.3.3-3.1.9-.8.6-1.3 1.4-1.5 2.5.8-.7 1.7-1.1 2.9-1.1 1.3 0 2.3.5 3 1.4.7.9 1.1 2.1 1.1 3.6 0 .9-.2 1.8-.7 2.6-.4.8-1 1.4-1.8 1.8-.8.4-1.7.7-2.6.7-1 0-2-.2-2.8-.7-.8-.5-1.4-1.1-1.9-2s-.7-1.9-.7-3v-1.4c0-1.5.3-2.9 1-4.1.6-1.2 1.6-2.1 2.8-2.8s2.5-1 4-1h.5zm-3.1 7.5c-.4 0-.8.1-1.1.3-.3.2-.5.5-.7.8v1c0 1.8.6 2.8 1.9 2.8.5 0 .9-.2 1.3-.7.3-.5.5-1 .5-1.7s-.2-1.3-.5-1.7c-.3-.5-.8-.8-1.4-.8zm5.5 30.4l-5.6 13.1h-3.7l5.6-12.3h-7.1v-2.7h10.8v1.9zm-.6 38.2c0 .7-.2 1.3-.5 1.9-.4.5-.8 1-1.4 1.3.7.3 1.2.8 1.7 1.4.4.6.6 1.3.6 2.1 0 1.3-.4 2.3-1.3 3.1-.9.8-2.1 1.1-3.7 1.1s-2.8-.4-3.7-1.1c-.9-.8-1.4-1.8-1.4-3.1 0-.8.2-1.5.6-2.1s1-1.1 1.7-1.4c-.6-.3-1.1-.8-1.5-1.3-.4-.5-.5-1.2-.5-1.9 0-1.3.4-2.3 1.3-3 .9-.7 2-1.1 3.5-1.1s2.6.4 3.5 1.1c.7.7 1.1 1.7 1.1 3zm-3.1 6.4c0-.6-.2-1.1-.5-1.4-.3-.3-.7-.5-1.2-.5s-.9.2-1.2.5c-.3.3-.5.8-.5 1.4 0 .6.2 1 .5 1.4.3.3.7.5 1.2.5s.9-.2 1.2-.5c.3-.3.5-.8.5-1.4zm-1.7-7.9c-.5 0-.8.1-1 .4-.2.3-.4.7-.4 1.2s.1.9.4 1.3.6.5 1.1.5c.5 0 .8-.2 1-.5.2-.3.3-.7.3-1.3s-.1-.9-.4-1.2c-.2-.2-.5-.4-1-.4zm1.7 42.6c-.7.7-1.5 1-2.4 1-1.3 0-2.4-.4-3.1-1.3-.8-.9-1.2-2.1-1.2-3.6 0-.9.2-1.8.7-2.6s1-1.4 1.8-1.9 1.7-.7 2.6-.7c1 0 1.8.2 2.6.7.8.5 1.4 1.2 1.8 2.1.4.9.7 1.9.7 3.1v1.3c0 1.6-.3 3-.9 4.2-.6 1.2-1.5 2.1-2.7 2.7-1.2.6-2.5 1-4.1 1h-.2V333h.6c2.2-.3 3.5-1.4 3.8-3.3zm-1.6-1.5c.7 0 1.3-.3 1.6-1v-1.4c0-.9-.2-1.6-.5-2.1-.3-.4-.7-.7-1.3-.7-.5 0-.9.3-1.2.8-.3.5-.5 1.1-.5 1.8 0 .8.2 1.4.5 1.8.4.6.9.8 1.4.8zm38.4 76.5h-5l-.9 2.8h-3.9l5.5-15h3.4l5.5 15h-3.9l-.7-2.8zm-4.1-2.8h3.2l-1.6-5.2-1.6 5.2zm42-6.6h-6.5v2.4h1.9c1.2 0 2.2.2 3.2.6s1.6 1 2.1 1.7.7 1.6.7 2.5c0 1.5-.5 2.7-1.6 3.6s-2.6 1.4-4.4 1.4h-5.4v-15h10.1v2.8zm-6.5 5.1v4.3h1.9c.7 0 1.3-.2 1.7-.6.4-.4.6-.9.6-1.6 0-.6-.2-1.1-.6-1.5-.4-.4-1-.6-1.8-.6h-1.8zm32.3 7.1v-15h5.4c1.9 0 3.4.4 4.4 1.1s1.5 1.7 1.5 3.1c0 .8-.2 1.4-.5 2-.4.5-.9 1-1.6 1.2.8.2 1.4.6 1.8 1.2.4.6.6 1.3.6 2.1 0 1.5-.5 2.6-1.4 3.3-.9.7-2.3 1.1-4.1 1.1h-6.1zm3.6-8.7h1.9c.8 0 1.4-.2 1.7-.4.3-.3.5-.7.5-1.3 0-.6-.2-1.1-.5-1.4-.4-.3-1-.4-1.8-.4h-1.8v3.5zm0 2.3v3.6h2.4c.7 0 1.2-.1 1.5-.4.4-.3.5-.7.5-1.3 0-1.3-.6-1.9-1.9-1.9h-2.5zm43.3-5.8h-6.5v12.2H179v-15h10.1v2.8zm36.8 12.2h-2.6v-3h-6.6v3H214l-.2-5.2h.9c.4-.3.8-.8 1.1-1.5.3-.7.5-1.8.6-3.1l.4-5.2h8.2v9.8h1.3l-.4 5.2zm-7.9-5.2h4.1v-7.6h-2.6l-.2 3c-.2 2-.7 3.5-1.3 4.6zm42.1-1.2h-5.7v3.6h6.7v2.8h-10.3v-15h10.4v2.8h-6.7v3.2h5.7v2.6zm35.6.5h-1.8v5.9h-3.6v-5.9h-1.9l-2.9 5.9H281l4.5-8.2-4.4-6.8h4.6l3.1 5.9h1.5v-5.9h3.6v5.9h1.5l2.9-5.9h4.6l-4.3 6.8 4.4 8.2h-4.5l-2.8-5.9zm34.2-4.9c0-.5-.2-.8-.5-1.1-.4-.3-.8-.4-1.5-.4-.6 0-1 .1-1.4.4-.3.3-.5.6-.5 1.1h-3.5c0-.8.2-1.5.7-2.2.5-.6 1.1-1.1 1.9-1.5.8-.4 1.8-.5 2.8-.5 1.7 0 3.1.4 4.1 1.1 1 .7 1.5 1.8 1.5 3.1 0 .7-.2 1.3-.6 1.8-.4.6-.9 1-1.6 1.3.8.3 1.4.7 1.8 1.3.4.6.6 1.3.6 2.1 0 1.3-.5 2.4-1.6 3.1-1 .8-2.4 1.2-4.2 1.2-1.6 0-3-.4-4-1.1-1.1-.8-1.6-1.8-1.6-3.1h3.5c0 .4.2.8.6 1.1.4.3.9.4 1.5.4.7 0 1.2-.2 1.6-.5.4-.3.6-.7.6-1.2 0-.7-.2-1.2-.5-1.5-.3-.3-.9-.4-1.5-.4h-1.9v-2.6h2c1.2-.1 1.7-.7 1.7-1.9zm36.8-4.2h3.6v15h-3.6V398l-5.4 9.5h-3.6v-15h3.6v9.5l5.4-9.5zm32.2 9.1h-1.7v5.9h-3.6v-15h3.6v5.8h1.4l2.9-5.8h4.4l-4.1 6.9 4.6 8.1h-4.3l-3.2-5.9z"/><path class="st0" d="M778 0v440M742 0v440M706 0v440M670 0v440M634 0v440M598 0v440M562 0v440M526 0v440M490 0v440M454 0v440M850 0v440M432 22h440M432 58h440M432 94h440m-440 36h440m-440 36h440m-440 36h440m-440 36h440m-440 36h440m-440 36h440m-440 36h440m-440 36h440M814 0v440m-382-22h440"/><path class="st1" d="M490 22h360v360H490z"/><path class="st2" d="M468.1 371.3h-3.4v-10.8l-3.3 1v-2.6l6.4-2.2h.3v14.6zm14.5-6c0 2-.4 3.5-1.3 4.6-.9 1.1-2.1 1.6-3.7 1.6s-2.9-.5-3.8-1.6-1.3-2.6-1.3-4.6v-2.7c0-2 .4-3.5 1.3-4.6.9-1.1 2.1-1.6 3.8-1.6s2.9.5 3.8 1.6c.9 1.1 1.3 2.6 1.3 4.6v2.7zm-3.4-3.1c0-1-.1-1.8-.4-2.4-.3-.5-.7-.8-1.3-.8-.6 0-1 .2-1.3.7-.3.5-.4 1.2-.4 2.2v3.7c0 1.1.1 1.9.4 2.4.3.5.7.8 1.3.8.6 0 1-.2 1.3-.7.3-.5.4-1.3.4-2.3v-3.6zm-3.7-314.7H472V36.4l-3.4 1v-2.6l6.6-2.3h.3v15zm1.8 36H467v-2.2l4.8-5c1.2-1.3 1.8-2.4 1.8-3.2 0-.6-.1-1.1-.4-1.5s-.7-.5-1.2-.5-.9.2-1.3.7c-.3.4-.5 1-.5 1.7h-3.4c0-.9.2-1.7.7-2.5.5-.8 1.1-1.4 1.9-1.8.8-.4 1.7-.6 2.7-.6 1.6 0 2.8.4 3.7 1.1.9.7 1.3 1.8 1.3 3.2 0 .6-.1 1.2-.3 1.7-.2.6-.6 1.1-1 1.7-.5.6-1.2 1.4-2.2 2.4l-1.9 2.2h5.8v2.6zm-7.1 27.1h1.6c1.3 0 1.9-.6 1.9-1.9 0-.5-.2-.9-.5-1.2-.3-.3-.7-.5-1.3-.5-.4 0-.8.1-1.2.4-.3.3-.5.6-.5 1h-3.4c0-.8.2-1.5.6-2.1.4-.6 1-1.1 1.8-1.4.8-.3 1.6-.5 2.5-.5 1.6 0 2.9.4 3.8 1.1.9.7 1.4 1.8 1.4 3.1 0 .6-.2 1.2-.6 1.8-.4.6-.9 1-1.7 1.4.8.3 1.4.7 1.8 1.3.4.6.7 1.3.7 2.1 0 1.3-.5 2.3-1.5 3.1-1 .8-2.3 1.2-3.9 1.2-1 0-1.8-.2-2.7-.5-.8-.4-1.4-.9-1.9-1.5-.4-.6-.6-1.4-.6-2.2h3.4c0 .4.2.8.5 1.2.4.3.8.5 1.3.5.6 0 1.1-.2 1.4-.5.4-.3.5-.8.5-1.3 0-.7-.2-1.3-.6-1.6-.4-.3-.9-.5-1.5-.5h-1.6v-2.5zm5.8 39h1.5v2.7H476v3.2h-3.5v-3.2h-5.8l-.2-2.1 6-9.7h3.5v9.1zm-6.2 0h2.7V145l-.2.3-2.5 4.3zm-2.7 34.5l.9-7.6h8.6v2.7h-5.9l-.3 2.9c.2-.1.6-.3 1-.4.4-.1.8-.2 1.2-.2 1.5 0 2.6.4 3.4 1.3.8.9 1.2 2.1 1.2 3.7 0 .9-.2 1.8-.6 2.6-.4.8-1 1.4-1.8 1.8-.8.4-1.7.6-2.7.6-.9 0-1.8-.2-2.6-.6s-1.4-.9-1.9-1.6c-.5-.7-.7-1.4-.7-2.3h3.4c0 .5.2 1 .5 1.3.3.3.7.5 1.2.5 1.2 0 1.7-.9 1.7-2.6 0-1.6-.7-2.4-2.1-2.4-.8 0-1.4.3-1.8.8l-2.7-.5zm7.9 28.4v2.7h-.2c-1.3 0-2.3.3-3.1.9-.8.6-1.3 1.4-1.5 2.5.8-.7 1.7-1.1 2.9-1.1 1.3 0 2.3.5 3 1.4.7.9 1.1 2.1 1.1 3.6 0 .9-.2 1.8-.7 2.6-.4.8-1 1.4-1.8 1.8-.8.4-1.7.7-2.6.7-1 0-2-.2-2.8-.7-.8-.5-1.4-1.1-1.9-2s-.7-1.9-.7-3v-1.4c0-1.5.3-2.9 1-4.1.6-1.2 1.6-2.1 2.8-2.8 1.2-.7 2.5-1 4-1h.5zm-3.1 7.5c-.4 0-.8.1-1.1.3-.3.2-.5.5-.7.8v1c0 1.8.6 2.8 1.9 2.8.5 0 .9-.2 1.3-.7.3-.5.5-1 .5-1.7s-.2-1.3-.5-1.7c-.3-.5-.8-.8-1.4-.8zm5.5 30.4l-5.6 13.1h-3.7l5.6-12.3h-7.1v-2.7h10.8v1.9zm-.6 38.2c0 .7-.2 1.3-.5 1.9-.4.5-.8 1-1.4 1.3.7.3 1.2.8 1.7 1.4.4.6.6 1.3.6 2.1 0 1.3-.4 2.3-1.3 3.1-.9.8-2.1 1.1-3.7 1.1s-2.8-.4-3.7-1.1c-.9-.8-1.4-1.8-1.4-3.1 0-.8.2-1.5.6-2.1.4-.6 1-1.1 1.7-1.4-.6-.3-1.1-.8-1.5-1.3-.4-.5-.5-1.2-.5-1.9 0-1.3.4-2.3 1.3-3 .9-.7 2-1.1 3.5-1.1s2.6.4 3.5 1.1c.7.7 1.1 1.7 1.1 3zm-3.1 6.4c0-.6-.2-1.1-.5-1.4-.3-.3-.7-.5-1.2-.5s-.9.2-1.2.5c-.3.3-.5.8-.5 1.4 0 .6.2 1 .5 1.4.3.3.7.5 1.2.5s.9-.2 1.2-.5.5-.8.5-1.4zm-1.7-7.9c-.5 0-.8.1-1 .4-.2.3-.4.7-.4 1.2s.1.9.4 1.3c.2.3.6.5 1.1.5.5 0 .8-.2 1-.5.2-.3.3-.7.3-1.3s-.1-.9-.4-1.2c-.2-.2-.5-.4-1-.4zm1.7 42.6c-.7.7-1.5 1-2.4 1-1.3 0-2.4-.4-3.1-1.3-.8-.9-1.2-2.1-1.2-3.6 0-.9.2-1.8.7-2.6.4-.8 1-1.4 1.8-1.9s1.7-.7 2.6-.7c1 0 1.8.2 2.6.7.8.5 1.4 1.2 1.8 2.1.4.9.7 1.9.7 3.1v1.3c0 1.6-.3 3-.9 4.2-.6 1.2-1.5 2.1-2.7 2.7-1.2.6-2.5 1-4.1 1h-.2V333h.6c2.2-.3 3.5-1.4 3.8-3.3zm-1.6-1.5c.7 0 1.3-.3 1.6-1v-1.4c0-.9-.2-1.6-.5-2.1s-.7-.7-1.3-.7c-.5 0-.9.3-1.2.8-.3.5-.5 1.1-.5 1.8 0 .8.2 1.4.5 1.8.4.6.9.8 1.4.8zm38.4 76.5h-5l-.9 2.8h-3.9l5.5-15h3.4l5.5 15h-3.9l-.7-2.8zm-4.1-2.8h3.2l-1.6-5.2-1.6 5.2zm42-6.6h-6.5v2.4h1.9c1.2 0 2.2.2 3.2.6s1.6 1 2.1 1.7.7 1.6.7 2.5c0 1.5-.5 2.7-1.6 3.6s-2.6 1.4-4.4 1.4h-5.4v-15h10.1v2.8zm-6.5 5.1v4.3h1.9c.7 0 1.3-.2 1.7-.6s.6-.9.6-1.6c0-.6-.2-1.1-.6-1.5-.4-.4-1-.6-1.8-.6h-1.8zm32.3 7.1v-15h5.4c1.9 0 3.4.4 4.4 1.1s1.5 1.7 1.5 3.1c0 .8-.2 1.4-.5 2-.4.5-.9 1-1.6 1.2.8.2 1.4.6 1.8 1.2.4.6.6 1.3.6 2.1 0 1.5-.5 2.6-1.4 3.3-.9.7-2.3 1.1-4.1 1.1h-6.1zm3.6-8.7h1.9c.8 0 1.4-.2 1.7-.4.3-.3.5-.7.5-1.3 0-.6-.2-1.1-.5-1.4-.4-.3-1-.4-1.8-.4h-1.8v3.5zm0 2.3v3.6h2.4c.7 0 1.2-.1 1.5-.4.4-.3.5-.7.5-1.3 0-1.3-.6-1.9-1.9-1.9h-2.5zm43.3-5.8h-6.5v12.2H611v-15h10.1v2.8zm36.8 12.2h-2.6v-3h-6.6v3H646l-.2-5.2h.9c.4-.3.8-.8 1.1-1.5.3-.7.5-1.8.6-3.1l.4-5.2h8.2v9.8h1.3l-.4 5.2zm-7.9-5.2h4.1v-7.6h-2.6l-.2 3c-.2 2-.7 3.5-1.3 4.6zm42.1-1.2h-5.7v3.6h6.7v2.8h-10.3v-15h10.4v2.8h-6.7v3.2h5.7v2.6zm35.6.5h-1.8v5.9h-3.6v-5.9h-1.9l-2.9 5.9H713l4.5-8.2-4.4-6.8h4.6l3.1 5.9h1.5v-5.9h3.6v5.9h1.5l2.9-5.9h4.6l-4.3 6.8 4.4 8.2h-4.5l-2.8-5.9zm34.2-4.9c0-.5-.2-.8-.5-1.1-.4-.3-.8-.4-1.5-.4-.6 0-1 .1-1.4.4-.3.3-.5.6-.5 1.1h-3.5c0-.8.2-1.5.7-2.2.5-.6 1.1-1.1 1.9-1.5.8-.4 1.8-.5 2.8-.5 1.7 0 3.1.4 4.1 1.1 1 .7 1.5 1.8 1.5 3.1 0 .7-.2 1.3-.6 1.8-.4.6-.9 1-1.6 1.3.8.3 1.4.7 1.8 1.3.4.6.6 1.3.6 2.1 0 1.3-.5 2.4-1.6 3.1-1 .8-2.4 1.2-4.2 1.2-1.6 0-3-.4-4-1.1-1.1-.8-1.6-1.8-1.6-3.1h3.5c0 .4.2.8.6 1.1.4.3.9.4 1.5.4.7 0 1.2-.2 1.6-.5s.6-.7.6-1.2c0-.7-.2-1.2-.5-1.5-.3-.3-.9-.4-1.5-.4h-1.9v-2.6h2c1.2-.1 1.7-.7 1.7-1.9zm36.8-4.2h3.6v15h-3.6V398l-5.4 9.5h-3.6v-15h3.6v9.5l5.4-9.5zm32.2 9.1h-1.7v5.9h-3.6v-15h3.6v5.8h1.4l2.9-5.8h4.4l-4.1 6.9 4.6 8.1h-4.3l-3.2-5.9z"/></svg>