<svg xmlns="http://www.w3.org/2000/svg" viewBox="0 0 1920 673" xml:space="preserve"><style>.st1{fill:#ddd}.st3{opacity:.15;fill:#444;enable-background:new}.st5{fill:#36434f}.st6{fill:#122a3a}</style><path fill="#48a4bb" d="M0 0h1920v673H0z"/><path class="st1" d="M564.6 579.7h790.9v27H564.6v-27z"/><path d="M960 80 564.6 270.5v311h790.9v-311L960 80z" fill="#e0ac7e"/><path class="st3" d="M564.6 270.5v50.1L960 130.3l395.4 190.3v-50.1L960 80 564.6 270.5z"/><path d="m993.1 82.3-33.1-16-33.1 16-427 205.7 12.4 26.1L960 98.3 1407.7 314l12.4-26.1-427-205.6z" fill="#66442b"/><circle class="st1" cx="960" cy="261.5" r="21.6"/><path class="st5" d="M641 373h296.6v208.5H641V373z"/><path class="st6" d="M641 552.7h296.6v10.8H641v-10.8zm0-17.9h296.6v10.8H641v-10.8zm0-18h296.6v10.8H641v-10.8zm0-18h296.6v10.8H641v-10.8zm0-18h296.6v10.8H641v-10.8zm0-17.9h296.6v10.8H641v-10.8zm0-18h296.6v10.8H641v-10.8zm0-18h296.6v10.8H641v-10.8zm0-18h296.6v10.8H641v-10.8zm0-17.9h296.6v10.8H641V391zm0 179.7h296.6v10.8H641v-10.8zm0-197.7h296.6v10.8H641V373z"/><path class="st5" d="M982.5 373H1279v208.5H982.5V373z"/><path class="st6" d="M982.5 552.7H1279v10.8H982.5v-10.8zm0-17.9H1279v10.8H982.5v-10.8zm0-18H1279v10.8H982.5v-10.8zm0-18H1279v10.8H982.5v-10.8zm0-18H1279v10.8H982.5v-10.8zm0-17.9H1279v10.8H982.5v-10.8zm0-18H1279v10.8H982.5v-10.8zm0-18H1279v10.8H982.5v-10.8zm0-18H1279v10.8H982.5v-10.8zm0-17.9H1279v10.8H982.5V391zm0 179.7H1279v10.8H982.5v-10.8zm0-197.7H1279v10.8H982.5V373z"/><path class="st3" d="M564.6 288.9v317.8H960V66.3l-33.1 16-427 205.7 12.4 26.1 52.3-25.2z"/><path d="M641 581.5h296.6v25.2H641v-25.2zm341.5 0H1279v25.2H982.5v-25.2z" fill="#bbb"/></svg>