<svg xmlns="http://www.w3.org/2000/svg" viewBox="0 0 1920 673" xml:space="preserve"><path fill="#038387" d="M0 0h1920v673H0z"/><path d="m863 239.5-112.1 37.9 37.9-112.1 21.2 21.2c83.3-83.3 216.7-83.3 300 0 40.9 40.9 62.1 95.5 62.1 150h-45.5c0-42.4-16.7-84.8-48.5-118.2-65.2-65.2-171.2-65.2-236.4 0 .1 0 21.3 21.2 21.3 21.2zm215.2 215.2c-65.2 65.2-171.2 65.2-236.4 0-31.8-33.3-48.5-75.8-48.5-118.2h-45.5c0 54.5 21.2 109.1 62.1 150 83.3 83.3 216.7 83.3 300 0l21.2 21.2 37.9-112.1-112 37.9 21.2 21.2z" opacity=".6" fill="#fff"/></svg>