<svg version="1.1" xmlns="http://www.w3.org/2000/svg" x="0" y="0" viewBox="0 0 512 407" xml:space="preserve"><path d="M509.5 346.3c-3.4-1.9-8-.9-11.7-.7-7.2.4-14.5.5-21.7 1.5-6.4.9-12.7 2.7-18.5 5.5-5.4 2.7-9.8 6.7-15.1 9.7-13.3 7.6-27 11.7-41.7 15.9-15 4.3-29.9 8.5-44.9 12.8-6.9 2-14.1 3-21.3 2-6.7-.9-13.4-3.3-20-5-15.1-4.1-30.3-8.1-45.4-12-10.9-2.8-21.7-5.9-24.8-18.2-.6-2.5-.9-5.2-.7-7.8.2-3.7.4-4 4-3.7 7.3.5 14.6.7 21.9 1.5 10.1 1.1 18.7 5.5 27.6 9.9 7.2 3.5 14.5 8.7 22.6 8.4-1-1.8-1.9-3.9-3.7-5.1-2.6-1.8-6-3-8.9-4.3-7.8-3.8-15.2-8.3-23.4-11-8-2.7-16.4-4-24.8-4.2-8.3-.2-15.9-.8-23.7-4-6.9-2.8-13.6-6.2-17.5-12.8-3.3-5.5-4.8-12.3-3.7-18.7 1.3-7.4 6.3-13.2 11.8-18 3-2.6 4.9-3.2 8.7-2 4.5 1.4 8.9 3 13.3 4.5 9.5 3.2 18.9 6.3 28.4 9.4 4.5 1.5 8.7 3.4 13.4 3.1 1.9-.1 3.7-.1 5.6-.1-3.2-1.9-6.3-4.2-9.8-5.4-7.5-2.6-15.1-5-22.6-7.5-7.9-2.6-15.7-5.2-23.6-7.8-6.3-2.1-11.7-4.6-16.4-9.5-9.5-9.9-12-24.8-3.7-36.3 3.8-5.3 8.5-6.9 14.8-5.9 7.7 1.2 15.3 2.7 22.9 4.2 7.4 1.5 14.7 3.1 22 4.9 5.2 1.3 9.5 1.3 14.8 1.1-3.2-1.9-6.2-4.3-9.8-5.2-6.9-1.7-14-3.1-20.9-4.5-6.9-1.5-13.7-3-20.6-4.4-5.9-1.2-13-1.1-18.5-3.7-10.7-5.1-14.2-20-11.9-30.6 2.4-11.2 13.8-19.1 24.9-19.4 27.5-.8 54.7 6.1 82.1 1.7 3.2-.5 6.3-1.2 9.5-1.9 2.3-.6 7.1-.9 8.7-3 2.9-3.8-7.2-12-9.5-14.5-10-10.5-20.7-20.2-32-29.3-21.2-17-36.9-41.1-36.8-69.1 0-7.3 1.3-14.5 2.8-21.7.7-3.4 1.5-6.9 2.2-10.3.5-2.3.2-6 2.7-7 1.9-.8 6.2.2 7.6 1.8 1.3 1.5.9 3.6.6 5.4-.7 4.4-1.9 8.7-2 13.2 0 3.7 1 6.9 3.1 10 2.4 3.6 6 8.5 9.7 10.8 3.1 2 4.7-.2 7.6-1.1 2.3-.8 3.1 0 4.9 1.6 3.8 3.4 7.4 7 11.1 10.5 8.9 8.5 17.9 17.4 29 23 9.7 4.9 19.5 9.6 29.2 14.5 6.1 3.1 13.2 5.7 18.5 10.1 5.3 4.4 9.6 10.8 14.1 16.1 9.8 11.7 19.6 23.3 29.8 34.6 5.2 5.8 10.5 11.5 15.8 17.2 3.1 3.4 6.1 6.7 10.1 9.1 5.7 3.4 11.9 3.8 18.4 4.4l21.9 2.1c3 .3 7.2 1.4 10 .3 1.1-.5 2.2-1.5 3.2-2.2-4.2-3.5-8.6-3.1-14-3.5-11.3-.9-23.7-.1-34.2-4.9-10.9-4.9-17.8-15.4-25.3-24.2-8.9-10.3-17.9-20.5-26.7-30.9-7.5-8.8-14.6-18.3-24-25.1-4.7-3.4-9.9-5.5-15.1-7.8-6.4-2.9-12.7-6.1-19-9.3-7.9-4.1-15.9-7.9-22.7-13.7-9.6-8.2-18.1-18.1-28.1-25.6-1.9-1.4-4.8-1.8-6.4-3.6-1.3-1.4-1.5-3.6-2-5.4-1.4-4.6-3.1-9.1-4.9-13.5-2.1-5.3-4.5-11.2-8.4-15.5-1.6-1.8-3.6-3.1-5.9-3.8-2.3-.7-5.2.5-7.2-.2-1.7-.5-1.8-2.8-2.5-4.2-1.1-2.1-2.7-4.1-4.7-5.4-5.3-3.6-11-1.8-15.7 2-4.8 3.9-8.7 8.7-12.6 13.3-4 4.7-7.3 10.4-12.9 13.4-9.7 5.2-20.9 7.9-31 12.3-11.2 4.9-18.7 14.2-26.7 23.1-7.6 8.4-15.1 17-23.3 24.8-8.6 8.1-18.9 13.6-28 21-11.2 9.1-18.1 22.3-25.8 34.3-8 12.4-15.9 24.8-23.9 37.3-7.3 11.4-13.8 24.6-23.6 34.2-8.1 8-18.6 12.9-29.9 14.4h.1c-2.2.4-3 1.7-4.5 3.1 3.5 2.8 5.7 2.3 10.2 1.4 5.1-1.1 10.1-2.8 14.7-5.1 9.9-5.1 17-13.3 23.5-22.2 14.6-20.2 27.2-42 40.4-63.1 5.8-9.4 11.2-19.2 19.2-26.9 8.2-7.9 18.6-13.1 27.3-20.4 9.2-7.7 16.9-16.9 25.1-25.8 7.6-8.2 14.8-18.6 24.9-23.8 4.9-2.5 10.3-4.1 15.4-6.1 6-2.3 12.5-5.9 18.8-7.2 4.1-.8 7.7 2.2 11.5-.3 2.5-1.6 4.6-4.5 6.6-6.6 2.3-2.3 5.1-4.5 6.9-7.2 2.4-3.5 2.6-8.5 3.8-12.5 1.7-5.8 6.8-4 9.7.5 2.7 4.3 1.1 8.7-.1 13.2-1.6 6.4-2.6 12.9-3.7 19.3-1.8 10.5-3.4 21.6-9.8 30.4-5.8 7.9-13.8 10.8-21.9 15.5-9.3 5.5-15.2 14.9-21.1 23.8-3.3 4.9-6.4 10-9.4 15.1-2.7 4.6-8.2 10.9-7.2 16.6.9 5.3 7 10.6 11.6 12.9 5.4 2.8 11.2 2.3 17.1 2.6 11.1.6 22 .8 33.1.8 14.9 0 29.8-1.3 44.7-1 6.2.1 12.4.8 18.5 2.1 2.9.6 5.7 1.4 8.5 2.3 2.5.8 7.2 1.7 9.1 3.6-15.5 3.5-30.7 4.7-46.4 2.4-7.2-1.1-14.4-1.7-21.7-2.1-7.9-.4-16.3-1.2-24.2-.2-13.3 1.6-25 11-28 24.3s2.9 28.2 14.3 35.8c-.8 1.6-3.4 3.1-4.6 4.5-1.7 1.9-3.1 4.1-4.2 6.4-2.4 5.1-3.3 10.8-2.9 16.4.7 11.7 7.8 19.1 15.6 27-6.7 6.6-13.3 12.2-15.6 21.8-2.2 9.2.2 19.1 5.7 26.6 2.4 3.3 5.4 6.1 8.9 8.1 3.6 2.1 8.3 2.6 11.6 5.3 2.7 2.2 3.4 5.4 3.1 8.7-.4 5.2-3 4.9-7.7 6-23.3 5.4-46.9 10.3-70.5 13.5-23.6 3.2-47.6 4.2-71.4 5.5-10.6.6-24.8-1.2-33.2 6.5-4.5 4.1-8.7 8.8-12.9 13.3-2.8 3-4.1 5.5-5.9 9.2 3 1.1 4.5.4 6.4-2 3-3.7 6.6-7.1 10-10.5 5.6-5.8 9.3-9.4 17.5-9.9 15-.9 30-1.4 44.9-2.4 16.6-1.1 33.2-2.2 49.6-4.8 17.9-2.8 35.6-6.7 53.3-10.4 4.5-1 9.1-1.9 13.6-2.9 1.1-.2 2.3-.5 3.4-.7 3.8-.8 4 0 6 3.3 4.1 6.6 10.1 11 17.6 13.2 9.6 2.7 19.3 5 28.9 7.5 9.3 2.4 18.6 4.9 27.9 7.3 9.1 2.4 18.7 6 28.2 5.1 10-.9 20.1-5 29.7-7.7 9.6-2.7 19.2-5.3 28.8-8 10.8-3 21.3-5.6 31.3-10.8 8.4-4.4 16.4-9.7 24.6-14.4 8.6-5 18.4-5.6 28.1-6.4 5.4-.4 10.8-.6 16.2-1 3.7-.2 5.6-1.3 8.5-3.3l-2.7-1.6zM278.2 35.4c.5-2.3 1.2-5 1.2-7.4 1.4 3.7 2.8 7.5 4.1 11.2.7 2.1 1.5 4.2 2.2 6.4.7 1.9 2.6 5.4 2.1 7.5-2.7-.9-5.8-5.8-7.3-8.1-1.9-2.9-2.9-6.1-2.3-9.6zm-37.9-18.7c-.9 3.1-3.7 5.2-5.9 7.4-1.1 1.1-6.1 7.7-7.7 7.1-1.8-.7 5-7.7 6.2-9 2.8-3.2 5.7-6.4 8.3-9.8-.3 1.3-.6 2.8-.9 4.3zm49.2 136.8c-15.3 0-30.4 1.9-45.7 1.6-8.2-.2-16.3-.6-24.5-1.2-6.8-.5-15.7.8-21.8-2.9-4.2-2.6-9.3-7.2-6.5-12.1 2.1-3.6 4.4-7.2 6.6-10.8 4.2-6.8 8.2-13.8 12.8-20.4 3.9-5.6 7.8-11.2 13.8-14.8 6.3-3.8 12.8-5.5 18.3-10.9 4.7-4.7 8.1-10.3 11.7-15.8 1.9 5.8 2.5 11.9 4.5 17.7 1.9 5.5 4.4 10.9 7.3 15.9 5 8.5 11.5 16 18.8 22.5 13.7 12.3 29 23.6 40.7 37.9-11.5-4.4-23.6-6.7-36-6.7z" fill="#36434f"/></svg>