<svg xmlns="http://www.w3.org/2000/svg" viewBox="0 0 1920 673" xml:space="preserve"><style>.st1{fill:#e0ac7e}</style><path fill="#ddd" d="M0 0h1920v673H0z"/><path class="st1" d="M789 76.4h315.9v87.4H789V76.4z"/><path class="st1" d="m842.5 67.6-37.2 548.6h-48.1V67.6h85.3zm238.3 0 37.2 548.6h48.1V67.6h-85.3z"/><path class="st1" d="M780.2 342h367.2v38.3H780.2V342z"/><path d="M1166 110.3V67.6h-85.2l.5 8.7H842l.5-8.7h-85.2v42.6H1166z" opacity=".15" fill="#444"/><path d="M1186.8 80.8H733.2c-4.8 0-8.7-3.9-8.7-8.7v-6.6c0-4.8 3.9-8.7 8.7-8.7h453.6c4.8 0 8.7 3.9 8.7 8.7V72c0 4.8-3.9 8.8-8.7 8.8z" fill="#a18267"/></svg>