<svg xmlns="http://www.w3.org/2000/svg" viewBox="0 0 1920 673" xml:space="preserve"><path fill="#cc584c" d="M0 0h1920v673H0z"/><path d="M519.7 398.3h-28.5l-42.1-73.9v73.9h-28.6V279.6h28.6l42 73.9v-73.9h28.5v118.7zm13.4-44.9c0-8.8 1.7-16.6 5.1-23.5 3.4-6.9 8.3-12.2 14.8-15.9 6.4-3.7 13.9-5.5 22.6-5.5 13.2 0 23.6 4.1 31.2 12.3 7.6 8.2 11.4 19.3 11.4 33.4v1c0 13.8-3.8 24.7-11.5 32.7-7.6 8.1-18 12.1-31 12.1-12.6 0-22.6-3.8-30.3-11.3-7.6-7.5-11.7-17.7-12.3-30.6v-4.7zm27.5 1.7c0 8.2 1.3 14.1 3.8 17.9 2.6 3.8 6.3 5.7 11.3 5.7 9.8 0 14.8-7.5 15-22.6v-2.8c0-15.8-5.1-23.7-15.2-23.7-9.2 0-14.2 6.8-14.9 20.5v5zm101.8-67V310h14.5v19.1h-14.5v40.4c0 3.3.6 5.6 1.8 6.9 1.2 1.3 3.6 2 7.1 2 2.7 0 5-.2 6.9-.5v19.7c-4.9 1.6-10.1 2.4-15.5 2.4-9.5 0-16.4-2.2-21-6.7-4.5-4.5-6.8-11.2-6.8-20.3v-43.8h-11.3v-19.1h11.3v-21.9h27.5zM782.7 335l-9.1-.7c-8.6 0-14.2 2.7-16.6 8.2v55.9h-27.5v-88.2h25.8l.9 11.3c4.6-8.6 11.1-13 19.3-13 2.9 0 5.5.3 7.7 1l-.5 25.5zm51 64.9c-13.5 0-24.5-4-32.9-12.1-8.4-8.1-12.6-18.6-12.6-31.5V354c0-9 1.7-17 5-23.9 3.3-6.9 8.2-12.2 14.6-16 6.4-3.8 14-5.7 22.8-5.7 12.4 0 22.2 3.8 29.4 11.5 7.2 7.7 10.8 18.4 10.8 32.2v10.7h-54.6c1 4.9 3.1 8.8 6.4 11.7 3.3 2.8 7.6 4.2 12.9 4.2 8.7 0 15.5-3 20.4-9.1l12.6 14.8c-3.4 4.7-8.3 8.5-14.6 11.3-6.2 2.8-13 4.2-20.2 4.2zm-3.1-70.3c-8 0-12.8 5.3-14.4 16H844v-2.1c.1-4.4-1-7.8-3.3-10.2-2.4-2.4-5.7-3.7-10.1-3.7zm77.3-19.5.9 10.4c6.3-8 14.7-12 25.2-12 11.1 0 18.7 4.4 22.6 13.3 6-8.9 14.6-13.3 25.9-13.3 17.9 0 27.1 10.8 27.6 32.5v57.4h-27.6v-55.7c0-4.5-.8-7.8-2.3-9.9-1.5-2.1-4.3-3.1-8.3-3.1-5.4 0-9.5 2.4-12.2 7.3l.1 1.1v60.3h-27.6v-55.5c0-4.6-.7-8-2.2-10-1.5-2.1-4.3-3.1-8.4-3.1-5.3 0-9.3 2.4-12.1 7.3v61.4H882v-88.2h25.9zm160.6 89.8c-13.5 0-24.5-4-32.9-12.1-8.4-8.1-12.6-18.6-12.6-31.5V354c0-9 1.7-17 5-23.9 3.3-6.9 8.2-12.2 14.6-16 6.4-3.8 14-5.7 22.8-5.7 12.4 0 22.2 3.8 29.4 11.5 7.2 7.7 10.8 18.4 10.8 32.2v10.7H1051c1 4.9 3.1 8.8 6.4 11.7 3.3 2.8 7.6 4.2 12.9 4.2 8.7 0 15.5-3 20.4-9.1l12.6 14.8c-3.4 4.7-8.3 8.5-14.6 11.3-6.2 2.8-13 4.2-20.2 4.2zm-3.1-70.3c-8 0-12.8 5.3-14.4 16h27.7v-2.1c.1-4.4-1-7.8-3.3-10.2-2.3-2.4-5.6-3.7-10-3.7zm77.3-19.5.9 10.4c6.3-8 14.7-12 25.2-12 11.1 0 18.7 4.4 22.6 13.3 6-8.9 14.6-13.3 25.9-13.3 17.9 0 27.1 10.8 27.6 32.5v57.4h-27.6v-55.7c0-4.5-.8-7.8-2.3-9.9-1.5-2.1-4.3-3.1-8.3-3.1-5.4 0-9.5 2.4-12.2 7.3l.1 1.1v60.3H1167v-55.5c0-4.6-.7-8-2.2-10-1.5-2.1-4.3-3.1-8.4-3.1-5.3 0-9.3 2.4-12.1 7.3v61.4h-27.5v-88.2h25.9zm199.8 44.8c0 14.5-3 25.6-9 33.4-6 7.8-14.4 11.7-25.3 11.7-9 0-16.2-3.6-21.7-10.7l-1.1 9.1h-24.6V273.1h27.5v44.1c5.1-5.8 11.7-8.7 19.8-8.7 11 0 19.5 3.9 25.4 11.8 6 7.9 9 19 9 33.3v1.3zm-27.5-1.7c0-8.5-1.1-14.5-3.4-18.1-2.3-3.6-5.7-5.4-10.4-5.4-6.2 0-10.5 2.4-12.9 7.1v35c2.3 4.7 6.7 7 13 7 6.5 0 10.6-3.1 12.3-9.4.9-3.2 1.4-8.6 1.4-16.2zm82.3 46.7c-13.5 0-24.5-4-32.9-12.1-8.4-8.1-12.6-18.6-12.6-31.5V354c0-9 1.7-17 5-23.9 3.3-6.9 8.2-12.2 14.6-16 6.4-3.8 14-5.7 22.8-5.7 12.4 0 22.2 3.8 29.4 11.5 7.2 7.7 10.8 18.4 10.8 32.2v10.7h-54.6c1 4.9 3.1 8.8 6.4 11.7 3.3 2.8 7.6 4.2 12.9 4.2 8.7 0 15.5-3 20.4-9.1l12.6 14.8c-3.4 4.7-8.3 8.5-14.6 11.3-6.2 2.8-12.9 4.2-20.2 4.2zm-3.1-70.3c-8 0-12.8 5.3-14.4 16h27.7v-2.1c.1-4.4-1-7.8-3.3-10.2-2.3-2.4-5.6-3.7-10-3.7zm104.7 5.4-9.1-.7c-8.6 0-14.2 2.7-16.6 8.2v55.9h-27.5v-88.2h25.8l.9 11.3c4.6-8.6 11.1-13 19.3-13 2.9 0 5.5.3 7.7 1l-.5 25.5z" fill="#f4f4f4"/></svg>