<svg version="1.1" xmlns="http://www.w3.org/2000/svg" x="0" y="0" viewBox="0 0 512 308" xml:space="preserve"><style type="text/css">.st1{fill:#36434f}</style><path fill="#f4f4f4" d="M2 2h508v304H2z"/><path class="st1" d="M71 120.5v67H4v-67h67m4-4H0v75h75v-75zm433 4v67h-67v-67h67m4-4h-75v75h75v-75zM289.5 4v67h-67V4h67m4-4h-75v75h75V0zm-4 237v67h-67v-67h67m4-4h-75v75h75v-75zm-78-112.5v67h-67v-67h67m4-4h-75v75h75v-75zm144 4v67h-67v-67h67m4-4h-75v75h75v-75z"/><path class="st1" d="M44.7 171.1H39v-27.2l-8.7 3.2v-4.9l14-5.2h.4v34.1zm292.5 0h-5.6v-27.2l-8.7 3.2v-4.9l14-5.2h.4l-.1 34.1zM252 35h3.4c1 0 1.8-.1 2.6-.4s1.3-.6 1.8-1.1.8-1 1.1-1.7.4-1.4.4-2.1c0-1.7-.4-2.9-1.3-3.8s-2.2-1.3-3.9-1.3c-.8 0-1.5.1-2.1.3s-1.2.6-1.7 1-.8.9-1.1 1.5-.4 1.3-.4 2H245c0-1.3.3-2.6.8-3.7s1.3-2.1 2.3-3 2.1-1.5 3.4-2 2.8-.7 4.4-.7c1.6 0 3.1.2 4.4.6s2.5 1 3.4 1.8 1.7 1.8 2.2 3 .8 2.6.8 4.2c0 .7-.1 1.4-.3 2.1-.2.7-.5 1.4-.9 2s-.9 1.3-1.6 1.8-1.4 1.1-2.2 1.4c1 .4 1.9.8 2.6 1.4s1.3 1.2 1.7 1.9.8 1.4.9 2.2.3 1.6.3 2.4c0 1.6-.3 3-.9 4.3s-1.4 2.3-2.4 3.2-2.2 1.5-3.6 1.9-2.9.7-4.5.7c-1.5 0-2.9-.2-4.2-.6s-2.5-1-3.6-1.8-1.8-1.8-2.4-3-.9-2.6-.9-4.2h5.6c0 .8.1 1.4.4 2.1s.6 1.2 1.1 1.6 1.1.8 1.8 1 1.5.4 2.3.4c1.8 0 3.2-.5 4.2-1.4s1.5-2.3 1.5-4.1c0-1-.1-1.8-.4-2.5s-.7-1.3-1.3-1.8-1.2-.8-2-1-1.7-.3-2.6-.3H252V35zm0 233h3.4c1 0 1.8-.1 2.6-.4s1.3-.6 1.8-1.1.8-1 1.1-1.7.4-1.4.4-2.1c0-1.7-.4-2.9-1.3-3.8s-2.2-1.3-3.9-1.3c-.8 0-1.5.1-2.1.3s-1.2.6-1.7 1-.8.9-1.1 1.5-.4 1.3-.4 2H245c0-1.3.3-2.6.8-3.7s1.3-2.1 2.3-3 2.1-1.5 3.4-2 2.8-.7 4.4-.7c1.6 0 3.1.2 4.4.6s2.5 1 3.4 1.8c.9.8 1.7 1.8 2.2 3s.8 2.6.8 4.2c0 .7-.1 1.4-.3 2.1s-.5 1.4-.9 2-.9 1.3-1.6 1.8-1.4 1.1-2.2 1.4c1 .4 1.9.8 2.6 1.4s1.3 1.2 1.7 1.9.8 1.4.9 2.2.3 1.6.3 2.4c0 1.6-.3 3-.9 4.3s-1.4 2.3-2.4 3.2-2.2 1.5-3.6 1.9-2.9.7-4.5.7c-1.5 0-2.9-.2-4.2-.6s-2.5-1-3.6-1.8-1.8-1.8-2.4-3-.9-2.6-.9-4.2h5.6c0 .8.1 1.4.4 2.1s.6 1.2 1.1 1.6 1.1.8 1.8 1 1.5.4 2.3.4c1.8 0 3.2-.5 4.2-1.4s1.5-2.3 1.5-4.1c0-1-.1-1.8-.4-2.5s-.7-1.3-1.3-1.8-1.2-.8-2-1-1.7-.3-2.6-.3H252V268zm-58.2-96.7h-22.9v-3.9l11.1-12.1c.9-1 1.7-2 2.4-2.8s1.1-1.5 1.5-2.2.6-1.3.8-1.9.2-1.2.2-1.8c0-.8-.1-1.5-.4-2.2s-.6-1.2-1-1.7-1-.8-1.6-1.1-1.3-.4-2.1-.4c-2 0-3.5.6-4.5 1.7s-1.4 2.6-1.4 4.6h-5.6c0-1.5.3-2.9.8-4.2s1.3-2.5 2.3-3.5 2.2-1.8 3.7-2.3 3.1-.9 4.9-.9c1.7 0 3.2.2 4.5.7s2.4 1.2 3.3 2 1.6 1.9 2.1 3.1.7 2.5.7 3.9c0 1.1-.2 2.1-.5 3.1s-.8 2-1.4 3-1.3 2-2.2 3-1.8 2-2.7 3.1l-7.7 8.3h16v4.5h-.3zm292.5 0h-22.9v-3.9l11.1-12.1c.9-1 1.7-2 2.4-2.8s1.1-1.5 1.5-2.2.6-1.3.8-1.9.2-1.2.2-1.8c0-.8-.1-1.5-.4-2.2s-.6-1.2-1-1.7-1-.8-1.6-1.1-1.3-.4-2.1-.4c-2 0-3.5.6-4.5 1.7s-1.4 2.6-1.4 4.6h-5.6c0-1.5.3-2.9.8-4.2s1.3-2.5 2.3-3.5 2.2-1.8 3.7-2.3 3.1-.9 4.9-.9c1.7 0 3.2.2 4.5.7s2.4 1.2 3.3 2 1.6 1.9 2.1 3.1.7 2.5.7 3.9c0 1.1-.2 2.1-.5 3.1s-.8 2-1.4 3-1.3 2-2.2 3-1.8 2-2.7 3.1l-7.7 8.3h16v4.5h-.3z"/><path class="st1" d="M508 4v300H4V4h504m4-4H0v308h512V0z"/></svg>